<svg width="100" height="100" viewBox="0 0 100 100" fill="none" xmlns="http://www.w3.org/2000/svg">
<g clip-path="url(#clip0_2017_2179)">
<path fill-rule="evenodd" clip-rule="evenodd" d="M100 50C100 43.5 98.7 36.9 96.2 30.9C93.7 24.9 90 19.3 85.4 14.6C80.7 10 75.2 6.3 69.1 3.8C63 1.3 56.5 0 50 0C43.5 0 36.9 1.3 30.9 3.8C24.9 6.3 19.3 10 14.6 14.6C10 19.3 6.3 24.8 3.8 30.9C1.3 37 0 43.5 0 50C0 56.5 1.3 63.1 3.8 69.1C6.3 75.1 10 80.7 14.6 85.4C19.2 90 24.8 93.7 30.8 96.2C36.8 98.7 43.5 100 50 100C56.5 100 63.1 98.7 69.1 96.2C75.1 93.7 80.7 90 85.4 85.4C90 80.8 93.7 75.2 96.2 69.2C98.7 63.2 100 56.5 100 50Z" fill="url(#paint0_linear_2017_2179)"/>
<path fill-rule="evenodd" clip-rule="evenodd" d="M47.4 27.4H52.6V72.6H47.4V27.4Z" fill="white"/>
<path fill-rule="evenodd" clip-rule="evenodd" d="M44.5 48.7V43.3C40.4 41.3 37.5 37 37.5 32.1C37.5 25.2 43.1 19.6 50 19.6C57.8 19.6 63.4 25.2 63.4 32.1C63.4 33.8 63 35.5 62.2 37.5L60 30.3L55.6 31.7L59.5 46.6L74.7 41L72.8 36.6L67.1 38.5C68.1 36.3 68.3 34.6 68.3 32C68.3 22.3 60.5 14.5 49.9 14.5C40.2 14.5 32.4 22.3 32.4 32C32.5 39.8 37.5 46.4 44.5 48.7Z" fill="white"/>
<path fill-rule="evenodd" clip-rule="evenodd" d="M55.5 51.3V56.7C59.6 58.7 62.5 63 62.5 67.9C62.5 74.8 56.9 80.4 50 80.4C42.2 80.4 36.6 74.8 36.6 67.9C36.6 66.2 37 64.5 37.8 62.5L40 69.7L44.4 68.3L40.5 53.4L25.3 59L27.2 63.4L32.9 61.5C31.9 63.7 31.7 65.4 31.7 68C31.7 77.7 39.5 85.5 50.1 85.5C59.8 85.5 67.6 77.7 67.6 68C67.5 60.2 62.5 53.6 55.5 51.3Z" fill="white"/>
</g>
<defs>
<linearGradient id="paint0_linear_2017_2179" x1="0" y1="0" x2="100" y2="100" gradientUnits="userSpaceOnUse">
<stop stop-color="#0077FC"/>
<stop offset="1" stop-color="#095EB5"/>
</linearGradient>
<clipPath id="clip0_2017_2179">
<rect width="100" height="100" fill="white"/>
</clipPath>
</defs>
</svg>
