<svg width="2496" height="2496" viewBox="0 0 2496 2496" fill="none" xmlns="http://www.w3.org/2000/svg">
<g clip-path="url(#clip0_2017_2296)">
<path fill-rule="evenodd" clip-rule="evenodd" d="M1248 0C1937.3 0 2496 558.7 2496 1248C2496 1937.3 1937.3 2496 1248 2496C558.7 2496 0 1937.3 0 1248C0 558.7 558.7 0 1248 0Z" fill="#F0B90B"/>
<path d="M685.9 1248L686.8 1578L967.2 1743V1936.2L522.7 1675.5V1151.5L685.9 1248ZM685.9 918V1110.3L522.6 1013.7V821.4L685.9 724.8L850 821.4L685.9 918ZM1084.3 821.4L1247.6 724.8L1411.7 821.4L1247.6 918L1084.3 821.4Z" fill="white"/>
<path d="M803.9 1509.6V1316.4L967.2 1413V1605.3L803.9 1509.6ZM1084.3 1812.2L1247.6 1908.8L1411.7 1812.2V2004.5L1247.6 2101.1L1084.3 2004.5V1812.2ZM1645.9 821.4L1809.2 724.8L1973.3 821.4V1013.7L1809.2 1110.3V918L1645.9 821.4ZM1809.2 1578L1810.1 1248L1973.4 1151.4V1675.4L1528.9 1936.1V1742.9L1809.2 1578Z" fill="white"/>
<path d="M1692.1 1509.6L1528.8 1605.3V1413L1692.1 1316.4V1509.6Z" fill="white"/>
<path d="M1692.1 986.4L1693 1179.6L1411.8 1344.6V1675.4L1248.5 1771.1L1085.2 1675.4V1344.6L804 1179.6V986.4L968 889.8L1247.5 1055.6L1528.7 889.8L1692.8 986.4H1692.1ZM803.9 656.5L1247.6 394.9L1692.1 656.5L1528.8 753.1L1247.6 587.3L967.2 753.1L803.9 656.5Z" fill="white"/>
</g>
<defs>
<clipPath id="clip0_2017_2296">
<rect width="2496" height="2496" fill="white"/>
</clipPath>
</defs>
</svg>
