<svg width="30" height="30" viewBox="0 0 30 30" fill="none" xmlns="http://www.w3.org/2000/svg">
<g clip-path="url(#clip0_2045_2153)">
<path fill-rule="evenodd" clip-rule="evenodd" d="M13.822 15.052H6.92199V17.783H10.112L10.102 21.216C9.97899 21.348 9.83299 21.456 9.67199 21.535C9.46199 21.643 9.24199 21.732 9.01599 21.802C8.47931 21.966 7.92119 22.0493 7.35999 22.049C6.82141 22.0764 6.28534 21.9587 5.80776 21.7082C5.33019 21.4577 4.92862 21.0836 4.64499 20.625C3.97982 19.3778 3.66858 17.9724 3.74499 16.561V13.961C3.73363 13.1663 3.82267 12.3733 4.00999 11.601C4.15446 10.9961 4.39591 10.4186 4.72499 9.89095C4.99199 9.46395 5.35499 9.10595 5.78499 8.84395C6.18499 8.60695 6.64299 8.48395 7.10799 8.48695C7.50398 8.45405 7.90252 8.50227 8.27924 8.62864C8.65597 8.75502 9.00295 8.9569 9.29899 9.22195C9.82499 9.83695 10.139 10.605 10.194 11.413H13.821C13.7404 10.5674 13.533 9.73882 13.206 8.95495C12.9101 8.2493 12.4653 7.61587 11.902 7.09795C11.3094 6.5699 10.6118 6.17321 9.85499 5.93395C8.93573 5.64994 7.97694 5.5149 7.01499 5.53395C6.06016 5.52507 5.11443 5.72008 4.24099 6.10595C3.38565 6.48969 2.62583 7.05794 2.01599 7.76995C1.35449 8.55213 0.850873 9.45512 0.532994 10.429C0.160895 11.5772 -0.0188606 12.7791 0.000993725 13.986V16.561C-0.0168578 17.766 0.155252 18.9664 0.510994 20.118C0.810994 21.088 1.30399 21.989 1.96099 22.764C2.58111 23.4782 3.35521 24.0423 4.22499 24.4139C5.16379 24.8067 6.17346 25.0018 7.19099 24.9869C7.95599 24.9919 8.71999 24.917 9.46899 24.766C10.124 24.634 10.7649 24.4398 11.383 24.186C11.9032 23.9744 12.3986 23.7061 12.86 23.386C13.222 23.1384 13.5513 22.8461 13.84 22.516L13.822 15.052ZM16.482 17.835C16.472 18.805 16.625 19.77 16.933 20.69C17.214 21.527 17.663 22.3 18.25 22.959C18.8421 23.6096 19.5704 24.1218 20.383 24.459C21.2965 24.8323 22.2763 25.0161 23.263 24.999C24.2432 25.0157 25.2164 24.8319 26.123 24.459C26.931 24.1213 27.6543 23.6091 28.241 22.959C28.8253 22.2975 29.2711 21.5256 29.552 20.689C29.86 19.769 30.012 18.805 30.002 17.835V17.561C30.0111 16.5958 29.859 15.636 29.552 14.721C29.2711 13.883 28.823 13.1107 28.235 12.451C27.644 11.8006 26.919 11.2861 26.11 10.943C24.266 10.2146 22.214 10.2146 20.37 10.943C19.5628 11.2868 18.8396 11.8013 18.25 12.451C17.6616 13.1105 17.2135 13.8828 16.933 14.721C16.6255 15.6359 16.4734 16.5958 16.483 17.561L16.482 17.835ZM20.163 17.562C20.1608 17.0155 20.2191 16.4705 20.337 15.937C20.437 15.459 20.621 15.001 20.878 14.585C21.1227 14.1837 21.4703 13.8552 21.8847 13.6337C22.2992 13.4121 22.7654 13.3055 23.235 13.325C23.73 13.309 24.219 13.425 24.653 13.662C25.04 13.886 25.365 14.204 25.6 14.585C25.853 15.002 26.035 15.459 26.135 15.937C26.2525 16.4706 26.3105 17.0156 26.308 17.562V17.835C26.3116 18.3926 26.2539 18.9489 26.136 19.494C26.036 19.972 25.855 20.429 25.599 20.846C25.3562 21.244 25.0117 21.5702 24.6009 21.7908C24.1901 22.0114 23.7279 22.1185 23.262 22.101C22.7658 22.1157 22.2746 21.9991 21.838 21.763C21.4481 21.54 21.1186 21.2252 20.878 20.846C20.6193 20.4308 20.4361 19.973 20.337 19.494C20.2183 18.949 20.1599 18.3927 20.163 17.835V17.562ZM18.416 7.26195C18.502 7.45795 18.628 7.63195 18.786 7.77595C18.953 7.92295 19.146 8.03795 19.356 8.11395C19.828 8.27795 20.341 8.27795 20.812 8.11395C21.022 8.03795 21.216 7.92395 21.382 7.77595C21.542 7.63295 21.667 7.45795 21.752 7.26195C21.8396 7.06101 21.8848 6.84416 21.8848 6.62495C21.8848 6.40574 21.8396 6.18889 21.752 5.98795C21.6658 5.791 21.5398 5.61397 21.382 5.46795C21.2165 5.31684 21.0228 5.19993 20.812 5.12395C20.3406 4.95917 19.8273 4.95917 19.356 5.12395C19.1451 5.20023 18.9514 5.31748 18.786 5.46895C18.6265 5.61631 18.4995 5.79532 18.413 5.99453C18.3266 6.19375 18.2826 6.4088 18.284 6.62595C18.284 6.84495 18.329 7.06195 18.417 7.26295L18.416 7.26195ZM24.773 7.27495C24.859 7.47195 24.985 7.64895 25.143 7.79495C25.3084 7.94642 25.5021 8.06367 25.713 8.13995C26.183 8.30495 26.697 8.30495 27.169 8.13995C27.3799 8.06367 27.5736 7.94642 27.739 7.79495C27.896 7.64895 28.022 7.47195 28.109 7.27495C28.198 7.06995 28.243 6.84795 28.241 6.62495C28.2414 6.40872 28.197 6.19476 28.1104 5.99662C28.0238 5.79849 27.897 5.6205 27.738 5.47395C27.5711 5.32623 27.3777 5.21153 27.168 5.13595C26.6966 4.97117 26.1833 4.97117 25.712 5.13595C25.502 5.21095 25.309 5.32595 25.142 5.47395C24.9823 5.61992 24.855 5.7978 24.7683 5.99606C24.6817 6.19433 24.6376 6.40858 24.639 6.62495C24.637 6.84895 24.682 7.07095 24.773 7.27495Z" fill="black"/>
</g>
<defs>
<clipPath id="clip0_2045_2153">
<rect width="30" height="30" fill="white"/>
</clipPath>
</defs>
</svg>
