<svg width="500" height="500" viewBox="0 0 500 500" fill="none" xmlns="http://www.w3.org/2000/svg">
<path d="M82.283 219.613C82.283 204.489 87.2609 190.737 95.8668 179.833L186.967 270.888C175.872 279.493 162.098 284.471 147.164 284.471C111.18 284.45 82.0932 255.385 82.283 219.613ZM353.262 284.26C389.057 284.45 418.144 255.364 418.144 219.402C418.144 204.489 413.166 190.716 404.56 179.622L313.46 270.677C324.365 279.282 338.139 284.26 353.262 284.26ZM423.691 160.871C437.085 176.943 445.121 197.213 445.121 219.781C445.121 270.466 403.969 311.596 353.262 311.596C330.883 311.596 310.402 303.56 294.329 290.166L250.118 334.354L205.908 290.166C189.835 303.56 169.544 311.596 146.975 311.596C96.2675 311.596 55.1155 270.466 55.1155 219.781C55.1155 197.402 63.1519 176.922 76.5458 160.871L55.8748 140.221L36.1742 120.521C13.2041 158.382 0 202.57 0 250.028C0 388.14 111.94 499.865 249.929 499.865C387.897 499.865 499.857 387.95 499.857 250.028C500.237 202.401 487.033 158.213 464.063 120.521L423.691 160.871ZM249.929 296.114L51.6563 97.9313C57.2037 90.8443 63.1308 83.9682 69.2688 77.4718C114.808 29.8455 178.93 0 250.118 0C321.307 0 385.598 29.8455 430.968 77.4718C437.275 83.7784 443.223 90.8654 448.201 97.7415L249.929 296.114ZM96.4363 96.2228L250.097 249.838L403.758 96.2228C363.007 55.093 308.651 32.5243 250.097 32.5243C191.544 32.5243 137.399 55.093 96.4363 96.2228Z" fill="black"/>
</svg>
