<svg width="2000" height="2210" viewBox="0 0 2000 2210" fill="none" xmlns="http://www.w3.org/2000/svg">
<g clip-path="url(#clip0_2017_2354)">
<path opacity="0.2" d="M198.5 1841.3L321.6 2210L1166.6 1105L321.6 0L192.5 360.7L753.8 1104.8L198.5 1841.3Z" fill="#FF564F"/>
<path d="M1999.7 2209.8H1598.7L753.5 1104.8L1598.7 0H1999.7L1166.4 1104.8L1999.7 2209.8Z" fill="#F08179"/>
<path d="M0 0H321.4V2209.8H0V0Z" fill="#FF564F"/>
<path d="M2000 2209.8H1599L753.8 1104.8L1599 0H2000L1166.7 1104.8L2000 2209.8Z" fill="#FF564F"/>
<path d="M2000 2209.8H1599L753.8 1104.8L1599 0H2000L1166.7 1104.8L2000 2209.8Z" fill="#FF564F"/>
<path d="M2000 2209.8H1599L753.8 1104.8L1599 0H2000L1166.7 1104.8L2000 2209.8Z" fill="#FF564F"/>
<path d="M2000 2209.8H1599L753.8 1104.8L1599 0H2000L1166.7 1104.8L2000 2209.8Z" fill="#FF564F"/>
</g>
<defs>
<clipPath id="clip0_2017_2354">
<rect width="2000" height="2210" fill="white"/>
</clipPath>
</defs>
</svg>
