<svg width="320" height="320" viewBox="0 0 320 320" fill="none" xmlns="http://www.w3.org/2000/svg">
<g clip-path="url(#clip0_2740_303)">
<path d="M215.445 77.4044L177.052 134.444C174.397 138.329 179.503 143.031 183.179 139.76L220.959 106.844C221.98 106.027 223.41 106.64 223.41 108.071V210.907C223.41 212.338 221.572 212.951 220.755 211.929L106.393 74.9511C102.717 70.4533 97.4073 68 91.485 68H87.4007C76.7814 68 68 76.7911 68 87.6267V232.373C68 243.209 76.7814 252 87.6049 252C94.3441 252 100.675 248.524 104.351 242.596L142.744 185.556C145.398 181.671 140.293 176.969 136.617 180.24L98.8368 212.951C97.8158 213.769 96.3862 213.156 96.3862 211.724V109.093C96.3862 107.662 98.2242 107.049 99.0411 108.071L213.403 245.049C217.079 249.547 222.593 252 228.311 252H232.395C243.219 252 252 243.209 252 232.373V87.6267C252 76.7911 243.219 68 232.395 68C225.452 68 219.121 71.4756 215.445 77.4044Z" fill="black"/>
</g>
<defs>
<clipPath id="clip0_2740_303">
<rect width="184" height="184" fill="white" transform="translate(68 68)"/>
</clipPath>
</defs>
</svg>
