<svg width="513" height="512" viewBox="0 0 513 512" fill="none" xmlns="http://www.w3.org/2000/svg">
<g clip-path="url(#clip0)">
<rect x="0.45752" width="512" height="511.979" rx="30.3593" fill="white"/>
<path d="M391.524 271.793C391.524 292.327 386.812 311.177 377.386 328.345C367.961 345.175 353.487 358.808 333.963 369.243C314.439 379.678 290.203 384.896 261.254 384.896H207.732V512.136H121.391V157.681H261.254C289.53 157.681 313.43 162.562 332.953 172.323C352.477 182.085 367.12 195.55 376.882 212.717C386.643 229.885 391.524 249.577 391.524 271.793ZM254.69 316.226C271.184 316.226 283.471 312.355 291.55 304.613C299.628 296.871 303.668 285.931 303.668 271.793C303.668 257.655 299.628 246.715 291.55 238.973C283.471 231.231 271.184 227.36 254.69 227.36H207.732V316.226H254.69Z" fill="black"/>
<path d="M391.525 67.8836H121.391V124.928H391.525V67.8836Z" fill="#E50913"/>
</g>
<defs>
<clipPath id="clip0">
<rect x="0.45752" width="512" height="512" fill="white"/>
</clipPath>
</defs>
</svg>
