<svg width="237" height="200" viewBox="0 0 237 200" fill="none" xmlns="http://www.w3.org/2000/svg">
<g clip-path="url(#clip0_142_8422)">
<path d="M203 26.1601L174.54 40.6601L37.11 110.66C36.6453 107.116 36.4115 103.545 36.41 99.9701C36.4288 85.707 40.1735 71.6963 47.2732 59.3258C54.3729 46.9552 64.5813 36.6541 76.8871 29.4428C89.1929 22.2315 103.169 18.3602 117.432 18.2124C131.694 18.0646 145.747 21.6454 158.2 28.6001L174.49 20.3001L176.92 19.0601C161.997 8.229 144.371 1.73473 125.988 0.295057C107.605 -1.14462 89.182 2.52637 72.7551 10.9023C56.3282 19.2782 42.537 32.0329 32.9057 47.7567C23.2744 63.4805 18.1781 81.561 18.18 100C18.18 102.547 18.2767 105.083 18.47 107.61C18.7408 111.188 17.9472 114.766 16.1892 117.895C14.4312 121.023 11.7872 123.561 8.59 125.19L0 129.57V150L25.29 137.11L33.48 132.93L41.55 128.82L186.43 55.0001L202.71 46.7101L236.36 29.5601V9.14011L203 26.1601Z" fill="black"/>
<path d="M236.36 50L49.78 145L33.5 153.31L0 170.38V190.79L33.27 173.84L61.73 159.34L199.3 89.24C199.765 92.8078 199.999 96.402 200 100C199.991 114.28 196.248 128.309 189.141 140.694C182.034 153.08 171.812 163.391 159.488 170.605C147.165 177.818 133.169 181.683 118.89 181.816C104.611 181.948 90.5453 178.344 78.09 171.36L77.09 171.89L59.43 180.89C74.3493 191.721 91.9725 198.218 110.352 199.661C128.732 201.104 147.153 197.438 163.58 189.068C180.007 180.697 193.8 167.949 203.436 152.231C213.071 136.512 218.174 118.436 218.18 100C218.18 97.43 218.08 94.86 217.89 92.32C217.62 88.7432 218.412 85.1662 220.168 82.0385C221.924 78.9107 224.566 76.3715 227.76 74.74L236.36 70.36V50Z" fill="black"/>
</g>
<defs>
<clipPath id="clip0_142_8422">
<rect width="236.36" height="200" fill="white"/>
</clipPath>
</defs>
</svg>
