<svg width="100" height="100" viewBox="0 0 100 100" fill="none" xmlns="http://www.w3.org/2000/svg">
<path d="M50 100C77.6142 100 100 77.6142 100 50C100 22.3858 77.6142 0 50 0C22.3858 0 0 22.3858 0 50C0 77.6142 22.3858 100 50 100Z" fill="#30A1F5"/>
<path fill-rule="evenodd" clip-rule="evenodd" d="M48.94,77.64C48.73,77.51 42.20,71.02 34.42,63.23C18.66,47.45 20.00,48.96 20.00,46.99C20.00,45.72 20.14,45.26 20.61,44.91C20.81,44.76 21.02,44.43 21.11,44.11C21.20,43.81 21.40,43.39 21.56,43.19C21.71,42.98 21.94,42.62 22.06,42.38C22.18,42.13 22.43,41.77 22.62,41.56C22.94,41.21 23.23,40.77 24.00,39.45C24.17,39.15 24.47,38.72 24.66,38.49C25.28,37.74 25.97,36.58 26.11,36.05C26.19,35.77 26.39,35.41 26.57,35.24C26.75,35.07 26.99,34.77 27.09,34.56C27.20,34.36 27.44,34.05 27.63,33.88C27.82,33.70 28.05,33.34 28.13,33.06C28.33,32.43 29.14,31.23 29.55,30.96C29.73,30.84 29.98,30.54 30.11,30.28C30.43,29.65 31.88,28.28 32.33,28.18C33.08,28.01 33.20,27.96 33.64,27.56L34.10,27.15 L36.02,27.07C37.07,27.02 44.15,27.00 51.75,27.02C66.57,27.07 65.78,27.03 66.50,27.69C66.67,27.85 67.05,28.04 67.33,28.12C67.64,28.20 67.93,28.38 68.05,28.56C68.16,28.73 68.46,28.98 68.72,29.11C68.98,29.24 69.54,29.71 69.96,30.16C70.56,30.78 70.77,31.10 70.89,31.58C71.01,32.05 71.23,32.38 71.89,33.08C72.55,33.78 72.77,34.11 72.89,34.58C73.01,35.05 73.23,35.38 73.88,36.07C74.54,36.77 74.76,37.10 74.92,37.64C75.03,38.02 75.24,38.44 75.39,38.57C75.53,38.70 75.79,39.07 75.96,39.38C76.42,40.22 77.03,41.17 77.41,41.62C77.60,41.84 77.82,42.28 77.90,42.60C78.01,43.05 78.24,43.40 78.89,44.08C79.45,44.67 79.77,45.13 79.86,45.45C79.97,45.87 80.04,47.20 80.01,48.44C80.00,48.76 78.13,50.68 65.66,63.16C57.77,71.06 51.16,77.60 50.97,77.70C50.48,77.96 49.39,77.92 48.94,77.64ZM58.31,55.86C58.68,55.52 58.92,55.17 59.02,54.83C59.10,54.54 59.30,54.13 59.46,53.91C59.66,53.64 59.75,53.35 59.75,52.98C59.75,52.34 60.05,51.47 60.47,50.90C60.70,50.58 60.76,50.39 60.70,50.11C60.60,49.60 60.80,49.27 61.34,49.04C61.58,48.94 62.00,48.71 62.28,48.53C62.63,48.29 63.03,48.17 63.65,48.11C64.30,48.04 64.67,47.92 65.11,47.64C65.43,47.43 65.94,47.17 66.24,47.06C66.55,46.96 66.87,46.80 66.97,46.72C67.07,46.63 67.50,46.39 67.92,46.19C68.37,45.97 68.70,45.72 68.73,45.59C68.77,45.36 67.91,44.31 67.44,44.03C67.30,43.95 66.89,43.79 66.53,43.68C66.16,43.57 65.63,43.34 65.34,43.18C65.05,43.01 64.71,42.88 64.57,42.88C64.44,42.88 64.15,42.73 63.93,42.56C63.63,42.33 63.36,42.25 62.94,42.25C62.10,42.25 61.31,41.69 61.12,40.97C61.05,40.68 60.83,40.21 60.64,39.94C60.44,39.66 60.20,39.17 60.09,38.85C59.98,38.52 59.75,38.07 59.57,37.83C59.29,37.47 59.05,36.45 59.00,35.48C59.00,35.33 57.51,34.25 57.31,34.25C56.72,34.25 56.08,35.10 55.94,36.06C55.84,36.75 55.72,37.02 55.30,37.53C55.15,37.72 54.98,38.05 54.93,38.28C54.89,38.50 54.71,38.87 54.55,39.09C54.34,39.36 54.25,39.65 54.25,40.02C54.24,40.85 53.66,41.70 52.97,41.88C52.68,41.96 52.16,42.20 51.82,42.41C51.36,42.71 50.99,42.83 50.34,42.89C49.70,42.96 49.33,43.08 48.89,43.37C48.56,43.58 48.10,43.81 47.87,43.89C47.63,43.97 47.36,44.10 47.26,44.17C46.97,44.41 46.60,45.36 46.69,45.66C46.87,46.24 47.93,47.12 48.45,47.12C48.57,47.12 48.85,47.27 49.07,47.44C49.37,47.66 49.64,47.75 50.04,47.75C50.35,47.75 50.76,47.83 50.95,47.94C51.15,48.04 51.40,48.12 51.51,48.12C51.61,48.12 51.92,48.29 52.20,48.49C52.47,48.69 52.90,48.89 53.16,48.94C53.55,49.01 53.74,49.16 54.16,49.73C54.60,50.33 54.68,50.52 54.66,50.99C54.64,51.61 54.98,52.58 55.44,53.18C55.67,53.48 55.78,53.85 55.87,54.56C56.01,55.66 56.11,55.82 56.81,56.14C57.53,56.47 57.69,56.44 58.31,55.86Z" fill="#FFFFFF"/>
</svg>
