<svg width="2500" height="2500" viewBox="0 0 2500 2500" fill="none" xmlns="http://www.w3.org/2000/svg">
<g clip-path="url(#clip0_2017_2282)">
<path d="M1250 2500C1940.36 2500 2500 1940.36 2500 1250C2500 559.644 1940.36 0 1250 0C559.644 0 0 559.644 0 1250C0 1940.36 559.644 2500 1250 2500Z" fill="#2E3148"/>
<path d="M1250 1975.31C1650.58 1975.31 1975.31 1650.58 1975.31 1250C1975.31 849.422 1650.58 524.69 1250 524.69C849.422 524.69 524.69 849.422 524.69 1250C524.69 1650.58 849.422 1975.31 1250 1975.31Z" fill="#1B1E36"/>
<path d="M1252.57 159.47C1117.64 159.47 1008.23 648.87 1008.23 1252.58C1008.23 1856.29 1117.64 2345.69 1252.57 2345.69C1387.5 2345.69 1496.91 1856.29 1496.91 1252.58C1496.91 648.87 1387.5 159.47 1252.57 159.47ZM1269.44 2284C1254.01 2304.58 1238.58 2289.14 1238.58 2289.14C1176.44 2217.14 1145.37 2083.38 1145.37 2083.38C1036.68 1733.59 1062.55 982.56 1062.55 982.56C1113.63 386.32 1206.55 245.47 1238.17 214.2C1241.4 211.009 1245.65 209.058 1250.18 208.692C1254.7 208.327 1259.21 209.569 1262.91 212.2C1308.79 244.71 1347.27 380.67 1347.27 380.67C1460.9 802.48 1450.61 1198.57 1450.61 1198.57C1460.9 1543.22 1393.67 1929.02 1393.67 1929.02C1341.92 2222.22 1269.44 2284 1269.44 2284Z" fill="#6F7390"/>
<path d="M2200.72 708.59C2133.54 591.51 1654.63 740.17 1130.72 1040.59C606.81 1341.01 237.25 1679.48 304.38 1796.51C371.51 1913.54 850.47 1764.93 1374.38 1464.51C1898.29 1164.09 2267.85 825.62 2200.72 708.59ZM366.36 1780.45C340.64 1777.21 346.45 1756.07 346.45 1756.07C378 1666.36 478.4 1572.84 478.4 1572.84C727.83 1304.48 1392.19 953.19 1392.19 953.19C1934.73 700.77 2103.25 711.42 2146 723.19C2150.39 724.415 2154.2 727.153 2156.76 730.92C2159.33 734.687 2160.47 739.239 2160 743.77C2154.86 799.77 2055.83 900.77 2055.83 900.77C1746.71 1209.36 1398 1397.58 1398 1397.58C1104.17 1578.08 736.07 1711.67 736.07 1711.67C455.98 1812.6 366.37 1780.45 366.37 1780.45H366.36Z" fill="#6F7390"/>
<path d="M2198.35 1800.41C2266.05 1683.64 1897.42 1343.62 1375.35 1040.94C853.28 738.26 374.43 587.76 306.79 704.73C239.15 821.7 607.72 1161.52 1130.09 1464.2C1652.46 1766.88 2130.71 1917.39 2198.35 1800.41ZM351.65 749.85C341.65 726.14 362.76 720.43 362.76 720.43C456.22 702.78 587.5 743 587.5 743C944.65 824.33 1581.5 1223.25 1581.5 1223.25C2071.83 1566.36 2147.03 1717.49 2158.3 1760.39C2159.45 1764.79 2159 1769.45 2157.04 1773.56C2155.09 1777.66 2151.74 1780.94 2147.6 1782.82C2096.47 1806.23 1959.53 1771.35 1959.53 1771.35C1537.46 1658.18 1199.91 1450.83 1199.91 1450.83C896.62 1287.25 596.72 1035.55 596.72 1035.55C368.84 843.68 351.72 750.11 351.72 750.11L351.65 749.85Z" fill="#6F7390"/>
<path d="M1250 1378.6C1321.02 1378.6 1378.6 1321.02 1378.6 1250C1378.6 1178.98 1321.02 1121.4 1250 1121.4C1178.98 1121.4 1121.4 1178.98 1121.4 1250C1121.4 1321.02 1178.98 1378.6 1250 1378.6Z" fill="#B7B9C8"/>
<path d="M1777.26 833.33C1818.45 833.33 1851.85 798.784 1851.85 756.17C1851.85 713.556 1818.45 679.01 1777.26 679.01C1736.07 679.01 1702.67 713.556 1702.67 756.17C1702.67 798.784 1736.07 833.33 1777.26 833.33Z" fill="#B7B9C8"/>
<path d="M552.98 1095.68C594.175 1095.68 627.57 1061.13 627.57 1018.52C627.57 975.906 594.175 941.36 552.98 941.36C511.785 941.36 478.39 975.906 478.39 1018.52C478.39 1061.13 511.785 1095.68 552.98 1095.68Z" fill="#B7B9C8"/>
<path d="M1098.25 2042.18C1139.44 2042.18 1172.84 2007.63 1172.84 1965.02C1172.84 1922.41 1139.44 1887.86 1098.25 1887.86C1057.06 1887.86 1023.66 1922.41 1023.66 1965.02C1023.66 2007.63 1057.06 2042.18 1098.25 2042.18Z" fill="#B7B9C8"/>
</g>
<defs>
<clipPath id="clip0_2017_2282">
<rect width="2500" height="2500" fill="white"/>
</clipPath>
</defs>
</svg>
