<svg width="800" height="800" viewBox="0 0 800 800" fill="none" xmlns="http://www.w3.org/2000/svg">
<g clip-path="url(#clip0_2017_2184)">
<mask id="mask0_2017_2184" style="mask-type:luminance" maskUnits="userSpaceOnUse" x="0" y="0" width="800" height="800">
<path d="M800 0H0V800H800V0Z" fill="white"/>
</mask>
<g mask="url(#mask0_2017_2184)">
<path d="M400 788C614.286 788 788 614.286 788 400C788 185.714 614.286 12 400 12C185.714 12 12 185.714 12 400C12 614.286 185.714 788 400 788Z" fill="url(#paint0_linear_2017_2184)"/>
<path d="M569.8 554.6L438.6 237.4C431.2 221 420.2 213 405.7 213H394.1C379.6 213 368.6 221 361.2 237.4L304.1 375.6H260.9C248 375.7 237.5 386.1 237.4 399.1V399.4C237.5 412.3 248 422.8 260.9 422.9H284.1L229.6 554.6C228.6 557.5 228 560.5 228 563.6C228 571 230.3 576.8 234.4 581.3C238.5 585.8 244.4 588 251.8 588C256.7 587.9 261.4 586.4 265.3 583.5C269.5 580.6 272.4 576.4 274.7 571.6L334.7 422.8H376.3C389.2 422.7 399.7 412.3 399.8 399.3V398.7C399.7 385.8 389.2 375.3 376.3 375.2H354.1L399.9 261.1L524.7 571.5C527 576.3 529.9 580.5 534.1 583.4C538 586.3 542.8 587.8 547.6 587.9C555 587.9 560.8 585.7 565 581.2C569.2 576.7 571.4 570.9 571.4 563.5C571.5 560.5 571 557.4 569.8 554.6Z" fill="white"/>
</g>
</g>
<defs>
<linearGradient id="paint0_linear_2017_2184" x1="689.287" y1="156.586" x2="111.943" y2="642.362" gradientUnits="userSpaceOnUse">
<stop stop-color="#B6509E"/>
<stop offset="1" stop-color="#2EBAC6"/>
</linearGradient>
<clipPath id="clip0_2017_2184">
<rect width="800" height="800" fill="white"/>
</clipPath>
</defs>
</svg>
