<svg width="1920" height="1920" viewBox="0 0 1920 1920" fill="none" xmlns="http://www.w3.org/2000/svg">
<path d="M1648.4 1417.42C1630.77 1490.45 1595.2 1553.11 1536.68 1601.32C1500.49 1629.85 1459.31 1651.41 1415.24 1664.89C1338.97 1690.23 1262.18 1714.46 1185.65 1739.09C1092.47 1768.9 999.24 1798.64 905.97 1828.32C872.09 1839.61 837.02 1846.92 801.45 1850.09C775.39 1851.7 749.23 1849.76 723.69 1844.32C689.98 1837.76 657.46 1826.09 627.27 1809.72C552.62 1769.28 503.44 1708.5 477.97 1626.4C431.25 1475.68 382.13 1325.6 333.73 1175.39C320.33 1137.01 309.14 1097.89 300.23 1058.23C283.51 973.99 297.9 896.62 346.04 825.47C346.82 824.37 347.4 823.14 348.44 821.52C310.11 782.31 282.97 733.56 269.84 680.32C252.28 610.79 271.01 549.1 316.3 494.73C340.88 466.43 369.92 442.35 402.29 423.45C404.82 421.83 407.41 420.34 410.52 418.4C402.68 402.2 395.1 386 387.32 370.45C376.18 349.59 370.73 326.17 371.51 302.54C373.52 267.68 390.17 240.59 416.87 218.95C434.06 205.36 453.64 195.11 474.61 188.75C579.33 154.92 684.04 121.14 788.76 87.4001C808.39 80.3501 828.57 74.93 849.09 71.2C912.8 61.69 972.16 105.63 981.67 169.35C981.84 170.48 981.99 171.61 982.13 172.75C984.92 193.03 988.61 213.19 991.66 232.63C1008.64 232.63 1024.9 231.92 1041.1 232.63C1076.83 233.64 1112.21 239.97 1146.08 251.42C1203.95 270.87 1248.27 317.94 1264.21 376.87C1275.52 413.69 1281.22 452.01 1281.12 490.53C1281.12 502.06 1279.31 513.6 1278.33 524.87C1293.88 532.39 1309.37 539.58 1324.53 547.42C1390.09 580.66 1439.68 638.7 1462.29 708.64C1479.66 759.7 1495.86 811.09 1512.25 862.48C1556.96 1002.58 1601.52 1142.7 1645.93 1282.84C1659.19 1326.61 1660.04 1373.2 1648.39 1417.43L1648.4 1417.42Z" fill="white"/>
<path d="M1601.55 1404.46C1587.03 1461.61 1561.18 1512.81 1517.7 1553.5C1467.03 1600.87 1400.28 1619.01 1336.26 1639.88C1190.68 1687.05 1044.98 1733.6 899.18 1779.52C829.07 1801.55 763.49 1810.11 692.66 1785.68C640.3 1767.67 591.12 1733.52 560.01 1687.25C523.4 1632.82 509.92 1565.43 490.35 1503.74C467.07 1430.52 443.59 1357.4 419.91 1284.39C394.57 1205.92 362.56 1126.6 347.07 1045.41C333.01 971.93 352.06 908.75 390.62 846.21C401.44 827.07 398.35 803.09 383.04 787.31C339.49 740.85 303.21 673.13 313.7 607.43C324.46 540.04 380.64 494.22 435.26 460.72C458.91 446.2 464.29 418.41 452.69 394.24C428.71 344.54 397.42 290.56 454.7 251.68C484.83 231.14 525.59 223.69 559.94 212.8L674.7 175.67L783.43 140.61C811.88 131.54 845.25 115.14 875.77 119.03C937.65 126.94 937.27 198.54 944.98 245.65C948.35 266.26 972.2 281.48 991.83 281.35C1058.25 280.83 1137.95 281.35 1186.68 333.97C1232.04 382.89 1236.19 462.66 1229.9 525.13C1229.59 542.5 1238.85 558.63 1254.01 567.12C1313.63 595.89 1366.37 624.99 1399.29 684.99C1416.66 716.74 1425.99 752.51 1437.13 786.79C1450.61 828.31 1463.91 869.93 1477.05 911.66C1502.58 991.71 1528.09 1071.78 1553.58 1151.87C1579.5 1233.19 1620.84 1318.15 1601.73 1404.59C1588.25 1465.57 1681.95 1491.62 1695.5 1430.51C1706.86 1383.91 1707.66 1335.35 1697.83 1288.4C1687.2 1241.68 1669.45 1195.74 1654.93 1150.05C1625.73 1057.9 1596.42 965.82 1567 873.81C1541.08 791.51 1521.64 697.88 1476.28 623.75C1434.61 555.97 1373.25 516.96 1303.2 483.13L1326.92 524.8C1335.86 435.89 1318.5 332.28 1255.25 264.95C1187.66 193.09 1084.7 183.24 991.64 183.95L1038.62 219.65C1031.43 175.46 1028.32 130.49 1002.07 92.6402C980.76 61.6302 949.55 38.7902 913.55 27.8402C870.2 14.8802 827.56 24.0202 785.63 37.4302L636.59 85.4502L485.61 134.24C441.29 148.95 397.74 164.89 365.86 200.79C337.57 231.35 322.14 271.64 322.77 313.28C324.07 360.58 348.69 401.93 368.52 443.4L385.95 376.92C305.21 426.36 232.24 496.35 217.79 594.45C203.53 691.07 249.22 786.78 314.08 855.98L306.37 796.95C267.49 860.71 242.22 928.3 245 1004.31C248.05 1086.67 279.34 1165.47 304.42 1243.03C331.29 1326.23 358.1 1409.48 384.84 1492.77C408.88 1568.2 425.79 1651.66 466.16 1720.54C540.55 1847.35 693.93 1915.33 837.92 1894.14C923.33 1881.57 1007.05 1847.03 1089.02 1820.79C1169.8 1794.87 1250.61 1768.95 1331.44 1743.03C1415.36 1716.01 1501.8 1692.81 1570.88 1635.4C1634.32 1582.72 1674.95 1509.36 1695.17 1430.05C1710.72 1369.66 1617.02 1343.8 1601.53 1404.45L1601.55 1404.46Z" fill="white"/>
<path d="M348.45 821.64C310.14 782.48 282.98 733.8 269.78 680.64C252.35 611.04 271.01 549.36 316.31 494.99C340.87 466.67 369.92 442.59 402.3 423.71L410.53 418.66C402.69 402.46 395.11 386.26 387.33 370.71C376.17 349.86 370.72 326.43 371.52 302.8C373.59 268 390.18 240.85 416.88 219.21C434.09 205.62 453.7 195.38 474.68 189.01C579.31 155.18 684.01 121.4 788.77 87.6601C808.39 80.5201 828.57 75.01 849.1 71.2C912.81 61.69 972.17 105.63 981.68 169.35C981.85 170.48 982 171.61 982.14 172.75C984.93 193.03 988.62 213.12 991.73 232.69C1008.64 232.69 1024.97 231.98 1041.17 232.69C1076.9 233.66 1112.28 239.97 1146.15 251.42C1203.98 270.9 1248.28 317.96 1264.22 376.87C1275.52 413.69 1281.22 452.01 1281.13 490.53C1281.13 502.06 1279.32 513.6 1278.34 524.87C1293.89 532.45 1309.44 539.58 1324.54 547.49C1390.11 580.69 1439.71 638.71 1462.3 708.65C1479.67 759.71 1495.87 811.1 1512.26 862.42C1556.97 1002.52 1601.53 1142.68 1645.94 1282.91C1659.17 1326.64 1660.05 1373.18 1648.47 1417.37C1630.78 1490.4 1595.14 1553.06 1536.69 1601.27C1500.79 1630.88 1458.93 1650.26 1415.25 1664.84C1338.92 1690.24 1262.26 1714.48 1185.66 1739.04C1092.48 1768.93 999.25 1798.7 905.98 1828.33C872.09 1839.57 837.02 1846.85 801.46 1850.04C775.4 1851.65 749.24 1849.71 723.7 1844.27C690.01 1837.71 657.51 1826.04 627.34 1809.67C552.63 1768.98 503.44 1708.52 477.98 1626.42C431.19 1475.7 382.14 1325.62 333.74 1175.41C320.34 1137.03 309.15 1097.91 300.24 1058.25C283.59 974.01 297.91 896.64 346.05 825.49C346.83 824.52 347.48 823.29 348.45 821.67V821.64ZM509.8 786.97C504.75 793.84 500.47 800.32 495.54 806.41C478.76 826.3 460.94 845.29 444.87 865.83C397.44 926.16 382.86 993.1 407.16 1067.1C424.27 1118.94 441.63 1170.78 458.29 1223.14C500.22 1353.97 541.69 1484.93 583.81 1615.7C588.07 1629.71 594.43 1642.99 602.67 1655.1C619.19 1677.8 640.1 1696.95 664.17 1711.41C726.25 1749.9 792.28 1755.73 861.16 1734.09C927.9 1713.16 994.39 1691.45 1061 1670.13C1165.03 1636.82 1269.03 1603.56 1373.01 1570.34C1402.33 1562.06 1430.3 1549.55 1456.02 1533.21C1503.58 1500.81 1530.8 1454.41 1545.51 1399.66C1554.35 1371.24 1554.56 1340.84 1546.09 1312.31C1485.31 1122.53 1424.83 932.63 1364.65 742.59C1355.73 713.56 1338.99 687.55 1316.24 667.42C1282.83 638.88 1242.9 619.03 1199.99 609.62C1179.32 604.57 1158.58 599.9 1137.85 595.1C1131.82 593.67 1126.51 589.79 1126.96 584.28C1127.54 576.57 1125.4 567.04 1134.61 562.12C1167.01 544.43 1179.97 515.66 1176.73 480.34C1174.02 455.63 1169.69 431.13 1163.77 406.99C1156.71 375.17 1135.91 355.8 1104.87 346.79C1064.38 335.3 1021.88 332.81 980.32 339.47C971.57 340.77 962.82 342.32 954.4 344.27C945.98 346.22 943.06 350.3 945.85 358.79L948.64 367.41C952.007 377.65 959.177 382.163 970.15 380.95C980.57 378.99 991.33 380.19 1001.06 384.38C1007.93 387.88 1009.35 393.91 1003.78 398.96C998.04 404.65 991.49 409.45 984.34 413.22C931.33 437.52 878.59 462.66 824.67 484.5C747.46 515.51 667.11 538.04 585.04 551.7C559.96 556.04 534.82 559.67 509.55 562.91C503.53 563.1 497.53 562.07 491.92 559.86C486.02 558.05 483.95 553.38 488.36 548.52C493.8 542.39 499.84 536.81 506.37 531.87C512.85 527.27 519.85 524.22 526.26 520.01C528.07 518.84 530.08 515.28 529.5 513.53C525.87 503.16 521.53 493.12 517.19 482.56C514.99 483.34 513.43 483.73 511.94 484.37C486.96 494.72 463.08 507.55 440.66 522.67C420.72 535.81 403 552.04 388.17 570.75C369.12 595.83 360.18 623.76 369.44 654.99C378.7 688.17 395.51 718.75 418.56 744.35C433.23 761.51 455.05 770.87 477.59 769.69C487.56 768.29 497.5 772.44 503.51 780.51C505.46 782.81 507.56 784.97 509.8 786.99V786.97ZM865.1 174.16C860.89 175.2 856.48 175.91 852.14 177.27L491.14 293.91C487.73 294.99 484.45 296.45 481.36 298.25C473.32 303.3 472.29 307.06 476.44 315.42C493.09 349.18 509.81 382.81 526.53 416.57C540.01 443.79 553.51 471.02 567.03 498.28C570.24 506.68 579.25 511.34 587.96 509.1C602.02 506.31 615.95 503.01 629.82 499.32C715.74 476.25 799.86 447.48 883.64 417.54C893.1 414.11 904.96 412.23 905.87 398.1C905.87 397.65 906.58 397.26 907.04 396.93C912.16 392.85 911.77 387.79 910.73 381.9C904.7 347.1 899.07 312.24 893.23 277.44C888.11 246.66 882.99 215.88 877.68 185.16C876.64 176.74 873.73 174.86 865.11 174.14L865.1 174.16Z" fill="black"/>
<path d="M509.8 786.98C507.49 784.97 505.33 782.81 503.32 780.5C497.31 772.43 487.37 768.28 477.4 769.68C454.85 770.87 433.04 761.5 418.37 744.34C395.32 718.74 378.51 688.16 369.25 654.98C359.98 623.88 369.25 595.95 387.98 570.74C402.81 552.02 420.53 535.79 440.47 522.66C462.89 507.54 486.77 494.71 511.75 484.36C513.24 483.71 514.8 483.32 517 482.55C521.34 493.11 525.68 503.16 529.31 513.52C529.89 515.08 527.88 518.64 526.07 520C519.59 524.21 512.33 527.26 506.18 531.86C499.64 536.81 493.61 542.39 488.17 548.51C483.76 553.37 485.84 558.04 491.73 559.85C497.34 562.05 503.33 563.09 509.36 562.9C534.63 559.66 559.77 556.03 584.85 551.69C667.02 538.14 747.48 515.69 824.8 484.75C878.71 462.65 931.46 437.51 984.47 413.47C991.62 409.71 998.17 404.9 1003.91 399.21C1009.48 394.16 1008.06 388.13 1001.19 384.63C991.46 380.43 980.7 379.24 970.28 381.2C959.307 382.407 952.137 377.893 948.77 367.66L945.98 359.04C943.19 350.55 945.33 346.53 954.53 344.52C963.73 342.51 971.9 341.02 980.45 339.72C1021.84 333.06 1064.19 335.49 1104.54 346.85C1135.58 355.86 1156.38 375.23 1163.44 407.05C1169.36 431.19 1173.69 455.7 1176.4 480.4C1179.58 515.72 1166.87 544.49 1134.28 562.18C1125.08 567.1 1127.22 576.63 1126.63 584.34C1126.18 589.85 1131.49 593.74 1137.52 595.16C1158.26 599.96 1178.99 604.62 1199.66 609.68C1242.65 619.01 1282.68 638.82 1316.17 667.35C1338.91 687.48 1355.66 713.49 1364.58 742.52C1425.06 932.6 1485.54 1122.51 1546.02 1312.24C1554.48 1340.77 1554.28 1371.17 1545.44 1399.59C1530.73 1454.35 1503.51 1500.48 1455.95 1533.14C1430.23 1549.48 1402.27 1561.99 1372.94 1570.27C1269 1603.66 1165 1636.93 1060.93 1670.06C994.32 1691.38 927.83 1713.09 861.09 1734.02C792.21 1755.66 726.18 1749.83 664.1 1711.34C640.03 1696.88 619.12 1677.73 602.6 1655.03C594.36 1642.92 588.01 1629.64 583.74 1615.63C541.62 1484.86 500.15 1353.9 458.22 1223.07C441.57 1170.91 424.2 1119 407.09 1067.03C382.79 993.03 397.37 926.09 444.8 865.76C460.87 845.28 478.69 826.23 495.47 806.34C500.78 800.31 504.74 793.83 509.79 786.96L509.8 786.98ZM1319.8 857.51L1310.47 863.99C1288.05 879.74 1265.82 895.74 1243.08 911.03C1171.41 959.37 1092.1 974.47 1007.27 964.43C971.05 960.15 935.08 953.8 898.86 949.72C860.59 944.9 821.77 947.1 784.29 956.2C766.08 960.8 748.26 967.02 729.86 970.59C713.24 973.76 696.38 966.43 687.35 952.12C677.73 940.35 676.92 923.69 685.34 911.04C706.68 874.25 689.99 825.85 647.36 811.41C630.23 805.61 611.13 806.99 595.09 815.33C572.06 827.3 558.66 849.71 557.56 873.45C555.93 901.11 571.56 926.89 596.83 938.25C606.52 942.2 614.11 950.02 617.76 959.83C625.08 981.21 614.78 1013.68 596.25 1026.96C587.7 1033.05 578.88 1038.82 570.33 1045.17C548.75 1061.63 529.44 1080.16 517.65 1105.11C508.89 1121.57 507.36 1140.94 513.44 1158.57C536.77 1225.96 558.41 1293.94 581.09 1361.52C598.2 1412.58 615.37 1463.64 633.64 1514.32C644.42 1547.31 661.82 1577.76 684.77 1603.81C716.65 1638.22 756.05 1656.69 802.71 1655.13C844.49 1653.85 885.91 1646.92 925.83 1634.52C1020.22 1604.93 1114.55 1575.1 1208.81 1545.03C1259.94 1528.77 1311 1512.63 1359.15 1488.33C1405.09 1465.39 1437.23 1430.85 1450.84 1380.57C1459.68 1344.64 1458.98 1307.03 1448.83 1271.45C1438.98 1232.89 1427.32 1194.86 1415.33 1156.88C1388.96 1073.09 1362 989.44 1335.17 905.78C1330.25 889.97 1325.32 874.55 1319.75 857.5H1319.81L1319.8 857.51ZM1193.68 855.18C1193.86 817.28 1163.28 786.41 1125.38 786.23C1125.36 786.23 1125.34 786.23 1125.31 786.23C1087.46 786.48 1056.79 817 1056.36 854.85C1057.52 892.77 1089.21 922.56 1127.12 921.4C1163.4 920.29 1192.55 891.13 1193.67 854.85V855.17L1193.68 855.18ZM780.93 706.24C790.26 705.66 799.66 704.88 809.05 704.43C870.09 702.15 929.72 685.43 983.04 655.64C1015.44 637.24 1047.45 616.76 1079.59 597.32C1080.76 596.54 1082.38 595.96 1082.89 594.92C1083.89 593.15 1084.21 591.08 1083.8 589.09C1083.15 587.86 1080.3 587.47 1078.42 587.34C1077.06 587.55 1075.76 588.04 1074.6 588.77C987.31 624.35 898.86 656.62 808.92 684.8C795.96 688.95 782.55 692.96 769.52 697.76C767.45 698.47 766.22 701.39 764.53 703.27C766.49 704.75 768.68 705.91 771.01 706.7C774.32 706.87 777.64 706.72 780.92 706.25L780.93 706.24ZM960.4 772.39C936.39 772.59 917.69 794.68 923.09 819.56C926.25 834.11 938.13 845.8 952.73 848.72C977.7 853.71 999.48 834.64 999.28 810.64C999.28 810.42 999.28 810.2 999.27 809.98C998.9 788.84 981.55 771.95 960.4 772.15V772.39Z" fill="white"/>
<path d="M865.1 174.16C873.72 174.87 876.31 176.75 878.06 185.63C883.37 216.35 888.49 247.13 893.61 277.91C899.44 312.71 905.08 347.57 911.11 382.37C912.15 388.27 912.54 393.32 907.42 397.4C906.97 397.4 906.32 398.11 906.25 398.57C905.34 412.44 893.29 414.32 884.02 418.01C800.23 447.88 716.12 476.72 630.2 499.79C616.33 503.48 602.4 506.79 588.34 509.57C579.63 511.81 570.62 507.15 567.41 498.75C553.76 471.36 540.19 444.04 526.72 416.78C510 383.02 493.28 349.39 476.63 315.63C472.48 307.27 473.52 303.51 481.55 298.46C484.64 296.66 487.92 295.2 491.33 294.12L852.33 177.48C856.48 175.92 860.88 175.21 865.1 174.18V174.16Z" fill="#C38124"/>
<path d="M1319.73 856.64C1325.3 873.68 1330.49 889.04 1335.41 904.59C1362.24 988.25 1389.19 1071.9 1415.57 1155.69C1427.56 1193.66 1439.22 1231.7 1449.07 1270.26C1459.22 1305.84 1459.92 1343.45 1451.08 1379.38C1437.47 1429.66 1405.33 1464.2 1359.39 1487.14C1311.24 1511.18 1260.18 1527.58 1209.05 1543.84C1114.74 1573.78 1020.42 1603.61 926.07 1633.33C886.15 1645.73 844.73 1652.66 802.95 1653.94C756.16 1655.5 716.9 1637.03 685.01 1602.62C662.06 1576.58 644.67 1546.13 633.88 1513.13C615.61 1462.46 598.43 1411.39 581.33 1360.33C558.59 1292.74 536.94 1224.64 513.74 1157.38C507.66 1139.75 509.19 1120.38 517.95 1103.92C529.74 1078.97 549.05 1060.44 570.63 1043.98C578.99 1037.5 587.8 1031.86 596.55 1025.77C615.08 1012.49 625.39 980.02 618.06 958.64C614.29 948.99 606.69 941.35 597.06 937.52C571.79 926.16 556.16 900.38 557.79 872.72C559.69 834.94 591.86 805.85 629.64 807.76C667.42 809.66 696.51 841.83 694.6 879.61C694.06 890.41 690.96 900.93 685.57 910.31C677.14 922.96 677.96 939.63 687.58 951.39C696.61 965.7 713.47 973.03 730.09 969.86C748.49 966.3 766.31 960.08 784.52 955.47C822 946.37 860.82 944.17 899.09 948.99C935.31 953.07 971.28 959.42 1007.5 963.7C1092.32 973.74 1171.64 958.65 1243.31 910.3C1266.05 895.01 1288.28 879 1310.7 863.26L1319.71 856.65L1319.73 856.64ZM939.61 1372.9C938.15 1336.9 926.21 1302.1 905.27 1272.78C894.23 1255.7 878.47 1242.2 859.91 1233.9C837.73 1223.88 811.55 1231.86 798.74 1252.56C790.42 1265.06 785.4 1279.46 784.16 1294.42C779.48 1339.5 791.9 1384.69 818.96 1421.04C829.15 1436.01 843.13 1448.01 859.46 1455.84C886.94 1468.28 912.73 1459.79 927.37 1433.42C936.57 1416.51 939.55 1397.78 939.62 1372.9H939.61ZM1240.41 1278.49C1239.29 1242.08 1227.45 1206.8 1206.39 1177.08C1195.73 1160.75 1180.78 1147.68 1163.17 1139.3C1138.93 1126.81 1109.15 1136.35 1096.66 1160.59C1096.45 1161.01 1096.24 1161.43 1096.03 1161.85C1086.96 1179.09 1082.62 1198.43 1083.46 1217.9C1083.85 1248.77 1091.98 1279.05 1107.11 1305.96C1120.07 1328.51 1135.49 1348.21 1159.6 1359.68C1183.66 1372.75 1213.75 1363.83 1226.82 1339.77C1227.27 1338.94 1227.69 1338.11 1228.09 1337.26C1237.1 1319.03 1241.34 1298.8 1240.4 1278.49H1240.41Z" fill="#36B04A"/>
<path d="M1194.93 852.1C1193.77 890.02 1162.08 919.81 1124.17 918.65C1087.89 917.54 1058.74 888.38 1057.62 852.1C1058.04 814.25 1088.72 783.72 1126.57 783.48C1164.37 783.62 1194.93 814.3 1194.93 852.1Z" fill="#36B04A"/>
<path d="M780.92 706.24C777.64 706.71 774.32 706.86 771.01 706.69C768.68 705.9 766.49 704.74 764.53 703.26C766.21 701.38 767.45 698.46 769.52 697.75C782.48 693.28 795.44 689.26 808.92 684.79C898.86 656.6 987.31 624.33 1074.6 588.76C1075.77 588.03 1077.07 587.55 1078.42 587.33C1080.3 587.33 1083.15 587.85 1083.8 589.08C1084.21 591.07 1083.89 593.14 1082.89 594.91C1082.37 595.95 1080.75 596.53 1079.59 597.31C1047.19 616.75 1015.76 637.1 983.04 655.63C929.72 685.42 870.09 702.14 809.05 704.42C799.65 704.87 790.26 705.65 780.93 706.23L780.92 706.24Z" fill="black"/>
<path d="M958.6 769.38C989.27 769.36 1012.05 803.16 991.69 835.55C985.48 845.44 974.23 851.03 962.55 851.03H956.91C942.91 851.03 929.5 843.74 923.11 831.28C907.21 800.28 929.29 769.4 958.6 769.38Z" fill="#36B04A"/>
<path d="M939.62 1372.9C939.62 1397.78 936.57 1416.51 927.11 1433.68C912.47 1460.05 886.67 1468.54 859.2 1456.1C842.87 1448.28 828.89 1436.27 818.7 1421.3C791.64 1384.95 779.22 1339.76 783.9 1294.68C785.14 1279.72 790.16 1265.32 798.48 1252.82C811.29 1232.12 837.47 1224.14 859.65 1234.16C878.21 1242.46 893.97 1255.96 905.01 1273.04C926 1302.26 938.03 1336.96 939.61 1372.9H939.62Z" fill="#F0F1F1"/>
<path d="M1240.42 1278.48C1241.35 1298.8 1237.12 1319.02 1228.11 1337.25C1216.43 1362.01 1186.89 1372.62 1162.13 1360.94C1161.28 1360.54 1160.44 1360.11 1159.62 1359.67C1135.51 1348.2 1119.77 1328.5 1107.13 1305.95C1092.04 1279.11 1083.91 1248.93 1083.48 1218.15C1082.64 1198.68 1086.98 1179.34 1096.05 1162.1C1107.84 1137.51 1137.33 1127.13 1161.92 1138.92C1162.34 1139.12 1162.76 1139.33 1163.18 1139.55C1180.79 1147.93 1195.74 1161 1206.4 1177.33C1227.42 1206.98 1239.25 1242.16 1240.42 1278.48Z" fill="#F0F1F1"/>
</svg>
