<svg width="40" height="40" viewBox="0 0 40 40" fill="none" xmlns="http://www.w3.org/2000/svg">
<g clip-path="url(#clip0_145_20081)">
<rect width="40" height="40" rx="20" fill="url(#paint0_linear_145_20081)"/>
<path d="M20 40C31.0457 40 40 31.0457 40 20C40 8.9543 31.0457 0 20 0C8.9543 0 0 8.9543 0 20C0 31.0457 8.9543 40 20 40Z" fill="url(#paint1_linear_145_20081)"/>
<path d="M20.0989 28.8467C22.9609 28.8467 25.3245 27.6046 26.039 24.8771L24.1775 24.2448C23.6754 26.1679 22.0301 26.9498 20.2638 26.9498C17.2809 26.9498 15.9434 25.1464 15.9434 22.2955V17.8618C15.9434 15.2316 17.2077 13.2075 20.0953 13.2075C21.693 13.2075 23.5069 13.8884 24.1738 16.0098L26.0354 15.3775C25.2255 12.7959 23.1734 11.3105 20.3078 11.3105C16.3465 11.3105 13.9609 13.9894 13.9609 17.5475V22.6397C13.9609 26.1978 16.134 28.8505 20.0916 28.8505L20.0989 28.8467Z" fill="black"/>
<path fill-rule="evenodd" clip-rule="evenodd" d="M11 7H29.0003V8.63639H11V7Z" fill="black"/>
<path fill-rule="evenodd" clip-rule="evenodd" d="M11 31.5234H29.0003V33.1598H11V31.5234Z" fill="black"/>
</g>
<defs>
<linearGradient id="paint0_linear_145_20081" x1="20" y1="0" x2="20" y2="40" gradientUnits="userSpaceOnUse">
<stop stop-color="#FAE47C"/>
<stop offset="1" stop-color="#F6DD66"/>
</linearGradient>
<linearGradient id="paint1_linear_145_20081" x1="20" y1="0" x2="20" y2="40" gradientUnits="userSpaceOnUse">
<stop stop-color="#F6E189"/>
<stop offset="1" stop-color="#F4D037"/>
</linearGradient>
<clipPath id="clip0_145_20081">
<rect width="40" height="40" rx="20" fill="white"/>
</clipPath>
</defs>
</svg>
