<svg width="284" height="284" viewBox="0 0 284 284" fill="none" xmlns="http://www.w3.org/2000/svg">
<g clip-path="url(#clip0_6304_1499)">
<path d="M142 284.002C220.425 284.002 284.001 220.426 284.001 142.001C284.001 63.576 220.425 0 142 0C63.575 0 -0.000976562 63.576 -0.000976562 142.001C-0.000976562 220.426 63.575 284.002 142 284.002Z" fill="#1E1C29"/>
<mask id="mask0_6304_1499" style="mask-type:luminance" maskUnits="userSpaceOnUse" x="25" y="25" width="234" height="234">
<path d="M258.955 25.0449H25.0454V258.954H258.955V25.0449Z" fill="white"/>
</mask>
<g mask="url(#mask0_6304_1499)">
<path d="M31.6343 141.999C31.6343 81.0241 81.0245 31.6338 142 31.6338C202.975 31.6338 252.366 81.0241 252.366 141.999C252.366 202.975 202.975 252.365 142 252.365C81.0245 252.365 31.6343 202.975 31.6343 141.999Z" stroke="white" stroke-width="12.3544"/>
<path d="M34.9287 111.431C55.6865 105.446 51.8863 104.022 56.2713 105.446C60.6571 106.871 135.773 247.063 136.234 249.071" stroke="white" stroke-width="12.3544"/>
<path d="M56.3428 106.584C58.929 107.116 87.9288 124.992 91.1162 129.083C94.3036 133.174 98.6499 146.322 102.127 148.952C105.605 151.582 108.792 150.706 111.979 149.537C115.168 148.368 125.889 134.05 128.787 132.005C131.685 129.959 135.162 131.128 136.901 134.343C138.639 137.556 192.569 234.463 194.712 238.364" stroke="white" stroke-width="12.3544"/>
<path d="M130.469 132.939L122.233 222.714" stroke="white" stroke-width="12.3544"/>
<path d="M147.765 150.533C150.976 148.201 151.267 149.366 153.018 147.326C154.769 145.286 155.353 140.331 156.229 137.416C157.104 134.502 160.606 135.376 162.941 136.25C165.275 137.125 167.61 138.29 169.654 141.205C171.696 144.12 217.224 197.46 222.185 199.792C227.147 202.124 227.739 201.612 233.422 202.124" stroke="white" stroke-width="12.3544"/>
</g>
</g>
<defs>
<clipPath id="clip0_6304_1499">
<rect width="284" height="284" fill="white"/>
</clipPath>
</defs>
</svg>
