<svg width="288" height="96" viewBox="0 0 288 96" fill="none" xmlns="http://www.w3.org/2000/svg">
<path d="M116.509 17.9375H139.977C144.983 17.9375 149.506 19.1322 153.545 21.5216C157.641 23.8541 160.855 27.2391 163.188 31.6766C165.577 36.1141 166.772 41.3196 166.772 47.2931C166.772 53.6649 165.606 59.1548 163.273 63.763C160.941 68.3142 157.726 71.7845 153.63 74.174C149.591 76.5065 145.04 77.6727 139.977 77.6727H116.509V17.9375ZM138.782 67.5177C143.39 67.5177 147.202 65.811 150.217 62.3976C153.232 58.9841 154.74 53.9493 154.74 47.2931C154.74 43.197 154.029 39.6982 152.606 36.7968C151.184 33.8953 149.25 31.7335 146.803 30.3112C144.414 28.8321 141.74 28.0925 138.782 28.0925H128.371V67.5177H138.782Z" fill="white"/>
<path d="M193.186 43.8797C190.796 43.8797 188.89 44.8752 187.468 46.8664C186.046 48.8576 185.335 51.1901 185.335 53.864V77.6727H174.326V34.6634H185.335V40.2955C186.188 38.475 187.354 37.0812 188.833 36.1141C190.313 35.1469 192.048 34.6634 194.039 34.6634H199.33V43.8797H193.186Z" fill="white"/>
<path d="M205.327 34.6634H216.336V77.6727H205.327V34.6634ZM216.848 17.1695V28.4338H204.986V17.1695H216.848Z" fill="white"/>
<path d="M230.007 43.8797H221.986V34.6634H230.007V28.7752C230.007 24.679 231.031 21.5501 233.079 19.3882C235.128 17.2264 238.057 16.1454 241.869 16.1454H252.365V25.3617H245.539C244.003 25.3617 242.865 25.76 242.125 26.5564C241.386 27.296 241.016 28.5476 241.016 30.3112V34.6634H253.219V43.8797H241.016V77.6727H230.007V43.8797Z" fill="white"/>
<path d="M274.437 19.6442V34.6634H286.043V43.8797H274.437V63.763C274.437 66.8919 275.86 68.4564 278.704 68.4564H285.787V77.6727H275.461C271.593 77.6727 268.606 76.6487 266.501 74.6006C264.453 72.4957 263.429 69.2813 263.429 64.9577V43.8797H255.408V34.6634H263.429V24.2524L274.437 19.6442Z" fill="white"/>
<path d="M66.8651 76.3843C66.8651 79.5163 65.6982 82.2622 63.8248 84.3683C63.8027 84.3931 63.7873 84.4233 63.7805 84.4559V84.4559C63.7523 84.5906 63.8729 84.7091 64.0065 84.6762C69.4086 83.3451 73.7764 78.7307 73.7764 72.6711V41.2575C73.7764 31.9714 68.5896 23.3907 60.1698 18.7477L26.1725 0L19.4379 3.81057L53.2586 22.4608C61.6783 27.1039 66.8651 35.6846 66.8651 44.9707V76.3843Z" fill="url(#paint0_linear_29900_34198)"/>
<path d="M66.8651 76.3843C66.8651 79.5163 65.6982 82.2622 63.8248 84.3683C63.8027 84.3931 63.7873 84.4233 63.7805 84.4559V84.4559C63.7523 84.5906 63.8729 84.7091 64.0065 84.6762C69.4086 83.3451 73.7764 78.7307 73.7764 72.6711V41.2575C73.7764 31.9714 68.5896 23.3907 60.1698 18.7477L26.1725 0L19.4379 3.81057L53.2586 22.4608C61.6783 27.1039 66.8651 35.6846 66.8651 44.9707V76.3843Z" fill="url(#paint1_linear_29900_34198)"/>
<path d="M66.8651 76.3843C66.8651 79.5163 65.6982 82.2622 63.8248 84.3683C63.8027 84.3931 63.7873 84.4233 63.7805 84.4559V84.4559C63.7523 84.5906 63.8729 84.7091 64.0065 84.6762C69.4086 83.3451 73.7764 78.7307 73.7764 72.6711V41.2575C73.7764 31.9714 68.5896 23.3907 60.1698 18.7477L26.1725 0L19.4379 3.81057L53.2586 22.4608C61.6783 27.1039 66.8651 35.6846 66.8651 44.9707V76.3843Z" fill="url(#paint2_angular_29900_34198)" fill-opacity="0.2"/>
<path d="M66.8651 76.3843C66.8651 79.5163 65.6982 82.2622 63.8248 84.3683C63.8027 84.3931 63.7873 84.4233 63.7805 84.4559V84.4559C63.7523 84.5906 63.8729 84.7091 64.0065 84.6762C69.4086 83.3451 73.7764 78.7307 73.7764 72.6711V41.2575C73.7764 31.9714 68.5896 23.3907 60.1698 18.7477L26.1725 0L19.4379 3.81057L53.2586 22.4608C61.6783 27.1039 66.8651 35.6846 66.8651 44.9707V76.3843Z" fill="url(#paint3_angular_29900_34198)" fill-opacity="0.1"/>
<path d="M66.8651 76.3843C66.8651 79.5163 65.6982 82.2622 63.8248 84.3683C63.8027 84.3931 63.7873 84.4233 63.7805 84.4559V84.4559C63.7523 84.5906 63.8729 84.7091 64.0065 84.6762C69.4086 83.3451 73.7764 78.7307 73.7764 72.6711V41.2575C73.7764 31.9714 68.5896 23.3907 60.1698 18.7477L26.1725 0L19.4379 3.81057L53.2586 22.4608C61.6783 27.1039 66.8651 35.6846 66.8651 44.9707V76.3843Z" fill="url(#paint4_linear_29900_34198)" fill-opacity="0.2"/>
<path d="M57.3621 81.7477V50.3341C57.3621 41.0481 52.1753 32.4673 43.7556 27.8243L9.93494 9.17403L16.6696 5.36346L50.6668 24.1111C59.0866 28.7542 64.2734 37.3349 64.2734 46.621V78.0346C64.2734 84.0941 59.9056 88.7086 54.5035 90.0397C54.3699 90.0726 54.2493 89.954 54.2775 89.8194V89.8194C54.2844 89.7868 54.2997 89.7566 54.3218 89.7317C56.1953 87.6257 57.3621 84.8798 57.3621 81.7477Z" fill="url(#paint5_linear_29900_34198)"/>
<path d="M57.3621 81.7477V50.3341C57.3621 41.0481 52.1753 32.4673 43.7556 27.8243L9.93494 9.17403L16.6696 5.36346L50.6668 24.1111C59.0866 28.7542 64.2734 37.3349 64.2734 46.621V78.0346C64.2734 84.0941 59.9056 88.7086 54.5035 90.0397C54.3699 90.0726 54.2493 89.954 54.2775 89.8194V89.8194C54.2844 89.7868 54.2997 89.7566 54.3218 89.7317C56.1953 87.6257 57.3621 84.8798 57.3621 81.7477Z" fill="url(#paint6_linear_29900_34198)"/>
<path d="M57.3621 81.7477V50.3341C57.3621 41.0481 52.1753 32.4673 43.7556 27.8243L9.93494 9.17403L16.6696 5.36346L50.6668 24.1111C59.0866 28.7542 64.2734 37.3349 64.2734 46.621V78.0346C64.2734 84.0941 59.9056 88.7086 54.5035 90.0397C54.3699 90.0726 54.2493 89.954 54.2775 89.8194V89.8194C54.2844 89.7868 54.2997 89.7566 54.3218 89.7317C56.1953 87.6257 57.3621 84.8798 57.3621 81.7477Z" fill="url(#paint7_angular_29900_34198)" fill-opacity="0.2"/>
<path d="M57.3621 81.7477V50.3341C57.3621 41.0481 52.1753 32.4673 43.7556 27.8243L9.93494 9.17403L16.6696 5.36346L50.6668 24.1111C59.0866 28.7542 64.2734 37.3349 64.2734 46.621V78.0346C64.2734 84.0941 59.9056 88.7086 54.5035 90.0397C54.3699 90.0726 54.2493 89.954 54.2775 89.8194V89.8194C54.2844 89.7868 54.2997 89.7566 54.3218 89.7317C56.1953 87.6257 57.3621 84.8798 57.3621 81.7477Z" fill="url(#paint8_angular_29900_34198)" fill-opacity="0.1"/>
<path d="M57.3621 81.7477V50.3341C57.3621 41.0481 52.1753 32.4673 43.7556 27.8243L9.93494 9.17403L16.6696 5.36346L50.6668 24.1111C59.0866 28.7542 64.2734 37.3349 64.2734 46.621V78.0346C64.2734 84.0941 59.9056 88.7086 54.5035 90.0397C54.3699 90.0726 54.2493 89.954 54.2775 89.8194V89.8194C54.2844 89.7868 54.2997 89.7566 54.3218 89.7317C56.1953 87.6257 57.3621 84.8798 57.3621 81.7477Z" fill="url(#paint9_linear_29900_34198)" fill-opacity="0.2"/>
<path fill-rule="evenodd" clip-rule="evenodd" d="M0 14.7934L6.82236 10.9332L40.8196 29.6809C49.2394 34.3239 54.4262 42.9046 54.4262 52.1907V83.7592L54.4253 83.7587C54.3094 93.1964 43.5806 99.0615 34.9883 94.3233L4.17559 77.3318L0 75.0884V14.7934ZM47.5149 56.0019V74.2386L24.6214 61.614V28.3708L33.9084 33.4921C42.3282 38.1351 47.5149 46.7158 47.5149 56.0019ZM15.9823 23.6068L19.4379 25.5124V64.4706L19.8007 64.6651L47.5149 79.948V83.4761L16.0269 66.1121L15.9823 66.1373V23.6068ZM10.3669 20.5102V69.134L10.5293 69.2227L10.3669 69.3146L47.4725 89.7763C47.1623 91.4083 45.213 92.3393 43.6273 91.4649L6.91126 71.2179V18.6046L10.3669 20.5102Z" fill="url(#paint10_linear_29900_34198)"/>
<path fill-rule="evenodd" clip-rule="evenodd" d="M0 14.7934L6.82236 10.9332L40.8196 29.6809C49.2394 34.3239 54.4262 42.9046 54.4262 52.1907V83.7592L54.4253 83.7587C54.3094 93.1964 43.5806 99.0615 34.9883 94.3233L4.17559 77.3318L0 75.0884V14.7934ZM47.5149 56.0019V74.2386L24.6214 61.614V28.3708L33.9084 33.4921C42.3282 38.1351 47.5149 46.7158 47.5149 56.0019ZM15.9823 23.6068L19.4379 25.5124V64.4706L19.8007 64.6651L47.5149 79.948V83.4761L16.0269 66.1121L15.9823 66.1373V23.6068ZM10.3669 20.5102V69.134L10.5293 69.2227L10.3669 69.3146L47.4725 89.7763C47.1623 91.4083 45.213 92.3393 43.6273 91.4649L6.91126 71.2179V18.6046L10.3669 20.5102Z" fill="url(#paint11_linear_29900_34198)"/>
<path fill-rule="evenodd" clip-rule="evenodd" d="M0 14.7934L6.82236 10.9332L40.8196 29.6809C49.2394 34.3239 54.4262 42.9046 54.4262 52.1907V83.7592L54.4253 83.7587C54.3094 93.1964 43.5806 99.0615 34.9883 94.3233L4.17559 77.3318L0 75.0884V14.7934ZM47.5149 56.0019V74.2386L24.6214 61.614V28.3708L33.9084 33.4921C42.3282 38.1351 47.5149 46.7158 47.5149 56.0019ZM15.9823 23.6068L19.4379 25.5124V64.4706L19.8007 64.6651L47.5149 79.948V83.4761L16.0269 66.1121L15.9823 66.1373V23.6068ZM10.3669 20.5102V69.134L10.5293 69.2227L10.3669 69.3146L47.4725 89.7763C47.1623 91.4083 45.213 92.3393 43.6273 91.4649L6.91126 71.2179V18.6046L10.3669 20.5102Z" fill="url(#paint12_angular_29900_34198)" fill-opacity="0.2"/>
<path fill-rule="evenodd" clip-rule="evenodd" d="M0 14.7934L6.82236 10.9332L40.8196 29.6809C49.2394 34.3239 54.4262 42.9046 54.4262 52.1907V83.7592L54.4253 83.7587C54.3094 93.1964 43.5806 99.0615 34.9883 94.3233L4.17559 77.3318L0 75.0884V14.7934ZM47.5149 56.0019V74.2386L24.6214 61.614V28.3708L33.9084 33.4921C42.3282 38.1351 47.5149 46.7158 47.5149 56.0019ZM15.9823 23.6068L19.4379 25.5124V64.4706L19.8007 64.6651L47.5149 79.948V83.4761L16.0269 66.1121L15.9823 66.1373V23.6068ZM10.3669 20.5102V69.134L10.5293 69.2227L10.3669 69.3146L47.4725 89.7763C47.1623 91.4083 45.213 92.3393 43.6273 91.4649L6.91126 71.2179V18.6046L10.3669 20.5102Z" fill="url(#paint13_angular_29900_34198)" fill-opacity="0.1"/>
<path fill-rule="evenodd" clip-rule="evenodd" d="M0 14.7934L6.82236 10.9332L40.8196 29.6809C49.2394 34.3239 54.4262 42.9046 54.4262 52.1907V83.7592L54.4253 83.7587C54.3094 93.1964 43.5806 99.0615 34.9883 94.3233L4.17559 77.3318L0 75.0884V14.7934ZM47.5149 56.0019V74.2386L24.6214 61.614V28.3708L33.9084 33.4921C42.3282 38.1351 47.5149 46.7158 47.5149 56.0019ZM15.9823 23.6068L19.4379 25.5124V64.4706L19.8007 64.6651L47.5149 79.948V83.4761L16.0269 66.1121L15.9823 66.1373V23.6068ZM10.3669 20.5102V69.134L10.5293 69.2227L10.3669 69.3146L47.4725 89.7763C47.1623 91.4083 45.213 92.3393 43.6273 91.4649L6.91126 71.2179V18.6046L10.3669 20.5102Z" fill="url(#paint14_linear_29900_34198)" fill-opacity="0.2"/>
<defs>
<linearGradient id="paint0_linear_29900_34198" x1="-1.22847" y1="48" x2="72.9534" y2="41.3683" gradientUnits="userSpaceOnUse">
<stop stop-color="#FF3873"/>
<stop offset="0.473958" stop-color="#711EFF"/>
<stop offset="1" stop-color="#3FE5FF"/>
</linearGradient>
<linearGradient id="paint1_linear_29900_34198" x1="4.57263" y1="4.41813" x2="56.3635" y2="48.4163" gradientUnits="userSpaceOnUse">
<stop stop-color="#F6F063"/>
<stop offset="1" stop-color="#E07774" stop-opacity="0"/>
</linearGradient>
<radialGradient id="paint2_angular_29900_34198" cx="0" cy="0" r="1" gradientUnits="userSpaceOnUse" gradientTransform="translate(1.94507 33.7465) rotate(65.584) scale(21.5051 18.4545)">
<stop offset="0.925861" stop-color="white"/>
<stop offset="1" stop-color="white" stop-opacity="0"/>
</radialGradient>
<radialGradient id="paint3_angular_29900_34198" cx="0" cy="0" r="1" gradientUnits="userSpaceOnUse" gradientTransform="translate(12.6601 24.8437) rotate(59.0024) scale(13.6496 18.6422)">
<stop offset="0.0864251" stop-color="white"/>
<stop offset="0.94115" stop-color="white" stop-opacity="0"/>
</radialGradient>
<linearGradient id="paint4_linear_29900_34198" x1="8.44572" y1="26.6642" x2="46.8815" y2="40.2331" gradientUnits="userSpaceOnUse">
<stop stop-color="white"/>
<stop offset="1" stop-opacity="0"/>
</linearGradient>
<linearGradient id="paint5_linear_29900_34198" x1="-1.22847" y1="48" x2="72.9534" y2="41.3683" gradientUnits="userSpaceOnUse">
<stop stop-color="#FF3873"/>
<stop offset="0.473958" stop-color="#711EFF"/>
<stop offset="1" stop-color="#3FE5FF"/>
</linearGradient>
<linearGradient id="paint6_linear_29900_34198" x1="4.57263" y1="4.41813" x2="56.3635" y2="48.4163" gradientUnits="userSpaceOnUse">
<stop stop-color="#F6F063"/>
<stop offset="1" stop-color="#E07774" stop-opacity="0"/>
</linearGradient>
<radialGradient id="paint7_angular_29900_34198" cx="0" cy="0" r="1" gradientUnits="userSpaceOnUse" gradientTransform="translate(1.94507 33.7465) rotate(65.584) scale(21.5051 18.4545)">
<stop offset="0.925861" stop-color="white"/>
<stop offset="1" stop-color="white" stop-opacity="0"/>
</radialGradient>
<radialGradient id="paint8_angular_29900_34198" cx="0" cy="0" r="1" gradientUnits="userSpaceOnUse" gradientTransform="translate(12.6601 24.8437) rotate(59.0024) scale(13.6496 18.6422)">
<stop offset="0.0864251" stop-color="white"/>
<stop offset="0.94115" stop-color="white" stop-opacity="0"/>
</radialGradient>
<linearGradient id="paint9_linear_29900_34198" x1="8.44572" y1="26.6642" x2="46.8815" y2="40.2331" gradientUnits="userSpaceOnUse">
<stop stop-color="white"/>
<stop offset="1" stop-opacity="0"/>
</linearGradient>
<linearGradient id="paint10_linear_29900_34198" x1="-1.22847" y1="48" x2="72.9534" y2="41.3683" gradientUnits="userSpaceOnUse">
<stop stop-color="#FF3873"/>
<stop offset="0.473958" stop-color="#711EFF"/>
<stop offset="1" stop-color="#3FE5FF"/>
</linearGradient>
<linearGradient id="paint11_linear_29900_34198" x1="4.57263" y1="4.41813" x2="56.3635" y2="48.4163" gradientUnits="userSpaceOnUse">
<stop stop-color="#F6F063"/>
<stop offset="1" stop-color="#E07774" stop-opacity="0"/>
</linearGradient>
<radialGradient id="paint12_angular_29900_34198" cx="0" cy="0" r="1" gradientUnits="userSpaceOnUse" gradientTransform="translate(1.94507 33.7465) rotate(65.584) scale(21.5051 18.4545)">
<stop offset="0.925861" stop-color="white"/>
<stop offset="1" stop-color="white" stop-opacity="0"/>
</radialGradient>
<radialGradient id="paint13_angular_29900_34198" cx="0" cy="0" r="1" gradientUnits="userSpaceOnUse" gradientTransform="translate(12.6601 24.8437) rotate(59.0024) scale(13.6496 18.6422)">
<stop offset="0.0864251" stop-color="white"/>
<stop offset="0.94115" stop-color="white" stop-opacity="0"/>
</radialGradient>
<linearGradient id="paint14_linear_29900_34198" x1="8.44572" y1="26.6642" x2="46.8815" y2="40.2331" gradientUnits="userSpaceOnUse">
<stop stop-color="white"/>
<stop offset="1" stop-opacity="0"/>
</linearGradient>
</defs>
</svg>
