<svg xmlns="http://www.w3.org/2000/svg" width="461" height="418" viewBox="-60 -60 461 418" fill="none" shape-rendering="geometricPrecision">
<path d="M92.5502 32.8399C95.9902 37.9299 100.32 42.8799 105.43 47.5199C110.57 52.1799 116.46 56.4899 122.98 60.2899L170.12 87.7799C170.46 87.9799 170.81 88.1599 171.16 88.3299C171.5 88.4899 171.84 88.6399 172.18 88.7699C172.52 88.8999 172.86 89.0099 173.2 89.0999C173.54 89.1899 173.87 89.2699 174.19 89.3299C175.97 89.6599 177.63 89.5099 179.04 88.9999C180.43 88.4899 181.57 87.6299 182.32 86.5399C183.07 85.4599 183.44 84.1499 183.32 82.7099C183.2 81.2899 182.58 79.7499 181.35 78.1999L152.35 41.4999C148.99 37.2499 145.14 33.2599 140.9 29.5799C136.67 25.9099 132.02 22.5299 127.03 19.4699C122.03 16.3999 116.66 13.6399 110.99 11.2399C105.27 8.81992 99.2302 6.73992 92.9202 5.07992C92.1502 4.86992 91.3802 4.67992 90.6102 4.48992C89.8302 4.29992 89.0502 4.10992 88.2602 3.92992C87.4702 3.74992 86.6802 3.57992 85.8902 3.40992C85.0902 3.23992 84.2902 3.07992 83.4902 2.91992C83.0602 7.63992 83.6202 12.5699 85.1202 17.5699C86.6502 22.6699 89.1502 27.8099 92.5502 32.8399Z" fill="#2A3F38"/>
<path d="M227.659 98.1205C228.979 99.0905 230.469 99.7905 232.009 100.07C232.289 100.12 232.569 100.16 232.849 100.18C233.129 100.2 233.409 100.21 233.689 100.2C233.969 100.2 234.249 100.17 234.529 100.13C234.809 100.09 235.089 100.04 235.359 99.9605L269.289 90.8905C273.449 89.7805 277.039 88.0805 280.019 85.9005C282.929 83.7705 285.259 81.1905 286.989 78.2405C288.669 75.3605 289.779 72.1405 290.299 68.6505C290.799 65.2405 290.749 61.5805 290.109 57.7205C289.619 57.5405 289.129 57.3805 288.639 57.2105C288.149 57.0405 287.669 56.8905 287.179 56.7305C286.689 56.5805 286.209 56.4305 285.729 56.3005C285.249 56.1605 284.769 56.0305 284.289 55.9005C280.429 54.8805 276.669 54.2705 273.069 54.0505C269.419 53.8305 265.909 54.0305 262.619 54.6405C259.269 55.2605 256.129 56.3305 253.269 57.8305C250.349 59.3605 247.719 61.3605 245.449 63.8405L224.369 86.8805C223.409 87.9205 223.019 89.1905 223.059 90.5205C223.099 91.8705 223.589 93.2805 224.399 94.5905C225.209 95.9105 226.339 97.1305 227.659 98.1005" fill="#2A3F38"/>
<path d="M313.031 132.94C308.121 129.67 303.071 126.93 297.971 124.79C292.831 122.63 287.611 121.08 282.391 120.2C282.341 120.2 282.291 120.18 282.231 120.17C282.181 120.17 282.131 120.15 282.081 120.14C282.031 120.14 281.971 120.12 281.921 120.11C281.871 120.11 281.811 120.1 281.771 120.09L240.211 113.52C238.071 113.18 236.391 113.61 235.191 114.52C233.981 115.44 233.251 116.86 233.061 118.5C232.871 120.15 233.211 122.02 234.131 123.8C235.061 125.59 236.571 127.29 238.681 128.59L282.141 155.19C284.781 156.81 287.421 158.26 290.071 159.53C292.701 160.81 295.321 161.91 297.911 162.85C300.491 163.78 303.041 164.54 305.541 165.13C308.031 165.71 310.471 166.13 312.841 166.38C315.691 166.68 318.441 166.73 321.081 166.55C323.691 166.37 326.171 165.95 328.521 165.3C330.841 164.66 333.021 163.8 335.041 162.71C337.041 161.64 338.871 160.36 340.541 158.87C336.371 153.52 331.921 148.66 327.301 144.32C322.711 140.01 317.921 136.19 313.021 132.93" fill="#2A3F38"/>
<path d="M169.97 118.39C172.36 117.68 173.95 116.32 174.82 114.66C175.68 113.02 175.84 111.09 175.39 109.21C174.94 107.34 173.89 105.5 172.32 104.02C170.75 102.54 168.64 101.4 166.06 100.94L108.41 90.5904C108.3 90.5704 108.19 90.5504 108.07 90.5304C107.96 90.5104 107.85 90.4904 107.74 90.4704C107.63 90.4504 107.52 90.4304 107.41 90.4104C107.3 90.3904 107.19 90.3704 107.08 90.3504C98.7 88.9404 90.12 88.3704 81.48 88.6304C72.61 88.9004 63.64 90.0304 54.71 92.0504C45.48 94.1304 36.26 97.1604 27.26 101.15C17.89 105.29 8.72 110.49 0 116.76C4.4 119.93 9.09 122.81 14.04 125.38C18.97 127.94 24.12 130.19 29.44 132.12C34.73 134.03 40.17 135.62 45.7 136.88C51.18 138.13 56.74 139.04 62.31 139.63C66.82 140.1 71.33 140.36 75.81 140.4C80.25 140.44 84.65 140.27 89.01 139.88C93.3 139.5 97.54 138.92 101.7 138.14C105.79 137.36 109.8 136.39 113.7 135.22L169.96 118.38L169.97 118.39Z" fill="#2A3F38"/>
<path d="M196.1 134.27C195.12 133.13 193.92 132.16 192.61 131.43C191.3 130.7 189.88 130.21 188.44 130.02C187.77 129.93 187.1 129.91 186.43 129.95C185.76 130 185.1 130.12 184.46 130.32C183.82 130.52 183.19 130.8 182.59 131.16C181.99 131.53 181.41 131.98 180.88 132.53L140.74 173.78C134.33 180.37 128.66 187.96 123.85 196.37C118.83 205.15 114.74 214.84 111.72 225.21C108.58 236.02 106.62 247.55 106.01 259.51C105.37 271.94 106.2 284.75 108.66 297.57C120.32 292.19 130.95 285.51 140.39 277.88C149.42 270.59 157.34 262.44 164.02 253.75C170.42 245.43 175.69 236.6 179.76 227.48C183.67 218.74 186.47 209.72 188.13 200.6L198.58 142.91C198.88 141.25 198.74 139.67 198.29 138.21C197.84 136.76 197.07 135.43 196.08 134.29" fill="#2A3F38"/>
<path d="M290.97 227.35C288.21 219.04 284.77 211.11 280.72 203.68C276.74 196.39 272.15 189.54 267 183.26L230.7 139.09C230.16 138.44 229.6 137.86 229.02 137.37C228.44 136.87 227.84 136.45 227.23 136.1C226.62 135.75 226.01 135.47 225.39 135.25C224.77 135.04 224.15 134.89 223.53 134.81C222.22 134.63 220.95 134.75 219.8 135.12C218.64 135.5 217.61 136.14 216.8 137.02C215.98 137.9 215.39 139.02 215.12 140.34C214.85 141.67 214.9 143.21 215.38 144.92L231.55 202.56C234 211.3 237.43 219.89 241.7 228.1C246.06 236.48 251.26 244.39 257.14 251.59C263.09 258.87 269.68 265.36 276.71 270.81C283.76 276.27 291.18 280.63 298.77 283.69C299.2 273.59 298.66 263.66 297.27 254.1C295.93 244.85 293.8 235.88 290.96 227.35" fill="#2A3F38"/>
<path d="M218.211 34.79C217.681 30.81 216.521 26.78 214.801 22.77C213.111 18.83 210.861 14.91 208.101 11.08C205.371 7.29 202.131 3.57 198.401 0C194.951 1.39 191.961 3.26 189.491 5.55C186.961 7.91 184.981 10.71 183.611 13.91C182.201 17.19 181.421 20.86 181.341 24.87C181.261 28.97 181.911 33.4 183.351 38.06L194.901 75.48C195.201 76.45 195.661 77.35 196.231 78.15C196.801 78.96 197.501 79.67 198.261 80.29C199.031 80.91 199.871 81.43 200.751 81.83C201.621 82.24 202.531 82.54 203.431 82.71C204.321 82.89 205.211 82.95 206.051 82.89C206.881 82.83 207.661 82.64 208.361 82.32C209.051 82 209.651 81.56 210.121 80.97C210.591 80.39 210.931 79.68 211.111 78.82L217.841 46.76C218.661 42.87 218.761 38.84 218.211 34.78" fill="#2A3F38"/>
</svg>
