<svg width="24" height="24" viewBox="0 0 24 24" fill="none" xmlns="http://www.w3.org/2000/svg">
<mask id="mask0_3416_2" style="mask-type:luminance" maskUnits="userSpaceOnUse" x="1" y="1" width="23" height="23">
<path d="M1 1H23.4336V23.3515H1V1Z" fill="white"/>
</mask>
<g mask="url(#mask0_3416_2)">
<path d="M20.6281 12.7421L8.27365 19.8749C7.42046 20.3675 7.128 21.4582 7.62043 22.3111C8.11284 23.164 9.20368 23.4561 10.0569 22.9635L22.4113 15.8307C23.2645 15.3381 23.557 14.2474 23.0645 13.3944C22.5721 12.5416 21.4813 12.2495 20.6281 12.7421Z" fill="#FF7829"/>
<path d="M12.0832 10.4617L2.81742 15.8113C1.96424 16.3039 1.67176 17.3946 2.16418 18.2475C2.6566 19.1004 3.74745 19.3925 4.60065 18.8999L13.8665 13.5503C14.7196 13.0577 15.0121 11.9669 14.5197 11.114C14.0273 10.2612 12.9364 9.96904 12.0832 10.4617Z" fill="#FCBF22"/>
<path d="M14.3747 1.91025L2.0203 9.0431C1.1671 9.53567 0.874643 10.6264 1.36706 11.4793C1.85948 12.3322 2.95032 12.6243 3.80351 12.1317L16.158 4.99885C17.0111 4.50628 17.3036 3.41553 16.8112 2.56264C16.3188 1.70975 15.2279 1.41766 14.3747 1.91025Z" fill="#2AE5B9"/>
</g>
</svg>
