<svg width="1657" height="1657" viewBox="0 0 1657 1657" fill="none" xmlns="http://www.w3.org/2000/svg">
    <circle cx="828.5" cy="828.5" r="828.5" fill="#F5BE44"/>
    <path d="M1338.44 763.588L1133.58 409.127C1124.42 393.248 1111.22 380.068 1095.34 370.916C1079.45 361.764 1061.43 356.964 1043.09 357H633.794C611.099 357.061 588.818 363.071 569.171 374.431C549.525 385.791 533.2 402.103 521.825 421.742L316.967 776.203C307.817 792.051 303 810.029 303 828.329C303 846.63 307.817 864.608 316.967 880.456L521.825 1235.44C533.209 1255.09 549.55 1271.41 569.216 1282.78C588.883 1294.14 611.186 1300.14 633.898 1300.18H1043.09C1061.36 1300.14 1079.29 1295.31 1095.1 1286.16C1110.91 1277.01 1124.04 1263.87 1133.17 1248.05L1338.03 893.592C1349.53 873.876 1355.63 851.473 1355.7 828.646C1355.77 805.819 1349.82 783.377 1338.44 763.588V763.588ZM375.141 829.789L398.285 790.068L581.25 472.617L695.929 671.532C701.28 679.899 709.651 685.879 719.3 688.228C728.95 690.577 739.133 689.114 747.731 684.143C756.329 679.173 762.678 671.078 765.457 661.544C768.236 652.009 767.231 641.771 762.651 632.959L670.282 472.617C662.625 461.267 652.409 451.873 640.458 445.191C628.507 438.51 615.155 434.727 601.475 434.148H1014.53L820.303 770.573C816.872 776.495 811.946 781.412 806.019 784.834C800.091 788.255 793.369 790.06 786.525 790.068H444.886C430.796 789.976 416.929 793.599 404.685 800.572C392.44 807.546 382.25 817.623 375.141 829.789V829.789ZM1014.53 1223.14H648.076L762.755 1024.01C765.563 1019.62 767.452 1014.71 768.309 1009.57C769.165 1004.43 768.971 999.168 767.739 994.105C766.506 989.042 764.26 984.281 761.137 980.11C758.013 975.938 754.077 972.443 749.566 969.835C745.054 967.226 740.061 965.559 734.888 964.934C729.714 964.309 724.468 964.738 719.465 966.197C714.462 967.655 709.806 970.112 705.779 973.419C701.752 976.726 698.436 980.815 696.033 985.439L581.354 1184.56L558.523 1224.39C564.828 1213.36 568.428 1201 569.026 1188.31C569.624 1175.63 567.203 1162.98 561.963 1151.41L398.077 867.112H786.525C793.367 867.131 800.085 868.94 806.011 872.36C811.937 875.781 816.864 880.692 820.303 886.607V886.607L992.843 1185.4C1000.46 1196.59 1010.6 1205.83 1022.44 1212.39C1034.28 1218.94 1047.5 1222.62 1061.02 1223.14H1014.53ZM1264.53 867.216L1081.35 1184.56L886.713 848.138C883.311 842.203 881.521 835.482 881.521 828.642C881.521 821.802 883.311 815.081 886.713 809.147V809.147L1081.35 472.617L1104.19 432.897C1096.55 446.279 1092.9 461.569 1093.68 476.958C1094.45 492.348 1099.62 507.193 1108.56 519.74C1115.13 528.914 1264.94 789.964 1264.94 789.964H1034.44C1024.21 789.964 1014.4 794.028 1007.16 801.262C999.93 808.496 995.866 818.308 995.866 828.538C995.866 838.768 999.93 848.58 1007.16 855.814C1014.4 863.048 1024.21 867.112 1034.44 867.112H1218.97H1217.93C1232.02 867.204 1245.88 863.581 1258.13 856.608C1270.37 849.635 1280.56 839.557 1287.67 827.391L1264.42 867.32L1264.53 867.216Z" fill="black"/>
</svg>
