<svg xmlns="http://www.w3.org/2000/svg" id="Layer_2" viewBox="0 0 47.19 46.9"><defs><style>.cls-1{fill:#213864;fill-rule:evenodd;stroke-width:0px;}</style></defs><g id="Layer_1-2"><path class="cls-1" d="M37.23,42.56c7.83-5.54,11.52-15.27,9.34-24.62C44.39,8.6,36.78,1.51,27.3,0c9.33,2.26,15.85,10.21,16.65,19.34-2.26-3.61-5.16-6.68-8.5-9.11-.51-2.44-1.34-4.84-2.47-7.12.68,2.08,1.13,4.2,1.36,6.34-2.76-1.85-5.8-3.27-8.99-4.22,1.58-1.17,3.26-2.23,5.04-3.18-2.27.72-4.42,1.67-6.43,2.8-4.55-1.14-9.4-1.31-14.25-.37,4.4-.4,8.71.06,12.74,1.27-3.54,2.23-6.6,5.06-9.08,8.33-2.71-.37-5.5-.42-8.32-.14,2.64.03,5.23.35,7.73.93-2.58,3.61-4.46,7.7-5.51,12.06-1.72-.16-3.47-.16-5.24.02,1.73.12,3.41.39,5.05.8-.6,2.8-.85,5.71-.73,8.67C2.08,31.94-.29,25.68.39,19.06c-1.72,9.44,2.44,18.98,10.52,24.14,8.09,5.16,18.49,4.91,26.32-.64h0ZM37.96,36.4c-2.47,2.58-5.56,4.53-8.97,5.66-.69-1.43-1.49-2.79-2.4-4.05,2.89-2.67,5.25-5.92,6.89-9.58,1.8,2.42,3.32,5.1,4.48,7.97h0ZM31.54,26.04c-.18.38-.37.77-.57,1.14-1.66,3.16-3.82,5.98-6.39,8.36-3.76-4.1-8.72-6.96-14.18-8.13,1.08-4.19,2.83-8.16,5.17-11.77,6.18,1.98,11.7,5.59,15.97,10.41h0ZM22.21,37.53c-2.33,1.76-4.9,3.2-7.66,4.26-1.95-.72-3.76-1.71-5.39-2.91-.13-3.46.2-6.88.93-10.18,4.77,1.8,8.96,4.86,12.12,8.84h0ZM40.44,33.3c-1.53-3.02-3.46-5.76-5.7-8.17,1.18-3.78,1.59-7.72,1.22-11.61,3.28,3.08,5.96,6.83,7.82,11.1l-.14.82c-.56,2.89-1.67,5.54-3.2,7.86h0ZM32.74,23.15c-4.62-4.23-10.3-7.2-16.46-8.56,2.15-3.11,4.75-5.92,7.75-8.33,3.84,1.35,7.39,3.39,10.5,5.99.06,3.7-.54,7.39-1.78,10.9h0ZM24.04,40.11c.56.89,1.06,1.81,1.52,2.77-2.03.32-4.13.35-6.26.07,1.67-.8,3.26-1.76,4.74-2.85Z"></path></g></svg>