<svg width="159" height="159" viewBox="0 0 159 159" fill="none" xmlns="http://www.w3.org/2000/svg">
<path d="M16.3491 57.8504C17.522 56.6774 19.4243 56.679 20.5953 57.8539L77.0466 114.492C78.2189 115.668 80.1239 115.668 81.2962 114.492L137.746 57.8556C138.917 56.6807 140.819 56.6791 141.992 57.852L154.825 70.6847C159.511 75.3715 159.511 82.9685 154.825 87.6555L87.6552 154.826C82.969 159.512 75.371 159.512 70.6847 154.826L3.51472 87.6555C-1.17158 82.9685 -1.17158 75.3715 3.51472 70.6847L16.3491 57.8504Z" fill="black"/>
<path d="M53.3112 67.6786C52.1388 68.8549 50.2339 68.8549 49.0615 67.6786L29.9424 48.496C28.7742 47.3239 28.7758 45.4271 29.946 44.2569L70.6882 3.51472C75.3745 -1.17158 82.9725 -1.17158 87.6592 3.51472L128.402 44.2586C129.573 45.4288 129.574 47.3256 128.406 48.4977L109.288 67.6786C108.116 68.8549 106.211 68.8549 105.039 67.6786L81.2997 43.8609C80.1274 42.6847 78.2224 42.6847 77.0501 43.8609L53.3112 67.6786Z" fill="#FF6521"/>
</svg>
