<svg width="68" height="79" viewBox="0 0 68 79" fill="none" xmlns="http://www.w3.org/2000/svg">
<path d="M0.245784 39.2654C15.0249 38.8351 50.2753 37.2177 58.1423 25.7734C64.123 17.0767 50.923 8.02049 44.6492 4.74798C38.3754 1.46601 29.6479 0 29.6479 0C47.2117 1.98148 74.978 11.6004 66.3356 29.0885C58.5962 44.7417 18.2445 46.8698 0.236328 46.8698V39.2607H0.245784V39.2654Z" fill="#FC784A"/>
<path d="M0.236328 78.5499V71.0638C22.5893 70.3166 52.4596 69.6687 67.9525 54.8525C68.3733 67.9048 50.5023 73.7924 36.8247 76.2468C24.9864 78.3702 12.382 78.8904 0.241056 78.5499H0.236328Z" fill="#FC784A"/>
<path d="M67.9621 38.6411C55.6934 51.315 31.0758 54.8334 0 54.8334V62.4236C32.6785 62.4236 67.8675 57.6283 67.9621 38.6411Z" fill="#FC784A"/>
</svg>
