<svg width="300" height="300" viewBox="0 0 300 300" fill="none" xmlns="http://www.w3.org/2000/svg">
<circle cx="150" cy="150" r="150" fill="#0C9790"/>
<path d="M260.449 113.954C260.449 91.6054 241.51 76 214.399 76C192.356 76 177.163 86.9277 159.569 99.5826C156.625 101.697 153.582 103.889 150.445 106.071C141.393 112.359 131.988 118.493 123.406 123.912C122.549 124.455 121.481 124.527 120.562 124.106C113.735 120.99 100.213 115.996 83.5866 115.996C46.6717 115.996 38.9258 136.351 38.9258 153.429C38.9258 166.992 47.0424 178.285 62.3904 186.085C67.1099 188.482 71.8073 190.187 75.636 191.35C78.6126 192.258 80.9751 194.522 81.9766 197.467C82.978 200.412 84.162 203.567 85.6282 206.811C87.2494 210.398 89.1858 214.334 91.3713 218.514C93.7117 222.976 98.3426 225.589 103.129 225.589C104.855 225.589 106.603 225.251 108.269 224.537C132.801 214.035 171.26 200.954 215.179 198.264C222.809 197.793 228.596 191.433 228.358 183.777C228.248 180.195 228.065 176.857 227.822 173.862C227.639 171.615 227.395 169.395 227.141 167.346C226.66 163.46 228.198 159.602 231.23 157.127C234.262 154.653 237.742 151.641 241.283 148.165C254.003 135.682 260.454 124.173 260.454 113.954H260.449ZM109.386 210.897C108.208 211.367 106.946 211.638 105.679 211.544C102.597 211.312 99.7922 209.391 98.5308 206.413C97.8613 204.829 97.2305 203.301 96.5721 201.857C95.1834 198.784 94.0271 195.634 93.1418 192.966C92.2898 190.392 93.4461 187.58 95.875 186.384C101.297 183.71 110.116 180.466 118.648 178.208C119.472 177.992 120.192 177.455 120.573 176.696C123.7 170.518 118.681 165.691 113.912 167.02C113.608 167.103 106.349 169.118 98.7853 172.03C94.2982 173.757 90.6963 175.39 87.8635 177.017C83.7305 179.392 78.7842 179.891 74.3192 178.213C64.0669 174.36 50.9375 166.809 50.9375 153.44C50.9375 141.616 54.6445 128.048 83.5645 128.048C90.7129 128.048 97.2361 129.144 102.697 130.566C105.325 131.253 105.823 134.774 103.488 136.174C96.0687 140.631 91.2883 143.371 91.1666 143.443C88.284 145.092 87.2826 148.774 88.9313 151.658C90.5801 154.542 94.2594 155.544 97.142 153.894C97.3357 153.784 109.425 146.847 125.287 136.944C125.37 136.894 125.453 136.839 125.536 136.789C135.335 130.672 146.544 123.431 157.278 115.98C160.498 113.743 163.586 111.523 166.568 109.381C183.127 97.4734 196.207 88.0625 214.377 88.0625C234.726 88.0625 248.398 98.4754 248.398 113.976C248.398 125.224 233.454 139.811 223.108 148.22C220.275 150.523 216.612 151.508 212.988 151.043C211.948 150.911 210.902 150.794 209.856 150.695C207.649 150.49 206.376 148.087 207.444 146.139C212.612 136.744 214.781 130.96 214.902 130.633C216.053 127.516 214.471 124.062 211.356 122.905C208.246 121.742 204.783 123.331 203.621 126.442C203.588 126.536 200.196 135.493 191.703 149.228C191.189 150.058 190.303 150.595 189.324 150.673C187.216 150.839 185.595 148.851 186.159 146.82C187.642 141.489 187.897 139.047 187.93 138.654C188.212 135.344 185.767 132.388 182.452 132.105C179.127 131.829 176.228 134.237 175.946 137.553C175.946 137.597 175.476 141.555 172.15 151.331C171.791 152.394 170.878 153.191 169.777 153.413C162.025 154.941 156.841 156.485 156.293 156.651C153.112 157.614 151.314 160.969 152.276 164.152C153.234 167.33 156.587 169.14 159.773 168.177C159.917 168.132 166.086 166.306 175.055 164.7L175.332 164.662C175.857 164.617 178.579 164.108 178.701 164.086C187.294 162.741 197.773 161.777 207.892 162.613C211.715 162.929 214.808 165.857 215.268 169.666C215.467 171.338 215.649 173.098 215.799 174.87C215.931 176.486 216.042 178.213 216.136 180.034C216.23 181.856 215.727 185.842 211.616 186.035C207.981 186.207 192.068 186.29 160.222 193.924C135.922 199.747 114.249 208.97 109.37 210.924L109.386 210.897Z" fill="white"/>
</svg>
