<svg width="139" height="98" viewBox="0 0 139 98" fill="none" xmlns="http://www.w3.org/2000/svg">
<mask id="mask0_2009_3" style="mask-type:luminance" maskUnits="userSpaceOnUse" x="0" y="0" width="139" height="98">
<path d="M138.878 0H0V97.0968H138.878V0Z" fill="white"/>
</mask>
<g mask="url(#mask0_2009_3)">
<path d="M25.548 28.5849C25.548 27.6228 25.1307 26.8916 24.2961 26.3913L1.73819 13.9413C0.903613 13.441 0.486328 13.6719 0.486328 14.634V68.5133C0.486328 69.4756 0.913394 70.1891 1.76753 70.654L45.1061 93.053C45.96 93.5182 46.4083 93.2698 46.4509 92.3075L46.585 69.4756C46.6276 68.5133 46.2299 67.7853 45.3921 67.2914L26.8047 55.3033C25.9669 54.8094 25.548 54.0814 25.548 53.1191V28.5849Z" fill="#2A3E6E" fill-opacity="0.5"/>
<path d="M113.327 28.5849C113.327 27.6228 113.744 26.8916 114.579 26.3913L137.137 13.9413C137.972 13.441 138.389 13.6719 138.389 14.634V68.5133C138.389 69.4756 137.962 70.1891 137.108 70.654L93.6349 92.9185C92.7807 93.3833 92.3325 93.1349 92.2902 92.1727V69.4756C92.2476 68.5133 92.6453 67.7853 93.4831 67.2914L112.071 55.3033C112.908 54.8094 113.327 54.0814 113.327 53.1191V28.5849Z" fill="#2A3E6E" fill-opacity="0.5"/>
<path d="M23.8877 3.61725C23.8877 2.65511 24.3148 2.40817 25.1689 2.8764L68.231 26.4871C69.0852 26.9553 69.9391 26.9553 70.7933 26.4871L113.855 2.8764C114.71 2.40817 115.136 2.65511 115.136 3.61725V53.6481C115.136 54.61 114.716 55.3364 113.875 55.8271L70.7736 81.0542C69.9325 81.5448 69.0914 81.5448 68.2504 81.0542L25.1493 55.8271C24.3082 55.3364 23.8877 54.61 23.8877 53.6481V3.61725Z" fill="#2A3E6E"/>
</g>
</svg>
