<svg width="20" height="20" viewBox="0 0 20 20" fill="none" xmlns="http://www.w3.org/2000/svg">
<path d="M3.89893 12.1928V16.5589C3.89893 16.8276 4.12639 16.9392 4.19716 16.9645C4.26793 16.995 4.50549 17.0609 4.71779 16.8631L8.0207 13.689C8.30198 13.4188 8.57344 13.1347 8.77744 12.8022C8.87346 12.646 8.91326 12.5579 8.91326 12.5579C9.11547 12.1472 9.11547 11.7517 8.91825 11.3561C8.6252 10.7679 7.87703 10.1695 6.74977 9.60156L4.82395 10.6766C4.25277 11.0012 3.89893 11.5742 3.89893 12.1928Z" fill="#00378A"/>
<path d="M2 2.48173V7.06077C2 7.63378 2.38417 8.14086 2.93009 8.30313C4.79024 8.84064 8.03032 9.99681 8.81383 11.6955C8.91485 11.9186 8.97553 12.1367 8.99587 12.3649C9.51649 11.4166 9.75404 10.3264 9.64285 9.22096C9.49114 7.65405 8.66212 6.22913 7.36817 5.32144L2.75317 2.09127C2.67228 2.03042 2.57624 2 2.48021 2C2.39932 2 2.32856 2.01521 2.25274 2.05578C2.10109 2.14198 2 2.29918 2 2.48173Z" fill="#2470FF"/>
<path d="M16.1837 12.1928V16.5589C16.1837 16.8276 15.9563 16.9392 15.8855 16.9645C15.8148 16.995 15.5771 17.0609 15.3649 16.8631L11.9851 13.6152C11.755 13.3941 11.5353 13.1602 11.362 12.8923C11.2248 12.6802 11.1694 12.5579 11.1694 12.5579C10.9672 12.1472 10.9672 11.7517 11.1642 11.3561C11.4575 10.7679 12.2057 10.1695 13.3327 9.60156L15.2587 10.6766C15.835 11.0012 16.1837 11.5742 16.1837 12.1928Z" fill="#00378A"/>
<path d="M18.0858 2.48174V7.06076C18.0858 7.63377 17.7015 8.14086 17.1556 8.30313C15.2955 8.84064 12.0554 9.99682 11.2719 11.6956C11.1707 11.9187 11.1101 12.1367 11.0899 12.3649C10.5693 11.4167 10.3317 10.3264 10.4429 9.22097C10.5944 7.65405 11.4235 6.22914 12.7176 5.32145L17.3326 2.09128C17.4135 2.03042 17.5095 2 17.6055 2C17.6864 2 17.7572 2.01521 17.8329 2.05578C17.9846 2.14199 18.0858 2.29918 18.0858 2.48174Z" fill="#2470FF"/>
</svg>
