<svg width="84" height="66" viewBox="0 0 84 66" fill="none" xmlns="http://www.w3.org/2000/svg">
<path opacity="0.9" d="M17.6504 46.2635V63.5107C17.6504 64.5724 18.5518 65.0131 18.8322 65.1133C19.1127 65.2335 20.0542 65.4939 20.8955 64.7126L35.6588 50.5703C37.021 48.8075 37.5218 47.7058 37.5218 47.7058C38.3231 46.0832 38.323 44.5208 37.5418 42.9583C36.3799 40.6346 33.4153 38.2709 28.9483 36.0273L21.3162 40.2741C19.0526 41.5561 17.6504 43.8196 17.6504 46.2635Z" fill="#A9D6FF"/>
<path d="M10 7.90497V25.9935C10 28.2571 11.5225 30.2602 13.6859 30.9013C21.0575 33.0246 33.8977 37.5918 37.0026 44.3024C37.4033 45.1838 37.6437 46.0452 37.7238 46.9466C39.7871 43.2007 40.7286 38.8939 40.2879 34.527C39.6869 28.3372 36.4017 22.7083 31.2736 19.1227L12.9848 6.36252C12.6642 6.12214 12.2836 6.00195 11.903 6.00195C11.5825 6.00195 11.3021 6.06205 11.0016 6.2223C10.4006 6.56284 10 7.18383 10 7.90497Z" fill="url(#paint0_linear_2017_2260)"/>
<path opacity="0.9" d="M66.3362 46.2635V63.5107C66.3362 64.5724 65.4348 65.0131 65.1543 65.1133C64.8739 65.2335 63.9324 65.4939 63.0911 64.7126L48.3278 50.5703C46.9656 48.8075 46.4648 47.7058 46.4648 47.7058C45.6635 46.0832 45.6636 44.5208 46.4448 42.9583C47.6066 40.6346 50.5713 38.2709 55.0383 36.0273L62.6704 40.2741C64.954 41.5561 66.3362 43.8196 66.3362 46.2635Z" fill="#A9D6FF"/>
<path d="M73.9997 7.90301V25.9916C73.9997 28.2551 72.4773 30.2583 70.3139 30.8993C62.9423 33.0227 50.102 37.5899 46.9971 44.3005C46.5965 45.1819 46.3561 46.0432 46.276 46.9446C44.2127 43.1987 43.2712 38.8919 43.7119 34.525C44.3129 28.3353 47.5981 22.7064 52.7262 19.1207L71.015 6.36057C71.3355 6.12019 71.7162 6 72.0968 6C72.4173 6 72.6977 6.0601 72.9981 6.22035C73.5991 6.56089 73.9997 7.18187 73.9997 7.90301Z" fill="url(#paint1_linear_2017_2260)"/>
<defs>
<linearGradient id="paint0_linear_2017_2260" x1="41.3696" y1="46.6836" x2="10" y2="46.6836" gradientUnits="userSpaceOnUse">
<stop offset="0.0677083" stop-color="#EFFDFF"/>
<stop offset="1" stop-color="#A9D6FF"/>
</linearGradient>
<linearGradient id="paint1_linear_2017_2260" x1="43.6905" y1="46.6816" x2="73.7595" y2="46.6816" gradientUnits="userSpaceOnUse">
<stop offset="0.0677083" stop-color="#EFFDFF"/>
<stop offset="1" stop-color="#A9D6FF"/>
</linearGradient>
</defs>
</svg>
