<?xml version="1.0" encoding="UTF-8"?>
<svg version="1.1" xmlns="http://www.w3.org/2000/svg" viewBox="0 0 256 256">
<path d="M0 0 C1.15623367 -0.00686325 2.31246735 -0.0137265 3.5037384 -0.02079773 C7.2900555 -0.03895654 11.07595379 -0.03524285 14.86230469 -0.02954102 C16.84670508 -0.032952 18.83110566 -0.03637271 20.81550384 -0.04089409 C27.04615591 -0.05487844 33.27667071 -0.05343073 39.50732422 -0.04199219 C45.88988151 -0.03053213 52.27201753 -0.04456467 58.65451932 -0.07138866 C64.17431592 -0.09370021 69.69398182 -0.1001482 75.21382022 -0.09431225 C78.49285595 -0.09097618 81.77156688 -0.09489294 85.05057526 -0.11056328 C101.95346647 -0.1799585 117.97262723 -0.03171373 133.22167969 8.21655273 C133.88578857 8.56419678 134.54989746 8.91184082 135.23413086 9.27001953 C140.55778171 12.12888452 145.31458544 15.3177996 149.78417969 19.40405273 C151.12222656 20.60481445 151.12222656 20.60481445 152.48730469 21.82983398 C166.48070934 35.03945504 176.48404753 53.81026272 177.17185974 73.33306885 C177.19237929 75.42857689 177.1971056 77.52428333 177.18823242 79.61987305 C177.1985273 81.35422356 177.1985273 81.35422356 177.20903015 83.12361145 C177.22718897 86.90992855 177.22347527 90.69582683 177.21777344 94.48217773 C177.22118442 96.46657813 177.22460513 98.45097871 177.22912651 100.43537688 C177.24311086 106.66602895 177.24166315 112.89654376 177.23022461 119.12719727 C177.21876455 125.50975455 177.23279709 131.89189058 177.25962108 138.27439237 C177.28193263 143.79418897 177.28838062 149.31385487 177.28254467 154.83369327 C177.2792086 158.112729 177.28312536 161.39143992 177.2987957 164.6704483 C177.36819092 181.57333952 177.21994616 197.59250028 168.97167969 212.84155273 C168.62403564 213.50566162 168.2763916 214.16977051 167.91821289 214.85400391 C165.0593479 220.17765475 161.87043282 224.93445849 157.78417969 229.40405273 C156.98367187 230.29608398 156.18316406 231.18811523 155.35839844 232.10717773 C142.14877738 246.10058238 123.3779697 256.10392057 103.85516357 256.79173279 C101.75965553 256.81225234 99.6639491 256.81697865 97.56835938 256.80810547 C95.83400887 256.81840034 95.83400887 256.81840034 94.06462097 256.8289032 C90.27830388 256.84706201 86.49240559 256.84334832 82.70605469 256.83764648 C80.72165429 256.84105747 78.73725371 256.84447818 76.75285554 256.84899956 C70.52220347 256.8629839 64.29168867 256.8615362 58.06103516 256.85009766 C51.67847787 256.8386376 45.29634184 256.85267014 38.91384006 256.87949413 C33.39404345 256.90180568 27.87437755 256.90825366 22.35453916 256.90241772 C19.07550343 256.89908165 15.7967925 256.9029984 12.51778412 256.91866875 C-4.38510709 256.98806397 -20.40426786 256.8398192 -35.65332031 248.59155273 C-36.3174292 248.24390869 -36.98153809 247.89626465 -37.66577148 247.53808594 C-42.98942233 244.67922095 -47.74622606 241.49030587 -52.21582031 237.40405273 C-53.10785156 236.60354492 -53.99988281 235.80303711 -54.91894531 234.97827148 C-68.91234996 221.76865043 -78.91568815 202.99784274 -79.60350037 183.47503662 C-79.62401991 181.37952858 -79.62874623 179.28382214 -79.61987305 177.18823242 C-79.6267363 176.03199875 -79.63359955 174.87576508 -79.64067078 173.68449402 C-79.65882959 169.89817692 -79.65511589 166.11227864 -79.64941406 162.32592773 C-79.65282504 160.34152734 -79.65624576 158.35712676 -79.66076714 156.37272859 C-79.67475148 150.14207651 -79.67330378 143.91156171 -79.66186523 137.6809082 C-79.65040517 131.29835091 -79.66443772 124.91621489 -79.69126171 118.5337131 C-79.71357326 113.0139165 -79.72002124 107.4942506 -79.7141853 101.9744122 C-79.71084923 98.69537647 -79.71476598 95.41666555 -79.73043633 92.13765717 C-79.79983154 75.23476595 -79.65158678 59.21560519 -71.40332031 43.96655273 C-71.05567627 43.30244385 -70.70803223 42.63833496 -70.34985352 41.95410156 C-67.49098852 36.63045071 -64.30207345 31.87364698 -60.21582031 27.40405273 C-59.4153125 26.51202148 -58.61480469 25.61999023 -57.79003906 24.70092773 C-42.54835445 8.55488846 -22.13817511 -0.09373785 0 0 Z " fill="#39BEB7" transform="translate(79.2158203125,-0.404052734375)"/>
<path d="M0 0 C5.28 1.32 10.56 2.64 16 4 C14.38091907 12.77712292 12.50806923 21.24079217 9.80200195 29.74780273 C7.99869756 35.54073121 7.11341095 40.87623979 6 47 C16.89 36.11 27.78 25.22 39 14 C42.5368805 15.76844025 44.53364147 17.18250454 47.3125 19.875 C48.03050781 20.55304688 48.74851563 21.23109375 49.48828125 21.9296875 C51 24 51 24 50.76795959 25.93463135 C49.90673327 28.25083375 48.97585042 29.38747232 47.22436523 31.11621094 C46.64383896 31.69651062 46.06331268 32.2768103 45.4651947 32.87469482 C44.52142723 33.79523651 44.52142723 33.79523651 43.55859375 34.734375 C42.91632339 35.37240051 42.27405304 36.01042603 41.61231995 36.66778564 C39.56098274 38.70234118 37.49945727 40.72621379 35.4375 42.75 C34.04423766 44.12821491 32.65165102 45.50711325 31.25976562 46.88671875 C27.84763135 50.26579046 24.42632293 53.63531864 21 57 C25.37602527 55.92078063 29.75078443 54.83653069 34.125 53.75 C34.7673761 53.59071014 35.4097522 53.43142029 36.07159424 53.26730347 C44.22475819 51.2426536 52.32242454 49.15559437 60.3359375 46.62890625 C63.29957652 45.92927886 65.96547047 45.88810732 69 46 C69.50806447 47.72681437 70.00610467 49.45657979 70.5 51.1875 C70.91765625 52.63189453 70.91765625 52.63189453 71.34375 54.10546875 C71.96952908 56.86560149 72.04974903 59.18710708 72 62 C71.3922876 62.15557373 70.7845752 62.31114746 70.15844727 62.47143555 C59.781371 65.1348558 49.40862215 67.80488729 39.125 70.8125 C38.41287354 71.0189917 37.70074707 71.2254834 36.96704102 71.43823242 C33.71833694 72.22200052 33.71833694 72.22200052 31 74 C31.72888428 74.1858667 32.45776855 74.3717334 33.20874023 74.56323242 C57.73178256 80.83063987 57.73178256 80.83063987 68.0625 83.8125 C68.75077881 84.00674561 69.43905762 84.20099121 70.14819336 84.40112305 C73.06701398 85.26102142 74.81233023 85.81233023 77 88 C76.48616214 90.62825112 75.8843344 93.06873141 75.125 95.625 C74.82529297 96.68460938 74.82529297 96.68460938 74.51953125 97.765625 C74.0235315 99.51343363 73.5131058 101.25713649 73 103 C57.79162519 99.66603195 42.79694674 95.85653978 28 91 C27.97421875 89.94941406 27.9484375 88.89882812 27.921875 87.81640625 C27.4777365 75.30898903 25.29854396 66.95264626 16 58 C7.30061312 51.1515465 -1.17665863 49.93840958 -12 51 C-20.42463197 52.8630271 -27.21303612 57.97932268 -32.37890625 64.828125 C-37.44109079 73.1218886 -38.14178448 82.55173341 -37 92 C-35.69515461 95.43280547 -34.17678285 98.45045129 -32.3125 101.609375 C-31 104 -31 104 -31 107 C-31.58676514 107.15033691 -32.17353027 107.30067383 -32.77807617 107.45556641 C-44.68881366 110.51505688 -56.56352565 113.6455988 -68.34643555 117.17041016 C-69.57293823 117.53078369 -69.57293823 117.53078369 -70.82421875 117.8984375 C-71.53666748 118.11161621 -72.24911621 118.32479492 -72.9831543 118.54443359 C-75 119 -75 119 -79 119 C-79.5321441 116.91952703 -80.05031786 114.83547707 -80.5625 112.75 C-80.85253906 111.58984375 -81.14257812 110.4296875 -81.44140625 109.234375 C-81.97093314 106.16830322 -81.8538163 104.86969568 -81 102 C-80.02728149 101.75878418 -80.02728149 101.75878418 -79.03491211 101.51269531 C-76.00210814 100.75979736 -72.96973459 100.00518785 -69.9375 99.25 C-68.84671143 98.97849121 -67.75592285 98.70698242 -66.63208008 98.42724609 C-59.30512037 96.59618293 -52.00673522 94.68661792 -44.73046875 92.6640625 C-42 92 -42 92 -39 92 C-39 91.34 -39 90.68 -39 90 C-39.88558594 89.90332031 -40.77117187 89.80664062 -41.68359375 89.70703125 C-47.58276606 88.86133017 -53.3085506 87.20573313 -59.0625 85.6875 C-60.86328003 85.21654907 -60.86328003 85.21654907 -62.70043945 84.73608398 C-70.83256767 82.59935532 -78.9406242 80.3984464 -87 78 C-85.84941444 72.60204011 -84.57578241 67.29012667 -83 62 C-76.9220848 63.1349424 -70.89341373 64.46020556 -64.875 65.875 C-64.23828369 66.02420898 -63.60156738 66.17341797 -62.94555664 66.32714844 C-55.27778979 68.14356505 -47.64600199 70.0884995 -40 72 C-51.22 60.78 -62.44 49.56 -74 38 C-70.37613 33.77215167 -66.95773294 29.84132903 -63 26 C-60.14220983 27.29719924 -58.08991464 28.6636826 -55.88378906 30.88916016 C-55.30348938 31.4696109 -54.7231897 32.05006165 -54.12530518 32.64810181 C-53.51161072 33.27211884 -52.89791626 33.89613586 -52.265625 34.5390625 C-51.62759949 35.17991791 -50.98957397 35.82077332 -50.33221436 36.48104858 C-48.30005931 38.52437821 -46.27497782 40.57455982 -44.25 42.625 C-42.8715547 44.0134786 -41.49265364 45.4015049 -40.11328125 46.7890625 C-36.73688106 50.18748697 -33.36680712 53.59207254 -30 57 C-35.02364876 36.50871432 -35.02364876 36.50871432 -40.5769043 16.15673828 C-42 11.19009201 -42 11.19009201 -42 9 C-36.72 7.68 -31.44 6.36 -26 5 C-23.10410998 13.15139414 -20.83901295 21.29325457 -18.83911133 29.70410156 C-17.50519525 35.24625101 -15.88977065 40.6217952 -14 46 C-11.64847003 43.64847003 -11.42252852 42.35289843 -10.66796875 39.15234375 C-10.30964966 37.6667395 -10.30964966 37.6667395 -9.9440918 36.15112305 C-9.6944165 35.09062744 -9.44474121 34.03013184 -9.1875 32.9375 C-6.50163056 21.84282511 -3.61135114 10.83405342 0 0 Z " fill="#F9FDFD" transform="translate(133,46)"/>
<path d="M0 0 C8.80544817 5.41318535 15.56830416 12.44850526 18.3828125 22.46484375 C18.61998734 25.10134543 18.76379859 27.58222222 18.7578125 30.21484375 C18.75648315 31.26720215 18.75648315 31.26720215 18.75512695 32.34082031 C18.57493107 40.29870969 16.11995647 46.14865179 11.3828125 52.46484375 C10.67766404 54.61218302 10.67766404 54.61218302 10.3828125 56.46484375 C9.3928125 56.46484375 8.4028125 56.46484375 7.3828125 56.46484375 C5.42283628 57.51913894 5.42283628 57.51913894 3.4453125 58.90234375 C0.75806584 60.71973022 -1.42115345 61.84279685 -4.6171875 62.46484375 C-5.1121875 64.44484375 -5.1121875 64.44484375 -5.6171875 66.46484375 C-5.9471875 65.80484375 -6.2771875 65.14484375 -6.6171875 64.46484375 C-7.59300781 64.47644531 -8.56882813 64.48804688 -9.57421875 64.5 C-10.84652344 64.50902344 -12.11882812 64.51804687 -13.4296875 64.52734375 C-15.32654297 64.54474609 -15.32654297 64.54474609 -17.26171875 64.5625 C-20.6171875 64.46484375 -20.6171875 64.46484375 -23.6171875 63.46484375 C-23.9471875 64.12484375 -24.2771875 64.78484375 -24.6171875 65.46484375 C-25.0915625 64.92859375 -25.5659375 64.39234375 -26.0546875 63.83984375 C-28.31476009 61.74514233 -30.40144114 60.28193632 -32.9921875 58.65234375 C-40.12063244 53.9702781 -45.46203878 47.86750224 -47.6171875 39.46484375 C-48.76249308 28.92335771 -47.89029743 19.53074522 -41.69921875 10.7421875 C-31.45062222 -1.57426744 -15.1449929 -7.02267823 0 0 Z " fill="#39BEB7" transform="translate(142.6171875,98.53515625)"/>
<path d="M0 0 C2.99943905 1.34572887 5.08076179 2.83537101 7.39160156 5.16455078 C8.35214447 6.12532028 8.35214447 6.12532028 9.33209229 7.10549927 C10.01140808 7.79513763 10.69072388 8.484776 11.390625 9.1953125 C12.09523865 9.90275604 12.79985229 10.61019958 13.52581787 11.33908081 C15.7719539 13.59639862 18.01103009 15.86057633 20.25 18.125 C21.77297717 19.65800953 23.29640939 21.19056715 24.8203125 22.72265625 C28.55216815 26.47654573 32.27825351 30.23608914 36 34 C34.42400077 37.31115963 32.68825694 39.66702538 30.125 42.3125 C29.44695312 43.03050781 28.76890625 43.74851563 28.0703125 44.48828125 C26 46 26 46 24.05863953 45.758255 C20.51054261 44.45139083 18.13272404 41.5581185 15.51953125 38.91796875 C14.90607346 38.30738113 14.29261566 37.69679352 13.66056824 37.06770325 C12.36678076 35.77595542 11.0767668 34.4804186 9.7902832 33.18139648 C7.81978178 31.1948411 5.83381052 29.22477702 3.84570312 27.25585938 C2.59018281 25.99835661 1.33559343 24.73992353 0.08203125 23.48046875 C-0.51272507 22.89178513 -1.10748138 22.3031015 -1.72026062 21.69657898 C-6.43948027 16.89586254 -6.43948027 16.89586254 -7 13 C-6.07421875 11.03515625 -6.07421875 11.03515625 -4.6875 9.0625 C-2.70638865 6.11834841 -1.16139039 3.37859023 0 0 Z " fill="#F9FDFD" transform="translate(160,138)"/>
<path d="M0 0 C2.40227161 2.40227161 2.69470779 3.94747379 3.55078125 7.21484375 C3.83493896 8.28541016 4.11909668 9.35597656 4.41186523 10.45898438 C4.70907471 11.60689453 5.00628418 12.75480469 5.3125 13.9375 C5.61937744 15.10216797 5.92625488 16.26683594 6.24243164 17.46679688 C6.86720494 19.84025188 7.48919529 22.2144412 8.10839844 24.58935547 C8.91863899 27.68876962 9.74094559 30.78456508 10.5703125 33.87890625 C11.02619335 35.585897 11.4819326 37.29292557 11.9375 39 C12.14866455 39.78753662 12.3598291 40.57507324 12.57739258 41.38647461 C14 46.77063595 14 46.77063595 14 49 C11.91798472 49.50546036 9.83432933 50.00416835 7.75 50.5 C6.58984375 50.7784375 5.4296875 51.056875 4.234375 51.34375 C1 52 1 52 -3 52 C-3.16081055 51.351521 -3.32162109 50.70304199 -3.48730469 50.03491211 C-4.2402026 47.0021083 -4.99491778 43.96976071 -5.75 40.9375 C-6.15726318 39.29914185 -6.15726318 39.29914185 -6.57275391 37.62768555 C-8.38676651 30.36144403 -10.29170644 23.13044926 -12.3359375 15.92578125 C-12.9622305 13.16640798 -13.13583529 10.81597008 -13 8 C-12.22914063 7.59007812 -11.45828125 7.18015625 -10.6640625 6.7578125 C-9.66117188 6.21898437 -8.65828125 5.68015625 -7.625 5.125 C-6.62726563 4.59132812 -5.62953125 4.05765625 -4.6015625 3.5078125 C-1.94651605 2.1179862 -1.94651605 2.1179862 0 0 Z " fill="#FAFDFD" transform="translate(151,153)"/>
<path d="M0 0 C3.29344791 1.63438895 6.52495139 3.35890195 9.75 5.125 C10.73484375 5.66382813 11.7196875 6.20265625 12.734375 6.7578125 C13.85585937 7.37269531 13.85585937 7.37269531 15 8 C10.5770571 15.95292571 3.43293172 21.79736087 -3.46875 27.58984375 C-5.11898278 28.94214631 -5.11898278 28.94214631 -6 31 C-6.66 31 -7.32 31 -8 31 C-8 31.66 -8 32.32 -8 33 C-10.375 35.625 -10.375 35.625 -13 38 C-13.66 38 -14.32 38 -15 38 C-15 38.66 -15 39.32 -15 40 C-17 41.625 -17 41.625 -19 43 C-22.45201639 41.52278578 -24.64961936 39.56205999 -27.25 36.875 C-27.95640625 36.15054688 -28.6628125 35.42609375 -29.390625 34.6796875 C-29.92171875 34.12539062 -30.4528125 33.57109375 -31 33 C-29.70280076 30.14220983 -28.3363174 28.08991464 -26.11083984 25.88378906 C-25.5303891 25.30348938 -24.94993835 24.7231897 -24.35189819 24.12530518 C-23.72788116 23.51161072 -23.10386414 22.89791626 -22.4609375 22.265625 C-21.82008209 21.62759949 -21.17922668 20.98957397 -20.51895142 20.33221436 C-18.47562179 18.30005931 -16.42544018 16.27497782 -14.375 14.25 C-12.9865214 12.8715547 -11.5984951 11.49265364 -10.2109375 10.11328125 C-6.81251303 6.73688106 -3.40792746 3.36680712 0 0 Z " fill="#FBFEFD" transform="translate(103,153)"/>
<path d="M0 0 C5.61 0 11.22 0 17 0 C16.36038026 3.83771842 15.70032324 7.45449313 14.765625 11.203125 C14.52344238 12.17572266 14.28125977 13.14832031 14.03173828 14.15039062 C13.64477783 15.68469727 13.64477783 15.68469727 13.25 17.25 C12.85337158 18.83071289 12.85337158 18.83071289 12.44873047 20.44335938 C10.11595257 29.6739563 7.595347 38.83995177 5 48 C-0.28 46.68 -5.56 45.36 -11 44 C-9.87302752 34.98422018 -9.87302752 34.98422018 -8.73046875 30.390625 C-8.48312988 29.39353516 -8.23579102 28.39644531 -7.98095703 27.36914062 C-7.71911621 26.33982422 -7.45727539 25.31050781 -7.1875 24.25 C-6.92050293 23.18974609 -6.65350586 22.12949219 -6.37841797 21.03710938 C-4.55230032 13.89076322 -2.50622906 6.94032662 0 0 Z " fill="#FBFDFD" transform="translate(119,162)"/>
</svg>
