<svg width="140" height="140" viewBox="0 0 140 140" fill="none" xmlns="http://www.w3.org/2000/svg">
<g clip-path="url(#clip0_2009_16)">
<path fill-rule="evenodd" clip-rule="evenodd" d="M0 70C0 31.3391 31.3391 0 70 0C108.661 0 140 31.3391 140 70C140 70.6045 139.991 71.209 139.974 71.805C139.966 72.4095 139.941 73.0055 139.907 73.6015C139.864 74.555 139.795 75.5085 139.702 76.4535C139.676 76.8025 139.642 77.143 139.608 77.4835C139.514 78.3265 139.404 79.161 139.285 79.995H129.171C129.724 76.743 130.005 73.4055 130.005 70C130.005 36.8645 103.135 9.99515 70 9.99515C36.8645 9.99515 9.99515 36.856 9.99515 70C9.99515 103.144 36.8645 130.005 70 130.005H106.064C95.5325 136.347 83.188 140 70 140C31.3391 140 0 108.661 0 70ZM30.0108 70.002C30.0108 47.9172 47.9152 30.0128 70 30.0128C92.0845 30.0128 109.998 47.9172 109.998 70.002C109.998 73.45 109.563 76.8045 108.737 79.997H119.005C119.661 76.7705 120.001 73.4245 120.001 70.002C120.001 42.3917 97.6185 20.0006 70 20.0006C42.3813 20.0006 20.0072 42.3917 20.0072 70.002C20.0072 97.612 42.3898 120.003 70 120.003H118.988C122.112 116.947 124.948 113.592 127.451 110H70C47.9152 110 30.0108 92.095 30.0108 70.002ZM50.01 70.002C50.01 58.9595 58.9575 50.0115 70 50.0115C81.0425 50.0115 89.999 58.9595 89.999 70.002C89.999 73.646 89.0285 77.06 87.317 79.997H98.2825C99.3895 76.8725 99.994 73.5095 99.994 70.002C99.994 53.4425 86.568 40.0079 70 40.0079C53.4325 40.0079 40.0062 53.4425 40.0062 70.002C40.0062 86.561 53.441 99.996 70 99.996H133.265C134.789 96.7945 136.075 93.457 137.097 90.0005H70C58.9575 90.0005 50.01 81.044 50.01 70.002Z" fill="black"/>
</g>
<defs>
<clipPath id="clip0_2009_16">
<rect width="140" height="140" fill="white"/>
</clipPath>
</defs>
</svg>
