<svg width="198" height="199" viewBox="0 0 198 199" fill="none" xmlns="http://www.w3.org/2000/svg">
<path fill-rule="evenodd" clip-rule="evenodd" d="M98.552 198.607C69.062 198.585 45.306 191.58 28.708 178.998C11.91 166.265 3 148.195 3 127.748C3 108.047 11.891 93.841 21.952 84.238C29.836 76.713 38.536 71.894 44.594 69.121C43.224 64.959 41.515 59.511 39.986 53.883C37.94 46.353 35.933 37.517 35.933 31.043C35.933 23.38 37.62 15.683 42.171 9.703C46.98 3.385 54.218 0 62.926 0C69.732 0 75.51 2.499 80.034 6.81C84.358 10.93 87.236 16.403 89.223 22.108C92.714 32.132 94.073 44.726 94.455 57.295H102.796C103.178 44.726 104.537 32.132 108.029 22.108C110.016 16.403 112.894 10.931 117.218 6.81C121.741 2.5 127.519 0 134.325 0C143.033 0 150.272 3.385 155.08 9.703C159.631 15.683 161.319 23.38 161.319 31.043C161.319 37.517 159.312 46.353 157.265 53.883C155.736 59.511 154.027 64.959 152.657 69.121C158.715 71.894 167.416 76.713 175.3 84.239C185.36 93.841 194.252 108.047 194.252 127.748C194.252 148.195 185.341 166.265 168.544 178.998C151.946 191.58 128.19 198.585 98.7 198.607H98.552Z" fill="#633001"/>
<path d="M62.9259 7.28809C50.1719 7.28809 44.2999 16.8041 44.2999 29.9631C44.2999 40.4231 51.1219 61.3711 53.9209 69.5261C54.5509 71.3611 53.5609 73.3701 51.7569 74.0811C41.5349 78.1121 11.3669 92.8701 11.3669 126.669C11.3669 162.272 42.0249 189.117 98.5579 189.159H98.6929C155.227 189.117 185.883 162.272 185.883 126.669C185.883 92.8701 155.716 78.1121 145.494 74.0811C143.69 73.3711 142.7 71.3611 143.33 69.5261C146.129 61.3721 152.951 40.4231 152.951 29.9631C152.951 16.8031 147.08 7.28809 134.325 7.28809C115.965 7.28809 111.389 33.2951 111.062 61.2081C111.04 63.0711 109.534 64.5831 107.67 64.5831H89.5799C87.7169 64.5831 86.2099 63.0711 86.1889 61.2081C85.8629 33.2951 81.2859 7.28809 62.9259 7.28809Z" fill="#D1884F"/>
<path d="M98.693 177.755C57.155 177.755 11.44 155.52 11.368 126.737V126.871C11.368 162.503 42.073 189.362 98.693 189.362C155.313 189.362 186.018 162.503 186.018 126.871V126.737C185.946 155.52 140.231 177.755 98.693 177.755Z" fill="#FEDC90"/>
<path d="M75.614 117.896C75.614 127.614 71.021 132.675 65.356 132.675C59.691 132.675 55.098 127.614 55.098 117.896C55.098 108.178 59.691 103.117 65.356 103.117C71.021 103.117 75.614 108.178 75.614 117.896ZM142.288 117.896C142.288 127.614 137.696 132.675 132.031 132.675C126.365 132.675 121.773 127.614 121.773 117.896C121.773 108.178 126.365 103.117 132.031 103.117C137.696 103.117 142.288 108.178 142.288 117.896Z" fill="#633001"/>
</svg>
