<svg xmlns="http://www.w3.org/2000/svg" fill="none" width="26" height="24.683" viewBox="0 0 26 24.683"><rect width="26" height="24.683" fill="#fff"/><defs><linearGradient x1=".5" y1="0" x2=".5" y2="1.392" id="a"><stop offset="0%" stop-color="#7A41FF"/><stop offset="51.81%" stop-color="#008CFF"/><stop offset="100%" stop-color="#04FF00"/></linearGradient></defs><g transform="translate(3 3)"><path d="M9.937 2.876 7.095 0v.002L1.51 5.655a5.26 5.26 0 0 0 0 7.375l5.586 5.653 2.842-2.876 2.841 2.876 5.586-5.653v-.002a5.26 5.26 0 0 0 0-7.375L12.778 0 9.937 2.876Zm0 .003-.001-.002h.002l-.001.002Zm0 0 6.385 6.463-6.385 6.463L3.55 9.341l6.386-6.463Zm0 12.926v.002l-.001-.001v-.001Z" fill-rule="evenodd" fill="url(#a)"/></g></svg>
