<svg xmlns="http://www.w3.org/2000/svg" xmlns:xlink="http://www.w3.org/1999/xlink" viewBox="0 0 40 40"><path d="M 4.165 19.035 L 17.606 37.609 C 18.742 39.188 21.09 39.181 22.216 37.595 L 35.476 18.152 C 36.186 17.151 36.175 15.805 35.448 14.815 L 28.485 4.944 C 27.647 3.803 26.098 3.456 24.855 4.131 L 5.115 14.871 C 3.61 15.688 3.164 17.643 4.165 19.035 Z" fill="rgb(0,180,254)" opacity="0.3"></path><path d="M 39.763 26.082 L 34.305 6.517 C 34.17 6.037 33.825 5.644 33.364 5.453 L 20.531 0.124 C 20.134 -0.041 19.688 -0.041 19.291 0.124 L 6.458 5.453 C 5.998 5.644 5.652 6.037 5.518 6.517 L 0.06 26.082 C -0.069 26.545 0.012 27.042 0.284 27.439 L 5.42 34.95 C 5.622 35.243 5.912 35.462 6.249 35.574 L 19.404 39.918 C 19.733 40.027 20.088 40.027 20.417 39.918 L 33.572 35.574 C 33.909 35.462 34.2 35.243 34.4 34.95 L 39.537 27.439 C 39.808 27.042 39.89 26.546 39.761 26.082 Z M 35.475 18.15 L 22.214 37.593 C 21.088 39.179 18.741 39.186 17.605 37.607 L 4.163 19.033 C 3.163 17.642 3.609 15.686 5.113 14.869 L 24.853 4.13 C 26.096 3.455 27.645 3.801 28.484 4.942 L 35.446 14.814 C 36.173 15.802 36.185 17.149 35.475 18.15 Z" fill="rgb(0,180,254)"></path></svg>
