<svg width="1000" height="1000" viewBox="0 0 1000 1000" fill="none" xmlns="http://www.w3.org/2000/svg">
<rect width="1000" height="1000" fill="#03060D"/>
<mask id="mask0_878_2846" style="mask-type:luminance" maskUnits="userSpaceOnUse" x="184" y="184" width="633" height="633">
<path d="M816.066 184.184H184.195V816.054H816.066V184.184Z" fill="white"/>
</mask>
<g mask="url(#mask0_878_2846)">
<path d="M778.201 624.672C726.419 658.983 626.678 682.646 511.141 684.036C505.107 684.099 500.21 678.855 500.21 672.378V629.759C500.21 623.377 495.407 618.164 489.468 618.101H489.215C488.33 618.101 487.446 618.101 486.561 618.101C482.928 618.037 479.326 617.974 475.725 617.879H475.093C471.681 617.785 468.237 617.658 464.857 617.532C464.003 617.532 463.15 617.469 462.297 617.437C458.759 617.279 455.22 617.121 451.714 616.932C451.398 616.932 451.082 616.932 450.734 616.868C447.448 616.679 444.226 616.489 441.003 616.268C440.214 616.205 439.424 616.173 438.634 616.11C435.159 615.857 431.715 615.605 428.271 615.32C427.861 615.32 427.45 615.257 427.071 615.226C423.943 614.973 420.847 614.688 417.751 614.373C417.024 614.309 416.297 614.246 415.571 614.151C412.19 613.804 408.81 613.456 405.492 613.077C405.05 613.014 404.608 612.982 404.165 612.919C401.132 612.572 398.099 612.193 395.098 611.813C394.498 611.719 393.834 611.655 393.234 611.592C389.917 611.15 386.631 610.708 383.377 610.234C382.934 610.171 382.492 610.107 382.05 610.044C379.08 609.602 376.142 609.16 373.172 608.686C372.635 608.591 372.161 608.528 371.624 608.433C368.37 607.927 365.179 607.39 361.988 606.822C361.577 606.759 361.167 606.664 360.756 606.601C357.786 606.063 354.911 605.526 352.004 604.989C351.625 604.926 351.246 604.831 350.867 604.768C347.708 604.168 344.612 603.536 341.515 602.873C341.136 602.809 340.789 602.715 340.41 602.651C337.471 602.019 334.596 601.388 331.721 600.756C331.5 600.693 331.248 600.661 331.058 600.598C327.993 599.903 324.96 599.176 321.959 598.449C321.643 598.386 321.359 598.291 321.011 598.228C318.073 597.502 315.198 596.775 312.355 596.017C312.26 596.017 312.197 596.017 312.133 595.954C309.164 595.164 306.289 594.342 303.382 593.521C303.129 593.458 302.845 593.363 302.561 593.3C296.842 591.625 291.25 589.919 285.848 588.15C285.658 588.087 285.437 588.024 285.247 587.929C279.813 586.096 274.537 584.232 269.482 582.305C269.324 582.242 269.198 582.179 269.04 582.147C263.953 580.188 259.025 578.166 254.317 576.081C254.191 576.081 254.128 575.986 254.001 575.955C249.262 573.838 244.744 571.69 240.416 569.447C240.353 569.415 240.29 569.383 240.227 569.352C235.898 567.109 231.791 564.834 227.905 562.464C227.905 562.464 227.81 562.433 227.779 562.401C223.893 560.032 220.228 557.631 216.816 555.135H216.753C213.34 552.607 210.15 550.08 207.211 547.489C200.356 541.96 195.522 535.01 192.015 528.343C189.898 524.331 184.243 525.816 184.243 530.46V571.058C184.243 632.286 319.874 682.172 489.31 684.226C495.281 684.289 500.115 689.47 500.115 695.884V738.567C500.115 744.98 495.249 750.13 489.278 750.067H489.152C488.267 750.067 487.383 750.067 486.498 750.067C482.865 750.004 479.263 749.94 475.661 749.846H475.03C471.618 749.751 468.174 749.624 464.793 749.498C463.94 749.498 463.087 749.435 462.234 749.403C458.696 749.245 455.157 749.087 451.65 748.898C451.334 748.898 451.019 748.866 450.671 748.835C447.385 748.645 444.163 748.455 440.94 748.234C440.15 748.171 439.361 748.139 438.571 748.076C435.095 747.824 431.652 747.571 428.208 747.286C427.797 747.286 427.387 747.223 427.007 747.192C423.88 746.939 420.784 746.655 417.687 746.339C416.961 746.276 416.234 746.212 415.507 746.118C412.127 745.77 408.746 745.422 405.429 745.043C404.987 744.98 404.544 744.949 404.102 744.885C401.069 744.538 398.036 744.159 395.035 743.78C394.435 743.685 393.771 743.622 393.171 743.558C389.853 743.116 386.568 742.674 383.314 742.2L381.987 742.01C379.017 741.568 376.079 741.126 373.109 740.652C372.572 740.557 372.098 740.494 371.561 740.399C368.307 739.894 365.116 739.357 361.925 738.788C361.514 738.725 361.103 738.63 360.693 738.567C357.723 738.03 354.848 737.493 351.941 736.955C351.562 736.892 351.183 736.797 350.804 736.734C347.645 736.134 344.548 735.502 341.452 734.839C341.073 734.775 340.726 734.681 340.346 734.617C337.408 733.986 334.533 733.354 331.658 732.722C331.437 732.659 331.184 732.627 330.995 732.564C327.93 731.869 324.897 731.142 321.896 730.416C321.58 730.352 321.296 730.258 320.948 730.194C318.01 729.468 315.135 728.741 312.291 727.983C312.197 727.983 312.133 727.983 312.07 727.92C309.1 727.13 306.225 726.308 303.319 725.487C303.066 725.424 302.782 725.329 302.497 725.266C296.779 723.591 291.187 721.885 285.784 720.116C285.595 720.053 285.374 719.99 285.184 719.895C279.75 718.062 274.474 716.23 269.419 714.271C269.261 714.208 269.135 714.145 268.977 714.113C263.89 712.154 258.962 710.132 254.254 708.047C254.128 708.016 254.065 707.953 253.938 707.921C249.199 705.804 244.681 703.656 240.353 701.413C240.29 701.381 240.227 701.35 240.163 701.318C235.835 699.075 231.728 696.8 227.842 694.431C227.842 694.431 227.747 694.431 227.716 694.367C223.83 691.998 220.165 689.597 216.753 687.101H216.689C213.277 684.573 210.086 682.046 207.148 679.455C200.292 673.926 195.459 666.976 191.952 660.31C189.835 656.297 184.18 657.782 184.18 662.426V703.024C184.18 764.221 319.747 814.107 489.12 816.192C495.155 816.255 500.115 811.074 500.115 804.597V761.946C500.115 755.564 504.885 750.351 510.825 750.288C689.328 748.203 798.452 694.62 798.452 656.013C798.452 646.219 791.47 635.509 778.138 624.862L778.233 624.577L778.201 624.672Z" fill="white"/>
<path d="M222.088 375.596C273.901 341.285 373.673 317.622 489.243 316.232C495.245 316.168 500.111 321.413 500.111 327.826V370.572C500.111 376.954 504.913 382.167 510.853 382.23H511.105C511.99 382.23 512.875 382.23 513.759 382.23C517.392 382.294 520.994 382.357 524.596 382.452H525.228C528.64 382.546 532.083 382.673 535.464 382.799C536.317 382.799 537.17 382.862 538.023 382.894C541.561 383.052 545.1 383.21 548.607 383.399C548.923 383.399 549.239 383.399 549.586 383.463C552.872 383.652 556.094 383.842 559.317 384.063C560.107 384.126 560.897 384.158 561.687 384.221C565.162 384.474 568.606 384.726 572.049 385.011C572.46 385.042 572.871 385.074 573.25 385.105C576.378 385.358 579.474 385.643 582.57 385.958C583.297 386.022 584.023 386.085 584.75 386.18C588.13 386.527 591.511 386.875 594.828 387.254C595.27 387.317 595.713 387.349 596.155 387.412C599.188 387.759 602.221 388.138 605.222 388.518C605.823 388.612 606.486 388.676 607.086 388.739C610.404 389.181 613.689 389.623 616.944 390.097C617.386 390.16 617.828 390.224 618.271 390.287C621.24 390.729 624.179 391.171 627.148 391.645C627.685 391.74 628.159 391.803 628.696 391.898C631.951 392.404 635.141 392.941 638.332 393.509C638.743 393.572 639.154 393.667 639.565 393.73C642.503 394.268 645.409 394.805 648.316 395.342C648.695 395.405 649.074 395.5 649.453 395.563C652.613 396.163 655.709 396.795 658.805 397.458C659.184 397.522 659.532 397.616 659.911 397.68C662.849 398.312 665.724 398.943 668.599 399.575C668.82 399.638 669.073 399.67 669.262 399.733C672.327 400.428 675.36 401.155 678.361 401.882C678.677 401.945 678.962 402.04 679.309 402.103C682.247 402.829 685.122 403.556 687.966 404.314C688.061 404.314 688.124 404.346 688.187 404.377C691.125 405.167 694.032 405.989 696.938 406.81C697.191 406.873 697.476 406.968 697.76 407.031C703.478 408.706 709.07 410.412 714.473 412.181C714.694 412.244 714.884 412.307 715.073 412.402C720.507 414.235 725.783 416.067 730.838 418.026C730.996 418.089 731.123 418.152 731.281 418.184C736.367 420.143 741.296 422.165 746.003 424.25C746.13 424.281 746.224 424.345 746.319 424.376C751.058 426.493 755.576 428.641 759.904 430.884C759.968 430.884 760.031 430.948 760.094 430.979C764.422 433.222 768.561 435.497 772.415 437.867C772.415 437.867 772.479 437.867 772.542 437.93C776.428 440.299 780.093 442.7 783.505 445.196C783.505 445.196 783.505 445.196 783.568 445.228C786.98 447.724 790.171 450.251 793.109 452.842C799.997 458.402 804.862 465.385 808.337 472.082C810.422 476.063 816.078 474.484 816.078 469.902V429.273C816.078 368.045 680.415 318.159 510.916 316.105C504.976 316.042 500.174 310.892 500.174 304.51V261.701C500.174 255.256 505.071 250.075 511.042 250.169H511.168C512.053 250.169 512.969 250.169 513.822 250.169C517.456 250.233 521.057 250.296 524.659 250.391H525.291C528.703 250.485 532.147 250.612 535.527 250.738C536.38 250.77 537.233 250.801 538.086 250.833C541.625 250.991 545.163 251.149 548.67 251.338C548.986 251.338 549.302 251.338 549.649 251.402C552.935 251.591 556.158 251.781 559.38 252.002C560.17 252.065 560.96 252.097 561.75 252.16C565.225 252.413 568.669 252.665 572.112 252.95C572.523 252.95 572.934 253.013 573.313 253.044C576.441 253.297 579.537 253.582 582.633 253.898C583.36 253.961 584.086 254.024 584.813 254.119C588.194 254.466 591.574 254.814 594.891 255.193C595.334 255.256 595.776 255.288 596.218 255.351C599.251 255.698 602.284 256.077 605.286 256.457C605.917 256.551 606.549 256.615 607.15 256.678C610.467 257.12 613.753 257.562 617.007 258.036C617.449 258.099 617.891 258.163 618.334 258.226C621.304 258.668 624.242 259.11 627.212 259.584C627.749 259.679 628.222 259.742 628.76 259.837C632.014 260.343 635.205 260.88 638.396 261.448C638.806 261.512 639.217 261.606 639.628 261.67C642.566 262.207 645.473 262.744 648.379 263.281C648.758 263.344 649.137 263.439 649.517 263.502C652.676 264.102 655.772 264.734 658.868 265.398C659.247 265.461 659.595 265.556 659.974 265.619C662.912 266.251 665.787 266.882 668.662 267.514C668.883 267.578 669.136 267.609 669.326 267.672C672.39 268.367 675.423 269.094 678.425 269.821C678.741 269.884 679.025 269.979 679.372 270.042C682.311 270.768 685.186 271.495 688.029 272.253C688.124 272.253 688.187 272.285 688.25 272.317C691.22 273.106 694.095 273.928 697.002 274.749C697.254 274.812 697.539 274.907 697.823 274.97C703.573 276.645 709.134 278.351 714.536 280.12C714.757 280.183 714.947 280.247 715.168 280.341C720.602 282.174 725.878 284.006 730.933 285.965C731.091 286.028 731.217 286.091 731.375 286.123C736.462 288.082 741.391 290.104 746.098 292.189C746.224 292.189 746.288 292.284 746.414 292.315C751.153 294.432 755.671 296.58 759.999 298.823C760.062 298.823 760.126 298.887 760.22 298.918C764.549 301.161 768.687 303.436 772.542 305.806C772.542 305.806 772.605 305.806 772.668 305.869C776.554 308.238 780.219 310.639 783.631 313.135C783.631 313.135 783.631 313.135 783.694 313.135C787.106 315.631 790.297 318.159 793.235 320.749C800.123 326.31 804.988 333.292 808.464 339.99C810.549 343.971 816.204 342.391 816.204 337.778V297.149C816.204 235.952 680.636 186.066 511.263 183.981C505.229 183.918 500.269 189.099 500.269 195.576V238.353C500.269 244.704 495.53 249.885 489.622 249.948C310.96 252.318 201.805 305.9 201.805 344.508C201.805 354.302 208.787 365.012 222.151 375.659L222.088 375.596Z" fill="white"/>
<path d="M504.57 457.601H499.293C495.913 457.601 492.501 457.601 489.152 457.538C488.267 457.538 487.383 457.538 486.498 457.507C482.865 457.444 479.263 457.38 475.662 457.286H475.03C471.618 457.191 468.174 457.064 464.793 456.938C463.94 456.938 463.087 456.875 462.234 456.843C458.696 456.685 455.157 456.527 451.65 456.338C451.335 456.338 451.019 456.306 450.703 456.275C447.417 456.085 444.194 455.895 440.972 455.674C440.182 455.611 439.392 455.579 438.602 455.516C435.127 455.264 431.683 455.011 428.24 454.726C427.829 454.726 427.418 454.663 427.039 454.632C423.911 454.379 420.815 454.095 417.719 453.779C416.992 453.715 416.266 453.652 415.539 453.558C412.159 453.21 408.778 452.862 405.461 452.483C405.018 452.42 404.576 452.389 404.134 452.325C401.101 451.978 398.068 451.599 395.066 451.22C394.466 451.125 393.803 451.062 393.202 450.998C389.885 450.556 386.599 450.114 383.345 449.64C382.903 449.577 382.461 449.514 381.987 449.45C379.017 449.008 376.079 448.566 373.109 448.092C372.572 447.997 372.098 447.934 371.561 447.839C368.307 447.334 365.116 446.797 361.925 446.228C361.514 446.165 361.103 446.07 360.693 446.007C357.723 445.47 354.848 444.932 351.941 444.395C351.562 444.332 351.183 444.237 350.804 444.174C347.645 443.574 344.548 442.942 341.452 442.279C341.073 442.215 340.726 442.121 340.346 442.057C337.408 441.426 334.533 440.794 331.658 440.162C331.437 440.099 331.184 440.067 330.995 440.004C327.93 439.309 324.897 438.582 321.896 437.856C321.58 437.792 321.296 437.698 320.948 437.634C318.01 436.908 315.166 436.181 312.291 435.423C312.197 435.423 312.133 435.391 312.07 435.36C309.1 434.57 306.194 433.748 303.319 432.927C303.066 432.864 302.782 432.769 302.497 432.706C296.779 431.031 291.187 429.325 285.784 427.556C285.595 427.493 285.374 427.43 285.184 427.335C279.75 425.502 274.474 423.67 269.419 421.711C269.261 421.648 269.135 421.585 268.977 421.553C263.89 419.594 258.962 417.572 254.254 415.487C254.128 415.487 254.065 415.393 253.938 415.361C249.199 413.244 244.681 411.096 240.353 408.853C240.29 408.853 240.227 408.79 240.163 408.758C235.835 406.515 231.696 404.24 227.842 401.871C227.842 401.871 227.779 401.839 227.716 401.807C223.83 399.438 220.165 397.037 216.753 394.541C216.753 394.541 216.753 394.541 216.689 394.541C213.277 392.045 210.086 389.517 207.148 386.927C200.261 381.366 195.395 374.353 191.92 367.686C189.835 363.706 184.18 365.285 184.18 369.866V429.357C184.18 491.88 325.624 542.588 500.115 542.588C503.811 542.588 507.445 542.588 511.109 542.683C511.994 542.683 512.91 542.683 513.763 542.683C517.397 542.746 520.998 542.809 524.6 542.904H525.232C528.644 542.999 532.088 543.125 535.468 543.251C536.321 543.283 537.174 543.315 538.027 543.346C541.566 543.504 545.104 543.662 548.611 543.852C548.927 543.852 549.243 543.883 549.59 543.915C552.876 544.105 556.099 544.294 559.321 544.515C560.111 544.578 560.901 544.61 561.691 544.673C565.166 544.926 568.61 545.179 572.053 545.463C572.464 545.463 572.875 545.526 573.254 545.558C576.382 545.811 579.478 546.095 582.574 546.411C583.301 546.474 583.996 546.537 584.722 546.632C588.103 546.98 591.483 547.327 594.801 547.706C595.243 547.769 595.685 547.801 596.128 547.864C599.161 548.212 602.194 548.591 605.195 548.97C605.795 549.065 606.459 549.128 607.059 549.191C610.376 549.633 613.662 550.076 616.916 550.55C617.358 550.613 617.801 550.676 618.243 550.739C621.213 551.181 624.183 551.624 627.121 552.098C627.658 552.192 628.132 552.256 628.669 552.35C631.923 552.856 635.114 553.393 638.305 553.962C638.716 554.025 639.126 554.12 639.537 554.183C642.475 554.72 645.382 555.257 648.289 555.794C648.668 555.857 649.047 555.952 649.426 556.015C652.585 556.616 655.681 557.247 658.778 557.911C659.157 557.974 659.504 558.069 659.883 558.132C662.822 558.764 665.697 559.396 668.572 560.028C668.793 560.091 669.045 560.122 669.235 560.186C672.3 560.881 675.333 561.607 678.334 562.334C678.65 562.397 678.934 562.492 679.282 562.555C682.22 563.282 685.095 564.008 687.938 564.767C688.033 564.767 688.096 564.767 688.16 564.83C691.098 565.62 694.004 566.441 696.911 567.263C697.164 567.326 697.48 567.421 697.732 567.484C703.451 569.158 709.043 570.864 714.445 572.633C714.667 572.697 714.856 572.76 715.046 572.855C720.48 574.687 725.756 576.551 730.811 578.478C730.969 578.541 731.095 578.605 731.253 578.636C736.34 580.595 741.268 582.617 745.976 584.702C746.102 584.734 746.197 584.797 746.292 584.829C751.031 586.945 755.549 589.094 759.877 591.337C759.94 591.337 760.003 591.4 760.066 591.432C764.395 593.675 768.502 595.95 772.388 598.319C772.388 598.319 772.483 598.319 772.514 598.382C776.4 600.752 780.065 603.153 783.477 605.649H783.54C786.952 608.176 790.143 610.704 793.082 613.294C799.969 618.855 804.835 625.837 808.31 632.535C810.395 636.516 816.05 634.936 816.05 630.355V570.864C816.05 508.878 676.975 458.518 504.506 457.665V457.601H504.57Z" fill="white"/>
</g>
</svg>
