<svg width="342" height="406" viewBox="0 0 342 406" fill="none" xmlns="http://www.w3.org/2000/svg">
<path d="M0 303.105C0 306.259 1.67238 309.143 4.39673 310.733L166.374 404.193C169.099 405.756 172.444 405.756 175.168 404.193L337.146 310.733C339.87 309.17 341.542 306.259 341.542 303.105V207.758C341.542 204.604 339.87 201.72 337.146 200.13L292.558 174.413L341.542 146.162V102.276C341.542 99.1224 339.87 96.238 337.146 94.6476L175.195 1.18825C172.471 -0.375249 169.126 -0.375249 166.401 1.18825L4.39673 94.6476C1.67238 96.2111 0 99.1224 0 102.276V197.623C0 200.777 1.67238 203.661 4.39673 205.251L48.9844 230.968L0 259.219V303.105ZM166.374 298.711C169.099 300.274 172.444 300.274 175.168 298.711L213.201 276.768V220.212L175.168 242.155C172.444 243.719 169.099 243.719 166.374 242.155L53.4081 176.974C50.6838 175.41 49.0114 172.499 49.0114 169.345V130.554C49.0114 127.4 50.6838 124.516 53.4081 122.925L166.401 57.7437C169.126 56.1802 172.471 56.1802 175.195 57.7437L288.161 122.925C290.886 124.489 292.558 127.4 292.558 130.554V174.386L175.195 106.643C172.471 105.08 169.126 105.08 166.401 106.643L128.368 128.586V185.142L166.401 163.199C169.126 161.635 172.471 161.635 175.195 163.199L288.161 228.38C290.886 229.944 292.558 232.855 292.558 236.009V274.8C292.558 277.954 290.886 280.838 288.161 282.429L175.168 347.61C172.444 349.174 169.099 349.174 166.374 347.61L53.4081 282.429C50.6838 280.865 49.0114 277.954 49.0114 274.8V230.968L166.374 298.711Z" fill="url(#paint0_linear_156_349)"/>
<defs>
<linearGradient id="paint0_linear_156_349" x1="308.23" y1="340.063" x2="33.5128" y2="65.1455" gradientUnits="userSpaceOnUse">
<stop stop-color="#F99F38"/>
<stop offset="1" stop-color="#F23D4C"/>
</linearGradient>
</defs>
</svg>
