<?xml version="1.0" encoding="UTF-8"?>
<svg xmlns="http://www.w3.org/2000/svg" xmlns:xlink="http://www.w3.org/1999/xlink" version="1.1" viewBox="0 0 1786 523">
  <defs>
    <style>
      .cls-1 {
        fill: url(#linear-gradient-8);
      }

      .cls-2 {
        fill: url(#linear-gradient-7);
      }

      .cls-3 {
        fill: url(#linear-gradient-5);
      }

      .cls-4 {
        fill: url(#linear-gradient-6);
      }

      .cls-5 {
        fill: url(#linear-gradient-9);
      }

      .cls-6 {
        fill: url(#linear-gradient-4);
      }

      .cls-7 {
        fill: url(#linear-gradient-3);
      }

      .cls-8 {
        fill: url(#linear-gradient-2);
      }

      .cls-9 {
        fill: url(#linear-gradient-10);
      }

    </style>
    <linearGradient id="linear-gradient-2" x1="131" y1="296.9" x2="1663" y2="296.9" gradientUnits="userSpaceOnUse">
      <stop offset="0" stop-color="#ff49a4"/>
      <stop offset=".9" stop-color="#b049ff"/>
    </linearGradient>
    <linearGradient id="linear-gradient-3" y1="299.1" y2="299.1" xlink:href="#linear-gradient-2"/>
    <linearGradient id="linear-gradient-4" y1="156.7" y2="156.7" xlink:href="#linear-gradient-2"/>
    <linearGradient id="linear-gradient-5" y1="301.2" y2="301.2" xlink:href="#linear-gradient-2"/>
    <linearGradient id="linear-gradient-6" y1="299.1" x2="1663" y2="299.1" xlink:href="#linear-gradient-2"/>
    <linearGradient id="linear-gradient-7" y1="371.4" y2="371.4" xlink:href="#linear-gradient-2"/>
    <linearGradient id="linear-gradient-8" y1="259.4" y2="259.4" xlink:href="#linear-gradient-2"/>
    <linearGradient id="linear-gradient-9" y1="298" y2="298" xlink:href="#linear-gradient-2"/>
    <linearGradient id="linear-gradient-10" x2="1663" xlink:href="#linear-gradient-2"/>
  </defs>
  <!-- Generator: Adobe Illustrator 28.7.2, SVG Export Plug-In . SVG Version: 1.2.0 Build 154)  -->
  <g>
    <g id="Layer_1">
      <path style="fill:none" d="M1540.3,210.3v-12.7c0-19.8,14.4-24.5,24.9-24.5h15.1v-38.5c-4-1.8-13.7-3.6-23.8-3.6-39.2,0-64.5,25.9-64.5,65.9v13.4h-25.1v40.9h25.1v136.7h48.4v-136.7h67.2v136.7h48.4v-177.6h-115.8ZM630,228c13-13.9,32-22.1,56.5-22.1,50.3,0,80.7,34.2,80.7,82.5v99.4h-48.4v-103.3c0-22.8-13.4-34.1-32.3-34.1s-32.3,11.4-32.3,34.1v103.3h-48.4v-103.3c0-22.8-13.4-34.1-32.3-34.1s-32.3,11.4-32.3,34.1v103.3h-48.4v-99.4c0-48.4,30.4-82.5,80.7-82.5s43.5,8.2,56.5,22.1ZM227.2,282.7c-3.1-.7-6.1-1.3-9.1-1.9-5.5-1.1-11-2.2-16.8-3.6-12.9-3-19.2-7.1-19.2-17.2s10.6-17.6,23.8-17.6c21.1,0,27,13.3,28.5,23.8l44.1-9c-2.3-19.1-20-51.1-72.9-51.1s-69.5,26.3-69.5,58,24.5,46.6,48.3,52.7c5.3,1.3,9.7,2.3,14,3.3h0c3.8.9,7.5,1.7,11.8,2.8,13,3.2,22.5,5.9,22.5,15.1s-7.9,17.6-24.6,17.6-30.1-13-31.3-26.8l-45.8,9c2.3,19.9,21.5,54.5,77.4,54.5s72.1-28.8,72.1-57.6-17.2-44.2-53.4-51.9h0ZM418.7,313.6c0,22.7-14.8,34.1-33.7,34.1s-33.7-11.3-33.7-34.1v-103.3h-48.4v99.4c0,48.3,31.9,82.5,82.2,82.5s82.2-34.2,82.2-82.5v-99.4h-48.4v103.3ZM989.4,206c-24.5,0-43.5,8.1-56.5,22.1-13-13.9-32-22.1-56.5-22.1-50.3,0-80.7,34.2-80.7,82.5v99.4h48.4v-103.3c0-22.7,13.4-34.1,32.3-34.1s32.3,11.3,32.3,34.1v103.3h48.4v-103.3c0-22.7,13.4-34.1,32.3-34.1s32.3,11.3,32.3,34.1v103.3h48.4v-99.4c0-48.3-30.4-82.5-80.7-82.5ZM1343.1,238.5c7.3-18,28.5-30.4,48.8-30.4h0c6,0,11.2.7,15.8,2.2v40.9h-15c-25.8,0-45.6,17.7-45.6,48.1v88.6h-48.4v-177.6h44.5v28.2ZM1597.9,173.1c0-18.3,14.7-32.9,32.6-33,17.9,0,32.6,14.7,32.6,33h-65.1ZM1630.4,140.2h0,0,0ZM1419.5,354.9c-17.9,0-32.6,14.7-32.6,33h65.1c0-18.3-14.7-32.9-32.5-33ZM1188,351.1c22,0,33.7-11.9,39.9-26.6l42.2,13.9c-10.1,29.5-38.7,53.8-82.5,53.8s-94.5-34.9-94.5-94.7,43.2-91.5,90-91.5,90.4,34.7,90.4,91.6-.4,9.7-.6,11.9c0,.7-.1,1.2-.1,1.4h-131c1.1,23.4,21.6,40.3,46.1,40.3ZM1224.9,279.8c-.8-17.7-12.7-34.9-40.9-34.9s-39.8,18.7-40.9,34.9h81.9Z"/>
      <g>
        <path class="cls-8" d="M686.5,206c-24.5,0-43.5,8.1-56.5,22.1-13-13.9-32-22.1-56.5-22.1-50.3,0-80.7,34.2-80.7,82.5v99.4h48.4v-103.3c0-22.7,13.4-34.1,32.3-34.1s32.3,11.3,32.3,34.1v103.3h48.4v-103.3c0-22.7,13.4-34.1,32.3-34.1s32.3,11.3,32.3,34.1v103.3h48.4v-99.4c0-48.3-30.4-82.5-80.7-82.5Z"/>
        <path class="cls-7" d="M227.2,282.7h0c-3.1-.7-6.1-1.3-9.1-1.9-5.5-1.1-11-2.2-16.8-3.6-12.9-3-19.2-7.1-19.2-17.2s10.6-17.6,23.8-17.6c21.1,0,27,13.3,28.5,23.8l44.1-9c-2.3-19.1-20-51.1-72.9-51.1s-69.5,26.3-69.5,58,24.5,46.6,48.3,52.7c5.3,1.3,9.7,2.3,14,3.3h0c3.8.9,7.5,1.7,11.8,2.8,13,3.2,22.5,5.9,22.5,15.1s-7.9,17.6-24.6,17.6-30.1-13-31.3-26.8l-45.8,9c2.3,19.9,21.5,54.5,77.4,54.5s72.1-28.8,72.1-57.6-17.2-44.2-53.4-51.9Z"/>
        <path class="cls-6" d="M1630.4,140.2c-17.9,0-32.6,14.7-32.6,33h65.1c0-18.3-14.7-32.9-32.6-33Z"/>
        <path class="cls-3" d="M418.7,313.6c0,22.7-14.8,34.1-33.7,34.1s-33.7-11.3-33.7-34.1v-103.3h-48.4v99.4c0,48.3,31.9,82.5,82.2,82.5s82.2-34.2,82.2-82.5v-99.4h-48.4v103.3Z"/>
        <path class="cls-4" d="M1183.2,206c-46.9,0-90,35-90,91.5s44.3,94.7,94.5,94.7,72.4-24.2,82.5-53.8l-42.2-13.9c-6.2,14.7-17.9,26.6-39.9,26.6s-45-16.9-46.1-40.3h131c0-.2,0-.7.1-1.4.2-2.2.6-6.7.6-11.9,0-56.9-33.9-91.6-90.4-91.6ZM1143,279.8c1.1-16.2,15.3-34.9,40.9-34.9s40.2,17.3,40.9,34.9h-81.9Z"/>
        <path class="cls-2" d="M1419.5,354.9c-17.9,0-32.6,14.7-32.6,33h65.1c0-18.3-14.7-32.9-32.5-33Z"/>
        <path class="cls-1" d="M1540.3,197.6c0-19.8,14.4-24.5,24.9-24.5h15.1v-38.5c-4-1.8-13.7-3.6-23.8-3.6-39.2,0-64.5,25.9-64.5,65.9v13.4h-25.1v40.9h25.1v136.7h48.4v-136.7h67.2v136.7h48.4v-177.6h-115.8v-12.7Z"/>
        <path class="cls-5" d="M1407.7,251.2v-40.9c-4.5-1.4-9.8-2.2-15.8-2.2h0c-20.3,0-41.5,12.4-48.8,30.4v-28.2h-44.5v177.6h48.4v-88.6c0-30.4,19.8-48.1,45.6-48.1h15Z"/>
        <path class="cls-9" d="M989.4,206c-24.5,0-43.5,8.1-56.5,22.1-13-13.9-32-22.1-56.5-22.1-50.3,0-80.7,34.2-80.7,82.5v99.4h48.4v-103.3c0-22.7,13.4-34.1,32.3-34.1s32.3,11.3,32.3,34.1v103.3h48.4v-103.3c0-22.7,13.4-34.1,32.3-34.1s32.3,11.3,32.3,34.1v103.3h48.4v-99.4c0-48.3-30.4-82.5-80.7-82.5Z"/>
      </g>
    </g>
  </g>
</svg>
