<svg width="32" height="32" viewBox="0 0 32 32" fill="none" xmlns="http://www.w3.org/2000/svg">
<g clip-path="url(#clip0_6219_1499)">
<path d="M24 0H8C3.58172 0 0 3.58172 0 8V24C0 28.4183 3.58172 32 8 32H24C28.4183 32 32 28.4183 32 24V8C32 3.58172 28.4183 0 24 0Z" fill="url(#paint0_radial_6219_1499)"/>
<path d="M25.6624 10.9218L18.3429 23.5998C18.1216 23.9821 17.8036 24.2995 17.4209 24.5202C17.0382 24.7409 16.6042 24.8571 16.1624 24.8571C15.7206 24.8571 15.2866 24.7409 14.9039 24.5202C14.5212 24.2995 14.2032 23.9821 13.9819 23.5998L12.6987 21.379C12.6946 21.3735 12.6928 21.3665 12.6938 21.3597C12.6948 21.3529 12.6984 21.3467 12.7039 21.3426C12.7094 21.3385 12.7164 21.3367 12.7232 21.3377C12.73 21.3387 12.7362 21.3423 12.7403 21.3478C12.9692 21.5738 13.2467 21.7444 13.5517 21.8466C13.8566 21.9488 14.1809 21.9799 14.4998 21.9376C14.8186 21.8952 15.1235 21.7805 15.3912 21.6022C15.6589 21.4239 15.8823 21.1867 16.0442 20.9088L22.1715 10.2854C22.3331 10.0049 22.4279 9.69109 22.4486 9.36809C22.4694 9.04509 22.4155 8.72164 22.2912 8.42279C22.1669 8.12395 21.9755 7.85772 21.7318 7.64473C21.4881 7.43174 21.1986 7.2777 20.8858 7.19453C20.8789 7.19453 20.8723 7.1918 20.8674 7.18692C20.8626 7.18205 20.8598 7.17545 20.8598 7.16856C20.8598 7.16167 20.8626 7.15506 20.8674 7.15019C20.8723 7.14532 20.8789 7.14258 20.8858 7.14258H23.4832C23.9252 7.14306 24.3594 7.25982 24.742 7.48115C25.1246 7.70248 25.4423 8.02057 25.6631 8.40351C25.8839 8.78644 26.0001 9.22072 26 9.66276C25.9999 10.1047 25.8835 10.539 25.6624 10.9218ZM16.9975 7.14258H14.4598C14.4546 7.14429 14.4501 7.1476 14.4469 7.15203C14.4437 7.15646 14.4419 7.16179 14.4419 7.16726C14.4419 7.17273 14.4437 7.17806 14.4469 7.18249C14.4501 7.18692 14.4546 7.19023 14.4598 7.19194C14.6307 7.25795 14.7854 7.3601 14.9132 7.49138C15.041 7.62267 15.1389 7.78001 15.2003 7.95264C15.2617 8.12527 15.2852 8.30912 15.269 8.49163C15.2528 8.67414 15.1974 8.851 15.1065 9.01013L11.4078 15.4075C11.3123 15.5697 11.182 15.7088 11.0263 15.8147C10.8706 15.9206 10.6934 15.9908 10.5074 16.0201C10.3215 16.0494 10.1313 16.0371 9.9506 15.9842C9.7699 15.9313 9.60317 15.839 9.46236 15.714C9.45822 15.7085 9.45207 15.7049 9.44525 15.7039C9.43843 15.7029 9.4315 15.7047 9.42599 15.7088C9.42048 15.7129 9.41684 15.7191 9.41587 15.7259C9.41489 15.7327 9.41667 15.7397 9.4208 15.7452L10.7195 17.9998C10.8653 18.2528 11.0752 18.4629 11.3281 18.609C11.5809 18.7551 11.8678 18.832 12.1598 18.832C12.4518 18.832 12.7387 18.7551 12.9915 18.609C13.2443 18.4629 13.4542 18.2528 13.6 17.9998L18.439 9.6361C18.585 9.38325 18.6618 9.09641 18.6617 8.80445C18.6617 8.51248 18.5847 8.22569 18.4385 7.97292C18.2924 7.72015 18.0823 7.51033 17.8293 7.36457C17.5763 7.21881 17.2894 7.14224 16.9975 7.14258ZM8.18962 7.14258C7.75656 7.14258 7.33322 7.271 6.97313 7.5116C6.61305 7.7522 6.3324 8.09417 6.16668 8.49427C6.00095 8.89438 5.95759 9.33464 6.04207 9.75938C6.12656 10.1841 6.3351 10.5742 6.64133 10.8805C6.94755 11.1867 7.3377 11.3952 7.76245 11.4797C8.18719 11.5642 8.62745 11.5208 9.02756 11.3551C9.42766 11.1894 9.76963 10.9087 10.0102 10.5486C10.2508 10.1886 10.3792 9.76527 10.3792 9.33221C10.3796 9.04457 10.3232 8.75968 10.2133 8.49387C10.1033 8.22806 9.94208 7.98654 9.73868 7.78315C9.53529 7.57975 9.29377 7.41848 9.02796 7.30856C8.76215 7.19865 8.47726 7.14224 8.18962 7.14258Z" fill="white"/>
</g>
<defs>
<radialGradient id="paint0_radial_6219_1499" cx="0" cy="0" r="1" gradientUnits="userSpaceOnUse" gradientTransform="translate(3.27273 2.18182) rotate(47.3859) scale(37.0588)">
<stop stop-color="#4C555F"/>
<stop offset="0.430533" stop-color="#2D353E"/>
<stop offset="1" stop-color="#0F171F"/>
</radialGradient>
<clipPath id="clip0_6219_1499">
<rect width="32" height="32" rx="16" fill="white"/>
</clipPath>
</defs>
</svg>
