<svg width="500" height="500" viewBox="0 0 500 500" fill="none" xmlns="http://www.w3.org/2000/svg">
<rect width="500" height="500" fill="#D6FF34"/>
<path fill-rule="evenodd" clip-rule="evenodd" d="M332.127 161.333C283.595 161.333 244.253 201.031 244.253 250C244.253 298.969 283.595 338.667 332.127 338.667C380.658 338.667 420 298.969 420 250C420 201.031 380.658 161.333 332.127 161.333ZM82.2701 178.879C79.6023 174.197 82.9514 168.356 88.3035 168.356L143.935 168.356H197.292L244.424 168.356C249.388 168.356 252.756 173.45 250.849 178.075L188.613 329.058C187.534 331.677 184.998 333.383 182.187 333.383H120.63C115.665 333.383 112.297 328.289 114.204 323.664L132.796 278.56C134.457 274.53 134.167 269.949 132.011 266.165L82.2701 178.879ZM255.29 166.894C255.29 166.835 255.349 166.796 255.402 166.818C255.443 166.836 255.463 166.883 255.446 166.925C255.412 167.008 255.29 166.983 255.29 166.894Z" fill="black"/>
</svg>
