<svg xmlns="http://www.w3.org/2000/svg" fill="none" viewBox="0 0 146 146" class="block size-full"><path fill="url(#yuzu-grad-_R_4qiclulb_)" d="M87.056 35.524c-1.776-1.902-5.842-5.209-11.961-5.209-6.067 0-10.068 3.17-11.832 4.995-.059.074-1.004 1.3-.266 3.086l11.194 27.086s.998 2.429 2.003 0l11.16-26.949c.69-1.792-.298-3.01-.298-3.01"></path><path fill="url(#yuzu-grad-_R_4qiclulb_)" d="M57.307 37.425c-2.6-.087-7.81.454-12.136 4.787-4.29 4.297-4.882 9.37-4.84 11.91.01.094.207 1.63 1.991 2.37l27.04 11.227s2.42 1.01 1.417-1.419L59.642 39.342c-.778-1.756-2.335-1.917-2.335-1.917"></path><path fill="url(#yuzu-grad-_R_4qiclulb_)" d="M38.429 60.379c-1.9 1.779-5.201 5.85-5.201 11.979 0 6.076 3.164 10.082 4.987 11.849.074.059 1.298 1.006 3.082.266l27.047-11.21s2.425-1 0-2.007l-26.91-11.175c-1.79-.691-3.005.298-3.005.298"></path><path fill="url(#yuzu-grad-_R_4qiclulb_)" d="M40.336 90.054c-.087 2.603.453 7.82 4.78 12.153 4.29 4.297 9.357 4.889 11.893 4.847.094-.01 1.627-.207 2.367-1.994l11.21-27.08s1.009-2.423-1.417-1.418L42.25 87.716c-1.755.778-1.915 2.338-1.915 2.338"></path><path fill="url(#yuzu-grad-_R_4qiclulb_)" d="M63.238 108.949c1.777 1.901 5.843 5.208 11.962 5.208 6.067 0 10.067-3.169 11.831-4.994.06-.074 1.004-1.299.266-3.086L76.104 78.99s-.999-2.428-2.004 0L62.94 105.94c-.69 1.793.297 3.01.297 3.01"></path><path fill="url(#yuzu-grad-_R_4qiclulb_)" d="M92.884 107.048c2.599.087 7.808-.454 12.135-4.788 4.29-4.296 4.882-9.37 4.84-11.91-.01-.094-.207-1.63-1.991-2.37l-27.04-11.226s-2.42-1.01-1.416 1.419l11.137 26.957c.777 1.757 2.335 1.918 2.335 1.918"></path><path fill="url(#yuzu-grad-_R_4qiclulb_)" d="M111.753 84.194c1.899-1.78 5.2-5.851 5.2-11.98 0-6.075-3.164-10.082-4.987-11.849-.073-.059-1.297-1.005-3.081-.266L81.838 71.31s-2.425 1 0 2.007l26.91 11.175c1.79.691 3.005-.297 3.005-.297"></path><path fill="url(#yuzu-grad-_R_4qiclulb_)" d="M109.853 54.419c.087-2.603-.453-7.82-4.781-12.154-4.29-4.296-9.356-4.888-11.892-4.846-.094.01-1.627.207-2.367 1.993l-11.21 27.08s-1.009 2.424 1.417 1.419l26.918-11.154c1.754-.778 1.915-2.338 1.915-2.338"></path><path fill="url(#yuzu-grad-_R_4qiclulb_)" d="M94.19 124.774c.855 2.352-.353 4.971-2.76 5.649a60.28 60.28 0 0 1-50.084-8.078 60.4 60.4 0 0 1-19.037-20.806 60.518 60.518 0 0 1-1.912-54.847 60.4 60.4 0 0 1 17.541-22.085A60.3 60.3 0 0 1 63.58 12.904a60.3 60.3 0 0 1 23.758.146c2.448.508 3.835 3.036 3.146 5.443s-3.194 3.777-5.648 3.302a51.2 51.2 0 0 0-19.529.01 51.3 51.3 0 0 0-21.795 9.946 51.36 51.36 0 0 0-14.91 18.773 51.44 51.44 0 0 0 1.625 46.62 51.35 51.35 0 0 0 16.182 17.685 51.25 51.25 0 0 0 41.916 7.045c2.416-.645 5.01.547 5.865 2.9"></path><defs><linearGradient id="yuzu-grad-_R_4qiclulb_" x1="133.774" x2="14.742" y1="72.236" y2="72.236" gradientUnits="userSpaceOnUse"><stop stop-color="#6BCF13"></stop><stop offset="1" stop-color="#FDD447"></stop></linearGradient></defs></svg>