<svg width="64" height="64" viewBox="0 0 64 64" fill="none" xmlns="http://www.w3.org/2000/svg">
<g clip-path="url(#clip0_2017_2526)">
<path d="M32 0C49.6724 0 64 14.3276 64 32C64 49.6724 49.6716 64 32 64C14.3284 64 0 49.6761 0 32C0 14.3239 14.3258 0 32 0Z" fill="white"/>
<path d="M42.6245 24.7386C42.2205 24.5057 41.7624 24.3832 41.2961 24.3832C40.8299 24.3832 40.3719 24.5057 39.9679 24.7386L33.8733 28.3692L29.7321 30.7371L23.6375 34.3679C23.2335 34.6006 22.7754 34.7231 22.3093 34.7231C21.843 34.7231 21.3849 34.6006 20.9809 34.3679L16.1365 31.5265C15.739 31.2891 15.4085 30.9544 15.176 30.5539C14.9436 30.1535 14.8171 29.7004 14.8083 29.2375V23.6336C14.8005 23.1674 14.9201 22.7077 15.1541 22.3045C15.3883 21.9011 15.7279 21.5694 16.1365 21.3447L20.9028 18.5822C21.3068 18.3494 21.7649 18.2269 22.2311 18.2269C22.6974 18.2269 23.1554 18.3494 23.5594 18.5822L28.3256 21.3447C28.7233 21.5821 29.0538 21.9167 29.2861 22.3172C29.5185 22.7176 29.645 23.1707 29.6539 23.6336V27.2642L33.7951 24.8175V21.1867C33.8029 20.7205 33.6833 20.261 33.4493 19.8576C33.2151 19.4544 32.8755 19.1225 32.4669 18.8979L23.6375 13.6886C23.2335 13.4559 22.7755 13.3334 22.3093 13.3334C21.843 13.3334 21.3849 13.4559 20.9809 13.6886L11.9953 18.898C11.5867 19.1225 11.247 19.4544 11.013 19.8577C10.7789 20.261 10.6593 20.7205 10.667 21.1867V31.6842C10.6593 32.1505 10.7789 32.61 11.013 33.0134C11.247 33.4166 11.5867 33.7485 11.9954 33.9731L20.9809 39.1824C21.3849 39.4153 21.843 39.5378 22.3093 39.5378C22.7755 39.5378 23.2335 39.4153 23.6375 39.1824L29.7321 35.6306L33.8733 33.1839L39.9679 29.6321C40.3719 29.3994 40.83 29.2767 41.2963 29.2767C41.7625 29.2767 42.2205 29.3994 42.6245 29.6321L47.3908 32.3946C47.7883 32.632 48.1188 32.9668 48.3511 33.3671C48.5835 33.7676 48.7101 34.2206 48.719 34.6835V40.2874C48.7268 40.7536 48.6071 41.2133 48.3731 41.6165C48.139 42.0199 47.7994 42.3516 47.3908 42.5762L42.6245 45.4178C42.2205 45.6506 41.7625 45.7731 41.2963 45.7731C40.83 45.7731 40.3719 45.6506 39.9679 45.4178L35.2016 42.6553C34.8041 42.4179 34.4735 42.0833 34.2411 41.6828C34.0088 41.2823 33.8821 40.8292 33.8733 40.3662V36.7356L29.7321 39.1824V42.8131C29.7244 43.2794 29.844 43.7389 30.078 44.1423C30.3121 44.5455 30.6518 44.8774 31.0604 45.102L40.046 50.3114C40.4499 50.5441 40.908 50.6666 41.3743 50.6666C41.8405 50.6666 42.2986 50.5441 42.7025 50.3114L51.6881 45.102C52.0856 44.8646 52.4163 44.53 52.6486 44.1295C52.881 43.7291 53.0076 43.276 53.0165 42.8131V32.3156C53.0243 31.8494 52.9046 31.3899 52.6705 30.9865C52.4365 30.5832 52.0969 30.2514 51.6881 30.0267L42.6245 24.7386Z" fill="url(#paint0_linear_2017_2526)"/>
</g>
<defs>
<linearGradient id="paint0_linear_2017_2526" x1="53.0169" y1="13.3319" x2="7.85724" y2="46.798" gradientUnits="userSpaceOnUse">
<stop stop-color="#00A3FF"/>
<stop offset="1" stop-color="#3ADCFF"/>
</linearGradient>
<clipPath id="clip0_2017_2526">
<rect width="64" height="64" fill="white"/>
</clipPath>
</defs>
</svg>
