<svg width="186" height="186" viewBox="0 0 186 186" fill="none" xmlns="http://www.w3.org/2000/svg">
<g clip-path="url(#clip0_2017_2303)">
<path d="M185.6 92.8C185.6 41.5 144 0 92.8 0C41.5 0 0 41.5 0 92.8C0 144 41.5 185.6 92.8 185.6C144 185.6 185.6 144 185.6 92.8Z" fill="url(#paint0_radial_2017_2303)"/>
<path d="M155.9 63.8C155.5 66.1 155.1 67.2 154.5 68.4C153.9 69.8 153.3 71.3 152.7 74.5C152.5 75.7 152.3 76.7 152.2 77.5V77.6C152 78.9 151.9 79.8 151.4 81.3C151 82.6 150.3 84.7 148.6 86.9C147.2 88.7 144.9 91.8 141.8 92.2C141.5 92.2 141 92.2 140.7 92.1C131.9 87.6 124.4 84.3 121.8 83.6C118.8 82.7 119.2 76.1 119.5 70.3C119.7 67.7 119.8 65.2 119.7 63.1C119.3 55.7 118 47.7 111.6 43.8C107.8 41.5 102.8 40.8 98.1 40.8C99 40.4 99.9 39.8 101 39.2C103.8 37.6 107.2 35.6 110.7 35.2C111.8 35.1 112.9 35 114 34.8C120.9 34 126.9 33.3 133.2 35.5C136.1 36.5 141.9 39.7 143.4 42.8C144.5 44.9 146.3 46.6 149.8 49.9C151.7 51.6 152.9 52.6 153.8 53.4C155.1 54.4 155.3 54.7 155.7 55.4C156.9 57.8 156.5 60.3 155.9 63.8Z" fill="white"/>
<path d="M124 94.1C124.4 94.2 124.6 94.7 124.3 95.1C123.4 96.5 122.3 98.5 121 100.8C120.4 101.9 119.8 103 119.3 103.8C117.6 106.7 117.5 109.2 117.4 111.1C117.3 113.2 117.2 114.1 115.9 114.9C114.9 115.6 113.8 115.8 106.6 116.9C105.3 117.1 104.8 117.3 104.3 117.6C104.2 117.7 104 117.7 103.9 117.8C103.5 118 103.1 117.6 103.1 117.2C103.2 116.2 103.2 114.9 103.2 113.2V112.9C103.2 111.5 103.2 110.3 103.1 109.4C103 107.6 103 106.8 103.5 106C104.1 105 104.6 104.7 105.3 104.2C106.4 103.5 107.9 102.6 110 99.6C111.2 98 111.4 97.1 111.6 96.4C111.7 96.1 111.7 96 112.6 95.3C113.5 94.6 116.4 92.4 120.1 93C121.3 93.2 122.6 93.6 124 94.1Z" fill="white"/>
<path d="M95.3 127.3C95.1 127.5 95 127.6 94.7 127.6C93.9 127.6 93.4 127.4 93.1 127C92.4 126.1 92.5 124.3 92.6 123.2L95.7 122.4C95.9 124.1 96 126.4 95.3 127.3Z" fill="white"/>
<path d="M95.5 116.3C95.4 116.7 95.4 117.2 95.4 117.8C95.4 118 95.4 118.2 95.4 118.4C95.4 118.9 95.4 119.7 95.4 120.1C94.4 120.4 93.6 120.4 92.6 120.4C92.6 120.1 92.6 119.6 92.6 119.3C92.6 119.1 92.6 118.8 92.6 118.6C92.6 118.3 92.6 118.1 92.6 117.8C92.6 117.2 92.6 116.3 92.7 116C93 116 93.3 115.9 93.6 115.8C94.2 115.7 95.1 115.5 95.6 115.6C95.6 115.8 95.6 116.1 95.5 116.3Z" fill="white"/>
<path d="M89.9 126.4C89.8 128 89.3 129.9 87.8 130.2C87.1 130.3 86.8 130.1 86.6 129.9C85.6 129 85.5 126.2 85.6 124.2C86.3 124.2 87.1 124.1 88.1 123.9C88.7 123.8 89.3 123.6 89.8 123.5C89.9 124.3 90 125.3 89.9 126.4Z" fill="white"/>
<path d="M89.2 120.8L85.9 122C86.1 120.7 86.3 118.9 86.4 117.7C86.5 116.9 86.7 116.6 86.8 116.5C86.8 116.5 86.9 116.4 87 116.4C87 116.4 87 116.4 87.1 116.4H87.2L89.3 116.3C89.2 117.3 89.2 119.5 89.2 120.8Z" fill="white"/>
<path d="M83.8 119.8C83.6 120.3 83.4 121.7 83.3 122.7L79.2 122.6C79.4 121.3 79.8 120 80.1 119C80.5 118 80.8 117.2 81.2 117C81.6 116.8 82.5 116.7 83.1 117.2C84 117.8 84.2 118.7 83.8 119.8Z" fill="white"/>
<path d="M82.3 132.5C82 132.9 81.6 133.2 81.2 133.2C80.7 133.3 80.4 133.1 80.1 132.9C78.8 131.7 78.9 127.8 79 125.9C80.7 125.5 82.6 125.2 83.5 125.1C83.5 126.6 83.6 130.7 82.3 132.5Z" fill="white"/>
<path d="M76.9 122.4C76.7 122.9 76.5 123.4 76.4 123.9C75.9 124.1 74.4 123.9 72.9 123.6L73.9 117.1C75.6 116.6 77.6 116.5 78 117C78.7 117.7 77.4 121 76.9 122.4Z" fill="white"/>
<path d="M75 133.4C74.2 134.4 73 134.9 71.3 134.8C70.1 134.8 69.7 134.3 69.5 134C68.6 132.5 69.5 129 70.4 126.8L76 127.1C76.1 127.5 76.1 128 76.1 128.5C76.2 130.2 76 132.2 75 133.4Z" fill="white"/>
<path d="M121.4 86.1C116.3 84.7 116.8 77.3 117.2 70.1C117.3 67.6 117.5 65.2 117.4 63.2C117 56.5 115.9 49.2 110.5 45.9C104.7 42.4 95.2 43.2 89.4 43.9C87.3 44.5 85.3 45 83.7 44.9C80.3 44.7 77.6 43.3 75.2 42C73.4 41 71.8 40.1 70.2 40.1C70.1 40.1 70 40.1 70 40.1C65.5 40.4 63.4 41.5 61.5 43.2C61 43.6 60.4 44.8 58.5 50.3C57.5 53.1 57.4 54.6 57.2 56C57 57.3 56.9 58.7 56.2 60.8C55.7 62.2 55.3 63.4 55 64.6C54.1 67.7 53.3 70.2 51.1 73.2C50.8 73.5 50.5 74.1 50.1 74.6C49.6 75.4 49 76.4 48.1 77.5C47.5 78.3 46.2 81.3 46.3 82.2C46.4 83.7 46.9 84.6 47.4 85.6C47.9 86.6 48.6 87.8 48.7 89.5V89.8C48.9 92.4 48.5 93.7 43.6 98.1C40.5 100.9 38.2 103.6 36.7 105.6C36.6 105.8 36.7 106 37 106C37.1 106 37.1 106 37.1 106C37.2 106 37.3 106 37.4 106C37.5 106 37.6 106 37.7 106C37.8 106 37.9 106 38 106C39.2 106.1 40.4 106.6 41.2 107.5C41.3 107.7 41.6 107.7 41.8 107.6C42.6 107.3 43.5 107.3 44.3 107.4C45.3 107.5 46.4 107.8 47.1 108.5C47.3 108.7 47.6 108.8 47.9 108.7C48.7 108.5 49.6 108.5 50.4 108.8C51 109 51.6 109.4 52 109.9C52.3 110.2 52.8 110.3 53.2 110.1C53.4 110 53.7 109.8 54 109.7C55.1 109.3 56.3 109.5 57.3 109.9C57.8 110.1 58.3 110.2 58.8 110.6C59.6 111.2 60.2 112 60.5 112.9C60.7 113.4 61.4 113.6 61.8 113.2C62.6 112.6 63.2 112.5 63.8 112.7C64.1 112.8 64.3 113 64.5 113.3C64.8 113.7 65.3 114.1 65.7 113.9C67.4 113.4 69.4 113.7 70.9 114.5C71.4 114.8 72 115.2 72.3 115.8V115.5C72.3 115.4 72.4 115.3 72.5 115.2L72.8 115.1C73.6 114.8 77.8 113.6 79.4 115.3C79.5 115.4 79.6 115.4 79.7 115.3C79.9 115.1 80.1 114.9 80.2 114.9C81.3 114.3 83.1 114.2 84.3 115.3C84.5 115.5 84.9 115.4 85.1 115.2C85.2 115 85.3 114.9 85.5 114.8C85.9 114.4 86.5 114.3 87.1 114.3L89.4 114.2C90 114.2 91.8 114 92.3 113.9H92.4C92.6 113.9 92.9 113.8 93.2 113.7C94.3 113.5 95.6 113.2 96.6 113.7C97.6 114.2 97.5 115.3 97.4 116.3C97.4 116.7 97.3 117.1 97.3 117.5C97.3 117.7 97.3 117.9 97.3 118.1C97.3 119 97.3 119.8 97.2 120.4L97.3 120.9C97.3 120.9 97.3 120.9 97.3 121C97.4 121.4 97.9 121.7 98.2 121.4C99 120.9 99.8 120.3 100.1 119.9V119.8C100.1 119.7 100.2 119.5 100.3 119.1C100.4 118.2 100.6 116.5 100.6 113C100.6 112.8 100.6 112.7 100.6 112.6C100.6 111.3 100.6 110.2 100.5 109.3C100.4 107.4 100.3 105.9 101.3 104.4C102.2 102.9 103.1 102.4 104 101.8C105 101.2 106.1 100.5 108 97.9C108.9 96.6 109 96.1 109.1 95.7C109.3 94.7 109.6 94.1 111.1 93.1C112.3 92.2 115.8 89.5 120.6 90.3C122.2 90.6 124.7 91.4 127.3 92.4C127.4 92.4 127.5 92.5 127.6 92.5H127.7C130 93.4 132.1 94.4 133.6 95.2C133.9 95.4 134.3 95.3 134.6 95C135.1 94.4 135.6 94.1 136.1 93.7C136.3 93.6 136.5 93.5 136.6 93.4C136.7 93.4 136.7 93.3 136.7 93.3C137.1 93 137.1 92.2 136.6 92C129.9 88.7 123.5 86.7 121.4 86.1ZM73.2 87.6C71.6 94.4 61 102 56.2 102H56.1C56 102 55.9 102 55.9 102C55.8 102 55.7 102 55.6 101.9C55.5 101.9 55.5 101.9 55.4 101.9C54.5 101.6 53.3 101 52.4 100.1C51.8 99.5 51.3 98.7 51.1 98C51.1 97.9 51 97.7 51 97.6C50.7 96.4 50.4 95 51.4 92.6C51.5 92.3 51.7 92 51.8 91.7C51.8 91.6 51.9 91.5 51.9 91.4C52 91.1 52.1 90.9 52.2 90.7C52.3 90.3 52.5 90 52.6 89.8C52.6 89.7 52.7 89.6 52.7 89.5C53 88.7 53 88.4 53.1 88.1C53.1 87.9 53.2 87.5 53.3 87.1C53.6 85.8 53.8 84.7 53.9 83.8C54.1 82.1 54.4 80.6 55.3 79.2C55.5 79 55.6 78.8 55.8 78.6C55.9 78.5 55.9 78.5 56 78.4C56.1 78.3 56.1 78.3 56.2 78.2C56.4 78 56.7 77.9 56.9 77.8C57 77.8 57.1 77.7 57.2 77.7C57.4 77.6 57.6 77.6 57.8 77.5C58.7 77.3 59.7 77.3 60.9 77.4C62.2 77.5 63.4 77.7 64.4 78C65.3 78.2 66.1 78.5 66.7 78.8C66.8 78.8 66.8 78.9 66.9 78.9C67 79 67.1 79 67.3 79.1C67.5 79.2 67.6 79.2 67.8 79.3C68 79.4 68.2 79.5 68.4 79.6L68.6 79.7C69.3 80 70 80.4 70.5 80.8C70.8 81 71 81.2 71.2 81.4C71.3 81.5 71.4 81.5 71.4 81.6C71.5 81.7 71.5 81.7 71.6 81.8C73.7 83.6 73.6 86.1 73.2 87.6ZM78.2 61.7L78 62.9C77.5 65.7 76.4 69.5 72.4 70.5C68.5 71.4 67.6 71.6 64.9 71.8C64.8 71.8 64.8 71.8 64.7 71.8C62.7 71.8 58.8 70.5 58.1 67.4C57.7 65.4 58.6 63.9 60 61.5C60.2 61.1 60.5 60.7 60.8 60.2C62.8 56.9 63.5 54.5 64.1 52.6C64.7 50.7 65.2 49.2 66.5 47.9C66.8 47.6 67.1 47.3 67.5 47.1C67.7 46.9 68 46.8 68.3 46.6C68.7 46.4 69.1 46.3 69.5 46.1C70.4 45.8 71.4 45.7 72.3 45.7C74.2 45.7 76.1 46.2 77.4 47.3C78 47.8 78.9 48.7 79.4 51.6C79.6 53.1 79.2 55.8 78.2 61.7ZM106.9 69.7C105.5 72.1 104.8 73.4 103.6 74.4C101.2 76.4 98.5 76.8 96.2 76.8C94.6 76.8 93.2 76.5 92.3 76.4C89.9 76 85.6 75.2 84.1 71.7C83.8 71 83.8 70.6 83.8 70C83.8 69.5 83.8 68.5 83.5 66.4V66.3C83.4 65.3 83.3 64.2 83.5 62.8V62.6C84.3 58.4 84.6 57.8 84.7 57.4C85.1 56.6 86.1 56.2 87 56.7C87.8 57.1 88.1 58.1 87.8 58.9C87.7 59.1 87.5 60 86.8 63.3V63.5C86.6 64.4 86.7 65.1 86.8 66V66.1C87.1 68.5 87.1 69.5 87.1 70.1C87.1 70.2 87.1 70.3 87.1 70.4V70.5C87.4 71.2 88 71.6 88.7 72C89.2 72.2 89.7 71.8 89.6 71.3C88.9 67.6 88.9 63.3 90.3 60.6C90.8 59.7 91.6 58.3 92.4 56.9C92.5 56.8 92.6 56.6 92.6 56.5C92.7 56.4 92.7 56.3 92.8 56.2C93.2 55.6 93.5 55.1 93.8 54.6C93.8 54.5 93.9 54.5 93.9 54.4L94 54.3C94.1 54.2 94.1 54.1 94.2 54C94.2 54 94.2 53.9 94.3 53.9L94.4 53.8C94.4 53.7 94.5 53.7 94.5 53.6C94.8 53.2 95.1 52.8 95.3 52.4C95.7 51.9 95.2 51.3 94.7 51.5C93.3 52.1 92.4 52.8 92.2 52.9C91.5 53.5 90.4 53.4 89.8 52.6C89.2 51.9 89.3 50.8 90.1 50.2C91 49.5 95.6 46.2 101.1 47.7C105.1 48.8 107.1 51.9 107.9 53C108.5 53.9 110.5 56.7 110.4 60.7C110.4 63.6 109.2 65.8 106.9 69.7Z" fill="white"/>
<path d="M71.1 49.2C70.8 49.9 70.5 50.7 70.1 51.6C69.3 53.7 68.3 56.1 67.8 57C67 58.5 66.4 59.5 65.9 60.2C65.3 61.1 64.9 61.8 64.5 62.8C63.9 64.5 63.8 66.4 64.2 68.5C63.1 68.4 61.4 67.7 61.2 66.7C61.1 66 61.5 65.3 62.7 63.2C62.9 62.8 63.2 62.3 63.5 61.9C65.6 58.3 66.5 55.6 67.1 53.6C67.8 51.5 68.1 50.6 69.2 49.8C69.9 49.5 70.5 49.3 71.1 49.2Z" fill="white"/>
<path d="M69 124.8C67.8 127.2 66.4 129.4 65.5 130.5C64.7 128.5 63.4 123.8 63.8 120.1C63.8 120 63.8 119.9 63.8 119.8C63.9 118.6 64.2 117.6 64.8 116.7C65.2 116.1 66.2 115.8 67.3 115.8C68.1 115.8 69 116 69.8 116.4C70.2 116.6 70.8 117.1 70.8 118.4C71 120.2 70.1 122.6 69 124.8Z" fill="white"/>
<path d="M133 98.1C133.1 98.2 133.1 98.3 133.1 98.4C132.8 99.1 132.3 99.6 131.8 100.2C131.2 100.9 130.5 101.7 129.9 103C129 104.8 128.7 106.4 128.6 110.6C128.4 115.5 128.6 118.2 128.8 120.2C128.9 122.1 129 123.3 128.7 125.2C128 129 126.4 131.5 124.3 134.7C121.7 138.7 119.1 142.8 114.7 144.1C114.3 144.2 114.3 144.2 113.1 144.2C112.1 144.2 110.4 144.2 107.3 144.3C101.5 144.5 98.6 144.6 96.2 145.1C93.6 145.6 92.3 146.2 90.9 146.7C89.7 147.2 88.6 147.6 86.5 148.1C85.2 148.4 83.3 148.6 76.8 148.7C70 148.7 65.9 148.7 60.6 148.1C53.2 147.3 49.5 146.8 47 145.5C41.2 142.4 38.7 136.8 34.7 127.6C34.7 127.5 34.8 127.4 34.9 127.4C35.1 127.5 35.3 127.6 35.5 127.7C35.7 127.8 35.9 127.8 36 127.8C36.4 127.9 36.8 127.9 37.2 127.8C37.3 127.8 37.3 127.8 37.4 127.7C37.5 127.7 37.6 127.7 37.6 127.8C37.9 128.5 38.3 129.1 39 129.5C39.7 129.9 40.5 129.9 41.2 129.9C42 129.9 42.8 129.8 43.6 129.7C44 129.7 44.4 129.9 44.6 130.2C45.3 132 46.2 133.2 47.6 133.4C47.7 133.4 47.8 133.4 47.9 133.4C48.2 133.4 48.7 133.3 49.3 132.9C49.8 132.5 50.6 132.8 51 133.3C51.3 133.8 51.7 134.1 52.1 134.4C53.5 135.8 56.9 136.5 59.7 136.5C61.2 136.5 62.6 136.3 63.4 135.9C64.6 135.3 64.6 134.5 64.5 134.1C64.4 133.5 64.3 132.8 64.2 132.2C64.2 132.1 64.3 132.1 64.3 132.2C64.5 132.6 64.7 133 65.2 133.1C65.3 133.1 65.3 133.1 65.4 133.1C66.2 133.1 67.4 133.4 67.6 134.1C67.7 134.5 67.9 134.8 68.1 135.2C68.6 135.9 69.5 136.8 71.4 136.9H71.5C73.7 136.9 75.4 136.2 76.5 134.8C76.6 134.7 76.6 134.6 76.7 134.5C77.1 133.9 78.3 133.9 78.8 134.4C79.4 134.9 80.1 135.2 80.9 135.2C81 135.2 81.2 135.2 81.3 135.2C82.3 135.1 83.1 134.6 83.8 133.7C84.2 133.1 84.5 132.4 84.7 131.6C84.8 131.4 85.1 131.3 85.3 131.5C85.7 131.9 86.4 132.3 87.4 132.3C87.6 132.3 87.9 132.3 88.2 132.2C90.1 131.8 91.1 130.2 91.5 128.5C91.5 128.4 91.6 128.4 91.6 128.5C92.1 129.1 93 129.8 94.5 129.8C94.6 129.8 94.7 129.8 94.7 129.8C95.5 129.8 96.2 129.4 96.7 128.8C97.3 128 97.5 126.8 97.6 125.7C97.6 125.4 97.8 125.1 98.2 124.9C99.8 124.2 101.8 122.7 102.4 121.7C102.4 121.7 102.4 121.6 102.5 121.6C102.6 121.3 102.9 121.1 103.1 121.1C104.4 120.9 104.9 120.6 105.4 120.4C105.8 120.2 106.1 120.1 107.1 119.9C114.4 118.8 115.8 118.5 117.4 117.5C119.8 115.9 119.9 113.7 120 111.6C120.1 109.8 120.2 107.8 121.6 105.4C122.1 104.5 122.7 103.5 123.3 102.3C124.4 100.3 125.9 97.5 127 96C127.2 95.7 127.6 95.6 127.9 95.8C130.4 96.7 132.6 97.7 133 98.1Z" fill="white"/>
<path d="M62 119.9C61.7 122.4 61.5 125.8 61.9 130.2C62 131.4 62.2 132.7 62.4 134C62.1 134.2 61 134.5 59.2 134.4C56.6 134.3 54 133.7 53.2 132.8L53.1 132.7C52.5 132.2 52 131.8 52 130.9C52 130.6 52.1 130.3 52.4 129.8C52.6 129.6 52.8 129.3 53 128.9C53.4 128.3 54 127.6 54.6 126.6C56.3 123.8 56.9 122.9 57.7 121.8C57.8 121.7 57.8 121.6 57.9 121.5C58.4 120.9 58.9 120.1 59.8 118.8C60.4 117.9 60.9 117.1 61.4 116.5C62.1 115.5 62.6 115 62.9 114.7C62.9 115.1 62.8 115.7 62.7 116.3C62.3 117.5 62.1 118.6 62 119.9Z" fill="white"/>
<path d="M60.7 80.5C60.7 80.6 60.7 80.6 60.7 80.5C60.3 81 59.9 81.6 59.4 82.6C58.1 85.4 58.1 87 58.1 88.3C58.1 89 58.1 89.5 57.9 90.1C57.8 90.5 57.6 91 57.3 91.5C56.6 93.2 55.6 95.4 56 98.4C55.4 98.1 54.5 97.4 54.3 97.1C54.3 96.9 54.2 96.8 54.2 96.6C54 95.7 53.9 95.1 54.4 93.7C56 90.1 56.2 89.2 56.3 88.2C56.3 88 56.4 87.8 56.4 87.5C56.7 86.1 56.9 84.9 57 83.9C57.2 82.4 57.4 81.4 57.9 80.7C58.1 80.4 58.6 80.3 59.3 80.3C59.6 80.3 59.9 80.3 60.3 80.4H60.4C60.7 80.5 60.7 80.5 60.7 80.5Z" fill="white"/>
<path d="M58.7 116.2C58.6 115.3 58.5 114.5 58.1 113.6C58.1 113.6 58 113.4 58 113.3C57.9 113.2 57.9 113.1 57.8 113L57.7 112.9C57.6 112.8 57.6 112.8 57.5 112.8L57.4 112.7C57.3 112.7 57.3 112.6 57.2 112.6H57.1C56.6 112.4 56.1 112.2 55.5 112.1C55.4 112.1 55.3 112.1 55.3 112.1C55.2 112.1 55.2 112.1 55.1 112.1H55C54.9 112.1 54.8 112.2 54.6 112.2C54.5 112.2 54.5 112.3 54.4 112.3L54.3 112.4C54.2 112.5 54.2 112.5 54.1 112.6L54 112.7V112.8C53.8 113.1 53.6 113.4 53.4 113.7C52.9 114.4 52.4 115.2 51.9 115.9C51.4 116.6 51 117.2 50.5 117.9C50.2 118.3 50 118.6 49.7 119C49.7 119.1 49.6 119.1 49.6 119.2C49.9 119.3 50.2 119.3 50.5 119.4C51.2 119.5 51.9 119.6 52.5 119.7C53.9 119.9 55.4 120 56.8 119.9C56.9 119.9 56.9 119.9 57 119.9C57.3 119.4 57.8 118.8 58.3 118C58.6 117.6 58.9 117.2 59.1 116.8C58.8 116.7 58.7 116.4 58.7 116.2Z" fill="white"/>
<path d="M53.6 122.1C53.5 123.2 52.3 126 50.4 128.7C48.8 130.9 47.8 131.5 47.6 131.5C46.8 131.4 46.1 129.5 45.5 127.6C45.3 126.8 45 126.1 44.9 125.4C44.5 124 44.4 122 44.5 120.8C46.1 121.7 48.9 121.9 52.9 121.9C53.1 122 53.4 122 53.6 122.1Z" fill="white"/>
<path d="M50.8 113.1C50.1 114.2 49.4 115.2 48.7 116.2C48.3 116.7 48 117.2 47.6 117.7C47.4 118 47.1 118.3 46.9 118.6C46.3 118.5 45.8 118.3 45.2 118.2C44.7 118.1 44.3 117.9 43.8 117.7C43.7 117.7 43.6 117.6 43.5 117.6C43.4 117.5 43.3 117.3 43.2 117.2C43.4 116.9 43.5 116.5 43.7 116.2C44 115.6 44.3 115 44.7 114.4C45.3 113.4 46 112.3 47.1 111.6C47.2 111.6 47.2 111.5 47.3 111.5C47.7 111.3 48.1 111.1 48.6 111C48.7 111 49 111 49.2 111H49.3C49.3 111 49.3 111 49.4 111C49.5 111 49.6 111.1 49.8 111.1C49.8 111.1 49.9 111.1 49.9 111.2C50 111.3 50.1 111.3 50.2 111.4C50 111.3 50.4 111.7 50.4 111.6C50.6 112.2 50.7 112.5 50.8 113.1Z" fill="white"/>
<path d="M45.4 110.2C44.1 111.2 43.2 112.6 42.5 114.1C42.1 114.9 41.7 115.7 41.3 116.5C41.3 116.6 41.2 116.7 41.2 116.7C40.8 116.6 40.4 116.5 40.1 116.4C39.7 116.3 39.3 116.1 38.9 116C38.7 115.9 38.6 115.8 38.4 115.7C38.8 115 39.2 114.3 39.7 113.6C40.3 112.7 41 111.7 41.7 110.9C42 110.6 42.3 110.2 42.6 110C43 109.8 43.4 109.8 43.9 109.9C44.4 109.9 44.9 109.9 45.3 110.1C45.2 110.1 45.3 110.2 45.4 110.2Z" fill="white"/>
<path d="M43.4 127.2C43.3 127.3 43.3 127.3 43.2 127.4H43.1C42.8 127.4 42.5 127.5 42.2 127.5C41.6 127.5 41 127.6 40.4 127.5C40.1 127.5 39.8 127.4 39.6 127.2C39.4 126.9 39.3 126.3 39.2 125.9C38.8 123.7 38.8 121.5 39 119.3C40.1 119.7 41.3 120 42.5 120.2C42.2 122.2 42.7 125.1 42.9 125.9C43.2 126.3 43.3 126.8 43.4 127.2Z" fill="white"/>
<path d="M39.8 109.5C38.8 110.7 37.9 112 37.1 113.4C36.8 113.9 36.4 114.5 36.1 115.1C35.7 115 35.3 114.8 35 114.6C34.7 114.4 34.4 114.2 34.2 114C34.1 113.9 33.9 113.8 33.8 113.7C33.8 113.7 33.7 113.7 33.7 113.6C33.8 113.3 34 113.1 34 112.9C34.2 112.4 34.4 112 34.7 111.6C35.2 110.8 35.7 110 36.3 109.2C36.5 108.9 36.7 108.6 37.1 108.5C37.4 108.4 37.8 108.5 38.1 108.5C38.7 108.6 39.3 109 39.8 109.5Z" fill="white"/>
<path d="M32.1 114.8C32.2 114.7 32.1 114.7 32.1 114.8C32.5 115.2 32.8 115.5 33.2 115.8C33.4 115.9 33.5 116.1 33.7 116.2C33.7 116.2 33.7 116.2 33.7 116.3C33.3 118 33 119.8 33 121.6C33 121.7 32.9 121.7 32.9 121.6C32.4 119.5 31.8 116.1 32.1 114.8Z" fill="white"/>
<path d="M37 118.5C36.8 120 36.7 121.5 36.8 123C36.8 123.8 36.9 124.6 37 125.5C36.8 125.5 36.6 125.5 36.4 125.5H36.3H36.2C36 125.4 36 125.4 35.8 125.3C35.6 125.2 35.4 124.9 35.2 124.6C34.8 123.9 34.7 123.1 34.7 122.3C34.6 120.8 34.8 119.2 35.1 117.7C35.3 117.8 35.6 117.9 35.9 118C36.3 118.2 36.6 118.4 37 118.5Z" fill="white"/>
<mask id="mask0_2017_2303" style="mask-type:luminance" maskUnits="userSpaceOnUse" x="0" y="0" width="186" height="186">
<path d="M185.6 92.8C185.6 41.5 144 0 92.8 0C41.5 0 0 41.5 0 92.8C0 144 41.5 185.6 92.8 185.6C144 185.6 185.6 144 185.6 92.8Z" fill="white"/>
</mask>
<g mask="url(#mask0_2017_2303)">
<g opacity="0.8">
<path opacity="0.8" d="M76.4 196.5C69.6 196.5 63.2 196.1 57.8 195.7L56.3 195.6L54.8 195.4C54.1 195.3 53.3 195.2 52.4 195.1C47.2 194.5 37.5 193.5 26.8 188.5L25.1 187.7L23.6 186.8C3 175.2 -4.6 157.9 -8.8 148.6C-9.1 148 -9.4 147.3 -9.7 146.6C-11.8 142.3 -13.1 138.5 -14.2 134.9L-14.4 134.1L-14.6 133.3C-17.6 122.7 -18.3 113.6 -17 104.5C-15.6 95.4 -12.3 87.2 -6.4 78.5L-3.4 73.6C-2.8 72.6 -2.4 71.5 -2.1 70.4C0.200001 59 5.4 50.9 8 47C8.7 42.3 9.9 37.7 11.5 33.2L11.7 32.5L12 31.8C12 31.7 12.1 31.5 12.2 31.2C13.4 27.7 16.1 19.6 23 11L25.6 8L28.3 5.6C35.1 -0.599999 43.3 -5.2 52.1 -7.8C57 -9.3 62.1 -10.2 67.3 -10.5H67.8H68.5C69.4 -10.5 70.3 -10.6 71.1 -10.6C74.3 -10.6 77.5 -10.3 80.7 -9.8C82.7 -9.5 84.7 -9.7 86.6 -10.5C92.1 -12.8 97.8 -14.3 103.7 -15.1C104.2 -15.2 104.6 -15.2 105 -15.3C105.9 -15.4 107.4 -15.6 109.2 -15.8C112.3 -16.1 117.1 -16.5 122.2 -16.5C132.3 -16.5 141 -15.2 148.8 -12.5L149.5 -12.3L150.1 -12.1C167.3 -5.6 176 3.5 182.3 11.4L182.6 11.8L183.5 12.6C189.2 17 194 22.5 197.8 28.6L199 30.5L200 32.5C208.4 49.6 205.7 65.5 204.7 71.4L204.6 71.7C203.9 76.1 202.7 80.4 201.2 84.6C200.6 88.6 199.7 92.6 198.4 96.4C196.2 103.2 192.9 109.7 188.7 115.5C186.3 118.9 183.5 122.2 180.5 125.1C179.4 126.1 178.7 127.5 178.5 129C178.4 129.9 178.2 130.8 178.1 131.7C175.6 144.9 169.9 154.1 167.5 157.8L160.4 168C151.8 178.7 141.6 185.7 129.3 189.5L126.3 190.4L123.1 191C119.4 191.7 115.7 192 111.9 192C111.4 192 110.9 192 110.3 192H110.1H109.5H108.8C107.4 192 106 192.3 104.6 192.7C96.4 195.3 87.4 196.5 76.4 196.5Z" stroke="url(#paint1_linear_2017_2303)" stroke-width="1.0554" stroke-miterlimit="10"/>
<path opacity="0.8" d="M76.4 189.4C69.9 189.4 63.6 189 58.4 188.6L57.2 188.5L56 188.3C55.2 188.2 54.3 188.1 53.4 188C48.3 187.5 39.9 186.5 30.5 182.1L29.1 181.4L27.8 180.7C9.50001 170.6 2.80001 155.5 -1.19999 146.5C-1.49999 145.9 -1.79999 145.1 -2.19999 144.4C-4.09999 140.6 -5.29999 137 -6.29999 133.8L-6.49999 133.1L-6.69999 132.5C-9.29999 123 -9.99999 115 -8.79999 107.1C-7.59999 99.3 -4.59999 92 0.600013 84.4L4.50001 78.1C5.20001 77 5.70001 75.7 5.90001 74.4C7.80001 63.6 12.9 56 15.2 52.5L15.5 52.1L15.6 51.9C15.6 51.8 15.7 51.7 15.7 51.6C15.8 51.1 16 50.7 16.1 50.3C16.7 45.9 17.8 41.5 19.3 37.3L19.5 36.7L19.7 36.1C19.8 35.9 19.8 35.7 20 35.1C21.1 31.8 23.4 24.9 29.4 17.5L31.6 14.9L33.8 12.9C39.7 7.49997 46.8 3.49998 54.4 1.29998C58.8 -2.45571e-05 63.2 -0.800024 67.8 -1.00002H68.2H68.8C69.6 -1.00002 70.3 -1.10002 71 -1.10002C74.3 -1.10002 77.5 -2.00002 80.7 -1.40002C83.2 -0.900024 85.7 -1.20002 88 -2.20002C92.3 -4.10002 98.1 -4.80002 104.7 -5.70002C105.2 -5.80002 105.6 -5.80002 105.9 -5.90002C106.8 -6.00002 108.2 -6.20002 109.8 -6.30002C112.7 -6.60002 117.2 -6.90002 122.1 -6.90002C131.3 -6.90002 139.1 -5.70002 146 -3.40002L146.6 -3.20002L147.1 -3.00002C162.3 2.79998 169.8 10.4 175.7 17.9C176 18.3 176.4 18.7 176.5 18.9L176.6 19L177.7 20L177.8 20.2C182.9 24.1 187.2 28.9 190.5 34.3L191.5 35.9L192.3 37.6C199.5 52.3 197.3 65.8 196.3 71.5L196.2 71.8C195.5 76 194.4 80 192.9 84C192.4 87.8 191.5 91.6 190.3 95.2C188.3 101.2 185.4 106.9 181.7 112.1C179.2 115.7 176.2 119 173 121.9C171.5 123.3 170.5 125.1 170.3 127.2C170.1 128.7 169.9 130.1 169.7 131.6C167.5 143.3 162.5 151.3 160.1 154.9L154.3 163.3C146.6 173.2 137.5 179.6 126.5 183L124 183.8L121.3 184.3C118.1 184.9 114.8 185.2 111.6 185.1C111.1 185.1 110.6 185.1 110.1 185.1H110H109.7C109.7 185.1 109.6 185.1 109.4 185.1H108.8H108.2H107.1C105.6 185.2 104.1 185.4 102.6 185.9C95.3 188.3 86.8 189.4 76.4 189.4Z" stroke="url(#paint2_linear_2017_2303)" stroke-width="1.0554" stroke-miterlimit="10"/>
<path opacity="0.8" d="M76.4 181.1C70.2 181.1 64.1 180.7 59 180.3L58 180.2L57 180.1C56.1 180 55.1 179.9 54.1 179.8C49.3 179.3 42 178.5 33.8 174.6L32.7 174.1L31.7 173.5C16 164.7 10.2 151.7 6.40001 143.1C6.10001 142.4 5.70001 141.5 5.40001 140.8C3.70001 137.4 2.60001 134.2 1.70001 131.2L1.50001 130.7L1.40001 130.2C-0.899987 122 -1.49999 115 -0.499987 108.4C0.500013 101.7 3.20001 95.4 7.80001 88.7L8.40001 87.9L9.00001 87.1C9.40001 86.6 9.70001 86.1 10.1 85.7L12.4 81.4C13.2 80 13.7 78.5 13.9 76.9C15.4 67.3 20 60.4 22.1 57.2C22.2 57 22.4 56.8 22.5 56.7L23 56C23.2 55.6 23.4 55.1 23.6 54.5C23.8 53.9 24.1 53 24.3 52.2C24.8 48.1 25.8 44.1 27.2 40.2L27.4 39.7L27.6 39.2C27.7 38.8 27.9 38.5 28.1 37.8C29.1 34.7 31 29 36.1 22.8L37.8 20.7L39.6 19.1C44.6 14.5 50.6 11.2 57.1 9.20002C60.9 8.10002 64.7 7.40002 68.7 7.20002H69H69.5C70.1 7.20002 70.7 7.20002 71.4 7.20002C74.8 7.20002 78.1 7.60002 81.4 8.50002C84.2 9.20002 87.2 8.90002 89.8 7.60002C94 5.60002 99.6 3.40002 106.1 2.60002C106.5 2.50002 106.9 2.50002 107.2 2.40002C108 2.30002 109.3 2.10002 110.9 2.00002C113.6 1.70002 117.9 1.40002 122.4 1.40002C130.6 1.40002 137.5 2.40002 143.6 4.50002L144 4.70002L144.4 4.90002C158.4 10.2 164.6 17.1 169.4 23.2C170.5 24.5 170.6 24.7 171.3 25.4L172.2 26.2L172.5 26.6C174.8 28.4 179.5 32.1 183.6 38.8L184.4 40.1L185.1 41.4C191.2 53.7 189.3 64.9 188.4 70.3L188.3 70.6C187.7 74.5 186.6 78.4 185 82.1V82.4C184.6 85.9 183.8 89.4 182.7 92.7C181 98 178.5 102.9 175.2 107.4C172.5 111.3 169.2 114.8 165.5 117.8C164.6 118.5 163.9 119.4 163.4 120.4C162.9 121.4 162.6 122.5 162.5 123.6C162.4 125.8 162.1 128 161.7 130.2C159.8 140.3 155.4 147.3 153.2 150.8L148.7 157.4C142 166.4 134 172.2 124.3 175.2L122.3 175.8L120.1 176.2C117.4 176.7 114.6 176.9 111.8 176.9C111.4 176.9 110.9 176.9 110.4 176.9H110.3H109.8C109.7 176.9 109.5 176.9 109 176.9H108.5H108.1L105.8 177C104.2 177.1 102.6 177.3 101.1 177.9C94.2 180.1 86.3 181.1 76.4 181.1Z" stroke="url(#paint3_linear_2017_2303)" stroke-width="0.9894" stroke-miterlimit="10"/>
<path opacity="0.8" d="M76.4 172.8C70.5 172.8 64.6 172.4 59.7 172L59 171.9L58.3 171.8C57.3 171.7 56.2 171.5 55.2 171.4C50.7 170.9 44.5 170.2 37.5 167L36.7 166.6L35.9 166.2C22.6 158.7 17.7 147.7 14.1 139.7C13.7 138.9 13.3 138 13 137.2C11.5 134.1 10.5 131.2 9.7 128.7L9.6 128.3L9.3 128C5.4 114.2 6.9 104.5 14.5 93.4L14.9 92.8L15.3 92.2C15.8 91.6 16.3 90.9 16.8 90.3C17.5 89.4 18.2 88.4 19 87.5C19.5 86.9 19.9 86.2 20.2 85.5L21.1 83.3C21.5 82.3 21.7 81.3 21.8 80.3C22.6 71.4 26.9 65 29 61.8C29.2 61.6 29.4 61.2 29.5 61.1L30 60.3L30.2 60.1C30.5 59.6 31 58.4 31.4 57.2C31.6 56.4 32 55.1 32.4 54V53.9C32.8 50.2 33.7 46.5 35 43L35.1 42.7L35.2 42.4C35.4 41.8 35.6 41.3 35.8 40.6C36.7 37.9 38.2 33.3 42.3 28.2L43.6 26.6L44.9 25.4C54.6 16.6 65.4 15.9 69 15.6H69.2H69.6C70.1 15.6 70.6 15.6 71.1 15.6C75.4 15.6 79.6 16.5 83.6 18.2C84.3 18.5 85.1 18.6 85.8 18.6C86.6 18.6 87.3 18.4 88 18C91.7 15.9 98.4 12 107 11C107.4 10.9 107.8 10.9 108.1 10.9C108.9 10.8 110.1 10.7 111.5 10.5C114.1 10.3 118 10 122.2 10C129.5 10 135.5 10.9 140.6 12.6L140.9 12.7L141.2 12.8C153.2 17.3 158.3 23 162.6 28.4C163.7 29.9 164.3 30.5 165.5 31.7L166.2 32.3L166.7 32.9L167.1 33.2C169.1 34.8 172.9 37.7 176.3 43.2L176.9 44.2L177.4 45.2C182.3 55.2 180.7 64.2 179.9 69V69.3C179.3 72.8 178.3 76.3 176.9 79.6L176.8 79.9C176.8 80 176.8 80 176.7 80.2C176.6 80.5 176.6 80.8 176.6 81.1L176.5 81.5C176.2 84.5 175.5 87.4 174.5 90.2C173 94.7 170.9 98.9 168.1 102.7C165.4 106.6 162.3 109.8 158.9 112.3C157.4 113.4 156.2 114.8 155.3 116.5C154.4 118.2 154 120 154 121.9C154 124.2 153.7 126.6 153.3 128.9C151.7 137.5 148.1 143.3 145.8 146.8L142.5 151.7C136.7 159.8 129.8 165 121.5 167.6L121.1 167.7C120.4 167.9 119.7 168.1 119 168.2L118.5 168.3C116.2 168.7 113.9 168.9 111.6 168.9C111.2 168.9 110.8 168.9 110.4 168.9H110.3C110.1 168.9 109.9 168.9 109.7 168.9C109.5 168.9 109.1 168.9 108.3 168.9H108H107.7C106.6 168.9 105.2 169 104 169C102.3 169.1 100.7 169.4 99.1 170C93.1 171.8 85.8 172.8 76.4 172.8Z" stroke="url(#paint4_linear_2017_2303)" stroke-width="0.9235" stroke-miterlimit="10"/>
<path opacity="0.8" d="M76.4 164.5C70.7 164.5 65.1 164.1 60.3 163.7H59.8L59.3 163.6C58.2 163.4 57 163.3 55.9 163.2C51.7 162.7 46.5 162.2 40.9 159.5L40.3 159.2L39.8 158.9C28.9 152.8 24.8 143.6 21.6 136.2C21.2 135.3 20.8 134.4 20.4 133.4C19.1 130.8 18.2 128.2 17.5 126L17.4 125.7L17.3 125.4C14.1 114 15.2 106.8 21.4 97.8L21.7 97.4L22 97C22.5 96.3 23 95.7 23.5 95C25.1 92.9 26.7 90.8 29 88.3C29.5 87.8 29.8 87 29.9 86.3L30 84L29.9 83.1V82.2C30.1 74.8 33.8 69.3 35.8 66.3C36 66 36.3 65.6 36.4 65.4L36.7 64.9L37 64.5C37.4 63.9 38.3 61.8 39.1 59.9C39.4 59.1 39.8 57.5 40.3 56.2C40.4 55.8 40.4 55.7 40.5 54.8C40.8 51.7 41.6 48.6 42.6 45.7L42.7 45.5L42.8 45.3C43.1 44.5 43.3 43.9 43.6 43.1C44.4 40.7 45.6 37.2 48.7 33.3L49.6 32.2L50.5 31.4C57.3 25.3 64.6 24.1 69.6 23.8H69.8H70C70.4 23.8 70.7 23.8 71.1 23.8C75.3 23.8 80.4 25.8 83.1 27.1C83.7 27.4 84.4 27.6 85.1 27.6C85.8 27.6 86.5 27.5 87.2 27.3C88.9 26.7 90.5 26 92 25.2C95.4 23.2 101 20 108 19.2C108.4 19.1 108.7 19.1 109 19.1C109.7 19 110.8 18.9 112.2 18.7C114.6 18.5 118.2 18.2 122.1 18.2C128.4 18.2 133.6 18.9 137.8 20.4L138 20.5L138.2 20.6C148.2 24.4 152.2 28.7 156 33.6C157.2 35.2 158.1 36.3 159.9 37.9L160.3 38.3L160.7 38.7C161.1 39.1 161.5 39.4 161.9 39.7C163.6 41 166.5 43.3 169 47.5L169.4 48.1L169.7 48.8C173.4 56.3 172.2 63.4 171.5 67.6V67.9C171 70.8 170.2 73.6 169 76.3C168.7 77 168.5 77.7 168.3 78.5C168.2 79 168.1 79.5 168.1 79.9L168 80.3C167.7 82.7 167.2 85.1 166.4 87.4C165.2 91.1 163.4 94.6 161.2 97.7C157.8 102.5 153.9 105.9 149.2 108.1C148.1 108.6 147.1 109.4 146.4 110.5C145.7 111.5 145.3 112.8 145.2 114C145.2 114.5 145.2 114.9 145.2 115.2C145.4 118.8 145.7 122.9 144.9 127.2C143.6 134.2 140.6 138.9 138.4 142.4C138.4 142.4 128.2 156.6 118.9 159.5L117.9 159.8L116.8 160C115 160.3 113.2 160.5 111.3 160.5C111 160.5 110.6 160.5 110.2 160.5C110 160.5 109.7 160.5 109.4 160.5C109 160.5 108.4 160.5 107.5 160.6H107.3H107.1C103.5 160.7 100.2 160.8 99.2 161C98.7 161.1 98.2 161.2 97.7 161.4C92.8 163.5 85.9 164.5 76.4 164.5Z" stroke="url(#paint5_linear_2017_2303)" stroke-width="0.8575" stroke-miterlimit="10"/>
<path opacity="0.8" d="M76.4 156.3C71 156.3 65.6 155.9 61 155.6H60.8H60.6C59.3 155.4 58.1 155.3 57 155.2C53.1 154.8 49 154.3 44.6 152.3L44.3 152.2L44 152.1C35.5 147.3 32.3 140.2 29.3 133.3C28.9 132.3 28.4 131.3 27.9 130.3C26.9 128.3 26.1 126.1 25.5 124V123.9V123.8C22.9 114.7 23.6 110.1 28.4 103.1L28.5 102.9L28.6 102.7C29.2 102 29.7 101.3 30.2 100.7C32.5 97.7 34.5 95.1 39 90.9C39.3 90.6 39.6 90.2 39.7 89.7C39.8 89.3 39.8 88.8 39.6 88.4L38.8 86.1C38.6 85.4 38.5 84.6 38.5 83.9V83.3V82.8C38.7 77.8 41.3 73.9 43 71.3C43.3 70.9 43.5 70.5 43.7 70.2L43.9 69.9L44.1 69.6C45 68.4 46.5 64.9 47.3 62.8C47.5 62.1 48 60.4 48.5 59.1C48.8 58.1 49 57.1 49.1 56.1C49.4 53.6 49.9 51.1 50.8 48.8V48.7V48.6C51.2 47.6 51.5 46.8 51.7 46C52.4 43.9 53.2 41.5 55.4 38.8L55.8 38.3L56.2 37.9C61 33.5 66.3 32.7 70.3 32.4H70.4H70.5C70.7 32.4 71 32.4 71.2 32.4C75.2 32.4 78.2 34 80.2 35.1L80.7 35.3H80.8C81.4 35.6 81.8 35.9 82.3 36.1C83.5 36.7 85 36.9 86.3 36.5C89.1 35.8 93.4 34.1 96.2 32.5H96.3C99.3 30.7 103.9 28.1 109.3 27.5C109.6 27.4 110 27.4 110.3 27.4C110.9 27.3 112 27.2 113.2 27.1C115.4 26.9 118.8 26.6 122.3 26.6C127.7 26.6 132 27.2 135.3 28.3H135.4H135.5C143.5 31.3 146.5 34.5 149.7 38.7C151 40.4 152.3 42 154.7 44.1L154.9 44.3L155.1 44.5C155.7 45.1 156.4 45.7 157.2 46.3C158.6 47.4 160.6 48.9 162.3 51.8L162.5 52.1L162.7 52.4C165.2 57.6 164.4 62.5 163.8 66.2V66.5C163.4 68.8 162.8 71 161.8 73.2C161.3 74.4 160.9 75.7 160.7 77C160.6 77.8 160.5 78.4 160.4 78.9L160.3 79.3C160.1 81.2 159.7 83 159.1 84.8C158.2 87.7 156.8 90.4 155 92.9C152 97.3 148.6 100 144.1 101.4C141.9 102.1 140.1 103.5 138.9 105.4L138.5 105.9L138.1 106.4C137 107.7 137.3 112.7 137.5 115.7C137.7 119 137.9 122.4 137.3 125.6C136.3 131.1 133.9 134.8 131.8 138C131.8 138 124 149.3 116.9 151.4L116.4 151.6L115.9 151.7C114.6 151.9 113.2 152.1 111.8 152.1C111.5 152.1 111.2 152.1 110.8 152.1C110.5 152.1 110.2 152.1 109.8 152.1C109.3 152.1 108.6 152.1 107.4 152.2H107.3H107.2C102.5 152.4 99.6 152.5 98 152.8C96.9 153 95.9 153.3 94.9 153.7C90.6 155.4 84.8 156.3 76.4 156.3Z" stroke="url(#paint6_linear_2017_2303)" stroke-width="0.8575" stroke-miterlimit="10"/>
</g>
</g>
</g>
<defs>
<radialGradient id="paint0_radial_2017_2303" cx="0" cy="0" r="1" gradientUnits="userSpaceOnUse" gradientTransform="translate(92.8036 102.495) rotate(90) scale(104.245)">
<stop offset="0.1667" stop-color="#073183"/>
<stop offset="1" stop-color="#0054F9"/>
</radialGradient>
<linearGradient id="paint1_linear_2017_2303" x1="-12.9962" y1="-20.8649" x2="199.632" y2="202.3" gradientUnits="userSpaceOnUse">
<stop offset="0.2057" stop-color="#89D0FF"/>
<stop offset="0.3984" stop-color="#EBBF9A"/>
<stop offset="0.6015" stop-color="#EB8280"/>
<stop offset="0.8411" stop-color="#A281FF"/>
</linearGradient>
<linearGradient id="paint2_linear_2017_2303" x1="-4.75099" y1="-11.2627" x2="191.268" y2="195.313" gradientUnits="userSpaceOnUse">
<stop offset="0.2057" stop-color="#89D0FF"/>
<stop offset="0.3984" stop-color="#EBBF9A"/>
<stop offset="0.6015" stop-color="#EB80DA"/>
<stop offset="0.8411" stop-color="#A281FF"/>
</linearGradient>
<linearGradient id="paint3_linear_2017_2303" x1="3.57652" y1="-2.96038" x2="182.984" y2="187.021" gradientUnits="userSpaceOnUse">
<stop offset="0.2057" stop-color="#89D0FF"/>
<stop offset="0.3984" stop-color="#EBBF9A"/>
<stop offset="0.6015" stop-color="#EB8280"/>
<stop offset="0.8411" stop-color="#A281FF"/>
</linearGradient>
<linearGradient id="paint4_linear_2017_2303" x1="11.8926" y1="5.3707" x2="174.652" y2="178.707" gradientUnits="userSpaceOnUse">
<stop offset="0.2057" stop-color="#89D0FF"/>
<stop offset="0.3984" stop-color="#EBBF9A"/>
<stop offset="0.6015" stop-color="#EB80E7"/>
<stop offset="0.8411" stop-color="#A281FF"/>
</linearGradient>
<linearGradient id="paint5_linear_2017_2303" x1="20.1602" y1="13.7178" x2="166.302" y2="170.396" gradientUnits="userSpaceOnUse">
<stop offset="0.2057" stop-color="#89D0FF"/>
<stop offset="0.3984" stop-color="#EBBF9A"/>
<stop offset="0.6015" stop-color="#EB80D3"/>
<stop offset="0.8411" stop-color="#A281FF"/>
</linearGradient>
<linearGradient id="paint6_linear_2017_2303" x1="28.5352" y1="21.9645" x2="158.045" y2="162.048" gradientUnits="userSpaceOnUse">
<stop offset="0.2057" stop-color="#89D0FF"/>
<stop offset="0.3984" stop-color="#EBBF9A"/>
<stop offset="0.6015" stop-color="#A280EB"/>
<stop offset="0.8411" stop-color="#A281FF"/>
</linearGradient>
<clipPath id="clip0_2017_2303">
<rect width="185.6" height="185.6" fill="white"/>
</clipPath>
</defs>
</svg>
