<svg width="2500" height="2500" viewBox="0 0 2500 2500" fill="none" xmlns="http://www.w3.org/2000/svg">
<path d="M2387.9 441.9C2362.5 343.9 2280.8 245.9 2133.7 136.8C2015.7 49.9 1890.4 0 1790.5 0C1770.5 0 1752.4 1.8 1734.2 5.5C1688.8 14.7 1648.9 48 1623.4 98C1592.5 157.2 1585.3 236.7 1605.2 284.8C1612.5 299.6 1621.5 318.1 1632.4 334.7C1536.2 393.9 1481.7 410.5 1474.4 412.4C1725 497.5 1933.8 675 2064.6 906.1L2066.4 883.9C2071.8 822.9 2090 752.6 2115.4 680.5C2140.8 687.9 2166.2 691.6 2191.7 691.6C2258.9 691.6 2317 663.9 2353.3 613.9C2389.8 564 2404.3 497.4 2387.9 441.9Z" fill="#602F92"/>
<path d="M2126.5 626.9C2291.7 673.1 2358.9 543.7 2337.1 456.8C2313.5 369.9 2237.2 281.1 2102.9 181.3C1968.5 81.4 1832.3 40.8 1745.2 59.3C1658 77.8 1632.6 212.8 1654.4 264.6C1663.5 284.9 1683.5 314.5 1710.7 347.8C1676.2 371.8 1643.5 390.3 1616.3 407C1783.4 482.8 1928.6 601.2 2037.6 749.1C2050.3 699.2 2068.5 654.8 2084.8 616C2097.4 617.6 2111.9 621.3 2126.5 626.9Z" fill="url(#paint0_radial_2017_2373)"/>
<path d="M1180.4 2439C1741 2439 2195.5 1976.2 2195.5 1405.3C2195.5 834.4 1741 371.7 1180.4 371.7C619.8 371.7 165.3 834.5 165.3 1405.4C165.3 1976.3 619.8 2439 1180.4 2439Z" fill="url(#paint1_radial_2017_2373)"/>
<path opacity="0.6" d="M2253.6 371.7C2115.6 223.8 1999.4 184.9 1859.6 153.5C1750.6 127.6 1779.7 64.7 1912.3 77.7C1848.7 55.5 1788.8 50 1745.2 59.2C1658 77.7 1632.6 212.7 1654.4 264.5C1663.5 284.8 1683.5 314.4 1710.7 347.7C1661.7 381 1619.9 405 1585.4 423.5C1601.7 430.9 1621.7 440.1 1645.3 453.1C1707 486.4 1774.2 541.9 1774.2 541.9C1672.5 453.1 1694.3 412.5 1834.1 312.6C1877.7 281.2 1957.6 284.9 2032 323.7C2106.4 362.5 2193.6 460.5 2193.6 460.5L2110.1 623.2C2115.5 625.1 2121 626.9 2126.4 628.8C2179.1 643.6 2220.8 639.9 2253.5 626.9C2291.7 602.8 2391.6 521.4 2253.6 371.7Z" fill="#A98798"/>
<path d="M1857.7 242.2C1894 257 1941.2 282.9 1999.3 321.7C2068.3 367.9 2128.2 419.7 2166.4 460.4C2102.8 545.5 2061.1 662 2035.7 743.3C2048.4 761.8 2062.9 780.3 2075.7 798.8C2088.4 752.6 2110.2 684.1 2139.3 615.7C2146.6 617.6 2155.6 617.6 2164.7 617.6C2186.5 617.6 2211.9 613.9 2231.9 597.3C2246.4 586.2 2262.8 565.9 2261 528.9C2261 493.8 2233.8 449.4 2177.5 395.8C2137.5 357 2083.1 314.4 2028.6 275.6C1872.4 170.2 1763.5 140.6 1714.5 190.5C1681.8 223.8 1685.4 264.5 1696.3 294.1C1638.2 332.9 1589.2 360.7 1556.5 379.2C1578.3 386.6 1598.3 395.8 1620.1 405.1C1677.9 373.5 1761.5 319.9 1857.7 242.2ZM2200.9 506.7C2206.3 515.9 2208.2 525.2 2208.2 530.7C2208.2 547.3 2202.8 552.9 2199.1 556.6C2191.8 562.1 2177.3 565.8 2164.6 565.8C2175.5 543.6 2188.2 525.1 2200.9 506.7ZM1752.4 231.1C1757.8 225.6 1772.4 221.9 1796 225.6C1777.8 240.4 1759.7 253.3 1741.5 266.3C1739.7 253.3 1741.5 240.4 1752.4 231.1Z" fill="#602F92"/>
<path d="M1180.4 310.6C586.6 310.6 105.4 800.6 105.4 1405.3C105.4 2010 586.6 2500 1180.4 2500C1774.2 2500 2255.4 2010 2255.4 1405.3C2255.4 800.7 1772.4 310.6 1180.4 310.6ZM1180.4 2439C619.3 2439 165.3 1976.7 165.3 1405.3C165.3 833.9 619.3 371.6 1180.4 371.6C1741.5 371.6 2195.5 833.9 2195.5 1405.3C2195.4 1976.7 1739.7 2439 1180.4 2439Z" fill="#602F92"/>
<path opacity="0.6" d="M1180.4 2439C1741 2439 2195.5 1976.2 2195.5 1405.3C2195.5 834.4 1741 371.7 1180.4 371.7C619.8 371.7 165.3 834.5 165.3 1405.4C165.3 1976.3 619.8 2439 1180.4 2439Z" fill="url(#paint2_linear_2017_2373)"/>
<path opacity="0.6" d="M1173.1 2313.2C619.3 2222.6 243.4 1691.9 334.2 1127.9C374.2 878.3 497.6 665.6 672 512.1C417.7 662 228.9 922.7 178 1240.8C89 1804.8 464.9 2335.5 1016.9 2426.1C1325.6 2477.9 1623.4 2379.9 1843.1 2187.6C1648.9 2302.1 1412.8 2352.1 1173.1 2313.2Z" fill="#A98798"/>
<path opacity="0.6" d="M1342 386.5C1086 344 837.2 403.1 633.8 534.4C630.2 538.1 626.5 541.8 626.5 541.8C704.6 493.7 819 451.2 819 451.2C524.8 625 434 822.9 434 822.9C548.4 597.3 884.3 438.3 1147.6 427.2C1410.9 416.1 1583.4 495.6 1794 667.6C2004.6 841.4 2131.8 1196.4 2119 1477.5C2108.1 1758.6 1962.8 1986 1962.8 1986C2062.7 1854.7 2122.6 1758.6 2160.7 1660.6C2168 1631 2175.2 1601.4 2178.9 1570C2269.9 1007.8 1895.8 477.1 1342 386.5Z" fill="url(#paint3_linear_2017_2373)"/>
<path d="M2144.6 1396.1C2144.6 1937.9 1712.4 2378 1180.4 2378C648.4 2378 214.4 1937.9 214.4 1396.1H2144.6Z" fill="url(#paint4_linear_2017_2373)"/>
<g opacity="0.6">
<path opacity="0.6" d="M2068.3 1396.1C2068.3 1924.9 1657.9 2357.6 1142.2 2378C1154.9 2378 1167.6 2378 1180.3 2378C1712.3 2378 2144.5 1937.9 2144.5 1396.1H2068.3Z" fill="url(#paint5_linear_2017_2373)"/>
</g>
<g opacity="0.7">
<path opacity="0.7" d="M350.6 1396.1H214.4C214.4 1937.9 646.6 2378 1178.6 2378C1202.2 2378 1224 2378 1245.8 2376.1C746.4 2339.1 350.6 1913.8 350.6 1396.1Z" fill="url(#paint6_linear_2017_2373)"/>
</g>
<path d="M2142.8 1405.3C2142.8 1292.5 1950.3 1227.8 1694.3 1205.6C1509.1 1190.8 1322.1 1209.3 1107.8 1275.9C922.6 1331.4 755.5 1322.1 633.9 1307.3C363.3 1275.9 214.4 1272.2 214.4 1405.3C214.4 1597.6 599.4 1838 1176.8 1754.8C1469.2 1712.3 1619.9 1625.4 1792.4 1566.2C1979.4 1503.3 2142.8 1505.2 2142.8 1405.3Z" fill="url(#paint7_linear_2017_2373)"/>
<path d="M1496.3 939.3C1586.6 939.3 1659.7 864.8 1659.7 772.9C1659.7 681 1586.5 606.5 1496.3 606.5C1406.1 606.5 1332.9 681 1332.9 772.9C1332.9 864.8 1406.1 939.3 1496.3 939.3Z" fill="white"/>
<path d="M1763.3 1063.2C1801.4 1063.2 1832.3 1031.7 1832.3 992.9C1832.3 954.1 1801.4 922.6 1763.3 922.6C1725.2 922.6 1694.3 954.1 1694.3 992.9C1694.3 1031.8 1725.2 1063.2 1763.3 1063.2Z" fill="white"/>
<g opacity="0.6">
<path opacity="0.6" d="M2010.2 639.8C2008.4 639.8 2006.6 639.8 2006.6 639.8C1995.7 637.9 1988.4 626.9 1990.3 613.9C2006.6 528.8 2075.6 447.5 2079.3 443.8C2086.6 434.6 2101.1 434.6 2108.4 441.9C2117.5 449.3 2117.5 464.1 2110.2 471.5C2108.4 473.3 2044.8 549.2 2030.3 623.1C2028.4 634.2 2019.3 639.8 2010.2 639.8Z" fill="url(#paint8_linear_2017_2373)"/>
</g>
<path opacity="0.2" d="M1113.3 2176.4C1141.4 2176.4 1164.1 2153.2 1164.1 2124.6C1164.1 2096 1141.3 2072.8 1113.3 2072.8C1085.2 2072.8 1062.5 2096 1062.5 2124.6C1062.5 2153.2 1085.2 2176.4 1113.3 2176.4Z" fill="white"/>
<g opacity="0.4">
<path opacity="0.6" d="M1084.2 2158C1064.2 2137.7 1064.2 2104.4 1084.2 2084C1087.8 2080.3 1091.5 2078.5 1095.1 2074.8C1087.8 2076.7 1082.4 2080.3 1076.9 2085.9C1056.9 2106.2 1056.9 2139.5 1076.9 2159.9C1093.2 2176.5 1118.7 2180.2 1138.6 2169.1C1120.5 2176.5 1098.7 2172.8 1084.2 2158Z" fill="url(#paint9_linear_2017_2373)"/>
</g>
<path opacity="0.3" d="M1131.4 2109.8C1137.4 2109.8 1142.3 2104.8 1142.3 2098.7C1142.3 2092.6 1137.4 2087.6 1131.4 2087.6C1125.4 2087.6 1120.5 2092.6 1120.5 2098.7C1120.5 2104.9 1125.3 2109.8 1131.4 2109.8Z" fill="white"/>
<path opacity="0.2" d="M1378.4 2150.5C1406.5 2150.5 1429.2 2127.3 1429.2 2098.7C1429.2 2070.1 1406.4 2046.9 1378.4 2046.9C1350.3 2046.9 1327.6 2070.1 1327.6 2098.7C1327.6 2127.3 1350.4 2150.5 1378.4 2150.5Z" fill="white"/>
<g opacity="0.4">
<path opacity="0.6" d="M1349.3 2132.1C1329.3 2111.8 1329.3 2078.5 1349.3 2058.1C1352.9 2054.4 1356.6 2052.6 1360.2 2048.9C1352.9 2050.8 1347.5 2054.4 1342 2060C1322 2080.3 1322 2113.6 1342 2134C1358.3 2150.6 1383.8 2154.3 1403.7 2143.2C1385.6 2150.6 1363.8 2146.9 1349.3 2132.1Z" fill="url(#paint10_linear_2017_2373)"/>
</g>
<path opacity="0.3" d="M1396.5 2084C1402.5 2084 1407.4 2079 1407.4 2072.9C1407.4 2066.8 1402.5 2061.8 1396.5 2061.8C1390.5 2061.8 1385.6 2066.8 1385.6 2072.9C1385.6 2079 1390.5 2084 1396.5 2084Z" fill="white"/>
<path opacity="0.2" d="M1247.6 2270.7C1268.7 2270.7 1285.7 2253.3 1285.7 2231.9C1285.7 2210.5 1268.6 2193.1 1247.6 2193.1C1226.5 2193.1 1209.5 2210.5 1209.5 2231.9C1209.5 2253.3 1226.5 2270.7 1247.6 2270.7Z" fill="white"/>
<g opacity="0.4">
<path opacity="0.6" d="M1225.8 2256C1211.3 2241.2 1211.3 2215.3 1225.8 2200.5C1227.6 2198.6 1231.2 2196.8 1233.1 2194.9C1227.7 2196.8 1224 2200.5 1220.4 2204.1C1205.9 2218.9 1205.9 2244.8 1220.4 2259.6C1233.1 2272.5 1251.3 2274.4 1267.6 2265.2C1253 2270.8 1236.7 2267.1 1225.8 2256Z" fill="url(#paint11_linear_2017_2373)"/>
</g>
<path opacity="0.3" d="M1260.3 2218.9C1264.3 2218.9 1267.6 2215.6 1267.6 2211.5C1267.6 2207.4 1264.3 2204.1 1260.3 2204.1C1256.3 2204.1 1253 2207.4 1253 2211.5C1253 2215.6 1256.3 2218.9 1260.3 2218.9Z" fill="white"/>
<path opacity="0.2" d="M1481.8 2243C1502.9 2243 1519.9 2225.6 1519.9 2204.2C1519.9 2182.8 1502.8 2165.4 1481.8 2165.4C1460.8 2165.4 1443.7 2182.8 1443.7 2204.2C1443.7 2225.6 1460.8 2243 1481.8 2243Z" fill="white"/>
<g opacity="0.4">
<path opacity="0.6" d="M1460.1 2228.2C1445.6 2213.4 1445.6 2187.5 1460.1 2172.7C1461.9 2170.8 1465.5 2169 1467.4 2167.2C1462 2169.1 1458.3 2172.7 1454.7 2176.4C1440.2 2191.2 1440.2 2217.1 1454.7 2231.9C1467.4 2244.8 1485.6 2246.7 1501.9 2237.4C1487.3 2243 1471 2239.3 1460.1 2228.2Z" fill="url(#paint12_linear_2017_2373)"/>
</g>
<path opacity="0.3" d="M1494.5 2191.2C1498.5 2191.2 1501.8 2187.9 1501.8 2183.8C1501.8 2179.7 1498.5 2176.4 1494.5 2176.4C1490.5 2176.4 1487.2 2179.7 1487.2 2183.8C1487.3 2187.9 1490.5 2191.2 1494.5 2191.2Z" fill="white"/>
<path opacity="0.2" d="M897.1 2157.9C943.2 2157.9 980.6 2119.8 980.6 2072.8C980.6 2025.8 943.2 1987.7 897.1 1987.7C851 1987.7 813.6 2025.8 813.6 2072.8C813.6 2119.8 851 2157.9 897.1 2157.9Z" fill="white"/>
<g opacity="0.4">
<path opacity="0.6" d="M850 2126.5C817.3 2093.2 817.3 2039.6 850 2006.3C855.4 2000.8 860.9 1997.1 868.2 1993.4C857.3 1997.1 848.2 2004.5 839.1 2011.9C806.4 2045.2 806.4 2098.8 839.1 2132.1C866.3 2159.8 908.1 2165.4 940.8 2145C909.9 2157.9 873.6 2152.4 850 2126.5Z" fill="url(#paint13_linear_2017_2373)"/>
</g>
<path opacity="0.3" d="M926.2 2047C936.2 2047 944.4 2038.7 944.4 2028.5C944.4 2018.3 936.3 2010 926.2 2010C916.2 2010 908 2018.3 908 2028.5C908 2038.7 916.1 2047 926.2 2047Z" fill="white"/>
<path opacity="0.2" d="M1643.5 1949C1689.6 1949 1727 1910.9 1727 1863.9C1727 1816.9 1689.6 1778.8 1643.5 1778.8C1597.4 1778.8 1560 1816.9 1560 1863.9C1560 1910.9 1597.3 1949 1643.5 1949Z" fill="white"/>
<g opacity="0.4">
<path opacity="0.6" d="M1594.4 1917.5C1561.7 1884.2 1561.7 1830.6 1594.4 1797.3C1599.8 1791.7 1605.3 1788.1 1612.6 1784.4C1601.7 1788.1 1592.6 1795.5 1583.5 1802.9C1550.8 1836.2 1550.8 1889.8 1583.5 1923.1C1610.7 1950.8 1652.5 1956.4 1685.2 1936C1654.3 1949 1619.8 1943.4 1594.4 1917.5Z" fill="url(#paint14_linear_2017_2373)"/>
</g>
<path opacity="0.3" d="M1672.5 1838C1682.5 1838 1690.7 1829.7 1690.7 1819.5C1690.7 1809.3 1682.6 1801 1672.5 1801C1662.5 1801 1654.3 1809.3 1654.3 1819.5C1654.3 1829.7 1662.4 1838 1672.5 1838Z" fill="white"/>
<defs>
<radialGradient id="paint0_radial_2017_2373" cx="0" cy="0" r="1" gradientUnits="userSpaceOnUse" gradientTransform="translate(2304 340.282) scale(811.588 826.451)">
<stop stop-color="#FBEAF3" stop-opacity="0.6"/>
<stop offset="0.6807" stop-color="#A087BF"/>
<stop offset="1" stop-color="#17102E"/>
</radialGradient>
<radialGradient id="paint1_radial_2017_2373" cx="0" cy="0" r="1" gradientUnits="userSpaceOnUse" gradientTransform="translate(1852.47 692.626) scale(1985.66 2022.02)">
<stop stop-color="#FBEAF3" stop-opacity="0.6"/>
<stop offset="0.6807" stop-color="#A087BF"/>
<stop offset="1" stop-color="#17102E"/>
</radialGradient>
<linearGradient id="paint2_linear_2017_2373" x1="1012.11" y1="2424.85" x2="1348.67" y2="385.801" gradientUnits="userSpaceOnUse">
<stop stop-color="#9AD9E5"/>
<stop offset="0.6202" stop-color="white" stop-opacity="0"/>
</linearGradient>
<linearGradient id="paint3_linear_2017_2373" x1="1904.99" y1="713.613" x2="1051.73" y2="1482.43" gradientUnits="userSpaceOnUse">
<stop offset="0.2888" stop-color="white"/>
<stop offset="0.7796" stop-color="white" stop-opacity="0"/>
</linearGradient>
<linearGradient id="paint4_linear_2017_2373" x1="214.364" y1="1887.01" x2="2144.62" y2="1887.01" gradientUnits="userSpaceOnUse">
<stop stop-color="#384EA2"/>
<stop offset="0.9952" stop-color="#D54799"/>
</linearGradient>
<linearGradient id="paint5_linear_2017_2373" x1="2240.82" y1="1488.03" x2="1172.93" y2="2479.09" gradientUnits="userSpaceOnUse">
<stop offset="0.2888" stop-color="white"/>
<stop offset="0.7796" stop-color="white" stop-opacity="0"/>
</linearGradient>
<linearGradient id="paint6_linear_2017_2373" x1="214.364" y1="1887.01" x2="1245.77" y2="1887.01" gradientUnits="userSpaceOnUse">
<stop stop-color="#2B2F82"/>
<stop offset="0.9952" stop-color="#72439A"/>
</linearGradient>
<linearGradient id="paint7_linear_2017_2373" x1="216.476" y1="1486.29" x2="2142.85" y2="1486.29" gradientUnits="userSpaceOnUse">
<stop stop-color="#2B2F82"/>
<stop offset="0.9952" stop-color="#A14298"/>
</linearGradient>
<linearGradient id="paint8_linear_2017_2373" x1="2113.78" y1="436.364" x2="1971.65" y2="663.165" gradientUnits="userSpaceOnUse">
<stop offset="0.2888" stop-color="white"/>
<stop offset="0.7796" stop-color="white" stop-opacity="0"/>
</linearGradient>
<linearGradient id="paint9_linear_2017_2373" x1="1061.91" y1="2125.08" x2="1138.74" y2="2125.08" gradientUnits="userSpaceOnUse">
<stop offset="0.2888" stop-color="white"/>
<stop offset="0.7796" stop-color="white" stop-opacity="0"/>
</linearGradient>
<linearGradient id="paint10_linear_2017_2373" x1="1326.79" y1="2099.19" x2="1403.62" y2="2099.19" gradientUnits="userSpaceOnUse">
<stop offset="0.2888" stop-color="white"/>
<stop offset="0.7796" stop-color="white" stop-opacity="0"/>
</linearGradient>
<linearGradient id="paint11_linear_2017_2373" x1="1209.21" y1="2232.97" x2="1266.89" y2="2232.97" gradientUnits="userSpaceOnUse">
<stop offset="0.2888" stop-color="white"/>
<stop offset="0.7796" stop-color="white" stop-opacity="0"/>
</linearGradient>
<linearGradient id="paint12_linear_2017_2373" x1="1442.69" y1="2205.23" x2="1500.36" y2="2205.23" gradientUnits="userSpaceOnUse">
<stop offset="0.2888" stop-color="white"/>
<stop offset="0.7796" stop-color="white" stop-opacity="0"/>
</linearGradient>
<linearGradient id="paint13_linear_2017_2373" x1="813.715" y1="2075.28" x2="939.174" y2="2075.28" gradientUnits="userSpaceOnUse">
<stop offset="0.2888" stop-color="white"/>
<stop offset="0.7796" stop-color="white" stop-opacity="0"/>
</linearGradient>
<linearGradient id="paint14_linear_2017_2373" x1="1558.86" y1="1866.32" x2="1684.32" y2="1866.32" gradientUnits="userSpaceOnUse">
<stop offset="0.2888" stop-color="white"/>
<stop offset="0.7796" stop-color="white" stop-opacity="0"/>
</linearGradient>
</defs>
</svg>
