<?xml version="1.0" encoding="UTF-8"?>
<!DOCTYPE svg PUBLIC "-//W3C//DTD SVG 1.1//EN" "http://www.w3.org/Graphics/SVG/1.1/DTD/svg11.dtd">
<svg xmlns="http://www.w3.org/2000/svg" version="1.1" width="200px" height="200px" style="shape-rendering:geometricPrecision; text-rendering:geometricPrecision; image-rendering:optimizeQuality; fill-rule:evenodd; clip-rule:evenodd" xmlns:xlink="http://www.w3.org/1999/xlink">
<g><path style="opacity:1" fill="#f9f9f9" d="M -0.5,-0.5 C 66.1667,-0.5 132.833,-0.5 199.5,-0.5C 199.5,66.1667 199.5,132.833 199.5,199.5C 132.833,199.5 66.1667,199.5 -0.5,199.5C -0.5,132.833 -0.5,66.1667 -0.5,-0.5 Z"/></g>
<g><path style="opacity:1" fill="#000000" d="M 131.5,26.5 C 131.5,29.1667 131.5,31.8333 131.5,34.5C 101.662,34.1686 71.9953,34.5019 42.5,35.5C 42.5,78.1667 42.5,120.833 42.5,163.5C 47.8333,163.5 53.1667,163.5 58.5,163.5C 58.5,166.167 58.5,168.833 58.5,171.5C 50.5,171.5 42.5,171.5 34.5,171.5C 34.5,123.167 34.5,74.8333 34.5,26.5C 66.8333,26.5 99.1667,26.5 131.5,26.5 Z"/></g>
<g><path style="opacity:1" fill="#a3a3a3" d="M 131.5,26.5 C 134.167,26.5 136.833,26.5 139.5,26.5C 139.5,29.1667 139.5,31.8333 139.5,34.5C 142.167,34.5 144.833,34.5 147.5,34.5C 147.5,37.1667 147.5,39.8333 147.5,42.5C 150.167,42.5 152.833,42.5 155.5,42.5C 155.5,45.1667 155.5,47.8333 155.5,50.5C 158.167,50.5 160.833,50.5 163.5,50.5C 163.5,53.1667 163.5,55.8333 163.5,58.5C 160.5,58.5 157.5,58.5 154.5,58.5C 154.5,56.1667 154.5,53.8333 154.5,51.5C 151.833,51.5 149.167,51.5 146.5,51.5C 146.5,48.5 146.5,45.5 146.5,42.5C 144.167,42.5 141.833,42.5 139.5,42.5C 139.5,47.8333 139.5,53.1667 139.5,58.5C 136.833,58.5 134.167,58.5 131.5,58.5C 131.5,50.5 131.5,42.5 131.5,34.5C 131.5,31.8333 131.5,29.1667 131.5,26.5 Z"/></g>
<g><path style="opacity:1" fill="#cdcece" d="M 42.5,35.5 C 71.9953,34.5019 101.662,34.1686 131.5,34.5C 131.5,42.5 131.5,50.5 131.5,58.5C 130.167,61.1667 130.167,63.8333 131.5,66.5C 136.64,67.4881 141.974,67.8214 147.5,67.5C 147.5,75.1667 147.5,82.8333 147.5,90.5C 144.833,90.5 142.167,90.5 139.5,90.5C 128.5,90.5 117.5,90.5 106.5,90.5C 106.5,101.5 106.5,112.5 106.5,123.5C 106.5,126.167 106.5,128.833 106.5,131.5C 106.5,134.167 106.5,136.833 106.5,139.5C 103.833,139.5 101.167,139.5 98.5,139.5C 98.5,136.833 98.5,134.167 98.5,131.5C 95.8333,131.5 93.1667,131.5 90.5,131.5C 90.5,128.833 90.5,126.167 90.5,123.5C 87.8333,123.5 85.1667,123.5 82.5,123.5C 82.5,120.833 82.5,118.167 82.5,115.5C 79.8333,115.5 77.1667,115.5 74.5,115.5C 74.5,112.833 74.5,110.167 74.5,107.5C 71.8333,107.5 69.1667,107.5 66.5,107.5C 66.5,104.833 66.5,102.167 66.5,99.5C 63.8333,99.5 61.1667,99.5 58.5,99.5C 58.5,102.167 58.5,104.833 58.5,107.5C 58.5,118.167 58.5,128.833 58.5,139.5C 58.5,142.167 58.5,144.833 58.5,147.5C 63.8333,147.5 69.1667,147.5 74.5,147.5C 74.5,150.167 74.5,152.833 74.5,155.5C 66.5,155.5 58.5,155.5 50.5,155.5C 50.5,117.833 50.5,80.1667 50.5,42.5C 77.1667,42.5 103.833,42.5 130.5,42.5C 130.5,40.1667 130.5,37.8333 130.5,35.5C 101.167,35.5 71.8333,35.5 42.5,35.5 Z"/></g>
<g><path style="opacity:1" fill="#f9f9f9" d="M 154.5,58.5 C 149.5,58.5 144.5,58.5 139.5,58.5C 139.5,53.1667 139.5,47.8333 139.5,42.5C 141.833,42.5 144.167,42.5 146.5,42.5C 146.5,45.5 146.5,48.5 146.5,51.5C 149.167,51.5 151.833,51.5 154.5,51.5C 154.5,53.8333 154.5,56.1667 154.5,58.5 Z"/></g>
<g><path style="opacity:1" fill="#117808" d="M 99.5,58.5 C 98.5076,66.3159 98.1743,74.3159 98.5,82.5C 90.3159,82.1743 82.3159,82.5076 74.5,83.5C 71.8333,83.5 69.1667,83.5 66.5,83.5C 66.5,75.1667 66.5,66.8333 66.5,58.5C 69.1667,58.5 71.8333,58.5 74.5,58.5C 74.5,55.8333 74.5,53.1667 74.5,50.5C 82.8333,50.5 91.1667,50.5 99.5,50.5C 99.5,53.1667 99.5,55.8333 99.5,58.5 Z"/></g>
<g><path style="opacity:1" fill="#1bc511" d="M 74.5,58.5 C 80.0262,58.1786 85.3595,58.5119 90.5,59.5C 85.5,59.5 80.5,59.5 75.5,59.5C 75.5,64.5 75.5,69.5 75.5,74.5C 80.5,74.5 85.5,74.5 90.5,74.5C 85.3595,75.4881 80.0262,75.8214 74.5,75.5C 74.5,69.8333 74.5,64.1667 74.5,58.5 Z"/></g>
<g><path style="opacity:1" fill="#25f318" d="M 90.5,59.5 C 90.5,64.5 90.5,69.5 90.5,74.5C 85.5,74.5 80.5,74.5 75.5,74.5C 75.5,69.5 75.5,64.5 75.5,59.5C 80.5,59.5 85.5,59.5 90.5,59.5 Z"/></g>
<g><path style="opacity:1" fill="#000000" d="M 99.5,59.5 C 101.833,59.5 104.167,59.5 106.5,59.5C 106.5,67.1667 106.5,74.8333 106.5,82.5C 104.167,82.5 101.833,82.5 99.5,82.5C 99.5,74.8333 99.5,67.1667 99.5,59.5 Z"/></g>
<g><path style="opacity:1" fill="#6e6e6e" d="M 99.5,59.5 C 99.5,59.1667 99.5,58.8333 99.5,58.5C 102.167,58.5 104.833,58.5 107.5,58.5C 107.5,66.8333 107.5,75.1667 107.5,83.5C 104.833,83.5 102.167,83.5 99.5,83.5C 99.5,83.1667 99.5,82.8333 99.5,82.5C 101.833,82.5 104.167,82.5 106.5,82.5C 106.5,74.8333 106.5,67.1667 106.5,59.5C 104.167,59.5 101.833,59.5 99.5,59.5 Z"/></g>
<g><path style="opacity:1" fill="#000000" d="M 155.5,90.5 C 155.5,82.5 155.5,74.5 155.5,66.5C 147.5,66.5 139.5,66.5 131.5,66.5C 131.5,64.1667 131.5,61.8333 131.5,59.5C 141.833,59.5 152.167,59.5 162.5,59.5C 162.5,69.8333 162.5,80.1667 162.5,90.5C 160.167,90.5 157.833,90.5 155.5,90.5 Z"/></g>
<g><path style="opacity:1" fill="#484848" d="M 131.5,58.5 C 134.167,58.5 136.833,58.5 139.5,58.5C 144.5,58.5 149.5,58.5 154.5,58.5C 157.5,58.5 160.5,58.5 163.5,58.5C 163.5,69.5 163.5,80.5 163.5,91.5C 160.833,91.5 158.167,91.5 155.5,91.5C 155.5,91.1667 155.5,90.8333 155.5,90.5C 157.833,90.5 160.167,90.5 162.5,90.5C 162.5,80.1667 162.5,69.8333 162.5,59.5C 152.167,59.5 141.833,59.5 131.5,59.5C 131.5,61.8333 131.5,64.1667 131.5,66.5C 130.167,63.8333 130.167,61.1667 131.5,58.5 Z"/></g>
<g><path style="opacity:1" fill="#939393" d="M 131.5,66.5 C 139.5,66.5 147.5,66.5 155.5,66.5C 155.5,74.5 155.5,82.5 155.5,90.5C 155.5,90.8333 155.5,91.1667 155.5,91.5C 154.508,83.6841 154.174,75.6841 154.5,67.5C 152.167,67.5 149.833,67.5 147.5,67.5C 141.974,67.8214 136.64,67.4881 131.5,66.5 Z"/></g>
<g><path style="opacity:1" fill="#014103" d="M 99.5,58.5 C 99.5,58.8333 99.5,59.1667 99.5,59.5C 99.5,67.1667 99.5,74.8333 99.5,82.5C 99.5,82.8333 99.5,83.1667 99.5,83.5C 99.1667,83.5 98.8333,83.5 98.5,83.5C 90.8333,83.5 83.1667,83.5 75.5,83.5C 75.1667,83.5 74.8333,83.5 74.5,83.5C 82.3159,82.5076 90.3159,82.1743 98.5,82.5C 98.1743,74.3159 98.5076,66.3159 99.5,58.5 Z"/></g>
<g><path style="opacity:1" fill="#505050" d="M 74.5,83.5 C 74.8333,83.5 75.1667,83.5 75.5,83.5C 75.5,85.8333 75.5,88.1667 75.5,90.5C 83.1667,90.5 90.8333,90.5 98.5,90.5C 98.5,88.1667 98.5,85.8333 98.5,83.5C 98.8333,83.5 99.1667,83.5 99.5,83.5C 99.5,86.1667 99.5,88.8333 99.5,91.5C 91.1667,91.5 82.8333,91.5 74.5,91.5C 74.5,88.8333 74.5,86.1667 74.5,83.5 Z"/></g>
<g><path style="opacity:1" fill="#000000" d="M 75.5,83.5 C 83.1667,83.5 90.8333,83.5 98.5,83.5C 98.5,85.8333 98.5,88.1667 98.5,90.5C 90.8333,90.5 83.1667,90.5 75.5,90.5C 75.5,88.1667 75.5,85.8333 75.5,83.5 Z"/></g>
<g><path style="opacity:1" fill="#d85d5b" d="M 139.5,90.5 C 139.5,90.8333 139.5,91.1667 139.5,91.5C 139.167,91.5 138.833,91.5 138.5,91.5C 128.167,91.5 117.833,91.5 107.5,91.5C 107.5,102.167 107.5,112.833 107.5,123.5C 107.167,123.5 106.833,123.5 106.5,123.5C 106.5,112.5 106.5,101.5 106.5,90.5C 117.5,90.5 128.5,90.5 139.5,90.5 Z"/></g>
<g><path style="opacity:1" fill="#e60000" d="M 138.5,91.5 C 138.5,99.1667 138.5,106.833 138.5,114.5C 136.167,114.5 133.833,114.5 131.5,114.5C 131.5,109.5 131.5,104.5 131.5,99.5C 125.833,99.5 120.167,99.5 114.5,99.5C 114.5,104.833 114.5,110.167 114.5,115.5C 119.833,115.5 125.167,115.5 130.5,115.5C 130.5,118.167 130.5,120.833 130.5,123.5C 122.833,123.5 115.167,123.5 107.5,123.5C 107.5,112.833 107.5,102.167 107.5,91.5C 117.833,91.5 128.167,91.5 138.5,91.5 Z"/></g>
<g><path style="opacity:1" fill="#010101" d="M 139.5,91.5 C 141.833,91.5 144.167,91.5 146.5,91.5C 146.5,99.5 146.5,107.5 146.5,115.5C 144.167,115.5 141.833,115.5 139.5,115.5C 139.5,107.5 139.5,99.5 139.5,91.5 Z"/></g>
<g><path style="opacity:1" fill="#646464" d="M 139.5,91.5 C 139.5,91.1667 139.5,90.8333 139.5,90.5C 142.167,90.5 144.833,90.5 147.5,90.5C 147.826,99.0168 147.493,107.35 146.5,115.5C 146.5,107.5 146.5,99.5 146.5,91.5C 144.167,91.5 141.833,91.5 139.5,91.5 Z"/></g>
<g><path style="opacity:1" fill="#16adf1" d="M 66.5,107.5 C 63.8333,107.5 61.1667,107.5 58.5,107.5C 58.5,104.833 58.5,102.167 58.5,99.5C 61.1667,99.5 63.8333,99.5 66.5,99.5C 66.5,102.167 66.5,104.833 66.5,107.5 Z"/></g>
<g><path style="opacity:1" fill="#7e0000" d="M 138.5,91.5 C 138.833,91.5 139.167,91.5 139.5,91.5C 139.5,99.5 139.5,107.5 139.5,115.5C 136.833,115.5 134.167,115.5 131.5,115.5C 131.5,118.167 131.5,120.833 131.5,123.5C 131.167,123.5 130.833,123.5 130.5,123.5C 130.5,120.833 130.5,118.167 130.5,115.5C 125.167,115.5 119.833,115.5 114.5,115.5C 114.5,110.167 114.5,104.833 114.5,99.5C 120.167,99.5 125.833,99.5 131.5,99.5C 131.5,104.5 131.5,109.5 131.5,114.5C 133.833,114.5 136.167,114.5 138.5,114.5C 138.5,106.833 138.5,99.1667 138.5,91.5 Z"/></g>
<g><path style="opacity:1" fill="#071ad4" d="M 58.5,107.5 C 61.1667,107.5 63.8333,107.5 66.5,107.5C 69.1667,107.5 71.8333,107.5 74.5,107.5C 74.5,110.167 74.5,112.833 74.5,115.5C 77.1667,115.5 79.8333,115.5 82.5,115.5C 82.5,118.167 82.5,120.833 82.5,123.5C 85.1667,123.5 87.8333,123.5 90.5,123.5C 90.5,126.167 90.5,128.833 90.5,131.5C 90.5,134.167 90.5,136.833 90.5,139.5C 79.8333,139.5 69.1667,139.5 58.5,139.5C 58.5,128.833 58.5,118.167 58.5,107.5 Z"/></g>
<g><path style="opacity:1" fill="#12abf1" d="M 66.5,107.5 C 69.1667,107.5 71.8333,107.5 74.5,107.5C 74.5,110.167 74.5,112.833 74.5,115.5C 71.8333,115.5 69.1667,115.5 66.5,115.5C 66.5,112.833 66.5,110.167 66.5,107.5 Z"/></g>
<g><path style="opacity:1" fill="#13aaf1" d="M 74.5,115.5 C 77.1667,115.5 79.8333,115.5 82.5,115.5C 82.5,118.167 82.5,120.833 82.5,123.5C 79.8333,123.5 77.1667,123.5 74.5,123.5C 74.5,120.833 74.5,118.167 74.5,115.5 Z"/></g>
<g><path style="opacity:1" fill="#0f0f0f" d="M 139.5,115.5 C 139.5,118.167 139.5,120.833 139.5,123.5C 136.833,123.5 134.167,123.5 131.5,123.5C 131.5,120.833 131.5,118.167 131.5,115.5C 134.167,115.5 136.833,115.5 139.5,115.5 Z"/></g>
<g><path style="opacity:1" fill="#13aaf1" d="M 82.5,123.5 C 85.1667,123.5 87.8333,123.5 90.5,123.5C 90.5,126.167 90.5,128.833 90.5,131.5C 87.8333,131.5 85.1667,131.5 82.5,131.5C 82.5,128.833 82.5,126.167 82.5,123.5 Z"/></g>
<g><path style="opacity:1" fill="#040404" d="M 106.5,123.5 C 106.833,123.5 107.167,123.5 107.5,123.5C 115.167,123.5 122.833,123.5 130.5,123.5C 130.5,126.167 130.5,128.833 130.5,131.5C 122.5,131.5 114.5,131.5 106.5,131.5C 106.5,128.833 106.5,126.167 106.5,123.5 Z"/></g>
<g><path style="opacity:1" fill="#070707" d="M 155.5,123.5 C 158.167,123.5 160.833,123.5 163.5,123.5C 163.5,139.5 163.5,155.5 163.5,171.5C 144.5,171.5 125.5,171.5 106.5,171.5C 106.5,168.833 106.5,166.167 106.5,163.5C 122.833,163.5 139.167,163.5 155.5,163.5C 155.5,150.167 155.5,136.833 155.5,123.5 Z"/></g>
<g><path style="opacity:1" fill="#13aaf1" d="M 90.5,131.5 C 93.1667,131.5 95.8333,131.5 98.5,131.5C 98.5,134.167 98.5,136.833 98.5,139.5C 95.8333,139.5 93.1667,139.5 90.5,139.5C 90.5,136.833 90.5,134.167 90.5,131.5 Z"/></g>
<g><path style="opacity:1" fill="#000000" d="M 139.5,131.5 C 141.833,131.5 144.167,131.5 146.5,131.5C 146.5,139.5 146.5,147.5 146.5,155.5C 136.167,155.5 125.833,155.5 115.5,155.5C 115.5,152.833 115.5,150.167 115.5,147.5C 123.5,147.5 131.5,147.5 139.5,147.5C 139.5,142.167 139.5,136.833 139.5,131.5 Z"/></g>
<g><path style="opacity:1" fill="#000000" d="M 58.5,139.5 C 69.1667,139.5 79.8333,139.5 90.5,139.5C 90.5,142.167 90.5,144.833 90.5,147.5C 85.1667,147.5 79.8333,147.5 74.5,147.5C 69.1667,147.5 63.8333,147.5 58.5,147.5C 58.5,144.833 58.5,142.167 58.5,139.5 Z"/></g>
</svg>
