<?xml version="1.0" encoding="UTF-8"?>
<!DOCTYPE svg PUBLIC "-//W3C//DTD SVG 1.1//EN" "http://www.w3.org/Graphics/SVG/1.1/DTD/svg11.dtd">
<svg xmlns="http://www.w3.org/2000/svg" version="1.1" width="200px" height="200px" style="shape-rendering:geometricPrecision; text-rendering:geometricPrecision; image-rendering:optimizeQuality; fill-rule:evenodd; clip-rule:evenodd" xmlns:xlink="http://www.w3.org/1999/xlink">
<g><path style="opacity:1" fill="#f3f3f3" d="M 126.5,67.5 C 120.905,67.6569 115.238,67.3235 109.5,66.5C 106.108,60.7196 102.941,54.7196 100,48.5C 99.1482,49.5707 98.3149,50.5707 97.5,51.5C 91.3679,53.3813 85.7012,53.3813 80.5,51.5C 86.7316,38.7036 93.2316,26.0369 100,13.5C 109.116,31.399 117.95,49.399 126.5,67.5 Z"/></g>
<g><path style="opacity:1" fill="#e7e7e6" d="M 80.5,51.5 C 85.7012,53.3813 91.3679,53.3813 97.5,51.5C 90.7698,65.9605 83.7698,80.2939 76.5,94.5C 70.674,94.1956 65.0074,94.1956 59.5,94.5C 66.2302,80.0395 73.2302,65.7061 80.5,51.5 Z"/></g>
<g><path style="opacity:1" fill="#e3e2e2" d="M 109.5,66.5 C 115.238,67.3235 120.905,67.6569 126.5,67.5C 131.675,76.5157 136.341,85.849 140.5,95.5C 134.925,94.5476 129.259,94.2143 123.5,94.5C 118.325,85.4843 113.659,76.151 109.5,66.5 Z"/></g>
<g><path style="opacity:1" fill="#d4d4d4" d="M 126.5,132.5 C 120.81,132.016 115.143,131.682 109.5,131.5C 106.108,125.72 102.941,119.72 100,113.5C 96.5658,119.369 93.3992,125.369 90.5,131.5C 84.3861,131.418 78.3861,131.751 72.5,132.5C 80.9617,114.243 89.9617,96.2432 99.5,78.5C 109.038,96.2432 118.038,114.243 126.5,132.5 Z"/></g>
<g><path style="opacity:1" fill="#d5d5d5" d="M 76.5,94.5 C 72.4052,103.025 68.0719,111.358 63.5,119.5C 58.202,119.801 52.8687,119.468 47.5,118.5C 50.9922,110.182 54.9922,102.182 59.5,94.5C 65.0074,94.1956 70.674,94.1956 76.5,94.5 Z"/></g>
<g><path style="opacity:1" fill="#d5d5d5" d="M 123.5,94.5 C 129.259,94.2143 134.925,94.5476 140.5,95.5C 145.008,103.182 149.008,111.182 152.5,119.5C 148.366,119.494 144.533,119.161 141,118.5C 139.53,119.267 138.03,119.933 136.5,120.5C 131.659,112.151 127.325,103.484 123.5,94.5 Z"/></g>
<g><path style="opacity:1" fill="#c7c7c7" d="M 47.5,118.5 C 52.8687,119.468 58.202,119.801 63.5,119.5C 57.4501,132.601 51.1167,145.601 44.5,158.5C 38.5,159.833 32.5,159.833 26.5,158.5C 33.5292,145.105 40.5292,131.772 47.5,118.5 Z"/></g>
<g><path style="opacity:1" fill="#c8c7c7" d="M 152.5,119.5 C 159.392,132.282 166.059,145.282 172.5,158.5C 166.612,159.807 160.779,159.807 155,158.5C 148.55,145.934 142.383,133.267 136.5,120.5C 138.03,119.933 139.53,119.267 141,118.5C 144.533,119.161 148.366,119.494 152.5,119.5 Z"/></g>
<g><path style="opacity:1" fill="#faa32d" d="M 98.5,144.5 C 99.3764,144.369 100.043,144.702 100.5,145.5C 107.961,159.588 115.294,173.755 122.5,188C 107.489,188.833 92.4889,188.666 77.5,187.5C 84.8048,173.225 91.8048,158.892 98.5,144.5 Z"/></g>
<g><path style="opacity:1" fill="#c5c4c3" d="M 90.5,131.5 C 85.4052,142.025 80.0719,152.358 74.5,162.5C 68.6932,164.775 62.6932,165.109 56.5,163.5C 61.5948,152.975 66.9281,142.642 72.5,132.5C 78.3861,131.751 84.3861,131.418 90.5,131.5 Z"/></g>
<g><path style="opacity:1" fill="#c4c3c2" d="M 109.5,131.5 C 115.143,131.682 120.81,132.016 126.5,132.5C 132.072,142.642 137.405,152.975 142.5,163.5C 136.925,164.452 131.259,164.786 125.5,164.5C 119.897,153.627 114.563,142.627 109.5,131.5 Z"/></g>
<g><path style="opacity:1" fill="#bbbbbb" d="M 74.5,162.5 C 70.784,170.933 66.784,179.267 62.5,187.5C 45.8333,188.833 29.1667,188.833 12.5,187.5C 14.7058,182.921 17.0391,178.421 19.5,174C 30.1667,173.667 40.8333,173.333 51.5,173C 53.3068,169.885 54.9735,166.719 56.5,163.5C 62.6932,165.109 68.6932,164.775 74.5,162.5 Z"/></g>
<g><path style="opacity:1" fill="#bbbbbb" d="M 142.5,163.5 C 144.027,166.719 145.693,169.885 147.5,173C 158.515,173.168 169.515,173.668 180.5,174.5C 182.706,179.079 185.039,183.579 187.5,188C 170.833,188.667 154.167,188.667 137.5,188C 133.359,180.218 129.359,172.385 125.5,164.5C 131.259,164.786 136.925,164.452 142.5,163.5 Z"/></g>
</svg>
