<?xml version="1.0" encoding="UTF-8"?>
<!DOCTYPE svg PUBLIC "-//W3C//DTD SVG 1.1//EN" "http://www.w3.org/Graphics/SVG/1.1/DTD/svg11.dtd">
<svg xmlns="http://www.w3.org/2000/svg" version="1.1" width="250px" height="250px" style="shape-rendering:geometricPrecision; text-rendering:geometricPrecision; image-rendering:optimizeQuality; fill-rule:evenodd; clip-rule:evenodd" xmlns:xlink="http://www.w3.org/1999/xlink">
<g><path style="opacity:1" fill="#e6e6e0" d="M 105.5,-0.5 C 118.167,-0.5 130.833,-0.5 143.5,-0.5C 201.831,11.8313 237.165,47.1646 249.5,105.5C 249.5,118.167 249.5,130.833 249.5,143.5C 237.165,201.835 201.831,237.169 143.5,249.5C 130.833,249.5 118.167,249.5 105.5,249.5C 47.1687,237.169 11.8354,201.835 -0.5,143.5C -0.5,130.833 -0.5,118.167 -0.5,105.5C 11.8354,47.1646 47.1687,11.8313 105.5,-0.5 Z"/></g>
<g><path style="opacity:1" fill="#0d101e" d="M 169.5,75.5 C 139.718,78.7035 112.385,88.5369 87.5,105C 83.1928,108.465 79.8594,112.631 77.5,117.5C 76.3622,114.696 76.1955,111.696 77,108.5C 80.7816,101.052 86.2816,95.2182 93.5,91C 116.121,78.1263 140.288,69.6263 166,65.5C 171.257,65.0887 173.257,67.422 172,72.5C 170.955,73.3734 170.122,74.3734 169.5,75.5 Z"/></g>
<g><path style="opacity:1" fill="#0832f4" d="M 169.5,75.5 C 173.5,78.5 173.5,81.5 169.5,84.5C 140.386,88.7029 113.386,98.5362 88.5,114C 84.2197,118.109 80.2197,122.276 76.5,126.5C 76.2641,123.391 76.5975,120.391 77.5,117.5C 79.8594,112.631 83.1928,108.465 87.5,105C 112.385,88.5369 139.718,78.7035 169.5,75.5 Z"/></g>
<g><path style="opacity:1" fill="#96a7f9" d="M 169.5,84.5 C 173.419,87.673 173.419,90.8397 169.5,94C 165.91,94.3106 162.577,95.144 159.5,96.5C 134.274,100.517 110.941,109.35 89.5,123C 84.2813,126.29 80.6147,130.79 78.5,136.5C 76.5977,133.663 75.931,130.329 76.5,126.5C 80.2197,122.276 84.2197,118.109 88.5,114C 113.386,98.5362 140.386,88.7029 169.5,84.5 Z"/></g>
<g><path style="opacity:1" fill="#f1e9de" d="M 172.5,107.5 C 171.102,105.467 169.102,104.467 166.5,104.5C 139.28,108.627 113.947,117.794 90.5,132C 84.5444,136.116 79.8778,141.283 76.5,147.5C 76.1113,143.586 76.7779,139.92 78.5,136.5C 80.6147,130.79 84.2813,126.29 89.5,123C 110.941,109.35 134.274,100.517 159.5,96.5C 163.163,95.8875 166.83,95.7208 170.5,96C 173.167,98.3333 173.167,100.667 170.5,103C 173.411,103.698 174.077,105.198 172.5,107.5 Z"/></g>
<g><path style="opacity:1" fill="#f91e0c" d="M 172.5,107.5 C 172.822,109.722 172.155,111.556 170.5,113C 158.722,115.528 147.056,118.528 135.5,122C 127.45,124.509 119.784,127.676 112.5,131.5C 109.515,132.326 106.849,133.659 104.5,135.5C 102.847,135.66 101.514,136.326 100.5,137.5C 98.246,138.124 96.5794,139.457 95.5,141.5C 94.8333,141.5 94.5,141.833 94.5,142.5C 91.5,143.5 89.5,145.5 88.5,148.5C 86.0261,151.187 85.8594,154.187 88,157.5C 99.3537,166.404 112.187,172.237 126.5,175C 139.69,177.939 153.023,179.772 166.5,180.5C 166.5,181.5 166.5,182.5 166.5,183.5C 143.64,183.428 121.306,179.928 99.5,173C 92.6342,170.653 86.4675,167.153 81,162.5C 77.1901,158.208 75.6901,153.208 76.5,147.5C 79.8778,141.283 84.5444,136.116 90.5,132C 113.947,117.794 139.28,108.627 166.5,104.5C 169.102,104.467 171.102,105.467 172.5,107.5 Z"/></g>
<g><path style="opacity:1" fill="#171824" d="M 112.5,131.5 C 129.936,137.186 147.936,140.519 166.5,141.5C 166.5,142.5 166.5,143.5 166.5,144.5C 145.416,144.107 124.749,141.107 104.5,135.5C 106.849,133.659 109.515,132.326 112.5,131.5 Z"/></g>
<g><path style="opacity:1" fill="#2a3df7" d="M 100.5,137.5 C 121.721,145.612 143.721,150.278 166.5,151.5C 166.5,152.5 166.5,153.5 166.5,154.5C 146.174,153.953 126.174,151.12 106.5,146C 102.532,144.962 98.865,143.462 95.5,141.5C 96.5794,139.457 98.246,138.124 100.5,137.5 Z"/></g>
<g><path style="opacity:1" fill="#9cabf7" d="M 94.5,142.5 C 97.1019,144.81 100.102,146.643 103.5,148C 123.719,156.037 144.719,160.204 166.5,160.5C 166.5,161.5 166.5,162.5 166.5,163.5C 139.347,164.124 113.347,159.124 88.5,148.5C 89.5,145.5 91.5,143.5 94.5,142.5 Z"/></g>
</svg>
