<?xml version="1.0" encoding="UTF-8"?>
<!DOCTYPE svg PUBLIC "-//W3C//DTD SVG 1.1//EN" "http://www.w3.org/Graphics/SVG/1.1/DTD/svg11.dtd">
<svg xmlns="http://www.w3.org/2000/svg" version="1.1" width="200px" height="200px" style="shape-rendering:geometricPrecision; text-rendering:geometricPrecision; image-rendering:optimizeQuality; fill-rule:evenodd; clip-rule:evenodd" xmlns:xlink="http://www.w3.org/1999/xlink">
<g><path style="opacity:1" fill="#040406" d="M 171.5,117.5 C 169.537,115.721 167.371,114.054 165,112.5C 164.063,106.626 161.563,101.626 157.5,97.5C 157.167,95.1667 155.833,93.8333 153.5,93.5C 154.37,91.7263 155.703,90.393 157.5,89.5C 160.267,88.9493 162.6,87.6159 164.5,85.5C 167.505,82.1455 170.505,78.8122 173.5,75.5C 173.5,74.8333 173.5,74.1667 173.5,73.5C 174.833,70.5 174.833,67.5 173.5,64.5C 172.585,62.2459 171.252,60.2459 169.5,58.5C 169.897,57.475 170.563,57.3083 171.5,58C 173.877,60.508 176.211,63.008 178.5,65.5C 178.833,65 179.167,64.5 179.5,64C 173.143,53.9649 164.476,46.4649 153.5,41.5C 147.73,38.9804 142.064,36.3137 136.5,33.5C 130.856,30.9726 131.19,30.1393 137.5,31C 146.978,35.6676 156.312,40.5009 165.5,45.5C 165.843,43.5168 165.176,42.1834 163.5,41.5C 160.833,38.5 158.167,35.5 155.5,32.5C 148.248,24.602 139.582,18.602 129.5,14.5C 118.048,9.91658 106.048,6.91658 93.5,5.5C 87.8205,4.72857 81.8205,4.06191 75.5,3.5C 67.7936,3.4187 60.4603,4.75204 53.5,7.5C 51.4068,8.04469 49.4068,8.87803 47.5,10C 44.8164,13.0166 41.8164,15.6833 38.5,18C 35.062,21.4321 32.062,25.2655 29.5,29.5C 28.3397,32.1328 26.3397,32.9661 23.5,32C 25.8753,30.49 25.7086,28.99 23,27.5C 19.1402,30.2584 15.9735,33.5917 13.5,37.5C 11.8795,39.2641 10.5462,41.2641 9.5,43.5C 7.43177,46.763 6.43177,50.4296 6.5,54.5C 2.68373,55.0897 1.01707,57.4231 1.5,61.5C 0.833333,61.8333 0.166667,62.1667 -0.5,62.5C -0.5,59.5 -0.5,56.5 -0.5,53.5C 1.29021,51.1696 2.79021,48.503 4,45.5C 4.33333,45.8333 4.66667,46.1667 5,46.5C 6,43.8333 7,41.1667 8,38.5C 8.33333,39.1667 8.66667,39.8333 9,40.5C 9.66667,38.5 10.3333,36.5 11,34.5C 15.5108,30.6128 19.6775,26.4461 23.5,22C 30.2339,18.2882 37.2339,13.4549 44.5,7.5C 49.3707,6.71259 53.7041,4.87926 57.5,2C 72.1999,1.1491 86.8665,1.48243 101.5,3C 102.833,3.33333 104.167,3.66667 105.5,4C 105.167,4.33333 104.833,4.66667 104.5,5C 108.872,5.42148 113.205,6.08815 117.5,7C 122.61,9.29155 127.944,10.9582 133.5,12C 133.167,12.3333 132.833,12.6667 132.5,13C 134.952,13.2895 137.285,13.9562 139.5,15C 142.5,17.3333 145.5,19.6667 148.5,22C 149.191,23.0674 149.691,24.2341 150,25.5C 150.333,24.8333 150.667,24.1667 151,23.5C 152.316,24.9743 153.316,26.641 154,28.5C 154.333,28.1667 154.667,27.8333 155,27.5C 156,28.8333 157,30.1667 158,31.5C 158.333,31.1667 158.667,30.8333 159,30.5C 161.918,33.025 164.252,36.3583 166,40.5C 166.333,40.1667 166.667,39.8333 167,39.5C 168.559,41.2166 169.392,43.2166 169.5,45.5C 170.5,45.5 171.5,45.5 172.5,45.5C 174.405,48.7317 176.072,52.7317 177.5,57.5C 179.124,57.3601 180.29,58.0267 181,59.5C 181.785,65.6488 181.118,71.6488 179,77.5C 178.667,77.1667 178.333,76.8333 178,76.5C 177,82.5 176,88.5 175,94.5C 174.667,94.1667 174.333,93.8333 174,93.5C 173.758,101.71 172.925,109.71 171.5,117.5 Z"/></g>
<g><path style="opacity:1" fill="#1f2329" d="M 93.5,5.5 C 88.3462,5.56769 83.6795,6.90103 79.5,9.5C 75.066,7.76273 70.3993,7.09606 65.5,7.5C 61.5,7.5 57.5,7.5 53.5,7.5C 60.4603,4.75204 67.7936,3.4187 75.5,3.5C 81.8205,4.06191 87.8205,4.72857 93.5,5.5 Z"/></g>
<g><path style="opacity:1" fill="#31314c" d="M 65.5,7.5 C 70.3993,7.09606 75.066,7.76273 79.5,9.5C 80.7348,9.72142 81.7348,10.3881 82.5,11.5C 84.1693,10.3291 85.6693,8.9958 87,7.5C 91.3783,7.35476 95.8783,7.6881 100.5,8.5C 101.022,9.60738 101.355,10.7741 101.5,12C 98.1376,20.4891 99.3042,21.3224 105,14.5C 105.8,17.5723 104.633,19.2389 101.5,19.5C 101.595,22.2723 102.929,24.2723 105.5,25.5C 103.221,29.2913 104.554,31.2913 109.5,31.5C 106.349,33.583 103.349,35.9163 100.5,38.5C 99.6143,37.675 99.281,36.675 99.5,35.5C 98.0222,35.238 96.6888,35.5713 95.5,36.5C 96.4709,37.9621 96.1376,39.2954 94.5,40.5C 91.8333,39.5 91.8333,38.5 94.5,37.5C 93.132,36.4063 91.9653,36.7397 91,38.5C 90.1301,37.8921 89.6301,37.0588 89.5,36C 92.4492,33.7315 95.4492,31.3981 98.5,29C 96.3018,25.9522 96.9684,23.2856 100.5,21C 99.451,20.5078 98.451,20.6744 97.5,21.5C 95.1568,24.2072 92.8235,26.8739 90.5,29.5C 89.5713,28.3112 89.238,26.9778 89.5,25.5C 86.495,25.253 83.995,26.253 82,28.5C 81.7811,27.062 81.2811,25.7287 80.5,24.5C 78.802,25.6808 77.1353,25.6808 75.5,24.5C 76.9501,23.1502 77.6168,21.4835 77.5,19.5C 76.325,19.281 75.325,19.6143 74.5,20.5C 74.29,24.3801 72.29,26.0468 68.5,25.5C 68.8333,22.8333 69.1667,20.1667 69.5,17.5C 68.1667,17.5 66.8333,17.5 65.5,17.5C 68.7537,14.5285 72.4204,12.0285 76.5,10C 74.4473,9.67533 72.4473,10.0087 70.5,11C 67.4329,13.0996 64.4329,15.2663 61.5,17.5C 61.5,16.1667 61.5,14.8333 61.5,13.5C 63.5952,12.588 65.5952,11.4213 67.5,10C 66.244,9.58309 65.5774,8.74975 65.5,7.5 Z"/></g>
<g><path style="opacity:1" fill="#312d43" d="M 93.5,5.5 C 106.048,6.91658 118.048,9.91658 129.5,14.5C 128.952,16.3936 127.952,18.0603 126.5,19.5C 126.931,20.2935 127.265,21.1268 127.5,22C 125.889,24.2097 125.222,26.7097 125.5,29.5C 121.867,29.443 121.7,30.443 125,32.5C 126.897,30.9837 129.064,30.317 131.5,30.5C 131.771,32.8211 131.104,34.8211 129.5,36.5C 132.769,37.932 135.102,36.932 136.5,33.5C 142.064,36.3137 147.73,38.9804 153.5,41.5C 153.636,43.932 153.969,46.432 154.5,49C 152.618,49.1981 150.952,49.6981 149.5,50.5C 148.167,50.5 146.833,50.5 145.5,50.5C 145.5,50.1667 145.5,49.8333 145.5,49.5C 136.419,47.5175 127.086,46.5175 117.5,46.5C 118.088,40.8542 118.754,40.5208 119.5,45.5C 124.167,45.5 128.833,45.5 133.5,45.5C 133.321,40.6415 130.988,38.9749 126.5,40.5C 124.543,37.983 121.876,36.8163 118.5,37C 118.833,36.6667 119.167,36.3333 119.5,36C 118.584,35.6258 117.75,35.1258 117,34.5C 115,35.8333 113,37.1667 111,38.5C 110.667,38.1667 110.333,37.8333 110,37.5C 110.324,41.389 109.491,41.389 107.5,37.5C 108.14,34.3522 109.14,34.0188 110.5,36.5C 113.023,34.3338 112.69,32.6671 109.5,31.5C 104.554,31.2913 103.221,29.2913 105.5,25.5C 102.929,24.2723 101.595,22.2723 101.5,19.5C 104.633,19.2389 105.8,17.5723 105,14.5C 99.3042,21.3224 98.1376,20.4891 101.5,12C 101.355,10.7741 101.022,9.60738 100.5,8.5C 95.8783,7.6881 91.3783,7.35476 87,7.5C 85.6693,8.9958 84.1693,10.3291 82.5,11.5C 81.7348,10.3881 80.7348,9.72142 79.5,9.5C 83.6795,6.90103 88.3462,5.56769 93.5,5.5 Z"/></g>
<g><path style="opacity:1" fill="#0d0f18" d="M 65.5,17.5 C 62.9308,18.3956 60.9308,20.0623 59.5,22.5C 56.3087,27.2098 53.9754,32.2098 52.5,37.5C 52.1667,37.5 51.8333,37.5 51.5,37.5C 53.2486,30.0029 56.5819,23.3362 61.5,17.5C 64.4329,15.2663 67.4329,13.0996 70.5,11C 72.4473,10.0087 74.4473,9.67533 76.5,10C 72.4204,12.0285 68.7537,14.5285 65.5,17.5 Z"/></g>
<g><path style="opacity:1" fill="#312d42" d="M 53.5,7.5 C 57.5,7.5 61.5,7.5 65.5,7.5C 65.5774,8.74975 66.244,9.58309 67.5,10C 65.5952,11.4213 63.5952,12.588 61.5,13.5C 60.7211,11.0728 59.5545,11.0728 58,13.5C 56.1183,17.2757 54.785,21.2757 54,25.5C 52.8904,23.9632 51.3904,23.2965 49.5,23.5C 49.719,24.675 49.3857,25.675 48.5,26.5C 45.9639,26.8444 43.7972,27.8444 42,29.5C 39.2195,29.1053 37.0528,27.772 35.5,25.5C 34.8408,28.8237 32.8408,30.1571 29.5,29.5C 32.062,25.2655 35.062,21.4321 38.5,18C 41.8164,15.6833 44.8164,13.0166 47.5,10C 49.4068,8.87803 51.4068,8.04469 53.5,7.5 Z"/></g>
<g><path style="opacity:1" fill="#282832" d="M 129.5,14.5 C 139.582,18.602 148.248,24.602 155.5,32.5C 151.625,31.8233 147.625,31.9899 143.5,33C 149.483,35.772 156.15,38.6054 163.5,41.5C 165.176,42.1834 165.843,43.5168 165.5,45.5C 156.312,40.5009 146.978,35.6676 137.5,31C 131.19,30.1393 130.856,30.9726 136.5,33.5C 135.102,36.932 132.769,37.932 129.5,36.5C 131.104,34.8211 131.771,32.8211 131.5,30.5C 129.064,30.317 126.897,30.9837 125,32.5C 121.7,30.443 121.867,29.443 125.5,29.5C 125.222,26.7097 125.889,24.2097 127.5,22C 127.265,21.1268 126.931,20.2935 126.5,19.5C 127.952,18.0603 128.952,16.3936 129.5,14.5 Z"/></g>
<g><path style="opacity:1" fill="#312e4b" d="M 155.5,32.5 C 158.167,35.5 160.833,38.5 163.5,41.5C 156.15,38.6054 149.483,35.772 143.5,33C 147.625,31.9899 151.625,31.8233 155.5,32.5 Z"/></g>
<g><path style="opacity:1" fill="#353457" d="M 65.5,17.5 C 66.8333,17.5 68.1667,17.5 69.5,17.5C 69.1667,20.1667 68.8333,22.8333 68.5,25.5C 72.29,26.0468 74.29,24.3801 74.5,20.5C 75.325,19.6143 76.325,19.281 77.5,19.5C 77.6168,21.4835 76.9501,23.1502 75.5,24.5C 77.1353,25.6808 78.802,25.6808 80.5,24.5C 81.2811,25.7287 81.7811,27.062 82,28.5C 83.995,26.253 86.495,25.253 89.5,25.5C 89.238,26.9778 89.5713,28.3112 90.5,29.5C 92.8235,26.8739 95.1568,24.2072 97.5,21.5C 98.451,20.6744 99.451,20.5078 100.5,21C 96.9684,23.2856 96.3018,25.9522 98.5,29C 95.4492,31.3981 92.4492,33.7315 89.5,36C 89.6301,37.0588 90.1301,37.8921 91,38.5C 91.9653,36.7397 93.132,36.4063 94.5,37.5C 91.8333,38.5 91.8333,39.5 94.5,40.5C 96.1376,39.2954 96.4709,37.9621 95.5,36.5C 96.6888,35.5713 98.0222,35.238 99.5,35.5C 99.281,36.675 99.6143,37.675 100.5,38.5C 103.349,35.9163 106.349,33.583 109.5,31.5C 112.69,32.6671 113.023,34.3338 110.5,36.5C 109.14,34.0188 108.14,34.3522 107.5,37.5C 109.491,41.389 110.324,41.389 110,37.5C 110.333,37.8333 110.667,38.1667 111,38.5C 113,37.1667 115,35.8333 117,34.5C 117.75,35.1258 118.584,35.6258 119.5,36C 119.167,36.3333 118.833,36.6667 118.5,37C 121.876,36.8163 124.543,37.983 126.5,40.5C 130.988,38.9749 133.321,40.6415 133.5,45.5C 128.833,45.5 124.167,45.5 119.5,45.5C 118.754,40.5208 118.088,40.8542 117.5,46.5C 114.833,46.5 112.167,46.5 109.5,46.5C 106.664,46.7978 106.164,46.1311 108,44.5C 109.299,44.9662 110.799,44.9662 112.5,44.5C 112.649,43.448 112.483,42.448 112,41.5C 108.388,44.6845 106.221,44.0178 105.5,39.5C 101.786,39.1488 98.1197,39.8154 94.5,41.5C 91.9112,40.4299 89.4112,39.0966 87,37.5C 85.7112,39.0854 84.2112,40.4187 82.5,41.5C 80.2024,39.9702 78.3691,40.3035 77,42.5C 76.5172,41.552 76.3505,40.552 76.5,39.5C 73.5176,39.9629 70.5176,40.2962 67.5,40.5C 67.6495,41.552 67.4828,42.552 67,43.5C 66.6824,41.9391 65.8491,40.7724 64.5,40C 67.2297,38.7684 67.063,37.935 64,37.5C 61.4731,37.6696 60.9731,38.6696 62.5,40.5C 59.5439,42.0321 56.5439,42.3654 53.5,41.5C 52.5713,40.3112 52.238,38.9778 52.5,37.5C 53.9754,32.2098 56.3087,27.2098 59.5,22.5C 60.9308,20.0623 62.9308,18.3956 65.5,17.5 Z"/></g>
<g><path style="opacity:1" fill="#2f2d46" d="M 51.5,37.5 C 51.8333,37.5 52.1667,37.5 52.5,37.5C 52.238,38.9778 52.5713,40.3112 53.5,41.5C 56.5439,42.3654 59.5439,42.0321 62.5,40.5C 60.9731,38.6696 61.4731,37.6696 64,37.5C 67.063,37.935 67.2297,38.7684 64.5,40C 65.8491,40.7724 66.6824,41.9391 67,43.5C 67.4828,42.552 67.6495,41.552 67.5,40.5C 70.5176,40.2962 73.5176,39.9629 76.5,39.5C 76.3505,40.552 76.5172,41.552 77,42.5C 78.3691,40.3035 80.2024,39.9702 82.5,41.5C 84.2112,40.4187 85.7112,39.0854 87,37.5C 89.4112,39.0966 91.9112,40.4299 94.5,41.5C 93.1516,42.6006 91.6516,43.6006 90,44.5C 89.7508,43.376 89.2508,42.376 88.5,41.5C 87.3044,41.8457 87.3044,42.3457 88.5,43C 85.8127,44.1951 83.146,44.3618 80.5,43.5C 79.8333,44.1667 79.1667,44.8333 78.5,45.5C 75.9696,45.6938 73.4696,45.0272 71,43.5C 69.1118,43.796 67.2784,44.296 65.5,45C 65.1619,47.2068 64.3285,49.3734 63,51.5C 64.3333,53.5 65.6667,55.5 67,57.5C 67.3095,56.2341 67.8095,55.0674 68.5,54C 67.0439,53.5774 66.5439,52.7441 67,51.5C 72.6115,53.2626 72.7781,56.0959 67.5,60C 64.0142,61.996 60.6809,64.1627 57.5,66.5C 56.9466,63.2064 57.9466,61.5397 60.5,61.5C 56.7874,59.6628 56.7874,58.1628 60.5,57C 57.8658,56.0134 55.5325,54.5134 53.5,52.5C 53.8333,51.8333 54.1667,51.1667 54.5,50.5C 53.0921,49.7568 51.7588,48.9234 50.5,48C 51.6537,47.0862 51.487,46.2529 50,45.5C 49.3333,46.8333 48.6667,48.1667 48,49.5C 47.8333,48.8333 47.6667,48.1667 47.5,47.5C 48.4303,45.8953 48.4303,44.3953 47.5,43C 48.7473,40.9844 50.0806,39.1511 51.5,37.5 Z"/></g>
<g><path style="opacity:1" fill="#2c2735" d="M 109.5,46.5 C 104.289,47.222 98.9561,48.0553 93.5,49C 94.7932,49.49 96.1266,49.6567 97.5,49.5C 97.5,49.8333 97.5,50.1667 97.5,50.5C 92.4636,50.5878 87.4636,51.0878 82.5,52C 75.7384,56.0339 69.4051,60.5339 63.5,65.5C 61.9731,65.427 60.9731,66.0937 60.5,67.5C 59.5084,67.3284 58.8417,67.6618 58.5,68.5C 57.8333,68.5 57.5,68.8333 57.5,69.5C 55.4822,70.8592 53.4822,72.1925 51.5,73.5C 51.0618,73.5654 50.7284,73.3988 50.5,73C 52.9071,70.8169 55.2404,68.6503 57.5,66.5C 60.6809,64.1627 64.0142,61.996 67.5,60C 72.7781,56.0959 72.6115,53.2626 67,51.5C 66.5439,52.7441 67.0439,53.5774 68.5,54C 67.8095,55.0674 67.3095,56.2341 67,57.5C 65.6667,55.5 64.3333,53.5 63,51.5C 64.3285,49.3734 65.1619,47.2068 65.5,45C 67.2784,44.296 69.1118,43.796 71,43.5C 73.4696,45.0272 75.9696,45.6938 78.5,45.5C 79.1667,44.8333 79.8333,44.1667 80.5,43.5C 83.146,44.3618 85.8127,44.1951 88.5,43C 87.3044,42.3457 87.3044,41.8457 88.5,41.5C 89.2508,42.376 89.7508,43.376 90,44.5C 91.6516,43.6006 93.1516,42.6006 94.5,41.5C 98.1197,39.8154 101.786,39.1488 105.5,39.5C 106.221,44.0178 108.388,44.6845 112,41.5C 112.483,42.448 112.649,43.448 112.5,44.5C 110.799,44.9662 109.299,44.9662 108,44.5C 106.164,46.1311 106.664,46.7978 109.5,46.5 Z"/></g>
<g><path style="opacity:1" fill="#140e1a" d="M 109.5,46.5 C 112.167,46.5 114.833,46.5 117.5,46.5C 127.086,46.5175 136.419,47.5175 145.5,49.5C 134.518,48.7141 123.518,48.3808 112.5,48.5C 111.209,48.2627 110.209,48.596 109.5,49.5C 108.167,49.5 106.833,49.5 105.5,49.5C 102.833,49.5 100.167,49.5 97.5,49.5C 96.1266,49.6567 94.7932,49.49 93.5,49C 98.9561,48.0553 104.289,47.222 109.5,46.5 Z"/></g>
<g><path style="opacity:1" fill="#26252b" d="M 153.5,41.5 C 164.476,46.4649 173.143,53.9649 179.5,64C 179.167,64.5 178.833,65 178.5,65.5C 176.211,63.008 173.877,60.508 171.5,58C 170.563,57.3083 169.897,57.475 169.5,58.5C 169.167,58.5 168.833,58.5 168.5,58.5C 164.136,55.1694 159.136,53.1694 153.5,52.5C 152.167,51.8333 150.833,51.1667 149.5,50.5C 150.952,49.6981 152.618,49.1981 154.5,49C 153.969,46.432 153.636,43.932 153.5,41.5 Z"/></g>
<g><path style="opacity:1" fill="#3c3b6b" d="M 33.5,57.5 C 31.7332,52.6301 28.3999,51.2967 23.5,53.5C 22.4777,53.1445 21.811,52.4778 21.5,51.5C 21.5,50.8333 21.5,50.1667 21.5,49.5C 22.9008,49.0291 24.2342,48.3624 25.5,47.5C 25.1203,45.9793 24.9536,44.3126 25,42.5C 24.044,43.5786 23.2106,44.7453 22.5,46C 19.4937,46.3324 16.6604,47.1657 14,48.5C 12.951,46.8934 11.451,46.2267 9.5,46.5C 9.5,45.5 9.5,44.5 9.5,43.5C 10.5462,41.2641 11.8795,39.2641 13.5,37.5C 14.7498,37.4226 15.5831,36.756 16,35.5C 16.6797,37.513 18.013,38.8464 20,39.5C 21.5971,38.1153 23.4305,37.4486 25.5,37.5C 25.5958,33.6893 26.2624,33.6893 27.5,37.5C 30.7936,35.333 34.1269,35.1663 37.5,37C 34.9722,37.9978 34.9722,38.8311 37.5,39.5C 39.0293,39.4712 40.196,38.8045 41,37.5C 41.3333,38.1667 41.6667,38.8333 42,39.5C 42.6395,36.8877 43.8062,34.5543 45.5,32.5C 43.8651,29.2949 44.8651,28.1282 48.5,29C 49.8088,30.7507 49.4755,32.2507 47.5,33.5C 48.4847,35.0983 48.6514,36.765 48,38.5C 46.7014,41.2087 45.2014,43.0421 43.5,44C 45.2254,46.8857 45.8921,50.0523 45.5,53.5C 44.5,53.5 43.5,53.5 42.5,53.5C 43.9875,58.0986 42.6541,58.7653 38.5,55.5C 37.4164,54.3349 36.5831,53.0016 36,51.5C 32.9517,52.7828 32.785,54.4495 35.5,56.5C 35.0431,57.2975 34.3764,57.6309 33.5,57.5 Z"/></g>
<g><path style="opacity:1" fill="#8d5dc6" d="M 112.5,48.5 C 123.518,48.3808 134.518,48.7141 145.5,49.5C 145.5,49.8333 145.5,50.1667 145.5,50.5C 139.299,50.9402 133.299,52.2735 127.5,54.5C 127.833,54.8333 128.167,55.1667 128.5,55.5C 132.695,53.7672 137.029,53.2672 141.5,54C 136.628,55.1029 131.962,56.7696 127.5,59C 126.549,59.7175 126.383,60.5509 127,61.5C 130.146,59.1744 133.646,57.841 137.5,57.5C 138.338,57.8417 138.672,58.5084 138.5,59.5C 134.88,60.7932 131.88,62.7932 129.5,65.5C 127.516,65.3832 125.85,66.0499 124.5,67.5C 123.735,66.3881 122.735,65.7214 121.5,65.5C 121.19,63.8564 120.19,62.8564 118.5,62.5C 119.5,61.8333 120.5,61.1667 121.5,60.5C 122.833,59.5 122.833,58.5 121.5,57.5C 119.747,55.7775 117.747,54.2775 115.5,53C 114.117,51.7292 113.117,50.2292 112.5,48.5 Z"/></g>
<g><path style="opacity:1" fill="#9b6dd3" d="M 97.5,50.5 C 105.958,51.6105 113.958,53.9439 121.5,57.5C 121.38,58.5862 120.713,59.2528 119.5,59.5C 111.478,56.0775 103.145,54.0775 94.5,53.5C 91.5,53.6667 88.5,53.8333 85.5,54C 83.9069,54.9487 82.5736,56.1154 81.5,57.5C 78.3968,59.4233 75.3968,61.59 72.5,64C 69.6074,65.1488 66.6074,65.6488 63.5,65.5C 69.4051,60.5339 75.7384,56.0339 82.5,52C 87.4636,51.0878 92.4636,50.5878 97.5,50.5 Z"/></g>
<g><path style="opacity:1" fill="#dfd1f0" d="M 109.5,49.5 C 110.209,48.596 111.209,48.2627 112.5,48.5C 113.117,50.2292 114.117,51.7292 115.5,53C 117.747,54.2775 119.747,55.7775 121.5,57.5C 113.958,53.9439 105.958,51.6105 97.5,50.5C 97.5,50.1667 97.5,49.8333 97.5,49.5C 100.167,49.5 102.833,49.5 105.5,49.5C 106.997,50.3058 108.664,50.9724 110.5,51.5C 111.67,50.3061 111.337,49.6395 109.5,49.5 Z"/></g>
<g><path style="opacity:1" fill="#a47cd1" d="M 105.5,49.5 C 106.833,49.5 108.167,49.5 109.5,49.5C 111.337,49.6395 111.67,50.3061 110.5,51.5C 108.664,50.9724 106.997,50.3058 105.5,49.5 Z"/></g>
<g><path style="opacity:1" fill="#e3d5f4" d="M 121.5,57.5 C 122.833,58.5 122.833,59.5 121.5,60.5C 112.768,58.2041 103.935,56.2041 95,54.5C 90.2689,54.8073 85.7689,55.8073 81.5,57.5C 82.5736,56.1154 83.9069,54.9487 85.5,54C 88.5,53.8333 91.5,53.6667 94.5,53.5C 103.145,54.0775 111.478,56.0775 119.5,59.5C 120.713,59.2528 121.38,58.5862 121.5,57.5 Z"/></g>
<g><path style="opacity:1" fill="#a27ad4" d="M 153.5,52.5 C 159.136,53.1694 164.136,55.1694 168.5,58.5C 168.265,59.0967 167.765,59.4301 167,59.5C 165.433,58.1439 163.6,57.4772 161.5,57.5C 155.697,54.3035 149.364,52.8035 142.5,53C 146.152,52.5014 149.818,52.3347 153.5,52.5 Z"/></g>
<g><path style="opacity:1" fill="#ded1f0" d="M 145.5,50.5 C 146.833,50.5 148.167,50.5 149.5,50.5C 150.833,51.1667 152.167,51.8333 153.5,52.5C 149.818,52.3347 146.152,52.5014 142.5,53C 149.364,52.8035 155.697,54.3035 161.5,57.5C 156.889,56.5151 152.223,55.8484 147.5,55.5C 143.883,55.3981 140.55,56.0648 137.5,57.5C 133.646,57.841 130.146,59.1744 127,61.5C 126.383,60.5509 126.549,59.7175 127.5,59C 131.962,56.7696 136.628,55.1029 141.5,54C 137.029,53.2672 132.695,53.7672 128.5,55.5C 128.167,55.1667 127.833,54.8333 127.5,54.5C 133.299,52.2735 139.299,50.9402 145.5,50.5 Z"/></g>
<g><path style="opacity:1" fill="#b289e5" d="M 161.5,57.5 C 162.833,58.8333 164.167,60.1667 165.5,61.5C 164.167,61.5 162.833,61.5 161.5,61.5C 159.266,59.5541 156.599,58.3874 153.5,58C 149.311,57.1881 145.311,57.3547 141.5,58.5C 140.391,58.5569 139.391,58.8902 138.5,59.5C 138.672,58.5084 138.338,57.8417 137.5,57.5C 140.55,56.0648 143.883,55.3981 147.5,55.5C 152.223,55.8484 156.889,56.5151 161.5,57.5 Z"/></g>
<g><path style="opacity:1" fill="#ab7ee0" d="M 121.5,60.5 C 120.5,61.1667 119.5,61.8333 118.5,62.5C 116.958,61.6993 115.292,61.366 113.5,61.5C 110.497,59.7383 107.163,58.5717 103.5,58C 98.1667,57.3333 92.8333,57.3333 87.5,58C 81.1559,61.5038 75.1559,65.5038 69.5,70C 65.5252,70.987 61.8585,70.487 58.5,68.5C 58.8417,67.6618 59.5084,67.3284 60.5,67.5C 69.5156,68.1571 76.5156,64.8238 81.5,57.5C 85.7689,55.8073 90.2689,54.8073 95,54.5C 103.935,56.2041 112.768,58.2041 121.5,60.5 Z"/></g>
<g><path style="opacity:1" fill="#cdc7d4" d="M 113.5,61.5 C 108.73,61.3084 104.064,60.475 99.5,59C 89.1637,58.2806 80.497,61.7806 73.5,69.5C 76.7683,70.487 80.1016,70.8204 83.5,70.5C 84.2739,71.1471 85.2739,71.4805 86.5,71.5C 88.5351,70.7957 90.5351,70.129 92.5,69.5C 92.5,70.5 92.5,71.5 92.5,72.5C 81.164,72.2406 69.8306,71.9072 58.5,71.5C 58.5,70.5 58.5,69.5 58.5,68.5C 61.8585,70.487 65.5252,70.987 69.5,70C 75.1559,65.5038 81.1559,61.5038 87.5,58C 92.8333,57.3333 98.1667,57.3333 103.5,58C 107.163,58.5717 110.497,59.7383 113.5,61.5 Z"/></g>
<g><path style="opacity:1" fill="#3e3e3e" d="M 141.5,58.5 C 147.257,57.9317 152.59,58.9317 157.5,61.5C 157.5,61.8333 157.5,62.1667 157.5,62.5C 151.107,58.7447 144.774,58.7447 138.5,62.5C 138.5,62.1667 138.5,61.8333 138.5,61.5C 139.694,60.7281 140.694,59.7281 141.5,58.5 Z"/></g>
<g><path style="opacity:1" fill="#c3bec7" d="M 141.5,58.5 C 145.311,57.3547 149.311,57.1881 153.5,58C 156.599,58.3874 159.266,59.5541 161.5,61.5C 160.167,61.5 158.833,61.5 157.5,61.5C 152.59,58.9317 147.257,57.9317 141.5,58.5 Z"/></g>
<g><path style="opacity:1" fill="#ebeaeb" d="M 105.5,71.5 C 102.038,72.4816 98.3714,72.815 94.5,72.5C 93.8333,72.5 93.1667,72.5 92.5,72.5C 92.5,71.5 92.5,70.5 92.5,69.5C 90.5351,70.129 88.5351,70.7957 86.5,71.5C 85.2739,71.4805 84.2739,71.1471 83.5,70.5C 84.1656,63.6697 87.999,60.0031 95,59.5C 101.975,60.6322 105.475,64.6322 105.5,71.5 Z"/></g>
<g><path style="opacity:1" fill="#121212" d="M 113.5,61.5 C 115.837,63.3964 118.504,64.7297 121.5,65.5C 123.246,67.5342 123.58,69.7009 122.5,72C 116.868,71.7825 111.201,71.6158 105.5,71.5C 105.475,64.6322 101.975,60.6322 95,59.5C 87.999,60.0031 84.1656,63.6697 83.5,70.5C 80.1016,70.8204 76.7683,70.487 73.5,69.5C 80.497,61.7806 89.1637,58.2806 99.5,59C 104.064,60.475 108.73,61.3084 113.5,61.5 Z"/></g>
<g><path style="opacity:1" fill="#efeeef" d="M 157.5,62.5 C 157.733,64.0618 158.4,65.3951 159.5,66.5C 159.5,68.1667 159.5,69.8333 159.5,71.5C 164.619,70.8969 169.285,71.5636 173.5,73.5C 173.5,74.1667 173.5,74.8333 173.5,75.5C 172.833,75.5 172.5,75.1667 172.5,74.5C 164.567,72.5316 156.234,71.865 147.5,72.5C 146.596,71.791 146.263,70.791 146.5,69.5C 144.058,69.3537 143.391,70.187 144.5,72C 141.854,72.4974 139.187,72.6641 136.5,72.5C 136.5,70.5 136.5,68.5 136.5,66.5C 137.167,65.1667 137.833,63.8333 138.5,62.5C 144.774,58.7447 151.107,58.7447 157.5,62.5 Z"/></g>
<g><path style="opacity:1" fill="#0a0a0a" d="M 157.5,61.5 C 158.833,61.5 160.167,61.5 161.5,61.5C 165.007,63.754 168.673,65.754 172.5,67.5C 172.5,68.5 172.5,69.5 172.5,70.5C 168.5,70.5 164.5,70.5 160.5,70.5C 160.768,68.901 160.434,67.5676 159.5,66.5C 158.4,65.3951 157.733,64.0618 157.5,62.5C 157.5,62.1667 157.5,61.8333 157.5,61.5 Z"/></g>
<g><path style="opacity:1" fill="#0f0f0f" d="M 138.5,61.5 C 138.5,61.8333 138.5,62.1667 138.5,62.5C 137.833,63.8333 137.167,65.1667 136.5,66.5C 135.549,67.9187 135.216,69.5853 135.5,71.5C 132.167,71.5 128.833,71.5 125.5,71.5C 125.351,70.448 125.517,69.448 126,68.5C 127.518,67.8366 128.685,66.8366 129.5,65.5C 132.5,64.1667 135.5,62.8333 138.5,61.5 Z"/></g>
<g><path style="opacity:1" fill="#cfc6d9" d="M 161.5,57.5 C 163.6,57.4772 165.433,58.1439 167,59.5C 167.765,59.4301 168.265,59.0967 168.5,58.5C 168.833,58.5 169.167,58.5 169.5,58.5C 171.252,60.2459 172.585,62.2459 173.5,64.5C 173.737,65.791 173.404,66.791 172.5,67.5C 168.673,65.754 165.007,63.754 161.5,61.5C 162.833,61.5 164.167,61.5 165.5,61.5C 164.167,60.1667 162.833,58.8333 161.5,57.5 Z"/></g>
<g><path style="opacity:1" fill="#9f78d0" d="M 165.5,61.5 C 168.022,61.1281 170.022,61.9614 171.5,64C 169.179,64.008 167.179,63.1747 165.5,61.5 Z"/></g>
<g><path style="opacity:1" fill="#25284a" d="M 21.5,49.5 C 19.1097,51.7339 17.2763,54.4006 16,57.5C 14.2433,62.9389 12.41,68.2723 10.5,73.5C 6.78519,73.423 3.11853,73.7564 -0.5,74.5C -0.5,73.5 -0.5,72.5 -0.5,71.5C 1.38165,71.5107 3.38165,71.844 5.5,72.5C 6.65476,69.5541 6.82142,66.5541 6,63.5C 4.66667,62.1667 3.33333,62.1667 2,63.5C 1.53566,62.9056 1.36899,62.2389 1.5,61.5C 1.01707,57.4231 2.68373,55.0897 6.5,54.5C 6.43177,50.4296 7.43177,46.763 9.5,43.5C 9.5,44.5 9.5,45.5 9.5,46.5C 11.451,46.2267 12.951,46.8934 14,48.5C 16.6604,47.1657 19.4937,46.3324 22.5,46C 23.2106,44.7453 24.044,43.5786 25,42.5C 24.9536,44.3126 25.1203,45.9793 25.5,47.5C 24.2342,48.3624 22.9008,49.0291 21.5,49.5 Z"/></g>
<g><path style="opacity:1" fill="#272727" d="M 89.5,63.5 C 90.9778,63.238 92.3112,63.5713 93.5,64.5C 92.8333,64.8333 92.1667,65.1667 91.5,65.5C 90.2867,65.2528 89.62,64.5862 89.5,63.5 Z"/></g>
<g><path style="opacity:1" fill="#c4bfca" d="M 113.5,61.5 C 115.292,61.366 116.958,61.6993 118.5,62.5C 120.19,62.8564 121.19,63.8564 121.5,65.5C 118.504,64.7297 115.837,63.3964 113.5,61.5 Z"/></g>
<g><path style="opacity:1" fill="#cac5d0" d="M 141.5,58.5 C 140.694,59.7281 139.694,60.7281 138.5,61.5C 135.5,62.8333 132.5,64.1667 129.5,65.5C 131.88,62.7932 134.88,60.7932 138.5,59.5C 139.391,58.8902 140.391,58.5569 141.5,58.5 Z"/></g>
<g><path style="opacity:1" fill="#2d2d2d" d="M 143.5,62.5 C 144.376,62.3691 145.043,62.7025 145.5,63.5C 143.192,64.8734 142.525,64.5401 143.5,62.5 Z"/></g>
<g><path style="opacity:1" fill="#373256" d="M 61.5,13.5 C 61.5,14.8333 61.5,16.1667 61.5,17.5C 56.5819,23.3362 53.2486,30.0029 51.5,37.5C 50.0806,39.1511 48.7473,40.9844 47.5,43C 48.4303,44.3953 48.4303,45.8953 47.5,47.5C 47.6667,48.1667 47.8333,48.8333 48,49.5C 48.6667,48.1667 49.3333,46.8333 50,45.5C 51.487,46.2529 51.6537,47.0862 50.5,48C 51.7588,48.9234 53.0921,49.7568 54.5,50.5C 54.1667,51.1667 53.8333,51.8333 53.5,52.5C 55.5325,54.5134 57.8658,56.0134 60.5,57C 56.7874,58.1628 56.7874,59.6628 60.5,61.5C 57.9466,61.5397 56.9466,63.2064 57.5,66.5C 55.2404,68.6503 52.9071,70.8169 50.5,73C 50.7284,73.3988 51.0618,73.5654 51.5,73.5C 51.1667,74.5 50.5,75.1667 49.5,75.5C 49.5654,75.0618 49.3988,74.7284 49,74.5C 45.3776,77.1421 42.211,80.1421 39.5,83.5C 37.3125,78.7439 36.9792,73.7439 38.5,68.5C 37.8333,66.5 36.5,65.1667 34.5,64.5C 33.5258,62.2573 33.1924,59.924 33.5,57.5C 34.3764,57.6309 35.0431,57.2975 35.5,56.5C 32.785,54.4495 32.9517,52.7828 36,51.5C 36.5831,53.0016 37.4164,54.3349 38.5,55.5C 42.6541,58.7653 43.9875,58.0986 42.5,53.5C 43.5,53.5 44.5,53.5 45.5,53.5C 45.8921,50.0523 45.2254,46.8857 43.5,44C 45.2014,43.0421 46.7014,41.2087 48,38.5C 48.6514,36.765 48.4847,35.0983 47.5,33.5C 49.4755,32.2507 49.8088,30.7507 48.5,29C 44.8651,28.1282 43.8651,29.2949 45.5,32.5C 43.8062,34.5543 42.6395,36.8877 42,39.5C 41.6667,38.8333 41.3333,38.1667 41,37.5C 40.196,38.8045 39.0293,39.4712 37.5,39.5C 34.9722,38.8311 34.9722,37.9978 37.5,37C 34.1269,35.1663 30.7936,35.333 27.5,37.5C 26.2624,33.6893 25.5958,33.6893 25.5,37.5C 23.4305,37.4486 21.5971,38.1153 20,39.5C 18.013,38.8464 16.6797,37.513 16,35.5C 15.5831,36.756 14.7498,37.4226 13.5,37.5C 15.9735,33.5917 19.1402,30.2584 23,27.5C 25.7086,28.99 25.8753,30.49 23.5,32C 26.3397,32.9661 28.3397,32.1328 29.5,29.5C 32.8408,30.1571 34.8408,28.8237 35.5,25.5C 37.0528,27.772 39.2195,29.1053 42,29.5C 43.7972,27.8444 45.9639,26.8444 48.5,26.5C 49.3857,25.675 49.719,24.675 49.5,23.5C 51.3904,23.2965 52.8904,23.9632 54,25.5C 54.785,21.2757 56.1183,17.2757 58,13.5C 59.5545,11.0728 60.7211,11.0728 61.5,13.5 Z"/></g>
<g><path style="opacity:1" fill="#ddcef0" d="M 81.5,57.5 C 76.5156,64.8238 69.5156,68.1571 60.5,67.5C 60.9731,66.0937 61.9731,65.427 63.5,65.5C 66.6074,65.6488 69.6074,65.1488 72.5,64C 75.3968,61.59 78.3968,59.4233 81.5,57.5 Z"/></g>
<g><path style="opacity:1" fill="#070707" d="M 149.5,66.5 C 150.5,66.5 151.5,66.5 152.5,66.5C 152.5,67.5 152.5,68.5 152.5,69.5C 152.5,68.5 152.5,67.5 152.5,66.5C 151.5,66.5 150.5,66.5 149.5,66.5 Z"/></g>
<g><path style="opacity:1" fill="#818181" d="M 149.5,66.5 C 150.568,65.5655 151.901,65.2322 153.5,65.5C 153.768,67.099 153.434,68.4324 152.5,69.5C 152.5,68.5 152.5,67.5 152.5,66.5C 151.5,66.5 150.5,66.5 149.5,66.5 Z"/></g>
<g><path style="opacity:1" fill="#414141" d="M 95.5,66.5 C 96.8333,66.5 98.1667,66.5 99.5,66.5C 99.5,67.5 99.5,68.5 99.5,69.5C 98.1667,69.5 96.8333,69.5 95.5,69.5C 95.5,68.5 95.5,67.5 95.5,66.5 Z"/></g>
<g><path style="opacity:1" fill="#151826" d="M 1.5,61.5 C 1.36899,62.2389 1.53566,62.9056 2,63.5C 3.33333,62.1667 4.66667,62.1667 6,63.5C 6.82142,66.5541 6.65476,69.5541 5.5,72.5C 3.38165,71.844 1.38165,71.5107 -0.5,71.5C -0.5,68.5 -0.5,65.5 -0.5,62.5C 0.166667,62.1667 0.833333,61.8333 1.5,61.5 Z"/></g>
<g><path style="opacity:1" fill="#545454" d="M 173.5,64.5 C 174.833,67.5 174.833,70.5 173.5,73.5C 169.285,71.5636 164.619,70.8969 159.5,71.5C 159.5,69.8333 159.5,68.1667 159.5,66.5C 160.434,67.5676 160.768,68.901 160.5,70.5C 164.5,70.5 168.5,70.5 172.5,70.5C 172.5,69.5 172.5,68.5 172.5,67.5C 173.404,66.791 173.737,65.791 173.5,64.5 Z"/></g>
<g><path style="opacity:1" fill="#a876eb" d="M 58.5,68.5 C 58.5,69.5 58.5,70.5 58.5,71.5C 69.8306,71.9072 81.164,72.2406 92.5,72.5C 93.1667,72.5 93.8333,72.5 94.5,72.5C 103.318,73.4933 112.318,73.8266 121.5,73.5C 122.998,79.348 120.998,83.1813 115.5,85C 104.167,85.6667 92.8333,85.6667 81.5,85C 78.8877,84.3605 76.5543,83.1938 74.5,81.5C 74.1667,81.8333 73.8333,82.1667 73.5,82.5C 76.8956,85.4671 80.8956,86.9671 85.5,87C 93.5,87.3333 101.5,87.6667 109.5,88C 103.04,91.0636 96.7068,94.3969 90.5,98C 91,98.1667 91.5,98.3333 92,98.5C 98.2588,95.6202 104.426,92.6202 110.5,89.5C 111.386,88.675 111.719,87.675 111.5,86.5C 114.86,86.3841 118.193,86.0508 121.5,85.5C 122.167,82.8333 122.833,80.1667 123.5,77.5C 123.5,76.1667 123.5,74.8333 123.5,73.5C 131.5,73.5 139.5,73.5 147.5,73.5C 155.684,73.1743 163.684,73.5076 171.5,74.5C 167.031,79.8477 162.364,84.8477 157.5,89.5C 153.213,90.2319 149.213,91.5652 145.5,93.5C 148.167,93.5 150.833,93.5 153.5,93.5C 155.833,93.8333 157.167,95.1667 157.5,97.5C 159.417,101.399 161.251,105.399 163,109.5C 163.667,110.5 163.667,111.5 163,112.5C 160.017,114.484 157.35,116.817 155,119.5C 151.676,120.05 148.509,120.717 145.5,121.5C 129.34,121.884 113.34,120.55 97.5,117.5C 93.9155,115.194 89.9155,113.861 85.5,113.5C 83.1632,111.604 80.4965,110.27 77.5,109.5C 73.4682,104.432 68.1348,102.598 61.5,104C 55.0312,106.986 53.8645,111.486 58,117.5C 60.1057,120.118 62.6057,122.118 65.5,123.5C 65.5,124.167 65.5,124.833 65.5,125.5C 66.2899,126.794 67.2899,127.961 68.5,129C 90.0141,140.67 113.014,146.17 137.5,145.5C 137.5,146.833 137.5,148.167 137.5,149.5C 122.15,153.669 106.483,155.669 90.5,155.5C 89.8333,155.5 89.5,155.167 89.5,154.5C 91.5273,154.662 93.5273,154.495 95.5,154C 83.6851,144.924 71.3518,136.591 58.5,129C 46.3856,117.399 41.5522,103.233 44,86.5C 49.5773,81.4524 54.0773,75.7858 57.5,69.5C 57.5,68.8333 57.8333,68.5 58.5,68.5 Z"/></g>
<g><path style="opacity:1" fill="#d3cdd9" d="M 121.5,65.5 C 122.735,65.7214 123.735,66.3881 124.5,67.5C 125.85,66.0499 127.516,65.3832 129.5,65.5C 128.685,66.8366 127.518,67.8366 126,68.5C 125.517,69.448 125.351,70.448 125.5,71.5C 128.833,71.5 132.167,71.5 135.5,71.5C 135.216,69.5853 135.549,67.9187 136.5,66.5C 136.5,68.5 136.5,70.5 136.5,72.5C 139.187,72.6641 141.854,72.4974 144.5,72C 143.391,70.187 144.058,69.3537 146.5,69.5C 146.263,70.791 146.596,71.791 147.5,72.5C 147.5,72.8333 147.5,73.1667 147.5,73.5C 139.5,73.5 131.5,73.5 123.5,73.5C 123.5,74.8333 123.5,76.1667 123.5,77.5C 122.833,76.1667 122.167,74.8333 121.5,73.5C 112.318,73.8266 103.318,73.4933 94.5,72.5C 98.3714,72.815 102.038,72.4816 105.5,71.5C 111.201,71.6158 116.868,71.7825 122.5,72C 123.58,69.7009 123.246,67.5342 121.5,65.5 Z"/></g>
<g><path style="opacity:1" fill="#dac3f9" d="M 147.5,73.5 C 147.5,73.1667 147.5,72.8333 147.5,72.5C 156.234,71.865 164.567,72.5316 172.5,74.5C 172.167,74.5 171.833,74.5 171.5,74.5C 163.684,73.5076 155.684,73.1743 147.5,73.5 Z"/></g>
<g><path style="opacity:1" fill="#312c46" d="M 21.5,51.5 C 21.811,52.4778 22.4777,53.1445 23.5,53.5C 28.3999,51.2967 31.7332,52.6301 33.5,57.5C 33.1924,59.924 33.5258,62.2573 34.5,64.5C 36.5,65.1667 37.8333,66.5 38.5,68.5C 36.9792,73.7439 37.3125,78.7439 39.5,83.5C 37.823,85.5398 36.1563,87.5398 34.5,89.5C 31.7136,88.7112 28.7136,88.5446 25.5,89C 27.9602,88.6039 29.9602,87.4372 31.5,85.5C 32.086,85.7093 32.586,86.0426 33,86.5C 33.6449,85.354 34.4783,84.354 35.5,83.5C 32.7272,83.4455 30.8939,81.7788 30,78.5C 27.9737,78.0853 26.4737,77.0853 25.5,75.5C 27.024,72.1552 28.1907,68.8219 29,65.5C 26.8118,68.5672 24.6452,71.5672 22.5,74.5C 21.8826,74.3893 21.3826,74.056 21,73.5C 19.1667,76 17.3333,78.5 15.5,81C 14.5165,81.5908 13.8499,81.2575 13.5,80C 15.7013,76.6848 15.7013,73.5181 13.5,70.5C 15.7207,63.9115 18.3874,57.5781 21.5,51.5 Z"/></g>
<g><path style="opacity:1" fill="#8453c0" d="M 57.5,69.5 C 54.0773,75.7858 49.5773,81.4524 44,86.5C 41.5522,103.233 46.3856,117.399 58.5,129C 71.3518,136.591 83.6851,144.924 95.5,154C 93.5273,154.495 91.5273,154.662 89.5,154.5C 83.5572,149.186 76.8905,144.853 69.5,141.5C 69.6309,140.624 69.2975,139.957 68.5,139.5C 60.7986,134.779 53.132,130.113 45.5,125.5C 41.709,120.392 38.3757,115.059 35.5,109.5C 32.4866,99.1176 34.6533,90.1176 42,82.5C 44.5062,80.1325 47.0062,77.7992 49.5,75.5C 50.5,75.1667 51.1667,74.5 51.5,73.5C 53.4822,72.1925 55.4822,70.8592 57.5,69.5 Z"/></g>
<g><path style="opacity:1" fill="#040408" d="M 25.5,75.5 C 22.0534,80.0586 19.3867,85.0586 17.5,90.5C 16.3501,91.8502 15.6834,91.6836 15.5,90C 17.4507,84.6031 19.7841,79.4364 22.5,74.5C 24.6452,71.5672 26.8118,68.5672 29,65.5C 28.1907,68.8219 27.024,72.1552 25.5,75.5 Z"/></g>
<g><path style="opacity:1" fill="#151726" d="M 21.5,49.5 C 21.5,50.1667 21.5,50.8333 21.5,51.5C 18.3874,57.5781 15.7207,63.9115 13.5,70.5C 15.7013,73.5181 15.7013,76.6848 13.5,80C 13.8499,81.2575 14.5165,81.5908 15.5,81C 17.3333,78.5 19.1667,76 21,73.5C 21.3826,74.056 21.8826,74.3893 22.5,74.5C 19.7841,79.4364 17.4507,84.6031 15.5,90C 15.6834,91.6836 16.3501,91.8502 17.5,90.5C 17.3404,92.153 16.6737,93.4863 15.5,94.5C 14.8826,94.6107 14.3826,94.944 14,95.5C 13.9874,92.1043 12.6541,89.4376 10,87.5C 9.22797,87.6448 8.5613,87.9781 8,88.5C 7.76791,87.2625 7.26791,86.2625 6.5,85.5C 4.87929,85.2131 3.87929,84.2131 3.5,82.5C 2.31116,81.5713 0.977822,81.238 -0.5,81.5C -0.5,79.1667 -0.5,76.8333 -0.5,74.5C 3.11853,73.7564 6.78519,73.423 10.5,73.5C 12.41,68.2723 14.2433,62.9389 16,57.5C 17.2763,54.4006 19.1097,51.7339 21.5,49.5 Z"/></g>
<g><path style="opacity:1" fill="#181021" d="M 49.5,75.5 C 47.0062,77.7992 44.5062,80.1325 42,82.5C 34.6533,90.1176 32.4866,99.1176 35.5,109.5C 34.1818,106.742 33.5152,103.576 33.5,100C 33.5371,96.4171 33.8705,92.9171 34.5,89.5C 36.1563,87.5398 37.823,85.5398 39.5,83.5C 42.211,80.1421 45.3776,77.1421 49,74.5C 49.3988,74.7284 49.5654,75.0618 49.5,75.5 Z"/></g>
<g><path style="opacity:1" fill="#353766" d="M -0.5,81.5 C 0.977822,81.238 2.31116,81.5713 3.5,82.5C 3.87929,84.2131 4.87929,85.2131 6.5,85.5C 6.53859,86.7562 6.03859,87.7562 5,88.5C 3.4157,87.1387 1.58236,86.472 -0.5,86.5C -0.5,84.8333 -0.5,83.1667 -0.5,81.5 Z"/></g>
<g><path style="opacity:1" fill="#d0c6db" d="M 171.5,74.5 C 171.833,74.5 172.167,74.5 172.5,74.5C 172.5,75.1667 172.833,75.5 173.5,75.5C 170.505,78.8122 167.505,82.1455 164.5,85.5C 162.6,87.6159 160.267,88.9493 157.5,89.5C 162.364,84.8477 167.031,79.8477 171.5,74.5 Z"/></g>
<g><path style="opacity:1" fill="#dfd1f2" d="M 121.5,73.5 C 122.167,74.8333 122.833,76.1667 123.5,77.5C 122.833,80.1667 122.167,82.8333 121.5,85.5C 118.193,86.0508 114.86,86.3841 111.5,86.5C 111.719,87.675 111.386,88.675 110.5,89.5C 104.426,92.6202 98.2588,95.6202 92,98.5C 91.5,98.3333 91,98.1667 90.5,98C 96.7068,94.3969 103.04,91.0636 109.5,88C 101.5,87.6667 93.5,87.3333 85.5,87C 80.8956,86.9671 76.8956,85.4671 73.5,82.5C 73.8333,82.1667 74.1667,81.8333 74.5,81.5C 76.5543,83.1938 78.8877,84.3605 81.5,85C 92.8333,85.6667 104.167,85.6667 115.5,85C 120.998,83.1813 122.998,79.348 121.5,73.5 Z"/></g>
<g><path style="opacity:1" fill="#ded2ee" d="M 157.5,89.5 C 155.703,90.393 154.37,91.7263 153.5,93.5C 150.833,93.5 148.167,93.5 145.5,93.5C 149.213,91.5652 153.213,90.2319 157.5,89.5 Z"/></g>
<g><path style="opacity:1" fill="#2d2a36" d="M 25.5,75.5 C 26.4737,77.0853 27.9737,78.0853 30,78.5C 30.8939,81.7788 32.7272,83.4455 35.5,83.5C 34.4783,84.354 33.6449,85.354 33,86.5C 32.586,86.0426 32.086,85.7093 31.5,85.5C 29.9602,87.4372 27.9602,88.6039 25.5,89C 28.7136,88.5446 31.7136,88.7112 34.5,89.5C 33.8705,92.9171 33.5371,96.4171 33.5,100C 33.5152,103.576 34.1818,106.742 35.5,109.5C 38.3757,115.059 41.709,120.392 45.5,125.5C 46.5,126.833 47.5,128.167 48.5,129.5C 46.6805,133.34 44.0139,136.673 40.5,139.5C 39.0095,137.874 37.5095,136.208 36,134.5C 34.1079,135.617 33.2746,137.284 33.5,139.5C 31.8212,139.285 30.8212,139.952 30.5,141.5C 29.8333,141.5 29.1667,141.5 28.5,141.5C 24.3978,138.515 22.0644,134.515 21.5,129.5C 20.0927,127.692 18.926,125.692 18,123.5C 17.744,119.053 16.9106,114.72 15.5,110.5C 15.9537,108.306 16.9537,106.473 18.5,105C 16.2733,101.873 15.2733,98.3733 15.5,94.5C 16.6737,93.4863 17.3404,92.153 17.5,90.5C 19.3867,85.0586 22.0534,80.0586 25.5,75.5 Z"/></g>
<g><path style="opacity:1" fill="#e1d3f3" d="M 145.5,93.5 C 142.642,94.2438 139.975,95.5772 137.5,97.5C 133.5,95.1667 129.5,92.8333 125.5,90.5C 126,90.1667 126.5,89.8333 127,89.5C 132.596,93.1009 138.763,94.4343 145.5,93.5 Z"/></g>
<g><path style="opacity:1" fill="#d0c9da" d="M 153.5,93.5 C 155.833,93.8333 157.167,95.1667 157.5,97.5C 155.167,97.1667 153.833,95.8333 153.5,93.5 Z"/></g>
<g><path style="opacity:1" fill="#3cb8f3" d="M 77.5,109.5 C 80.4965,110.27 83.1632,111.604 85.5,113.5C 88.8667,116.506 92.8667,117.84 97.5,117.5C 103.784,120.06 110.451,121.56 117.5,122C 128.833,122.333 140.167,122.667 151.5,123C 150.619,123.708 149.953,124.542 149.5,125.5C 147.456,126.031 145.789,127.198 144.5,129C 122.824,131.332 101.824,128.832 81.5,121.5C 83.1209,123.117 85.1209,124.284 87.5,125C 92.1667,126.333 96.8333,127.667 101.5,129C 115.149,130.381 128.482,131.881 141.5,133.5C 140.549,134.919 140.216,136.585 140.5,138.5C 128.822,138.485 117.155,138.152 105.5,137.5C 99.1915,134.928 92.5248,133.595 85.5,133.5C 78.5933,130.713 71.9266,127.38 65.5,123.5C 62.7864,120.444 60.2864,117.11 58,113.5C 56.5388,109.564 57.7054,107.064 61.5,106C 64.8333,105.333 68.1667,105.333 71.5,106C 73.4048,107.421 75.4048,108.588 77.5,109.5 Z"/></g>
<g><path style="opacity:1" fill="#d3d5f4" d="M 77.5,109.5 C 75.4048,108.588 73.4048,107.421 71.5,106C 68.1667,105.333 64.8333,105.333 61.5,106C 57.7054,107.064 56.5388,109.564 58,113.5C 60.2864,117.11 62.7864,120.444 65.5,123.5C 62.6057,122.118 60.1057,120.118 58,117.5C 53.8645,111.486 55.0312,106.986 61.5,104C 68.1348,102.598 73.4682,104.432 77.5,109.5 Z"/></g>
<g><path style="opacity:1" fill="#28294e" d="M -0.5,97.5 C 1.23711,100.008 2.07044,103.008 2,106.5C 2.41395,106.043 2.91395,105.709 3.5,105.5C 4.67331,107.979 4.67331,110.479 3.5,113C 5.45806,115.149 5.7914,117.482 4.5,120C 3.55198,120.483 2.55198,120.649 1.5,120.5C 2.08031,116.351 1.41365,112.684 -0.5,109.5C -0.5,105.5 -0.5,101.5 -0.5,97.5 Z"/></g>
<g><path style="opacity:1" fill="#38396c" d="M 5.5,133.5 C 5.74526,128.318 7.0786,123.485 9.5,119C 7.47187,114.722 6.47187,110.222 6.5,105.5C 6.33418,100.821 6.50085,96.1548 7,91.5C 7.30762,90.6919 7.80762,90.0253 8.5,89.5C 9.04677,92.7024 10.0468,95.7024 11.5,98.5C 10.1091,100.62 9.44243,102.953 9.5,105.5C 12.088,109.784 13.7547,114.451 14.5,119.5C 10.2984,123.906 7.29838,128.573 5.5,133.5 Z"/></g>
<g><path style="opacity:1" fill="#a674e9" d="M 168.5,121.5 C 165.752,125.702 162.752,129.702 159.5,133.5C 158.414,133.62 157.747,134.287 157.5,135.5C 158.918,141.816 162.584,146.149 168.5,148.5C 170.374,148.61 171.874,147.944 173,146.5C 173.223,141.75 173.723,137.084 174.5,132.5C 176.19,132.144 177.19,131.144 177.5,129.5C 182.8,129.382 185.466,132.049 185.5,137.5C 195.262,140.237 195.929,144.571 187.5,150.5C 187.833,150.833 188.167,151.167 188.5,151.5C 190.487,149.673 192.821,148.673 195.5,148.5C 197.066,152.895 196.4,156.895 193.5,160.5C 190.213,161.161 186.88,161.661 183.5,162C 182.177,162.816 181.511,163.983 181.5,165.5C 175.402,165.884 169.402,166.051 163.5,166C 162.44,167.298 161.274,168.465 160,169.5C 156.194,167.861 152.861,168.528 150,171.5C 149.381,174.032 148.381,176.365 147,178.5C 145.895,175.583 144.895,172.583 144,169.5C 140.583,165.262 137.083,161.262 133.5,157.5C 133.5,156.833 133.5,156.167 133.5,155.5C 136.044,154.292 137.378,152.292 137.5,149.5C 139.176,148.817 139.843,147.483 139.5,145.5C 140.222,145.082 140.722,144.416 141,143.5C 141.498,140.183 141.665,136.85 141.5,133.5C 144.548,131.118 147.215,128.452 149.5,125.5C 151.38,125.771 152.713,125.104 153.5,123.5C 156.185,119.869 159.519,116.869 163.5,114.5C 167.11,115.444 168.777,117.777 168.5,121.5 Z"/></g>
<g><path style="opacity:1" fill="#bee4f6" d="M 81.5,121.5 C 77.6311,121.149 74.1311,119.816 71,117.5C 69.2307,116.629 68.564,115.296 69,113.5C 72.977,116.565 77.1437,119.232 81.5,121.5 Z"/></g>
<g><path style="opacity:1" fill="#d6dcf8" d="M 85.5,113.5 C 89.9155,113.861 93.9155,115.194 97.5,117.5C 92.8667,117.84 88.8667,116.506 85.5,113.5 Z"/></g>
<g><path style="opacity:1" fill="#d5c9e4" d="M 157.5,97.5 C 161.563,101.626 164.063,106.626 165,112.5C 167.371,114.054 169.537,115.721 171.5,117.5C 171.5,118.167 171.5,118.833 171.5,119.5C 170.222,119.782 169.222,120.449 168.5,121.5C 168.777,117.777 167.11,115.444 163.5,114.5C 159.519,116.869 156.185,119.869 153.5,123.5C 151.365,121.631 148.698,120.964 145.5,121.5C 148.509,120.717 151.676,120.05 155,119.5C 157.35,116.817 160.017,114.484 163,112.5C 163.667,111.5 163.667,110.5 163,109.5C 161.251,105.399 159.417,101.399 157.5,97.5 Z"/></g>
<g><path style="opacity:1" fill="#c8e3f9" d="M 97.5,117.5 C 113.34,120.55 129.34,121.884 145.5,121.5C 148.698,120.964 151.365,121.631 153.5,123.5C 152.713,125.104 151.38,125.771 149.5,125.5C 149.953,124.542 150.619,123.708 151.5,123C 140.167,122.667 128.833,122.333 117.5,122C 110.451,121.56 103.784,120.06 97.5,117.5 Z"/></g>
<g><path style="opacity:1" fill="#171625" d="M -0.5,88.5 C 1.26241,88.3573 2.92908,88.6906 4.5,89.5C 5.16681,94.9853 5.83347,100.319 6.5,105.5C 6.47187,110.222 7.47187,114.722 9.5,119C 7.0786,123.485 5.74526,128.318 5.5,133.5C 1.13106,137.479 2.13106,139.146 8.5,138.5C 8.12528,135.093 9.12528,134.593 11.5,137C 10.0394,139.421 8.70605,141.921 7.5,144.5C 7.95689,145.298 8.62356,145.631 9.5,145.5C 10.5918,148.063 12.2585,150.23 14.5,152C 17.3118,153.328 19.9784,154.828 22.5,156.5C 25.0903,157.749 27.4236,159.416 29.5,161.5C 18.4246,157.605 9.42464,150.771 2.5,141C 1.55198,140.517 0.551975,140.351 -0.5,140.5C -0.5,130.167 -0.5,119.833 -0.5,109.5C 1.41365,112.684 2.08031,116.351 1.5,120.5C 2.55198,120.649 3.55198,120.483 4.5,120C 5.7914,117.482 5.45806,115.149 3.5,113C 4.67331,110.479 4.67331,107.979 3.5,105.5C 2.91395,105.709 2.41395,106.043 2,106.5C 2.07044,103.008 1.23711,100.008 -0.5,97.5C -0.5,94.5 -0.5,91.5 -0.5,88.5 Z"/></g>
<g><path style="opacity:1" fill="#f0ecf6" d="M 171.5,119.5 C 171.662,121.527 171.495,123.527 171,125.5C 170.444,123.405 169.944,123.238 169.5,125C 171,126.5 172.5,128 174,129.5C 174.902,129.257 175.735,128.923 176.5,128.5C 176.5,129.167 176.833,129.5 177.5,129.5C 177.19,131.144 176.19,132.144 174.5,132.5C 173.5,132.5 172.5,132.5 171.5,132.5C 169.593,129.668 166.927,128.834 163.5,130C 162.468,131.627 161.134,132.793 159.5,133.5C 162.752,129.702 165.752,125.702 168.5,121.5C 169.222,120.449 170.222,119.782 171.5,119.5 Z"/></g>
<g><path style="opacity:1" fill="#bfe1f4" d="M 81.5,121.5 C 101.824,128.832 122.824,131.332 144.5,129C 145.789,127.198 147.456,126.031 149.5,125.5C 147.215,128.452 144.548,131.118 141.5,133.5C 128.482,131.881 115.149,130.381 101.5,129C 96.8333,127.667 92.1667,126.333 87.5,125C 85.1209,124.284 83.1209,123.117 81.5,121.5 Z"/></g>
<g><path style="opacity:1" fill="#1a2239" d="M 6.5,85.5 C 7.26791,86.2625 7.76791,87.2625 8,88.5C 8.5613,87.9781 9.22797,87.6448 10,87.5C 12.6541,89.4376 13.9874,92.1043 14,95.5C 14.3826,94.944 14.8826,94.6107 15.5,94.5C 15.2733,98.3733 16.2733,101.873 18.5,105C 16.9537,106.473 15.9537,108.306 15.5,110.5C 16.9106,114.72 17.744,119.053 18,123.5C 18.926,125.692 20.0927,127.692 21.5,129.5C 20.4907,130.935 19.1574,131.769 17.5,132C 17.8333,132.333 18.1667,132.667 18.5,133C 15.7259,135.254 14.0593,138.087 13.5,141.5C 12.325,141.281 11.325,141.614 10.5,142.5C 11.1925,143.518 11.8592,144.518 12.5,145.5C 11.5,145.5 10.5,145.5 9.5,145.5C 8.62356,145.631 7.95689,145.298 7.5,144.5C 8.70605,141.921 10.0394,139.421 11.5,137C 9.12528,134.593 8.12528,135.093 8.5,138.5C 2.13106,139.146 1.13106,137.479 5.5,133.5C 7.29838,128.573 10.2984,123.906 14.5,119.5C 13.7547,114.451 12.088,109.784 9.5,105.5C 9.44243,102.953 10.1091,100.62 11.5,98.5C 10.0468,95.7024 9.04677,92.7024 8.5,89.5C 7.80762,90.0253 7.30762,90.6919 7,91.5C 6.50085,96.1548 6.33418,100.821 6.5,105.5C 5.83347,100.319 5.16681,94.9853 4.5,89.5C 2.92908,88.6906 1.26241,88.3573 -0.5,88.5C -0.5,87.8333 -0.5,87.1667 -0.5,86.5C 1.58236,86.472 3.4157,87.1387 5,88.5C 6.03859,87.7562 6.53859,86.7562 6.5,85.5 Z"/></g>
<g><path style="opacity:1" fill="#15101c" d="M 45.5,125.5 C 53.132,130.113 60.7986,134.779 68.5,139.5C 69.2975,139.957 69.6309,140.624 69.5,141.5C 68.448,141.649 67.448,141.483 66.5,141C 60.5704,136.874 54.5704,133.04 48.5,129.5C 47.5,128.167 46.5,126.833 45.5,125.5 Z"/></g>
<g><path style="opacity:1" fill="#d1d8ee" d="M 65.5,123.5 C 71.9266,127.38 78.5933,130.713 85.5,133.5C 84.1266,133.657 82.7932,133.49 81.5,133C 75.8594,130.963 70.5261,128.463 65.5,125.5C 65.5,124.833 65.5,124.167 65.5,123.5 Z"/></g>
<g><path style="opacity:1" fill="#a574e6" d="M 171.5,132.5 C 172.596,136.413 172.762,140.413 172,144.5C 168.855,147.083 165.855,146.75 163,143.5C 160.965,140.439 159.799,137.105 159.5,133.5C 161.134,132.793 162.468,131.627 163.5,130C 166.927,128.834 169.593,129.668 171.5,132.5 Z"/></g>
<g><path style="opacity:1" fill="#c7dbee" d="M 85.5,133.5 C 92.5248,133.595 99.1915,134.928 105.5,137.5C 98.4752,137.405 91.8085,136.072 85.5,133.5 Z"/></g>
<g><path style="opacity:1" fill="#8f5dcb" d="M 65.5,125.5 C 70.5261,128.463 75.8594,130.963 81.5,133C 82.7932,133.49 84.1266,133.657 85.5,133.5C 91.8085,136.072 98.4752,137.405 105.5,137.5C 116.566,139.897 127.9,140.897 139.5,140.5C 139.5,142.167 139.5,143.833 139.5,145.5C 138.833,145.5 138.167,145.5 137.5,145.5C 113.014,146.17 90.0141,140.67 68.5,129C 67.2899,127.961 66.2899,126.794 65.5,125.5 Z"/></g>
<g><path style="opacity:1" fill="#d2d5ee" d="M 141.5,133.5 C 141.665,136.85 141.498,140.183 141,143.5C 140.722,144.416 140.222,145.082 139.5,145.5C 139.5,143.833 139.5,142.167 139.5,140.5C 127.9,140.897 116.566,139.897 105.5,137.5C 117.155,138.152 128.822,138.485 140.5,138.5C 140.216,136.585 140.549,134.919 141.5,133.5 Z"/></g>
<g><path style="opacity:1" fill="#111723" d="M 21.5,129.5 C 22.0644,134.515 24.3978,138.515 28.5,141.5C 28.6309,142.376 28.2975,143.043 27.5,143.5C 24.8447,142.449 22.3447,141.116 20,139.5C 17.2926,140.707 15.4593,142.707 14.5,145.5C 13.8333,145.5 13.1667,145.5 12.5,145.5C 11.8592,144.518 11.1925,143.518 10.5,142.5C 11.325,141.614 12.325,141.281 13.5,141.5C 14.0593,138.087 15.7259,135.254 18.5,133C 18.1667,132.667 17.8333,132.333 17.5,132C 19.1574,131.769 20.4907,130.935 21.5,129.5 Z"/></g>
<g><path style="opacity:1" fill="#ded0f2" d="M 185.5,137.5 C 185.577,140.012 184.577,142.012 182.5,143.5C 182.167,143.167 181.833,142.833 181.5,142.5C 182.612,140.581 183.946,138.914 185.5,137.5 Z"/></g>
<g><path style="opacity:1" fill="#d7c9ea" d="M 171.5,132.5 C 172.5,132.5 173.5,132.5 174.5,132.5C 173.723,137.084 173.223,141.75 173,146.5C 171.874,147.944 170.374,148.61 168.5,148.5C 162.584,146.149 158.918,141.816 157.5,135.5C 157.747,134.287 158.414,133.62 159.5,133.5C 159.799,137.105 160.965,140.439 163,143.5C 165.855,146.75 168.855,147.083 172,144.5C 172.762,140.413 172.596,136.413 171.5,132.5 Z"/></g>
<g><path style="opacity:1" fill="#322e49" d="M 48.5,129.5 C 54.5704,133.04 60.5704,136.874 66.5,141C 67.448,141.483 68.448,141.649 69.5,141.5C 71.8123,143.636 74.3123,145.636 77,147.5C 77.8736,150.003 77.207,152.003 75,153.5C 74.2571,151.559 74.4238,149.726 75.5,148C 74.1011,147.405 72.7678,147.572 71.5,148.5C 70.6667,147.5 69.8333,146.5 69,145.5C 67.0126,146.218 65.1792,147.218 63.5,148.5C 64.8333,149.167 66.1667,149.833 67.5,150.5C 64.6901,151.621 61.8568,151.288 59,149.5C 57.4597,151.955 57.1264,154.621 58,157.5C 59,158.833 60,158.833 61,157.5C 61.941,159.061 63.1076,160.395 64.5,161.5C 65.8333,160.167 67.1667,158.833 68.5,157.5C 69.3699,159.407 70.3699,161.24 71.5,163C 70.1439,164.567 69.4772,166.4 69.5,168.5C 71.099,168.232 72.4324,168.566 73.5,169.5C 66.8303,169.111 60.1637,168.611 53.5,168C 50.6209,167.454 47.9542,166.621 45.5,165.5C 53.5249,166.778 54.5249,164.945 48.5,160C 43.3865,158.187 38.3865,156.187 33.5,154C 36.6996,153.899 39.6996,153.232 42.5,152C 41.3826,150.108 39.7159,149.275 37.5,149.5C 37.719,148.325 37.3857,147.325 36.5,146.5C 34.1634,145.157 32.1634,143.49 30.5,141.5C 30.8212,139.952 31.8212,139.285 33.5,139.5C 33.2746,137.284 34.1079,135.617 36,134.5C 37.5095,136.208 39.0095,137.874 40.5,139.5C 44.0139,136.673 46.6805,133.34 48.5,129.5 Z"/></g>
<g><path style="opacity:1" fill="#e3d3f7" d="M 137.5,145.5 C 138.167,145.5 138.833,145.5 139.5,145.5C 139.843,147.483 139.176,148.817 137.5,149.5C 137.5,148.167 137.5,146.833 137.5,145.5 Z"/></g>
<g><path style="opacity:1" fill="#2d2c51" d="M -0.5,140.5 C 0.551975,140.351 1.55198,140.517 2.5,141C 9.42464,150.771 18.4246,157.605 29.5,161.5C 29.5,161.833 29.5,162.167 29.5,162.5C 29.4142,163.496 29.7476,164.329 30.5,165C 29.2341,165.309 28.0674,165.809 27,166.5C 26.6667,165.833 26.3333,165.167 26,164.5C 24.6439,165.38 23.1439,165.714 21.5,165.5C 21.5,166.833 21.5,168.167 21.5,169.5C 22.8734,169.343 24.2068,169.51 25.5,170C 23.9419,170.21 22.6085,170.71 21.5,171.5C 22.2894,172.915 22.9561,174.415 23.5,176C 22.8107,178.054 21.8107,179.054 20.5,179C 20.7769,180.892 21.7769,182.225 23.5,183C 21.6731,184.654 19.8398,185.488 18,185.5C 17.51,184.207 17.3433,182.873 17.5,181.5C 14.6391,181.658 11.9724,180.992 9.5,179.5C 8.55805,179.608 7.72472,179.941 7,180.5C 5.88839,173.504 3.38839,172.837 -0.5,178.5C -0.5,177.167 -0.5,175.833 -0.5,174.5C 0.765972,173.91 2.0993,173.41 3.5,173C 3.16667,172.667 2.83333,172.333 2.5,172C 6.39551,170.306 6.06218,169.14 1.5,168.5C 4.23018,167.811 6.56351,166.478 8.5,164.5C 7.28891,163.28 7.28891,162.113 8.5,161C 7.03251,159.902 6.19917,158.402 6,156.5C 4.68408,159.028 3.51741,159.028 2.5,156.5C 1.58317,157.127 0.583168,157.461 -0.5,157.5C -0.5,151.833 -0.5,146.167 -0.5,140.5 Z"/></g>
<g><path style="opacity:1" fill="#423e73" d="M 9.5,145.5 C 10.5,145.5 11.5,145.5 12.5,145.5C 13.1667,145.5 13.8333,145.5 14.5,145.5C 20.4558,148.478 26.4558,151.478 32.5,154.5C 29.3978,156.183 26.0644,156.849 22.5,156.5C 19.9784,154.828 17.3118,153.328 14.5,152C 12.2585,150.23 10.5918,148.063 9.5,145.5 Z"/></g>
<g><path style="opacity:1" fill="#2b3154" d="M 28.5,141.5 C 29.1667,141.5 29.8333,141.5 30.5,141.5C 32.1634,143.49 34.1634,145.157 36.5,146.5C 37.3857,147.325 37.719,148.325 37.5,149.5C 39.7159,149.275 41.3826,150.108 42.5,152C 39.6996,153.232 36.6996,153.899 33.5,154C 38.3865,156.187 43.3865,158.187 48.5,160C 54.5249,164.945 53.5249,166.778 45.5,165.5C 39.9902,164.737 34.6569,163.404 29.5,161.5C 27.4236,159.416 25.0903,157.749 22.5,156.5C 26.0644,156.849 29.3978,156.183 32.5,154.5C 26.4558,151.478 20.4558,148.478 14.5,145.5C 15.4593,142.707 17.2926,140.707 20,139.5C 22.3447,141.116 24.8447,142.449 27.5,143.5C 28.2975,143.043 28.6309,142.376 28.5,141.5 Z"/></g>
<g><path style="opacity:1" fill="#dfd6eb" d="M 137.5,149.5 C 137.378,152.292 136.044,154.292 133.5,155.5C 133.511,153.983 134.177,152.816 135.5,152C 135.167,151.833 134.833,151.667 134.5,151.5C 128.468,152.749 122.802,154.749 117.5,157.5C 117.03,156.307 116.03,155.64 114.5,155.5C 106.862,156.399 99.1957,156.732 91.5,156.5C 90.8333,156.5 90.5,156.167 90.5,155.5C 106.483,155.669 122.15,153.669 137.5,149.5 Z"/></g>
<g><path style="opacity:1" fill="#a882d3" d="M 117.5,157.5 C 114.833,157.5 112.167,157.5 109.5,157.5C 104.167,157.5 98.8333,157.5 93.5,157.5C 92.8333,157.5 92.1667,157.5 91.5,157.5C 91.5,157.167 91.5,156.833 91.5,156.5C 99.1957,156.732 106.862,156.399 114.5,155.5C 116.03,155.64 117.03,156.307 117.5,157.5 Z"/></g>
<g><path style="opacity:1" fill="#2d2837" d="M 69.5,141.5 C 76.8905,144.853 83.5572,149.186 89.5,154.5C 89.5,155.167 89.8333,155.5 90.5,155.5C 90.5,156.167 90.8333,156.5 91.5,156.5C 91.5,156.833 91.5,157.167 91.5,157.5C 91.0618,157.435 90.7284,157.601 90.5,158C 93.0666,160.396 95.4,162.896 97.5,165.5C 97.5394,166.583 97.8728,167.583 98.5,168.5C 94.878,169.659 91.2113,169.825 87.5,169C 86.8971,166.929 85.5638,165.762 83.5,165.5C 82.1266,165.343 80.7932,165.51 79.5,166C 77.5952,167.421 75.5952,168.588 73.5,169.5C 72.4324,168.566 71.099,168.232 69.5,168.5C 69.4772,166.4 70.1439,164.567 71.5,163C 70.3699,161.24 69.3699,159.407 68.5,157.5C 67.1667,158.833 65.8333,160.167 64.5,161.5C 63.1076,160.395 61.941,159.061 61,157.5C 60,158.833 59,158.833 58,157.5C 57.1264,154.621 57.4597,151.955 59,149.5C 61.8568,151.288 64.6901,151.621 67.5,150.5C 66.1667,149.833 64.8333,149.167 63.5,148.5C 65.1792,147.218 67.0126,146.218 69,145.5C 69.8333,146.5 70.6667,147.5 71.5,148.5C 72.7678,147.572 74.1011,147.405 75.5,148C 74.4238,149.726 74.2571,151.559 75,153.5C 77.207,152.003 77.8736,150.003 77,147.5C 74.3123,145.636 71.8123,143.636 69.5,141.5 Z"/></g>
<g><path style="opacity:1" fill="#f5f2f8" d="M 199.5,149.5 C 199.5,152.167 199.5,154.833 199.5,157.5C 198.778,157.082 198.278,156.416 198,155.5C 197.718,163.911 196.884,172.245 195.5,180.5C 192.92,183.605 189.587,185.272 185.5,185.5C 185.135,186.902 184.301,187.902 183,188.5C 179.895,189.367 176.728,189.701 173.5,189.5C 175.968,187.953 178.635,186.62 181.5,185.5C 182.906,185.027 183.573,184.027 183.5,182.5C 184.167,181.5 184.833,180.5 185.5,179.5C 187.971,181.959 190.471,181.626 193,178.5C 193.498,175.518 193.665,172.518 193.5,169.5C 194.833,169.5 195.5,168.833 195.5,167.5C 195.975,164.918 195.308,162.918 193.5,161.5C 193.5,161.167 193.5,160.833 193.5,160.5C 196.4,156.895 197.066,152.895 195.5,148.5C 192.821,148.673 190.487,149.673 188.5,151.5C 188.167,151.167 187.833,150.833 187.5,150.5C 195.929,144.571 195.262,140.237 185.5,137.5C 185.466,132.049 182.8,129.382 177.5,129.5C 176.833,129.5 176.5,129.167 176.5,128.5C 178.455,126.674 180.788,126.174 183.5,127C 186.011,130.221 188.844,133.054 192,135.5C 192.667,136.833 193.333,138.167 194,139.5C 194.333,139.167 194.667,138.833 195,138.5C 196.383,143.08 197.383,147.747 198,152.5C 198.232,151.263 198.732,150.263 199.5,149.5 Z"/></g>
<g><path style="opacity:1" fill="#c6c1cd" d="M 133.5,155.5 C 133.5,156.167 133.5,156.833 133.5,157.5C 131.738,158.262 130.738,159.596 130.5,161.5C 130.167,161.5 129.833,161.5 129.5,161.5C 129.342,158.478 130.675,156.478 133.5,155.5 Z"/></g>
<g><path style="opacity:1" fill="#956dcc" d="M 193.5,161.5 C 195.308,162.918 195.975,164.918 195.5,167.5C 193.915,166.526 192.915,165.026 192.5,163C 193.056,162.617 193.389,162.117 193.5,161.5 Z"/></g>
<g><path style="opacity:1" fill="#13111a" d="M -0.5,174.5 C -0.5,168.833 -0.5,163.167 -0.5,157.5C 0.583168,157.461 1.58317,157.127 2.5,156.5C 3.51741,159.028 4.68408,159.028 6,156.5C 6.19917,158.402 7.03251,159.902 8.5,161C 7.28891,162.113 7.28891,163.28 8.5,164.5C 6.56351,166.478 4.23018,167.811 1.5,168.5C 6.06218,169.14 6.39551,170.306 2.5,172C 2.83333,172.333 3.16667,172.667 3.5,173C 2.0993,173.41 0.765972,173.91 -0.5,174.5 Z"/></g>
<g><path style="opacity:1" fill="#a373e4" d="M 193.5,169.5 C 193.665,172.518 193.498,175.518 193,178.5C 190.471,181.626 187.971,181.959 185.5,179.5C 183.592,174.683 183.092,169.683 184,164.5C 185.466,162.675 187.299,162.175 189.5,163C 191.628,164.792 192.961,166.958 193.5,169.5 Z"/></g>
<g><path style="opacity:1" fill="#080a12" d="M 29.5,162.5 C 29.5,162.167 29.5,161.833 29.5,161.5C 34.6569,163.404 39.9902,164.737 45.5,165.5C 47.9542,166.621 50.6209,167.454 53.5,168C 60.1637,168.611 66.8303,169.111 73.5,169.5C 72.9688,171.544 71.8022,173.211 70,174.5C 69.6012,174.272 69.4346,173.938 69.5,173.5C 69.8039,172.85 70.1373,172.183 70.5,171.5C 63.5356,170.397 56.5356,169.564 49.5,169C 42.7801,166.893 36.1134,164.727 29.5,162.5 Z"/></g>
<g><path style="opacity:1" fill="#1d2743" d="M 29.5,162.5 C 36.1134,164.727 42.7801,166.893 49.5,169C 56.5356,169.564 63.5356,170.397 70.5,171.5C 70.1373,172.183 69.8039,172.85 69.5,173.5C 67.9382,173.733 66.6049,174.4 65.5,175.5C 63.1073,174.79 60.6073,174.123 58,173.5C 51.2582,173.899 44.4249,173.899 37.5,173.5C 32.3673,172.335 27.034,171.668 21.5,171.5C 22.6085,170.71 23.9419,170.21 25.5,170C 24.2068,169.51 22.8734,169.343 21.5,169.5C 21.5,168.167 21.5,166.833 21.5,165.5C 23.1439,165.714 24.6439,165.38 26,164.5C 26.3333,165.167 26.6667,165.833 27,166.5C 28.0674,165.809 29.2341,165.309 30.5,165C 29.7476,164.329 29.4142,163.496 29.5,162.5 Z"/></g>
<g><path style="opacity:1" fill="#080a0f" d="M 133.5,155.5 C 130.675,156.478 129.342,158.478 129.5,161.5C 126.039,160.889 123.372,162.056 121.5,165C 117.123,165.188 113.123,166.521 109.5,169C 102.195,170.33 94.8615,171.497 87.5,172.5C 85.6978,176.714 84.3644,181.048 83.5,185.5C 82.71,186.609 82.21,187.942 82,189.5C 81.8333,188.167 81.6667,186.833 81.5,185.5C 82.967,180.724 84.3003,175.891 85.5,171C 85.6052,168.822 84.9385,166.988 83.5,165.5C 85.5638,165.762 86.8971,166.929 87.5,169C 91.2113,169.825 94.878,169.659 98.5,168.5C 97.8728,167.583 97.5394,166.583 97.5,165.5C 95.4,162.896 93.0666,160.396 90.5,158C 90.7284,157.601 91.0618,157.435 91.5,157.5C 92.1667,157.5 92.8333,157.5 93.5,157.5C 94.3339,158.748 95.6672,159.415 97.5,159.5C 101.694,159.148 105.694,158.482 109.5,157.5C 112.167,157.5 114.833,157.5 117.5,157.5C 122.802,154.749 128.468,152.749 134.5,151.5C 134.833,151.667 135.167,151.833 135.5,152C 134.177,152.816 133.511,153.983 133.5,155.5 Z"/></g>
<g><path style="opacity:1" fill="#132135" d="M 97.5,165.5 C 97.7035,163.61 97.0368,162.11 95.5,161C 101.179,160.627 106.845,160.127 112.5,159.5C 114.881,159.488 116.548,160.488 117.5,162.5C 112.588,166.637 106.922,168.47 100.5,168C 99.9221,166.583 98.9221,165.75 97.5,165.5 Z"/></g>
<g><path style="opacity:1" fill="#5c3986" d="M 93.5,157.5 C 98.8333,157.5 104.167,157.5 109.5,157.5C 105.694,158.482 101.694,159.148 97.5,159.5C 95.6672,159.415 94.3339,158.748 93.5,157.5 Z"/></g>
<g><path style="opacity:1" fill="#895bc5" d="M 133.5,157.5 C 137.083,161.262 140.583,165.262 144,169.5C 144.895,172.583 145.895,175.583 147,178.5C 148.381,176.365 149.381,174.032 150,171.5C 152.861,168.528 156.194,167.861 160,169.5C 161.274,168.465 162.44,167.298 163.5,166C 169.402,166.051 175.402,165.884 181.5,165.5C 181.657,166.873 181.49,168.207 181,169.5C 177.441,165.692 173.775,165.692 170,169.5C 167.459,168.336 164.959,168.503 162.5,170C 162.026,171.729 161.026,172.895 159.5,173.5C 157.912,171.384 155.912,171.051 153.5,172.5C 151.47,177.231 151.137,182.065 152.5,187C 149.607,189.358 146.274,190.858 142.5,191.5C 143.607,182.539 141.94,174.206 137.5,166.5C 135.371,164.344 133.038,162.677 130.5,161.5C 130.738,159.596 131.738,158.262 133.5,157.5 Z"/></g>
<g><path style="opacity:1" fill="#dbcced" d="M 193.5,160.5 C 193.5,160.833 193.5,161.167 193.5,161.5C 193.389,162.117 193.056,162.617 192.5,163C 192.915,165.026 193.915,166.526 195.5,167.5C 195.5,168.833 194.833,169.5 193.5,169.5C 192.961,166.958 191.628,164.792 189.5,163C 187.299,162.175 185.466,162.675 184,164.5C 183.092,169.683 183.592,174.683 185.5,179.5C 184.833,180.5 184.167,181.5 183.5,182.5C 183.157,176.968 181.157,172.135 177.5,168C 174.647,167.341 172.98,168.508 172.5,171.5C 173.413,176.472 174.08,181.472 174.5,186.5C 176.806,186.007 179.139,185.674 181.5,185.5C 178.635,186.62 175.968,187.953 173.5,189.5C 172.833,189.5 172.167,189.5 171.5,189.5C 172.822,184.176 172.656,178.843 171,173.5C 166.979,169.138 164.146,169.804 162.5,175.5C 163.385,180.122 163.718,184.789 163.5,189.5C 162.833,189.167 162.167,188.833 161.5,188.5C 161.909,183.303 161.242,178.303 159.5,173.5C 161.026,172.895 162.026,171.729 162.5,170C 164.959,168.503 167.459,168.336 170,169.5C 173.775,165.692 177.441,165.692 181,169.5C 181.49,168.207 181.657,166.873 181.5,165.5C 181.511,163.983 182.177,162.816 183.5,162C 186.88,161.661 190.213,161.161 193.5,160.5 Z"/></g>
<g><path style="opacity:1" fill="#a675e6" d="M 183.5,182.5 C 183.573,184.027 182.906,185.027 181.5,185.5C 179.139,185.674 176.806,186.007 174.5,186.5C 174.08,181.472 173.413,176.472 172.5,171.5C 172.98,168.508 174.647,167.341 177.5,168C 181.157,172.135 183.157,176.968 183.5,182.5 Z"/></g>
<g><path style="opacity:1" fill="#a776e8" d="M 171.5,189.5 C 168.833,190.833 166.167,190.833 163.5,189.5C 163.718,184.789 163.385,180.122 162.5,175.5C 164.146,169.804 166.979,169.138 171,173.5C 172.656,178.843 172.822,184.176 171.5,189.5 Z"/></g>
<g><path style="opacity:1" fill="#2f2b45" d="M 129.5,161.5 C 130.574,162.885 131.907,164.051 133.5,165C 132.552,165.483 131.552,165.649 130.5,165.5C 130.5,166.833 130.5,168.167 130.5,169.5C 131.5,169.5 132.5,169.5 133.5,169.5C 133.625,173.398 131.958,174.898 128.5,174C 129.406,175.699 129.739,177.533 129.5,179.5C 127.325,179.682 125.325,180.349 123.5,181.5C 121.575,181.41 120.408,180.41 120,178.5C 117.853,180.476 115.353,181.809 112.5,182.5C 113.09,183.799 114.09,184.632 115.5,185C 111.057,185.084 109.39,187.084 110.5,191C 108.098,191.678 105.932,191.178 104,189.5C 103.235,189.57 102.735,189.903 102.5,190.5C 100.857,190.52 99.5237,189.853 98.5,188.5C 97.2638,189.246 95.9305,189.579 94.5,189.5C 94.3671,186.104 93.3671,185.771 91.5,188.5C 89.5607,186.382 87.394,186.049 85,187.5C 84.2828,186.956 83.7828,186.289 83.5,185.5C 84.3644,181.048 85.6978,176.714 87.5,172.5C 94.8615,171.497 102.195,170.33 109.5,169C 113.123,166.521 117.123,165.188 121.5,165C 123.372,162.056 126.039,160.889 129.5,161.5 Z"/></g>
<g><path style="opacity:1" fill="#a372e5" d="M 159.5,173.5 C 161.242,178.303 161.909,183.303 161.5,188.5C 160.442,191.902 158.442,192.402 155.5,190C 153.543,185.024 153.043,179.857 154,174.5C 155.699,173.594 157.533,173.261 159.5,173.5 Z"/></g>
<g><path style="opacity:1" fill="#2a2937" d="M 129.5,161.5 C 129.833,161.5 130.167,161.5 130.5,161.5C 133.038,162.677 135.371,164.344 137.5,166.5C 141.94,174.206 143.607,182.539 142.5,191.5C 142.5,192.167 142.5,192.833 142.5,193.5C 142.167,193.5 141.833,193.5 141.5,193.5C 141.5,192.167 141.5,190.833 141.5,189.5C 140.167,189.5 138.833,189.5 137.5,189.5C 137.515,185.44 137.015,181.44 136,177.5C 135.586,177.043 135.086,176.709 134.5,176.5C 134.759,180.769 134.259,185.102 133,189.5C 130.404,193.39 126.904,196.223 122.5,198C 123.056,198.383 123.389,198.883 123.5,199.5C 116.5,199.5 109.5,199.5 102.5,199.5C 102.5,196.5 102.5,193.5 102.5,190.5C 102.735,189.903 103.235,189.57 104,189.5C 105.932,191.178 108.098,191.678 110.5,191C 109.39,187.084 111.057,185.084 115.5,185C 114.09,184.632 113.09,183.799 112.5,182.5C 115.353,181.809 117.853,180.476 120,178.5C 120.408,180.41 121.575,181.41 123.5,181.5C 125.325,180.349 127.325,179.682 129.5,179.5C 129.739,177.533 129.406,175.699 128.5,174C 131.958,174.898 133.625,173.398 133.5,169.5C 132.5,169.5 131.5,169.5 130.5,169.5C 130.5,168.167 130.5,166.833 130.5,165.5C 131.552,165.649 132.552,165.483 133.5,165C 131.907,164.051 130.574,162.885 129.5,161.5 Z"/></g>
<g><path style="opacity:1" fill="#ece8f2" d="M 159.5,173.5 C 157.533,173.261 155.699,173.594 154,174.5C 153.043,179.857 153.543,185.024 155.5,190C 158.442,192.402 160.442,191.902 161.5,188.5C 162.167,188.833 162.833,189.167 163.5,189.5C 166.167,190.833 168.833,190.833 171.5,189.5C 172.167,189.5 172.833,189.5 173.5,189.5C 173.27,192.465 171.603,193.798 168.5,193.5C 163.87,192.984 159.203,192.817 154.5,193C 153.874,192.25 153.374,191.416 153,190.5C 152.228,191.849 151.061,192.682 149.5,193C 147.236,193.236 145.069,193.736 143,194.5C 142.601,194.272 142.435,193.938 142.5,193.5C 142.5,192.833 142.5,192.167 142.5,191.5C 146.274,190.858 149.607,189.358 152.5,187C 151.137,182.065 151.47,177.231 153.5,172.5C 155.912,171.051 157.912,171.384 159.5,173.5 Z"/></g>
<g><path style="opacity:1" fill="#0b0e16" d="M 141.5,193.5 C 141.5,195.5 141.5,197.5 141.5,199.5C 135.5,199.5 129.5,199.5 123.5,199.5C 123.389,198.883 123.056,198.383 122.5,198C 126.904,196.223 130.404,193.39 133,189.5C 134.259,185.102 134.759,180.769 134.5,176.5C 135.086,176.709 135.586,177.043 136,177.5C 137.015,181.44 137.515,185.44 137.5,189.5C 138.833,189.5 140.167,189.5 141.5,189.5C 141.5,190.833 141.5,192.167 141.5,193.5 Z"/></g>
<g><path style="opacity:1" fill="#2e2b3c" d="M 83.5,165.5 C 84.9385,166.988 85.6052,168.822 85.5,171C 84.3003,175.891 82.967,180.724 81.5,185.5C 81.6667,186.833 81.8333,188.167 82,189.5C 82.21,187.942 82.71,186.609 83.5,185.5C 83.7828,186.289 84.2828,186.956 85,187.5C 87.394,186.049 89.5607,186.382 91.5,188.5C 93.3671,185.771 94.3671,186.104 94.5,189.5C 95.9305,189.579 97.2638,189.246 98.5,188.5C 99.5237,189.853 100.857,190.52 102.5,190.5C 102.5,193.5 102.5,196.5 102.5,199.5C 71.1667,199.5 39.8333,199.5 8.5,199.5C 6.04751,197.098 3.04751,195.432 -0.5,194.5C -0.5,189.167 -0.5,183.833 -0.5,178.5C 3.38839,172.837 5.88839,173.504 7,180.5C 7.72472,179.941 8.55805,179.608 9.5,179.5C 11.9724,180.992 14.6391,181.658 17.5,181.5C 17.3433,182.873 17.51,184.207 18,185.5C 19.8398,185.488 21.6731,184.654 23.5,183C 21.7769,182.225 20.7769,180.892 20.5,179C 21.8107,179.054 22.8107,178.054 23.5,176C 22.9561,174.415 22.2894,172.915 21.5,171.5C 27.034,171.668 32.3673,172.335 37.5,173.5C 39.7642,176.912 41.7642,180.578 43.5,184.5C 43.3333,185.5 43.1667,186.5 43,187.5C 41.8831,187.335 40.7164,187.002 39.5,186.5C 38.6143,187.325 38.281,188.325 38.5,189.5C 40.604,189.201 42.604,189.534 44.5,190.5C 42.5544,192.083 40.5544,192.583 38.5,192C 37.2888,192.893 37.2888,193.726 38.5,194.5C 40.0709,193.691 41.7376,193.357 43.5,193.5C 43.5,195.167 43.5,196.833 43.5,198.5C 44.8734,198.657 46.2068,198.49 47.5,198C 47.1667,196.333 46.8333,194.667 46.5,193C 47.3578,191.43 48.0245,189.763 48.5,188C 48.8499,186.743 49.5165,186.409 50.5,187C 49.2888,187.893 49.2888,188.726 50.5,189.5C 51.8333,186.833 53.1667,184.167 54.5,181.5C 57.8349,185.629 60.3349,190.296 62,195.5C 62.7096,194.027 63.8762,193.36 65.5,193.5C 65.5,194.833 65.5,196.167 65.5,197.5C 66.8734,197.657 68.2068,197.49 69.5,197C 68.6919,196.692 68.0253,196.192 67.5,195.5C 67.9377,194.494 68.6043,194.494 69.5,195.5C 70.2811,194.271 70.7811,192.938 71,191.5C 72.7058,192.308 73.5391,193.641 73.5,195.5C 76.374,195.623 78.874,196.623 81,198.5C 81.4482,196.776 82.2815,196.109 83.5,196.5C 81.5544,194.917 79.5544,194.417 77.5,195C 77.8333,194.667 78.1667,194.333 78.5,194C 76.3834,192.269 74.8834,190.102 74,187.5C 72.9207,185.606 71.5874,185.273 70,186.5C 69.1729,185.338 68.3396,184.171 67.5,183C 68.943,180.922 68.2763,180.089 65.5,180.5C 65.5,178.833 65.5,177.167 65.5,175.5C 66.6049,174.4 67.9382,173.733 69.5,173.5C 69.4346,173.938 69.6012,174.272 70,174.5C 71.8022,173.211 72.9688,171.544 73.5,169.5C 75.5952,168.588 77.5952,167.421 79.5,166C 80.7932,165.51 82.1266,165.343 83.5,165.5 Z"/></g>
<g><path style="opacity:1" fill="#322f4a" d="M 37.5,173.5 C 44.4249,173.899 51.2582,173.899 58,173.5C 60.6073,174.123 63.1073,174.79 65.5,175.5C 65.5,177.167 65.5,178.833 65.5,180.5C 68.2763,180.089 68.943,180.922 67.5,183C 68.3396,184.171 69.1729,185.338 70,186.5C 71.5874,185.273 72.9207,185.606 74,187.5C 74.8834,190.102 76.3834,192.269 78.5,194C 78.1667,194.333 77.8333,194.667 77.5,195C 79.5544,194.417 81.5544,194.917 83.5,196.5C 82.2815,196.109 81.4482,196.776 81,198.5C 78.874,196.623 76.374,195.623 73.5,195.5C 73.5391,193.641 72.7058,192.308 71,191.5C 70.7811,192.938 70.2811,194.271 69.5,195.5C 68.6043,194.494 67.9377,194.494 67.5,195.5C 68.0253,196.192 68.6919,196.692 69.5,197C 68.2068,197.49 66.8734,197.657 65.5,197.5C 65.5,196.167 65.5,194.833 65.5,193.5C 63.8762,193.36 62.7096,194.027 62,195.5C 60.3349,190.296 57.8349,185.629 54.5,181.5C 53.1667,184.167 51.8333,186.833 50.5,189.5C 49.2888,188.726 49.2888,187.893 50.5,187C 49.5165,186.409 48.8499,186.743 48.5,188C 48.0245,189.763 47.3578,191.43 46.5,193C 46.8333,194.667 47.1667,196.333 47.5,198C 46.2068,198.49 44.8734,198.657 43.5,198.5C 43.5,196.833 43.5,195.167 43.5,193.5C 41.7376,193.357 40.0709,193.691 38.5,194.5C 37.2888,193.726 37.2888,192.893 38.5,192C 40.5544,192.583 42.5544,192.083 44.5,190.5C 42.604,189.534 40.604,189.201 38.5,189.5C 38.281,188.325 38.6143,187.325 39.5,186.5C 40.7164,187.002 41.8831,187.335 43,187.5C 43.1667,186.5 43.3333,185.5 43.5,184.5C 41.7642,180.578 39.7642,176.912 37.5,173.5 Z"/></g>
<g><path style="opacity:1" fill="#40375c" d="M -0.5,194.5 C 3.04751,195.432 6.04751,197.098 8.5,199.5C 5.5,199.5 2.5,199.5 -0.5,199.5C -0.5,197.833 -0.5,196.167 -0.5,194.5 Z"/></g>
</svg>
