<?xml version="1.0" encoding="UTF-8"?>
<!DOCTYPE svg PUBLIC "-//W3C//DTD SVG 1.1//EN" "http://www.w3.org/Graphics/SVG/1.1/DTD/svg11.dtd">
<svg xmlns="http://www.w3.org/2000/svg" version="1.1" width="1000px" height="1000px" style="shape-rendering:geometricPrecision; text-rendering:geometricPrecision; image-rendering:optimizeQuality; fill-rule:evenodd; clip-rule:evenodd" xmlns:xlink="http://www.w3.org/1999/xlink">
<g><path style="opacity:1" fill="#8b5f08" d="M 468.5,-0.5 C 489.167,-0.5 509.833,-0.5 530.5,-0.5C 567.675,2.29844 604.342,8.79844 640.5,19C 648.83,21.2382 656.83,24.0715 664.5,27.5C 659.987,29.6772 655.32,31.6772 650.5,33.5C 519.085,-6.96224 392.418,4.53776 270.5,68C 261.103,73.0235 252.103,78.5235 243.5,84.5C 211.965,103.021 183.299,125.354 157.5,151.5C 103.392,204.005 63.725,266.005 38.5,337.5C 11.0099,414.076 3.50986,492.743 16,573.5C 41.9888,723.407 119.156,838.574 247.5,919C 278.55,937.358 311.217,952.191 345.5,963.5C 369.504,971.495 393.837,977.828 418.5,982.5C 420.766,986.034 422.766,989.7 424.5,993.5C 291.529,971.553 183.696,907.887 101,802.5C 40.5721,721.939 6.73877,631.272 -0.5,530.5C -0.5,509.833 -0.5,489.167 -0.5,468.5C 14.1727,307.596 86.8394,180.429 217.5,87C 293.44,35.8526 377.106,6.68593 468.5,-0.5 Z"/></g>
<g><path style="opacity:1" fill="#f9cd6f" d="M 650.5,33.5 C 710.754,53.8683 765.254,84.2016 814,124.5C 817.023,122.302 819.856,119.969 822.5,117.5C 912.666,194.772 969.166,292.106 992,409.5C 995.257,429.222 997.757,448.889 999.5,468.5C 999.5,469.833 999.5,471.167 999.5,472.5C 995.833,472.5 992.167,472.5 988.5,472.5C 993.351,592.925 959.684,700.925 887.5,796.5C 864.868,774.368 842.368,752.035 820,729.5C 778.563,786.278 726.063,829.445 662.5,859C 679.649,885.48 696.649,911.98 713.5,938.5C 636.679,976.165 555.345,992.665 469.5,988C 452.455,986.495 435.455,984.662 418.5,982.5C 393.837,977.828 369.504,971.495 345.5,963.5C 302.292,908.003 263.958,849.67 230.5,788.5C 282.775,836.477 343.775,868.477 413.5,884.5C 460.892,896.097 508.559,897.43 556.5,888.5C 584.233,884.983 611.233,878.483 637.5,869C 635.294,866.963 633.294,864.797 631.5,862.5C 636.35,860.246 641.35,858.246 646.5,856.5C 721.608,825.788 781.275,776.454 825.5,708.5C 829.32,703.539 832.653,698.206 835.5,692.5C 838.167,693.167 840.833,693.833 843.5,694.5C 853.859,674.111 862.859,653.111 870.5,631.5C 878.39,609.404 884.39,586.738 888.5,563.5C 908.125,426.207 868.792,309.04 770.5,212C 678.253,128.701 569.92,94.0344 445.5,108C 392.712,115.539 343.379,132.706 297.5,159.5C 279.5,134.5 261.5,109.5 243.5,84.5C 252.103,78.5235 261.103,73.0235 270.5,68C 392.418,4.53776 519.085,-6.96224 650.5,33.5 Z"/></g>
<g><path style="opacity:1" fill="#be873a" d="M 664.5,27.5 C 723.383,47.255 776.049,77.255 822.5,117.5C 819.856,119.969 817.023,122.302 814,124.5C 765.254,84.2016 710.754,53.8683 650.5,33.5C 655.32,31.6772 659.987,29.6772 664.5,27.5 Z"/></g>
<g><path style="opacity:1" fill="#f9d9ae" d="M 243.5,84.5 C 261.5,109.5 279.5,134.5 297.5,159.5C 268.896,177.085 242.562,197.751 218.5,221.5C 197.427,198.764 177.094,175.431 157.5,151.5C 183.299,125.354 211.965,103.021 243.5,84.5 Z"/></g>
<g><path style="opacity:1" fill="#663a0d" d="M 888.5,563.5 C 886.95,562.559 885.284,561.893 883.5,561.5C 899.006,448.103 871.84,346.436 802,256.5C 710.477,149.521 594.31,103.021 453.5,117C 407.688,122.691 364.688,136.524 324.5,158.5C 282.81,180.203 246.476,208.869 215.5,244.5C 170.717,294.729 141.217,353.062 127,419.5C 105.32,534.125 128.654,638.458 197,732.5C 252.87,804.147 325.037,851.147 413.5,873.5C 413.5,877.167 413.5,880.833 413.5,884.5C 343.775,868.477 282.775,836.477 230.5,788.5C 155.357,717.197 113.69,629.53 105.5,525.5C 99.7713,407.65 137.438,306.316 218.5,221.5C 242.562,197.751 268.896,177.085 297.5,159.5C 343.379,132.706 392.712,115.539 445.5,108C 569.92,94.0344 678.253,128.701 770.5,212C 868.792,309.04 908.125,426.207 888.5,563.5 Z"/></g>
<g><path style="opacity:1" fill="#ae6f19" d="M 883.5,561.5 C 878.742,584.394 872.742,607.061 865.5,629.5C 857.411,651.346 847.411,672.346 835.5,692.5C 832.653,698.206 829.32,703.539 825.5,708.5C 820.867,702.865 815.867,697.532 810.5,692.5C 857.48,617.008 874.98,535.008 863,446.5C 844.161,337.75 788.661,253.583 696.5,194C 663.479,173.879 628.146,159.212 590.5,150C 588.613,149.22 586.946,149.387 585.5,150.5C 584.508,150.672 583.842,150.338 583.5,149.5C 579.063,147.387 573.73,146.054 567.5,145.5C 566.274,145.52 565.274,145.853 564.5,146.5C 487.239,133.453 413.572,144.119 343.5,178.5C 336.492,172.491 330.158,165.825 324.5,158.5C 364.688,136.524 407.688,122.691 453.5,117C 594.31,103.021 710.477,149.521 802,256.5C 871.84,346.436 899.006,448.103 883.5,561.5 Z"/></g>
<g><path style="opacity:1" fill="#f5c86b" d="M 564.5,146.5 C 570.812,147.629 577.145,148.629 583.5,149.5C 583.842,150.338 584.508,150.672 585.5,150.5C 706.821,181.992 791.321,255.658 839,371.5C 873.247,466.971 869.58,560.971 828,653.5C 820.818,668.547 812.651,682.88 803.5,696.5C 802.167,695.5 800.833,694.5 799.5,693.5C 801.432,690.634 803.099,687.634 804.5,684.5C 848.532,612.517 865.032,534.517 854,450.5C 834.649,335.529 774.816,248.696 674.5,190C 612.995,156.599 547.328,142.432 477.5,147.5C 467.427,147.843 457.427,148.843 447.5,150.5C 446.209,150.263 445.209,150.596 444.5,151.5C 407.515,157.384 372.515,169.05 339.5,186.5C 338.738,184.738 337.404,183.738 335.5,183.5C 338.167,181.833 340.833,180.167 343.5,178.5C 413.572,144.119 487.239,133.453 564.5,146.5 Z"/></g>
<g><path style="opacity:1" fill="#ae6f19" d="M 804.5,684.5 C 789.533,668.697 774.7,652.697 760,636.5C 759.832,659.67 759.332,682.67 758.5,705.5C 759.165,565.829 758.498,426.496 756.5,287.5C 758.14,286.21 758.64,284.543 758,282.5C 756.38,277.388 753.213,273.721 748.5,271.5C 747.025,269.59 745.025,268.424 742.5,268C 679.501,267.5 616.501,267.333 553.5,267.5C 547.131,267.079 541.797,269.079 537.5,273.5C 533.5,277.167 529.5,280.833 525.5,284.5C 521.79,274.807 514.79,269.14 504.5,267.5C 502.97,267.64 501.97,268.307 501.5,269.5C 422.713,267.507 343.713,266.841 264.5,267.5C 316.668,266.833 369.002,266.167 421.5,265.5C 398.148,239.983 374.982,214.316 352,188.5C 350.871,186.859 349.371,185.859 347.5,185.5C 378.484,168.894 411.484,157.727 446.5,152C 445.906,151.536 445.239,151.369 444.5,151.5C 445.209,150.596 446.209,150.263 447.5,150.5C 447.917,151.124 448.584,151.457 449.5,151.5C 458.975,150.152 468.308,148.818 477.5,147.5C 547.328,142.432 612.995,156.599 674.5,190C 774.816,248.696 834.649,335.529 854,450.5C 865.032,534.517 848.532,612.517 804.5,684.5 Z"/></g>
<g><path style="opacity:1" fill="#8c5a1f" d="M 564.5,146.5 C 565.274,145.853 566.274,145.52 567.5,145.5C 573.73,146.054 579.063,147.387 583.5,149.5C 577.145,148.629 570.812,147.629 564.5,146.5 Z"/></g>
<g><path style="opacity:1" fill="#916020" d="M 477.5,147.5 C 468.308,148.818 458.975,150.152 449.5,151.5C 448.584,151.457 447.917,151.124 447.5,150.5C 457.427,148.843 467.427,147.843 477.5,147.5 Z"/></g>
<g><path style="opacity:1" fill="#f9cd6f" d="M 157.5,151.5 C 177.094,175.431 197.427,198.764 218.5,221.5C 137.438,306.316 99.7713,407.65 105.5,525.5C 80.4276,463.958 58.0942,401.292 38.5,337.5C 63.725,266.005 103.392,204.005 157.5,151.5 Z"/></g>
<g><path style="opacity:1" fill="#e09c39" d="M 324.5,158.5 C 330.158,165.825 336.492,172.491 343.5,178.5C 340.833,180.167 338.167,181.833 335.5,183.5C 295.227,204.758 260.227,232.758 230.5,267.5C 225.749,259.663 220.749,251.996 215.5,244.5C 246.476,208.869 282.81,180.203 324.5,158.5 Z"/></g>
<g><path style="opacity:1" fill="#f4e5ce" d="M 335.5,183.5 C 337.404,183.738 338.738,184.738 339.5,186.5C 297.24,209.404 260.574,239.404 229.5,276.5C 228.833,274.833 228.167,273.167 227.5,271.5C 228.5,270.167 229.5,268.833 230.5,267.5C 260.227,232.758 295.227,204.758 335.5,183.5 Z"/></g>
<g><path style="opacity:1" fill="#e09b37" d="M 347.5,185.5 C 349.371,185.859 350.871,186.859 352,188.5C 374.982,214.316 398.148,239.983 421.5,265.5C 369.002,266.167 316.668,266.833 264.5,267.5C 263.833,267.5 263.5,267.833 263.5,268.5C 256.157,268.948 250.657,272.614 247,279.5C 245.964,281.299 245.797,282.966 246.5,284.5C 245.662,284.842 245.328,285.508 245.5,286.5C 242.025,282.896 239.025,278.896 236.5,274.5C 267.355,236.958 304.355,207.291 347.5,185.5 Z"/></g>
<g><path style="opacity:1" fill="#6c3f11" d="M 585.5,150.5 C 586.946,149.387 588.613,149.22 590.5,150C 628.146,159.212 663.479,173.879 696.5,194C 788.661,253.583 844.161,337.75 863,446.5C 874.98,535.008 857.48,617.008 810.5,692.5C 767.017,759.972 707.684,807.972 632.5,836.5C 629.854,837.487 627.188,838.487 624.5,839.5C 623.893,839.376 623.56,839.043 623.5,838.5C 699.109,810.884 759.109,763.551 803.5,696.5C 812.651,682.88 820.818,668.547 828,653.5C 869.58,560.971 873.247,466.971 839,371.5C 791.321,255.658 706.821,181.992 585.5,150.5 Z"/></g>
<g><path style="opacity:1" fill="#6b3f10" d="M 444.5,151.5 C 445.239,151.369 445.906,151.536 446.5,152C 411.484,157.727 378.484,168.894 347.5,185.5C 304.355,207.291 267.355,236.958 236.5,274.5C 168.976,358.16 143.476,453.494 160,560.5C 180.942,668.648 238.442,750.815 332.5,807C 350.011,816.594 367.344,825.094 384.5,832.5C 299.102,800.604 234.602,744.604 191,664.5C 139.809,560.533 137.475,455.533 184,349.5C 196.685,323.43 211.851,299.097 229.5,276.5C 260.574,239.404 297.24,209.404 339.5,186.5C 372.515,169.05 407.515,157.384 444.5,151.5 Z"/></g>
<g><path style="opacity:1" fill="#ae6f19" d="M 215.5,244.5 C 220.749,251.996 225.749,259.663 230.5,267.5C 229.5,268.833 228.5,270.167 227.5,271.5C 165.593,348.707 138.76,437.04 147,536.5C 163.159,659.885 224.659,752.718 331.5,815C 348.917,824.301 366.917,832.134 385.5,838.5C 385.675,836.379 385.341,834.379 384.5,832.5C 367.344,825.094 350.011,816.594 332.5,807C 238.442,750.815 180.942,668.648 160,560.5C 143.476,453.494 168.976,358.16 236.5,274.5C 239.025,278.896 242.025,282.896 245.5,286.5C 245.168,342.336 245.501,398.002 246.5,453.5C 247.338,460.008 251.005,464.008 257.5,465.5C 286.329,466.498 315.329,466.831 344.5,466.5C 343.833,467.5 343.167,468.5 342.5,469.5C 313.201,498.298 284.035,527.298 255,556.5C 251.22,560.282 248.22,564.616 246,569.5C 245.168,616.002 245.335,662.335 246.5,708.5C 247.209,713.947 249.875,717.947 254.5,720.5C 258.065,723.915 262.398,725.581 267.5,725.5C 312.835,725.667 358.168,725.5 403.5,725C 405.5,724.333 407.5,723.667 409.5,723C 438.276,696.225 466.443,668.725 494,640.5C 504.855,655.567 515.688,670.567 526.5,685.5C 526.334,693.507 526.5,701.507 527,709.5C 527.941,711.727 529.108,713.727 530.5,715.5C 536.29,723.664 544.29,726.998 554.5,725.5C 579.248,760.242 603.582,795.242 627.5,830.5C 625.891,831.771 624.058,832.771 622,833.5C 621.401,835.535 621.901,837.201 623.5,838.5C 623.56,839.043 623.893,839.376 624.5,839.5C 627.188,838.487 629.854,837.487 632.5,836.5C 637.167,843.167 641.833,849.833 646.5,856.5C 641.35,858.246 636.35,860.246 631.5,862.5C 605.575,870.899 579.242,877.232 552.5,881.5C 518.825,884.25 485.158,884.083 451.5,881C 438.728,878.823 426.062,876.323 413.5,873.5C 325.037,851.147 252.87,804.147 197,732.5C 128.654,638.458 105.32,534.125 127,419.5C 141.217,353.062 170.717,294.729 215.5,244.5 Z"/></g>
<g><path style="opacity:1" fill="#65380c" d="M 264.5,267.5 C 343.713,266.841 422.713,267.507 501.5,269.5C 503.118,273.689 504.118,278.022 504.5,282.5C 517.015,281.854 522.515,287.854 521,300.5C 522.804,295.233 524.304,289.9 525.5,284.5C 529.5,280.833 533.5,277.167 537.5,273.5C 539.664,278.5 542.331,283.167 545.5,287.5C 547.555,285.445 549.888,283.779 552.5,282.5C 553.494,277.544 553.827,272.544 553.5,267.5C 616.501,267.333 679.501,267.5 742.5,268C 745.025,268.424 747.025,269.59 748.5,271.5C 746.891,275.217 744.891,278.717 742.5,282C 746.178,283.086 749.012,285.253 751,288.5C 752.766,287.767 754.599,287.433 756.5,287.5C 758.498,426.496 759.165,565.829 758.5,705.5C 758.768,707.099 758.434,708.432 757.5,709.5C 754.285,709.095 751.285,708.095 748.5,706.5C 749.658,676.905 749.825,647.238 749,617.5C 743.936,612.605 739.103,607.605 734.5,602.5C 734.5,498.5 734.5,394.5 734.5,290.5C 675.167,290.5 615.833,290.5 556.5,290.5C 553.326,291.01 550.992,292.677 549.5,295.5C 532.167,312.167 515.167,329.167 498.5,346.5C 490.209,339.207 482.542,331.207 475.5,322.5C 483.806,314.86 491.806,306.86 499.5,298.5C 502.146,296.521 504.479,294.188 506.5,291.5C 504.257,290.526 501.924,290.192 499.5,290.5C 481.167,290.5 462.833,290.5 444.5,290.5C 442.42,286.914 439.754,283.747 436.5,281C 382.167,280.333 327.833,280.333 273.5,281C 271.846,281.608 270.179,282.108 268.5,282.5C 266.824,277.819 265.157,273.152 263.5,268.5C 263.5,267.833 263.833,267.5 264.5,267.5 Z"/></g>
<g><path style="opacity:1" fill="#f6ca6d" d="M 525.5,284.5 C 524.304,289.9 522.804,295.233 521,300.5C 522.515,287.854 517.015,281.854 504.5,282.5C 504.118,278.022 503.118,273.689 501.5,269.5C 501.97,268.307 502.97,267.64 504.5,267.5C 514.79,269.14 521.79,274.807 525.5,284.5 Z"/></g>
<g><path style="opacity:1" fill="#f5c86c" d="M 553.5,267.5 C 553.827,272.544 553.494,277.544 552.5,282.5C 549.888,283.779 547.555,285.445 545.5,287.5C 542.331,283.167 539.664,278.5 537.5,273.5C 541.797,269.079 547.131,267.079 553.5,267.5 Z"/></g>
<g><path style="opacity:1" fill="#f7ca6d" d="M 263.5,268.5 C 265.157,273.152 266.824,277.819 268.5,282.5C 264.951,285.384 262.618,289.051 261.5,293.5C 256.362,290.763 251.362,287.763 246.5,284.5C 245.797,282.966 245.964,281.299 247,279.5C 250.657,272.614 256.157,268.948 263.5,268.5 Z"/></g>
<g><path style="opacity:1" fill="#f5c96c" d="M 748.5,271.5 C 753.213,273.721 756.38,277.388 758,282.5C 758.64,284.543 758.14,286.21 756.5,287.5C 754.599,287.433 752.766,287.767 751,288.5C 749.012,285.253 746.178,283.086 742.5,282C 744.891,278.717 746.891,275.217 748.5,271.5 Z"/></g>
<g><path style="opacity:1" fill="#f4c76b" d="M 227.5,271.5 C 228.167,273.167 228.833,274.833 229.5,276.5C 211.851,299.097 196.685,323.43 184,349.5C 137.475,455.533 139.809,560.533 191,664.5C 234.602,744.604 299.102,800.604 384.5,832.5C 385.341,834.379 385.675,836.379 385.5,838.5C 366.917,832.134 348.917,824.301 331.5,815C 224.659,752.718 163.159,659.885 147,536.5C 138.76,437.04 165.593,348.707 227.5,271.5 Z"/></g>
<g><path style="opacity:1" fill="#ac6e18" d="M 444.5,290.5 C 387.833,290.5 331.167,290.5 274.5,290.5C 272.5,290.5 270.5,290.5 268.5,290.5C 268.5,292.5 268.5,294.5 268.5,296.5C 268.5,305.167 268.5,313.833 268.5,322.5C 266.355,319.567 264.188,316.567 262,313.5C 261.5,306.842 261.334,300.175 261.5,293.5C 262.618,289.051 264.951,285.384 268.5,282.5C 270.179,282.108 271.846,281.608 273.5,281C 327.833,280.333 382.167,280.333 436.5,281C 439.754,283.747 442.42,286.914 444.5,290.5 Z"/></g>
<g><path style="opacity:1" fill="#64380c" d="M 246.5,284.5 C 251.362,287.763 256.362,290.763 261.5,293.5C 261.334,300.175 261.5,306.842 262,313.5C 264.188,316.567 266.355,319.567 268.5,322.5C 268.168,362.67 268.501,402.67 269.5,442.5C 296.175,442.167 322.842,442.5 349.5,443.5C 351.526,446.518 353.526,449.518 355.5,452.5C 326.093,452.825 296.76,452.491 267.5,451.5C 265.188,449.854 263.188,447.854 261.5,445.5C 256.28,447.941 251.28,450.608 246.5,453.5C 245.501,398.002 245.168,342.336 245.5,286.5C 245.328,285.508 245.662,284.842 246.5,284.5 Z"/></g>
<g><path style="opacity:1" fill="#dfc6a4" d="M 274.5,290.5 C 274.5,290.833 274.5,291.167 274.5,291.5C 272.833,291.5 271.167,291.5 269.5,291.5C 269.5,293.167 269.5,294.833 269.5,296.5C 269.167,296.5 268.833,296.5 268.5,296.5C 268.5,294.5 268.5,292.5 268.5,290.5C 270.5,290.5 272.5,290.5 274.5,290.5 Z"/></g>
<g><path style="opacity:1" fill="#dc9836" d="M 274.5,291.5 C 274.5,291.167 274.5,290.833 274.5,290.5C 331.167,290.5 387.833,290.5 444.5,290.5C 462.833,290.5 481.167,290.5 499.5,290.5C 497.206,292.653 494.54,294.32 491.5,295.5C 476.912,296.483 462.245,296.816 447.5,296.5C 390.832,296.667 334.166,296.5 277.5,296C 276.601,294.348 275.601,292.848 274.5,291.5 Z"/></g>
<g><path style="opacity:1" fill="#f4f0ee" d="M 499.5,290.5 C 501.924,290.192 504.257,290.526 506.5,291.5C 504.479,294.188 502.146,296.521 499.5,298.5C 496.833,298.5 494.167,298.5 491.5,298.5C 491.5,297.5 491.5,296.5 491.5,295.5C 494.54,294.32 497.206,292.653 499.5,290.5 Z"/></g>
<g><path style="opacity:1" fill="#f4e4cd" d="M 556.5,290.5 C 556.5,290.833 556.5,291.167 556.5,291.5C 557.049,295.226 555.715,297.893 552.5,299.5C 551.974,297.77 550.974,296.436 549.5,295.5C 550.992,292.677 553.326,291.01 556.5,290.5 Z"/></g>
<g><path style="opacity:1" fill="#e09b38" d="M 557.5,291.5 C 616.168,291.333 674.834,291.5 733.5,292C 731.253,293.277 729.253,294.777 727.5,296.5C 683.5,296.5 639.5,296.5 595.5,296.5C 582.833,296.5 570.167,296.5 557.5,296.5C 557.5,294.833 557.5,293.167 557.5,291.5 Z"/></g>
<g><path style="opacity:1" fill="#ba8237" d="M 556.5,291.5 C 556.5,291.167 556.5,290.833 556.5,290.5C 615.833,290.5 675.167,290.5 734.5,290.5C 734.5,394.5 734.5,498.5 734.5,602.5C 734.667,635.168 734.5,667.835 734,700.5C 732.27,698.598 730.437,696.931 728.5,695.5C 729.492,664.573 729.825,633.573 729.5,602.5C 729.5,533.833 729.5,465.167 729.5,396.5C 729.832,363.662 729.498,330.996 728.5,298.5C 728.5,297.833 728.167,297.5 727.5,297.5C 727.5,297.167 727.5,296.833 727.5,296.5C 729.253,294.777 731.253,293.277 733.5,292C 674.834,291.5 616.168,291.333 557.5,291.5C 557.167,291.5 556.833,291.5 556.5,291.5 Z"/></g>
<g><path style="opacity:1" fill="#df9c3a" d="M 549.5,295.5 C 550.974,296.436 551.974,297.77 552.5,299.5C 534.816,317.585 517.149,335.585 499.5,353.5C 459.527,393.806 419.527,434.14 379.5,474.5C 378.833,474.833 378.167,475.167 377.5,475.5C 375.167,475.5 372.833,475.5 370.5,475.5C 370.5,475.167 370.5,474.833 370.5,474.5C 413.554,432.113 456.221,389.446 498.5,346.5C 515.167,329.167 532.167,312.167 549.5,295.5 Z"/></g>
<g><path style="opacity:1" fill="#f9e0c7" d="M 595.5,296.5 C 639.5,296.5 683.5,296.5 727.5,296.5C 727.5,296.833 727.5,297.167 727.5,297.5C 683.997,297.168 640.663,297.501 597.5,298.5C 596.5,298.167 595.833,297.5 595.5,296.5 Z"/></g>
<g><path style="opacity:1" fill="#b67f35" d="M 268.5,296.5 C 268.833,296.5 269.167,296.5 269.5,296.5C 270.833,297.933 272.333,299.267 274,300.5C 274.5,308.493 274.666,316.493 274.5,324.5C 274.5,361.167 274.5,397.833 274.5,434.5C 272.336,436.822 270.669,439.489 269.5,442.5C 268.501,402.67 268.168,362.67 268.5,322.5C 268.5,313.833 268.5,305.167 268.5,296.5 Z"/></g>
<g><path style="opacity:1" fill="#f9ecd8" d="M 274.5,291.5 C 275.601,292.848 276.601,294.348 277.5,296C 334.166,296.5 390.832,296.667 447.5,296.5C 449.915,300.422 452.915,303.922 456.5,307C 399.665,307.167 342.999,307.667 286.5,308.5C 285.67,318.325 285.17,328.325 285,338.5C 281.723,333.586 278.223,328.92 274.5,324.5C 274.666,316.493 274.5,308.493 274,300.5C 272.333,299.267 270.833,297.933 269.5,296.5C 269.5,294.833 269.5,293.167 269.5,291.5C 271.167,291.5 272.833,291.5 274.5,291.5 Z"/></g>
<g><path style="opacity:1" fill="#f3c975" d="M 491.5,295.5 C 491.5,296.5 491.5,297.5 491.5,298.5C 484.525,306.473 476.858,313.807 468.5,320.5C 466.167,317.833 463.833,315.167 461.5,312.5C 462.635,311.526 463.635,310.359 464.5,309C 405.168,308.5 345.834,308.333 286.5,308.5C 342.999,307.667 399.665,307.167 456.5,307C 452.915,303.922 449.915,300.422 447.5,296.5C 462.245,296.816 476.912,296.483 491.5,295.5 Z"/></g>
<g><path style="opacity:1" fill="#f5c96e" d="M 556.5,291.5 C 556.833,291.5 557.167,291.5 557.5,291.5C 557.5,293.167 557.5,294.833 557.5,296.5C 570.167,296.5 582.833,296.5 595.5,296.5C 595.833,297.5 596.5,298.167 597.5,298.5C 601.291,301.118 604.957,303.951 608.5,307C 645.002,307.167 681.336,307.667 717.5,308.5C 664.997,308.168 612.664,308.501 560.5,309.5C 542.5,327.167 524.5,344.833 506.5,362.5C 504.542,359.208 502.209,356.208 499.5,353.5C 517.149,335.585 534.816,317.585 552.5,299.5C 555.715,297.893 557.049,295.226 556.5,291.5 Z"/></g>
<g><path style="opacity:1" fill="#f9ecd8" d="M 597.5,298.5 C 640.663,297.501 683.997,297.168 727.5,297.5C 728.167,297.5 728.5,297.833 728.5,298.5C 728.832,331.004 728.498,363.338 727.5,395.5C 724.5,393.5 721.5,391.5 718.5,389.5C 717.509,362.574 717.176,335.574 717.5,308.5C 681.336,307.667 645.002,307.167 608.5,307C 604.957,303.951 601.291,301.118 597.5,298.5 Z"/></g>
<g><path style="opacity:1" fill="#e0c79c" d="M 728.5,298.5 C 729.498,330.996 729.832,363.662 729.5,396.5C 728.508,396.672 727.842,396.338 727.5,395.5C 728.498,363.338 728.832,331.004 728.5,298.5 Z"/></g>
<g><path style="opacity:1" fill="#bb843a" d="M 491.5,298.5 C 494.167,298.5 496.833,298.5 499.5,298.5C 491.806,306.86 483.806,314.86 475.5,322.5C 435.84,361.993 396.007,401.326 356,440.5C 354.629,438.959 353.129,437.625 351.5,436.5C 351.5,435.833 351.833,435.5 352.5,435.5C 391.859,397.808 430.525,359.474 468.5,320.5C 476.858,313.807 484.525,306.473 491.5,298.5 Z"/></g>
<g><path style="opacity:1" fill="#b0721c" d="M 286.5,308.5 C 345.834,308.333 405.168,308.5 464.5,309C 463.635,310.359 462.635,311.526 461.5,312.5C 450.833,322.833 440.167,333.167 429.5,343.5C 429.167,343.5 428.833,343.5 428.5,343.5C 438.965,332.535 449.631,321.702 460.5,311C 460.167,310.667 459.833,310.333 459.5,310C 402.168,309.5 344.834,309.333 287.5,309.5C 287.5,320.5 287.5,331.5 287.5,342.5C 287.5,369.5 287.5,396.5 287.5,423.5C 307.167,424.167 326.833,424.833 346.5,425.5C 326.5,425.5 306.5,425.5 286.5,425.5C 286.5,386.5 286.5,347.5 286.5,308.5 Z"/></g>
<g><path style="opacity:1" fill="#af7019" d="M 560.5,309.5 C 612.664,308.501 664.997,308.168 717.5,308.5C 717.176,335.574 717.509,362.574 718.5,389.5C 717.501,456.665 717.168,523.998 717.5,591.5C 717.5,622.5 717.5,653.5 717.5,684.5C 667.5,684.5 617.5,684.5 567.5,684.5C 567.5,626.5 567.5,568.5 567.5,510.5C 567.158,509.662 566.492,509.328 565.5,509.5C 565.833,508.5 566.5,507.833 567.5,507.5C 568.499,565.998 568.832,624.664 568.5,683.5C 618.003,683.832 667.336,683.499 716.5,682.5C 716.5,651.167 716.5,619.833 716.5,588.5C 716.5,521.5 716.5,454.5 716.5,387.5C 716.5,361.5 716.5,335.5 716.5,309.5C 681.833,309.5 647.167,309.5 612.5,309.5C 595.5,309.5 578.5,309.5 561.5,309.5C 561.167,309.5 560.833,309.5 560.5,309.5 Z"/></g>
<g><path style="opacity:1" fill="#f9ecd9" d="M 428.5,343.5 C 404.064,366.435 380.064,389.935 356.5,414C 352.606,417.404 348.606,420.571 344.5,423.5C 325.734,396.287 306.734,369.287 287.5,342.5C 287.5,331.5 287.5,320.5 287.5,309.5C 344.834,309.333 402.168,309.5 459.5,310C 459.833,310.333 460.167,310.667 460.5,311C 449.631,321.702 438.965,332.535 428.5,343.5 Z"/></g>
<g><path style="opacity:1" fill="#f9cd70" d="M 561.5,309.5 C 578.5,309.5 595.5,309.5 612.5,309.5C 646.86,335.853 681.527,361.853 716.5,387.5C 716.5,454.5 716.5,521.5 716.5,588.5C 647.167,513.5 577.833,438.5 508.5,363.5C 526.167,345.5 543.833,327.5 561.5,309.5 Z"/></g>
<g><path style="opacity:1" fill="#f9ecd8" d="M 612.5,309.5 C 647.167,309.5 681.833,309.5 716.5,309.5C 716.5,335.5 716.5,361.5 716.5,387.5C 681.527,361.853 646.86,335.853 612.5,309.5 Z"/></g>
<g><path style="opacity:1" fill="#f9ebd6" d="M 461.5,312.5 C 463.833,315.167 466.167,317.833 468.5,320.5C 430.525,359.474 391.859,397.808 352.5,435.5C 350.489,432.139 348.489,428.806 346.5,425.5C 374.194,398.139 401.86,370.806 429.5,343.5C 440.167,333.167 450.833,322.833 461.5,312.5 Z"/></g>
<g><path style="opacity:1" fill="#af7019" d="M 475.5,322.5 C 482.542,331.207 490.209,339.207 498.5,346.5C 456.221,389.446 413.554,432.113 370.5,474.5C 368.066,470.618 365.399,466.952 362.5,463.5C 363.369,461.283 363.702,458.95 363.5,456.5C 361.588,453.851 358.921,452.518 355.5,452.5C 353.526,449.518 351.526,446.518 349.5,443.5C 322.842,442.5 296.175,442.167 269.5,442.5C 270.669,439.489 272.336,436.822 274.5,434.5C 274.611,435.117 274.944,435.617 275.5,436C 300.831,436.5 326.164,436.667 351.5,436.5C 353.129,437.625 354.629,438.959 356,440.5C 396.007,401.326 435.84,361.993 475.5,322.5 Z"/></g>
<g><path style="opacity:1" fill="#f8cb6f" d="M 286.5,308.5 C 286.5,347.5 286.5,386.5 286.5,425.5C 306.5,425.5 326.5,425.5 346.5,425.5C 348.489,428.806 350.489,432.139 352.5,435.5C 351.833,435.5 351.5,435.833 351.5,436.5C 326.164,436.667 300.831,436.5 275.5,436C 274.944,435.617 274.611,435.117 274.5,434.5C 274.5,397.833 274.5,361.167 274.5,324.5C 278.223,328.92 281.723,333.586 285,338.5C 285.17,328.325 285.67,318.325 286.5,308.5 Z"/></g>
<g><path style="opacity:1" fill="#e09b37" d="M 38.5,337.5 C 58.0942,401.292 80.4276,463.958 105.5,525.5C 113.69,629.53 155.357,717.197 230.5,788.5C 263.958,849.67 302.292,908.003 345.5,963.5C 311.217,952.191 278.55,937.358 247.5,919C 119.156,838.574 41.9888,723.407 16,573.5C 3.50986,492.743 11.0099,414.076 38.5,337.5 Z"/></g>
<g><path style="opacity:1" fill="#face70" d="M 287.5,342.5 C 306.734,369.287 325.734,396.287 344.5,423.5C 325.5,423.5 306.5,423.5 287.5,423.5C 287.5,396.5 287.5,369.5 287.5,342.5 Z"/></g>
<g><path style="opacity:1" fill="#f9ead5" d="M 499.5,353.5 C 502.209,356.208 504.542,359.208 506.5,362.5C 466.833,402.833 426.833,442.833 386.5,482.5C 384.167,479.833 381.833,477.167 379.5,474.5C 419.527,434.14 459.527,393.806 499.5,353.5 Z"/></g>
<g><path style="opacity:1" fill="#f9ecd9" d="M 508.5,363.5 C 577.833,438.5 647.167,513.5 716.5,588.5C 716.5,619.833 716.5,651.167 716.5,682.5C 667.5,682.5 618.5,682.5 569.5,682.5C 569.833,623.83 569.5,565.163 568.5,506.5C 567.893,506.624 567.56,506.957 567.5,507.5C 566.5,507.833 565.833,508.5 565.5,509.5C 533.833,540.833 502.167,572.167 470.5,603.5C 442.6,564.045 414.933,524.379 387.5,484.5C 427.5,443.833 467.833,403.5 508.5,363.5 Z"/></g>
<g><path style="opacity:1" fill="#c28c3f" d="M 428.5,343.5 C 428.833,343.5 429.167,343.5 429.5,343.5C 401.86,370.806 374.194,398.139 346.5,425.5C 326.833,424.833 307.167,424.167 287.5,423.5C 306.5,423.5 325.5,423.5 344.5,423.5C 348.606,420.571 352.606,417.404 356.5,414C 380.064,389.935 404.064,366.435 428.5,343.5 Z"/></g>
<g><path style="opacity:1" fill="#f7ca6d" d="M 718.5,389.5 C 721.5,391.5 724.5,393.5 727.5,395.5C 727.842,396.338 728.508,396.672 729.5,396.5C 729.5,465.167 729.5,533.833 729.5,602.5C 725.5,598.833 721.5,595.167 717.5,591.5C 717.168,523.998 717.501,456.665 718.5,389.5 Z"/></g>
<g><path style="opacity:1" fill="#bd8430" d="M 560.5,309.5 C 560.833,309.5 561.167,309.5 561.5,309.5C 543.833,327.5 526.167,345.5 508.5,363.5C 467.833,403.5 427.5,443.833 387.5,484.5C 354.562,517.938 321.395,551.272 288,584.5C 287.5,617.165 287.333,649.832 287.5,682.5C 286.662,682.842 286.328,683.508 286.5,684.5C 285.17,650.998 285.17,617.331 286.5,583.5C 320.517,550.423 353.85,516.756 386.5,482.5C 426.833,442.833 466.833,402.833 506.5,362.5C 524.5,344.833 542.5,327.167 560.5,309.5 Z"/></g>
<g><path style="opacity:1" fill="#f6d6a9" d="M 267.5,451.5 C 263.779,455.888 260.445,460.555 257.5,465.5C 251.005,464.008 247.338,460.008 246.5,453.5C 251.28,450.608 256.28,447.941 261.5,445.5C 263.188,447.854 265.188,449.854 267.5,451.5 Z"/></g>
<g><path style="opacity:1" fill="#de9a37" d="M 267.5,451.5 C 296.76,452.491 326.093,452.825 355.5,452.5C 358.921,452.518 361.588,453.851 363.5,456.5C 357.298,460.101 350.964,463.434 344.5,466.5C 315.329,466.831 286.329,466.498 257.5,465.5C 260.445,460.555 263.779,455.888 267.5,451.5 Z"/></g>
<g><path style="opacity:1" fill="#f6d5a7" d="M 363.5,456.5 C 363.702,458.95 363.369,461.283 362.5,463.5C 361.298,465.392 359.965,467.226 358.5,469C 353.177,469.499 347.844,469.666 342.5,469.5C 343.167,468.5 343.833,467.5 344.5,466.5C 350.964,463.434 357.298,460.101 363.5,456.5 Z"/></g>
<g><path style="opacity:1" fill="#65390c" d="M 362.5,463.5 C 365.399,466.952 368.066,470.618 370.5,474.5C 370.5,474.833 370.5,475.167 370.5,475.5C 336.5,508.833 302.833,542.5 269.5,576.5C 268.167,618.167 268.167,659.833 269.5,701.5C 312.5,701.5 355.5,701.5 398.5,701.5C 423.167,677.167 447.833,652.833 472.5,628.5C 473.496,628.414 474.329,628.748 475,629.5C 477.725,633.385 480.225,637.385 482.5,641.5C 459.673,665.16 436.34,688.327 412.5,711C 365.501,711.5 318.501,711.667 271.5,711.5C 270.205,710.512 268.872,709.512 267.5,708.5C 266.096,704.999 265.096,701.332 264.5,697.5C 258.436,701.192 252.436,704.859 246.5,708.5C 245.335,662.335 245.168,616.002 246,569.5C 248.22,564.616 251.22,560.282 255,556.5C 284.035,527.298 313.201,498.298 342.5,469.5C 347.844,469.666 353.177,469.499 358.5,469C 359.965,467.226 361.298,465.392 362.5,463.5 Z"/></g>
<g><path style="opacity:1" fill="#bb8438" d="M 999.5,472.5 C 999.5,491.833 999.5,511.167 999.5,530.5C 985.481,687.746 915.481,813.246 789.5,907C 711.741,961.533 625.407,992.366 530.5,999.5C 510.167,999.5 489.833,999.5 469.5,999.5C 454.395,998.356 439.395,996.356 424.5,993.5C 422.766,989.7 420.766,986.034 418.5,982.5C 435.455,984.662 452.455,986.495 469.5,988C 555.345,992.665 636.679,976.165 713.5,938.5C 782.632,904.917 840.632,857.584 887.5,796.5C 959.684,700.925 993.351,592.925 988.5,472.5C 992.167,472.5 995.833,472.5 999.5,472.5 Z"/></g>
<g><path style="opacity:1" fill="#f7ead4" d="M 370.5,475.5 C 372.833,475.5 375.167,475.5 377.5,475.5C 343.473,509.86 309.473,544.194 275.5,578.5C 273.214,578.405 271.214,577.738 269.5,576.5C 302.833,542.5 336.5,508.833 370.5,475.5 Z"/></g>
<g><path style="opacity:1" fill="#f9cd6f" d="M 379.5,474.5 C 381.833,477.167 384.167,479.833 386.5,482.5C 353.85,516.756 320.517,550.423 286.5,583.5C 285.17,617.331 285.17,650.998 286.5,684.5C 321.5,684.5 356.5,684.5 391.5,684.5C 392.5,684.167 393.167,683.5 393.5,682.5C 419.5,656.833 445.5,631.167 471.5,605.5C 473.758,608.357 475.758,611.357 477.5,614.5C 451.007,641.827 424.007,668.66 396.5,695C 356.501,695.5 316.501,695.667 276.5,695.5C 276.167,695.5 275.833,695.5 275.5,695.5C 274.172,656.47 274.172,617.47 275.5,578.5C 309.473,544.194 343.473,509.86 377.5,475.5C 378.167,475.167 378.833,474.833 379.5,474.5 Z"/></g>
<g><path style="opacity:1" fill="#f9cd6f" d="M 387.5,484.5 C 414.933,524.379 442.6,564.045 470.5,603.5C 470.5,603.833 470.5,604.167 470.5,604.5C 444.167,630.167 418.167,656.167 392.5,682.5C 357.5,682.5 322.5,682.5 287.5,682.5C 287.333,649.832 287.5,617.165 288,584.5C 321.395,551.272 354.562,517.938 387.5,484.5 Z"/></g>
<g><path style="opacity:1" fill="#dcbb86" d="M 567.5,507.5 C 567.56,506.957 567.893,506.624 568.5,506.5C 569.5,565.163 569.833,623.83 569.5,682.5C 618.5,682.5 667.5,682.5 716.5,682.5C 667.336,683.499 618.003,683.832 568.5,683.5C 568.832,624.664 568.499,565.998 567.5,507.5 Z"/></g>
<g><path style="opacity:1" fill="#f8ebd6" d="M 567.5,510.5 C 567.5,568.5 567.5,626.5 567.5,684.5C 617.5,684.5 667.5,684.5 717.5,684.5C 717.5,653.5 717.5,622.5 717.5,591.5C 721.5,595.167 725.5,598.833 729.5,602.5C 729.825,633.573 729.492,664.573 728.5,695.5C 671.5,695.5 614.5,695.5 557.5,695.5C 556.671,644.571 556.171,593.571 556,542.5C 554.612,541.446 553.112,541.28 551.5,542C 527.446,566.054 503.446,590.054 479.5,614C 478.906,614.464 478.239,614.631 477.5,614.5C 475.758,611.357 473.758,608.357 471.5,605.5C 471.5,605.167 471.5,604.833 471.5,604.5C 503.195,572.804 535.195,541.471 567.5,510.5 Z"/></g>
<g><path style="opacity:1" fill="#bb843a" d="M 557.5,695.5 C 554.944,696.543 552.777,698.21 551,700.5C 550.667,650.833 550.333,601.167 550,551.5C 524.272,577.395 498.438,603.062 472.5,628.5C 447.833,652.833 423.167,677.167 398.5,701.5C 397.847,700.193 397.18,698.86 396.5,697.5C 356.335,696.833 316.335,696.167 276.5,695.5C 316.501,695.667 356.501,695.5 396.5,695C 424.007,668.66 451.007,641.827 477.5,614.5C 478.239,614.631 478.906,614.464 479.5,614C 503.446,590.054 527.446,566.054 551.5,542C 553.112,541.28 554.612,541.446 556,542.5C 556.171,593.571 556.671,644.571 557.5,695.5 Z"/></g>
<g><path style="opacity:1" fill="#af711b" d="M 557.5,695.5 C 614.5,695.5 671.5,695.5 728.5,695.5C 730.437,696.931 732.27,698.598 734,700.5C 734.5,667.835 734.667,635.168 734.5,602.5C 739.103,607.605 743.936,612.605 749,617.5C 749.825,647.238 749.658,676.905 748.5,706.5C 746.954,709.2 744.621,711.033 741.5,712C 678.167,712.667 614.833,712.667 551.5,712C 548.977,710.64 546.977,708.807 545.5,706.5C 545.5,705.167 545.5,703.833 545.5,702.5C 545.5,668.5 545.5,634.5 545.5,600.5C 544.452,593.631 540.452,590.797 533.5,592C 530.977,593.36 528.977,595.193 527.5,597.5C 512.5,612.167 497.5,626.833 482.5,641.5C 480.225,637.385 477.725,633.385 475,629.5C 474.329,628.748 473.496,628.414 472.5,628.5C 498.438,603.062 524.272,577.395 550,551.5C 550.333,601.167 550.667,650.833 551,700.5C 552.777,698.21 554.944,696.543 557.5,695.5 Z"/></g>
<g><path style="opacity:1" fill="#bb8338" d="M 883.5,561.5 C 885.284,561.893 886.95,562.559 888.5,563.5C 884.39,586.738 878.39,609.404 870.5,631.5C 868.716,631.107 867.05,630.441 865.5,629.5C 872.742,607.061 878.742,584.394 883.5,561.5 Z"/></g>
<g><path style="opacity:1" fill="#b77f32" d="M 565.5,509.5 C 566.492,509.328 567.158,509.662 567.5,510.5C 535.195,541.471 503.195,572.804 471.5,604.5C 471.167,604.5 470.833,604.5 470.5,604.5C 470.5,604.167 470.5,603.833 470.5,603.5C 502.167,572.167 533.833,540.833 565.5,509.5 Z"/></g>
<g><path style="opacity:1" fill="#b57f35" d="M 269.5,576.5 C 271.214,577.738 273.214,578.405 275.5,578.5C 274.172,617.47 274.172,656.47 275.5,695.5C 273.167,697.167 271.167,699.167 269.5,701.5C 268.167,659.833 268.167,618.167 269.5,576.5 Z"/></g>
<g><path style="opacity:1" fill="#f7d6aa" d="M 545.5,600.5 C 544.508,600.328 543.842,600.662 543.5,601.5C 537.646,606.265 531.979,611.265 526.5,616.5C 525.976,613.812 524.309,612.312 521.5,612C 523.918,607.332 525.918,602.499 527.5,597.5C 528.977,595.193 530.977,593.36 533.5,592C 540.452,590.797 544.452,593.631 545.5,600.5 Z"/></g>
<g><path style="opacity:1" fill="#de9a37" d="M 527.5,597.5 C 525.918,602.499 523.918,607.332 521.5,612C 524.309,612.312 525.976,613.812 526.5,616.5C 526.5,639.5 526.5,662.5 526.5,685.5C 515.688,670.567 504.855,655.567 494,640.5C 466.443,668.725 438.276,696.225 409.5,723C 407.5,723.667 405.5,724.333 403.5,725C 358.168,725.5 312.835,725.667 267.5,725.5C 268.525,720.733 269.858,716.066 271.5,711.5C 318.501,711.667 365.501,711.5 412.5,711C 436.34,688.327 459.673,665.16 482.5,641.5C 497.5,626.833 512.5,612.167 527.5,597.5 Z"/></g>
<g><path style="opacity:1" fill="#7d4b12" d="M 543.5,601.5 C 543.842,600.662 544.508,600.328 545.5,600.5C 545.5,634.5 545.5,668.5 545.5,702.5C 544.833,668.833 544.167,635.167 543.5,601.5 Z"/></g>
<g><path style="opacity:1" fill="#64380c" d="M 543.5,601.5 C 544.167,635.167 544.833,668.833 545.5,702.5C 545.5,703.833 545.5,705.167 545.5,706.5C 540.666,709.752 535.666,712.752 530.5,715.5C 529.108,713.727 527.941,711.727 527,709.5C 526.5,701.507 526.334,693.507 526.5,685.5C 526.5,662.5 526.5,639.5 526.5,616.5C 531.979,611.265 537.646,606.265 543.5,601.5 Z"/></g>
<g><path style="opacity:1" fill="#e09b38" d="M 865.5,629.5 C 867.05,630.441 868.716,631.107 870.5,631.5C 862.859,653.111 853.859,674.111 843.5,694.5C 840.833,693.833 838.167,693.167 835.5,692.5C 847.411,672.346 857.411,651.346 865.5,629.5 Z"/></g>
<g><path style="opacity:1" fill="#e09c38" d="M 804.5,684.5 C 803.099,687.634 801.432,690.634 799.5,693.5C 756.977,757.682 699.644,803.349 627.5,830.5C 603.582,795.242 579.248,760.242 554.5,725.5C 616.834,725.667 679.168,725.5 741.5,725C 750.016,722.982 755.35,717.815 757.5,709.5C 758.434,708.432 758.768,707.099 758.5,705.5C 759.332,682.67 759.832,659.67 760,636.5C 774.7,652.697 789.533,668.697 804.5,684.5 Z"/></g>
<g><path style="opacity:1" fill="#c0872d" d="M 470.5,604.5 C 470.833,604.5 471.167,604.5 471.5,604.5C 471.5,604.833 471.5,605.167 471.5,605.5C 445.5,631.167 419.5,656.833 393.5,682.5C 393.167,682.5 392.833,682.5 392.5,682.5C 418.167,656.167 444.167,630.167 470.5,604.5 Z"/></g>
<g><path style="opacity:1" fill="#d39b43" d="M 287.5,682.5 C 322.5,682.5 357.5,682.5 392.5,682.5C 392.833,682.5 393.167,682.5 393.5,682.5C 393.167,683.5 392.5,684.167 391.5,684.5C 356.833,683.833 322.167,683.167 287.5,682.5 Z"/></g>
<g><path style="opacity:1" fill="#af7019" d="M 287.5,682.5 C 322.167,683.167 356.833,683.833 391.5,684.5C 356.5,684.5 321.5,684.5 286.5,684.5C 286.328,683.508 286.662,682.842 287.5,682.5 Z"/></g>
<g><path style="opacity:1" fill="#f6e6d0" d="M 799.5,693.5 C 800.833,694.5 802.167,695.5 803.5,696.5C 759.109,763.551 699.109,810.884 623.5,838.5C 621.901,837.201 621.401,835.535 622,833.5C 624.058,832.771 625.891,831.771 627.5,830.5C 699.644,803.349 756.977,757.682 799.5,693.5 Z"/></g>
<g><path style="opacity:1" fill="#e09b38" d="M 810.5,692.5 C 815.867,697.532 820.867,702.865 825.5,708.5C 781.275,776.454 721.608,825.788 646.5,856.5C 641.833,849.833 637.167,843.167 632.5,836.5C 707.684,807.972 767.017,759.972 810.5,692.5 Z"/></g>
<g><path style="opacity:1" fill="#ae7019" d="M 275.5,695.5 C 275.833,695.5 276.167,695.5 276.5,695.5C 316.335,696.167 356.335,696.833 396.5,697.5C 397.18,698.86 397.847,700.193 398.5,701.5C 355.5,701.5 312.5,701.5 269.5,701.5C 271.167,699.167 273.167,697.167 275.5,695.5 Z"/></g>
<g><path style="opacity:1" fill="#f7cb6e" d="M 267.5,708.5 C 263.141,712.528 258.807,716.528 254.5,720.5C 249.875,717.947 247.209,713.947 246.5,708.5C 252.436,704.859 258.436,701.192 264.5,697.5C 265.096,701.332 266.096,704.999 267.5,708.5 Z"/></g>
<g><path style="opacity:1" fill="#f9d9ad" d="M 545.5,706.5 C 546.977,708.807 548.977,710.64 551.5,712C 614.833,712.667 678.167,712.667 741.5,712C 744.621,711.033 746.954,709.2 748.5,706.5C 751.285,708.095 754.285,709.095 757.5,709.5C 755.35,717.815 750.016,722.982 741.5,725C 679.168,725.5 616.834,725.667 554.5,725.5C 544.29,726.998 536.29,723.664 530.5,715.5C 535.666,712.752 540.666,709.752 545.5,706.5 Z"/></g>
<g><path style="opacity:1" fill="#f7d6a8" d="M 267.5,708.5 C 268.872,709.512 270.205,710.512 271.5,711.5C 269.858,716.066 268.525,720.733 267.5,725.5C 262.398,725.581 258.065,723.915 254.5,720.5C 258.807,716.528 263.141,712.528 267.5,708.5 Z"/></g>
<g><path style="opacity:1" fill="#f9d9ae" d="M 887.5,796.5 C 840.632,857.584 782.632,904.917 713.5,938.5C 696.649,911.98 679.649,885.48 662.5,859C 726.063,829.445 778.563,786.278 820,729.5C 842.368,752.035 864.868,774.368 887.5,796.5 Z"/></g>
<g><path style="opacity:1" fill="#f4c66a" d="M 445.5,834.5 C 442.726,835.723 440.059,837.223 437.5,839C 436.207,839.49 434.873,839.657 433.5,839.5C 432.351,839.209 431.684,838.376 431.5,837C 431.943,835.175 432.277,833.342 432.5,831.5C 437.077,831.925 441.41,832.925 445.5,834.5 Z"/></g>
<g><path style="opacity:1" fill="#f6c96c" d="M 572.5,832.5 C 572.5,834.167 572.5,835.833 572.5,837.5C 567.477,838.339 562.477,839.339 557.5,840.5C 558.5,840.833 559.5,841.167 560.5,841.5C 564.803,840.572 569.136,839.906 573.5,839.5C 573.232,841.099 573.566,842.432 574.5,843.5C 569.432,845.524 564.098,847.024 558.5,848C 563.925,848.485 569.258,847.985 574.5,846.5C 574.833,847.167 575.167,847.833 575.5,848.5C 575.5,849.833 575.5,851.167 575.5,852.5C 567.527,854.048 559.527,855.381 551.5,856.5C 550.833,856.5 550.167,856.5 549.5,856.5C 548.321,850.19 547.321,843.857 546.5,837.5C 546.5,836.5 546.5,835.5 546.5,834.5C 554.041,833.882 561.541,832.882 569,831.5C 570.385,831.514 571.551,831.848 572.5,832.5 Z"/></g>
<g><path style="opacity:1" fill="#744716" d="M 572.5,832.5 C 573.675,832.281 574.675,832.614 575.5,833.5C 576.348,835.409 576.682,837.409 576.5,839.5C 575.5,839.5 574.5,839.5 573.5,839.5C 569.136,839.906 564.803,840.572 560.5,841.5C 559.5,841.167 558.5,840.833 557.5,840.5C 562.477,839.339 567.477,838.339 572.5,837.5C 572.5,835.833 572.5,834.167 572.5,832.5 Z"/></g>
<g><path style="opacity:1" fill="#f5c96c" d="M 458.5,836.5 C 457.442,843.123 456.776,849.79 456.5,856.5C 453.119,856.54 449.786,856.207 446.5,855.5C 445.566,854.432 445.232,853.099 445.5,851.5C 446.626,850.142 446.626,848.808 445.5,847.5C 443.007,849.58 440.341,851.414 437.5,853C 434.808,853.43 432.141,853.263 429.5,852.5C 429.102,846.939 431.435,843.272 436.5,841.5C 439.833,839.5 443.167,837.5 446.5,835.5C 450.724,834.031 454.724,834.364 458.5,836.5 Z"/></g>
<g><path style="opacity:1" fill="#f8cc6e" d="M 545.5,839.5 C 545.907,845.161 546.24,850.828 546.5,856.5C 543.763,856.401 541.096,856.735 538.5,857.5C 537.5,857.5 536.5,857.5 535.5,857.5C 535.663,855.143 535.497,852.81 535,850.5C 533.188,853.28 531.021,855.78 528.5,858C 526.19,858.497 523.857,858.663 521.5,858.5C 520.5,856.833 519.167,855.5 517.5,854.5C 516.878,853.373 516.045,852.373 515,851.5C 514.503,853.81 514.337,856.143 514.5,858.5C 510.833,858.5 507.167,858.5 503.5,858.5C 503.5,855.167 503.5,851.833 503.5,848.5C 504.479,845.375 504.813,842.042 504.5,838.5C 507.059,838.802 509.393,838.468 511.5,837.5C 513.527,837.338 515.527,837.505 517.5,838C 519.683,840.35 522.016,842.517 524.5,844.5C 527.172,842.327 529.506,839.827 531.5,837C 535.848,836.535 540.181,836.035 544.5,835.5C 544.232,837.099 544.566,838.432 545.5,839.5 Z"/></g>
<g><path style="opacity:1" fill="#704314" d="M 445.5,834.5 C 446.167,834.5 446.5,834.833 446.5,835.5C 443.167,837.5 439.833,839.5 436.5,841.5C 434.973,841.573 433.973,840.906 433.5,839.5C 434.873,839.657 436.207,839.49 437.5,839C 440.059,837.223 442.726,835.723 445.5,834.5 Z"/></g>
<g><path style="opacity:1" fill="#f7ca6d" d="M 489.5,839.5 C 489.287,846.174 488.954,852.841 488.5,859.5C 485.833,859.5 483.167,859.5 480.5,859.5C 478.708,858.691 476.708,858.191 474.5,858C 473.023,856.188 471.69,854.355 470.5,852.5C 470.217,851.711 469.717,851.044 469,850.5C 468.503,852.81 468.337,855.143 468.5,857.5C 465.5,857.5 462.5,857.5 459.5,857.5C 458.833,857.5 458.167,857.5 457.5,857.5C 458.167,852.167 458.833,846.833 459.5,841.5C 460.165,839.631 460.831,837.631 461.5,835.5C 465.111,836.262 468.778,836.762 472.5,837C 474.211,839.589 476.045,842.089 478,844.5C 478.497,842.19 478.663,839.857 478.5,837.5C 482.649,836.92 486.316,837.586 489.5,839.5 Z"/></g>
<g><path style="opacity:1" fill="#f6c96c" d="M 502.5,839.5 C 501.509,845.979 501.176,852.646 501.5,859.5C 498.5,859.5 495.5,859.5 492.5,859.5C 491.833,859.5 491.167,859.5 490.5,859.5C 490.5,854.833 490.5,850.167 490.5,845.5C 491.473,843.052 491.806,840.385 491.5,837.5C 495.649,836.92 499.316,837.586 502.5,839.5 Z"/></g>
<g><path style="opacity:1" fill="#6e4112" d="M 502.5,839.5 C 502.833,839.5 503.167,839.5 503.5,839.5C 503.5,842.5 503.5,845.5 503.5,848.5C 503.5,851.833 503.5,855.167 503.5,858.5C 503.5,859.833 503.5,861.167 503.5,862.5C 499.833,862.5 496.167,862.5 492.5,862.5C 492.5,861.5 492.5,860.5 492.5,859.5C 495.5,859.5 498.5,859.5 501.5,859.5C 501.176,852.646 501.509,845.979 502.5,839.5 Z"/></g>
<g><path style="opacity:1" fill="#ca9a4b" d="M 511.5,837.5 C 509.393,838.468 507.059,838.802 504.5,838.5C 504.813,842.042 504.479,845.375 503.5,848.5C 503.5,845.5 503.5,842.5 503.5,839.5C 505.635,837.631 508.302,836.964 511.5,837.5 Z"/></g>
<g><path style="opacity:1" fill="#784c1a" d="M 574.5,846.5 C 569.258,847.985 563.925,848.485 558.5,848C 564.098,847.024 569.432,845.524 574.5,843.5C 574.281,842.325 574.614,841.325 575.5,840.5C 577.086,842.173 577.753,844.173 577.5,846.5C 576.5,846.5 575.5,846.5 574.5,846.5 Z"/></g>
<g><path style="opacity:1" fill="#6e4111" d="M 445.5,851.5 C 443.05,852.777 440.717,854.277 438.5,856C 435.525,856.044 432.525,855.877 429.5,855.5C 429.5,854.5 429.5,853.5 429.5,852.5C 432.141,853.263 434.808,853.43 437.5,853C 440.341,851.414 443.007,849.58 445.5,847.5C 446.626,848.808 446.626,850.142 445.5,851.5 Z"/></g>
<g><path style="opacity:1" fill="#6c3f11" d="M 575.5,848.5 C 576.5,848.5 577.5,848.5 578.5,848.5C 578.917,851.079 578.25,853.246 576.5,855C 568.307,856.597 560.14,858.097 552,859.5C 551.517,858.552 551.351,857.552 551.5,856.5C 559.527,855.381 567.527,854.048 575.5,852.5C 575.5,851.167 575.5,849.833 575.5,848.5 Z"/></g>
<g><path style="opacity:1" fill="#6c3f11" d="M 458.5,836.5 C 459.451,837.919 459.784,839.585 459.5,841.5C 458.833,846.833 458.167,852.167 457.5,857.5C 457.53,858.497 457.03,859.164 456,859.5C 452.895,858.633 449.728,858.299 446.5,858.5C 446.5,857.5 446.5,856.5 446.5,855.5C 449.786,856.207 453.119,856.54 456.5,856.5C 456.776,849.79 457.442,843.123 458.5,836.5 Z"/></g>
<g><path style="opacity:1" fill="#764817" d="M 470.5,852.5 C 470.5,855.167 470.5,857.833 470.5,860.5C 467.449,860.636 464.449,860.302 461.5,859.5C 460.287,859.253 459.62,858.586 459.5,857.5C 462.5,857.5 465.5,857.5 468.5,857.5C 468.337,855.143 468.503,852.81 469,850.5C 469.717,851.044 470.217,851.711 470.5,852.5 Z"/></g>
<g><path style="opacity:1" fill="#693d0f" d="M 535.5,857.5 C 532.707,861.171 529.04,862.338 524.5,861C 523.058,860.623 522.058,859.79 521.5,858.5C 523.857,858.663 526.19,858.497 528.5,858C 531.021,855.78 533.188,853.28 535,850.5C 535.497,852.81 535.663,855.143 535.5,857.5 Z"/></g>
<g><path style="opacity:1" fill="#6c4012" d="M 517.5,854.5 C 517.5,857.167 517.5,859.833 517.5,862.5C 513.833,862.5 510.167,862.5 506.5,862.5C 506.5,861.5 506.5,860.5 506.5,859.5C 509.385,859.806 512.052,859.473 514.5,858.5C 514.337,856.143 514.503,853.81 515,851.5C 516.045,852.373 516.878,853.373 517.5,854.5 Z"/></g>
<g><path style="opacity:1" fill="#6a3d0e" d="M 489.5,839.5 C 490.461,841.265 490.795,843.265 490.5,845.5C 490.5,850.167 490.5,854.833 490.5,859.5C 490.5,860.5 490.5,861.5 490.5,862.5C 485.28,862.542 480.28,861.708 475.5,860C 477.134,859.506 478.801,859.34 480.5,859.5C 483.167,859.5 485.833,859.5 488.5,859.5C 488.954,852.841 489.287,846.174 489.5,839.5 Z"/></g>
<g><path style="opacity:1" fill="#754816" d="M 546.5,837.5 C 547.321,843.857 548.321,850.19 549.5,856.5C 549.5,857.833 549.5,859.167 549.5,860.5C 545.802,860.552 542.135,860.886 538.5,861.5C 538.5,860.167 538.5,858.833 538.5,857.5C 541.096,856.735 543.763,856.401 546.5,856.5C 546.24,850.828 545.907,845.161 545.5,839.5C 545.328,838.508 545.662,837.842 546.5,837.5 Z"/></g>
<g><path style="opacity:1" fill="#df9b38" d="M 631.5,862.5 C 633.294,864.797 635.294,866.963 637.5,869C 611.233,878.483 584.233,884.983 556.5,888.5C 554.929,886.365 553.596,884.032 552.5,881.5C 579.242,877.232 605.575,870.899 631.5,862.5 Z"/></g>
<g><path style="opacity:1" fill="#bc8438" d="M 413.5,873.5 C 426.062,876.323 438.728,878.823 451.5,881C 485.158,884.083 518.825,884.25 552.5,881.5C 553.596,884.032 554.929,886.365 556.5,888.5C 508.559,897.43 460.892,896.097 413.5,884.5C 413.5,880.833 413.5,877.167 413.5,873.5 Z"/></g>
</svg>
