<svg width="2622" height="2622" viewBox="0 0 2622 2622" fill="none" xmlns="http://www.w3.org/2000/svg">
<g clip-path="url(#clip0_2535_232)">
<path d="M287 821V1801C287 1864 320 1921 375 1953L1224 2443C1278 2474 1345 2474 1399 2443L2248 1953C2302 1922 2336 1864 2336 1801V821C2336 758 2303 701 2248 669L1399 179C1345 148 1278 148 1224 179L375 669C321 700 288 758 288 821H287Z" fill="#213147"/>
<path d="M1496 1501L1375 1833C1372 1842 1372 1852 1375 1862L1583 2433L1824 2294L1535 1501C1528 1483 1503 1483 1496 1501Z" fill="#12AAFF"/>
<path d="M1739 943C1732 925 1707 925 1700 943L1579 1275C1576 1284 1576 1294 1579 1304L1920 2239L2161 2100L1739 944V943Z" fill="#12AAFF"/>
<path d="M1311 216C1317 216 1323 218 1328 221L2246 751C2257 757 2263 769 2263 781V1841C2263 1853 2256 1865 2246 1871L1328 2401C1323 2404 1317 2406 1311 2406C1305 2406 1299 2404 1294 2401L376 1871C365 1865 359 1853 359 1841V780C359 768 366 756 376 750L1294 220C1299 217 1305 215 1311 215V216ZM1311 61C1278 61 1246 69 1216 86L298 616C239 650 203 712 203 780V1840C203 1908 239 1970 298 2004L1216 2534C1245 2551 1278 2559 1311 2559C1344 2559 1376 2551 1406 2534L2324 2004C2383 1970 2419 1908 2419 1840V780C2419 712 2383 650 2324 616L1405 86C1376 69 1343 61 1310 61H1311Z" fill="#9DCCED"/>
<path d="M703 2240L788 2008L958 2149L799 2295L703 2240Z" fill="#213147"/>
<path d="M1233 705H1000C983 705 967 716 961 732L462 2100L703 2239L1253 732C1258 718 1248 704 1234 704L1233 705Z" fill="white"/>
<path d="M1641 705H1408C1391 705 1375 716 1369 732L799 2294L1040 2433L1660 732C1665 718 1655 704 1641 704V705Z" fill="white"/>
</g>
<defs>
<clipPath id="clip0_2535_232">
<rect width="2500" height="2500" fill="white" transform="translate(61 61)"/>
</clipPath>
</defs>
</svg>
