<svg width="178" height="178" viewBox="0 0 178 178" fill="none" xmlns="http://www.w3.org/2000/svg">
<g clip-path="url(#clip0_3557_1441)">
<path d="M89 178C138.153 178 178 138.153 178 89C178 39.8467 138.153 0 89 0C39.8467 0 0 39.8467 0 89C0 138.153 39.8467 178 89 178Z" fill="#9A9350"/>
<path d="M86.3784 27.1045V70.5715C86.3784 72.3628 84.2177 73.2722 82.9391 72.0141L62.563 51.9935L71.1031 29.696C71.698 28.1369 73.1955 27.1045 74.8707 27.1045H86.3715H86.3784Z" fill="white"/>
<path d="M86.3779 86.2911V110.709C86.3779 112.322 84.4428 113.156 83.2737 112.049L51.6973 82.1476L60.9624 57.9697L83.9984 80.6022C85.5231 82.0996 86.3846 84.1511 86.3846 86.2843L86.3779 86.2911Z" fill="white"/>
<path d="M86.3778 125.665V136.612H37.4134C34.5826 136.612 32.6339 133.775 33.6459 131.135L50.0904 88.2427L84.135 120.475C85.564 121.829 86.3709 123.703 86.3709 125.672L86.3778 125.665Z" fill="white"/>
<path d="M91.6025 27.1045V70.5715C91.6025 72.3628 93.7634 73.2722 95.042 72.0141L115.418 51.9935L106.878 29.696C106.283 28.1369 104.786 27.1045 103.11 27.1045H91.6094H91.6025Z" fill="white"/>
<path d="M91.6031 86.2911V110.709C91.6031 112.322 93.5382 113.156 94.7074 112.049L126.284 82.1476L117.019 57.9697L93.9826 80.6022C92.4579 82.0996 91.5962 84.1511 91.5962 86.2845L91.6031 86.2911Z" fill="white"/>
<path d="M91.603 125.665V136.612H140.567C143.398 136.612 145.347 133.774 144.335 131.135L127.89 88.2427L93.8456 120.475C92.4166 121.829 91.6099 123.703 91.6099 125.672L91.603 125.665Z" fill="white"/>
</g>
<defs>
<clipPath id="clip0_3557_1441">
<rect width="178" height="178" fill="white"/>
</clipPath>
</defs>
</svg>
