<?xml version="1.0" encoding="UTF-8"?>
<!DOCTYPE svg PUBLIC "-//W3C//DTD SVG 1.1//EN" "http://www.w3.org/Graphics/SVG/1.1/DTD/svg11.dtd">
<svg xmlns="http://www.w3.org/2000/svg" version="1.1" width="400px" height="400px" style="shape-rendering:geometricPrecision; text-rendering:geometricPrecision; image-rendering:optimizeQuality; fill-rule:evenodd; clip-rule:evenodd" xmlns:xlink="http://www.w3.org/1999/xlink">
<g><path style="opacity:1" fill="#7d0cfa" d="M 399.5,180.5 C 399.5,193.5 399.5,206.5 399.5,219.5C 387.196,304.644 340.529,361.811 259.5,391C 246.233,394.818 232.9,397.652 219.5,399.5C 206.5,399.5 193.5,399.5 180.5,399.5C 99.4123,387.915 43.2457,344.248 12,268.5C -11.7511,194.936 0.582203,128.269 49,68.5C 97.4536,16.2121 157.287,-5.95457 228.5,2C 301.255,14.7715 353.089,54.6048 384,121.5C 391.855,140.591 397.021,160.258 399.5,180.5 Z"/></g>
<g><path style="opacity:1" fill="#f9f9fa" d="M 199.5,125.5 C 200.142,150.395 199.475,175.062 197.5,199.5C 193.313,199.395 189.313,200.228 185.5,202C 174.182,207.98 164.682,216.147 157,226.5C 149.033,240.47 138.866,252.637 126.5,263C 111.01,270.25 94.6771,273.416 77.5,272.5C 77.5,248.167 77.5,223.833 77.5,199.5C 98.0209,197.826 113.521,188.159 124,170.5C 126.333,165.833 128.667,161.167 131,156.5C 133.635,146.78 136.802,137.28 140.5,128C 141.833,127.333 143.167,126.667 144.5,126C 162.83,125.5 181.164,125.333 199.5,125.5 Z"/></g>
<g><path style="opacity:1" fill="#f9f9fa" d="M 200.5,272.5 C 199.858,247.605 200.525,222.938 202.5,198.5C 212.487,197.674 221.153,193.84 228.5,187C 240.19,175.318 250.356,162.484 259,148.5C 268.352,136.574 280.518,129.407 295.5,127C 304.459,125.783 313.459,125.283 322.5,125.5C 322.5,149.833 322.5,174.167 322.5,198.5C 302.029,200.128 286.529,209.794 276,227.5C 273.667,232.167 271.333,236.833 269,241.5C 265.817,251.05 262.65,260.55 259.5,270C 258.167,270.667 256.833,271.333 255.5,272C 237.17,272.5 218.836,272.667 200.5,272.5 Z"/></g>
<g><path style="opacity:1" fill="#bb83fa" d="M 199.5,125.5 C 199.836,150.017 200.836,174.35 202.5,198.5C 200.525,222.938 199.858,247.605 200.5,272.5C 200.164,247.983 199.164,223.65 197.5,199.5C 199.475,175.062 200.142,150.395 199.5,125.5 Z"/></g>
</svg>
