<?xml version="1.0" encoding="UTF-8"?>
<!DOCTYPE svg PUBLIC "-//W3C//DTD SVG 1.1//EN" "http://www.w3.org/Graphics/SVG/1.1/DTD/svg11.dtd">
<svg xmlns="http://www.w3.org/2000/svg" version="1.1" width="320px" height="320px" style="shape-rendering:geometricPrecision; text-rendering:geometricPrecision; image-rendering:optimizeQuality; fill-rule:evenodd; clip-rule:evenodd" xmlns:xlink="http://www.w3.org/1999/xlink">
<g><path style="opacity:1" fill="#2b0600" d="M 141.5,-0.5 C 153.5,-0.5 165.5,-0.5 177.5,-0.5C 246.405,10.5679 291.905,49.2345 314,115.5C 316.172,124.235 318.005,132.902 319.5,141.5C 319.5,153.5 319.5,165.5 319.5,177.5C 308.432,246.405 269.765,291.905 203.5,314C 194.765,316.172 186.098,318.005 177.5,319.5C 165.5,319.5 153.5,319.5 141.5,319.5C 72.5952,308.432 27.0952,269.765 5,203.5C 2.82789,194.765 0.994558,186.098 -0.5,177.5C -0.5,165.5 -0.5,153.5 -0.5,141.5C 10.5679,72.5952 49.2345,27.0952 115.5,5C 124.235,2.82789 132.902,0.994558 141.5,-0.5 Z"/></g>
<g><path style="opacity:1" fill="#cbf524" d="M 158.5,53.5 C 194.763,88.0957 230.43,123.429 265.5,159.5C 230.5,195.167 195.167,230.5 159.5,265.5C 123.833,230.5 88.5,195.167 53.5,159.5C 88.5211,124.146 123.521,88.8124 158.5,53.5 Z"/></g>
<g><path style="opacity:1" fill="#2b0600" d="M 158.5,80.5 C 185.763,106.095 212.429,132.428 238.5,159.5C 212.5,186.167 186.167,212.5 159.5,238.5C 132.833,212.5 106.5,186.167 80.5,159.5C 106.521,133.146 132.521,106.812 158.5,80.5 Z"/></g>
<g><path style="opacity:1" fill="#cbf624" d="M 158.5,106.5 C 177.095,123.427 195.095,141.094 212.5,159.5C 195.167,177.5 177.5,195.167 159.5,212.5C 141.5,195.167 123.833,177.5 106.5,159.5C 123.855,141.813 141.188,124.146 158.5,106.5 Z"/></g>
<g><path style="opacity:1" fill="#2b0700" d="M 158.5,133.5 C 168.092,141.423 177.092,150.09 185.5,159.5C 177.167,168.5 168.5,177.167 159.5,185.5C 150.5,177.167 141.833,168.5 133.5,159.5C 141.855,150.813 150.188,142.146 158.5,133.5 Z"/></g>
</svg>
