<?xml version="1.0" encoding="UTF-8"?>
<!DOCTYPE svg PUBLIC "-//W3C//DTD SVG 1.1//EN" "http://www.w3.org/Graphics/SVG/1.1/DTD/svg11.dtd">
<svg xmlns="http://www.w3.org/2000/svg" version="1.1" width="200px" height="200px" style="shape-rendering:geometricPrecision; text-rendering:geometricPrecision; image-rendering:optimizeQuality; fill-rule:evenodd; clip-rule:evenodd" xmlns:xlink="http://www.w3.org/1999/xlink">
<g><path style="opacity:1" fill="#f9c74a" d="M 85.5,-0.5 C 94.8333,-0.5 104.167,-0.5 113.5,-0.5C 161.167,9.16667 189.833,37.8333 199.5,85.5C 199.5,94.8333 199.5,104.167 199.5,113.5C 189.833,161.167 161.167,189.833 113.5,199.5C 104.167,199.5 94.8333,199.5 85.5,199.5C 37.8333,189.833 9.16667,161.167 -0.5,113.5C -0.5,104.167 -0.5,94.8333 -0.5,85.5C 9.16667,37.8333 37.8333,9.16667 85.5,-0.5 Z"/></g>
<g><path style="opacity:1" fill="#120e04" d="M 157.5,48.5 C 161.355,47.8454 164.188,49.1788 166,52.5C 168.185,58.6452 167.852,64.6452 165,70.5C 163.278,72.4441 161.111,73.4441 158.5,73.5C 155.485,72.9039 152.651,71.9039 150,70.5C 136.176,73.198 122.676,77.0313 109.5,82C 81.4298,94.972 70.4298,116.805 76.5,147.5C 75.8002,160.675 69.8002,164.175 58.5,158C 40.947,142.675 34.1136,123.509 38,100.5C 45.719,75.7843 62.219,60.2843 87.5,54C 107.558,49.9276 127.725,49.4276 148,52.5C 151.875,52.6408 155.042,51.3075 157.5,48.5 Z"/></g>
<g><path style="opacity:1" fill="#748511" d="M 161.5,53.5 C 158.776,55.7173 156.109,58.2173 153.5,61C 146.837,61.168 140.171,61.0013 133.5,60.5C 132.833,60.5 132.167,60.5 131.5,60.5C 129.028,59.3579 128.028,57.3579 128.5,54.5C 135.904,54.9386 143.237,55.9386 150.5,57.5C 153.291,56.2698 155.958,54.7698 158.5,53C 159.749,52.2599 160.749,52.4265 161.5,53.5 Z"/></g>
<g><path style="opacity:1" fill="#aac818" d="M 161.5,53.5 C 164.013,58.5193 164.013,63.686 161.5,69C 159.833,69.6667 158.167,69.6667 156.5,69C 154.791,67.4554 152.791,66.6221 150.5,66.5C 143.314,67.5359 136.314,69.2026 129.5,71.5C 129.611,70.8826 129.944,70.3826 130.5,70C 129.106,69.044 128.439,67.7106 128.5,66C 129.699,63.7355 131.366,61.9021 133.5,60.5C 140.171,61.0013 146.837,61.168 153.5,61C 156.109,58.2173 158.776,55.7173 161.5,53.5 Z"/></g>
<g><path style="opacity:1" fill="#deac11" d="M 109.5,54.5 C 115.833,54.5 122.167,54.5 128.5,54.5C 128.028,57.3579 129.028,59.3579 131.5,60.5C 128.391,60.2641 125.391,60.5975 122.5,61.5C 122.833,58.5 121.5,57.1667 118.5,57.5C 118.5,59.1667 118.5,60.8333 118.5,62.5C 118.167,62.5 117.833,62.5 117.5,62.5C 117.884,60.3352 117.217,58.6685 115.5,57.5C 113.261,59.1331 112.928,61.1331 114.5,63.5C 102.785,64.6904 92.1181,68.6904 82.5,75.5C 78.2879,74.9379 74.9546,76.6046 72.5,80.5C 72.8627,81.1835 73.1961,81.8501 73.5,82.5C 67.1649,89.1589 62.3316,96.8256 59,105.5C 57.5328,112.777 57.1994,120.111 58,127.5C 59.8515,133.716 61.6848,139.882 63.5,146C 63.4734,149.517 61.8067,151.684 58.5,152.5C 53.3529,148.021 49.3529,142.687 46.5,136.5C 43.2651,107.137 54.2651,84.9703 79.5,70C 89.4356,64.5334 99.4356,59.3667 109.5,54.5 Z"/></g>
<g><path style="opacity:1" fill="#9d4f06" d="M 109.5,54.5 C 99.4356,59.3667 89.4356,64.5334 79.5,70C 54.2651,84.9703 43.2651,107.137 46.5,136.5C 34.3913,103.026 44.3913,78.1924 76.5,62C 87.0485,57.5236 98.0485,55.0236 109.5,54.5 Z"/></g>
<g><path style="opacity:1" fill="#1d1805" d="M 122.5,61.5 C 121.597,63.6204 120.263,63.9538 118.5,62.5C 118.5,60.8333 118.5,59.1667 118.5,57.5C 121.5,57.1667 122.833,58.5 122.5,61.5 Z"/></g>
<g><path style="opacity:1" fill="#181302" d="M 117.5,62.5 C 116.609,63.1098 115.609,63.4431 114.5,63.5C 112.928,61.1331 113.261,59.1331 115.5,57.5C 117.217,58.6685 117.884,60.3352 117.5,62.5 Z"/></g>
<g><path style="opacity:1" fill="#f7e311" d="M 131.5,60.5 C 132.167,60.5 132.833,60.5 133.5,60.5C 131.366,61.9021 129.699,63.7355 128.5,66C 128.439,67.7106 129.106,69.044 130.5,70C 129.944,70.3826 129.611,70.8826 129.5,71.5C 110.721,74.8056 94.8881,83.4723 82,97.5C 74.2596,108.394 70.7596,120.561 71.5,134C 71.8708,140.185 72.0374,146.352 72,152.5C 70.9377,155.064 69.1044,156.731 66.5,157.5C 63.2843,156.6 60.6176,154.933 58.5,152.5C 61.8067,151.684 63.4734,149.517 63.5,146C 61.6848,139.882 59.8515,133.716 58,127.5C 57.1994,120.111 57.5328,112.777 59,105.5C 62.3316,96.8256 67.1649,89.1589 73.5,82.5C 77.4332,81.2189 80.4332,78.8855 82.5,75.5C 92.1181,68.6904 102.785,64.6904 114.5,63.5C 115.609,63.4431 116.609,63.1098 117.5,62.5C 117.833,62.5 118.167,62.5 118.5,62.5C 120.263,63.9538 121.597,63.6204 122.5,61.5C 125.391,60.5975 128.391,60.2641 131.5,60.5 Z"/></g>
<g><path style="opacity:1" fill="#0d0900" d="M 82.5,75.5 C 80.4332,78.8855 77.4332,81.2189 73.5,82.5C 73.1961,81.8501 72.8627,81.1835 72.5,80.5C 74.9546,76.6046 78.2879,74.9379 82.5,75.5 Z"/></g>
</svg>
