<?xml version="1.0" encoding="UTF-8"?>
<!DOCTYPE svg PUBLIC "-//W3C//DTD SVG 1.1//EN" "http://www.w3.org/Graphics/SVG/1.1/DTD/svg11.dtd">
<svg xmlns="http://www.w3.org/2000/svg" version="1.1" width="200px" height="200px" style="shape-rendering:geometricPrecision; text-rendering:geometricPrecision; image-rendering:optimizeQuality; fill-rule:evenodd; clip-rule:evenodd" xmlns:xlink="http://www.w3.org/1999/xlink">
<g><path style="opacity:1" fill="#969696" d="M 88.5,11.5 C 92.8461,11.3343 97.1794,11.501 101.5,12C 103.249,15.7293 104.916,19.5627 106.5,23.5C 111.927,24.8568 117.26,26.5235 122.5,28.5C 125.928,25.7068 129.428,23.0402 133,20.5C 136.405,22.4533 139.905,24.2866 143.5,26C 143.945,30.8868 143.945,35.7202 143.5,40.5C 147.167,43.5 150.5,46.8333 153.5,50.5C 158.235,50.8726 162.902,50.8726 167.5,50.5C 171.024,54.204 172.857,58.5373 173,63.5C 170.606,66.3852 168.439,69.3852 166.5,72.5C 168.454,77.6911 169.787,83.0244 170.5,88.5C 174.168,89.5555 177.835,90.7222 181.5,92C 182.833,97 182.833,102 181.5,107C 177.835,108.278 174.168,109.444 170.5,110.5C 169.787,115.976 168.454,121.309 166.5,126.5C 169.083,129.997 171.416,133.664 173.5,137.5C 172.308,142.569 169.642,146.569 165.5,149.5C 161.558,147.839 157.558,147.506 153.5,148.5C 150.5,152.167 147.167,155.5 143.5,158.5C 143.945,163.28 143.945,168.113 143.5,173C 139.905,174.713 136.405,176.547 133,178.5C 129.428,175.96 125.928,173.293 122.5,170.5C 117.26,172.476 111.927,174.143 106.5,175.5C 104.837,178.656 103.67,181.989 103,185.5C 98.7288,187.496 94.2288,187.996 89.5,187C 88.6919,186.692 88.0253,186.192 87.5,185.5C 86.26,181.944 84.9267,178.444 83.5,175C 77.813,174.103 72.313,172.603 67,170.5C 64.2605,173.118 61.4272,175.618 58.5,178C 57.5,178.667 56.5,178.667 55.5,178C 52.4151,176.04 49.2485,174.207 46,172.5C 45.5197,168.395 46.0197,164.395 47.5,160.5C 43.6821,156.182 39.6821,152.015 35.5,148C 31.7438,147.65 28.0772,148.15 24.5,149.5C 20.3584,146.569 17.6917,142.569 16.5,137.5C 18.9494,134.108 21.2827,130.608 23.5,127C 21.8593,122.579 20.5259,118.079 19.5,113.5C 19.9767,112.522 20.6433,111.689 21.5,111C 26.1667,110.333 30.8333,110.333 35.5,111C 46.579,146.406 70.579,162.073 107.5,158C 125.547,153.741 139.047,143.574 148,127.5C 161.548,94.8315 154.048,68.3315 125.5,48C 100.85,35.1538 77.5163,37.1538 55.5,54C 45.5054,63.3388 38.8387,74.6721 35.5,88C 30.8333,88.6667 26.1667,88.6667 21.5,88C 21,87.5 20.5,87 20,86.5C 20.3078,81.5524 21.4745,76.7191 23.5,72C 21.2827,68.3917 18.9494,64.8917 16.5,61.5C 17.6917,56.4312 20.3584,52.4312 24.5,49.5C 28.0772,50.8504 31.7438,51.3504 35.5,51C 39.3333,47.1667 43.1667,43.3333 47,39.5C 46.7153,36.2217 46.2153,32.8883 45.5,29.5C 45.5698,28.2284 45.9032,27.0617 46.5,26C 50.0946,24.2866 53.5946,22.4533 57,20.5C 60.498,22.9214 63.8313,25.5881 67,28.5C 72.313,26.3969 77.813,24.8969 83.5,24C 85.072,19.7816 86.7387,15.6149 88.5,11.5 Z"/></g>
<g><path style="opacity:1" fill="#b4b4b4" d="M 91.5,17.5 C 93.924,17.1924 96.2573,17.5258 98.5,18.5C 99.9351,21.643 101.268,24.8096 102.5,28C 109.629,29.6997 116.629,31.8664 123.5,34.5C 127.122,32.2133 130.455,29.5466 133.5,26.5C 136.517,27.4786 138.183,29.4786 138.5,32.5C 138.146,35.4415 137.48,38.2748 136.5,41C 142.052,47.0545 148.052,52.5545 154.5,57.5C 157.35,56.8966 160.184,56.23 163,55.5C 166.161,56.8242 167.494,59.1576 167,62.5C 163.831,64.8272 161.664,67.8272 160.5,71.5C 162.628,77.3434 164.128,83.3434 165,89.5C 168.122,93.4765 172.289,95.4765 177.5,95.5C 177.5,98.1667 177.5,100.833 177.5,103.5C 172.289,103.523 168.122,105.523 165,109.5C 164.128,115.657 162.628,121.657 160.5,127.5C 161.664,131.173 163.831,134.173 167,136.5C 167.494,139.842 166.161,142.176 163,143.5C 159.549,142.341 156.049,141.841 152.5,142C 147.14,147.36 141.806,152.694 136.5,158C 138.031,161.69 138.531,165.523 138,169.5C 136.29,170.945 134.456,171.778 132.5,172C 129.938,168.935 126.938,166.435 123.5,164.5C 116.629,167.134 109.629,169.3 102.5,171C 101.268,174.19 99.9351,177.357 98.5,180.5C 96.1667,181.833 93.8333,181.833 91.5,180.5C 90.4549,177.194 89.1216,174.027 87.5,171C 80.3548,169.341 73.3548,167.174 66.5,164.5C 62.894,166.603 59.7273,169.269 57,172.5C 55.5806,171.54 54.0806,170.707 52.5,170C 52.1794,165.468 52.1794,160.968 52.5,156.5C 47.4013,151.904 42.4013,147.07 37.5,142C 33.9513,141.841 30.4513,142.341 27,143.5C 23.8393,142.176 22.506,139.842 23,136.5C 25.9478,134.225 28.1144,131.391 29.5,128C 28.1575,123.973 26.8242,119.973 25.5,116C 27.5787,115.192 29.5787,115.359 31.5,116.5C 46.9749,156.406 75.6416,171.24 117.5,161C 151.241,145.352 164.741,119.186 158,82.5C 149.692,56.5259 132.192,40.6925 105.5,35C 78.1075,32.1181 56.2741,41.6181 40,63.5C 36.6178,69.597 33.7845,75.9303 31.5,82.5C 29.5787,83.641 27.5787,83.8077 25.5,83C 26.8242,79.0274 28.1575,75.0274 29.5,71C 28.1144,67.6088 25.9478,64.7754 23,62.5C 22.506,59.1576 23.8393,56.8242 27,55.5C 30.4513,56.6594 33.9513,57.1594 37.5,57C 42.4013,51.9298 47.4013,47.0965 52.5,42.5C 52.1794,38.0319 52.1794,33.5319 52.5,29C 54.0806,28.2935 55.5806,27.4601 57,26.5C 59.7273,29.7306 62.894,32.3972 66.5,34.5C 73.6074,31.8528 80.7741,29.5195 88,27.5C 89.4699,24.2561 90.6366,20.9228 91.5,17.5 Z"/></g>
<g><path style="opacity:1" fill="#969696" d="M 88.5,45.5 C 114.755,44.7034 133.589,56.0367 145,79.5C 153.692,108.282 145.526,130.782 120.5,147C 92.5168,158.962 69.0168,153.129 50,129.5C 46.668,124.842 44.5014,119.675 43.5,114C 43.5852,112.893 43.9186,111.893 44.5,111C 54.8333,110.333 65.1667,110.333 75.5,111C 84.0058,121.376 94.3391,123.71 106.5,118C 118.022,108.271 119.522,97.1041 111,84.5C 98.1235,74.4805 86.2902,75.6472 75.5,88C 64.9231,88.8191 54.4231,88.6524 44,87.5C 43.7409,82.9291 44.7409,78.5957 47,74.5C 56.3495,58.3026 70.1828,48.6359 88.5,45.5 Z"/></g>
<g><path style="opacity:1" fill="#b4b4b4" d="M 86.5,51.5 C 120.144,50.1461 139.144,66.1461 143.5,99.5C 141.533,124.963 128.2,140.796 103.5,147C 78.1135,149.757 60.1135,139.591 49.5,116.5C 57.5,115.167 65.5,115.167 73.5,116.5C 84.3762,127.585 96.7096,129.418 110.5,122C 126.5,107 126.5,92 110.5,77C 96.7096,69.5819 84.3762,71.4152 73.5,82.5C 65.5,83.8333 57.5,83.8333 49.5,82.5C 56.7415,65.9125 69.0749,55.5792 86.5,51.5 Z"/></g>
</svg>
