<?xml version="1.0" encoding="UTF-8"?>
<!DOCTYPE svg PUBLIC "-//W3C//DTD SVG 1.1//EN" "http://www.w3.org/Graphics/SVG/1.1/DTD/svg11.dtd">
<svg xmlns="http://www.w3.org/2000/svg" version="1.1" width="320px" height="320px" style="shape-rendering:geometricPrecision; text-rendering:geometricPrecision; image-rendering:optimizeQuality; fill-rule:evenodd; clip-rule:evenodd" xmlns:xlink="http://www.w3.org/1999/xlink">
<g><path style="opacity:1" fill="#323e1f" d="M 141.5,-0.5 C 153.5,-0.5 165.5,-0.5 177.5,-0.5C 246.405,10.5679 291.905,49.2345 314,115.5C 316.172,124.235 318.005,132.902 319.5,141.5C 319.5,153.5 319.5,165.5 319.5,177.5C 308.432,246.405 269.765,291.905 203.5,314C 194.765,316.172 186.098,318.005 177.5,319.5C 165.5,319.5 153.5,319.5 141.5,319.5C 72.5952,308.432 27.0952,269.765 5,203.5C 2.82789,194.765 0.994558,186.098 -0.5,177.5C -0.5,165.5 -0.5,153.5 -0.5,141.5C 10.5679,72.5952 49.2345,27.0952 115.5,5C 124.235,2.82789 132.902,0.994558 141.5,-0.5 Z"/></g>
<g><path style="opacity:1" fill="#d2f1ba" d="M 81.5,65.5 C 93.2549,64.1281 102.088,68.4614 108,78.5C 110.167,86.6668 112.833,94.6668 116,102.5C 125.41,112.735 135.077,113.068 145,103.5C 147.147,98.0496 149.48,92.7163 152,87.5C 155.257,84.5715 159.091,83.7382 163.5,85C 164.931,85.4652 166.097,86.2986 167,87.5C 169.52,92.7163 171.853,98.0496 174,103.5C 181.141,111.4 189.308,112.566 198.5,107C 204.69,100.454 208.19,92.6204 209,83.5C 215.207,67.647 226.373,62.4803 242.5,68C 254.962,77.6882 256.795,89.1882 248,102.5C 245.5,104.333 243,106.167 240.5,108C 232.279,110.035 224.279,112.702 216.5,116C 206.265,125.41 205.932,135.077 215.5,145C 220.916,147.139 226.249,149.472 231.5,152C 234.36,155.681 235.193,159.848 234,164.5C 229.032,168.274 223.532,171.107 217.5,173C 207.843,179.699 206.01,188.199 212,198.5C 219.125,205.215 227.625,209.049 237.5,210C 252.036,216.581 256.536,227.414 251,242.5C 241.312,254.962 229.812,256.795 216.5,248C 210.843,241.235 207.676,233.402 207,224.5C 201.745,210.619 192.245,206.119 178.5,211C 177,212.5 175.5,214 174,215.5C 171.965,222.287 168.799,228.453 164.5,234C 159.848,235.193 155.681,234.36 152,231.5C 149.667,226.167 147.333,220.833 145,215.5C 133.931,205.383 123.931,206.383 115,218.5C 112.374,224.62 110.374,230.953 109,237.5C 102.395,252.05 91.5619,256.55 76.5,251C 66.8279,244.17 63.6613,235.003 67,223.5C 69.1055,217.728 72.9389,213.562 78.5,211C 86.9188,209.563 94.9188,206.896 102.5,203C 113.504,192.442 113.171,182.442 101.5,173C 95.3571,171.346 89.8571,168.512 85,164.5C 83.8069,159.848 84.6403,155.681 87.5,152C 92.7505,149.472 98.0839,147.139 103.5,145C 110.379,139.179 112.212,132.012 109,123.5C 106.833,120 104,117.167 100.5,115C 94.1188,112.071 87.4521,110.071 80.5,109C 66.7085,101.911 62.5418,91.0776 68,76.5C 71.3358,71.2685 75.8358,67.6018 81.5,65.5 Z"/></g>
</svg>
