<svg width="199" height="199" viewBox="0 0 199 199" fill="none" xmlns="http://www.w3.org/2000/svg">
<g clip-path="url(#clip0_3557_1479)">
<path d="M99.5 199C154.453 199 199 154.453 199 99.5C199 44.5476 154.453 0 99.5 0C44.5476 0 0 44.5476 0 99.5C0 154.453 44.5476 199 99.5 199Z" fill="white"/>
<path d="M143.23 87.1869C145.183 74.1524 135.252 67.1438 121.682 62.4673L126.085 44.8061L115.339 42.132L111.048 59.3269C108.225 58.6179 105.327 57.9587 102.435 57.2996L106.757 39.9928L96.0113 37.3125L91.6084 54.9675C89.2702 54.4327 86.9692 53.9103 84.7429 53.3507L84.7553 53.2947L69.9298 49.5945L67.0692 61.0743C67.0692 61.0743 75.0479 62.9027 74.88 63.0146C79.2331 64.1029 80.0167 66.9822 79.8861 69.2707L74.8737 89.3883C75.1722 89.4629 75.5578 89.5749 75.9931 89.7428L74.8551 89.4629L67.8279 117.646C67.2931 118.965 65.9436 120.948 62.8964 120.196C63.0084 120.351 55.0857 118.25 55.0857 118.25L49.75 130.55L63.7422 134.039C66.3416 134.692 68.8913 135.376 71.3975 136.016L66.9511 153.877L77.6908 156.551L82.0937 138.89C85.029 139.679 87.8772 140.413 90.6632 141.11L86.2727 158.696L97.0187 161.37L101.465 143.547C119.798 147.017 133.579 145.618 139.381 129.039C144.057 115.694 139.151 107.989 129.505 102.97C136.533 101.353 141.819 96.7327 143.23 87.1869ZM118.666 121.626C115.352 134.978 92.8708 127.758 85.5824 125.948L91.4902 102.286C98.7786 104.108 122.142 107.709 118.666 121.626ZM121.993 86.9941C118.965 99.1393 100.259 92.9641 94.1954 91.4529L99.5435 69.9982C105.607 71.5094 125.152 74.3265 121.993 86.9941Z" fill="#0052FF"/>
<path fill-rule="evenodd" clip-rule="evenodd" d="M99.5 189.672C149.3 189.672 189.672 149.3 189.672 99.5C189.672 49.6994 149.3 9.32812 99.5 9.32812C49.6994 9.32812 9.32812 49.6994 9.32812 99.5C9.32812 149.3 49.6994 189.672 99.5 189.672ZM199 99.5C199 154.453 154.453 199 99.5 199C44.5476 199 0 154.453 0 99.5C0 44.5476 44.5476 0 99.5 0C154.453 0 199 44.5476 199 99.5Z" fill="#0052FF"/>
</g>
<defs>
<clipPath id="clip0_3557_1479">
<rect width="199" height="199" fill="white"/>
</clipPath>
</defs>
</svg>
