<?xml version="1.0" encoding="UTF-8"?>
<!DOCTYPE svg PUBLIC "-//W3C//DTD SVG 1.1//EN" "http://www.w3.org/Graphics/SVG/1.1/DTD/svg11.dtd">
<svg xmlns="http://www.w3.org/2000/svg" version="1.1" width="200px" height="200px" style="shape-rendering:geometricPrecision; text-rendering:geometricPrecision; image-rendering:optimizeQuality; fill-rule:evenodd; clip-rule:evenodd" xmlns:xlink="http://www.w3.org/1999/xlink">
<g><path style="opacity:1" fill="#ecf995" d="M 95.5,-0.5 C 98.1667,-0.5 100.833,-0.5 103.5,-0.5C 157.771,5.77209 189.771,35.7721 199.5,89.5C 199.5,96.5 199.5,103.5 199.5,110.5C 193.513,149.337 172.513,176.837 136.5,193C 128.184,195.756 119.851,197.922 111.5,199.5C 103.5,199.5 95.5,199.5 87.5,199.5C 49.9428,193.457 23.1094,173.124 7,138.5C 3.53438,129.296 1.03438,119.962 -0.5,110.5C -0.5,103.5 -0.5,96.5 -0.5,89.5C 9.2286,35.7721 41.2286,5.77209 95.5,-0.5 Z"/></g>
<g><path style="opacity:1" fill="#010100" d="M 97.5,23.5 C 99.8568,23.3367 102.19,23.5034 104.5,24C 110.833,30.3333 117.167,36.6667 123.5,43C 125.5,43.6667 127.5,43.6667 129.5,43C 123.5,37 117.5,31 111.5,25C 119.352,25.912 126.685,28.5787 133.5,33C 143.19,41.6912 152.523,50.6912 161.5,60C 154.698,65.8013 148.198,71.9679 142,78.5C 120.857,60.4395 97.8569,57.7729 73,70.5C 66.3616,64.6968 59.8616,58.6968 53.5,52.5C 52.5853,53.3279 51.9186,54.3279 51.5,55.5C 57.8333,62.1667 64.1667,68.8333 70.5,75.5C 69.3333,77.8333 68.1667,80.1667 67,82.5C 61,76.5 55,70.5 49,64.5C 47.5596,65.9304 47.2263,67.597 48,69.5C 53.6667,75.1667 59.3333,80.8333 65,86.5C 65.7011,89.9283 65.3677,93.2617 64,96.5C 58,90.5 52,84.5 46,78.5C 45.3333,80.5 45.3333,82.5 46,84.5C 52,90.5 58,96.5 64,102.5C 65.1005,107.257 66.1005,111.924 67,116.5C 61.3226,110.292 55.4893,104.958 49.5,100.5C 51.0795,103.994 52.9128,107.327 55,110.5C 60.8333,116.333 66.6667,122.167 72.5,128C 97.4164,140.962 120.583,138.462 142,120.5C 148.79,126.289 155.29,132.455 161.5,139C 155.652,145.015 149.652,150.848 143.5,156.5C 137.348,150.848 131.348,145.015 125.5,139C 123.799,138.655 122.466,139.322 121.5,141C 127.833,147.333 134.167,153.667 140.5,160C 138.277,161.733 135.944,163.233 133.5,164.5C 126.744,159.249 120.411,153.415 114.5,147C 112.226,146.537 111.059,147.37 111,149.5C 117.015,155.348 122.848,161.348 128.5,167.5C 126.573,169.102 124.406,170.435 122,171.5C 115.833,165.333 109.667,159.167 103.5,153C 101.741,152.202 100.074,152.369 98.5,153.5C 104.5,159.833 110.5,166.167 116.5,172.5C 114.242,173.418 111.909,174.085 109.5,174.5C 101.867,168.036 94.3668,161.37 87,154.5C 85.7753,154.862 84.6086,155.362 83.5,156C 89.5,162 95.5,168 101.5,174C 97.4285,174.658 93.4285,174.325 89.5,173C 83.1667,166.667 76.8333,160.333 70.5,154C 67.8454,152.885 65.1787,152.218 62.5,152C 68.1667,157.667 73.8333,163.333 79.5,169C 77.4021,168.968 75.4021,168.301 73.5,167C 71.1667,165.333 68.8333,163.667 66.5,162C 56.9752,151.476 47.1419,141.31 37,131.5C 20.179,102.263 24.0123,76.0968 48.5,53C 52.3818,51.3207 55.5484,48.8207 58,45.5C 64.3333,51.8333 70.6667,58.1667 77,64.5C 78.6779,63.5342 79.3446,62.2009 79,60.5C 73.3333,54.8333 67.6667,49.1667 62,43.5C 61.9099,40.5377 63.2432,38.2043 66,36.5C 72.3761,43.2112 79.0428,49.5446 86,55.5C 87.9457,55.2373 88.6123,54.2373 88,52.5C 81.9851,46.6521 76.1518,40.6521 70.5,34.5C 72.335,32.1274 74.6683,30.9607 77.5,31C 83.6667,37.1667 89.8333,43.3333 96,49.5C 97.2547,48.7894 98.4214,47.956 99.5,47C 93.6667,41.1667 87.8333,35.3333 82,29.5C 81.5439,28.2559 82.0439,27.4226 83.5,27C 85.4473,26.0087 87.4473,25.6753 89.5,26C 95.5,32 101.5,38 107.5,44C 109.259,44.7975 110.926,44.6309 112.5,43.5C 106.682,37.1812 100.682,31.0145 94.5,25C 95.7375,24.7679 96.7375,24.2679 97.5,23.5 Z"/></g>
</svg>
