<?xml version="1.0" encoding="UTF-8"?>
<!DOCTYPE svg PUBLIC "-//W3C//DTD SVG 1.1//EN" "http://www.w3.org/Graphics/SVG/1.1/DTD/svg11.dtd">
<svg xmlns="http://www.w3.org/2000/svg" version="1.1" width="200px" height="200px" style="shape-rendering:geometricPrecision; text-rendering:geometricPrecision; image-rendering:optimizeQuality; fill-rule:evenodd; clip-rule:evenodd" xmlns:xlink="http://www.w3.org/1999/xlink">
<g><path style="opacity:1" fill="#82886f" d="M -0.5,-0.5 C 66.1667,-0.5 132.833,-0.5 199.5,-0.5C 199.5,66.1667 199.5,132.833 199.5,199.5C 132.833,199.5 66.1667,199.5 -0.5,199.5C -0.5,132.833 -0.5,66.1667 -0.5,-0.5 Z"/></g>
<g><path style="opacity:1" fill="#392f18" d="M 121.5,29.5 C 126.845,27.6698 129.012,29.6698 128,35.5C 127.722,36.4158 127.222,37.0825 126.5,37.5C 128.863,32.2323 127.197,29.5656 121.5,29.5 Z"/></g>
<g><path style="opacity:1" fill="#3b3416" d="M 112.5,37.5 C 112.708,35.0799 112.374,32.7466 111.5,30.5C 108.369,29.7274 106.202,31.0607 105,34.5C 104.666,36.8473 104.833,39.1806 105.5,41.5C 102.35,36.2746 103.35,31.7746 108.5,28C 110.888,27.1349 112.388,27.9683 113,30.5C 113.796,33.0385 113.629,35.3718 112.5,37.5 Z"/></g>
<g><path style="opacity:1" fill="#604622" d="M 126.5,37.5 C 125.74,41.0266 124.406,44.36 122.5,47.5C 124.571,48.9759 125.571,50.9759 125.5,53.5C 122.991,51.3195 121.157,48.6528 120,45.5C 119.667,45.8333 119.333,46.1667 119,46.5C 118.585,41.9794 119.918,37.9794 123,34.5C 122.52,37.1645 121.687,39.8312 120.5,42.5C 120.833,43.1667 121.167,43.8333 121.5,44.5C 123.422,42.3134 125.088,39.9801 126.5,37.5 Z"/></g>
<g><path style="opacity:1" fill="#29210d" d="M 105.5,41.5 C 106.478,41.811 107.145,42.4777 107.5,43.5C 104.522,44.3525 101.522,45.0192 98.5,45.5C 92.6828,46.706 87.0161,48.0393 81.5,49.5C 74.7318,50.4536 68.0651,51.787 61.5,53.5C 61.1583,52.6618 60.4916,52.3284 59.5,52.5C 73.1747,48.5857 87.1747,45.5857 101.5,43.5C 103.333,43.4146 104.666,42.7479 105.5,41.5 Z"/></g>
<g><path style="opacity:1" fill="#050503" d="M 59.5,52.5 C 60.4916,52.3284 61.1583,52.6618 61.5,53.5C 60.9569,53.56 60.6236,53.8933 60.5,54.5C 62.4944,57.1498 63.4944,60.1498 63.5,63.5C 63.8696,69.9251 63.3696,76.2584 62,82.5C 60.2352,85.473 57.7352,87.6396 54.5,89C 59.8259,91.5795 65.4926,92.7461 71.5,92.5C 72.5,92.5 73.5,92.5 74.5,92.5C 74.3746,95.6082 75.7079,97.6082 78.5,98.5C 78.5,98.8333 78.5,99.1667 78.5,99.5C 75.5666,100.104 73.5666,101.771 72.5,104.5C 72.7239,102.213 73.3906,100.047 74.5,98C 73.8524,96.5603 73.5191,95.0603 73.5,93.5C 59.2505,94.5905 47.4172,89.9239 38,79.5C 34.7474,71.8223 34.7474,64.1557 38,56.5C 39.8259,54.9262 41.9925,54.0929 44.5,54C 49.4636,53.0878 54.4636,52.5878 59.5,52.5 Z"/></g>
<g><path style="opacity:1" fill="#160904" d="M 87.5,54.5 C 87.5,54.1667 87.5,53.8333 87.5,53.5C 89.5273,53.3379 91.5273,53.5045 93.5,54C 96.3033,57.4099 95.3033,58.9099 90.5,58.5C 90.5,57.1667 90.5,55.8333 90.5,54.5C 89.5,54.5 88.5,54.5 87.5,54.5 Z"/></g>
<g><path style="opacity:1" fill="#a8793e" d="M 81.5,49.5 C 83.4966,50.8075 85.4966,52.1408 87.5,53.5C 87.5,53.8333 87.5,54.1667 87.5,54.5C 87.6225,57.2921 88.9558,59.2921 91.5,60.5C 87.0172,62.1343 82.3505,62.4676 77.5,61.5C 75.9623,61.4534 74.9623,62.1201 74.5,63.5C 72.5,63.5 70.5,63.5 68.5,63.5C 68.0332,68.3289 66.6998,68.6623 64.5,64.5C 64.5,63.8333 64.1667,63.5 63.5,63.5C 63.4944,60.1498 62.4944,57.1498 60.5,54.5C 60.6236,53.8933 60.9569,53.56 61.5,53.5C 68.0651,51.787 74.7318,50.4536 81.5,49.5 Z"/></g>
<g><path style="opacity:1" fill="#9d7747" d="M 98.5,45.5 C 96.7705,46.6407 95.7705,48.3074 95.5,50.5C 96.5,53.5 97.5,56.5 98.5,59.5C 98.8333,58.5 99.1667,57.5 99.5,56.5C 98.6239,54.1765 98.1239,51.8432 98,49.5C 99.6477,47.9716 101.648,47.3049 104,47.5C 105.707,47.5085 107.207,47.8418 108.5,48.5C 105.813,48.3359 103.146,48.5026 100.5,49C 99.2888,49.8928 99.2888,50.7261 100.5,51.5C 104.644,50.8444 108.644,50.5111 112.5,50.5C 113.434,51.5676 113.768,52.901 113.5,54.5C 111.129,57.1239 109.295,59.7906 108,62.5C 105.895,61.6886 103.895,60.6886 102,59.5C 98.4734,59.8988 94.9734,60.2321 91.5,60.5C 88.9558,59.2921 87.6225,57.2921 87.5,54.5C 88.5,54.5 89.5,54.5 90.5,54.5C 90.5,55.8333 90.5,57.1667 90.5,58.5C 95.3033,58.9099 96.3033,57.4099 93.5,54C 91.5273,53.5045 89.5273,53.3379 87.5,53.5C 85.4966,52.1408 83.4966,50.8075 81.5,49.5C 87.0161,48.0393 92.6828,46.706 98.5,45.5 Z"/></g>
<g><path style="opacity:1" fill="#261204" d="M 87.5,49.5 C 90.1569,49.162 92.4902,49.8287 94.5,51.5C 94.1667,51.8333 93.8333,52.1667 93.5,52.5C 90.8908,51.7695 88.2241,51.2695 85.5,51C 86.4158,50.7216 87.0825,50.2216 87.5,49.5 Z"/></g>
<g><path style="opacity:1" fill="#a07d3b" d="M 113.5,54.5 C 116.649,55.1603 118.149,57.1603 118,60.5C 118.414,60.0426 118.914,59.7093 119.5,59.5C 120.728,64.5185 120.728,69.5185 119.5,74.5C 115.321,72.915 111.654,73.7484 108.5,77C 109.536,78.7755 109.536,80.6089 108.5,82.5C 107.833,82.5 107.5,82.8333 107.5,83.5C 107.631,84.3764 107.298,85.0431 106.5,85.5C 101.365,87.7841 96.0312,89.4508 90.5,90.5C 90.6236,91.1067 90.9569,91.44 91.5,91.5C 91.3505,92.552 91.5172,93.552 92,94.5C 93.9435,93.193 95.7768,93.193 97.5,94.5C 95.901,94.2322 94.5676,94.5655 93.5,95.5C 94.9488,97.1644 96.9488,97.9977 99.5,98C 91.6268,98.8734 91.7935,99.3734 100,99.5C 108.435,98.847 116.602,97.1803 124.5,94.5C 119.648,96.8945 114.648,98.8945 109.5,100.5C 102.515,101.089 95.515,101.422 88.5,101.5C 85.2365,100.518 81.9032,99.8511 78.5,99.5C 78.5,99.1667 78.5,98.8333 78.5,98.5C 81.2377,98.1489 83.9044,97.4822 86.5,96.5C 88.9098,90.0664 86.7431,86.7331 80,86.5C 79.5014,82.8484 79.3347,79.1817 79.5,75.5C 77.0576,75.6463 76.3909,74.813 77.5,73C 80.2283,70.1355 83.5617,68.6355 87.5,68.5C 87.5,66.8333 87.5,65.1667 87.5,63.5C 84.9512,63.3874 82.6179,64.0541 80.5,65.5C 78.8211,63.8955 76.8211,63.2289 74.5,63.5C 74.9623,62.1201 75.9623,61.4534 77.5,61.5C 82.3505,62.4676 87.0172,62.1343 91.5,60.5C 94.9734,60.2321 98.4734,59.8988 102,59.5C 103.895,60.6886 105.895,61.6886 108,62.5C 109.295,59.7906 111.129,57.1239 113.5,54.5 Z"/></g>
<g><path style="opacity:1" fill="#402d14" d="M 125.5,53.5 C 126.268,54.2625 126.768,55.2625 127,56.5C 127.728,68.8551 127.562,81.1884 126.5,93.5C 126.167,93.5 125.833,93.5 125.5,93.5C 126.811,80.1638 126.811,66.8304 125.5,53.5 Z"/></g>
<g><path style="opacity:1" fill="#9e823a" d="M 74.5,63.5 C 76.8211,63.2289 78.8211,63.8955 80.5,65.5C 82.6179,64.0541 84.9512,63.3874 87.5,63.5C 87.5,65.1667 87.5,66.8333 87.5,68.5C 83.5617,68.6355 80.2283,70.1355 77.5,73C 76.3909,74.813 77.0576,75.6463 79.5,75.5C 79.3347,79.1817 79.5014,82.8484 80,86.5C 86.7431,86.7331 88.9098,90.0664 86.5,96.5C 83.9044,97.4822 81.2377,98.1489 78.5,98.5C 75.7079,97.6082 74.3746,95.6082 74.5,92.5C 73.5,92.5 72.5,92.5 71.5,92.5C 71.393,90.0968 72.393,88.2635 74.5,87C 73.5838,86.6258 72.7504,86.1258 72,85.5C 70.7655,82.5802 69.7655,79.5802 69,76.5C 68.7508,77.624 68.2508,78.624 67.5,79.5C 64.8666,74.9028 63.8666,69.9028 64.5,64.5C 66.6998,68.6623 68.0332,68.3289 68.5,63.5C 70.5,63.5 72.5,63.5 74.5,63.5 Z"/></g>
<g><path style="opacity:1" fill="#ac743b" d="M 108.5,82.5 C 109.536,80.6089 109.536,78.7755 108.5,77C 111.654,73.7484 115.321,72.915 119.5,74.5C 120.268,75.2625 120.768,76.2625 121,77.5C 121.601,75.8632 122.101,74.1966 122.5,72.5C 121.03,67.0207 121.197,61.6874 123,56.5C 125.974,68.7565 125.974,81.0899 123,93.5C 121.383,92.4642 121.216,91.2975 122.5,90C 120.985,87.3772 118.985,86.3772 116.5,87C 117.727,85.4126 117.394,84.0793 115.5,83C 113.19,82.5034 110.857,82.3367 108.5,82.5 Z"/></g>
<g><path style="opacity:1" fill="#a5783e" d="M 112.5,37.5 C 111.532,39.6074 111.198,41.9407 111.5,44.5C 112.833,44.5 114.167,44.5 115.5,44.5C 115.5,42.1667 115.5,39.8333 115.5,37.5C 117.055,34.5962 119.055,31.9295 121.5,29.5C 127.197,29.5656 128.863,32.2323 126.5,37.5C 125.088,39.9801 123.422,42.3134 121.5,44.5C 121.167,43.8333 120.833,43.1667 120.5,42.5C 121.687,39.8312 122.52,37.1645 123,34.5C 119.918,37.9794 118.585,41.9794 119,46.5C 119.333,46.1667 119.667,45.8333 120,45.5C 121.157,48.6528 122.991,51.3195 125.5,53.5C 126.811,66.8304 126.811,80.1638 125.5,93.5C 125.5,94.1667 125.167,94.5 124.5,94.5C 116.602,97.1803 108.435,98.847 100,99.5C 91.7935,99.3734 91.6268,98.8734 99.5,98C 96.9488,97.9977 94.9488,97.1644 93.5,95.5C 97.0354,96.6198 100.369,96.1198 103.5,94C 101.575,94.1349 99.5753,94.3016 97.5,94.5C 95.7768,93.193 93.9435,93.193 92,94.5C 91.5172,93.552 91.3505,92.552 91.5,91.5C 98.6114,90.6294 105.278,88.4627 111.5,85C 110.255,84.2086 108.922,83.7086 107.5,83.5C 107.5,82.8333 107.833,82.5 108.5,82.5C 110.857,82.3367 113.19,82.5034 115.5,83C 117.394,84.0793 117.727,85.4126 116.5,87C 118.985,86.3772 120.985,87.3772 122.5,90C 121.216,91.2975 121.383,92.4642 123,93.5C 125.974,81.0899 125.974,68.7565 123,56.5C 121.197,61.6874 121.03,67.0207 122.5,72.5C 122.101,74.1966 121.601,75.8632 121,77.5C 120.768,76.2625 120.268,75.2625 119.5,74.5C 120.728,69.5185 120.728,64.5185 119.5,59.5C 118.914,59.7093 118.414,60.0426 118,60.5C 118.149,57.1603 116.649,55.1603 113.5,54.5C 113.768,52.901 113.434,51.5676 112.5,50.5C 111.167,49.8333 109.833,49.1667 108.5,48.5C 107.207,47.8418 105.707,47.5085 104,47.5C 101.648,47.3049 99.6477,47.9716 98,49.5C 98.1239,51.8432 98.6239,54.1765 99.5,56.5C 99.1667,57.5 98.8333,58.5 98.5,59.5C 97.5,56.5 96.5,53.5 95.5,50.5C 95.7705,48.3074 96.7705,46.6407 98.5,45.5C 101.522,45.0192 104.522,44.3525 107.5,43.5C 107.145,42.4777 106.478,41.811 105.5,41.5C 104.833,39.1806 104.666,36.8473 105,34.5C 106.202,31.0607 108.369,29.7274 111.5,30.5C 112.374,32.7466 112.708,35.0799 112.5,37.5 Z"/></g>
<g><path style="opacity:1" fill="#190e03" d="M 101.5,52.5 C 104.691,52.974 107.691,53.974 110.5,55.5C 107.158,61.1438 105.158,60.8105 104.5,54.5C 103.127,54.6567 101.793,54.49 100.5,54C 101.056,53.6174 101.389,53.1174 101.5,52.5 Z"/></g>
<g><path style="opacity:1" fill="#231107" d="M 108.5,48.5 C 109.833,49.1667 111.167,49.8333 112.5,50.5C 108.644,50.5111 104.644,50.8444 100.5,51.5C 99.2888,50.7261 99.2888,49.8928 100.5,49C 103.146,48.5026 105.813,48.3359 108.5,48.5 Z"/></g>
<g><path style="opacity:1" fill="#34260a" d="M 112.5,37.5 C 112.201,39.604 112.534,41.604 113.5,43.5C 114.169,41.3691 114.835,39.3691 115.5,37.5C 115.5,39.8333 115.5,42.1667 115.5,44.5C 114.167,44.5 112.833,44.5 111.5,44.5C 111.198,41.9407 111.532,39.6074 112.5,37.5 Z"/></g>
<g><path style="opacity:1" fill="#402e15" d="M 121.5,29.5 C 119.055,31.9295 117.055,34.5962 115.5,37.5C 115.635,33.3729 117.635,30.7062 121.5,29.5 Z"/></g>
<g><path style="opacity:1" fill="#412108" d="M 107.5,83.5 C 108.922,83.7086 110.255,84.2086 111.5,85C 105.278,88.4627 98.6114,90.6294 91.5,91.5C 90.9569,91.44 90.6236,91.1067 90.5,90.5C 96.0312,89.4508 101.365,87.7841 106.5,85.5C 107.298,85.0431 107.631,84.3764 107.5,83.5 Z"/></g>
<g><path style="opacity:1" fill="#86863f" d="M 63.5,63.5 C 64.1667,63.5 64.5,63.8333 64.5,64.5C 63.8666,69.9028 64.8666,74.9028 67.5,79.5C 68.2508,78.624 68.7508,77.624 69,76.5C 69.7655,79.5802 70.7655,82.5802 72,85.5C 72.7504,86.1258 73.5838,86.6258 74.5,87C 72.393,88.2635 71.393,90.0968 71.5,92.5C 65.4926,92.7461 59.8259,91.5795 54.5,89C 57.7352,87.6396 60.2352,85.473 62,82.5C 63.3696,76.2584 63.8696,69.9251 63.5,63.5 Z"/></g>
<g><path style="opacity:1" fill="#513210" d="M 93.5,95.5 C 94.5676,94.5655 95.901,94.2322 97.5,94.5C 99.5753,94.3016 101.575,94.1349 103.5,94C 100.369,96.1198 97.0354,96.6198 93.5,95.5 Z"/></g>
<g><path style="opacity:1" fill="#41423c" d="M 125.5,93.5 C 125.833,93.5 126.167,93.5 126.5,93.5C 126.31,95.9589 127.31,97.6255 129.5,98.5C 127.143,98.3367 124.81,98.5034 122.5,99C 114.841,104.106 106.341,106.606 97,106.5C 92.7907,106.024 88.6241,105.358 84.5,104.5C 86.2191,103.978 87.5525,102.978 88.5,101.5C 95.515,101.422 102.515,101.089 109.5,100.5C 114.648,98.8945 119.648,96.8945 124.5,94.5C 125.167,94.5 125.5,94.1667 125.5,93.5 Z"/></g>
<g><path style="opacity:1" fill="#4f554a" d="M 78.5,99.5 C 81.9032,99.8511 85.2365,100.518 88.5,101.5C 87.5525,102.978 86.2191,103.978 84.5,104.5C 82.2186,103.793 80.0519,102.793 78,101.5C 75.9077,104.373 74.9077,107.707 75,111.5C 74.8078,109.423 74.3078,107.423 73.5,105.5C 72.4793,106.901 71.4793,108.235 70.5,109.5C 70.4021,107.447 71.0687,105.78 72.5,104.5C 73.5666,101.771 75.5666,100.104 78.5,99.5 Z"/></g>
<g><path style="opacity:1" fill="#818780" d="M 109.5,100.5 C 111.288,100.215 112.955,100.548 114.5,101.5C 112.593,101.539 110.593,102.206 108.5,103.5C 107.5,103.167 106.5,102.833 105.5,102.5C 106.274,101.289 107.107,101.289 108,102.5C 108.717,101.956 109.217,101.289 109.5,100.5 Z"/></g>
<g><path style="opacity:1" fill="#283024" d="M 132.5,102.5 C 133.906,102.973 134.573,103.973 134.5,105.5C 133.094,105.027 132.427,104.027 132.5,102.5 Z"/></g>
<g><path style="opacity:1" fill="#9aa39f" d="M 129.5,98.5 C 129.738,100.404 130.738,101.738 132.5,102.5C 132.427,104.027 133.094,105.027 134.5,105.5C 136.229,109.69 137.563,114.023 138.5,118.5C 137.971,123.897 135.638,128.23 131.5,131.5C 130.292,132.234 128.959,132.567 127.5,132.5C 119.701,129.731 118.368,124.898 123.5,118C 123.192,116.541 122.525,115.374 121.5,114.5C 122.348,118.2 121.348,121.533 118.5,124.5C 116.97,125.067 115.47,125.733 114,126.5C 112.82,125.316 111.32,124.649 109.5,124.5C 100.22,125.063 90.5538,125.397 80.5,125.5C 78.9826,125.489 77.8159,124.823 77,123.5C 75.5921,119.943 74.5921,116.276 74,112.5C 73.8008,114.402 72.9675,115.902 71.5,117C 73.4877,119.112 74.821,121.612 75.5,124.5C 75.5,125.5 75.5,126.5 75.5,127.5C 74.325,127.719 73.325,127.386 72.5,126.5C 71.3385,124.115 70.3385,121.781 69.5,119.5C 69.6159,116.14 69.9492,112.807 70.5,109.5C 71.4793,108.235 72.4793,106.901 73.5,105.5C 74.3078,107.423 74.8078,109.423 75,111.5C 74.9077,107.707 75.9077,104.373 78,101.5C 80.0519,102.793 82.2186,103.793 84.5,104.5C 88.6241,105.358 92.7907,106.024 97,106.5C 106.341,106.606 114.841,104.106 122.5,99C 124.81,98.5034 127.143,98.3367 129.5,98.5 Z"/></g>
<g><path style="opacity:1" fill="#999f9a" d="M 100.5,102.5 C 101.978,102.238 103.311,102.571 104.5,103.5C 103.833,103.833 103.167,104.167 102.5,104.5C 101.287,104.253 100.62,103.586 100.5,102.5 Z"/></g>
<g><path style="opacity:1" fill="#3f3d44" d="M 121.5,114.5 C 119.771,110.937 120.604,107.937 124,105.5C 122.123,108.005 121.29,111.005 121.5,114.5 Z"/></g>
<g><path style="opacity:1" fill="#282e23" d="M 70.5,109.5 C 69.9492,112.807 69.6159,116.14 69.5,119.5C 68.1353,116.041 68.4686,112.708 70.5,109.5 Z"/></g>
<g><path style="opacity:1" fill="#3a3f32" d="M 134.5,105.5 C 141.418,114.59 141.084,123.59 133.5,132.5C 132.508,132.672 131.842,132.338 131.5,131.5C 135.638,128.23 137.971,123.897 138.5,118.5C 137.563,114.023 136.229,109.69 134.5,105.5 Z"/></g>
<g><path style="opacity:1" fill="#28352e" d="M 80.5,125.5 C 81.5,126.167 82.5,126.833 83.5,127.5C 83.5,128.5 83.5,129.5 83.5,130.5C 81.6137,129.639 79.7804,128.639 78,127.5C 77.5,128.5 77,129.5 76.5,130.5C 78.9513,137.306 80.618,144.306 81.5,151.5C 79.6993,146.377 78.1993,141.044 77,135.5C 75.4558,133.532 74.2891,131.365 73.5,129C 75.2909,128.585 76.6243,127.585 77.5,126C 76.9558,125.283 76.2891,124.783 75.5,124.5C 74.821,121.612 73.4877,119.112 71.5,117C 72.9675,115.902 73.8008,114.402 74,112.5C 74.5921,116.276 75.5921,119.943 77,123.5C 77.8159,124.823 78.9826,125.489 80.5,125.5 Z"/></g>
<g><path style="opacity:1" fill="#8d8b94" d="M 118.5,124.5 C 118.5,125.5 118.5,126.5 118.5,127.5C 115.287,127.19 112.287,127.523 109.5,128.5C 100.833,128.167 92.1667,127.833 83.5,127.5C 82.5,126.833 81.5,126.167 80.5,125.5C 90.5538,125.397 100.22,125.063 109.5,124.5C 111.32,124.649 112.82,125.316 114,126.5C 115.47,125.733 116.97,125.067 118.5,124.5 Z"/></g>
<g><path style="opacity:1" fill="#191a1e" d="M 83.5,127.5 C 92.1667,127.833 100.833,128.167 109.5,128.5C 110.552,128.351 111.552,128.517 112.5,129C 106.555,130.121 100.721,130.288 95,129.5C 93.0194,129.629 91.3528,130.296 90,131.5C 89.0508,128.8 87.2175,127.967 84.5,129C 85.7383,129.69 85.7383,130.19 84.5,130.5C 84.1667,130.5 83.8333,130.5 83.5,130.5C 83.5,129.5 83.5,128.5 83.5,127.5 Z"/></g>
<g><path style="opacity:1" fill="#2f3838" d="M 121.5,114.5 C 122.525,115.374 123.192,116.541 123.5,118C 118.368,124.898 119.701,129.731 127.5,132.5C 127.5,133.167 127.5,133.833 127.5,134.5C 125.801,134.66 124.134,134.494 122.5,134C 120.983,132.315 119.316,130.815 117.5,129.5C 116.817,129.863 116.15,130.196 115.5,130.5C 108.646,132.361 101.646,133.527 94.5,134C 96.4727,134.495 98.4727,134.662 100.5,134.5C 100.5,135.5 100.5,136.5 100.5,137.5C 99.8485,136.909 99.1818,136.243 98.5,135.5C 97.4679,137.04 96.1346,137.54 94.5,137C 94.8333,136.667 95.1667,136.333 95.5,136C 93.7312,134.936 92.0645,133.769 90.5,132.5C 88.9623,132.453 87.9623,133.12 87.5,134.5C 83.6742,133.52 83.6742,132.687 87.5,132C 86.2625,131.768 85.2625,131.268 84.5,130.5C 85.7383,130.19 85.7383,129.69 84.5,129C 87.2175,127.967 89.0508,128.8 90,131.5C 91.3528,130.296 93.0194,129.629 95,129.5C 100.721,130.288 106.555,130.121 112.5,129C 111.552,128.517 110.552,128.351 109.5,128.5C 112.287,127.523 115.287,127.19 118.5,127.5C 118.5,126.5 118.5,125.5 118.5,124.5C 121.348,121.533 122.348,118.2 121.5,114.5 Z"/></g>
<g><path style="opacity:1" fill="#7eaea0" d="M 127.5,134.5 C 128.117,134.389 128.617,134.056 129,133.5C 129.69,141.826 130.19,150.159 130.5,158.5C 130.158,159.338 129.492,159.672 128.5,159.5C 125.482,159.665 122.482,159.498 119.5,159C 121.844,158.163 123.844,156.829 125.5,155C 124.5,154 123.5,153 122.5,152C 125.886,150.401 126.886,147.901 125.5,144.5C 117.855,143.669 110.188,143.169 102.5,143C 103.942,142.623 104.942,141.79 105.5,140.5C 109.938,141.575 111.938,139.908 111.5,135.5C 112.873,135.657 114.207,135.49 115.5,135C 112.5,134.667 109.5,134.333 106.5,134C 110.042,133.879 113.042,132.713 115.5,130.5C 116.15,130.196 116.817,129.863 117.5,129.5C 119.316,130.815 120.983,132.315 122.5,134C 124.134,134.494 125.801,134.66 127.5,134.5 Z"/></g>
<g><path style="opacity:1" fill="#4a5e60" d="M 100.5,137.5 C 103.85,137.335 107.183,137.502 110.5,138C 107.5,139.074 104.5,139.907 101.5,140.5C 102.289,145.536 103.289,150.536 104.5,155.5C 103.778,155.082 103.278,154.416 103,153.5C 102.536,154.094 102.369,154.761 102.5,155.5C 99.836,151.178 98.836,146.512 99.5,141.5C 96.2277,140.044 92.8944,138.71 89.5,137.5C 87.9519,137.179 87.2852,136.179 87.5,134.5C 87.9623,133.12 88.9623,132.453 90.5,132.5C 92.0645,133.769 93.7312,134.936 95.5,136C 95.1667,136.333 94.8333,136.667 94.5,137C 96.1346,137.54 97.4679,137.04 98.5,135.5C 99.1818,136.243 99.8485,136.909 100.5,137.5 Z"/></g>
<g><path style="opacity:1" fill="#7b9a95" d="M 115.5,130.5 C 113.042,132.713 110.042,133.879 106.5,134C 109.5,134.333 112.5,134.667 115.5,135C 114.207,135.49 112.873,135.657 111.5,135.5C 111.938,139.908 109.938,141.575 105.5,140.5C 104.167,140.5 102.833,140.5 101.5,140.5C 104.5,139.907 107.5,139.074 110.5,138C 107.183,137.502 103.85,137.335 100.5,137.5C 100.5,136.5 100.5,135.5 100.5,134.5C 98.4727,134.662 96.4727,134.495 94.5,134C 101.646,133.527 108.646,132.361 115.5,130.5 Z"/></g>
<g><path style="opacity:1" fill="#81b3a2" d="M 83.5,130.5 C 83.8333,130.5 84.1667,130.5 84.5,130.5C 85.2625,131.268 86.2625,131.768 87.5,132C 83.6742,132.687 83.6742,133.52 87.5,134.5C 87.2852,136.179 87.9519,137.179 89.5,137.5C 90.5113,139.199 91.8446,140.699 93.5,142C 93.3341,144.164 92.1674,145.331 90,145.5C 87.9352,143.784 85.6018,142.451 83,141.5C 83.5895,145.958 84.9228,150.291 87,154.5C 92.1647,155.376 97.3314,156.376 102.5,157.5C 99.0381,158.482 95.3714,158.815 91.5,158.5C 85.9759,159.086 82.6425,156.752 81.5,151.5C 80.618,144.306 78.9513,137.306 76.5,130.5C 77,129.5 77.5,128.5 78,127.5C 79.7804,128.639 81.6137,129.639 83.5,130.5 Z"/></g>
<g><path style="opacity:1" fill="#82a89a" d="M 132.5,134.5 C 132.5,141.5 132.5,148.5 132.5,155.5C 130.742,148.351 130.409,141.018 131.5,133.5C 132.107,133.624 132.44,133.957 132.5,134.5 Z"/></g>
<g><path style="opacity:1" fill="#89b1af" d="M 101.5,140.5 C 102.833,140.5 104.167,140.5 105.5,140.5C 104.942,141.79 103.942,142.623 102.5,143C 110.188,143.169 117.855,143.669 125.5,144.5C 126.886,147.901 125.886,150.401 122.5,152C 123.5,153 124.5,154 125.5,155C 123.844,156.829 121.844,158.163 119.5,159C 122.482,159.498 125.482,159.665 128.5,159.5C 124.019,160.648 119.352,160.815 114.5,160C 111.203,159.796 108.203,158.963 105.5,157.5C 105.672,156.508 105.338,155.842 104.5,155.5C 103.289,150.536 102.289,145.536 101.5,140.5 Z"/></g>
<g><path style="opacity:1" fill="#8bb1b1" d="M 89.5,137.5 C 92.8944,138.71 96.2277,140.044 99.5,141.5C 98.836,146.512 99.836,151.178 102.5,155.5C 102.5,156.167 102.5,156.833 102.5,157.5C 97.3314,156.376 92.1647,155.376 87,154.5C 84.9228,150.291 83.5895,145.958 83,141.5C 85.6018,142.451 87.9352,143.784 90,145.5C 92.1674,145.331 93.3341,144.164 93.5,142C 91.8446,140.699 90.5113,139.199 89.5,137.5 Z"/></g>
<g><path style="opacity:1" fill="#63727e" d="M 85.5,147.5 C 88.1926,147.892 90.8593,149.058 93.5,151C 90.9325,152.904 88.5992,152.57 86.5,150C 85.7476,149.329 85.4142,148.496 85.5,147.5 Z"/></g>
<g><path style="opacity:1" fill="#406855" d="M 131.5,131.5 C 131.842,132.338 132.508,132.672 133.5,132.5C 133.5,133.167 133.5,133.833 133.5,134.5C 133.167,134.5 132.833,134.5 132.5,134.5C 132.44,133.957 132.107,133.624 131.5,133.5C 130.409,141.018 130.742,148.351 132.5,155.5C 132.715,157.179 132.048,158.179 130.5,158.5C 130.19,150.159 129.69,141.826 129,133.5C 128.617,134.056 128.117,134.389 127.5,134.5C 127.5,133.833 127.5,133.167 127.5,132.5C 128.959,132.567 130.292,132.234 131.5,131.5 Z"/></g>
<g><path style="opacity:1" fill="#365639" d="M 81.5,151.5 C 82.6425,156.752 85.9759,159.086 91.5,158.5C 91.1583,159.338 90.4916,159.672 89.5,159.5C 87.0637,159.683 84.897,159.016 83,157.5C 82.9031,160.716 83.7364,163.716 85.5,166.5C 85.1583,167.338 84.4916,167.672 83.5,167.5C 82.9094,164.06 81.9094,160.727 80.5,157.5C 81.3482,155.591 81.6816,153.591 81.5,151.5 Z"/></g>
<g><path style="opacity:1" fill="#4e7563" d="M 104.5,155.5 C 105.338,155.842 105.672,156.508 105.5,157.5C 104.662,157.842 104.328,158.508 104.5,159.5C 99.3691,160.751 94.3691,160.751 89.5,159.5C 90.4916,159.672 91.1583,159.338 91.5,158.5C 95.3714,158.815 99.0381,158.482 102.5,157.5C 102.5,156.833 102.5,156.167 102.5,155.5C 102.369,154.761 102.536,154.094 103,153.5C 103.278,154.416 103.778,155.082 104.5,155.5 Z"/></g>
<g><path style="opacity:1" fill="#1a2e20" d="M 132.5,134.5 C 132.833,134.5 133.167,134.5 133.5,134.5C 133.71,145.025 133.71,155.358 133.5,165.5C 133.5,163.833 133.5,162.167 133.5,160.5C 128.702,161.359 123.869,162.026 119,162.5C 114.763,162.377 110.763,161.377 107,159.5C 106.453,166.052 105.62,166.052 104.5,159.5C 104.328,158.508 104.662,157.842 105.5,157.5C 108.203,158.963 111.203,159.796 114.5,160C 119.352,160.815 124.019,160.648 128.5,159.5C 129.492,159.672 130.158,159.338 130.5,158.5C 132.048,158.179 132.715,157.179 132.5,155.5C 132.5,148.5 132.5,141.5 132.5,134.5 Z"/></g>
<g><path style="opacity:1" fill="#a2cbb3" d="M 89.5,159.5 C 94.3691,160.751 99.3691,160.751 104.5,159.5C 105.62,166.052 106.453,166.052 107,159.5C 110.763,161.377 114.763,162.377 119,162.5C 123.869,162.026 128.702,161.359 133.5,160.5C 133.5,162.167 133.5,163.833 133.5,165.5C 133.5,166.167 133.5,166.833 133.5,167.5C 132.604,166.494 131.938,166.494 131.5,167.5C 126.637,167.181 121.97,167.514 117.5,168.5C 115.265,168.205 113.265,168.539 111.5,169.5C 110.167,169.5 108.833,169.5 107.5,169.5C 107.378,165.162 107.045,164.828 106.5,168.5C 103.119,168.54 99.7861,168.207 96.5,167.5C 93.0381,166.518 89.3714,166.185 85.5,166.5C 83.7364,163.716 82.9031,160.716 83,157.5C 84.897,159.016 87.0637,159.683 89.5,159.5 Z"/></g>
<g><path style="opacity:1" fill="#2d351e" d="M 85.5,166.5 C 89.3714,166.185 93.0381,166.518 96.5,167.5C 93.4816,167.335 90.4816,167.502 87.5,168C 88.2438,169.039 89.2438,169.539 90.5,169.5C 91.9313,170.78 92.5979,172.447 92.5,174.5C 87.096,167.484 81.096,166.817 74.5,172.5C 76.0727,168.541 79.0727,166.875 83.5,167.5C 84.4916,167.672 85.1583,167.338 85.5,166.5 Z"/></g>
<g><path style="opacity:1" fill="#849a89" d="M 117.5,168.5 C 121.97,167.514 126.637,167.181 131.5,167.5C 127.013,169.474 122.347,169.808 117.5,168.5 Z"/></g>
<g><path style="opacity:1" fill="#30251f" d="M 107.5,169.5 C 105.784,169.629 104.117,169.962 102.5,170.5C 99.4215,169.628 96.4215,169.628 93.5,170.5C 92.779,168.618 91.779,168.285 90.5,169.5C 89.2438,169.539 88.2438,169.039 87.5,168C 90.4816,167.502 93.4816,167.335 96.5,167.5C 99.7861,168.207 103.119,168.54 106.5,168.5C 107.045,164.828 107.378,165.162 107.5,169.5 Z"/></g>
<g><path style="opacity:1" fill="#2e3125" d="M 133.5,167.5 C 133.5,169.167 133.5,170.833 133.5,172.5C 133.167,172.5 132.833,172.5 132.5,172.5C 132.719,171.325 132.386,170.325 131.5,169.5C 128.579,170.407 125.579,170.74 122.5,170.5C 118.629,170.815 114.962,170.482 111.5,169.5C 113.265,168.539 115.265,168.205 117.5,168.5C 122.347,169.808 127.013,169.474 131.5,167.5C 131.938,166.494 132.604,166.494 133.5,167.5 Z"/></g>
<g><path style="opacity:1" fill="#2c1c12" d="M 107.5,169.5 C 108.833,169.5 110.167,169.5 111.5,169.5C 114.962,170.482 118.629,170.815 122.5,170.5C 119.695,171.319 116.695,171.819 113.5,172C 112.429,172.852 111.429,173.685 110.5,174.5C 106.86,174.475 104.527,176.142 103.5,179.5C 103.167,179.5 102.833,179.5 102.5,179.5C 102.833,175.833 104.833,173.833 108.5,173.5C 108.567,172.041 108.234,170.708 107.5,169.5 Z"/></g>
<g><path style="opacity:1" fill="#856d62" d="M 90.5,169.5 C 91.779,168.285 92.779,168.618 93.5,170.5C 93.7031,172.044 94.3698,173.378 95.5,174.5C 94.7573,175.182 94.0906,175.849 93.5,176.5C 92.6618,176.158 92.3284,175.492 92.5,174.5C 92.5979,172.447 91.9313,170.78 90.5,169.5 Z"/></g>
<g><path style="opacity:1" fill="#955244" d="M 107.5,169.5 C 108.234,170.708 108.567,172.041 108.5,173.5C 104.833,173.833 102.833,175.833 102.5,179.5C 101.448,181.256 99.7812,181.923 97.5,181.5C 96.2921,180.766 94.9587,180.433 93.5,180.5C 93.5,179.833 93.5,179.167 93.5,178.5C 95.7743,177.02 97.1076,174.853 97.5,172C 99.3817,171.802 101.048,171.302 102.5,170.5C 104.117,169.962 105.784,169.629 107.5,169.5 Z"/></g>
<g><path style="opacity:1" fill="#27301c" d="M 74.5,172.5 C 74.6741,174.861 75.0074,177.194 75.5,179.5C 73.466,177.345 73.1326,175.012 74.5,172.5 Z"/></g>
<g><path style="opacity:1" fill="#c3d0b3" d="M 92.5,174.5 C 92.3284,175.492 92.6618,176.158 93.5,176.5C 93.5,177.167 93.5,177.833 93.5,178.5C 93.5,179.167 93.5,179.833 93.5,180.5C 89.1667,180.5 84.8333,180.5 80.5,180.5C 78.7839,180.371 77.1172,180.038 75.5,179.5C 75.0074,177.194 74.6741,174.861 74.5,172.5C 81.096,166.817 87.096,167.484 92.5,174.5 Z"/></g>
<g><path style="opacity:1" fill="#5d3026" d="M 102.5,170.5 C 101.048,171.302 99.3817,171.802 97.5,172C 97.1076,174.853 95.7743,177.02 93.5,178.5C 93.5,177.833 93.5,177.167 93.5,176.5C 94.0906,175.849 94.7573,175.182 95.5,174.5C 94.3698,173.378 93.7031,172.044 93.5,170.5C 96.4215,169.628 99.4215,169.628 102.5,170.5 Z"/></g>
<g><path style="opacity:1" fill="#6f443a" d="M 132.5,172.5 C 131.85,172.196 131.183,171.863 130.5,171.5C 129.15,172.95 127.484,173.617 125.5,173.5C 125.917,176.079 125.25,178.246 123.5,180C 124.244,181.039 125.244,181.539 126.5,181.5C 125.791,182.404 124.791,182.737 123.5,182.5C 120.944,177.051 116.611,174.384 110.5,174.5C 111.429,173.685 112.429,172.852 113.5,172C 116.695,171.819 119.695,171.319 122.5,170.5C 125.579,170.74 128.579,170.407 131.5,169.5C 132.386,170.325 132.719,171.325 132.5,172.5 Z"/></g>
<g><path style="opacity:1" fill="#9a4a3f" d="M 132.5,172.5 C 132.833,172.5 133.167,172.5 133.5,172.5C 133.5,174.167 133.5,175.833 133.5,177.5C 130.697,177.961 128.363,179.295 126.5,181.5C 125.244,181.539 124.244,181.039 123.5,180C 125.25,178.246 125.917,176.079 125.5,173.5C 127.484,173.617 129.15,172.95 130.5,171.5C 131.183,171.863 131.85,172.196 132.5,172.5 Z"/></g>
<g><path style="opacity:1" fill="#45432a" d="M 133.5,177.5 C 132.415,182.613 129.415,186.28 124.5,188.5C 124.158,187.662 123.492,187.328 122.5,187.5C 124.99,187.023 126.99,185.689 128.5,183.5C 127.113,183.193 125.446,183.193 123.5,183.5C 123.5,183.167 123.5,182.833 123.5,182.5C 124.791,182.737 125.791,182.404 126.5,181.5C 128.363,179.295 130.697,177.961 133.5,177.5 Z"/></g>
<g><path style="opacity:1" fill="#c9c2ae" d="M 110.5,174.5 C 116.611,174.384 120.944,177.051 123.5,182.5C 123.5,182.833 123.5,183.167 123.5,183.5C 116.713,185.094 110.047,184.761 103.5,182.5C 103.5,181.5 103.5,180.5 103.5,179.5C 104.527,176.142 106.86,174.475 110.5,174.5 Z"/></g>
<g><path style="opacity:1" fill="#1f2614" d="M 75.5,179.5 C 77.1172,180.038 78.7839,180.371 80.5,180.5C 80.3893,181.117 80.056,181.617 79.5,182C 85.6812,182.819 91.6812,182.653 97.5,181.5C 99.7812,181.923 101.448,181.256 102.5,179.5C 102.833,179.5 103.167,179.5 103.5,179.5C 103.5,180.5 103.5,181.5 103.5,182.5C 96.2219,183.849 88.5552,184.349 80.5,184C 77.6908,183.688 76.0241,182.188 75.5,179.5 Z"/></g>
<g><path style="opacity:1" fill="#686e58" d="M 80.5,180.5 C 84.8333,180.5 89.1667,180.5 93.5,180.5C 94.9587,180.433 96.2921,180.766 97.5,181.5C 91.6812,182.653 85.6812,182.819 79.5,182C 80.056,181.617 80.3893,181.117 80.5,180.5 Z"/></g>
<g><path style="opacity:1" fill="#bccaac" d="M 122.5,187.5 C 117.105,187.733 111.772,187.4 106.5,186.5C 105.537,185.637 105.537,184.97 106.5,184.5C 108.943,185.112 111.443,185.445 114,185.5C 117.477,185.672 120.644,185.006 123.5,183.5C 125.446,183.193 127.113,183.193 128.5,183.5C 126.99,185.689 124.99,187.023 122.5,187.5 Z"/></g>
<g><path style="opacity:1" fill="#162010" d="M 106.5,186.5 C 111.772,187.4 117.105,187.733 122.5,187.5C 123.492,187.328 124.158,187.662 124.5,188.5C 118.49,189.819 112.49,189.653 106.5,188C 105.262,187.31 105.262,186.81 106.5,186.5 Z"/></g>
</svg>
