<?xml version="1.0" encoding="UTF-8"?>
<svg version="1.1" xmlns="http://www.w3.org/2000/svg" width="270" height="270">
<path d="M0 0 C89.1 0 178.2 0 270 0 C270 89.1 270 178.2 270 270 C180.9 270 91.8 270 0 270 C0 180.9 0 91.8 0 0 Z " fill="#000000" transform="translate(0,0)"/>
<path d="M0 0 C0.81500977 -0.00402832 1.63001953 -0.00805664 2.46972656 -0.01220703 C3.35885742 -0.00302246 4.24798828 0.00616211 5.1640625 0.015625 C6.60604004 0.02360107 6.60604004 0.02360107 8.07714844 0.03173828 C17.38753972 0.14778765 26.65447877 0.76458023 35.94042969 1.41308594 C47.09208041 2.18854751 58.24739773 2.75421063 69.4140625 3.265625 C72.99221558 3.43038639 76.57034178 3.59571623 80.1484375 3.76171875 C81.03346954 3.80277237 81.91850159 3.84382599 82.83035278 3.88612366 C92.11076585 4.3207107 101.38750831 4.81851769 110.6640625 5.328125 C111.4328775 5.37032166 112.2016925 5.41251831 112.99380493 5.45599365 C118.93834072 5.78237152 118.93834072 5.78237152 121.82551575 5.94116211 C130.47838805 6.41557633 139.13330124 6.84768481 147.7890625 7.265625 C146.24568507 11.78429114 143.76639521 15.4579469 141.0390625 19.328125 C140.55953125 20.01712891 140.08 20.70613281 139.5859375 21.41601562 C137.99221508 23.70292598 136.39106696 25.98450995 134.7890625 28.265625 C133.63777891 29.9099869 132.4867422 31.55452167 131.3359375 33.19921875 C129.5548503 35.74387535 127.77325526 38.28816785 125.98999023 40.83129883 C120.53892249 48.60819529 115.15581126 56.43041284 109.7890625 64.265625 C102.79924057 74.46533086 95.75952488 84.62915933 88.69262695 94.77563477 C84.87412925 100.26056705 81.06793551 105.753324 77.2890625 111.265625 C72.12707786 118.7954925 66.90910353 126.28601302 61.69140625 133.77734375 C57.4511883 139.8681312 53.23197869 145.97251056 49.03588867 152.09375 C42.33785271 161.85284511 35.55574587 171.55407489 28.7890625 181.265625 C25.24966538 177.77086893 21.83371423 174.1861186 18.4765625 170.515625 C13.41613953 165.01502401 8.33304554 159.53600076 3.2265625 154.078125 C2.5358667 153.33530273 1.8451709 152.59248047 1.13354492 151.82714844 C0.48232666 151.13266602 -0.1688916 150.43818359 -0.83984375 149.72265625 C-1.41806885 149.10366455 -1.99629395 148.48467285 -2.59204102 147.84692383 C-4.32699168 146.05494561 -4.32699168 146.05494561 -7.2109375 144.265625 C-7.2109375 143.605625 -7.2109375 142.945625 -7.2109375 142.265625 C-7.8709375 142.265625 -8.5309375 142.265625 -9.2109375 142.265625 C-10.7265625 140.47265625 -10.7265625 140.47265625 -12.4609375 138.078125 C-15.38596674 134.19823085 -18.43147035 131.33644206 -22.2109375 128.265625 C-23.9310858 126.38368058 -25.57396805 124.44533911 -27.2265625 122.50390625 C-29.45998072 119.98471601 -31.81417481 117.62970457 -34.2109375 115.265625 C-37.79652449 111.72330301 -41.15985412 108.09006839 -44.43359375 104.26171875 C-47.15948909 101.2003286 -50.10235108 98.36597336 -53.01953125 95.48828125 C-55.63194818 92.8386106 -58.04396371 90.05389697 -60.46484375 87.23046875 C-62.30709425 85.15742176 -64.23495412 83.21126698 -66.2109375 81.265625 C-68.81075933 78.70572366 -71.27362148 76.0978296 -73.6484375 73.328125 C-76.21759021 70.33760784 -78.90411006 67.53445816 -81.7109375 64.765625 C-85.13663804 61.38629604 -88.32783465 57.89414414 -91.453125 54.23828125 C-93.93477138 51.45332254 -96.61174957 48.88725754 -99.31640625 46.3203125 C-101.6159232 43.8264034 -103.38750103 41.12005105 -105.2109375 38.265625 C-102.60770218 37.24237002 -100.00336193 36.22206542 -97.3984375 35.203125 C-96.34946289 34.79030273 -96.34946289 34.79030273 -95.27929688 34.36914062 C-88.83603747 31.8526745 -82.34713357 29.46576158 -75.85429382 27.0811615 C-66.62276689 23.6880715 -57.41693941 20.22723866 -48.2109375 16.765625 C-44.85703615 15.50450092 -41.5029241 14.24394158 -38.1484375 12.984375 C-37.33181641 12.67773926 -36.51519531 12.37110352 -35.67382812 12.05517578 C-28.92261992 9.52413982 -22.1589993 7.02746019 -15.38842773 4.54870605 C-14.65052002 4.27804321 -13.9126123 4.00738037 -13.15234375 3.72851562 C-12.11963852 3.35058868 -12.11963852 3.35058868 -11.06607056 2.96502686 C-9.50827845 2.37772521 -7.97064118 1.7373466 -6.43896484 1.08496094 C-4.13945448 0.2393378 -2.43867493 0.0078794 0 0 Z " fill="#312A24" transform="translate(112.2109375,56.734375)"/>
<path d="M0 0 C1.40137207 0.02151123 1.40137207 0.02151123 2.83105469 0.04345703 C12.04611096 0.24508306 21.24051122 0.88341572 30.43359375 1.52416992 C40.41769253 2.21983878 50.40219276 2.74386302 60.40020752 3.19488525 C76.82795005 3.93807717 93.25136948 4.76004858 109.67004395 5.68264771 C111.96406046 5.81036549 114.25825288 5.93496405 116.5526123 6.05636597 C119.76218199 6.22694134 122.97091482 6.40885991 126.1796875 6.59375 C127.14125763 6.64269913 128.10282776 6.69164825 129.09353638 6.74208069 C129.98032074 6.79561203 130.8671051 6.84914337 131.78076172 6.90429688 C132.55120819 6.94711792 133.32165466 6.98993896 134.115448 7.03405762 C136.47457291 7.41087002 138.17896814 8.20679155 140.25 9.375 C126.98710556 14.32018731 113.70634534 19.21438777 100.40625 24.05859375 C98.70205902 24.67967766 98.70205902 24.67967766 96.96343994 25.31330872 C87.69531799 28.69084265 87.69531799 28.69084265 83.07019043 30.37075806 C71.71034575 34.49684013 60.37735671 38.64204196 49.18066406 43.19433594 C45.6504555 44.61653592 42.10072049 45.89275343 38.5 47.125 C30.85842408 49.7749825 23.27082684 52.56305819 15.6875 55.375 C14.5221875 55.80498291 13.356875 56.23496582 12.15625 56.67797852 C7.15145756 58.52968103 2.15693054 60.39234678 -2.79296875 62.38671875 C-3.51863037 62.67482422 -4.24429199 62.96292969 -4.99194336 63.25976562 C-6.83824851 63.99783874 -8.67732385 64.75393017 -10.515625 65.51171875 C-17.48943548 67.37308604 -24.74893031 64.37343958 -31.484375 62.42578125 C-32.51701477 62.13068161 -33.54965454 61.83558197 -34.61358643 61.53153992 C-36.79950067 60.90579804 -38.98477111 60.27780333 -41.16943359 59.64770508 C-44.44605752 58.70305166 -47.72476512 57.76595123 -51.00390625 56.83007812 C-61.51669423 53.8189519 -71.98747019 50.71545978 -82.40235901 47.38102722 C-88.53823293 45.42176727 -94.71101242 43.65017701 -100.9375 42 C-101.90107422 41.74089844 -102.86464844 41.48179688 -103.85742188 41.21484375 C-106.15398565 40.59785647 -108.45144242 39.98450809 -110.75 39.375 C-107.67855199 36.83388381 -104.75504547 35.45920111 -101.015625 34.10546875 C-99.88253906 33.69103516 -98.74945313 33.27660156 -97.58203125 32.84960938 C-96.39996094 32.42486328 -95.21789062 32.00011719 -94 31.5625 C-91.69255683 30.7230726 -89.38526681 29.8832241 -87.078125 29.04296875 C-85.88147217 28.60887695 -84.68481934 28.17478516 -83.4519043 27.72753906 C-79.03718116 26.11456233 -74.63624253 24.46625502 -70.23695374 22.81184387 C-61.7572868 19.62332326 -53.26623804 16.4654124 -44.77563477 13.30615234 C-40.98904542 11.89705252 -37.20282968 10.48695008 -33.41671753 9.0765686 C-31.60311185 8.40233843 -29.78877385 7.73007441 -27.97366333 7.05990601 C-24.40729093 5.74290277 -20.8528297 4.41605279 -17.32177734 3.00634766 C-11.36748306 0.65572123 -6.39211971 -0.19768177 0 0 Z " fill="#DDD4CA" transform="translate(117.75,56.625)"/>
<path d="M0 0 C1.98 0 3.96 0 6 0 C4.45662257 4.51866614 1.97733271 8.1923219 -0.75 12.0625 C-1.22953125 12.75150391 -1.7090625 13.44050781 -2.203125 14.15039062 C-3.79684742 16.43730098 -5.39799554 18.71888495 -7 21 C-8.15128359 22.6443619 -9.3023203 24.28889667 -10.453125 25.93359375 C-12.2342122 28.47825035 -14.01580724 31.02254285 -15.79907227 33.56567383 C-21.70600195 41.99293666 -27.53345298 50.4735904 -33.34570312 58.96630859 C-36.55309274 63.65163565 -39.76970961 68.33042859 -43 73 C-43.53399414 73.77214844 -44.06798828 74.54429687 -44.61816406 75.33984375 C-46.2609688 77.70947677 -47.91063809 80.07417411 -49.5625 82.4375 C-50.07546631 83.17798584 -50.58843262 83.91847168 -51.11694336 84.68139648 C-51.59526611 85.36274658 -52.07358887 86.04409668 -52.56640625 86.74609375 C-52.98865479 87.35122803 -53.41090332 87.9563623 -53.84594727 88.57983398 C-55 90 -55 90 -57 91 C-57 89.35 -57 87.7 -57 86 C-56.34 86 -55.68 86 -55 86 C-54.5978125 84.700625 -54.5978125 84.700625 -54.1875 83.375 C-52.65989112 79.03337477 -51.06136337 75.24002974 -48.05078125 71.72265625 C-45.7895542 68.72060815 -44.76118793 66.05043899 -43.5625 62.5 C-41.67412955 57.32446617 -40.10133486 54.54710042 -36 51 C-34.680982 48.33466965 -34.680982 48.33466965 -34 46 C-33.34 46 -32.68 46 -32 46 C-31.51891725 44.58398286 -31.04021859 43.16715563 -30.5625 41.75 C-30.29566406 40.96109375 -30.02882813 40.1721875 -29.75390625 39.359375 C-29.07995682 37.25022756 -28.51096794 35.1533649 -28 33 C-27.66666667 31.66666667 -27.33333333 30.33333333 -27 29 C-26.34 29 -25.68 29 -25 29 C-25.99 26.03 -25.99 26.03 -27 23 C-27.99 23 -28.98 23 -30 23 C-30 23.66 -30 24.32 -30 25 C-30.845625 25.37125 -31.69125 25.7425 -32.5625 26.125 C-39.58671848 29.9563919 -44.72333807 35.65934004 -49.875 41.6875 C-50.74511719 42.68233398 -50.74511719 42.68233398 -51.6328125 43.69726562 C-54.93389063 47.47302257 -54.93389063 47.47302257 -57 52 C-57.7425 52.4125 -58.485 52.825 -59.25 53.25 C-62.39103971 55.24884345 -63.71173948 57.26249917 -65.75 60.30078125 C-67.495038 62.67294228 -69.65413659 64.24060244 -72 66 C-73.68933922 67.6436814 -75.35259924 69.3142876 -77 71 C-77.66773438 71.64582031 -78.33546875 72.29164063 -79.0234375 72.95703125 C-79.73757812 73.65183594 -80.45171875 74.34664063 -81.1875 75.0625 C-81.86167969 75.71347656 -82.53585938 76.36445313 -83.23046875 77.03515625 C-84.96448032 78.96055982 -85.90053131 80.67677485 -87 83 C-88.61974559 84.71230248 -90.2958946 86.37163262 -92 88 C-93.10515781 89.12402636 -94.20926028 90.24909097 -95.3125 91.375 C-97.77463812 93.85316071 -100.32002108 96.13563657 -103 98.375 C-106.78842309 101.61063762 -109.6561158 105.23956596 -112.5546875 109.27734375 C-113.03164062 109.84582031 -113.50859375 110.41429687 -114 111 C-114.66 111 -115.32 111 -116 111 C-116.226875 111.57363281 -116.45375 112.14726562 -116.6875 112.73828125 C-118.35843211 115.61765533 -120.37442457 117.15344229 -123 119.1875 C-123.886875 119.88230469 -124.77375 120.57710938 -125.6875 121.29296875 C-128 123 -128 123 -130 124 C-135.87471299 107.03558816 -141.73027172 90.06330238 -147.3125 73 C-147.70300537 71.82727539 -148.09351074 70.65455078 -148.49584961 69.44628906 C-148.84397705 68.37088867 -149.19210449 67.29548828 -149.55078125 66.1875 C-149.85669189 65.25292969 -150.16260254 64.31835938 -150.4777832 63.35546875 C-151 61 -151 61 -150 58 C-147.49414062 56.74487305 -147.49414062 56.74487305 -144.15625 55.51171875 C-142.92777344 55.05216797 -141.69929688 54.59261719 -140.43359375 54.11914062 C-139.12245781 53.64175684 -137.81125978 53.16454353 -136.5 52.6875 C-135.26378906 52.22666016 -134.02757812 51.76582031 -132.75390625 51.29101562 C-126.13361404 48.82799593 -119.48186909 46.45864891 -112.81640625 44.12109375 C-102.97554302 40.66765492 -93.2074423 37.02329863 -83.4375 33.375 C-81.54577703 32.66997367 -79.65401211 31.96505988 -77.76220703 31.26025391 C-69.06494409 28.01851144 -60.37118621 24.76757263 -51.68359375 21.5 C-50.97231323 21.23249435 -50.26103271 20.96498871 -49.52819824 20.68937683 C-45.45607916 19.15780923 -45.45607916 19.15780923 -41.38409424 17.62588501 C-33.40612123 14.62575705 -25.41509736 11.68102221 -17.36303711 8.88574219 C-11.18399521 6.7372233 -5.08829073 4.39296296 1 2 C0.67 1.34 0.34 0.68 0 0 Z " fill="#3A342F" transform="translate(254,64)"/>
<path d="M0 0 C0.99 0.495 0.99 0.495 2 1 C1.34 2.65 0.68 4.3 0 6 C-0.66 6 -1.32 6 -2 6 C-1.938125 6.7425 -1.87625 7.485 -1.8125 8.25 C-2.03750346 11.55005079 -2.98861316 12.44708593 -5 15 C-5.28617187 15.87140625 -5.57234375 16.7428125 -5.8671875 17.640625 C-7.18694411 21.55438599 -8.89445937 25.12987796 -10.75 28.8125 C-11.10562012 29.52172607 -11.46124023 30.23095215 -11.82763672 30.96166992 C-14.1271015 35.47430495 -16.62385037 39.69780148 -19.55859375 43.83203125 C-21.88056893 47.32443294 -23.71920132 51.07114312 -25.60546875 54.8125 C-27 57 -27 57 -30 58 C-30.99567316 60.15759773 -30.99567316 60.15759773 -31.625 62.75 C-31.86476562 63.61109375 -32.10453125 64.4721875 -32.3515625 65.359375 C-33.02892999 67.9699433 -33.02892999 67.9699433 -33.41796875 70.54296875 C-35.99023278 81.40172093 -46.97355537 92.60108476 -53.3125 101.59863281 C-55.68263877 104.97141709 -58.03197315 108.35834574 -60.375 111.75 C-61.08398438 112.77609375 -61.79296875 113.8021875 -62.5234375 114.859375 C-63.01070312 115.56578125 -63.49796875 116.2721875 -64 117 C-66.69422657 114.68430113 -67.51355048 112.93493943 -68.3125 109.5 C-69.25518266 105.67803662 -70.32718181 101.95150437 -71.59375 98.2265625 C-71.87565186 97.38673828 -72.15755371 96.54691406 -72.44799805 95.68164062 C-73.01783727 93.9964228 -73.59977954 92.31524223 -74.19458008 90.63867188 C-76.18280986 84.67459412 -76.18280986 84.67459412 -75.16796875 80.9296875 C-74.78253906 80.29289062 -74.39710938 79.65609375 -74 79 C-73.34 79 -72.68 79 -72 79 C-71.731875 78.401875 -71.46375 77.80375 -71.1875 77.1875 C-70.00082594 75.00152146 -68.90400887 73.58667406 -67 72 C-66.34 72 -65.68 72 -65 72 C-65 71.34 -65 70.68 -65 70 C-64.34 70 -63.68 70 -63 70 C-62.67 69.01 -62.34 68.02 -62 67 C-61.360625 66.87625 -60.72125 66.7525 -60.0625 66.625 C-59.0415625 66.315625 -59.0415625 66.315625 -58 66 C-57.28752268 64.3523962 -56.62599617 62.68236471 -56 61 C-54.0625 58.6875 -54.0625 58.6875 -52 57 C-51.01 57 -50.02 57 -49 57 C-49 56.01 -49 55.02 -49 54 C-48.34 54 -47.68 54 -47 54 C-47 53.34 -47 52.68 -47 52 C-42.69767442 47.23255814 -42.69767442 47.23255814 -39 46 C-38.62657517 44.67733497 -38.29941035 43.34135839 -38 42 C-35.16277225 37.53027505 -31.73078759 33.73078759 -28 30 C-27.38125 29.05125 -26.7625 28.1025 -26.125 27.125 C-23.71887035 23.58657405 -21.08935095 20.94892591 -18 18 C-18.495 17.01 -18.495 17.01 -19 16 C-18.07347299 14.82460004 -17.13336613 13.65989423 -16.1875 12.5 C-15.66542969 11.8503125 -15.14335937 11.200625 -14.60546875 10.53125 C-13 9 -13 9 -10 9 C-7.42123668 7.00773214 -7.42123668 7.00773214 -4.8125 4.5 C-3.91144531 3.6646875 -3.01039063 2.829375 -2.08203125 1.96875 C-1.39496094 1.3190625 -0.70789063 0.669375 0 0 Z " fill="#1A1917" transform="translate(205,121)"/>
<path d="M0 0 C0.99 0.495 0.99 0.495 2 1 C1.278125 1.37125 0.55625 1.7425 -0.1875 2.125 C-3.18088437 3.9282381 -3.18088437 3.9282381 -5.5 7 C-7.89033916 9.86840699 -9.65659494 11.41628181 -13 13 C-14.66666667 13 -16.33333333 13 -18 13 C-18.2784375 13.8353125 -18.2784375 13.8353125 -18.5625 14.6875 C-20.05654441 17.09096274 -21.12666825 17.8969455 -23.4375 19.4375 C-26.65591983 21.60960227 -28.08754027 23.59083266 -30 27 C-31.89351835 29.17137158 -33.86529551 31.04697249 -36 33 C-36.66 33 -37.32 33 -38 33 C-38.061875 33.556875 -38.12375 34.11375 -38.1875 34.6875 C-39.3476371 37.98942866 -41.45559795 39.62907991 -44 42 C-44.886875 42.928125 -45.77375 43.85625 -46.6875 44.8125 C-49 47 -49 47 -51 47 C-51.24105469 47.55945313 -51.48210937 48.11890625 -51.73046875 48.6953125 C-53.26525428 51.48153854 -55.15089294 53.54264415 -57.3125 55.875 C-59.81120291 58.59253836 -62.27927648 61.28655505 -64.5625 64.1875 C-67.21691681 67.25028863 -70.09420944 69.73448035 -73.23046875 72.2890625 C-75.07867287 74.0760678 -75.99940744 75.6498903 -77 78 C-77.66 78 -78.32 78 -79 78 C-82.60957869 68.88337749 -85.86045212 59.70621565 -88.875 50.375 C-89.29007812 49.12332031 -89.70515625 47.87164062 -90.1328125 46.58203125 C-90.51953125 45.38707031 -90.90625 44.19210938 -91.3046875 42.9609375 C-91.65515137 41.88634277 -92.00561523 40.81174805 -92.36669922 39.70458984 C-93 37 -93 37 -92 34 C-89.49414063 32.74487305 -89.49414063 32.74487305 -86.15625 31.51171875 C-84.92777344 31.05216797 -83.69929688 30.59261719 -82.43359375 30.11914062 C-81.12245781 29.64175684 -79.81125978 29.16454353 -78.5 28.6875 C-77.26378906 28.22666016 -76.02757812 27.76582031 -74.75390625 27.29101562 C-68.17138785 24.8420606 -61.55772833 22.48650436 -54.9296875 20.1640625 C-44.44045037 16.48565342 -34.03628716 12.57984162 -23.625 8.6875 C-20.70308556 7.59635962 -17.78101177 6.50564887 -14.85873413 5.41548157 C-13.0588729 4.74391281 -11.25924066 4.07172991 -9.45986938 3.39884949 C-8.6540744 3.09795914 -7.84827942 2.79706879 -7.01806641 2.48706055 C-6.31211334 2.22314011 -5.60616028 1.95921967 -4.8788147 1.68730164 C-3.26276958 1.09612548 -1.63247725 0.54415908 0 0 Z " fill="#5B5047" transform="translate(196,88)"/>
<path d="M0 0 C-0.44730469 0.37511719 -0.89460938 0.75023438 -1.35546875 1.13671875 C-5.07368722 4.2841233 -8.607181 7.5043683 -12 11 C-12.495 10.01 -12.495 10.01 -13 9 C-13.44730469 9.51949219 -13.89460938 10.03898437 -14.35546875 10.57421875 C-17.78352702 14.52854609 -21.2987384 18.2987384 -25 22 C-26.80025661 24.09629881 -28.5857303 26.20273421 -30.3515625 28.328125 C-32 30 -32 30 -35 31 C-36.33130055 32.53284072 -37.59434309 34.12579079 -38.8125 35.75 C-41.94687982 39.79473279 -45.00806246 42.84358427 -49 46 C-50.00573778 47.32901064 -51.00795408 48.66073801 -52 50 C-52.66 50 -53.32 50 -54 50 C-54 50.66 -54 51.32 -54 52 C-54.66 52 -55.32 52 -56 52 C-56.25910156 52.57621094 -56.51820313 53.15242188 -56.78515625 53.74609375 C-58.09599382 56.17809787 -59.59597834 58.00712421 -61.4375 60.0625 C-62.03433594 60.73410156 -62.63117188 61.40570313 -63.24609375 62.09765625 C-65.73724486 64.79963974 -68.25709524 67.26385272 -71.125 69.5625 C-74.00332155 71.67912299 -74.00332155 71.67912299 -75 74 C-75.66 74 -76.32 74 -77 74 C-77.33 74.99 -77.66 75.98 -78 77 C-79.6459651 78.68711423 -81.31237149 80.3545622 -83 82 C-83.33 82.66 -83.66 83.32 -84 84 C-84.66 84 -85.32 84 -86 84 C-86.20625 84.7425 -86.4125 85.485 -86.625 86.25 C-88.40858708 89.81717417 -90.63790119 90.94157216 -94 93 C-94.5775 93.5775 -95.155 94.155 -95.75 94.75 C-96.1625 95.1625 -96.575 95.575 -97 96 C-97.66 96 -98.32 96 -99 96 C-99.99 92.37 -100.98 88.74 -102 85 C-101.34 85 -100.68 85 -100 85 C-99.835 84.319375 -99.67 83.63875 -99.5 82.9375 C-97.60402719 79.22455325 -95.07856641 77.25133521 -91.875 74.6484375 C-89.77950085 72.94943905 -89.77950085 72.94943905 -88 70 C-87.34 70 -86.68 70 -86 70 C-85.63841797 69.16275391 -85.63841797 69.16275391 -85.26953125 68.30859375 C-83.73113421 65.51107791 -81.84438036 63.41513085 -79.6875 61.0625 C-78.88054687 60.18078125 -78.07359375 59.2990625 -77.2421875 58.390625 C-74.88018574 55.87225378 -72.44125283 53.44125283 -70 51 C-68.42470263 49.13327261 -66.86727641 47.255284 -65.33203125 45.35546875 C-64.89246094 44.90816406 -64.45289063 44.46085937 -64 44 C-63.34 44 -62.68 44 -62 44 C-61.91363281 43.40960938 -61.82726562 42.81921875 -61.73828125 42.2109375 C-60.79642507 39.39035232 -59.50471464 38.4564164 -57.1875 36.625 C-54.52620095 34.41668802 -52.86939523 32.80211398 -50.9375 29.875 C-48.8285448 26.74558261 -46.80428234 25.19832107 -43.68359375 23.17578125 C-41.92623058 22.03660269 -41.92623058 22.03660269 -40.47265625 20.35546875 C-39 19 -39 19 -36 19 C-30.95901742 15.89467192 -26.59196159 11.91364042 -22.66821289 7.50292969 C-20.73471152 5.76099577 -19.05715856 5.04171583 -16.62109375 4.140625 C-15.36329102 3.67462891 -15.36329102 3.67462891 -14.08007812 3.19921875 C-13.20802734 2.88597656 -12.33597656 2.57273437 -11.4375 2.25 C-10.12362305 1.75693359 -10.12362305 1.75693359 -8.78320312 1.25390625 C-2.25582026 -1.12791013 -2.25582026 -1.12791013 0 0 Z " fill="#514740" transform="translate(219,81)"/>
<path d="M0 0 C1.40137207 0.02151123 1.40137207 0.02151123 2.83105469 0.04345703 C12.00860784 0.24426249 21.16602655 0.87652304 30.3215332 1.51757812 C42.26901684 2.35326361 54.22395835 2.9452931 66.1875 3.5 C67.61491516 3.56643707 67.61491516 3.56643707 69.07116699 3.63421631 C74.46395205 3.8847149 79.85689397 4.13151361 85.25 4.375 C85.25 4.705 85.25 5.035 85.25 5.375 C84.53457031 5.4251123 83.81914062 5.47522461 83.08203125 5.52685547 C79.80412106 5.76061329 76.52710493 6.00522182 73.25 6.25 C72.12464844 6.32863281 70.99929687 6.40726563 69.83984375 6.48828125 C63.73652211 6.95227646 58.15534192 7.79929578 52.25 9.375 C51.755 8.88 51.755 8.88 51.25 8.375 C46.50882844 8.49307515 41.83978749 9.07492235 37.3125 10.5 C34.25 11.375 34.25 11.375 31.25 10.375 C28.97176837 10.57423699 26.70058117 10.85810913 24.4375 11.1875 C23.44641235 11.32853149 23.44641235 11.32853149 22.43530273 11.47241211 C20.37258782 11.76708567 18.31133658 12.07085229 16.25 12.375 C13.77093483 12.7298764 11.29177365 13.08408302 8.8125 13.4375 C7.67425781 13.6025 6.53601563 13.7675 5.36328125 13.9375 C2.7444719 14.30551336 0.12689568 14.6345787 -2.5 14.9375 C-5.6304951 15.18029402 -5.6304951 15.18029402 -7.75 16.375 C-10.74005469 16.44566599 -13.71694229 16.37193034 -16.70703125 16.3125 C-19.539593 16.37067842 -21.99095485 16.78344593 -24.75 17.375 C-27.08333333 17.375 -29.41666667 17.375 -31.75 17.375 C-33.421549 17.68291692 -35.08805547 18.01886903 -36.75 18.375 C-39.74422417 18.7634722 -42.74661323 19.06659536 -45.75 19.375 C-46.61753906 19.46910156 -47.48507813 19.56320313 -48.37890625 19.66015625 C-49.24386719 19.75167969 -50.10882813 19.84320313 -51 19.9375 C-51.78890625 20.02128906 -52.5778125 20.10507813 -53.390625 20.19140625 C-55.85317687 20.38302866 -58.28101775 20.4056434 -60.75 20.375 C-57.26669024 18.05279349 -53.64505146 16.71132792 -49.75 15.2578125 C-48.95907959 14.95938446 -48.16815918 14.66095642 -47.35327148 14.35348511 C-44.82016706 13.39877482 -42.28509959 12.44939793 -39.75 11.5 C-38.07409324 10.86882275 -36.39831061 10.23731577 -34.72265625 9.60546875 C-31.49810974 8.39008114 -28.27034281 7.1838806 -25.04003906 5.98388672 C-22.49534897 5.03686545 -19.9725635 4.06294339 -17.45214844 3.05126953 C-11.45172227 0.68123819 -6.43965696 -0.1991519 0 0 Z " fill="#CDC1B8" transform="translate(117.75,56.625)"/>
<path d="M0 0 C1.5625 1.125 1.5625 1.125 3 3 C2.6875 6.1875 2.6875 6.1875 2 9 C1.34 9 0.68 9 0 9 C-0.185625 9.8353125 -0.185625 9.8353125 -0.375 10.6875 C-1.05976855 13.22114364 -1.99133763 15.57921032 -3 18 C-4.485 17.505 -4.485 17.505 -6 17 C-6 16.01 -6 15.02 -6 14 C-6.44730469 14.47050781 -6.89460938 14.94101563 -7.35546875 15.42578125 C-10.66049324 18.82946319 -13.6769041 21.90021056 -18 24 C-18.66 24 -19.32 24 -20 24 C-23.30290192 27.45201833 -23.30290192 27.45201833 -24 32 C-25.35546875 33.54296875 -25.35546875 33.54296875 -27.1875 35.1875 C-30.40950835 38.25391841 -32.5804118 41.34063785 -34.81640625 45.16015625 C-36.51230038 47.79634811 -38.78921078 49.78921078 -41 52 C-41.69992371 53.14702326 -42.36568363 54.31543329 -43 55.5 C-45.3889257 59.92966791 -48.11992861 63.37330954 -53 65 C-53 65.66 -53 66.32 -53 67 C-53.66 67 -54.32 67 -55 67 C-55 67.99 -55 68.98 -55 70 C-55.7425 70.433125 -56.485 70.86625 -57.25 71.3125 C-60.59416924 73.36460385 -61.86044764 75.75616255 -64 79 C-66.1875 80.25 -66.1875 80.25 -68 81 C-68.33 81.66 -68.66 82.32 -69 83 C-69.66 83 -70.32 83 -71 83 C-71 83.66 -71 84.32 -71 85 C-72.4272432 86.22809298 -73.86038617 87.45048041 -75.33203125 88.625 C-77.72447313 90.59722375 -79.84062716 92.77711619 -82 95 C-82.99 92.03 -83.98 89.06 -85 86 C-83.02 85.01 -83.02 85.01 -81 84 C-80.7525 83.278125 -80.505 82.55625 -80.25 81.8125 C-78.60916971 78.12063185 -76.17655882 76.39151684 -73.1015625 73.84765625 C-70.49052 71.55207428 -68.37169511 69.01151194 -66.2265625 66.28515625 C-65.61941406 65.64900391 -65.61941406 65.64900391 -65 65 C-64.34 65 -63.68 65 -63 65 C-63 64.34 -63 63.68 -63 63 C-62.34 63 -61.68 63 -61 63 C-60.76023438 62.27296875 -60.52046875 61.5459375 -60.2734375 60.796875 C-58.81852288 57.60141834 -57.1139438 55.71413705 -54.625 53.25 C-53.46871094 52.08210938 -53.46871094 52.08210938 -52.2890625 50.890625 C-50.0109925 49.00907913 -48.79205298 48.61363802 -46 48 C-45.29788106 46.34795544 -44.63028587 44.68076231 -44 43 C-43.01 42.67 -42.02 42.34 -41 42 C-39.79117904 39.99983534 -39.79117904 39.99983534 -39 38 C-38.34 38 -37.68 38 -37 38 C-36.78472656 37.44441406 -36.56945312 36.88882813 -36.34765625 36.31640625 C-34.56419548 33.2509215 -32.09115042 31.2233299 -29.4375 28.9375 C-24.4275845 24.50016783 -20.14403696 19.81214791 -16.03515625 14.5078125 C-10.29181495 7.43060498 -10.29181495 7.43060498 -6 6 C-5.67 5.34 -5.34 4.68 -5 4 C-3.35704805 2.63755204 -1.69175663 1.30135125 0 0 Z " fill="#24211E" transform="translate(211,108)"/>
<path d="M0 0 C-1.98 2.31 -3.96 4.62 -6 7 C-7.32 6.67 -8.64 6.34 -10 6 C-10.4846875 6.64066406 -10.969375 7.28132813 -11.46875 7.94140625 C-22.14199598 21.71399866 -22.14199598 21.71399866 -29 24 C-29.12375 24.556875 -29.2475 25.11375 -29.375 25.6875 C-30.95063449 31.51734762 -36.64228248 35.56443431 -41.07421875 39.3203125 C-42.75979895 40.79049401 -44.28683936 42.30582669 -45.8125 43.9375 C-48 46 -48 46 -51 46 C-52.36895546 42.23437016 -53.71759069 38.46177806 -55.0625 34.6875 C-55.45244141 33.61564453 -55.84238281 32.54378906 -56.24414062 31.43945312 C-56.79038086 29.89741211 -56.79038086 29.89741211 -57.34765625 28.32421875 C-57.68804932 27.37635498 -58.02844238 26.42849121 -58.37915039 25.4519043 C-59 23 -59 23 -58 20 C-55.49414063 18.74487305 -55.49414063 18.74487305 -52.15625 17.51171875 C-50.93719971 17.05547119 -49.71814941 16.59922363 -48.4621582 16.12915039 C-47.14155317 15.64828606 -45.82083151 15.16774191 -44.5 14.6875 C-43.16527974 14.19286274 -41.83088851 13.69733673 -40.49682617 13.20092773 C-32.79678999 10.34559249 -25.07360139 7.55054011 -17.31030273 4.87158203 C-12.71899897 3.28436209 -8.23545755 1.51293598 -3.78515625 -0.43359375 C-2 -1 -2 -1 0 0 Z " fill="#77685D" transform="translate(162,102)"/>
<path d="M0 0 C-0.66 1.32 -1.32 2.64 -2 4 C-1.34 4 -0.68 4 0 4 C0 4.99 0 5.98 0 7 C-0.66 7 -1.32 7 -2 7 C-2 7.66 -2 8.32 -2 9 C-2.66 9 -3.32 9 -4 9 C-4.33 10.32 -4.66 11.64 -5 13 C-5.66 13 -6.32 13 -7 13 C-7.268125 13.680625 -7.53625 14.36125 -7.8125 15.0625 C-9.16053306 18.39710809 -10.57536298 21.69743237 -12 25 C-12.66 25 -13.32 25 -14 25 C-14.13921875 26.09441406 -14.13921875 26.09441406 -14.28125 27.2109375 C-15.11299981 30.43848841 -16.36992298 32.08462126 -18.5 34.625 C-20.64599498 37.20195299 -21.93099312 38.79297936 -23 42 C-24 43 -25 44 -26 45 C-27.19599068 47.03232242 -27.19599068 47.03232242 -28.1875 49.1875 C-28.53167969 49.90292969 -28.87585938 50.61835938 -29.23046875 51.35546875 C-29.48441406 51.89816406 -29.73835937 52.44085938 -30 53 C-30.99 53 -31.98 53 -33 53 C-39.18654434 36.55963303 -39.18654434 36.55963303 -37 30 C-34.52982638 27.00978982 -32.21939378 25.14626252 -29 23 C-28.01 23 -27.02 23 -26 23 C-25.59974609 22.12408203 -25.59974609 22.12408203 -25.19140625 21.23046875 C-21.59920687 14.5054004 -15.22470556 9.14064574 -9.8203125 3.8828125 C-7.93616102 2.12246661 -7.93616102 2.12246661 -7 0 C-4.0262656 -1.09036928 -3.11592499 -1.03864166 0 0 Z " fill="#0D0C0C" transform="translate(170,177)"/>
<path d="M0 0 C-0.44730469 0.37511719 -0.89460938 0.75023438 -1.35546875 1.13671875 C-5.07368722 4.2841233 -8.607181 7.5043683 -12 11 C-12.495 10.01 -12.495 10.01 -13 9 C-13.44730469 9.51949219 -13.89460938 10.03898437 -14.35546875 10.57421875 C-17.78352702 14.52854609 -21.2987384 18.2987384 -25 22 C-26.80025661 24.09629881 -28.5857303 26.20273421 -30.3515625 28.328125 C-32 30 -32 30 -35 31 C-36.33130055 32.53284072 -37.59434309 34.12579079 -38.8125 35.75 C-41.94687982 39.79473279 -45.00806246 42.84358427 -49 46 C-50.00573778 47.32901064 -51.00795408 48.66073801 -52 50 C-52.66 50 -53.32 50 -54 50 C-54 50.66 -54 51.32 -54 52 C-54.66 52 -55.32 52 -56 52 C-56.25910156 52.57621094 -56.51820313 53.15242188 -56.78515625 53.74609375 C-58.09599382 56.17809787 -59.59597834 58.00712421 -61.4375 60.0625 C-62.03433594 60.73410156 -62.63117188 61.40570313 -63.24609375 62.09765625 C-65.73724486 64.79963974 -68.25709524 67.26385272 -71.125 69.5625 C-74.00332155 71.67912299 -74.00332155 71.67912299 -75 74 C-75.66 74 -76.32 74 -77 74 C-77.33 74.99 -77.66 75.98 -78 77 C-79.6459651 78.68711423 -81.31237149 80.3545622 -83 82 C-83.33 82.66 -83.66 83.32 -84 84 C-84.66 84 -85.32 84 -86 84 C-86.20625 84.7425 -86.4125 85.485 -86.625 86.25 C-88.40858708 89.81717417 -90.63790119 90.94157216 -94 93 C-94.5775 93.5775 -95.155 94.155 -95.75 94.75 C-96.1625 95.1625 -96.575 95.575 -97 96 C-97.66 96 -98.32 96 -99 96 C-99.33 94.68 -99.66 93.36 -100 92 C-99.29875 91.46632813 -98.5975 90.93265625 -97.875 90.3828125 C-92.08372859 85.83477598 -87.28444612 81.27883101 -82.8359375 75.4140625 C-80.57963022 72.44725846 -78.14475839 69.67737728 -75.66796875 66.89453125 C-73.46995067 64.39795333 -71.36261091 61.82862928 -69.26171875 59.25 C-68 58 -68 58 -66 58 C-65.78859375 57.28328125 -65.5771875 56.5665625 -65.359375 55.828125 C-63.65714072 52.28669505 -61.19638569 50.22905259 -58.25 47.75 C-53.83686338 43.89169888 -50.33292155 40.19840507 -47.37890625 35.0703125 C-44.04373755 30.06283541 -39.17025316 26.40673402 -34.5625 22.625 C-30.85914553 19.55755936 -27.41138995 16.56783366 -24.375 12.8125 C-23.59125 11.884375 -22.8075 10.95625 -22 10 C-21.01 10 -20.02 10 -19 10 C-16.92891925 8.32672751 -16.92891925 8.32672751 -14.8125 6.1875 C-5.25 -2.625 -5.25 -2.625 0 0 Z " fill="#473F39" transform="translate(219,81)"/>
<path d="M0 0 C-3.40646063 4.61520472 -6.86767945 7.37216935 -11.6796875 10.453125 C-20.45640318 16.30426879 -27.79423205 24.50829581 -34.171875 32.8359375 C-34.77515625 33.55007812 -35.3784375 34.26421875 -36 35 C-36.66 35 -37.32 35 -38 35 C-38 35.99 -38 36.98 -38 38 C-39.38337403 38.97848407 -40.77729569 39.94522753 -42.21875 40.8359375 C-48.43509724 44.89837495 -53.58912921 50.47699569 -58.6875 55.8125 C-61 58 -61 58 -63 58 C-63.99 54.535 -63.99 54.535 -65 51 C-64.27167969 50.60167969 -63.54335937 50.20335937 -62.79296875 49.79296875 C-59.84768978 47.90222323 -57.71645036 45.84705547 -55.3125 43.3125 C-53.91312293 41.83786231 -52.48337214 40.39011495 -51 39 C-50.34 39 -49.68 39 -49 39 C-48.5978125 38.1028125 -48.5978125 38.1028125 -48.1875 37.1875 C-47.00691239 35.01273336 -45.73183488 33.73183488 -44 32 C-43.67 31.01 -43.34 30.02 -43 29 C-39.55555556 26 -39.55555556 26 -37 26 C-36.731875 25.360625 -36.46375 24.72125 -36.1875 24.0625 C-35 22 -35 22 -32 21 C-31.28891701 19.68981559 -30.62746983 18.35222181 -30 17 C-28.99564028 15.71983165 -27.95309739 14.46871878 -26.875 13.25 C-26.33617187 12.63640625 -25.79734375 12.0228125 -25.2421875 11.390625 C-24.83226562 10.93171875 -24.42234375 10.4728125 -24 10 C-22.68 10.33 -21.36 10.66 -20 11 C-19.2575 9.948125 -18.515 8.89625 -17.75 7.8125 C-14.25141899 3.6831652 -5.42384053 -2.71192027 0 0 Z " fill="#6A5D53" transform="translate(176,97)"/>
<path d="M0 0 C0.66 0.33 1.32 0.66 2 1 C0.68 1.99 -0.64 2.98 -2 4 C-1.34 2.68 -0.68 1.36 0 0 Z M-5 5 C-4.01 5.495 -4.01 5.495 -3 6 C-3.99 6.495 -3.99 6.495 -5 7 C-5 6.34 -5 5.68 -5 5 Z M-5 7 C-6.38175905 10.59257354 -8.70104905 12.62922852 -11.4453125 15.2421875 C-13.14502017 17.16396753 -14.08461075 19.00206778 -15.1875 21.3125 C-17.81888474 26.35668801 -21.54258589 29.10317539 -26.0078125 32.515625 C-29.88433119 35.73424888 -33.12668803 39.35757279 -36.38330078 43.19067383 C-37.53182309 44.51226998 -38.76086666 45.76295979 -40 47 C-40.99 47 -41.98 47 -43 47 C-43.185625 47.9590625 -43.185625 47.9590625 -43.375 48.9375 C-43.58125 49.618125 -43.7875 50.29875 -44 51 C-44.99 51.495 -44.99 51.495 -46 52 C-46.41636719 52.72445312 -46.83273438 53.44890625 -47.26171875 54.1953125 C-49.35359654 57.57052205 -51.9703 60.1452108 -54.8125 62.875 C-58.64773138 66.62251981 -62.28372991 70.39322482 -65.69140625 74.5390625 C-67.88235016 76.98507152 -70.45718494 78.93026681 -73 81 C-73.33 81.66 -73.66 82.32 -74 83 C-74.66 83 -75.32 83 -76 83 C-76 83.66 -76 84.32 -76 85 C-76.66 85 -77.32 85 -78 85 C-78 85.99 -78 86.98 -78 88 C-79.64453125 89.75390625 -79.64453125 89.75390625 -81.8125 91.5625 C-82.52019531 92.16191406 -83.22789062 92.76132813 -83.95703125 93.37890625 C-86 95 -86 95 -89 97 C-89.66 95.68 -90.32 94.36 -91 93 C-85.25 88 -85.25 88 -83 88 C-83 87.34 -83 86.68 -83 86 C-82.34 86 -81.68 86 -81 86 C-80.79375 85.34 -80.5875 84.68 -80.375 84 C-77.491297 77.70828435 -73.38657562 73.2525597 -68 69 C-67.401875 68.071875 -66.80375 67.14375 -66.1875 66.1875 C-63.7943435 62.70032909 -61.18021906 60.37447267 -57.9609375 57.67578125 C-56.26526222 56.22668823 -54.72261441 54.73919606 -53.1875 53.125 C-51 51 -51 51 -48 50 C-47.70738281 49.39800781 -47.41476563 48.79601562 -47.11328125 48.17578125 C-45.65092535 45.31777341 -43.76263012 44.08313552 -41.1875 42.1875 C-38.02272709 39.74921728 -35.44459389 37.59585626 -33.25 34.25 C-31 31 -31 31 -28.19921875 29.15625 C-24.81545018 26.87561477 -22.23727179 24.28620136 -19.5625 21.25 C-19.08949463 20.7250293 -18.61648926 20.20005859 -18.12915039 19.65917969 C-14.79340011 15.94458632 -11.53145078 12.16741757 -8.33984375 8.328125 C-7 7 -7 7 -5 7 Z " fill="#39332E" transform="translate(213,89)"/>
<path d="M0 0 C0.66 0.33 1.32 0.66 2 1 C0.11036105 2.94388696 -1.78623935 4.8800346 -3.6875 6.8125 C-4.21794922 7.35970703 -4.74839844 7.90691406 -5.29492188 8.47070312 C-8.34282909 11.55600798 -11.22541022 13.81366191 -15 16 C-15.8971875 17.36125 -15.8971875 17.36125 -16.8125 18.75 C-20.73350104 24.57548725 -26.50100539 28.70391046 -32 33 C-34.50710309 27.06084316 -36.60061654 21.29722557 -38 15 C-31.56960136 12.05261111 -25.05788855 9.42553885 -18.4375 6.9375 C-17.54353516 6.59912109 -16.64957031 6.26074219 -15.72851562 5.91210938 C-13.97895357 5.25042424 -12.22817738 4.59193854 -10.47607422 3.93701172 C-8.85701705 3.32431783 -7.24365329 2.69630468 -5.63720703 2.05126953 C-3.77886134 1.31304558 -1.89138841 0.64890153 0 0 Z " fill="#837366" transform="translate(141,108)"/>
<path d="M0 0 C1.98 0 3.96 0 6 0 C4.45662257 4.51866614 1.97733271 8.1923219 -0.75 12.0625 C-1.46929687 13.09600586 -1.46929687 13.09600586 -2.203125 14.15039062 C-3.79684742 16.43730098 -5.39799554 18.71888495 -7 21 C-8.15128359 22.6443619 -9.3023203 24.28889667 -10.453125 25.93359375 C-12.23168821 28.47481981 -14.01091913 31.01556221 -15.79248047 33.5546875 C-19.51911822 38.86880539 -23.21065588 44.20527931 -26.875 49.5625 C-31.13832378 55.79309314 -35.51108498 61.92903183 -40 68 C-41 65 -41 65 -39.78515625 62.30078125 C-39.21667969 61.31464844 -38.64820313 60.32851562 -38.0625 59.3125 C-37.49660156 58.31863281 -36.93070313 57.32476562 -36.34765625 56.30078125 C-35.90292969 55.54152344 -35.45820313 54.78226563 -35 54 C-34.34 54 -33.68 54 -33 54 C-32.87238281 52.47246094 -32.87238281 52.47246094 -32.7421875 50.9140625 C-31.92347752 46.59644463 -30.51260264 44.03948904 -28.125 40.375 C-27.42632812 39.28960937 -26.72765625 38.20421875 -26.0078125 37.0859375 C-25.34523437 36.06757812 -24.68265625 35.04921875 -24 34 C-23.46632812 33.08605469 -22.93265625 32.17210937 -22.3828125 31.23046875 C-21 29 -21 29 -18.75 26.9375 C-13.45878703 21.88826323 -9.01257515 14.24790637 -8 7 C-8.66 6.67 -9.32 6.34 -10 6 C-6.37 4.68 -2.74 3.36 1 2 C0.505 1.01 0.505 1.01 0 0 Z " fill="#433F3B" transform="translate(254,64)"/>
<path d="M0 0 C-0.44071789 5.82643987 -2.06289579 9.44578514 -5.3125 14.25 C-5.70373047 14.86101562 -6.09496094 15.47203125 -6.49804688 16.1015625 C-8.69446361 19.43807614 -10.82924224 21.64644785 -14 24 C-15.62247568 26.46404654 -15.62247568 26.46404654 -17 29.25 C-18.69999691 32.51227255 -20.40669521 35.72868955 -22.3125 38.875 C-23.8418775 41.70718056 -24.6158861 43.83106033 -25 47 C-25.66 47 -26.32 47 -27 47 C-27.268125 47.70125 -27.53625 48.4025 -27.8125 49.125 C-29 52 -29 52 -30.5625 55 C-32.09280271 57.78062124 -32.09280271 57.78062124 -32.26171875 60.1875 C-33.36272474 64.38180852 -35.76779192 67.48731911 -38.25 71 C-38.72824219 71.69867188 -39.20648438 72.39734375 -39.69921875 73.1171875 C-42.50562759 77.14807283 -45.41064052 80.64643786 -49 84 C-49 82.35 -49 80.7 -49 79 C-48.34 79 -47.68 79 -47 79 C-46.731875 78.13375 -46.46375 77.2675 -46.1875 76.375 C-44.65989112 72.03337477 -43.06136337 68.24002974 -40.05078125 64.72265625 C-37.7895542 61.72060815 -36.76118793 59.05043899 -35.5625 55.5 C-33.67412955 50.32446617 -32.10133486 47.54710042 -28 44 C-26.680982 41.33466965 -26.680982 41.33466965 -26 39 C-25.34 39 -24.68 39 -24 39 C-23.81824219 38.36191406 -23.63648438 37.72382812 -23.44921875 37.06640625 C-23.19785156 36.24011719 -22.94648438 35.41382813 -22.6875 34.5625 C-22.44386719 33.73878906 -22.20023438 32.91507813 -21.94921875 32.06640625 C-21.63597656 31.38449219 -21.32273438 30.70257813 -21 30 C-20.01 29.67 -19.02 29.34 -18 29 C-17.30562253 27.00945124 -16.64389782 25.00744615 -16 23 C-14.68568305 20.98745218 -13.35278115 18.98689731 -12 17 C-11.28426473 15.35380887 -10.5974304 13.69271945 -10 12 C-9.34 12 -8.68 12 -8 12 C-8.144375 11.46375 -8.28875 10.9275 -8.4375 10.375 C-9.09453748 7.60084173 -9.55219948 4.81474612 -10 2 C-6.38026598 0.68373308 -3.90432869 0 0 0 Z " fill="#3A3633" transform="translate(246,71)"/>
<path d="M0 0 C0.99 0.495 0.99 0.495 2 1 C-0.12070908 5.12980189 -2.02145704 6.72654688 -6 9 C-9.3688084 12.20673514 -12.48767966 15.61526345 -15.60498047 19.06201172 C-20.4381848 24.38872222 -25.17057691 29.1814909 -31.0078125 33.42578125 C-35.48037953 36.95998618 -38.90005779 41.58165347 -42.375 46.0625 C-45.25343757 49.28360871 -48.34246276 51.68280803 -51.79296875 54.2578125 C-53.81065048 55.85053118 -55.50751358 57.49293457 -57.25 59.375 C-60.01590927 62.01518612 -61.25251109 62.77955948 -65 63 C-65.33 62.34 -65.66 61.68 -66 61 C-65.34773438 60.50371094 -64.69546875 60.00742188 -64.0234375 59.49609375 C-59.30333905 55.82722667 -55.18656408 52.26147988 -51.44140625 47.609375 C-48.96280202 44.84193613 -46.13023947 42.98649813 -43 41 C-42.34 41 -41.68 41 -41 41 C-41 40.01 -41 39.02 -41 38 C-39.87410789 36.7938379 -38.73489515 35.59742787 -37.53271484 34.46728516 C-35.85313944 32.85940874 -34.29825525 31.17320764 -32.73828125 29.44921875 C-31.89620117 28.52592773 -31.89620117 28.52592773 -31.03710938 27.58398438 C-29.87233979 26.30313356 -28.7109584 25.01919462 -27.55273438 23.73242188 C-26.71645508 22.81879883 -26.71645508 22.81879883 -25.86328125 21.88671875 C-25.36094971 21.33201904 -24.85861816 20.77731934 -24.34106445 20.20581055 C-23 19 -23 19 -21 19 C-20.75121094 18.39542969 -20.50242188 17.79085937 -20.24609375 17.16796875 C-18.80202545 14.65556152 -17.53864187 13.77420758 -15.0625 12.3125 C-14.37285156 11.89613281 -13.68320313 11.47976562 -12.97265625 11.05078125 C-11 10 -11 10 -8 9 C-7.731875 8.4225 -7.46375 7.845 -7.1875 7.25 C-5.44866056 3.95535686 -2.92354664 2.28799302 0 0 Z " fill="#62564D" transform="translate(179,94)"/>
<path d="M0 0 C0.825 0.165 1.65 0.33 2.5 0.5 C-0.07784846 3.14752004 -2.41648098 5.44432065 -5.5 7.5 C-5.5 8.49 -5.5 9.48 -5.5 10.5 C-6.16 11.49 -6.82 12.48 -7.5 13.5 C-8.49 13.5 -9.48 13.5 -10.5 13.5 C-10.77021973 14.0976416 -11.04043945 14.6952832 -11.31884766 15.31103516 C-12.49160567 17.48444324 -13.62306878 18.82904854 -15.3984375 20.5234375 C-15.96046875 21.07 -16.5225 21.6165625 -17.1015625 22.1796875 C-18.27586977 23.30226318 -19.45034661 24.4246615 -20.625 25.546875 C-24.13705616 28.96271044 -26.78951705 32.39248399 -29.5 36.5 C-31.46615661 37.5650015 -33.46726926 38.56833174 -35.5 39.5 C-38.30038557 41.91144313 -40.04461561 44.10410309 -41.5 47.5 C-41.83 47.5 -42.16 47.5 -42.5 47.5 C-42.90258897 43.12571602 -41.98601736 41.19803408 -39.25 37.8125 C-38.64671875 37.04550781 -38.0434375 36.27851563 -37.421875 35.48828125 C-35.5 33.5 -35.5 33.5 -33.390625 32.48046875 C-30.94789181 31.21367943 -30.61538407 29.97205531 -29.5 27.5 C-20.32102063 15.87021002 -20.32102063 15.87021002 -15.3125 13.4375 C-13.35409878 12.65248735 -13.35409878 12.65248735 -12.62109375 10.70703125 C-10.01941138 5.58525238 -5.7567188 0.8223884 0 0 Z " fill="#161413" transform="translate(173.5,163.5)"/>
<path d="M0 0 C-2.75170751 2.9555377 -5.41970299 5.11563315 -9 7 C-9.66 7 -10.32 7 -11 7 C-11.10570313 7.57621094 -11.21140625 8.15242188 -11.3203125 8.74609375 C-12.1013829 11.33619501 -13.22248698 12.92903169 -14.875 15.0625 C-15.38804688 15.73410156 -15.90109375 16.40570313 -16.4296875 17.09765625 C-17.88123607 18.8561243 -19.28531849 20.49613999 -21 22 C-21.66 22 -22.32 22 -23 22 C-23.6987693 20.23358317 -24.38366583 18.46167336 -25.0625 16.6875 C-25.44535156 15.70136719 -25.82820313 14.71523437 -26.22265625 13.69921875 C-27 11 -27 11 -26 8 C-23.71508789 6.81738281 -23.71508789 6.81738281 -20.72265625 5.703125 C-19.65208984 5.30222656 -18.58152344 4.90132813 -17.47851562 4.48828125 C-16.35123047 4.07964844 -15.22394531 3.67101562 -14.0625 3.25 C-12.37737305 2.61384766 -12.37737305 2.61384766 -10.65820312 1.96484375 C-2.26675999 -1.13337999 -2.26675999 -1.13337999 0 0 Z " fill="#8A7A6B" transform="translate(130,114)"/>
<path d="M0 0 C1.1269629 3.38088869 0.94820748 4.62803224 0 8 C-7.14885412 21.78181156 -17.62187993 34.66938976 -27 47 C-28.18680389 43.49038916 -28.01605758 43.03719016 -26.41796875 39.3359375 C-23.89698096 34.65828531 -21.11793005 30.1359829 -18.3125 25.625 C-17.328782 24.03425291 -16.34567831 22.44312571 -15.36328125 20.8515625 C-14.93313721 20.15885254 -14.50299316 19.46614258 -14.05981445 18.75244141 C-12.95979078 16.98639966 -12.95979078 16.98639966 -12 15 C-11.01 14.67 -10.02 14.34 -9 14 C-6.06055851 11.61604352 -4.56579675 8.62428275 -2.8125 5.3125 C-2.28269531 4.31863281 -1.75289062 3.32476562 -1.20703125 2.30078125 C-0.80871094 1.54152344 -0.41039062 0.78226563 0 0 Z " fill="#21201F" transform="translate(171,186)"/>
<path d="M0 0 C1.98 0 3.96 0 6 0 C4.42416811 4.6389658 1.91881411 8.28277419 -0.875 12.25 C-1.59224243 13.27879272 -1.59224243 13.27879272 -2.32397461 14.32836914 C-3.34472226 15.7903336 -4.36782301 17.25065745 -5.39306641 18.70947266 C-7.04541532 21.06473511 -8.6854668 23.42823 -10.32421875 25.79296875 C-11.40316395 27.3414817 -12.48257863 28.88966766 -13.5625 30.4375 C-14.07474121 31.17709961 -14.58698242 31.91669922 -15.11474609 32.67871094 C-15.59379395 33.36094727 -16.0728418 34.04318359 -16.56640625 34.74609375 C-16.98865479 35.35122803 -17.41090332 35.9563623 -17.84594727 36.57983398 C-19 38 -19 38 -21 39 C-20.67 36.69 -20.34 34.38 -20 32 C-19.01 31.67 -18.02 31.34 -17 31 C-15.92745649 28.73774618 -15.92745649 28.73774618 -15 26 C-14.01517978 23.99248185 -13.01847486 21.99065541 -12 20 C-11.01 20 -10.02 20 -9 20 C-8.7834375 19.1028125 -8.7834375 19.1028125 -8.5625 18.1875 C-8.1127561 16.43849596 -7.57107659 14.71322977 -7 13 C-6.34 13 -5.68 13 -5 13 C-4.690625 12.05125 -4.38125 11.1025 -4.0625 10.125 C-3 7 -3 7 -2 5 C-2.66 4.67 -3.32 4.34 -4 4 C-2.35 3.34 -0.7 2.68 1 2 C0.67 1.34 0.34 0.68 0 0 Z " fill="#544F4A" transform="translate(254,64)"/>
<path d="M0 0 C0.66 0.99 1.32 1.98 2 3 C0.89205078 4.56234375 0.89205078 4.56234375 -0.23828125 6.15625 C-1.26320231 7.60403821 -2.28792677 9.05196561 -3.3125 10.5 C-3.85140869 11.26086914 -4.39031738 12.02173828 -4.94555664 12.80566406 C-7.68746901 16.68686965 -10.40682533 20.58010205 -13.0703125 24.515625 C-13.79480591 25.58393555 -13.79480591 25.58393555 -14.53393555 26.67382812 C-15.44637016 28.02351398 -16.35434399 29.37623001 -17.25708008 30.73242188 C-19.86603028 34.58743036 -22.60155381 37.81433667 -26 41 C-25.24116742 34.73963121 -22.05227646 30.06515 -17.9375 25.5 C-14.99238332 22.22105397 -13.62762402 19.06906005 -12 15 C-11.34 14.67 -10.68 14.34 -10 14 C-9.06648655 12.33301169 -8.13509177 10.66477018 -7.21875 8.98828125 C-5.19012663 5.67876427 -2.60873942 2.86091757 0 0 Z " fill="#2E2C2A" transform="translate(196,153)"/>
<path d="M0 0 C0.66 0.66 1.32 1.32 2 2 C1.67 2.66 1.34 3.32 1 4 C0.34 4 -0.32 4 -1 4 C-1.11730469 4.52980469 -1.23460937 5.05960938 -1.35546875 5.60546875 C-3.48721493 13.5252288 -6.77067883 20.99974427 -11 28 C-11.33 28.86625 -11.66 29.7325 -12 30.625 C-13.22254059 33.5285339 -15.00818593 35.5724766 -17 38 C-17.70885894 39.31138904 -18.39456452 40.63777017 -19 42 C-19.66 42 -20.32 42 -21 42 C-21.144375 42.928125 -21.28875 43.85625 -21.4375 44.8125 C-23.09377073 50.86473742 -27.95212504 55.39408467 -32 60 C-32.33 59.34 -32.66 58.68 -33 58 C-31.64442366 55.28884732 -30.28028056 53.26219794 -28.0625 51.1875 C-25.70330604 48.68532459 -24.5706801 46.25548339 -23.11328125 43.171875 C-21.99329424 40.98691789 -20.7243317 39.06940125 -19.3125 37.0625 C-16.30928904 32.66137499 -13.7614411 28.06749579 -11.25 23.375 C-10.86110596 22.65836182 -10.47221191 21.94172363 -10.0715332 21.20336914 C-8.31687484 17.88135387 -6.82687743 14.74004925 -5.859375 11.1015625 C-5 8 -5 8 -3 6 C-2.835 5.154375 -2.67 4.30875 -2.5 3.4375 C-2.335 2.633125 -2.17 1.82875 -2 1 C-1.34 0.67 -0.68 0.34 0 0 Z " fill="#242221" transform="translate(205,126)"/>
<path d="M0 0 C-0.43204221 5.89699715 -2.13510092 9.52734688 -5.4375 14.375 C-5.84548828 15.00277344 -6.25347656 15.63054687 -6.67382812 16.27734375 C-9.70129641 20.8506482 -9.70129641 20.8506482 -12 22 C-11.79503906 21.32453125 -11.59007812 20.6490625 -11.37890625 19.953125 C-10.97478516 18.61507812 -10.97478516 18.61507812 -10.5625 17.25 C-10.29566406 16.36828125 -10.02882812 15.4865625 -9.75390625 14.578125 C-9.11531506 12.39434165 -8.53224167 10.21164502 -8 8 C-8.33 8 -8.66 8 -9 8 C-9.33 6.02 -9.66 4.04 -10 2 C-6.38026598 0.68373308 -3.90432869 0 0 0 Z " fill="#413C38" transform="translate(246,71)"/>
<path d="M0 0 C0 3.19219704 -0.23605791 4.39608549 -2 7 C-3.66072849 7.68132451 -5.327767 8.34742127 -7 9 C-8.01241685 10.32392972 -9.01439389 11.65599167 -10 13 C-10.99 13 -11.98 13 -13 13 C-13.66 10.69 -14.32 8.38 -15 6 C-10.06612142 3.74138003 -5.19644079 1.59890486 0 0 Z " fill="#917F70" transform="translate(118,117)"/>
<path d="M0 0 C-1.875 5.75 -1.875 5.75 -3 8 C-3.66 8 -4.32 8 -5 8 C-5.2165625 8.8971875 -5.2165625 8.8971875 -5.4375 9.8125 C-5.8872439 11.56150404 -6.42892341 13.28677023 -7 15 C-7.99 15 -8.98 15 -10 15 C-10.268125 15.886875 -10.53625 16.77375 -10.8125 17.6875 C-12.6167248 22.7203376 -14.48238411 26.04018269 -19 29 C-18.44955394 24.87532417 -17.16305908 22.44341538 -14.6875 19.125 C-8.81550267 11.2597381 -8.81550267 11.2597381 -6 2 C-6.66 1.67 -7.32 1.34 -8 1 C-5.07175348 0.02391783 -3.04386724 -0.08226668 0 0 Z " fill="#534D48" transform="translate(252,69)"/>
<path d="M0 0 C0.33 0 0.66 0 1 0 C1.90000188 2.85366449 2.45330803 5.00406745 1.17724609 7.80761719 C-0.07555463 9.73460974 -1.40870516 11.55519559 -2.8125 13.375 C-3.27720703 14.01566406 -3.74191406 14.65632813 -4.22070312 15.31640625 C-5.41719673 16.92660854 -6.702593 18.46994005 -8 20 C-8.66 20 -9.32 20 -10 20 C-8.40366214 12.78455289 -4.27092228 5.96976497 0 0 Z " fill="#4B4743" transform="translate(232,98)"/>
<path d="M0 0 C1.98 0 3.96 0 6 0 C4.44759763 4.96768758 1.48945219 9.17867057 -2 13 C-2.66 13 -3.32 13 -4 13 C-3.125 7.25 -3.125 7.25 -2 5 C-2.66 4.67 -3.32 4.34 -4 4 C-2.35 3.34 -0.7 2.68 1 2 C0.67 1.34 0.34 0.68 0 0 Z " fill="#66605A" transform="translate(254,64)"/>
<path d="M0 0 C9.37877608 -0.1598655 18.65190221 0.33566818 28 1 C28 1.33 28 1.66 28 2 C23.89665829 2.36419665 19.7922563 2.7146393 15.6875 3.0625 C14.52025391 3.16626953 13.35300781 3.27003906 12.15039062 3.37695312 C10.47299805 3.51713867 10.47299805 3.51713867 8.76171875 3.66015625 C7.2142395 3.79369507 7.2142395 3.79369507 5.63549805 3.92993164 C3 4 3 4 0 3 C0 2.01 0 1.02 0 0 Z " fill="#B0A69E" transform="translate(175,60)"/>
<path d="M0 0 C1 2 1 2 0.2734375 4.19140625 C-1.2141394 7.47228904 -2.76556524 10.71516186 -4.375 13.9375 C-4.66632813 14.53240234 -4.95765625 15.12730469 -5.2578125 15.74023438 C-7.24365754 19.72498923 -9.47064929 23.35082662 -12 27 C-12.8125 25.375 -12.8125 25.375 -13 23 C-11.83827981 21.66743861 -10.66951274 20.3404596 -9.46875 19.04296875 C-6.86914852 15.42703372 -5.66225375 11.20205946 -4.2109375 7.0234375 C-3.09552135 4.23849523 -1.92210045 2.27763348 0 0 Z " fill="#33302E" transform="translate(216,116)"/>
<path d="M0 0 C0.33 0.66 0.66 1.32 1 2 C1.66 2.33 2.32 2.66 3 3 C-1.455 8.94 -1.455 8.94 -6 15 C-7 12 -7 12 -6 9 C-5.34 9 -4.68 9 -4 9 C-3.855625 8.401875 -3.71125 7.80375 -3.5625 7.1875 C-3.1127561 5.43849596 -2.57107659 3.71322977 -2 2 C-1.34 2 -0.68 2 0 2 C0 1.34 0 0.68 0 0 Z " fill="#5A5550" transform="translate(249,75)"/>
<path d="M0 0 C1 3 1 3 -0.2578125 5.92578125 C-0.87398437 7.04339844 -1.49015625 8.16101563 -2.125 9.3125 C-2.4454126 9.89410889 -2.7658252 10.47571777 -3.09594727 11.07495117 C-5.37949172 15.13084981 -7.81504071 18.62201287 -11 22 C-11.33 21.01 -11.66 20.02 -12 19 C-10.66364202 16.59337302 -9.29797984 14.38815593 -7.75 12.125 C-6.93169606 10.89883478 -6.11397692 9.67227906 -5.296875 8.4453125 C-4.90435547 7.86168945 -4.51183594 7.27806641 -4.10742188 6.67675781 C-2.66546987 4.4934848 -1.32191396 2.25755436 0 0 Z " fill="#4C4742" transform="translate(245,76)"/>
<path d="M0 0 C-0.44730469 0.37511719 -0.89460937 0.75023438 -1.35546875 1.13671875 C-5.07368722 4.2841233 -8.607181 7.5043683 -12 11 C-11.51421457 7.87709365 -11.0013988 5.00419641 -10 2 C-8.22265625 1.015625 -8.22265625 1.015625 -6.0625 0.25 C-5.35222656 -0.01296875 -4.64195312 -0.2759375 -3.91015625 -0.546875 C-2 -1 -2 -1 0 0 Z " fill="#4B443E" transform="translate(219,81)"/>
<path d="M0 0 C0.66 0.33 1.32 0.66 2 1 C1.071875 1.4021875 1.071875 1.4021875 0.125 1.8125 C-2.2995233 2.95556848 -2.2995233 2.95556848 -4 6 C-6.5 7.125 -6.5 7.125 -9 8 C-9.99 8.495 -9.99 8.495 -11 9 C-11.33 7.68 -11.66 6.36 -12 5 C-10.56328432 4.35242375 -9.12559584 3.70700547 -7.6875 3.0625 C-6.88699219 2.70285156 -6.08648437 2.34320313 -5.26171875 1.97265625 C-3 1 -3 1 0 0 Z " fill="#9B8979" transform="translate(115,118)"/>
<path d="M0 0 C0.33 0.66 0.66 1.32 1 2 C-0.14453125 4.2421875 -0.14453125 4.2421875 -1.8125 6.875 C-3.69186735 9.86591716 -5.47910462 12.8098292 -7 16 C-7.66 16 -8.32 16 -9 16 C-9.33 16.99 -9.66 17.98 -10 19 C-10.33 18.34 -10.66 17.68 -11 17 C-9.63671875 14.1796875 -9.63671875 14.1796875 -7.6875 10.875 C-7.05199219 9.77929688 -6.41648438 8.68359375 -5.76171875 7.5546875 C-5.18035156 6.71164063 -4.59898437 5.86859375 -4 5 C-3.34 5 -2.68 5 -2 5 C-1.34 3.35 -0.68 1.7 0 0 Z " fill="#1C1B1A" transform="translate(172,182)"/>
<path d="M0 0 C-1.38460805 2.76921611 -3.32534593 2.96692585 -6.078125 4.0703125 C-9.17078282 5.56635429 -11.45811506 7.70610383 -14 10 C-14.66 9.67 -15.32 9.34 -16 9 C-14.61211198 7.69979989 -13.21430742 6.4101807 -11.8125 5.125 C-11.03519531 4.40570313 -10.25789062 3.68640625 -9.45703125 2.9453125 C-3.51630769 -1.75815385 -3.51630769 -1.75815385 0 0 Z " fill="#443D37" transform="translate(227,78)"/>
<path d="M0 0 C-3.06093224 3.93548431 -5.49115974 6.68116787 -10 9 C-9.34 7.35 -8.68 5.7 -8 4 C-8.66 3.34 -9.32 2.68 -10 2 C-8.71211992 1.46987262 -7.41953322 0.9511671 -6.125 0.4375 C-5.40570313 0.14746094 -4.68640625 -0.14257812 -3.9453125 -0.44140625 C-2 -1 -2 -1 0 0 Z " fill="#6D6157" transform="translate(176,97)"/>
<path d="M0 0 C0.66 1.32 1.32 2.64 2 4 C-1.08809695 5.76462683 -2.23312136 6 -6 6 C-6.33 5.01 -6.66 4.02 -7 3 C-4.625 1.9375 -4.625 1.9375 -2 1 C-1.34 1.33 -0.68 1.66 0 2 C0 1.34 0 0.68 0 0 Z " fill="#E8E1D9" transform="translate(133,107)"/>
<path d="M0 0 C-2.77280706 3.08089673 -5.06326356 4.68775452 -9 6 C-9.33 4.68 -9.66 3.36 -10 2 C-8.71211992 1.46987262 -7.41953322 0.9511671 -6.125 0.4375 C-5.40570313 0.14746094 -4.68640625 -0.14257812 -3.9453125 -0.44140625 C-2 -1 -2 -1 0 0 Z " fill="#918174" transform="translate(130,114)"/>
<path d="M0 0 C-2.97 2.64 -5.94 5.28 -9 8 C-9 5 -9 5 -8 3 C-8.66 2.67 -9.32 2.34 -10 2 C-8.71211992 1.46987262 -7.41953322 0.9511671 -6.125 0.4375 C-5.40570313 0.14746094 -4.68640625 -0.14257812 -3.9453125 -0.44140625 C-2 -1 -2 -1 0 0 Z " fill="#574E47" transform="translate(208,85)"/>
<path d="M0 0 C-2.9465385 1.80066242 -5.88801935 3.50163895 -9 5 C-9 4.34 -9 3.68 -9 3 C-9.66 2.67 -10.32 2.34 -11 2 C-9.54494642 1.47007308 -8.08581873 0.9513211 -6.625 0.4375 C-5.81289062 0.14746094 -5.00078125 -0.14257812 -4.1640625 -0.44140625 C-2 -1 -2 -1 0 0 Z " fill="#5F564E" transform="translate(198,89)"/>
</svg>
