<?xml version="1.0" encoding="UTF-8"?>
<!DOCTYPE svg PUBLIC "-//W3C//DTD SVG 1.1//EN" "http://www.w3.org/Graphics/SVG/1.1/DTD/svg11.dtd">
<svg xmlns="http://www.w3.org/2000/svg" version="1.1" width="200px" height="200px" style="shape-rendering:geometricPrecision; text-rendering:geometricPrecision; image-rendering:optimizeQuality; fill-rule:evenodd; clip-rule:evenodd" xmlns:xlink="http://www.w3.org/1999/xlink">
<g><path style="opacity:1" fill="#d5a1ce" d="M 97.5,-0.5 C 102.833,-0.5 108.167,-0.5 113.5,-0.5C 115.5,0.166667 117.5,0.833333 119.5,1.5C 118.914,3.83984 117.914,6.00651 116.5,8C 117.416,8.27842 118.082,8.77842 118.5,9.5C 110.231,8.12031 101.898,7.45364 93.5,7.5C 94.8333,4.83333 96.1667,2.16667 97.5,-0.5 Z"/></g>
<g><path style="opacity:1" fill="#ef9fb5" d="M 119.5,1.5 C 123.8,1.71911 127.8,2.71911 131.5,4.5C 129.536,7.01783 128.87,9.68449 129.5,12.5C 125.848,11.371 122.182,10.371 118.5,9.5C 118.082,8.77842 117.416,8.27842 116.5,8C 117.914,6.00651 118.914,3.83984 119.5,1.5 Z"/></g>
<g><path style="opacity:1" fill="#97a2f4" d="M 85.5,-0.5 C 89.5,-0.5 93.5,-0.5 97.5,-0.5C 96.1667,2.16667 94.8333,4.83333 93.5,7.5C 79.7414,8.53135 66.7414,12.198 54.5,18.5C 55.8951,14.7099 57.5617,11.0432 59.5,7.5C 67.87,3.82078 76.5366,1.15411 85.5,-0.5 Z"/></g>
<g><path style="opacity:1" fill="#f6b6a6" d="M 131.5,4.5 C 135.313,5.43754 138.979,6.77088 142.5,8.5C 141.552,11.1402 140.552,13.8069 139.5,16.5C 136.167,15.1667 132.833,13.8333 129.5,12.5C 128.87,9.68449 129.536,7.01783 131.5,4.5 Z"/></g>
<g><path style="opacity:1" fill="#000101" d="M 93.5,7.5 C 101.898,7.45364 110.231,8.12031 118.5,9.5C 122.182,10.371 125.848,11.371 129.5,12.5C 132.833,13.8333 136.167,15.1667 139.5,16.5C 143.167,18.5 146.833,20.5 150.5,22.5C 153.794,25.1558 157.127,27.8225 160.5,30.5C 163.833,33.1667 166.833,36.1667 169.5,39.5C 174.621,45.6274 178.954,52.2941 182.5,59.5C 183.928,63.35 185.594,67.0166 187.5,70.5C 188.192,74.5999 189.192,78.5999 190.5,82.5C 190.616,85.8599 190.949,89.1933 191.5,92.5C 191.5,97.1667 191.5,101.833 191.5,106.5C 189.108,130.283 179.442,150.617 162.5,167.5C 156.828,171.507 151.161,175.507 145.5,179.5C 142.101,181.199 138.768,182.866 135.5,184.5C 131.605,185.462 127.939,186.796 124.5,188.5C 120.922,188.549 117.589,189.215 114.5,190.5C 106.184,191.185 97.851,191.518 89.5,191.5C 85.6403,190.196 81.6403,189.529 77.5,189.5C 72.919,187.86 68.2524,186.193 63.5,184.5C 59.5388,182.519 55.5388,180.519 51.5,178.5C 49.3805,176.6 47.0472,174.934 44.5,173.5C 41.4797,170.484 38.1464,167.817 34.5,165.5C 31.1793,160.848 27.5126,156.515 23.5,152.5C 18.6782,144.524 14.6782,136.191 11.5,127.5C 0.627445,80.9513 14.9608,44.618 54.5,18.5C 66.7414,12.198 79.7414,8.53135 93.5,7.5 Z"/></g>
<g><path style="opacity:1" fill="#f7d19c" d="M 142.5,8.5 C 146.864,10.3437 150.864,12.677 154.5,15.5C 152.412,17.3356 151.079,19.6689 150.5,22.5C 146.833,20.5 143.167,18.5 139.5,16.5C 140.552,13.8069 141.552,11.1402 142.5,8.5 Z"/></g>
<g><path style="opacity:1" fill="#80a5f7" d="M 59.5,7.5 C 57.5617,11.0432 55.8951,14.7099 54.5,18.5C 14.9608,44.618 0.627445,80.9513 11.5,127.5C 11.0871,131.338 9.42047,134.338 6.5,136.5C 3.1536,129.129 0.820268,121.462 -0.5,113.5C -0.5,103.833 -0.5,94.1667 -0.5,84.5C 6.31585,48.5239 26.3159,22.8572 59.5,7.5 Z"/></g>
<g><path style="opacity:1" fill="#f6e494" d="M 154.5,15.5 C 157.81,17.4821 160.81,19.8154 163.5,22.5C 162.5,25.1667 161.5,27.8333 160.5,30.5C 157.127,27.8225 153.794,25.1558 150.5,22.5C 151.079,19.6689 152.412,17.3356 154.5,15.5 Z"/></g>
<g><path style="opacity:1" fill="#d2ee8c" d="M 163.5,22.5 C 167.456,24.7881 170.789,27.7881 173.5,31.5C 172.18,34.1401 170.847,36.8068 169.5,39.5C 166.833,36.1667 163.833,33.1667 160.5,30.5C 161.5,27.8333 162.5,25.1667 163.5,22.5 Z"/></g>
<g><path style="opacity:1" fill="#99f18c" d="M 173.5,31.5 C 179.327,37.3317 183.994,43.9984 187.5,51.5C 186.865,54.7616 185.198,57.4282 182.5,59.5C 178.954,52.2941 174.621,45.6274 169.5,39.5C 170.847,36.8068 172.18,34.1401 173.5,31.5 Z"/></g>
<g><path style="opacity:1" fill="#88eaad" d="M 187.5,51.5 C 189.957,54.7512 191.624,58.4179 192.5,62.5C 190.819,65.2028 189.153,67.8695 187.5,70.5C 185.594,67.0166 183.928,63.35 182.5,59.5C 185.198,57.4282 186.865,54.7616 187.5,51.5 Z"/></g>
<g><path style="opacity:1" fill="#89e6d0" d="M 192.5,62.5 C 194.472,65.0836 195.472,68.0836 195.5,71.5C 195.163,75.836 193.496,79.5026 190.5,82.5C 189.192,78.5999 188.192,74.5999 187.5,70.5C 189.153,67.8695 190.819,65.2028 192.5,62.5 Z"/></g>
<g><path style="opacity:1" fill="#f5f5f5" d="M 41.5,74.5 C 51.4641,72.5626 58.2974,76.2292 62,85.5C 62.1404,99.3611 55.3071,105.194 41.5,103C 32.6428,97.4287 30.4761,89.9287 35,80.5C 37.0627,78.2659 39.2294,76.2659 41.5,74.5 Z"/></g>
<g><path style="opacity:1" fill="#f4f4f4" d="M 146.5,74.5 C 163.263,74.0786 169.096,81.7453 164,97.5C 157.749,104.011 150.582,105.177 142.5,101C 133.637,90.5364 134.97,81.7031 146.5,74.5 Z"/></g>
<g><path style="opacity:1" fill="#86ddde" d="M 195.5,71.5 C 196.993,74.5832 197.993,77.9165 198.5,81.5C 196.416,85.3359 194.083,89.0026 191.5,92.5C 190.949,89.1933 190.616,85.8599 190.5,82.5C 193.496,79.5026 195.163,75.836 195.5,71.5 Z"/></g>
<g><path style="opacity:1" fill="#f1f1f1" d="M 85.5,87.5 C 94.8393,87.3335 104.173,87.5002 113.5,88C 116.374,91.0509 116.041,93.7175 112.5,96C 103.833,96.6667 95.1667,96.6667 86.5,96C 82.8527,93.5577 82.5194,90.7244 85.5,87.5 Z"/></g>
<g><path style="opacity:1" fill="#81cde9" d="M 198.5,81.5 C 198.232,83.099 198.566,84.4324 199.5,85.5C 199.5,89.5 199.5,93.5 199.5,97.5C 196.864,101.665 194.364,105.998 192,110.5C 191.51,109.207 191.343,107.873 191.5,106.5C 191.5,101.833 191.5,97.1667 191.5,92.5C 194.083,89.0026 196.416,85.3359 198.5,81.5 Z"/></g>
<g><path style="opacity:1" fill="#7ab5f2" d="M 199.5,97.5 C 199.5,103.167 199.5,108.833 199.5,114.5C 198.833,114.5 198.5,114.833 198.5,115.5C 188.941,132.947 179.608,150.614 170.5,168.5C 170.624,169.107 170.957,169.44 171.5,169.5C 166.44,174.892 160.774,179.559 154.5,183.5C 156.642,177.883 159.308,172.55 162.5,167.5C 179.442,150.617 189.108,130.283 191.5,106.5C 191.343,107.873 191.51,109.207 192,110.5C 194.364,105.998 196.864,101.665 199.5,97.5 Z"/></g>
<g><path style="opacity:1" fill="#7daefa" d="M 198.5,115.5 C 195.31,136.546 186.31,154.546 171.5,169.5C 170.957,169.44 170.624,169.107 170.5,168.5C 179.608,150.614 188.941,132.947 198.5,115.5 Z"/></g>
<g><path style="opacity:1" fill="#aca2ea" d="M 11.5,127.5 C 14.6782,136.191 18.6782,144.524 23.5,152.5C 22.2134,155.406 21.2134,158.406 20.5,161.5C 14.1945,154.167 9.52782,145.834 6.5,136.5C 9.42047,134.338 11.0871,131.338 11.5,127.5 Z"/></g>
<g><path style="opacity:1" fill="#dda2cc" d="M 23.5,152.5 C 27.5126,156.515 31.1793,160.848 34.5,165.5C 33.7439,168.394 32.0772,170.394 29.5,171.5C 25.7881,168.789 22.7881,165.456 20.5,161.5C 21.2134,158.406 22.2134,155.406 23.5,152.5 Z"/></g>
<g><path style="opacity:1" fill="#f2a1b7" d="M 34.5,165.5 C 38.1464,167.817 41.4797,170.484 44.5,173.5C 42.3757,175.059 40.709,177.059 39.5,179.5C 35.7929,177.312 32.4595,174.645 29.5,171.5C 32.0772,170.394 33.7439,168.394 34.5,165.5 Z"/></g>
<g><path style="opacity:1" fill="#f7b5a8" d="M 44.5,173.5 C 47.0472,174.934 49.3805,176.6 51.5,178.5C 50.291,180.941 48.6243,182.941 46.5,184.5C 43.6298,183.567 41.2964,181.9 39.5,179.5C 40.709,177.059 42.3757,175.059 44.5,173.5 Z"/></g>
<g><path style="opacity:1" fill="#80cce5" d="M 162.5,167.5 C 159.308,172.55 156.642,177.883 154.5,183.5C 150.653,186.593 146.32,188.926 141.5,190.5C 142.754,186.824 144.421,183.324 146.5,180C 146.272,179.601 145.938,179.435 145.5,179.5C 151.161,175.507 156.828,171.507 162.5,167.5 Z"/></g>
<g><path style="opacity:1" fill="#f6cb9d" d="M 51.5,178.5 C 55.5388,180.519 59.5388,182.519 63.5,184.5C 60.2842,185.989 58.9509,188.322 59.5,191.5C 54.6805,189.926 50.3472,187.593 46.5,184.5C 48.6243,182.941 50.291,180.941 51.5,178.5 Z"/></g>
<g><path style="opacity:1" fill="#86e3ca" d="M 135.5,184.5 C 136.376,184.369 137.043,184.702 137.5,185.5C 135.342,188.148 134.008,191.148 133.5,194.5C 130.539,195.323 127.539,195.99 124.5,196.5C 123.761,196.631 123.094,196.464 122.5,196C 123.833,193.667 125.167,191.333 126.5,189C 125.906,188.536 125.239,188.369 124.5,188.5C 127.939,186.796 131.605,185.462 135.5,184.5 Z"/></g>
<g><path style="opacity:1" fill="#87dede" d="M 145.5,179.5 C 145.938,179.435 146.272,179.601 146.5,180C 144.421,183.324 142.754,186.824 141.5,190.5C 138.995,192.011 136.328,193.345 133.5,194.5C 134.008,191.148 135.342,188.148 137.5,185.5C 137.043,184.702 136.376,184.369 135.5,184.5C 138.768,182.866 142.101,181.199 145.5,179.5 Z"/></g>
<g><path style="opacity:1" fill="#f7e696" d="M 63.5,184.5 C 68.2524,186.193 72.919,187.86 77.5,189.5C 75.8639,190.749 74.6972,192.416 74,194.5C 73.3292,195.252 72.4959,195.586 71.5,195.5C 67.0845,195.139 63.0845,193.806 59.5,191.5C 58.9509,188.322 60.2842,185.989 63.5,184.5 Z"/></g>
<g><path style="opacity:1" fill="#86e9b0" d="M 124.5,188.5 C 125.239,188.369 125.906,188.536 126.5,189C 125.167,191.333 123.833,193.667 122.5,196C 123.094,196.464 123.761,196.631 124.5,196.5C 121.411,197.785 118.078,198.451 114.5,198.5C 115.172,195.657 116.505,193.157 118.5,191C 117.207,190.51 115.873,190.343 114.5,190.5C 117.589,189.215 120.922,188.549 124.5,188.5 Z"/></g>
<g><path style="opacity:1" fill="#d6f08e" d="M 77.5,189.5 C 81.6403,189.529 85.6403,190.196 89.5,191.5C 88.5,194.167 87.5,196.833 86.5,199.5C 85.8333,199.5 85.1667,199.5 84.5,199.5C 80.0946,198.418 75.7612,197.085 71.5,195.5C 72.4959,195.586 73.3292,195.252 74,194.5C 74.6972,192.416 75.8639,190.749 77.5,189.5 Z"/></g>
<g><path style="opacity:1" fill="#99f18d" d="M 114.5,190.5 C 115.873,190.343 117.207,190.51 118.5,191C 116.505,193.157 115.172,195.657 114.5,198.5C 113.833,198.5 113.5,198.833 113.5,199.5C 104.5,199.5 95.5,199.5 86.5,199.5C 87.5,196.833 88.5,194.167 89.5,191.5C 97.851,191.518 106.184,191.185 114.5,190.5 Z"/></g>
</svg>
