<?xml version="1.0" encoding="UTF-8"?> <svg xmlns="http://www.w3.org/2000/svg" xmlns:xlink="http://www.w3.org/1999/xlink" version="1.1" id="Layer_1" x="0px" y="0px" viewBox="0 0 57 57" style="enable-background:new 0 0 57 57;" xml:space="preserve"> <style type="text/css"> .st0{clip-path:url(#SVGID_2_);} .st1{fill:#24201F;} </style> <g> <defs> <rect id="SVGID_1_" width="57" height="57"></rect> </defs> <clipPath id="SVGID_2_"> <use xlink:href="#SVGID_1_" style="overflow:visible;"></use> </clipPath> <g class="st0"> <path class="st1" d="M3.1,35.5c-1.3-1.3-2.1-2.7-2.6-4.4c-0.4-1.7-0.4-3.4,0-5c0.4-1.7,1.3-3.2,2.6-4.4c1.3-1.3,2.8-2.1,4.4-2.6 c1.7-0.4,3.4-0.4,5,0c1.7,0.4,3.2,1.3,4.4,2.6l3.2,3.2l4.7-4.7L21.7,17c-1.3-1.3-2.1-2.7-2.6-4.4c-0.4-1.7-0.4-3.4,0-5 c0.4-1.7,1.3-3.2,2.6-4.4c1.3-1.3,2.8-2.1,4.4-2.6c1.7-0.4,3.4-0.4,5,0c1.7,0.4,3.2,1.3,4.4,2.6c1.3,1.3,2.1,2.8,2.6,4.4 c0.4,1.7,0.4,3.3,0,5c-0.4,1.7-1.3,3.2-2.5,4.4l-3.1,3.1l4.7,4.7l3.1-3.1c1.3-1.3,2.7-2.1,4.4-2.6c1.7-0.4,3.4-0.4,5,0 c1.7,0.4,3.2,1.3,4.4,2.6c1.3,1.3,2.1,2.8,2.6,4.4c0.4,1.7,0.4,3.3,0,5c-0.4,1.7-1.3,3.2-2.6,4.4c-1.3,1.3-2.8,2.1-4.4,2.6 c-1.7,0.4-3.3,0.4-5,0c-1.7-0.4-3.1-1.3-4.4-2.6l-3.1-3.1l-4.7,4.7l3.1,3.1c1.3,1.3,2.1,2.7,2.5,4.4c0.4,1.7,0.4,3.4,0,5 c-0.4,1.7-1.3,3.2-2.6,4.4c-1.3,1.3-2.7,2.1-4.4,2.6c-1.7,0.4-3.4,0.4-5,0c-1.7-0.4-3.1-1.3-4.4-2.6c-1.3-1.3-2.1-2.8-2.6-4.4 c-0.4-1.7-0.4-3.4,0-5c0.4-1.7,1.3-3.2,2.6-4.4l3.2-3.2l-4.7-4.7L17,35.6c-1.3,1.3-2.7,2.1-4.4,2.5c-1.7,0.4-3.4,0.4-5,0 C5.8,37.7,4.4,36.8,3.1,35.5z M6.9,31.8c0.6,0.6,1.2,1,2,1.2c0.8,0.2,1.5,0.2,2.3,0c0.8-0.2,1.4-0.6,2-1.2l3.2-3.2l-3.2-3.2 c-0.6-0.6-1.2-1-2-1.1c-0.8-0.2-1.5-0.2-2.3,0c-0.8,0.2-1.4,0.6-2,1.2c-0.6,0.6-1,1.2-1.2,2c-0.2,0.8-0.2,1.5,0,2.3 C5.9,30.5,6.3,31.2,6.9,31.8z M25.5,13.2l3.2,3.2l3.1-3.1c0.6-0.6,1-1.3,1.2-2c0.2-0.8,0.2-1.5,0-2.3c-0.2-0.8-0.6-1.4-1.2-2 c-0.6-0.6-1.2-1-2-1.2c-0.8-0.2-1.5-0.2-2.3,0c-0.7,0.2-1.4,0.6-2,1.2c-0.6,0.6-1,1.2-1.2,2c-0.2,0.8-0.2,1.5,0,2.3 C24.5,11.9,24.9,12.6,25.5,13.2z M40,28.6l3.1,3.1c0.6,0.6,1.2,1,2,1.2c0.8,0.2,2.4,0.2,3.2,0c0.8-0.2,1.4-0.6,2-1.2 c0.6-0.6,1-1.3,1.2-2c0.2-0.7,0.2-1.5,0-2.3c-0.2-0.8-0.6-1.4-1.2-2c-0.6-0.6-1.3-1-2-1.2c-0.8-0.2-2.4-0.2-3.2,0 c-0.7,0.2-1.4,0.6-2,1.2L40,28.6z M25.5,50.3c0.6,0.6,1.2,1,2,1.2c0.8,0.2,1.5,0.2,2.3,0c0.8-0.2,1.4-0.6,2-1.2 c0.6-0.6,1-1.3,1.2-2c0.2-0.7,0.2-1.5,0-2.3c-0.2-0.8-0.6-1.4-1.1-2l-3.1-3.1L25.5,44c-0.6,0.6-1,1.2-1.2,2 c-0.2,0.8-0.2,1.5,0,2.3C24.5,49.1,24.9,49.7,25.5,50.3z M24,28.6l4.7,4.7l4.7-4.7l-4.7-4.7L24,28.6z"></path> </g> </g> </svg> 