<svg width="30" height="30" viewBox="0 0 30 30" fill="none" xmlns="http://www.w3.org/2000/svg">
<g clip-path="url(#clip0_1418_345)">
<path d="M30 15C30 6.71573 23.2843 0 15 0C6.71573 0 0 6.71573 0 15C0 23.2843 6.71573 30 15 30C23.2843 30 30 23.2843 30 15Z" fill="url(#paint0_linear_1418_345)"/>
<path fill-rule="evenodd" clip-rule="evenodd" d="M21.3674 21.1217C21.369 21.133 21.3697 21.1446 21.37 21.1562C21.3703 21.2463 21.324 21.3301 21.2472 21.3774L15.101 25.1673C15.0179 25.2184 14.9134 25.2188 14.8306 25.1676L8.73393 21.425C8.65721 21.3776 8.61053 21.2941 8.61084 21.2041C8.61084 21.1963 8.61117 21.1884 8.61212 21.1806C8.61117 21.1722 8.61084 21.1643 8.61084 21.1559L8.61046 16.4799C8.61046 16.4742 8.61079 16.4685 8.61111 16.4632C8.60663 16.3954 8.629 16.3268 8.67694 16.2735C8.75877 16.1829 8.8927 16.162 8.99788 16.2233L14.9887 19.7002L20.9244 16.2569C20.9339 16.2509 20.9441 16.2462 20.9544 16.2417C20.9979 16.2082 21.0521 16.1882 21.1117 16.1882C21.2539 16.1882 21.3696 16.3039 21.3697 16.4463L21.37 21.0855C21.37 21.098 21.369 21.1099 21.3674 21.1217ZM9.12675 20.7477L10.8976 19.6779L9.12647 17.2403L9.12675 20.7477ZM11.202 20.097C10.7107 20.3937 9.36494 21.2067 9.36494 21.2067L14.1362 24.136L11.202 20.097ZM15.8777 24.0822L20.6159 21.1604L18.7851 20.0596L15.8777 24.0822ZM19.0885 19.6398L20.854 20.7014L20.8538 17.1971L19.0885 19.6398ZM14.8593 20.2216L9.79455 17.2819L14.9885 24.4315L20.1341 17.3116L15.1182 20.2216C15.0383 20.268 14.9392 20.268 14.8593 20.2216ZM8.85972 15.2247C8.72131 15.22 8.61036 15.1064 8.61035 14.9667L8.60987 8.88874C8.60987 8.87357 8.61115 8.85869 8.61371 8.84442C8.61115 8.83045 8.60987 8.81619 8.60987 8.80162C8.60954 8.71155 8.65621 8.62773 8.73292 8.58076L14.8795 4.81105C14.962 4.76021 15.0662 4.76022 15.1486 4.81076L21.2453 8.53289C21.3223 8.57986 21.369 8.66369 21.369 8.75375C21.369 8.75763 21.3687 8.7612 21.3687 8.76506C21.3687 8.76892 21.369 8.77279 21.369 8.77695L21.3695 14.935C21.3695 15.0437 21.3018 15.1371 21.2065 15.1749L15.113 18.5269C15.0356 18.5694 14.9416 18.5694 14.8643 18.5269L8.85972 15.2247ZM9.12585 9.25675L9.12623 14.1475L11.3182 10.5748L9.12585 9.25675ZM20.8531 9.21037L18.6405 10.5472L20.8535 14.1537L20.8531 9.21037ZM18.3706 10.1072C18.9381 9.76445 20.614 8.75198 20.614 8.75198L15.697 5.74984L18.3706 10.1072ZM14.2437 5.80603L9.36491 8.79836L11.588 10.1351L14.2437 5.80603ZM9.28771 14.8713L14.9886 18.0063L20.6883 14.871L14.9876 5.58039L9.28771 14.8713Z" fill="url(#paint1_linear_1418_345)"/>
</g>
<defs>
<linearGradient id="paint0_linear_1418_345" x1="18.9895" y1="-1.50139" x2="11.0887" y2="30.6869" gradientUnits="userSpaceOnUse">
<stop stop-color="#211D60"/>
<stop offset="1" stop-color="#1D1534"/>
</linearGradient>
<linearGradient id="paint1_linear_1418_345" x1="14.8948" y1="24.8495" x2="21.2524" y2="8.88409" gradientUnits="userSpaceOnUse">
<stop stop-color="#29BCFA"/>
<stop offset="0.43" stop-color="#6464E4"/>
<stop offset="1" stop-color="#B45AFA"/>
</linearGradient>
<clipPath id="clip0_1418_345">
<rect width="30" height="30" fill="white"/>
</clipPath>
</defs>
</svg>
