<?xml version="1.0" encoding="UTF-8"?>
<!DOCTYPE svg PUBLIC "-//W3C//DTD SVG 1.1//EN" "http://www.w3.org/Graphics/SVG/1.1/DTD/svg11.dtd">
<svg xmlns="http://www.w3.org/2000/svg" version="1.1" width="320px" height="320px" style="shape-rendering:geometricPrecision; text-rendering:geometricPrecision; image-rendering:optimizeQuality; fill-rule:evenodd; clip-rule:evenodd" xmlns:xlink="http://www.w3.org/1999/xlink">
<g><path style="opacity:1" fill="#373d43" d="M 141.5,-0.5 C 153.5,-0.5 165.5,-0.5 177.5,-0.5C 246.405,10.5679 291.905,49.2345 314,115.5C 316.172,124.235 318.005,132.902 319.5,141.5C 319.5,153.5 319.5,165.5 319.5,177.5C 308.432,246.405 269.765,291.905 203.5,314C 194.765,316.172 186.098,318.005 177.5,319.5C 165.5,319.5 153.5,319.5 141.5,319.5C 72.5952,308.432 27.0952,269.765 5,203.5C 2.82789,194.765 0.994558,186.098 -0.5,177.5C -0.5,165.5 -0.5,153.5 -0.5,141.5C 10.5679,72.5952 49.2345,27.0952 115.5,5C 124.235,2.82789 132.902,0.994558 141.5,-0.5 Z"/></g>
<g><path style="opacity:1" fill="#010101" d="M 240.5,112.5 C 239.957,112.56 239.624,112.893 239.5,113.5C 260.489,114.5 281.489,114.833 302.5,114.5C 318.595,174.29 304.929,226.123 261.5,270C 222.143,303.842 176.809,315.842 125.5,306C 73.1847,292.107 37.3514,259.941 18,209.5C -1.58542,143.989 13.9146,88.4888 64.5,43C 115.655,5.01729 170.322,-0.649374 228.5,26C 263.353,45.0239 287.687,73.1906 301.5,110.5C 281.004,111.167 260.671,111.833 240.5,112.5 Z"/></g>
<g><path style="opacity:1" fill="#a2a2a2" d="M 56.5,112.5 C 77.1774,112.167 97.8441,112.5 118.5,113.5C 108.167,113.833 97.8333,114.167 87.5,114.5C 76.811,114.499 66.4777,113.832 56.5,112.5 Z"/></g>
<g><path style="opacity:1" fill="#a1a0a0" d="M 128.5,112.5 C 138.855,112.168 149.188,112.501 159.5,113.5C 154.333,113.833 149.167,114.167 144,114.5C 138.454,114.495 133.288,113.828 128.5,112.5 Z"/></g>
<g><path style="opacity:1" fill="#a1a2a2" d="M 179.5,112.5 C 193.183,112.167 206.85,112.501 220.5,113.5C 213.667,113.833 206.833,114.167 200,114.5C 192.799,114.497 185.966,113.83 179.5,112.5 Z"/></g>
<g><path style="opacity:1" fill="#a2a2a2" d="M 240.5,112.5 C 261.511,112.167 282.511,112.5 303.5,113.5C 303.376,114.107 303.043,114.44 302.5,114.5C 281.489,114.833 260.489,114.5 239.5,113.5C 239.624,112.893 239.957,112.56 240.5,112.5 Z"/></g>
<g><path style="opacity:1" fill="#a0a1a2" d="M 124.5,119.5 C 125.675,119.281 126.675,119.614 127.5,120.5C 125.255,125.324 122.755,129.99 120,134.5C 119.333,133.167 119.333,131.833 120,130.5C 121.768,126.914 123.268,123.247 124.5,119.5 Z"/></g>
<g><path style="opacity:1" fill="#abb3b0" d="M 236.5,119.5 C 237.497,119.47 238.164,119.97 238.5,121C 236.789,125.296 234.789,129.462 232.5,133.5C 232.167,133 231.833,132.5 231.5,132C 233.059,127.726 234.726,123.559 236.5,119.5 Z"/></g>
<g><path style="opacity:1" fill="#b3b3b4" d="M 54.5,119.5 C 55.3718,120.612 55.3718,121.946 54.5,123.5C 52.8333,126.833 51.1667,130.167 49.5,133.5C 49.1667,132.833 48.8333,132.167 48.5,131.5C 50.3276,127.308 52.3276,123.308 54.5,119.5 Z"/></g>
<g><path style="opacity:1" fill="#aba4a5" d="M 162.5,117.5 C 163.5,117.5 164.5,117.5 165.5,117.5C 165.5,123.5 165.5,129.5 165.5,135.5C 164.5,135.5 163.5,135.5 162.5,135.5C 162.5,129.5 162.5,123.5 162.5,117.5 Z"/></g>
<g><path style="opacity:1" fill="#adabaa" d="M 298.5,119.5 C 299.598,120.601 299.765,121.934 299,123.5C 297.165,126.913 295.332,130.246 293.5,133.5C 293.167,132.833 292.833,132.167 292.5,131.5C 294.504,127.417 296.504,123.417 298.5,119.5 Z"/></g>
<g><path style="opacity:1" fill="#b3b1b3" d="M 221.5,119.5 C 223.456,120.122 224.789,121.455 225.5,123.5C 226.203,126.441 227.203,129.275 228.5,132C 228.167,132.5 227.833,133 227.5,133.5C 225.04,129.037 223.04,124.37 221.5,119.5 Z"/></g>
<g><path style="opacity:1" fill="#d3bbac" d="M 174.5,117.5 C 175.833,123.5 175.833,129.5 174.5,135.5C 173.167,129.5 173.167,123.5 174.5,117.5 Z"/></g>
<g><path style="opacity:1" fill="#949595" d="M 114.5,119.5 C 115.376,119.369 116.043,119.702 116.5,120.5C 114.619,126.443 111.619,131.61 107.5,136C 94.1708,136.5 80.8375,136.667 67.5,136.5C 67.5,135.5 67.5,134.5 67.5,133.5C 81.1829,133.833 94.8496,133.499 108.5,132.5C 110.886,128.341 112.886,124.008 114.5,119.5 Z"/></g>
<g><path style="opacity:1" fill="#7c89a2" d="M 174.5,117.5 C 173.167,123.5 173.167,129.5 174.5,135.5C 173.184,132.913 172.517,129.913 172.5,126.5C 172.517,123.087 173.184,120.087 174.5,117.5 Z"/></g>
<g><path style="opacity:1" fill="#9d9d9b" d="M 199.5,133.5 C 202.833,133.5 206.167,133.5 209.5,133.5C 209.5,134.5 209.5,135.5 209.5,136.5C 206.167,136.5 202.833,136.5 199.5,136.5C 199.5,135.5 199.5,134.5 199.5,133.5 Z"/></g>
<g><path style="opacity:1" fill="#b4b4b4" d="M 272.5,133.5 C 279.255,132.877 285.588,133.544 291.5,135.5C 284.825,135.666 278.158,135.5 271.5,135C 272.056,134.617 272.389,134.117 272.5,133.5 Z"/></g>
<g><path style="opacity:1" fill="#615e5e" d="M 240.5,133.5 C 241.514,134.765 243.014,135.431 245,135.5C 246.986,135.431 248.486,134.765 249.5,133.5C 251.549,133.706 251.883,134.539 250.5,136C 246.848,136.499 243.182,136.665 239.5,136.5C 239.263,135.209 239.596,134.209 240.5,133.5 Z"/></g>
<g><path style="opacity:1" fill="#b8b2b9" d="M 240.5,133.5 C 243.5,133.5 246.5,133.5 249.5,133.5C 248.486,134.765 246.986,135.431 245,135.5C 243.014,135.431 241.514,134.765 240.5,133.5 Z"/></g>
<g><path style="opacity:1" fill="#616160" d="M 272.5,133.5 C 272.389,134.117 272.056,134.617 271.5,135C 278.158,135.5 284.825,135.666 291.5,135.5C 284.687,136.491 277.687,136.825 270.5,136.5C 270.285,134.821 270.952,133.821 272.5,133.5 Z"/></g>
<g><path style="opacity:1" fill="#a8afaf" d="M 212.5,140.5 C 216.565,141.581 218.231,144.248 217.5,148.5C 218.237,152.889 216.57,155.389 212.5,156C 215.128,150.803 215.128,145.636 212.5,140.5 Z"/></g>
<g><path style="opacity:1" fill="#a29393" d="M 234.5,138.5 C 235.816,141.087 236.483,144.087 236.5,147.5C 236.167,150.5 235.833,153.5 235.5,156.5C 234.504,150.537 234.171,144.537 234.5,138.5 Z"/></g>
<g><path style="opacity:1" fill="#a6b7b9" d="M 134.5,141.5 C 135.497,141.47 136.164,141.97 136.5,143C 134.401,147.139 132.401,151.305 130.5,155.5C 130.167,154.833 129.833,154.167 129.5,153.5C 131.735,149.702 133.401,145.702 134.5,141.5 Z"/></g>
<g><path style="opacity:1" fill="#a6a7a5" d="M 43.5,141.5 C 44.4972,141.47 45.1639,141.97 45.5,143C 43.4006,147.139 41.4006,151.305 39.5,155.5C 38.3691,153.926 38.2025,152.259 39,150.5C 40.5133,147.473 42.0133,144.473 43.5,141.5 Z"/></g>
<g><path style="opacity:1" fill="#a2a1a2" d="M 63.5,141.5 C 64.2389,141.369 64.9056,141.536 65.5,142C 64.3644,146.915 62.3644,151.415 59.5,155.5C 59.1667,155.167 58.8333,154.833 58.5,154.5C 59.7186,149.928 61.3852,145.595 63.5,141.5 Z"/></g>
<g><path style="opacity:1" fill="#aba4a2" d="M 162.5,138.5 C 163.5,138.5 164.5,138.5 165.5,138.5C 165.5,144.5 165.5,150.5 165.5,156.5C 164.5,156.5 163.5,156.5 162.5,156.5C 162.5,150.5 162.5,144.5 162.5,138.5 Z"/></g>
<g><path style="opacity:1" fill="#979a98" d="M 114.5,141.5 C 115.239,141.369 115.906,141.536 116.5,142C 115.475,147.089 113.308,151.589 110,155.5C 109.5,155.167 109,154.833 108.5,154.5C 110.651,150.209 112.651,145.876 114.5,141.5 Z"/></g>
<g><path style="opacity:1" fill="#b5b4bb" d="M 193.5,139.5 C 194.814,141.915 195.481,144.748 195.5,148C 195.167,150.833 194.833,153.667 194.5,156.5C 193.505,150.872 193.171,145.206 193.5,139.5 Z"/></g>
<g><path style="opacity:1" fill="#695758" d="M 265.5,139.5 C 265.56,138.957 265.893,138.624 266.5,138.5C 267.817,144.654 267.817,150.654 266.5,156.5C 266.822,150.642 266.489,144.975 265.5,139.5 Z"/></g>
<g><path style="opacity:1" fill="#cecbc8" d="M 175.5,139.5 C 175.822,145.358 175.489,151.025 174.5,156.5C 173.836,153.854 173.502,151.021 173.5,148C 173.519,144.748 174.186,141.915 175.5,139.5 Z"/></g>
<g><path style="opacity:1" fill="#afa2af" d="M 142.5,139.5 C 143.814,141.915 144.481,144.748 144.5,148C 144.167,150.833 143.833,153.667 143.5,156.5C 142.505,150.872 142.171,145.206 142.5,139.5 Z"/></g>
<g><path style="opacity:1" fill="#b79aab" d="M 244.5,139.5 C 245.814,141.915 246.481,144.748 246.5,148C 246.167,150.833 245.833,153.667 245.5,156.5C 244.505,150.872 244.171,145.206 244.5,139.5 Z"/></g>
<g><path style="opacity:1" fill="#748198" d="M 175.5,139.5 C 174.186,141.915 173.519,144.748 173.5,148C 173.502,151.021 173.836,153.854 174.5,156.5C 174.44,157.043 174.107,157.376 173.5,157.5C 172.504,151.202 172.17,144.868 172.5,138.5C 173.791,138.263 174.791,138.596 175.5,139.5 Z"/></g>
<g><path style="opacity:1" fill="#d1d1da" d="M 265.5,139.5 C 266.489,144.975 266.822,150.642 266.5,156.5C 265.186,154.085 264.519,151.252 264.5,148C 264.502,144.979 264.836,142.146 265.5,139.5 Z"/></g>
<g><path style="opacity:1" fill="#8a8a88" d="M 67.5,155.5 C 70.8984,155.18 74.2317,155.513 77.5,156.5C 75.8333,156.833 74.1667,157.167 72.5,157.5C 70.3603,157.444 68.6936,156.777 67.5,155.5 Z"/></g>
<g><path style="opacity:1" fill="#818182" d="M 198.5,155.5 C 202.555,155.176 206.555,155.509 210.5,156.5C 208.5,156.833 206.5,157.167 204.5,157.5C 202.048,157.461 200.048,156.794 198.5,155.5 Z"/></g>
<g><path style="opacity:1" fill="#9ea4a2" d="M 33.5,162.5 C 34.1853,167.621 32.6853,172.288 29,176.5C 29.0562,171.383 30.5562,166.717 33.5,162.5 Z"/></g>
<g><path style="opacity:1" fill="#cebeaf" d="M 174.5,160.5 C 175.49,166.31 175.823,172.31 175.5,178.5C 174.883,178.389 174.383,178.056 174,177.5C 173.215,171.751 173.382,166.084 174.5,160.5 Z"/></g>
<g><path style="opacity:1" fill="#b392a0" d="M 244.5,160.5 C 245.818,163.258 246.485,166.424 246.5,170C 246.167,173.167 245.833,176.333 245.5,179.5C 244.504,173.202 244.17,166.868 244.5,160.5 Z"/></g>
<g><path style="opacity:1" fill="#acafaf" d="M 225.5,165.5 C 226.376,165.369 227.043,165.702 227.5,166.5C 226.617,167.548 225.95,168.715 225.5,170C 227.029,171.582 227.529,173.415 227,175.5C 225.22,173.707 223.387,172.04 221.5,170.5C 222.857,168.814 224.19,167.148 225.5,165.5 Z"/></g>
<g><path style="opacity:1" fill="#a6a5a3" d="M 73.5,162.5 C 74.675,162.281 75.675,162.614 76.5,163.5C 73.457,167.294 71.7903,171.628 71.5,176.5C 70.325,176.719 69.325,176.386 68.5,175.5C 70.9999,171.498 72.6666,167.165 73.5,162.5 Z"/></g>
<g><path style="opacity:1" fill="#625554" d="M 266.5,160.5 C 267.49,166.645 267.823,172.978 267.5,179.5C 266.209,179.737 265.209,179.404 264.5,178.5C 266.453,172.926 267.12,166.926 266.5,160.5 Z"/></g>
<g><path style="opacity:1" fill="#b3acc4" d="M 266.5,160.5 C 267.12,166.926 266.453,172.926 264.5,178.5C 263.88,172.074 264.547,166.074 266.5,160.5 Z"/></g>
<g><path style="opacity:1" fill="#aaa9a9" d="M 104.5,162.5 C 105.376,162.369 106.043,162.702 106.5,163.5C 104.609,168.031 102.442,172.364 100,176.5C 99.5,176.167 99,175.833 98.5,175.5C 99.472,173.695 100.639,172.028 102,170.5C 102.272,167.618 103.106,164.951 104.5,162.5 Z"/></g>
<g><path style="opacity:1" fill="#a59d9d" d="M 162.5,160.5 C 163.5,160.5 164.5,160.5 165.5,160.5C 165.5,166.833 165.5,173.167 165.5,179.5C 164.5,179.5 163.5,179.5 162.5,179.5C 162.5,173.167 162.5,166.833 162.5,160.5 Z"/></g>
<g><path style="opacity:1" fill="#7a8494" d="M 174.5,160.5 C 173.382,166.084 173.215,171.751 174,177.5C 174.383,178.056 174.883,178.389 175.5,178.5C 174.791,179.404 173.791,179.737 172.5,179.5C 171.877,172.745 172.544,166.412 174.5,160.5 Z"/></g>
<g><path style="opacity:1" fill="#b9b7b6" d="M 199.5,176.5 C 202.833,176.5 206.167,176.5 209.5,176.5C 209.5,177.5 209.5,178.5 209.5,179.5C 206.482,179.665 203.482,179.498 200.5,179C 199.748,178.329 199.414,177.496 199.5,176.5 Z"/></g>
<g><path style="opacity:1" fill="#7b7d80" d="M 47.5,176.5 C 50.2575,177.818 53.4242,178.485 57,178.5C 60.5758,178.485 63.7425,177.818 66.5,176.5C 67.404,177.209 67.7373,178.209 67.5,179.5C 60.5,179.5 53.5,179.5 46.5,179.5C 46.2627,178.209 46.596,177.209 47.5,176.5 Z"/></g>
<g><path style="opacity:1" fill="#cbcdcf" d="M 47.5,176.5 C 53.8333,176.5 60.1667,176.5 66.5,176.5C 63.7425,177.818 60.5758,178.485 57,178.5C 53.4242,178.485 50.2575,177.818 47.5,176.5 Z"/></g>
<g><path style="opacity:1" fill="#7c7a7b" d="M 118.5,176.5 C 123.119,177.828 128.119,178.494 133.5,178.5C 138.881,178.494 143.881,177.828 148.5,176.5C 149.404,177.209 149.737,178.209 149.5,179.5C 138.833,179.5 128.167,179.5 117.5,179.5C 117.263,178.209 117.596,177.209 118.5,176.5 Z"/></g>
<g><path style="opacity:1" fill="#cccacc" d="M 118.5,176.5 C 128.5,176.5 138.5,176.5 148.5,176.5C 143.881,177.828 138.881,178.494 133.5,178.5C 128.119,178.494 123.119,177.828 118.5,176.5 Z"/></g>
<g><path style="opacity:1" fill="#af9d93" d="M 183.5,181.5 C 184.117,181.611 184.617,181.944 185,182.5C 185.83,188.528 185.664,194.528 184.5,200.5C 183.504,194.202 183.17,187.868 183.5,181.5 Z"/></g>
<g><path style="opacity:1" fill="#a7a7a6" d="M 114.5,184.5 C 115.239,184.369 115.906,184.536 116.5,185C 115.37,189.891 113.37,194.391 110.5,198.5C 106.393,200.691 102.06,201.024 97.5,199.5C 101.167,198.833 104.833,198.167 108.5,197.5C 110.651,193.209 112.651,188.876 114.5,184.5 Z"/></g>
<g><path style="opacity:1" fill="#a7a7a8" d="M 221.5,185.5 C 222.793,184.355 223.959,184.689 225,186.5C 225.902,190.816 227.402,194.816 229.5,198.5C 228.5,198.5 227.5,198.5 226.5,198.5C 225.254,193.95 223.587,189.616 221.5,185.5 Z"/></g>
<g><path style="opacity:1" fill="#9b9a9f" d="M 251.5,198.5 C 252.419,193.236 254.586,188.57 258,184.5C 257.338,188.483 256.338,192.483 255,196.5C 254.184,197.823 253.017,198.489 251.5,198.5 Z"/></g>
<g><path style="opacity:1" fill="#b2b1b1" d="M 201.5,184.5 C 202.496,184.414 203.329,184.748 204,185.5C 204.759,188.785 206.092,191.785 208,194.5C 208.781,195.944 208.614,197.277 207.5,198.5C 205.296,193.879 203.296,189.213 201.5,184.5 Z"/></g>
<g><path style="opacity:1" fill="#a5979a" d="M 234.5,182.5 C 235.117,182.611 235.617,182.944 236,183.5C 236.83,189.196 236.663,194.863 235.5,200.5C 234.504,194.537 234.171,188.537 234.5,182.5 Z"/></g>
<g><path style="opacity:1" fill="#aba9a5" d="M 43.5,184.5 C 44.4972,184.47 45.1639,184.97 45.5,186C 43.4086,190.159 41.242,194.325 39,198.5C 38.3333,196.833 38.3333,195.167 39,193.5C 40.7869,190.637 42.2869,187.637 43.5,184.5 Z"/></g>
<g><path style="opacity:1" fill="#afafae" d="M 22.5,184.5 C 23.552,184.351 24.552,184.517 25.5,185C 23.0586,189.528 20.7252,194.028 18.5,198.5C 18.1667,198 17.8333,197.5 17.5,197C 19.5765,193.011 21.2432,188.845 22.5,184.5 Z"/></g>
<g><path style="opacity:1" fill="#9d9c9c" d="M 94.5,184.5 C 95.5862,184.62 96.2528,185.287 96.5,186.5C 94.3352,190.414 92.1685,194.414 90,198.5C 89.9856,193.375 91.4856,188.709 94.5,184.5 Z"/></g>
<g><path style="opacity:1" fill="#a3a0a0" d="M 142.5,181.5 C 143.818,184.258 144.485,187.424 144.5,191C 144.167,194.167 143.833,197.333 143.5,200.5C 142.504,194.202 142.17,187.868 142.5,181.5 Z"/></g>
<g><path style="opacity:1" fill="#a39fa2" d="M 162.5,181.5 C 163.5,181.5 164.5,181.5 165.5,181.5C 165.5,187.833 165.5,194.167 165.5,200.5C 164.5,200.5 163.5,200.5 162.5,200.5C 162.5,194.167 162.5,187.833 162.5,181.5 Z"/></g>
<g><path style="opacity:1" fill="#979798" d="M 26.5,198.5 C 30.226,198.177 33.8927,198.511 37.5,199.5C 35.6667,199.833 33.8333,200.167 32,200.5C 29.7047,200.453 27.8714,199.787 26.5,198.5 Z"/></g>
<g><path style="opacity:1" fill="#979796" d="M 148.5,198.5 C 152.226,198.177 155.893,198.511 159.5,199.5C 157.667,199.833 155.833,200.167 154,200.5C 151.705,200.453 149.871,199.787 148.5,198.5 Z"/></g>
<g><path style="opacity:1" fill="#9a9b9a" d="M 168.5,198.5 C 172.226,198.177 175.893,198.511 179.5,199.5C 177.667,199.833 175.833,200.167 174,200.5C 171.705,200.453 169.871,199.787 168.5,198.5 Z"/></g>
<g><path style="opacity:1" fill="#959695" d="M 209.5,198.5 C 213.226,198.177 216.893,198.511 220.5,199.5C 218.667,199.833 216.833,200.167 215,200.5C 212.705,200.453 210.871,199.787 209.5,198.5 Z"/></g>
<g><path style="opacity:1" fill="#919191" d="M 251.5,198.5 C 249.952,199.794 247.952,200.461 245.5,200.5C 243.5,200.167 241.5,199.833 239.5,199.5C 243.445,198.509 247.445,198.176 251.5,198.5 Z"/></g>
</svg>
