<?xml version="1.0" encoding="UTF-8"?>
<!DOCTYPE svg PUBLIC "-//W3C//DTD SVG 1.1//EN" "http://www.w3.org/Graphics/SVG/1.1/DTD/svg11.dtd">
<svg xmlns="http://www.w3.org/2000/svg" version="1.1" width="71px" height="59px" style="shape-rendering:geometricPrecision; text-rendering:geometricPrecision; image-rendering:optimizeQuality; fill-rule:evenodd; clip-rule:evenodd" xmlns:xlink="http://www.w3.org/1999/xlink">
<g><path style="opacity:0.004" fill="#000000" d="M 1.5,-0.5 C 2.5,-0.5 3.5,-0.5 4.5,-0.5C 3.83333,1.5 2.5,2.83333 0.5,3.5C 0.432553,2.04125 0.765886,0.707917 1.5,-0.5 Z"/></g>
<g><path style="opacity:0.008" fill="#ff8c8a" d="M 66.5,-0.5 C 67.8333,-0.5 69.1667,-0.5 70.5,-0.5C 70.5,0.833333 70.5,2.16667 70.5,3.5C 68.8333,2.5 67.5,1.16667 66.5,-0.5 Z"/></g>
<g><path style="opacity:0.008" fill="#f67b7b" d="M 8.5,2.5 C 9.23891,2.36899 9.90558,2.53566 10.5,3C 9.92206,4.41704 8.92206,5.25038 7.5,5.5C 6.28485,4.22104 6.61818,3.22104 8.5,2.5 Z"/></g>
<g><path style="opacity:0.02" fill="#e7d0d1" d="M 23.5,-0.5 C 37.8333,-0.5 52.1667,-0.5 66.5,-0.5C 67.5,1.16667 68.8333,2.5 70.5,3.5C 70.5,14.1667 70.5,24.8333 70.5,35.5C 69.213,36.7683 68.213,36.435 67.5,34.5C 65.4513,37.8822 62.7846,40.5488 59.5,42.5C 57.6916,42.4914 56.0249,42.9914 54.5,44C 55.4158,44.2784 56.0825,44.7784 56.5,45.5C 54.7839,45.6287 53.1172,45.962 51.5,46.5C 53.9404,42.8515 55.6071,38.8515 56.5,34.5C 62.7971,32.0365 66.7971,27.5365 68.5,21C 67.322,14.818 63.6553,10.818 57.5,9C 39.6712,4.37965 23.0046,6.87965 7.5,16.5C 7.5,15.1667 7.5,13.8333 7.5,12.5C 10.8092,9.84095 14.4758,7.67428 18.5,6C 17.5,5.66667 16.5,5.33333 15.5,5C 18.301,3.36625 20.9677,1.53292 23.5,-0.5 Z"/></g>
<g><path style="opacity:0.02" fill="#cbcac9" d="M 10.5,-0.5 C 14.8333,-0.5 19.1667,-0.5 23.5,-0.5C 20.9677,1.53292 18.301,3.36625 15.5,5C 16.5,5.33333 17.5,5.66667 18.5,6C 14.4758,7.67428 10.8092,9.84095 7.5,12.5C 6.52717,11.2086 5.52717,11.2086 4.5,12.5C 3.70245,12.0431 3.36912,11.3764 3.5,10.5C 4.80299,8.85774 6.13632,7.19107 7.5,5.5C 8.92206,5.25038 9.92206,4.41704 10.5,3C 9.90558,2.53566 9.23891,2.36899 8.5,2.5C 9.16667,1.5 9.83333,0.5 10.5,-0.5 Z"/></g>
<g><path style="opacity:1" fill="#110f11" d="M 47.5,10.5 C 51.8064,11.2505 56.1398,12.4171 60.5,14C 66.0304,19.3128 65.6971,24.3128 59.5,29C 56.6089,30.2742 53.9422,31.7742 51.5,33.5C 46.9484,34.0566 42.6151,35.0566 38.5,36.5C 29.653,37.1261 20.9863,36.2928 12.5,34C 7.24278,31.9893 5.24278,28.156 6.5,22.5C 18.3739,12.8803 32.0406,8.88034 47.5,10.5 Z"/></g>
<g><path style="opacity:1" fill="#110e11" d="M 40.5,12.5 C 42.9926,13.7465 45.4926,13.7465 48,12.5C 50.3504,13.5042 52.6837,14.5042 55,15.5C 59.3943,24.6908 56.561,30.5242 46.5,33C 40.3252,33.7792 34.1585,34.6125 28,35.5C 14.5657,32.336 13.0657,26.1693 23.5,17C 29.2592,15.4217 34.9259,13.9217 40.5,12.5 Z"/></g>
<g><path style="opacity:0.841" fill="#aaa7a8" d="M 56.5,34.5 C 56.6309,33.6236 56.2975,32.9569 55.5,32.5C 54.2638,33.2458 52.9305,33.5792 51.5,33.5C 53.9422,31.7742 56.6089,30.2742 59.5,29C 65.6971,24.3128 66.0304,19.3128 60.5,14C 56.1398,12.4171 51.8064,11.2505 47.5,10.5C 48.8734,10.6567 50.2068,10.49 51.5,10C 36.388,6.92002 22.388,9.58669 9.5,18C 7.85883,19.129 6.85883,20.629 6.5,22.5C 5.24278,28.156 7.24278,31.9893 12.5,34C 20.9863,36.2928 29.653,37.1261 38.5,36.5C 32.2645,36.8526 26.2645,37.8526 20.5,39.5C 15.2439,39.3568 10.5772,37.6901 6.5,34.5C 3.75028,31.6673 2.08361,28.334 1.5,24.5C 1.49136,22.6916 1.99136,21.0249 3,19.5C 3.33333,20.1667 3.66667,20.8333 4,21.5C 4.66945,19.4098 5.83612,17.7432 7.5,16.5C 23.0046,6.87965 39.6712,4.37965 57.5,9C 63.6553,10.818 67.322,14.818 68.5,21C 66.7971,27.5365 62.7971,32.0365 56.5,34.5 Z"/></g>
<g><path style="opacity:1" fill="#e3e2e2" d="M 47.5,10.5 C 32.0406,8.88034 18.3739,12.8803 6.5,22.5C 6.85883,20.629 7.85883,19.129 9.5,18C 22.388,9.58669 36.388,6.92002 51.5,10C 50.2068,10.49 48.8734,10.6567 47.5,10.5 Z"/></g>
<g><path style="opacity:0.006" fill="#f9f4f6" d="M 4.5,-0.5 C 6.5,-0.5 8.5,-0.5 10.5,-0.5C 9.83333,0.5 9.16667,1.5 8.5,2.5C 6.61818,3.22104 6.28485,4.22104 7.5,5.5C 6.13632,7.19107 4.80299,8.85774 3.5,10.5C 3.36912,11.3764 3.70245,12.0431 4.5,12.5C 5.52717,11.2086 6.52717,11.2086 7.5,12.5C 7.5,13.8333 7.5,15.1667 7.5,16.5C 5.83612,17.7432 4.66945,19.4098 4,21.5C 3.66667,20.8333 3.33333,20.1667 3,19.5C 1.99136,21.0249 1.49136,22.6916 1.5,24.5C 1.03157,29.3697 1.69824,34.0364 3.5,38.5C 2.64462,39.293 1.81129,38.9597 1,37.5C 0.2784,39.6614 0.945067,41.328 3,42.5C 3.33333,41.8333 3.66667,41.1667 4,40.5C 4.7083,41.3805 5.54163,42.0472 6.5,42.5C 6.93822,42.4346 7.27155,42.6012 7.5,43C 6.71065,46.0969 5.54399,46.2636 4,43.5C 3.53566,44.0944 3.36899,44.7611 3.5,45.5C 2.54163,45.0472 1.7083,44.3805 1,43.5C 0.96214,47.3192 2.79547,49.9858 6.5,51.5C 6.69408,53.9118 8.02741,54.9118 10.5,54.5C 13.0069,54.3678 13.6736,53.3678 12.5,51.5C 14.4233,51.795 16.0899,52.6283 17.5,54C 15.3263,55.264 15.6596,56.4307 18.5,57.5C 20.2662,56.9091 21.9328,56.0758 23.5,55C 22.8333,54.6667 22.1667,54.3333 21.5,54C 23.4913,53.6264 25.158,52.793 26.5,51.5C 36.588,59.1979 44.9213,57.5312 51.5,46.5C 53.1172,45.962 54.7839,45.6287 56.5,45.5C 56.0825,44.7784 55.4158,44.2784 54.5,44C 56.0249,42.9914 57.6916,42.4914 59.5,42.5C 62.999,42.259 63.3323,43.0924 60.5,45C 61.1667,45.3333 61.8333,45.6667 62.5,46C 61.7552,48.725 62.7552,48.725 65.5,46C 64.5494,45.2825 64.3828,44.4491 65,43.5C 66.7038,41.6266 68.5372,39.9599 70.5,38.5C 70.5,39.5 70.5,40.5 70.5,41.5C 66.4844,43.7132 66.4844,44.7132 70.5,44.5C 70.5,45.8333 70.5,47.1667 70.5,48.5C 68.3812,48.4677 67.0478,49.4677 66.5,51.5C 65.8333,51.5 65.1667,51.5 64.5,51.5C 62.3812,51.4677 61.0478,52.4677 60.5,54.5C 59.8333,54.5 59.1667,54.5 58.5,54.5C 57.5,54.5 56.5,54.5 55.5,54.5C 54.5,54.5 53.5,54.5 52.5,54.5C 50.3812,54.4677 49.0478,55.4677 48.5,57.5C 44.6286,57.185 40.9619,57.5184 37.5,58.5C 27.1667,58.5 16.8333,58.5 6.5,58.5C 6.15829,57.6618 5.49162,57.3284 4.5,57.5C 3.03394,55.2837 1.36727,53.2837 -0.5,51.5C -0.5,36.1667 -0.5,20.8333 -0.5,5.5C 0.338246,5.15829 0.67158,4.49162 0.5,3.5C 2.5,2.83333 3.83333,1.5 4.5,-0.5 Z"/></g>
<g><path style="opacity:0.008" fill="#fe807f" d="M 3.5,10.5 C 0.700437,13.3113 0.0337699,12.8113 1.5,9C 2.81602,8.47189 3.48269,8.97189 3.5,10.5 Z"/></g>
<g><path style="opacity:1" fill="#bab6cc" d="M 51.5,33.5 C 47.5549,35.6262 43.2216,36.6262 38.5,36.5C 42.6151,35.0566 46.9484,34.0566 51.5,33.5 Z"/></g>
<g><path style="opacity:0.02" fill="#f6bfd8" d="M 1.5,24.5 C 2.08361,28.334 3.75028,31.6673 6.5,34.5C 6.96877,37.3387 6.96877,40.0054 6.5,42.5C 5.54163,42.0472 4.7083,41.3805 4,40.5C 3.66667,41.1667 3.33333,41.8333 3,42.5C 0.945067,41.328 0.2784,39.6614 1,37.5C 1.81129,38.9597 2.64462,39.293 3.5,38.5C 1.69824,34.0364 1.03157,29.3697 1.5,24.5 Z"/></g>
<g><path style="opacity:0.012" fill="#fca9aa" d="M 70.5,35.5 C 70.5,36.5 70.5,37.5 70.5,38.5C 68.5372,39.9599 66.7038,41.6266 65,43.5C 64.3828,44.4491 64.5494,45.2825 65.5,46C 62.7552,48.725 61.7552,48.725 62.5,46C 61.8333,45.6667 61.1667,45.3333 60.5,45C 63.3323,43.0924 62.999,42.259 59.5,42.5C 62.7846,40.5488 65.4513,37.8822 67.5,34.5C 68.213,36.435 69.213,36.7683 70.5,35.5 Z"/></g>
<g><path style="opacity:0.027" fill="#dcc7c9" d="M 6.5,34.5 C 10.5772,37.6901 15.2439,39.3568 20.5,39.5C 21.5548,44.0139 23.5548,48.0139 26.5,51.5C 25.158,52.793 23.4913,53.6264 21.5,54C 22.1667,54.3333 22.8333,54.6667 23.5,55C 21.9328,56.0758 20.2662,56.9091 18.5,57.5C 15.6596,56.4307 15.3263,55.264 17.5,54C 16.0899,52.6283 14.4233,51.795 12.5,51.5C 11.448,51.3505 10.448,51.5172 9.5,52C 10.2524,52.6708 10.5858,53.5041 10.5,54.5C 8.02741,54.9118 6.69408,53.9118 6.5,51.5C 7.23891,51.631 7.90558,51.4643 8.5,51C 6.65504,49.322 4.98838,47.4887 3.5,45.5C 3.36899,44.7611 3.53566,44.0944 4,43.5C 5.54399,46.2636 6.71065,46.0969 7.5,43C 7.27155,42.6012 6.93822,42.4346 6.5,42.5C 6.96877,40.0054 6.96877,37.3387 6.5,34.5 Z"/></g>
<g><path style="opacity:0.935" fill="#6e5cfc" d="M 56.5,34.5 C 55.6071,38.8515 53.9404,42.8515 51.5,46.5C 44.9213,57.5312 36.588,59.1979 26.5,51.5C 23.5548,48.0139 21.5548,44.0139 20.5,39.5C 26.2645,37.8526 32.2645,36.8526 38.5,36.5C 43.2216,36.6262 47.5549,35.6262 51.5,33.5C 52.9305,33.5792 54.2638,33.2458 55.5,32.5C 56.2975,32.9569 56.6309,33.6236 56.5,34.5 Z"/></g>
<g><path style="opacity:0.008" fill="#8e8080" d="M 70.5,41.5 C 70.5,42.5 70.5,43.5 70.5,44.5C 66.4844,44.7132 66.4844,43.7132 70.5,41.5 Z"/></g>
<g><path style="opacity:1" fill="#f47dad" d="M 49.5,41.5 C 50.4646,42.7211 50.298,44.0544 49,45.5C 47.8333,46.6667 46.6667,47.8333 45.5,49C 28.889,49.2248 28.5556,47.8915 44.5,45C 46.5844,44.3028 48.2511,43.1361 49.5,41.5 Z"/></g>
<g><path style="opacity:0.008" fill="#fe807f" d="M 3.5,45.5 C 4.98838,47.4887 6.65504,49.322 8.5,51C 7.90558,51.4643 7.23891,51.631 6.5,51.5C 2.79547,49.9858 0.96214,47.3192 1,43.5C 1.7083,44.3805 2.54163,45.0472 3.5,45.5 Z"/></g>
<g><path style="opacity:0.008" fill="#ff9190" d="M 56.5,45.5 C 57.552,45.3505 58.552,45.5172 59.5,46C 58.1667,47 58.1667,48 59.5,49C 58.328,51.0549 56.6614,51.7216 54.5,51C 57.2764,49.2213 56.9431,48.2213 53.5,48C 54.9423,47.6232 55.9423,46.7899 56.5,45.5 Z"/></g>
<g><path style="opacity:0.004" fill="#fe0000" d="M 70.5,48.5 C 70.5,49.1667 70.5,49.8333 70.5,50.5C 69.2921,51.2341 67.9587,51.5674 66.5,51.5C 67.0478,49.4677 68.3812,48.4677 70.5,48.5 Z"/></g>
<g><path style="opacity:0.004" fill="#000000" d="M -0.5,51.5 C 1.36727,53.2837 3.03394,55.2837 4.5,57.5C 2.04112,57.69 0.374458,56.69 -0.5,54.5C -0.5,53.5 -0.5,52.5 -0.5,51.5 Z"/></g>
<g><path style="opacity:0.008" fill="#f280ff" d="M 12.5,51.5 C 13.6736,53.3678 13.0069,54.3678 10.5,54.5C 10.5858,53.5041 10.2524,52.6708 9.5,52C 10.448,51.5172 11.448,51.3505 12.5,51.5 Z"/></g>
<g><path style="opacity:0.004" fill="#fe0000" d="M 64.5,51.5 C 64.3059,53.9118 62.9726,54.9118 60.5,54.5C 61.0478,52.4677 62.3812,51.4677 64.5,51.5 Z"/></g>
<g><path style="opacity:0.004" fill="#fe00ff" d="M 52.5,54.5 C 52.4431,55.609 52.1098,56.609 51.5,57.5C 50.5,57.5 49.5,57.5 48.5,57.5C 49.0478,55.4677 50.3812,54.4677 52.5,54.5 Z"/></g>
<g><path style="opacity:0.004" fill="#fe0000" d="M 52.5,54.5 C 53.5,54.5 54.5,54.5 55.5,54.5C 55.4431,55.609 55.1098,56.609 54.5,57.5C 53.5,57.5 52.5,57.5 51.5,57.5C 52.1098,56.609 52.4431,55.609 52.5,54.5 Z"/></g>
<g><path style="opacity:0.004" fill="#000000" d="M 55.5,54.5 C 56.5,54.5 57.5,54.5 58.5,54.5C 58.3059,56.9118 56.9726,57.9118 54.5,57.5C 55.1098,56.609 55.4431,55.609 55.5,54.5 Z"/></g>
</svg>
