<?xml version="1.0" encoding="UTF-8"?>
<!DOCTYPE svg PUBLIC "-//W3C//DTD SVG 1.1//EN" "http://www.w3.org/Graphics/SVG/1.1/DTD/svg11.dtd">
<svg xmlns="http://www.w3.org/2000/svg" version="1.1" width="775px" height="775px" style="shape-rendering:geometricPrecision; text-rendering:geometricPrecision; image-rendering:optimizeQuality; fill-rule:evenodd; clip-rule:evenodd" xmlns:xlink="http://www.w3.org/1999/xlink">
<g><path style="opacity:1" fill="#080408" d="M 362.5,-0.5 C 378.833,-0.5 395.167,-0.5 411.5,-0.5C 415.833,0.166667 420.167,0.833333 424.5,1.5C 399.167,1.5 373.833,1.5 348.5,1.5C 353.167,0.833333 357.833,0.166667 362.5,-0.5 Z"/></g>
<g><path style="opacity:1" fill="#071224" d="M 348.5,1.5 C 373.833,1.5 399.167,1.5 424.5,1.5C 547.982,15.6223 644.148,73.9556 713,176.5C 749.02,233.394 769.52,295.394 774.5,362.5C 774.5,378.833 774.5,395.167 774.5,411.5C 763.961,531.102 711.294,627.269 616.5,700C 555.262,744.137 486.928,768.97 411.5,774.5C 395.167,774.5 378.833,774.5 362.5,774.5C 242.898,763.961 146.731,711.294 74,616.5C 29.863,555.262 5.02967,486.928 -0.5,411.5C -0.5,395.167 -0.5,378.833 -0.5,362.5C 10.0389,242.898 62.7055,146.731 157.5,74C 214.445,32.6221 278.112,8.45541 348.5,1.5 Z"/></g>
<g><path style="opacity:1" fill="#0a111e" d="M 520.5,189.5 C 471.853,190.476 423.186,190.81 374.5,190.5C 375.263,189.732 376.263,189.232 377.5,189C 376.484,188.481 375.818,187.647 375.5,186.5C 376.489,184.506 377.489,182.506 378.5,180.5C 383.182,179.804 387.682,179.804 392,180.5C 393.907,178.416 395.573,178.416 397,180.5C 397.626,178.009 398.459,178.009 399.5,180.5C 407.813,180.088 415.98,180.088 424,180.5C 425.907,178.416 427.573,178.416 429,180.5C 429.626,178.009 430.459,178.009 431.5,180.5C 439.813,180.088 447.98,180.088 456,180.5C 457.907,178.416 459.573,178.416 461,180.5C 461.626,178.009 462.459,178.009 463.5,180.5C 471.813,180.088 479.98,180.088 488,180.5C 489.907,178.416 491.573,178.416 493,180.5C 493.626,178.009 494.459,178.009 495.5,180.5C 497.278,180.431 499.111,180.097 501,179.5C 501.689,180.357 502.522,181.023 503.5,181.5C 503.489,180.559 503.989,179.892 505,179.5C 505.772,179.645 506.439,179.978 507,180.5C 509.405,179.726 511.905,179.226 514.5,179C 512.833,178.667 511.167,178.333 509.5,178C 510.253,176.513 511.086,176.346 512,177.5C 512.333,176.5 512.667,175.5 513,174.5C 516.496,177.939 516.329,181.106 512.5,184C 514.833,184.333 517.167,184.667 519.5,185C 520.833,185.667 520.833,186.333 519.5,187C 521.619,187.342 521.953,188.175 520.5,189.5 Z"/></g>
<g><path style="opacity:1" fill="#171e2b" d="M 520.5,189.5 C 520.328,190.492 520.662,191.158 521.5,191.5C 521.433,192.959 521.766,194.292 522.5,195.5C 520.685,194.37 518.685,193.704 516.5,193.5C 515.737,192.732 514.737,192.232 513.5,192C 465.834,191.5 418.168,191.333 370.5,191.5C 371.568,190.566 372.901,190.232 374.5,190.5C 423.186,190.81 471.853,190.476 520.5,189.5 Z"/></g>
<g><path style="opacity:1" fill="#565d69" d="M 370.5,191.5 C 418.168,191.333 465.834,191.5 513.5,192C 514.737,192.232 515.737,192.732 516.5,193.5C 515.167,193.5 513.833,193.5 512.5,193.5C 462.668,192.335 412.668,192.168 362.5,193C 361.663,194.011 361.33,195.178 361.5,196.5C 361.5,197.833 361.5,199.167 361.5,200.5C 360.883,200.611 360.383,200.944 360,201.5C 359.814,204.036 359.314,206.369 358.5,208.5C 358.5,207.5 358.5,206.5 358.5,205.5C 359.023,201.127 359.857,196.794 361,192.5C 364.057,191.549 367.223,191.216 370.5,191.5 Z"/></g>
<g><path style="opacity:1" fill="#959ba7" d="M 512.5,193.5 C 462.664,193.168 412.997,193.501 363.5,194.5C 362.833,195.167 362.167,195.833 361.5,196.5C 361.33,195.178 361.663,194.011 362.5,193C 412.668,192.168 462.668,192.335 512.5,193.5 Z"/></g>
<g><path style="opacity:1" fill="#d2d3d9" d="M 363.5,194.5 C 412.997,193.501 462.664,193.168 512.5,193.5C 513.833,193.5 515.167,193.5 516.5,193.5C 517.167,194.167 517.833,194.833 518.5,195.5C 466.863,194.513 415.196,194.18 363.5,194.5 Z"/></g>
<g><path style="opacity:1" fill="#f9f9f9" d="M 363.5,194.5 C 415.196,194.18 466.863,194.513 518.5,195.5C 520.583,196.029 522.417,197.029 524,198.5C 525.29,200.792 526.957,202.792 529,204.5C 529.483,205.448 529.649,206.448 529.5,207.5C 530.761,213.506 530.761,219.506 529.5,225.5C 529.771,227.38 529.104,228.713 527.5,229.5C 525.825,232.888 524.658,236.555 524,240.5C 523.346,239.304 522.846,239.304 522.5,240.5C 523.393,243.084 523.726,245.751 523.5,248.5C 523.5,249.833 523.5,251.167 523.5,252.5C 521.824,253.183 521.157,254.517 521.5,256.5C 521.5,257.167 521.5,257.833 521.5,258.5C 520.5,258.5 519.5,258.5 518.5,258.5C 517.021,265.42 516.021,272.42 515.5,279.5C 513.103,282.309 511.77,285.642 511.5,289.5C 465.687,290.147 420.02,290.813 374.5,291.5C 373.662,291.842 373.328,292.508 373.5,293.5C 372.507,298.071 371.507,302.738 370.5,307.5C 370.5,307.833 370.5,308.167 370.5,308.5C 367.799,311.931 366.466,315.931 366.5,320.5C 366.13,324.233 365.463,327.899 364.5,331.5C 364.5,331.833 364.5,332.167 364.5,332.5C 363.883,332.611 363.383,332.944 363,333.5C 362.39,336.827 361.89,340.161 361.5,343.5C 359.975,346.583 358.975,349.916 358.5,353.5C 358.483,355.565 358.15,357.565 357.5,359.5C 356.751,362.201 355.751,364.868 354.5,367.5C 352.862,371.564 351.862,375.897 351.5,380.5C 350.614,384.082 349.614,387.749 348.5,391.5C 348.64,393.03 349.307,394.03 350.5,394.5C 378.997,395.332 407.664,395.832 436.5,396C 437.905,397.269 439.571,397.769 441.5,397.5C 441.833,397.5 442.167,397.5 442.5,397.5C 444.785,400.452 447.452,403.118 450.5,405.5C 451.783,412.318 451.783,419.318 450.5,426.5C 449.5,426.5 448.5,426.5 447.5,426.5C 447.5,427.833 447.5,429.167 447.5,430.5C 446.5,430.5 445.5,430.5 444.5,430.5C 444.5,431.833 444.5,433.167 444.5,434.5C 443.167,435.167 442.167,436.167 441.5,437.5C 439.857,437.48 438.524,438.147 437.5,439.5C 435.877,438.509 434.877,439.176 434.5,441.5C 433.167,442.167 431.833,442.833 430.5,443.5C 431.872,445.62 431.205,446.62 428.5,446.5C 428.239,450.761 425.906,453.095 421.5,453.5C 422.127,454.417 422.461,455.417 422.5,456.5C 418.874,461.461 414.874,466.128 410.5,470.5C 408.883,471.038 407.216,471.371 405.5,471.5C 405.5,472.5 405.5,473.5 405.5,474.5C 404.4,475.605 403.733,476.938 403.5,478.5C 401.833,479.5 400.5,480.833 399.5,482.5C 398.761,482.369 398.094,482.536 397.5,483C 392.171,489.155 386.504,494.988 380.5,500.5C 379.5,500.5 378.5,500.5 377.5,500.5C 377.5,501.5 377.5,502.5 377.5,503.5C 376.5,503.5 375.5,503.5 374.5,503.5C 374.5,504.833 374.5,506.167 374.5,507.5C 373.85,507.196 373.183,506.863 372.5,506.5C 369.695,509.616 367.362,512.949 365.5,516.5C 365.167,517.167 364.833,517.833 364.5,518.5C 362.469,519.539 361.136,521.205 360.5,523.5C 356.833,525.167 354.167,527.833 352.5,531.5C 349.097,533.9 346.43,536.9 344.5,540.5C 343.167,540.5 342.5,541.167 342.5,542.5C 341.167,542.5 340.5,543.167 340.5,544.5C 339.167,544.5 338.5,545.167 338.5,546.5C 335.5,548.833 332.833,551.5 330.5,554.5C 329.167,554.5 328.5,555.167 328.5,556.5C 328.167,557.5 327.5,558.167 326.5,558.5C 322.485,561.516 319.152,565.183 316.5,569.5C 315.167,570.5 313.833,571.5 312.5,572.5C 310.952,572.821 310.285,573.821 310.5,575.5C 308.413,576.585 307.08,578.251 306.5,580.5C 304.659,581.402 303.326,582.736 302.5,584.5C 301.833,584.5 301.167,584.5 300.5,584.5C 299.5,584.5 298.5,584.5 297.5,584.5C 297.5,585.5 297.5,586.5 297.5,587.5C 296.178,587.67 295.011,587.337 294,586.5C 292.036,588.875 290.536,591.541 289.5,594.5C 287.339,593.965 285.339,593.132 283.5,592C 286.167,590.605 288.167,588.605 289.5,586C 287.006,583.756 287.006,581.423 289.5,579C 288.617,574.651 288.617,570.485 289.5,566.5C 289.5,565.167 289.5,563.833 289.5,562.5C 290.167,559.833 290.833,557.167 291.5,554.5C 292.315,553.571 293.148,552.571 294,551.5C 294.573,547.152 295.24,542.819 296,538.5C 300.713,526.2 303.879,513.533 305.5,500.5C 306.651,492.91 308.651,485.577 311.5,478.5C 313.075,474.41 314.075,470.077 314.5,465.5C 318.965,454.024 321.965,442.024 323.5,429.5C 323.5,429.167 323.5,428.833 323.5,428.5C 324.558,427.4 325.392,426.066 326,424.5C 326.524,420.429 327.358,416.429 328.5,412.5C 328.36,410.97 327.693,409.97 326.5,409.5C 306.14,408.817 285.64,408.15 265,407.5C 260.306,405.136 256.973,401.47 255,396.5C 254.056,393.653 254.556,391.153 256.5,389C 254.632,388.101 253.632,386.601 253.5,384.5C 254.354,380.188 255.021,375.854 255.5,371.5C 255.5,369.833 255.5,368.167 255.5,366.5C 256.117,366.389 256.617,366.056 257,365.5C 257.495,363.527 257.662,361.527 257.5,359.5C 258.117,359.389 258.617,359.056 259,358.5C 259.495,356.527 259.662,354.527 259.5,352.5C 260.875,349.007 262.041,345.34 263,341.5C 263.497,339.19 263.663,336.857 263.5,334.5C 264.973,332.417 266.14,330.084 267,327.5C 267.495,325.527 267.662,323.527 267.5,321.5C 268.924,319.485 269.59,317.152 269.5,314.5C 269.5,313.5 269.5,312.5 269.5,311.5C 270.927,305.853 272.76,300.186 275,294.5C 275.557,289.744 276.39,285.077 277.5,280.5C 277.427,278.973 278.094,277.973 279.5,277.5C 300.879,277.811 322.212,277.478 343.5,276.5C 346.649,264.917 349.982,253.251 353.5,241.5C 354.192,242.025 354.692,242.692 355,243.5C 355.167,243 355.333,242.5 355.5,242C 354.541,239.88 354.374,237.713 355,235.5C 356.367,236.524 357.2,236.024 357.5,234C 357.18,232.347 356.18,231.347 354.5,231C 356.34,228.174 357.006,225.007 356.5,221.5C 356.5,220.167 356.5,218.833 356.5,217.5C 357.434,216.432 357.768,215.099 357.5,213.5C 357.5,213.167 357.5,212.833 357.5,212.5C 358.496,212.586 359.329,212.252 360,211.5C 360.548,207.83 361.048,204.163 361.5,200.5C 361.5,199.167 361.5,197.833 361.5,196.5C 362.167,195.833 362.833,195.167 363.5,194.5 Z"/></g>
<g><path style="opacity:1" fill="#787f87" d="M 516.5,193.5 C 518.685,193.704 520.685,194.37 522.5,195.5C 525.54,198.539 528.206,201.873 530.5,205.5C 530.5,206.167 530.5,206.833 530.5,207.5C 530.167,207.5 529.833,207.5 529.5,207.5C 529.649,206.448 529.483,205.448 529,204.5C 526.957,202.792 525.29,200.792 524,198.5C 522.417,197.029 520.583,196.029 518.5,195.5C 517.833,194.833 517.167,194.167 516.5,193.5 Z"/></g>
<g><path style="opacity:1" fill="#333c44" d="M 358.5,205.5 C 358.5,206.5 358.5,207.5 358.5,208.5C 357.566,209.568 357.232,210.901 357.5,212.5C 357.5,212.833 357.5,213.167 357.5,213.5C 357.167,213.5 356.833,213.5 356.5,213.5C 356.337,211.143 356.503,208.81 357,206.5C 357.383,205.944 357.883,205.611 358.5,205.5 Z"/></g>
<g><path style="opacity:1" fill="#52595e" d="M 530.5,205.5 C 531.117,205.611 531.617,205.944 532,206.5C 532.499,211.155 532.666,215.821 532.5,220.5C 532.167,220.5 531.833,220.5 531.5,220.5C 531.818,215.968 531.485,211.634 530.5,207.5C 530.5,206.833 530.5,206.167 530.5,205.5 Z"/></g>
<g><path style="opacity:1" fill="#b6bdc4" d="M 361.5,200.5 C 361.048,204.163 360.548,207.83 360,211.5C 359.329,212.252 358.496,212.586 357.5,212.5C 357.232,210.901 357.566,209.568 358.5,208.5C 359.314,206.369 359.814,204.036 360,201.5C 360.383,200.944 360.883,200.611 361.5,200.5 Z"/></g>
<g><path style="opacity:1" fill="#c2c6cb" d="M 529.5,207.5 C 529.833,207.5 530.167,207.5 530.5,207.5C 531.485,211.634 531.818,215.968 531.5,220.5C 530.962,222.117 530.629,223.784 530.5,225.5C 530.167,225.5 529.833,225.5 529.5,225.5C 530.761,219.506 530.761,213.506 529.5,207.5 Z"/></g>
<g><path style="opacity:1" fill="#565a66" d="M 356.5,213.5 C 356.833,213.5 357.167,213.5 357.5,213.5C 357.768,215.099 357.434,216.432 356.5,217.5C 355.833,218.5 355.167,219.5 354.5,220.5C 354.41,217.848 355.076,215.515 356.5,213.5 Z"/></g>
<g><path style="opacity:1" fill="#8a8e96" d="M 356.5,217.5 C 356.5,218.833 356.5,220.167 356.5,221.5C 355.833,222.5 355.167,223.5 354.5,224.5C 354.5,223.5 354.5,222.5 354.5,221.5C 354.5,221.167 354.5,220.833 354.5,220.5C 355.167,219.5 355.833,218.5 356.5,217.5 Z"/></g>
<g><path style="opacity:1" fill="#3a3c48" d="M 531.5,220.5 C 531.833,220.5 532.167,220.5 532.5,220.5C 532.923,222.781 532.256,224.448 530.5,225.5C 530.629,223.784 530.962,222.117 531.5,220.5 Z"/></g>
<g><path style="opacity:1" fill="#464b53" d="M 354.5,221.5 C 354.5,222.5 354.5,223.5 354.5,224.5C 353.659,226.379 353.325,228.379 353.5,230.5C 352.833,231.5 352.167,232.5 351.5,233.5C 351.658,229.159 352.658,225.159 354.5,221.5 Z"/></g>
<g><path style="opacity:1" fill="#747b82" d="M 529.5,225.5 C 529.833,225.5 530.167,225.5 530.5,225.5C 529.546,230.287 528.546,234.954 527.5,239.5C 527.5,238.833 527.5,238.167 527.5,237.5C 527.5,234.833 527.5,232.167 527.5,229.5C 529.104,228.713 529.771,227.38 529.5,225.5 Z"/></g>
<g><path style="opacity:1" fill="#9aa1a2" d="M 353.5,230.5 C 353.59,233.152 352.924,235.485 351.5,237.5C 351.5,236.167 351.5,234.833 351.5,233.5C 352.167,232.5 352.833,231.5 353.5,230.5 Z"/></g>
<g><path style="opacity:1" fill="#d6dae0" d="M 527.5,229.5 C 527.5,232.167 527.5,234.833 527.5,237.5C 525.787,238.635 525.12,240.302 525.5,242.5C 524.85,244.435 524.517,246.435 524.5,248.5C 524.167,248.5 523.833,248.5 523.5,248.5C 523.726,245.751 523.393,243.084 522.5,240.5C 522.846,239.304 523.346,239.304 524,240.5C 524.658,236.555 525.825,232.888 527.5,229.5 Z"/></g>
<g><path style="opacity:1" fill="#535a60" d="M 351.5,233.5 C 351.5,234.833 351.5,236.167 351.5,237.5C 351.5,237.833 351.5,238.167 351.5,238.5C 350.833,239.5 350.167,240.5 349.5,241.5C 349.565,238.572 350.232,235.905 351.5,233.5 Z"/></g>
<g><path style="opacity:1" fill="#868c93" d="M 527.5,237.5 C 527.5,238.167 527.5,238.833 527.5,239.5C 526.596,240.209 526.263,241.209 526.5,242.5C 526.167,242.5 525.833,242.5 525.5,242.5C 525.12,240.302 525.787,238.635 527.5,237.5 Z"/></g>
<g><path style="opacity:1" fill="#9fa4ac" d="M 351.5,238.5 C 351.59,241.152 350.924,243.485 349.5,245.5C 349.5,244.5 349.5,243.5 349.5,242.5C 349.5,242.167 349.5,241.833 349.5,241.5C 350.167,240.5 350.833,239.5 351.5,238.5 Z"/></g>
<g><path style="opacity:1" fill="#60646e" d="M 525.5,242.5 C 525.833,242.5 526.167,242.5 526.5,242.5C 526.741,244.898 526.074,246.898 524.5,248.5C 524.517,246.435 524.85,244.435 525.5,242.5 Z"/></g>
<g><path style="opacity:1" fill="#393d48" d="M 348.5,246.5 C 348.204,248.403 347.537,250.07 346.5,251.5C 346.12,249.302 346.787,247.635 348.5,246.5 Z"/></g>
<g><path style="opacity:1" fill="#9da0a5" d="M 523.5,252.5 C 523.34,254.153 522.674,255.486 521.5,256.5C 521.157,254.517 521.824,253.183 523.5,252.5 Z"/></g>
<g><path style="opacity:1" fill="#42464c" d="M 346.5,254.5 C 346.405,256.786 345.738,258.786 344.5,260.5C 344.259,258.102 344.926,256.102 346.5,254.5 Z"/></g>
<g><path style="opacity:1" fill="#0a1420" d="M 521.5,191.5 C 523.201,191.966 524.701,191.966 526,191.5C 528.316,192.522 528.816,194.022 527.5,196C 529.167,196.333 530.833,196.667 532.5,197C 531.5,197.333 530.5,197.667 529.5,198C 532.417,199.528 535.417,200.861 538.5,202C 537.436,207.016 537.436,211.849 538.5,216.5C 537.878,219.37 537.211,222.204 536.5,225C 539.917,232.613 537.917,238.947 530.5,244C 531.786,246.022 532.786,248.189 533.5,250.5C 532.425,253.438 532.259,256.438 533,259.5C 535.236,261.516 536.736,264.016 537.5,267C 536.939,268.676 535.939,270.009 534.5,271C 536.26,271.965 536.594,273.132 535.5,274.5C 533.535,273.81 531.202,273.143 528.5,272.5C 528.5,273.5 528.5,274.5 528.5,275.5C 526.217,275.608 524.217,276.441 522.5,278C 523.167,278.333 523.833,278.667 524.5,279C 522.833,279.333 521.167,279.667 519.5,280C 522.054,282.269 522.054,284.602 519.5,287C 520.337,288.011 520.67,289.178 520.5,290.5C 527.839,288.741 530.339,291.408 528,298.5C 526.745,299.211 525.579,300.044 524.5,301C 524.833,301.333 525.167,301.667 525.5,302C 522.362,303.403 519.362,305.07 516.5,307C 516.957,307.414 517.291,307.914 517.5,308.5C 516.083,308.859 514.75,310.025 513.5,312C 513.833,312.333 514.167,312.667 514.5,313C 512.655,312.217 510.655,311.884 508.5,312C 508.957,312.414 509.291,312.914 509.5,313.5C 508.478,314.354 507.645,315.354 507,316.5C 504,315.167 501,315.167 498,316.5C 495.333,315.833 492.667,315.167 490,314.5C 485.808,315.446 481.475,315.446 477,314.5C 470.516,316.396 464.182,316.396 458,314.5C 453.808,315.446 449.475,315.446 445,314.5C 438.516,316.396 432.182,316.396 426,314.5C 421.808,315.446 417.475,315.446 413,314.5C 406.516,316.396 400.182,316.396 394,314.5C 389.808,315.446 385.475,315.446 381,314.5C 377.133,315.7 374.633,318.2 373.5,322C 374.833,322.667 375.833,323.667 376.5,325C 370.552,324.023 370.219,324.857 375.5,327.5C 376.04,328.748 376.707,329.915 377.5,331C 375.262,333.514 374.095,336.347 374,339.5C 374.414,339.043 374.914,338.709 375.5,338.5C 376.205,340.672 377.205,342.672 378.5,344.5C 377.218,346.179 376.218,348.013 375.5,350C 377.991,350.626 377.991,351.459 375.5,352.5C 375.709,353.086 376.043,353.586 376.5,354C 374.633,354.711 373.133,354.211 372,352.5C 369.945,353.672 369.278,355.339 370,357.5C 370.333,357.167 370.667,356.833 371,356.5C 372.368,358.027 372.868,359.527 372.5,361C 369.468,362.578 366.968,364.745 365,367.5C 364.506,369.134 364.34,370.801 364.5,372.5C 363.5,372.5 362.5,372.5 361.5,372.5C 361.919,375.325 360.919,377.491 358.5,379C 359.126,379.75 359.626,380.584 360,381.5C 360.308,380.692 360.808,380.025 361.5,379.5C 362.732,380.145 364.065,380.311 365.5,380C 361.657,382.738 361.824,384.905 366,386.5C 367.722,386.038 369.555,385.872 371.5,386C 372.126,385.25 372.626,384.416 373,383.5C 374.912,384.692 376.912,385.692 379,386.5C 379.333,385.833 379.667,385.167 380,384.5C 384.211,385.532 388.211,385.532 392,384.5C 392.667,385.167 393.333,385.833 394,386.5C 395.217,385.614 396.551,384.614 398,383.5C 398.388,384.428 399.055,385.095 400,385.5C 401.235,384.385 402.402,384.385 403.5,385.5C 404.192,384.975 404.692,384.308 405,383.5C 406.969,386.14 409.635,387.474 413,387.5C 417.03,387.015 421.03,387.015 425,387.5C 425.915,386.672 426.581,385.672 427,384.5C 428.395,385.815 429.395,385.481 430,383.5C 430.36,385.421 431.194,387.088 432.5,388.5C 432.833,387.833 433.167,387.167 433.5,386.5C 434.293,386.931 435.127,387.265 436,387.5C 437.879,385.987 440.046,385.321 442.5,385.5C 442.5,386.5 442.5,387.5 442.5,388.5C 445.797,388.671 446.131,388.005 443.5,386.5C 446.431,385.297 448.431,386.297 449.5,389.5C 449.291,390.086 448.957,390.586 448.5,391C 449.667,391.5 450.5,392.333 451,393.5C 451.333,391.833 451.667,390.167 452,388.5C 452.374,389.416 452.874,390.25 453.5,391C 453.596,392.373 453.43,393.873 453,395.5C 453.333,395.167 453.667,394.833 454,394.5C 454.792,396.587 455.959,398.421 457.5,400C 456.72,401.073 456.887,402.24 458,403.5C 458.333,403.167 458.667,402.833 459,402.5C 460.562,404.957 461.562,407.624 462,410.5C 463.131,409.396 463.965,409.729 464.5,411.5C 462.009,412.541 462.009,413.374 464.5,414C 463.465,415.507 463.632,417.007 465,418.5C 468.82,415.984 471.986,416.817 474.5,421C 473.167,422.667 473.167,424.333 474.5,426C 473.743,427.512 472.743,428.846 471.5,430C 472.167,430.333 472.833,430.667 473.5,431C 471.479,431.14 469.645,431.307 468,431.5C 466.748,429.999 465.748,428.332 465,426.5C 464.667,426.833 464.333,427.167 464,427.5C 461.45,425.505 460.95,423.172 462.5,420.5C 460.5,420.5 458.5,420.5 456.5,420.5C 457.036,417.302 456.369,414.635 454.5,412.5C 454.818,409.519 453.818,407.185 451.5,405.5C 451.672,404.508 451.338,403.842 450.5,403.5C 449.833,400.833 448.167,399.167 445.5,398.5C 445.158,397.662 444.492,397.328 443.5,397.5C 442.9,396.1 441.9,395.1 440.5,394.5C 438.972,393.691 437.306,393.024 435.5,392.5C 410.972,391.93 386.306,391.096 361.5,390C 355.775,386.715 353.775,381.882 355.5,375.5C 355.5,375.167 355.5,374.833 355.5,374.5C 356.151,373.909 356.818,373.243 357.5,372.5C 358.459,368.204 359.125,363.871 359.5,359.5C 359.87,355.767 360.537,352.101 361.5,348.5C 361.5,348.167 361.5,347.833 361.5,347.5C 362.924,345.485 363.59,343.152 363.5,340.5C 363.5,339.833 363.5,339.167 363.5,338.5C 364.738,336.786 365.405,334.786 365.5,332.5C 367.074,330.898 367.741,328.898 367.5,326.5C 368.768,324.095 369.435,321.428 369.5,318.5C 370.924,316.485 371.59,314.152 371.5,311.5C 371.5,310.167 371.5,308.833 371.5,307.5C 372.75,304.994 373.416,302.327 373.5,299.5C 375.213,298.365 375.88,296.698 375.5,294.5C 421.67,294.832 467.67,294.499 513.5,293.5C 515.011,290.456 515.678,287.122 515.5,283.5C 517.969,282.393 518.969,280.393 518.5,277.5C 518.5,276.5 518.5,275.5 518.5,274.5C 519.924,272.485 520.59,270.152 520.5,267.5C 521.117,267.389 521.617,267.056 522,266.5C 522.101,263.3 522.768,260.3 524,257.5C 524.498,254.518 524.665,251.518 524.5,248.5C 526.074,246.898 526.741,244.898 526.5,242.5C 526.263,241.209 526.596,240.209 527.5,239.5C 528.546,234.954 529.546,230.287 530.5,225.5C 532.256,224.448 532.923,222.781 532.5,220.5C 532.666,215.821 532.499,211.155 532,206.5C 531.617,205.944 531.117,205.611 530.5,205.5C 528.206,201.873 525.54,198.539 522.5,195.5C 521.766,194.292 521.433,192.959 521.5,191.5 Z"/></g>
<g><path style="opacity:1" fill="#d9dce3" d="M 521.5,258.5 C 521.5,259.5 521.5,260.5 521.5,261.5C 519.926,263.102 519.259,265.102 519.5,267.5C 519.5,267.833 519.5,268.167 519.5,268.5C 517.896,269.287 517.229,270.62 517.5,272.5C 517.007,274.806 516.674,277.139 516.5,279.5C 516.167,279.5 515.833,279.5 515.5,279.5C 516.021,272.42 517.021,265.42 518.5,258.5C 519.5,258.5 520.5,258.5 521.5,258.5 Z"/></g>
<g><path style="opacity:1" fill="#95979c" d="M 349.5,242.5 C 349.5,243.5 349.5,244.5 349.5,245.5C 348.598,253.567 346.598,261.233 343.5,268.5C 343.5,268.167 343.5,267.833 343.5,267.5C 343.993,265.194 344.326,262.861 344.5,260.5C 345.738,258.786 346.405,256.786 346.5,254.5C 346.5,253.5 346.5,252.5 346.5,251.5C 347.537,250.07 348.204,248.403 348.5,246.5C 348.232,244.901 348.566,243.568 349.5,242.5 Z"/></g>
<g><path style="opacity:1" fill="#383d45" d="M 523.5,248.5 C 523.833,248.5 524.167,248.5 524.5,248.5C 524.665,251.518 524.498,254.518 524,257.5C 522.768,260.3 522.101,263.3 522,266.5C 521.617,267.056 521.117,267.389 520.5,267.5C 521.15,265.565 521.483,263.565 521.5,261.5C 521.5,260.5 521.5,259.5 521.5,258.5C 521.5,257.833 521.5,257.167 521.5,256.5C 522.674,255.486 523.34,254.153 523.5,252.5C 523.5,251.167 523.5,249.833 523.5,248.5 Z"/></g>
<g><path style="opacity:1" fill="#696b74" d="M 521.5,261.5 C 521.483,263.565 521.15,265.565 520.5,267.5C 520.167,267.5 519.833,267.5 519.5,267.5C 519.259,265.102 519.926,263.102 521.5,261.5 Z"/></g>
<g><path style="opacity:1" fill="#e3e6e8" d="M 356.5,221.5 C 357.006,225.007 356.34,228.174 354.5,231C 356.18,231.347 357.18,232.347 357.5,234C 357.2,236.024 356.367,236.524 355,235.5C 354.374,237.713 354.541,239.88 355.5,242C 355.333,242.5 355.167,243 355,243.5C 354.692,242.692 354.192,242.025 353.5,241.5C 349.982,253.251 346.649,264.917 343.5,276.5C 343.5,275.167 343.5,273.833 343.5,272.5C 343.5,271.167 343.5,269.833 343.5,268.5C 346.598,261.233 348.598,253.567 349.5,245.5C 350.924,243.485 351.59,241.152 351.5,238.5C 351.5,238.167 351.5,237.833 351.5,237.5C 352.924,235.485 353.59,233.152 353.5,230.5C 353.325,228.379 353.659,226.379 354.5,224.5C 355.167,223.5 355.833,222.5 356.5,221.5 Z"/></g>
<g><path style="opacity:1" fill="#747a80" d="M 343.5,267.5 C 343.5,267.833 343.5,268.167 343.5,268.5C 343.5,269.833 343.5,271.167 343.5,272.5C 342.833,273.167 342.167,273.833 341.5,274.5C 341.721,271.933 342.388,269.599 343.5,267.5 Z"/></g>
<g><path style="opacity:1" fill="#9da0a7" d="M 519.5,268.5 C 519.167,269.833 518.833,271.167 518.5,272.5C 518.167,272.5 517.833,272.5 517.5,272.5C 517.229,270.62 517.896,269.287 519.5,268.5 Z"/></g>
<g><path style="opacity:1" fill="#3f424d" d="M 519.5,267.5 C 519.833,267.5 520.167,267.5 520.5,267.5C 520.59,270.152 519.924,272.485 518.5,274.5C 518.5,273.833 518.5,273.167 518.5,272.5C 518.833,271.167 519.167,269.833 519.5,268.5C 519.5,268.167 519.5,267.833 519.5,267.5 Z"/></g>
<g><path style="opacity:1" fill="#1e252c" d="M 344.5,260.5 C 344.326,262.861 343.993,265.194 343.5,267.5C 342.388,269.599 341.721,271.933 341.5,274.5C 341.5,275.167 341.167,275.5 340.5,275.5C 319.091,275.178 297.758,275.512 276.5,276.5C 297.474,274.511 318.807,273.844 340.5,274.5C 340.335,271.482 340.502,268.482 341,265.5C 341.223,263.119 342.39,261.453 344.5,260.5 Z"/></g>
<g><path style="opacity:1" fill="#636970" d="M 340.5,275.5 C 320.167,276.167 299.833,276.833 279.5,277.5C 278.094,277.973 277.427,278.973 277.5,280.5C 277.167,280.5 276.833,280.5 276.5,280.5C 276.5,279.167 276.5,277.833 276.5,276.5C 297.758,275.512 319.091,275.178 340.5,275.5 Z"/></g>
<g><path style="opacity:1" fill="#a9afb5" d="M 343.5,272.5 C 343.5,273.833 343.5,275.167 343.5,276.5C 322.212,277.478 300.879,277.811 279.5,277.5C 299.833,276.833 320.167,276.167 340.5,275.5C 341.167,275.5 341.5,275.167 341.5,274.5C 342.167,273.833 342.833,273.167 343.5,272.5 Z"/></g>
<g><path style="opacity:1" fill="#757a85" d="M 517.5,272.5 C 517.833,272.5 518.167,272.5 518.5,272.5C 518.5,273.167 518.5,273.833 518.5,274.5C 518.5,275.5 518.5,276.5 518.5,277.5C 517.833,278.167 517.167,278.833 516.5,279.5C 516.674,277.139 517.007,274.806 517.5,272.5 Z"/></g>
<g><path style="opacity:1" fill="#3c414c" d="M 518.5,277.5 C 518.969,280.393 517.969,282.393 515.5,283.5C 515.5,282.167 515.5,280.833 515.5,279.5C 515.833,279.5 516.167,279.5 516.5,279.5C 517.167,278.833 517.833,278.167 518.5,277.5 Z"/></g>
<g><path style="opacity:1" fill="#424a50" d="M 276.5,281.5 C 276.204,283.403 275.537,285.07 274.5,286.5C 274.12,284.302 274.787,282.635 276.5,281.5 Z"/></g>
<g><path style="opacity:1" fill="#6a727b" d="M 515.5,283.5 C 515.678,287.122 515.011,290.456 513.5,293.5C 513.5,293.167 513.5,292.833 513.5,292.5C 513.5,291.167 513.5,289.833 513.5,288.5C 513.402,286.447 514.069,284.78 515.5,283.5 Z"/></g>
<g><path style="opacity:1" fill="#ecf2f2" d="M 515.5,279.5 C 515.5,280.833 515.5,282.167 515.5,283.5C 514.069,284.78 513.402,286.447 513.5,288.5C 512.596,289.209 512.263,290.209 512.5,291.5C 466.5,291.5 420.5,291.5 374.5,291.5C 420.02,290.813 465.687,290.147 511.5,289.5C 511.77,285.642 513.103,282.309 515.5,279.5 Z"/></g>
<g><path style="opacity:1" fill="#cdd3d8" d="M 513.5,288.5 C 513.5,289.833 513.5,291.167 513.5,292.5C 466.761,292.172 420.095,292.505 373.5,293.5C 373.328,292.508 373.662,291.842 374.5,291.5C 420.5,291.5 466.5,291.5 512.5,291.5C 512.263,290.209 512.596,289.209 513.5,288.5 Z"/></g>
<g><path style="opacity:1" fill="#838991" d="M 513.5,292.5 C 513.5,292.833 513.5,293.167 513.5,293.5C 467.67,294.499 421.67,294.832 375.5,294.5C 373.787,295.635 373.12,297.302 373.5,299.5C 373.416,302.327 372.75,304.994 371.5,307.5C 371.167,307.5 370.833,307.5 370.5,307.5C 371.507,302.738 372.507,298.071 373.5,293.5C 420.095,292.505 466.761,292.172 513.5,292.5 Z"/></g>
<g><path style="opacity:1" fill="#555c62" d="M 274.5,288.5 C 274.59,291.152 273.924,293.485 272.5,295.5C 272.171,292.772 272.837,290.438 274.5,288.5 Z"/></g>
<g><path style="opacity:1" fill="#091224" d="M 497.5,306.5 C 493.162,306.022 488.662,306.688 484,308.5C 483.511,306.396 482.345,306.062 480.5,307.5C 479.353,307.182 478.519,306.516 478,305.5C 477.395,307.481 476.395,307.815 475,306.5C 472.333,307.167 469.667,307.833 467,308.5C 466.333,307.833 465.667,307.167 465,306.5C 460.873,305.98 456.54,306.647 452,308.5C 451.511,306.396 450.345,306.062 448.5,307.5C 447.353,307.182 446.519,306.516 446,305.5C 445.395,307.481 444.395,307.815 443,306.5C 440.333,307.167 437.667,307.833 435,308.5C 434.333,307.833 433.667,307.167 433,306.5C 428.873,305.98 424.54,306.647 420,308.5C 419.511,306.396 418.345,306.062 416.5,307.5C 415.353,307.182 414.519,306.516 414,305.5C 413.395,307.481 412.395,307.815 411,306.5C 408.333,307.167 405.667,307.833 403,308.5C 402.333,307.833 401.667,307.167 401,306.5C 396.873,305.98 392.54,306.647 388,308.5C 387.667,307.833 387.333,307.167 387,306.5C 383.852,305.919 381.019,305.919 378.5,306.5C 377.909,305.849 377.243,305.182 376.5,304.5C 377.833,303.5 377.833,302.5 376.5,301.5C 377.09,300.201 378.09,299.368 379.5,299C 385.416,298.81 391.249,298.31 397,297.5C 432.056,298.772 467.389,298.772 503,297.5C 503.617,298.449 503.451,299.282 502.5,300C 504.791,302.016 504.791,304.183 502.5,306.5C 500.812,306.458 499.146,306.458 497.5,306.5 Z"/></g>
<g><path style="opacity:1" fill="#515456" d="M 375.5,294.5 C 375.88,296.698 375.213,298.365 373.5,299.5C 373.12,297.302 373.787,295.635 375.5,294.5 Z"/></g>
<g><path style="opacity:1" fill="#06181f" d="M 497.5,306.5 C 498.301,308.508 499.634,309.008 501.5,308C 502.293,309.085 502.96,310.252 503.5,311.5C 501.925,312.449 499.758,313.116 497,313.5C 488.47,313.271 479.97,313.271 471.5,313.5C 470.808,312.975 470.308,312.308 470,311.5C 468.647,312.704 466.981,313.371 465,313.5C 456.47,313.271 447.97,313.271 439.5,313.5C 438.808,312.975 438.308,312.308 438,311.5C 436.647,312.704 434.981,313.371 433,313.5C 424.47,313.271 415.97,313.271 407.5,313.5C 406.808,312.975 406.308,312.308 406,311.5C 404.647,312.704 402.981,313.371 401,313.5C 392.47,313.271 383.97,313.271 375.5,313.5C 375.167,313.333 374.833,313.167 374.5,313C 375.69,310.716 377.024,308.549 378.5,306.5C 381.019,305.919 383.852,305.919 387,306.5C 387.333,307.167 387.667,307.833 388,308.5C 392.54,306.647 396.873,305.98 401,306.5C 401.667,307.167 402.333,307.833 403,308.5C 405.667,307.833 408.333,307.167 411,306.5C 412.395,307.815 413.395,307.481 414,305.5C 414.519,306.516 415.353,307.182 416.5,307.5C 418.345,306.062 419.511,306.396 420,308.5C 424.54,306.647 428.873,305.98 433,306.5C 433.667,307.167 434.333,307.833 435,308.5C 437.667,307.833 440.333,307.167 443,306.5C 444.395,307.815 445.395,307.481 446,305.5C 446.519,306.516 447.353,307.182 448.5,307.5C 450.345,306.062 451.511,306.396 452,308.5C 456.54,306.647 460.873,305.98 465,306.5C 465.667,307.167 466.333,307.833 467,308.5C 469.667,307.833 472.333,307.167 475,306.5C 476.395,307.815 477.395,307.481 478,305.5C 478.519,306.516 479.353,307.182 480.5,307.5C 482.345,306.062 483.511,306.396 484,308.5C 488.662,306.688 493.162,306.022 497.5,306.5 Z"/></g>
<g><path style="opacity:1" fill="#474c54" d="M 270.5,305.5 C 269.962,307.117 269.629,308.784 269.5,310.5C 269.167,310.5 268.833,310.5 268.5,310.5C 268.077,308.219 268.744,306.552 270.5,305.5 Z"/></g>
<g><path style="opacity:1" fill="#a1a6ac" d="M 276.5,280.5 C 276.833,280.5 277.167,280.5 277.5,280.5C 276.39,285.077 275.557,289.744 275,294.5C 272.76,300.186 270.927,305.853 269.5,311.5C 269.5,311.167 269.5,310.833 269.5,310.5C 269.629,308.784 269.962,307.117 270.5,305.5C 270.576,302.027 271.242,298.694 272.5,295.5C 273.924,293.485 274.59,291.152 274.5,288.5C 274.5,287.833 274.5,287.167 274.5,286.5C 275.537,285.07 276.204,283.403 276.5,281.5C 276.5,281.167 276.5,280.833 276.5,280.5 Z"/></g>
<g><path style="opacity:1" fill="#71787e" d="M 370.5,307.5 C 370.833,307.5 371.167,307.5 371.5,307.5C 371.5,308.833 371.5,310.167 371.5,311.5C 370.833,312.5 370.167,313.5 369.5,314.5C 369.517,312.435 369.85,310.435 370.5,308.5C 370.5,308.167 370.5,307.833 370.5,307.5 Z"/></g>
<g><path style="opacity:1" fill="#d3d8de" d="M 370.5,308.5 C 369.85,310.435 369.517,312.435 369.5,314.5C 368.5,316.5 367.5,318.5 366.5,320.5C 366.466,315.931 367.799,311.931 370.5,308.5 Z"/></g>
<g><path style="opacity:1" fill="#767b83" d="M 268.5,310.5 C 268.833,310.5 269.167,310.5 269.5,310.5C 269.5,310.833 269.5,311.167 269.5,311.5C 269.5,312.5 269.5,313.5 269.5,314.5C 268.076,316.515 267.41,318.848 267.5,321.5C 267.167,321.5 266.833,321.5 266.5,321.5C 266.5,320.833 266.5,320.167 266.5,319.5C 266.873,316.426 267.539,313.426 268.5,310.5 Z"/></g>
<g><path style="opacity:1" fill="#c4c7d0" d="M 269.5,314.5 C 269.59,317.152 268.924,319.485 267.5,321.5C 267.41,318.848 268.076,316.515 269.5,314.5 Z"/></g>
<g><path style="opacity:1" fill="#2c373d" d="M 371.5,311.5 C 371.59,314.152 370.924,316.485 369.5,318.5C 369.5,317.167 369.5,315.833 369.5,314.5C 370.167,313.5 370.833,312.5 371.5,311.5 Z"/></g>
<g><path style="opacity:1" fill="#363e46" d="M 369.5,318.5 C 369.435,321.428 368.768,324.095 367.5,326.5C 367.294,323.505 367.96,320.838 369.5,318.5 Z"/></g>
<g><path style="opacity:1" fill="#475057" d="M 266.5,319.5 C 266.5,320.167 266.5,320.833 266.5,321.5C 266.405,323.786 265.738,325.786 264.5,327.5C 264.111,324.447 264.777,321.78 266.5,319.5 Z"/></g>
<g><path style="opacity:1" fill="#90969d" d="M 369.5,314.5 C 369.5,315.833 369.5,317.167 369.5,318.5C 367.96,320.838 367.294,323.505 367.5,326.5C 366.069,327.78 365.402,329.447 365.5,331.5C 365.167,331.5 364.833,331.5 364.5,331.5C 365.463,327.899 366.13,324.233 366.5,320.5C 367.5,318.5 368.5,316.5 369.5,314.5 Z"/></g>
<g><path style="opacity:1" fill="#0a1420" d="M 378.5,180.5 C 377.489,182.506 376.489,184.506 375.5,186.5C 375.818,187.647 376.484,188.481 377.5,189C 376.263,189.232 375.263,189.732 374.5,190.5C 372.901,190.232 371.568,190.566 370.5,191.5C 367.223,191.216 364.057,191.549 361,192.5C 359.857,196.794 359.023,201.127 358.5,205.5C 357.883,205.611 357.383,205.944 357,206.5C 356.503,208.81 356.337,211.143 356.5,213.5C 355.076,215.515 354.41,217.848 354.5,220.5C 354.5,220.833 354.5,221.167 354.5,221.5C 352.658,225.159 351.658,229.159 351.5,233.5C 350.232,235.905 349.565,238.572 349.5,241.5C 349.5,241.833 349.5,242.167 349.5,242.5C 348.566,243.568 348.232,244.901 348.5,246.5C 346.787,247.635 346.12,249.302 346.5,251.5C 346.5,252.5 346.5,253.5 346.5,254.5C 344.926,256.102 344.259,258.102 344.5,260.5C 342.39,261.453 341.223,263.119 341,265.5C 340.502,268.482 340.335,271.482 340.5,274.5C 318.807,273.844 297.474,274.511 276.5,276.5C 276.5,277.833 276.5,279.167 276.5,280.5C 276.5,280.833 276.5,281.167 276.5,281.5C 274.787,282.635 274.12,284.302 274.5,286.5C 274.5,287.167 274.5,287.833 274.5,288.5C 272.837,290.438 272.171,292.772 272.5,295.5C 271.242,298.694 270.576,302.027 270.5,305.5C 268.744,306.552 268.077,308.219 268.5,310.5C 267.539,313.426 266.873,316.426 266.5,319.5C 264.777,321.78 264.111,324.447 264.5,327.5C 264.371,329.216 264.038,330.883 263.5,332.5C 262.549,333.919 262.216,335.585 262.5,337.5C 260.824,338.183 260.157,339.517 260.5,341.5C 260.5,343.167 260.5,344.833 260.5,346.5C 259.883,346.611 259.383,346.944 259,347.5C 257.857,350.777 257.023,354.11 256.5,357.5C 256.5,358.5 256.5,359.5 256.5,360.5C 254.72,361.99 254.054,363.99 254.5,366.5C 253.419,372.24 252.086,377.907 250.5,383.5C 248.974,384.492 248.307,385.992 248.5,388C 248.646,390.76 249.313,393.26 250.5,395.5C 250.833,396.5 251.5,397.167 252.5,397.5C 252.5,397.833 252.5,398.167 252.5,398.5C 252.427,400.027 253.094,401.027 254.5,401.5C 255.167,404.167 256.833,405.833 259.5,406.5C 259.973,407.906 260.973,408.573 262.5,408.5C 262.833,408.5 263.167,408.5 263.5,408.5C 263.833,409.167 264.167,409.833 264.5,410.5C 265.263,411.268 266.263,411.768 267.5,412C 286.86,411.843 305.86,412.676 324.5,414.5C 324.5,415.833 324.5,417.167 324.5,418.5C 322.72,419.99 322.054,421.99 322.5,424.5C 322.5,425.167 322.5,425.833 322.5,426.5C 320.787,427.635 320.12,429.302 320.5,431.5C 320.5,432.5 320.5,433.5 320.5,434.5C 318.72,435.99 318.054,437.99 318.5,440.5C 318.5,440.833 318.5,441.167 318.5,441.5C 316.537,446.551 315.204,451.884 314.5,457.5C 312.837,459.438 312.171,461.772 312.5,464.5C 310.926,466.102 310.259,468.102 310.5,470.5C 310.5,472.167 310.5,473.833 310.5,475.5C 308.787,476.635 308.12,478.302 308.5,480.5C 308.5,481.167 308.5,481.833 308.5,482.5C 306.744,483.552 306.077,485.219 306.5,487.5C 306.5,488.5 306.5,489.5 306.5,490.5C 304.787,491.635 304.12,493.302 304.5,495.5C 304.5,496.5 304.5,497.5 304.5,498.5C 302.837,500.438 302.171,502.772 302.5,505.5C 301.976,507.306 301.309,508.972 300.5,510.5C 300.123,508.742 299.456,507.075 298.5,505.5C 302.079,503.84 302.412,501.673 299.5,499C 300.308,498.692 300.975,498.192 301.5,497.5C 300.761,495.4 300.761,493.067 301.5,490.5C 300.975,489.808 300.308,489.308 299.5,489C 300.833,488.333 302.167,487.667 303.5,487C 301.606,485.921 301.273,484.587 302.5,483C 300.987,480.977 299.654,481.144 298.5,483.5C 296.301,479.624 294.968,475.457 294.5,471C 295.167,470.333 295.833,469.667 296.5,469C 295.027,468.29 294.36,467.124 294.5,465.5C 295.5,465.5 296.5,465.5 297.5,465.5C 297.201,467.604 297.534,469.604 298.5,471.5C 298.669,470.603 299.002,469.603 299.5,468.5C 300.425,467.359 301.259,467.359 302,468.5C 302.483,467.552 302.649,466.552 302.5,465.5C 304.792,465.756 306.959,465.423 309,464.5C 309.236,458.776 309.069,453.276 308.5,448C 309.293,444.589 309.793,441.089 310,437.5C 311,433.5 312,433.5 313,437.5C 313.495,435.527 313.662,433.527 313.5,431.5C 317.099,431.738 317.433,430.738 314.5,428.5C 314.977,427.522 315.643,426.689 316.5,426C 316.065,423.133 314.899,420.633 313,418.5C 312.667,419.167 312.333,419.833 312,420.5C 309.834,418.879 307.334,418.045 304.5,418C 305,417.5 305.5,417 306,416.5C 307.682,416.807 309.348,417.14 311,417.5C 312.722,417.389 312.888,416.889 311.5,416C 309.236,415.764 307.069,415.264 305,414.5C 297.622,415.293 290.288,415.293 283,414.5C 281.184,415.329 279.351,416.163 277.5,417C 277.833,417.333 278.167,417.667 278.5,418C 276.702,419.505 274.868,419.672 273,418.5C 271.221,421.276 270.221,420.943 270,417.5C 268.933,419.283 267.433,419.783 265.5,419C 264.167,418.333 264.167,417.667 265.5,417C 263.067,416.234 261.234,414.734 260,412.5C 259.781,413.938 259.281,415.271 258.5,416.5C 257.914,416.291 257.414,415.957 257,415.5C 256.64,417.421 255.806,419.088 254.5,420.5C 254.511,419.559 254.011,418.892 253,418.5C 251.079,419.19 249.245,419.524 247.5,419.5C 246.223,416.966 246.223,414.466 247.5,412C 244.724,410.221 245.057,409.221 248.5,409C 247.552,408.517 246.552,408.351 245.5,408.5C 245.779,405.882 246.446,403.382 247.5,401C 245.885,397.923 244.885,394.59 244.5,391C 244.719,384.052 245.386,377.052 246.5,370C 245.663,368.989 245.33,367.822 245.5,366.5C 246.675,366.719 247.675,366.386 248.5,365.5C 247.167,363.833 247.167,362.167 248.5,360.5C 245.642,358.08 245.309,355.58 247.5,353C 246.833,351.667 246.167,350.333 245.5,349C 245.682,346.347 246.015,343.68 246.5,341C 244.109,340.309 244.109,339.309 246.5,338C 245.833,334.333 245.167,330.667 244.5,327C 245.056,324.763 246.056,322.763 247.5,321C 249.464,320.376 251.131,320.876 252.5,322.5C 253.686,324.508 255.02,326.341 256.5,328C 255.02,329.659 253.686,331.492 252.5,333.5C 252.938,334.506 253.604,334.506 254.5,333.5C 255.308,335.423 255.808,337.423 256,339.5C 257.348,335.774 258.848,332.108 260.5,328.5C 258.978,326.844 259.311,325.677 261.5,325C 260.941,324.275 260.608,323.442 260.5,322.5C 261.903,318.283 262.736,313.949 263,309.5C 263.08,307.752 263.913,306.085 265.5,304.5C 264.685,302.045 263.685,299.711 262.5,297.5C 263.169,294.972 264.002,294.972 265,297.5C 265.167,297 265.333,296.5 265.5,296C 264.5,294.333 263.5,292.667 262.5,291C 264.564,288.6 264.564,286.433 262.5,284.5C 263.242,282.65 264.242,281.984 265.5,282.5C 265.135,277.43 262.968,273.43 259,270.5C 258.797,266.579 258.297,262.745 257.5,259C 261.656,256.053 265.656,256.053 269.5,259C 268.209,262.455 268.209,265.955 269.5,269.5C 271.226,271.03 273.226,272.03 275.5,272.5C 278.193,270.148 280.36,267.482 282,264.5C 285.105,265.447 288.439,265.781 292,265.5C 293.326,265.245 294.326,264.578 295,263.5C 295.308,264.308 295.808,264.975 296.5,265.5C 297.5,264.167 298.5,264.167 299.5,265.5C 301.433,263.436 303.6,263.436 306,265.5C 312.383,264.878 319.216,264.711 326.5,265C 327.167,264.333 327.833,263.667 328.5,263C 326.395,261.665 325.729,259.998 326.5,258C 327.744,257.544 328.577,258.044 329,259.5C 329.419,258.328 330.085,257.328 331,256.5C 331.196,258.286 332.029,259.619 333.5,260.5C 333.654,259.091 333.821,257.424 334,255.5C 338.439,258.973 341.273,257.473 342.5,251C 340.869,248.58 341.203,246.58 343.5,245C 342.216,243.703 342.383,242.536 344,241.5C 344.333,242.5 344.667,243.5 345,244.5C 345.337,241.584 346.17,238.75 347.5,236C 344.833,234.667 344.833,233.333 347.5,232C 346.761,229.765 346.761,227.765 347.5,226C 345.893,226.019 344.226,226.185 342.5,226.5C 342.26,223.421 342.593,220.421 343.5,217.5C 341.251,215.866 340.918,213.866 342.5,211.5C 341.93,207.274 341.263,203.108 340.5,199C 343.412,190.819 347.079,190.486 351.5,198C 351.156,199.365 350.489,200.532 349.5,201.5C 349.846,202.696 350.346,202.696 351,201.5C 350.43,203.693 350.764,205.693 352,207.5C 354.295,201.916 356.295,196.25 358,190.5C 359.281,190.619 360.448,190.119 361.5,189C 357.86,187.866 358.193,186.866 362.5,186C 360.381,185.902 358.714,185.069 357.5,183.5C 358.262,176.181 361.595,174.848 367.5,179.5C 369.415,177.528 371.749,176.528 374.5,176.5C 374.167,179.5 375.5,180.833 378.5,180.5 Z"/></g>
<g><path style="opacity:1" fill="#454a53" d="M 367.5,326.5 C 367.741,328.898 367.074,330.898 365.5,332.5C 365.5,332.167 365.5,331.833 365.5,331.5C 365.402,329.447 366.069,327.78 367.5,326.5 Z"/></g>
<g><path style="opacity:1" fill="#abb1b7" d="M 266.5,321.5 C 266.833,321.5 267.167,321.5 267.5,321.5C 267.662,323.527 267.495,325.527 267,327.5C 266.14,330.084 264.973,332.417 263.5,334.5C 263.5,333.833 263.5,333.167 263.5,332.5C 264.038,330.883 264.371,329.216 264.5,327.5C 265.738,325.786 266.405,323.786 266.5,321.5 Z"/></g>
<g><path style="opacity:1" fill="#b6bbc0" d="M 364.5,332.5 C 363.85,334.435 363.517,336.435 363.5,338.5C 363.5,339.167 363.5,339.833 363.5,340.5C 362.833,341.5 362.167,342.5 361.5,343.5C 361.89,340.161 362.39,336.827 363,333.5C 363.383,332.944 363.883,332.611 364.5,332.5 Z"/></g>
<g><path style="opacity:1" fill="#6d7279" d="M 364.5,331.5 C 364.833,331.5 365.167,331.5 365.5,331.5C 365.5,331.833 365.5,332.167 365.5,332.5C 365.405,334.786 364.738,336.786 363.5,338.5C 363.517,336.435 363.85,334.435 364.5,332.5C 364.5,332.167 364.5,331.833 364.5,331.5 Z"/></g>
<g><path style="opacity:1" fill="#444753" d="M 262.5,337.5 C 262.34,339.153 261.674,340.486 260.5,341.5C 260.157,339.517 260.824,338.183 262.5,337.5 Z"/></g>
<g><path style="opacity:1" fill="#5a6066" d="M 363.5,340.5 C 363.59,343.152 362.924,345.485 361.5,347.5C 361.5,346.167 361.5,344.833 361.5,343.5C 362.167,342.5 362.833,341.5 363.5,340.5 Z"/></g>
<g><path style="opacity:1" fill="#a2a5ae" d="M 263.5,332.5 C 263.5,333.167 263.5,333.833 263.5,334.5C 263.663,336.857 263.497,339.19 263,341.5C 262.041,345.34 260.875,349.007 259.5,352.5C 259.517,350.435 259.85,348.435 260.5,346.5C 260.5,344.833 260.5,343.167 260.5,341.5C 261.674,340.486 262.34,339.153 262.5,337.5C 262.216,335.585 262.549,333.919 263.5,332.5 Z"/></g>
<g><path style="opacity:1" fill="#b9bfc6" d="M 361.5,343.5 C 361.5,344.833 361.5,346.167 361.5,347.5C 361.5,347.833 361.5,348.167 361.5,348.5C 360.313,350.072 359.313,351.739 358.5,353.5C 358.975,349.916 359.975,346.583 361.5,343.5 Z"/></g>
<g><path style="opacity:1" fill="#4f535d" d="M 260.5,346.5 C 259.85,348.435 259.517,350.435 259.5,352.5C 258.463,353.93 257.796,355.597 257.5,357.5C 257.167,357.5 256.833,357.5 256.5,357.5C 257.023,354.11 257.857,350.777 259,347.5C 259.383,346.944 259.883,346.611 260.5,346.5 Z"/></g>
<g><path style="opacity:1" fill="#b2b8bb" d="M 259.5,352.5 C 259.662,354.527 259.495,356.527 259,358.5C 258.617,359.056 258.117,359.389 257.5,359.5C 257.5,358.833 257.5,358.167 257.5,357.5C 257.796,355.597 258.463,353.93 259.5,352.5 Z"/></g>
<g><path style="opacity:1" fill="#767a80" d="M 361.5,348.5 C 360.537,352.101 359.87,355.767 359.5,359.5C 358.833,360.167 358.167,360.833 357.5,361.5C 357.5,360.833 357.5,360.167 357.5,359.5C 358.15,357.565 358.483,355.565 358.5,353.5C 359.313,351.739 360.313,350.072 361.5,348.5 Z"/></g>
<g><path style="opacity:1" fill="#3b444c" d="M 256.5,360.5 C 255.85,362.435 255.517,364.435 255.5,366.5C 255.167,366.5 254.833,366.5 254.5,366.5C 254.054,363.99 254.72,361.99 256.5,360.5 Z"/></g>
<g><path style="opacity:1" fill="#a8acb2" d="M 357.5,359.5 C 357.5,360.167 357.5,360.833 357.5,361.5C 357.5,362.833 357.5,364.167 357.5,365.5C 355.896,366.287 355.229,367.62 355.5,369.5C 355.5,370.167 355.5,370.833 355.5,371.5C 355.167,371.5 354.833,371.5 354.5,371.5C 354.5,370.167 354.5,368.833 354.5,367.5C 355.751,364.868 356.751,362.201 357.5,359.5 Z"/></g>
<g><path style="opacity:1" fill="#949aa2" d="M 256.5,357.5 C 256.833,357.5 257.167,357.5 257.5,357.5C 257.5,358.167 257.5,358.833 257.5,359.5C 257.662,361.527 257.495,363.527 257,365.5C 256.617,366.056 256.117,366.389 255.5,366.5C 255.517,364.435 255.85,362.435 256.5,360.5C 256.5,359.5 256.5,358.5 256.5,357.5 Z"/></g>
<g><path style="opacity:1" fill="#6e747b" d="M 357.5,365.5 C 357.771,367.38 357.104,368.713 355.5,369.5C 355.229,367.62 355.896,366.287 357.5,365.5 Z"/></g>
<g><path style="opacity:1" fill="#202830" d="M 359.5,359.5 C 359.125,363.871 358.459,368.204 357.5,372.5C 356.818,373.243 356.151,373.909 355.5,374.5C 355.5,373.5 355.5,372.5 355.5,371.5C 355.5,370.833 355.5,370.167 355.5,369.5C 357.104,368.713 357.771,367.38 357.5,365.5C 357.5,364.167 357.5,362.833 357.5,361.5C 358.167,360.833 358.833,360.167 359.5,359.5 Z"/></g>
<g><path style="opacity:1" fill="#dbe0e5" d="M 354.5,367.5 C 354.5,368.833 354.5,370.167 354.5,371.5C 353.85,373.435 353.517,375.435 353.5,377.5C 353.5,377.833 353.5,378.167 353.5,378.5C 352.833,379.167 352.167,379.833 351.5,380.5C 351.862,375.897 352.862,371.564 354.5,367.5 Z"/></g>
<g><path style="opacity:1" fill="#777d83" d="M 354.5,371.5 C 354.833,371.5 355.167,371.5 355.5,371.5C 355.5,372.5 355.5,373.5 355.5,374.5C 355.5,374.833 355.5,375.167 355.5,375.5C 354.833,376.167 354.167,376.833 353.5,377.5C 353.517,375.435 353.85,373.435 354.5,371.5 Z"/></g>
<g><path style="opacity:1" fill="#bbbfc2" d="M 353.5,378.5 C 353.5,379.5 353.5,380.5 353.5,381.5C 352.262,383.214 351.595,385.214 351.5,387.5C 349.684,389.617 349.35,391.951 350.5,394.5C 349.307,394.03 348.64,393.03 348.5,391.5C 349.614,387.749 350.614,384.082 351.5,380.5C 352.167,379.833 352.833,379.167 353.5,378.5 Z"/></g>
<g><path style="opacity:1" fill="#464b53" d="M 353.5,381.5 C 353.435,384.428 352.768,387.095 351.5,389.5C 351.5,388.833 351.5,388.167 351.5,387.5C 351.595,385.214 352.262,383.214 353.5,381.5 Z"/></g>
<g><path style="opacity:1" fill="#141b23" d="M 355.5,375.5 C 353.775,381.882 355.775,386.715 361.5,390C 386.306,391.096 410.972,391.93 435.5,392.5C 407.5,392.5 379.5,392.5 351.5,392.5C 351.5,391.5 351.5,390.5 351.5,389.5C 352.768,387.095 353.435,384.428 353.5,381.5C 353.5,380.5 353.5,379.5 353.5,378.5C 353.5,378.167 353.5,377.833 353.5,377.5C 354.167,376.833 354.833,376.167 355.5,375.5 Z"/></g>
<g><path style="opacity:1" fill="#282f36" d="M 250.5,383.5 C 250.5,387.167 250.5,390.833 250.5,394.5C 250.5,394.833 250.5,395.167 250.5,395.5C 249.313,393.26 248.646,390.76 248.5,388C 248.307,385.992 248.974,384.492 250.5,383.5 Z"/></g>
<g><path style="opacity:1" fill="#91979e" d="M 254.5,366.5 C 254.833,366.5 255.167,366.5 255.5,366.5C 255.5,368.167 255.5,369.833 255.5,371.5C 253.847,376.874 252.513,382.374 251.5,388C 251.481,391.719 252.148,395.219 253.5,398.5C 253.167,398.5 252.833,398.5 252.5,398.5C 252.5,398.167 252.5,397.833 252.5,397.5C 252.573,395.973 251.906,394.973 250.5,394.5C 250.5,390.833 250.5,387.167 250.5,383.5C 252.086,377.907 253.419,372.24 254.5,366.5 Z"/></g>
<g><path style="opacity:1" fill="#383f4a" d="M 351.5,392.5 C 379.5,392.5 407.5,392.5 435.5,392.5C 437.306,393.024 438.972,393.691 440.5,394.5C 439.833,394.5 439.167,394.5 438.5,394.5C 437.5,394.5 436.5,394.5 435.5,394.5C 407.5,393.833 379.5,393.167 351.5,392.5 Z"/></g>
<g><path style="opacity:1" fill="#81868d" d="M 351.5,387.5 C 351.5,388.167 351.5,388.833 351.5,389.5C 351.5,390.5 351.5,391.5 351.5,392.5C 379.5,393.167 407.5,393.833 435.5,394.5C 407.167,394.5 378.833,394.5 350.5,394.5C 349.35,391.951 349.684,389.617 351.5,387.5 Z"/></g>
<g><path style="opacity:1" fill="#cfd2da" d="M 350.5,394.5 C 378.833,394.5 407.167,394.5 435.5,394.5C 436.5,394.5 437.5,394.5 438.5,394.5C 439.306,395.728 440.306,396.728 441.5,397.5C 439.571,397.769 437.905,397.269 436.5,396C 407.664,395.832 378.997,395.332 350.5,394.5 Z"/></g>
<g><path style="opacity:1" fill="#737581" d="M 438.5,394.5 C 439.167,394.5 439.833,394.5 440.5,394.5C 441.9,395.1 442.9,396.1 443.5,397.5C 443.167,397.5 442.833,397.5 442.5,397.5C 442.167,397.5 441.833,397.5 441.5,397.5C 440.306,396.728 439.306,395.728 438.5,394.5 Z"/></g>
<g><path style="opacity:1" fill="#5a616d" d="M 250.5,394.5 C 251.906,394.973 252.573,395.973 252.5,397.5C 251.5,397.167 250.833,396.5 250.5,395.5C 250.5,395.167 250.5,394.833 250.5,394.5 Z"/></g>
<g><path style="opacity:1" fill="#aeb3bb" d="M 442.5,397.5 C 442.833,397.5 443.167,397.5 443.5,397.5C 444.492,397.328 445.158,397.662 445.5,398.5C 446.833,400.5 448.5,402.167 450.5,403.5C 451.338,403.842 451.672,404.508 451.5,405.5C 451.167,405.5 450.833,405.5 450.5,405.5C 447.452,403.118 444.785,400.452 442.5,397.5 Z"/></g>
<g><path style="opacity:1" fill="#565e64" d="M 445.5,398.5 C 448.167,399.167 449.833,400.833 450.5,403.5C 448.5,402.167 446.833,400.5 445.5,398.5 Z"/></g>
<g><path style="opacity:1" fill="#585f6a" d="M 252.5,398.5 C 252.833,398.5 253.167,398.5 253.5,398.5C 254.11,399.391 254.443,400.391 254.5,401.5C 253.094,401.027 252.427,400.027 252.5,398.5 Z"/></g>
<g><path style="opacity:1" fill="#5a606a" d="M 254.5,401.5 C 256.5,402.833 258.167,404.5 259.5,406.5C 256.833,405.833 255.167,404.167 254.5,401.5 Z"/></g>
<g><path style="opacity:1" fill="#70767d" d="M 259.5,406.5 C 261.027,406.427 262.027,407.094 262.5,408.5C 260.973,408.573 259.973,407.906 259.5,406.5 Z"/></g>
<g><path style="opacity:1" fill="#e4e9ec" d="M 255.5,371.5 C 255.021,375.854 254.354,380.188 253.5,384.5C 253.632,386.601 254.632,388.101 256.5,389C 254.556,391.153 254.056,393.653 255,396.5C 256.973,401.47 260.306,405.136 265,407.5C 285.64,408.15 306.14,408.817 326.5,409.5C 306.5,409.5 286.5,409.5 266.5,409.5C 265.609,408.89 264.609,408.557 263.5,408.5C 263.167,408.5 262.833,408.5 262.5,408.5C 262.027,407.094 261.027,406.427 259.5,406.5C 258.167,404.5 256.5,402.833 254.5,401.5C 254.443,400.391 254.11,399.391 253.5,398.5C 252.148,395.219 251.481,391.719 251.5,388C 252.513,382.374 253.847,376.874 255.5,371.5 Z"/></g>
<g><path style="opacity:1" fill="#7b818a" d="M 451.5,405.5 C 453.818,407.185 454.818,409.519 454.5,412.5C 454.806,415.385 454.473,418.052 453.5,420.5C 453.706,415.346 453.039,410.346 451.5,405.5 Z"/></g>
<g><path style="opacity:1" fill="#676f78" d="M 263.5,408.5 C 264.609,408.557 265.609,408.89 266.5,409.5C 266.5,409.833 266.5,410.167 266.5,410.5C 265.833,410.5 265.167,410.5 264.5,410.5C 264.167,409.833 263.833,409.167 263.5,408.5 Z"/></g>
<g><path style="opacity:1" fill="#656e71" d="M 268.5,410.5 C 287.833,410.5 307.167,410.5 326.5,410.5C 326.768,412.099 326.434,413.432 325.5,414.5C 325.5,413.5 325.5,412.5 325.5,411.5C 306.326,411.83 287.326,411.497 268.5,410.5 Z"/></g>
<g><path style="opacity:1" fill="#31383e" d="M 264.5,410.5 C 265.167,410.5 265.833,410.5 266.5,410.5C 267.167,410.5 267.833,410.5 268.5,410.5C 287.326,411.497 306.326,411.83 325.5,411.5C 325.5,412.5 325.5,413.5 325.5,414.5C 325.167,414.5 324.833,414.5 324.5,414.5C 305.86,412.676 286.86,411.843 267.5,412C 266.263,411.768 265.263,411.268 264.5,410.5 Z"/></g>
<g><path style="opacity:1" fill="#caced2" d="M 266.5,410.5 C 266.5,410.167 266.5,409.833 266.5,409.5C 286.5,409.5 306.5,409.5 326.5,409.5C 327.693,409.97 328.36,410.97 328.5,412.5C 327.358,416.429 326.524,420.429 326,424.5C 325.392,426.066 324.558,427.4 323.5,428.5C 323.5,427.167 323.5,425.833 323.5,424.5C 324.222,424.082 324.722,423.416 325,422.5C 325.497,419.854 325.664,417.187 325.5,414.5C 326.434,413.432 326.768,412.099 326.5,410.5C 307.167,410.5 287.833,410.5 268.5,410.5C 267.833,410.5 267.167,410.5 266.5,410.5 Z"/></g>
<g><path style="opacity:1" fill="#dadee6" d="M 450.5,405.5 C 450.833,405.5 451.167,405.5 451.5,405.5C 453.039,410.346 453.706,415.346 453.5,420.5C 453.371,422.216 453.038,423.883 452.5,425.5C 451.662,425.842 451.328,426.508 451.5,427.5C 449.97,428.211 448.637,429.211 447.5,430.5C 447.5,429.167 447.5,427.833 447.5,426.5C 448.5,426.5 449.5,426.5 450.5,426.5C 451.783,419.318 451.783,412.318 450.5,405.5 Z"/></g>
<g><path style="opacity:1" fill="#252c38" d="M 454.5,412.5 C 456.369,414.635 457.036,417.302 456.5,420.5C 456.5,420.833 456.5,421.167 456.5,421.5C 455,422.625 453.667,423.959 452.5,425.5C 453.038,423.883 453.371,422.216 453.5,420.5C 454.473,418.052 454.806,415.385 454.5,412.5 Z"/></g>
<g><path style="opacity:1" fill="#45484e" d="M 324.5,418.5 C 323.85,420.435 323.517,422.435 323.5,424.5C 323.167,424.5 322.833,424.5 322.5,424.5C 322.054,421.99 322.72,419.99 324.5,418.5 Z"/></g>
<g><path style="opacity:1" fill="#92969a" d="M 324.5,414.5 C 324.833,414.5 325.167,414.5 325.5,414.5C 325.664,417.187 325.497,419.854 325,422.5C 324.722,423.416 324.222,424.082 323.5,424.5C 323.517,422.435 323.85,420.435 324.5,418.5C 324.5,417.167 324.5,415.833 324.5,414.5 Z"/></g>
<g><path style="opacity:1" fill="#3e484e" d="M 322.5,426.5 C 322.204,428.403 321.537,430.07 320.5,431.5C 320.12,429.302 320.787,427.635 322.5,426.5 Z"/></g>
<g><path style="opacity:1" fill="#8f959b" d="M 322.5,424.5 C 322.833,424.5 323.167,424.5 323.5,424.5C 323.5,425.833 323.5,427.167 323.5,428.5C 323.5,428.833 323.5,429.167 323.5,429.5C 322.167,433.167 320.833,436.833 319.5,440.5C 319.517,438.435 319.85,436.435 320.5,434.5C 320.5,433.5 320.5,432.5 320.5,431.5C 321.537,430.07 322.204,428.403 322.5,426.5C 322.5,425.833 322.5,425.167 322.5,424.5 Z"/></g>
<g><path style="opacity:1" fill="#cdd1d8" d="M 447.5,430.5 C 447.5,431.167 447.5,431.833 447.5,432.5C 446.5,432.833 445.833,433.5 445.5,434.5C 445.167,434.5 444.833,434.5 444.5,434.5C 444.5,433.167 444.5,431.833 444.5,430.5C 445.5,430.5 446.5,430.5 447.5,430.5 Z"/></g>
<g><path style="opacity:1" fill="#717883" d="M 451.5,427.5 C 450.876,429.754 449.543,431.421 447.5,432.5C 447.5,431.833 447.5,431.167 447.5,430.5C 448.637,429.211 449.97,428.211 451.5,427.5 Z"/></g>
<g><path style="opacity:1" fill="#19232b" d="M 452.5,425.5 C 452.433,427.401 452.767,429.234 453.5,431C 451.68,432.807 450.513,434.973 450,437.5C 449.781,436.062 449.281,434.729 448.5,433.5C 447.095,435.907 445.095,437.574 442.5,438.5C 443.5,437.167 444.5,435.833 445.5,434.5C 445.833,433.5 446.5,432.833 447.5,432.5C 449.543,431.421 450.876,429.754 451.5,427.5C 451.328,426.508 451.662,425.842 452.5,425.5 Z"/></g>
<g><path style="opacity:1" fill="#42494f" d="M 320.5,434.5 C 319.85,436.435 319.517,438.435 319.5,440.5C 319.167,440.5 318.833,440.5 318.5,440.5C 318.054,437.99 318.72,435.99 320.5,434.5 Z"/></g>
<g><path style="opacity:1" fill="#dadfe5" d="M 441.5,437.5 C 437.029,441.785 433.029,446.452 429.5,451.5C 428.5,451.833 427.833,452.5 427.5,453.5C 425.589,454.075 423.922,455.075 422.5,456.5C 422.461,455.417 422.127,454.417 421.5,453.5C 425.906,453.095 428.239,450.761 428.5,446.5C 431.205,446.62 431.872,445.62 430.5,443.5C 431.833,442.833 433.167,442.167 434.5,441.5C 434.877,439.176 435.877,438.509 437.5,439.5C 438.524,438.147 439.857,437.48 441.5,437.5 Z"/></g>
<g><path style="opacity:1" fill="#6c717a" d="M 444.5,434.5 C 444.833,434.5 445.167,434.5 445.5,434.5C 444.5,435.833 443.5,437.167 442.5,438.5C 439.789,441.508 437.122,444.508 434.5,447.5C 432.833,448.833 431.167,450.167 429.5,451.5C 433.029,446.452 437.029,441.785 441.5,437.5C 442.167,436.167 443.167,435.167 444.5,434.5 Z"/></g>
<g><path style="opacity:1" fill="#515b61" d="M 318.5,441.5 C 318.167,444.167 317.833,446.833 317.5,449.5C 317.5,449.833 317.5,450.167 317.5,450.5C 316.076,452.515 315.41,454.848 315.5,457.5C 315.167,457.5 314.833,457.5 314.5,457.5C 315.204,451.884 316.537,446.551 318.5,441.5 Z"/></g>
<g><path style="opacity:1" fill="#acb2b8" d="M 318.5,440.5 C 318.833,440.5 319.167,440.5 319.5,440.5C 319.932,443.877 319.265,446.877 317.5,449.5C 317.833,446.833 318.167,444.167 318.5,441.5C 318.5,441.167 318.5,440.833 318.5,440.5 Z"/></g>
<g><path style="opacity:1" fill="#aeb8bf" d="M 317.5,450.5 C 317.829,453.228 317.163,455.562 315.5,457.5C 315.41,454.848 316.076,452.515 317.5,450.5 Z"/></g>
<g><path style="opacity:1" fill="#dae0e5" d="M 323.5,429.5 C 321.965,442.024 318.965,454.024 314.5,465.5C 314.5,464.167 314.5,462.833 314.5,461.5C 314.5,460.167 314.5,458.833 314.5,457.5C 314.833,457.5 315.167,457.5 315.5,457.5C 317.163,455.562 317.829,453.228 317.5,450.5C 317.5,450.167 317.5,449.833 317.5,449.5C 319.265,446.877 319.932,443.877 319.5,440.5C 320.833,436.833 322.167,433.167 323.5,429.5 Z"/></g>
<g><path style="opacity:1" fill="#525b5f" d="M 314.5,457.5 C 314.5,458.833 314.5,460.167 314.5,461.5C 313.833,462.5 313.167,463.5 312.5,464.5C 312.171,461.772 312.837,459.438 314.5,457.5 Z"/></g>
<g><path style="opacity:1" fill="#70767d" d="M 427.5,453.5 C 422.537,460.131 416.87,466.131 410.5,471.5C 410.5,471.167 410.5,470.833 410.5,470.5C 414.874,466.128 418.874,461.461 422.5,456.5C 423.922,455.075 425.589,454.075 427.5,453.5 Z"/></g>
<g><path style="opacity:1" fill="#9ba0a3" d="M 314.5,461.5 C 314.5,462.833 314.5,464.167 314.5,465.5C 313.833,466.5 313.167,467.5 312.5,468.5C 312.5,467.167 312.5,465.833 312.5,464.5C 313.167,463.5 313.833,462.5 314.5,461.5 Z"/></g>
<g><path style="opacity:1" fill="#3a414a" d="M 312.5,464.5 C 312.5,465.833 312.5,467.167 312.5,468.5C 311.833,469.167 311.167,469.833 310.5,470.5C 310.259,468.102 310.926,466.102 312.5,464.5 Z"/></g>
<g><path style="opacity:1" fill="#dbdddf" d="M 314.5,465.5 C 314.075,470.077 313.075,474.41 311.5,478.5C 311.5,477.5 311.5,476.5 311.5,475.5C 311.993,473.194 312.326,470.861 312.5,468.5C 313.167,467.5 313.833,466.5 314.5,465.5 Z"/></g>
<g><path style="opacity:1" fill="#cdcfd7" d="M 410.5,470.5 C 410.5,470.833 410.5,471.167 410.5,471.5C 409.833,471.5 409.5,471.833 409.5,472.5C 408.167,472.5 407.5,473.167 407.5,474.5C 406.833,474.5 406.167,474.5 405.5,474.5C 405.5,473.5 405.5,472.5 405.5,471.5C 407.216,471.371 408.883,471.038 410.5,470.5 Z"/></g>
<g><path style="opacity:1" fill="#717682" d="M 409.5,472.5 C 409.167,473.5 408.5,474.167 407.5,474.5C 407.5,473.167 408.167,472.5 409.5,472.5 Z"/></g>
<g><path style="opacity:1" fill="#81868c" d="M 312.5,468.5 C 312.326,470.861 311.993,473.194 311.5,475.5C 311.167,475.5 310.833,475.5 310.5,475.5C 310.5,473.833 310.5,472.167 310.5,470.5C 311.167,469.833 311.833,469.167 312.5,468.5 Z"/></g>
<g><path style="opacity:1" fill="#0a1420" d="M 456.5,421.5 C 457.289,421.783 457.956,422.283 458.5,423C 458.87,424.61 458.203,426.11 456.5,427.5C 457.25,429.93 457.583,432.264 457.5,434.5C 456.624,435.251 455.624,435.751 454.5,436C 457.612,436.851 457.946,438.017 455.5,439.5C 456.074,441.059 456.74,442.559 457.5,444C 455.257,446.774 452.59,448.107 449.5,448C 450.833,447.333 450.833,446.667 449.5,446C 450.167,445.667 450.833,445.333 451.5,445C 449.126,443.225 446.626,442.059 444,441.5C 439.519,445.161 438.686,449.494 441.5,454.5C 440.96,455.748 440.293,456.915 439.5,458C 440.167,458.333 440.833,458.667 441.5,459C 440.272,461.14 438.605,462.807 436.5,464C 437.167,464.333 437.833,464.667 438.5,465C 437.809,466.067 437.309,467.234 437,468.5C 436.667,467.5 436.333,466.5 436,465.5C 435.333,466.833 434.333,467.833 433,468.5C 432.749,470.433 432.249,472.266 431.5,474C 431.833,474.333 432.167,474.667 432.5,475C 430.231,475.758 428.064,475.591 426,474.5C 425.378,476.731 424.211,478.565 422.5,480C 426.279,481.11 426.446,482.61 423,484.5C 421.903,482.947 420.57,481.614 419,480.5C 418.779,483.943 417.779,484.276 416,481.5C 415.405,485.082 414.071,485.416 412,482.5C 410.795,483.071 409.628,483.738 408.5,484.5C 410.017,487.475 409.351,488.142 406.5,486.5C 405.062,486.719 403.729,487.219 402.5,488C 403.5,490.333 405.167,492 407.5,493C 406.534,494.678 405.201,495.345 403.5,495C 404.172,493.421 403.505,492.254 401.5,491.5C 398.742,489.418 399.075,487.751 402.5,486.5C 403.452,484.955 403.785,483.288 403.5,481.5C 405.103,481.688 406.437,481.188 407.5,480C 407.167,479.667 406.833,479.333 406.5,479C 408.008,477.493 409.341,475.827 410.5,474C 411.951,474.263 413.284,474.096 414.5,473.5C 415.145,472.268 415.311,470.935 415,469.5C 416.117,469.665 417.284,469.998 418.5,470.5C 418.736,469.753 419.07,468.92 419.5,468C 421.392,467.027 423.392,466.36 425.5,466C 424.833,465.667 424.167,465.333 423.5,465C 425.658,463.688 425.991,462.022 424.5,460C 426.225,460.409 427.892,460.242 429.5,459.5C 428.833,459.167 428.167,458.833 427.5,458.5C 429.038,456.881 429.872,455.214 430,453.5C 431.578,454.547 433.078,454.547 434.5,453.5C 433.624,452.749 432.624,452.249 431.5,452C 433.439,451.092 434.439,449.592 434.5,447.5C 437.122,444.508 439.789,441.508 442.5,438.5C 445.095,437.574 447.095,435.907 448.5,433.5C 449.281,434.729 449.781,436.062 450,437.5C 450.513,434.973 451.68,432.807 453.5,431C 452.767,429.234 452.433,427.401 452.5,425.5C 453.667,423.959 455,422.625 456.5,421.5 Z"/></g>
<g><path style="opacity:1" fill="#83838a" d="M 405.5,474.5 C 406.167,474.5 406.833,474.5 407.5,474.5C 406.5,476.167 405.167,477.5 403.5,478.5C 403.733,476.938 404.4,475.605 405.5,474.5 Z"/></g>
<g><path style="opacity:1" fill="#4e5866" d="M 310.5,475.5 C 310.204,477.403 309.537,479.07 308.5,480.5C 308.12,478.302 308.787,476.635 310.5,475.5 Z"/></g>
<g><path style="opacity:1" fill="#06131f" d="M 287.5,481.5 C 288.5,481.5 289.5,481.5 290.5,481.5C 290.838,484.011 290.838,486.345 290.5,488.5C 293.347,492.327 293.681,496.661 291.5,501.5C 293.171,506.459 292.671,511.126 290,515.5C 288.35,515.068 286.85,513.735 285.5,511.5C 286.603,505.448 286.603,499.614 285.5,494C 286.197,489.836 286.863,485.67 287.5,481.5 Z"/></g>
<g><path style="opacity:1" fill="#5b5c63" d="M 403.5,478.5 C 402.92,480.749 401.587,482.415 399.5,483.5C 399.5,483.167 399.5,482.833 399.5,482.5C 400.5,480.833 401.833,479.5 403.5,478.5 Z"/></g>
<g><path style="opacity:1" fill="#121921" d="M 434.5,447.5 C 434.439,449.592 433.439,451.092 431.5,452C 432.624,452.249 433.624,452.749 434.5,453.5C 433.078,454.547 431.578,454.547 430,453.5C 429.872,455.214 429.038,456.881 427.5,458.5C 428.167,458.833 428.833,459.167 429.5,459.5C 427.892,460.242 426.225,460.409 424.5,460C 425.991,462.022 425.658,463.688 423.5,465C 424.167,465.333 424.833,465.667 425.5,466C 423.392,466.36 421.392,467.027 419.5,468C 419.07,468.92 418.736,469.753 418.5,470.5C 417.284,469.998 416.117,469.665 415,469.5C 415.311,470.935 415.145,472.268 414.5,473.5C 413.284,474.096 411.951,474.263 410.5,474C 409.341,475.827 408.008,477.493 406.5,479C 406.833,479.333 407.167,479.667 407.5,480C 406.437,481.188 405.103,481.688 403.5,481.5C 403.785,483.288 403.452,484.955 402.5,486.5C 399.075,487.751 398.742,489.418 401.5,491.5C 401.058,492.231 400.891,493.231 401,494.5C 400.23,493.402 399.397,493.402 398.5,494.5C 397.065,493.904 395.398,493.904 393.5,494.5C 393.719,495.675 393.386,496.675 392.5,497.5C 391.231,499.18 389.564,500.347 387.5,501C 389.929,501.451 390.096,502.285 388,503.5C 385.771,503.051 384.104,503.051 383,503.5C 383.969,507.691 382.802,508.358 379.5,505.5C 380.167,504.5 380.833,503.5 381.5,502.5C 387.287,495.892 393.287,489.558 399.5,483.5C 401.587,482.415 402.92,480.749 403.5,478.5C 405.167,477.5 406.5,476.167 407.5,474.5C 408.5,474.167 409.167,473.5 409.5,472.5C 409.5,471.833 409.833,471.5 410.5,471.5C 416.87,466.131 422.537,460.131 427.5,453.5C 427.833,452.5 428.5,451.833 429.5,451.5C 431.167,450.167 432.833,448.833 434.5,447.5 Z"/></g>
<g><path style="opacity:1" fill="#40484d" d="M 308.5,482.5 C 308.204,484.403 307.537,486.07 306.5,487.5C 306.077,485.219 306.744,483.552 308.5,482.5 Z"/></g>
<g><path style="opacity:1" fill="#9ca3a9" d="M 310.5,475.5 C 310.833,475.5 311.167,475.5 311.5,475.5C 311.5,476.5 311.5,477.5 311.5,478.5C 308.651,485.577 306.651,492.91 305.5,500.5C 305.167,500.5 304.833,500.5 304.5,500.5C 304.5,499.833 304.5,499.167 304.5,498.5C 304.5,497.5 304.5,496.5 304.5,495.5C 305.537,494.07 306.204,492.403 306.5,490.5C 306.5,489.5 306.5,488.5 306.5,487.5C 307.537,486.07 308.204,484.403 308.5,482.5C 308.5,481.833 308.5,481.167 308.5,480.5C 309.537,479.07 310.204,477.403 310.5,475.5 Z"/></g>
<g><path style="opacity:1" fill="#41484f" d="M 306.5,490.5 C 306.204,492.403 305.537,494.07 304.5,495.5C 304.12,493.302 304.787,491.635 306.5,490.5 Z"/></g>
<g><path style="opacity:1" fill="#83898e" d="M 399.5,482.5 C 399.5,482.833 399.5,483.167 399.5,483.5C 393.287,489.558 387.287,495.892 381.5,502.5C 381.167,502.5 380.833,502.5 380.5,502.5C 380.5,501.833 380.5,501.167 380.5,500.5C 386.504,494.988 392.171,489.155 397.5,483C 398.094,482.536 398.761,482.369 399.5,482.5 Z"/></g>
<g><path style="opacity:1" fill="#d8dee4" d="M 380.5,500.5 C 380.5,501.167 380.5,501.833 380.5,502.5C 378.183,503.82 376.183,505.486 374.5,507.5C 374.5,506.167 374.5,504.833 374.5,503.5C 375.5,503.5 376.5,503.5 377.5,503.5C 377.5,502.5 377.5,501.5 377.5,500.5C 378.5,500.5 379.5,500.5 380.5,500.5 Z"/></g>
<g><path style="opacity:1" fill="#646873" d="M 304.5,498.5 C 304.5,499.167 304.5,499.833 304.5,500.5C 304.204,502.403 303.537,504.07 302.5,505.5C 302.171,502.772 302.837,500.438 304.5,498.5 Z"/></g>
<g><path style="opacity:1" fill="#6d7177" d="M 380.5,502.5 C 380.833,502.5 381.167,502.5 381.5,502.5C 380.833,503.5 380.167,504.5 379.5,505.5C 376.212,508.449 372.879,511.449 369.5,514.5C 370.754,511.907 372.42,509.573 374.5,507.5C 376.183,505.486 378.183,503.82 380.5,502.5 Z"/></g>
<g><path style="opacity:1" fill="#06181f" d="M 401.5,507.5 C 403.199,507.34 404.866,507.506 406.5,508C 406.665,509.837 407.332,511.837 408.5,514C 405.489,513.198 402.489,513.365 399.5,514.5C 399.966,512.799 399.966,511.299 399.5,510C 400.756,509.583 401.423,508.75 401.5,507.5 Z"/></g>
<g><path style="opacity:1" fill="#c8cbd2" d="M 304.5,500.5 C 304.833,500.5 305.167,500.5 305.5,500.5C 303.879,513.533 300.713,526.2 296,538.5C 295.24,542.819 294.573,547.152 294,551.5C 293.148,552.571 292.315,553.571 291.5,554.5C 291.833,551.833 292.167,549.167 292.5,546.5C 294.011,543.456 294.678,540.122 294.5,536.5C 296.074,534.898 296.741,532.898 296.5,530.5C 297.924,528.485 298.59,526.152 298.5,523.5C 299.924,521.485 300.59,519.152 300.5,516.5C 300.5,515.833 300.5,515.167 300.5,514.5C 300.5,513.167 300.5,511.833 300.5,510.5C 301.309,508.972 301.976,507.306 302.5,505.5C 303.537,504.07 304.204,502.403 304.5,500.5 Z"/></g>
<g><path style="opacity:1" fill="#0c1621" d="M 398.5,494.5 C 397.304,497.543 395.47,500.209 393,502.5C 392.667,502.167 392.333,501.833 392,501.5C 391.751,502.624 391.251,503.624 390.5,504.5C 387.659,506.086 384.993,507.92 382.5,510C 383.731,511.183 383.731,512.349 382.5,513.5C 381.146,511.816 379.479,511.316 377.5,512C 378.448,512.483 379.448,512.649 380.5,512.5C 380.5,513.5 380.5,514.5 380.5,515.5C 379.448,515.351 378.448,515.517 377.5,516C 377.833,516.333 378.167,516.667 378.5,517C 377.506,518.329 376.506,519.662 375.5,521C 377.988,523.268 377.321,524.601 373.5,525C 375.004,526.337 376.004,528.004 376.5,530C 374.506,529.343 373.006,527.843 372,525.5C 373.053,528.518 372.053,530.852 369,532.5C 366.925,529.972 366.092,530.139 366.5,533C 364.075,533.293 362.242,534.459 361,536.5C 360.195,534.099 359.362,534.266 358.5,537C 359.022,537.561 359.355,538.228 359.5,539C 358.66,540.171 357.827,541.338 357,542.5C 355.197,542.094 353.364,542.594 351.5,544C 353.384,544.216 355.051,544.883 356.5,546C 353.513,548.044 350.346,548.544 347,547.5C 345.036,549.853 344.536,552.353 345.5,555C 343.519,555.605 343.185,556.605 344.5,558C 342.68,559.805 341.514,561.972 341,564.5C 339.795,563.929 338.628,563.262 337.5,562.5C 338.167,562.167 338.833,561.833 339.5,561.5C 339,561.167 338.5,560.833 338,560.5C 336.806,562.024 335.306,563.19 333.5,564C 333.833,564.333 334.167,564.667 334.5,565C 331.063,565.993 328.563,568.16 327,571.5C 325.951,570.483 324.784,570.316 323.5,571C 325.002,571.583 326.335,572.416 327.5,573.5C 325.5,574.833 323.5,574.833 321.5,573.5C 322.879,572.137 322.713,571.137 321,570.5C 319.287,571.137 319.121,572.137 320.5,573.5C 318.944,575.701 317.777,575.701 317,573.5C 315.318,574.865 315.151,576.365 316.5,578C 314.959,579.579 313.792,581.413 313,583.5C 312.667,582.833 312.333,582.167 312,581.5C 311.51,582.793 311.343,584.127 311.5,585.5C 308.203,585.329 307.869,585.995 310.5,587.5C 311.221,589.686 311.887,591.853 312.5,594C 312,594.5 311.5,595 311,595.5C 310.135,593.775 309.469,592.108 309,590.5C 308.424,593.124 307.09,593.791 305,592.5C 304.833,592.833 304.667,593.167 304.5,593.5C 305.376,594.251 306.376,594.751 307.5,595C 306.146,596.294 304.812,596.46 303.5,595.5C 302.289,596.274 302.289,597.107 303.5,598C 301.817,600.21 299.817,600.71 297.5,599.5C 295.579,601.469 295.579,602.969 297.5,604C 292.767,604.608 291.767,606.608 294.5,610C 294.167,610.333 293.833,610.667 293.5,611C 289.593,611.677 285.759,612.51 282,613.5C 280.15,611.038 278.983,611.538 278.5,615C 277.167,615.333 275.833,615.667 274.5,616C 275.91,616.368 276.91,617.201 277.5,618.5C 275.922,619.298 274.256,619.798 272.5,620C 273.888,620.889 273.722,621.389 272,621.5C 271.228,621.355 270.561,621.022 270,620.5C 268.225,622.394 266.225,624.061 264,625.5C 262.635,624.407 262.301,623.074 263,621.5C 267.632,619.692 271.132,617.192 273.5,614C 271.855,612.2 270.522,610.2 269.5,608C 270.016,605.967 269.35,605.967 267.5,608C 268.861,609.584 269.528,611.418 269.5,613.5C 267.508,613.672 265.842,613.005 264.5,611.5C 263.096,612.999 262.43,612.666 262.5,610.5C 262.919,609.328 263.585,608.328 264.5,607.5C 261.942,605.88 261.942,604.38 264.5,603C 261.833,602 261.833,601 264.5,600C 263.692,599.692 263.025,599.192 262.5,598.5C 263.989,598.467 265.322,597.967 266.5,597C 265.701,592.504 266.534,592.337 269,596.5C 269.582,593.332 270.582,592.999 272,595.5C 273.716,594.448 274.716,595.114 275,597.5C 275.333,597.167 275.667,596.833 276,596.5C 276.992,586.206 277.658,575.873 278,565.5C 280.021,566.236 281.521,565.403 282.5,563C 281.446,561.612 281.28,560.112 282,558.5C 282.423,559.956 283.256,560.456 284.5,560C 283.505,556.275 283.839,552.608 285.5,549C 282.158,546.957 279.491,544.29 277.5,541C 277.937,538.783 277.937,536.449 277.5,534C 278.167,533.667 278.833,533.333 279.5,533C 278.289,532.107 278.289,531.274 279.5,530.5C 282.354,534.599 283.854,534.266 284,529.5C 286.544,530.119 289.044,529.619 291.5,528C 290.833,527.667 290.167,527.333 289.5,527C 290.931,526.535 292.097,525.701 293,524.5C 294.241,520.288 294.408,516.121 293.5,512C 294.167,511.667 294.833,511.333 295.5,511C 294.57,509.605 294.57,508.105 295.5,506.5C 295.182,505.353 294.516,504.519 293.5,504C 294.448,503.517 295.448,503.351 296.5,503.5C 296.337,505.857 296.503,508.19 297,510.5C 298.145,509.316 299.312,509.316 300.5,510.5C 300.5,511.833 300.5,513.167 300.5,514.5C 297.635,517.413 296.301,521.079 296.5,525.5C 296.5,527.167 296.5,528.833 296.5,530.5C 294.926,532.102 294.259,534.102 294.5,536.5C 292.825,539.507 292.159,542.84 292.5,546.5C 290.748,551.636 289.414,556.969 288.5,562.5C 287.072,565.303 286.405,568.303 286.5,571.5C 284.528,574.084 283.528,577.084 283.5,580.5C 282.566,581.568 282.232,582.901 282.5,584.5C 280.837,586.438 280.171,588.772 280.5,591.5C 280.5,591.833 280.5,592.167 280.5,592.5C 278.72,593.99 278.054,595.99 278.5,598.5C 278.5,600.5 278.5,602.5 278.5,604.5C 278.167,604.5 277.833,604.5 277.5,604.5C 276.539,606.265 276.205,608.265 276.5,610.5C 278.38,610.771 279.713,610.104 280.5,608.5C 282.262,607.738 283.262,606.404 283.5,604.5C 289.205,599.796 294.205,594.463 298.5,588.5C 299.5,588.167 300.167,587.5 300.5,586.5C 301.5,586.167 302.167,585.5 302.5,584.5C 304.754,583.876 306.421,582.543 307.5,580.5C 308.833,578.833 310.167,577.167 311.5,575.5C 311.5,574.833 311.833,574.5 312.5,574.5C 314.5,573.167 316.167,571.5 317.5,569.5C 319.833,566.5 322.5,563.833 325.5,561.5C 328.243,559.761 330.243,557.427 331.5,554.5C 333.475,552.863 335.475,551.196 337.5,549.5C 340.573,547.431 342.906,544.764 344.5,541.5C 344.5,541.167 344.5,540.833 344.5,540.5C 347.833,537.833 350.833,534.833 353.5,531.5C 355.833,528.833 358.167,526.167 360.5,523.5C 361.5,522.833 362.5,522.167 363.5,521.5C 365.156,519.54 366.823,517.54 368.5,515.5C 368.5,514.833 368.833,514.5 369.5,514.5C 372.879,511.449 376.212,508.449 379.5,505.5C 382.802,508.358 383.969,507.691 383,503.5C 384.104,503.051 385.771,503.051 388,503.5C 390.096,502.285 389.929,501.451 387.5,501C 389.564,500.347 391.231,499.18 392.5,497.5C 393.386,496.675 393.719,495.675 393.5,494.5C 395.398,493.904 397.065,493.904 398.5,494.5 Z"/></g>
<g><path style="opacity:1" fill="#8d9095" d="M 340.5,544.5 C 340.167,545.5 339.5,546.167 338.5,546.5C 338.5,545.167 339.167,544.5 340.5,544.5 Z"/></g>
<g><path style="opacity:1" fill="#303338" d="M 344.5,541.5 C 342.906,544.764 340.573,547.431 337.5,549.5C 337.557,548.391 337.89,547.391 338.5,546.5C 339.5,546.167 340.167,545.5 340.5,544.5C 341.5,544.167 342.167,543.5 342.5,542.5C 343.167,542.167 343.833,541.833 344.5,541.5 Z"/></g>
<g><path style="opacity:1" fill="#8e8e8e" d="M 342.5,542.5 C 342.167,543.5 341.5,544.167 340.5,544.5C 340.5,543.167 341.167,542.5 342.5,542.5 Z"/></g>
<g><path style="opacity:1" fill="#60616b" d="M 294.5,536.5 C 294.678,540.122 294.011,543.456 292.5,546.5C 292.159,542.84 292.825,539.507 294.5,536.5 Z"/></g>
<g><path style="opacity:1" fill="#828287" d="M 344.5,540.5 C 344.5,540.833 344.5,541.167 344.5,541.5C 343.833,541.833 343.167,542.167 342.5,542.5C 342.5,541.167 343.167,540.5 344.5,540.5 Z"/></g>
<g><path style="opacity:1" fill="#757b82" d="M 352.5,531.5 C 352.833,531.5 353.167,531.5 353.5,531.5C 350.833,534.833 347.833,537.833 344.5,540.5C 346.43,536.9 349.097,533.9 352.5,531.5 Z"/></g>
<g><path style="opacity:1" fill="#5d5f6b" d="M 296.5,530.5 C 296.741,532.898 296.074,534.898 294.5,536.5C 294.259,534.102 294.926,532.102 296.5,530.5 Z"/></g>
<g><path style="opacity:1" fill="#757883" d="M 298.5,523.5 C 298.59,526.152 297.924,528.485 296.5,530.5C 296.5,528.833 296.5,527.167 296.5,525.5C 297.167,524.833 297.833,524.167 298.5,523.5 Z"/></g>
<g><path style="opacity:1" fill="#9b9fa4" d="M 360.5,523.5 C 358.167,526.167 355.833,528.833 353.5,531.5C 353.167,531.5 352.833,531.5 352.5,531.5C 354.167,527.833 356.833,525.167 360.5,523.5 Z"/></g>
<g><path style="opacity:1" fill="#8c9099" d="M 300.5,516.5 C 300.59,519.152 299.924,521.485 298.5,523.5C 298.41,520.848 299.076,518.515 300.5,516.5 Z"/></g>
<g><path style="opacity:1" fill="#97999f" d="M 364.5,518.5 C 363.89,519.391 363.557,520.391 363.5,521.5C 362.5,522.167 361.5,522.833 360.5,523.5C 361.136,521.205 362.469,519.539 364.5,518.5 Z"/></g>
<g><path style="opacity:1" fill="#2b313d" d="M 300.5,514.5 C 300.5,515.167 300.5,515.833 300.5,516.5C 299.076,518.515 298.41,520.848 298.5,523.5C 297.833,524.167 297.167,524.833 296.5,525.5C 296.301,521.079 297.635,517.413 300.5,514.5 Z"/></g>
<g><path style="opacity:1" fill="#71757d" d="M 368.5,515.5 C 366.823,517.54 365.156,519.54 363.5,521.5C 363.557,520.391 363.89,519.391 364.5,518.5C 364.833,517.833 365.167,517.167 365.5,516.5C 366.391,515.89 367.391,515.557 368.5,515.5 Z"/></g>
<g><path style="opacity:1" fill="#dedee0" d="M 374.5,507.5 C 372.42,509.573 370.754,511.907 369.5,514.5C 368.833,514.5 368.5,514.833 368.5,515.5C 367.391,515.557 366.391,515.89 365.5,516.5C 367.362,512.949 369.695,509.616 372.5,506.5C 373.183,506.863 373.85,507.196 374.5,507.5 Z"/></g>
<g><path style="opacity:1" fill="#777c83" d="M 338.5,546.5 C 337.89,547.391 337.557,548.391 337.5,549.5C 335.475,551.196 333.475,552.863 331.5,554.5C 331.167,554.5 330.833,554.5 330.5,554.5C 332.833,551.5 335.5,548.833 338.5,546.5 Z"/></g>
<g><path style="opacity:1" fill="#a9abb1" d="M 330.5,554.5 C 330.167,555.5 329.5,556.167 328.5,556.5C 328.5,555.167 329.167,554.5 330.5,554.5 Z"/></g>
<g><path style="opacity:1" fill="#4a4f56" d="M 330.5,554.5 C 330.833,554.5 331.167,554.5 331.5,554.5C 330.243,557.427 328.243,559.761 325.5,561.5C 325.557,560.391 325.89,559.391 326.5,558.5C 327.5,558.167 328.167,557.5 328.5,556.5C 329.5,556.167 330.167,555.5 330.5,554.5 Z"/></g>
<g><path style="opacity:1" fill="#81868b" d="M 292.5,546.5 C 292.167,549.167 291.833,551.833 291.5,554.5C 290.833,557.167 290.167,559.833 289.5,562.5C 289.167,562.5 288.833,562.5 288.5,562.5C 289.414,556.969 290.748,551.636 292.5,546.5 Z"/></g>
<g><path style="opacity:1" fill="#9ea4ab" d="M 288.5,562.5 C 288.833,562.5 289.167,562.5 289.5,562.5C 289.5,563.833 289.5,565.167 289.5,566.5C 287.891,569.149 287.057,572.149 287,575.5C 286.617,576.056 286.117,576.389 285.5,576.5C 286.038,574.883 286.371,573.216 286.5,571.5C 286.405,568.303 287.072,565.303 288.5,562.5 Z"/></g>
<g><path style="opacity:1" fill="#92969d" d="M 326.5,558.5 C 325.89,559.391 325.557,560.391 325.5,561.5C 322.5,563.833 319.833,566.5 317.5,569.5C 317.167,569.5 316.833,569.5 316.5,569.5C 319.152,565.183 322.485,561.516 326.5,558.5 Z"/></g>
<g><path style="opacity:1" fill="#686e76" d="M 316.5,569.5 C 316.833,569.5 317.167,569.5 317.5,569.5C 316.167,571.5 314.5,573.167 312.5,574.5C 312.5,573.833 312.5,573.167 312.5,572.5C 313.833,571.5 315.167,570.5 316.5,569.5 Z"/></g>
<g><path style="opacity:1" fill="#b9bcc3" d="M 312.5,572.5 C 312.5,573.167 312.5,573.833 312.5,574.5C 311.833,574.5 311.5,574.833 311.5,575.5C 311.167,575.5 310.833,575.5 310.5,575.5C 310.285,573.821 310.952,572.821 312.5,572.5 Z"/></g>
<g><path style="opacity:1" fill="#5c666d" d="M 286.5,571.5 C 286.371,573.216 286.038,574.883 285.5,576.5C 285.5,577.167 285.5,577.833 285.5,578.5C 284.833,579.167 284.167,579.833 283.5,580.5C 283.528,577.084 284.528,574.084 286.5,571.5 Z"/></g>
<g><path style="opacity:1" fill="#7c7f86" d="M 310.5,575.5 C 310.833,575.5 311.167,575.5 311.5,575.5C 310.167,577.167 308.833,578.833 307.5,580.5C 307.167,580.5 306.833,580.5 306.5,580.5C 307.08,578.251 308.413,576.585 310.5,575.5 Z"/></g>
<g><path style="opacity:1" fill="#a8b0b6" d="M 285.5,578.5 C 285.741,580.898 285.074,582.898 283.5,584.5C 283.5,583.167 283.5,581.833 283.5,580.5C 284.167,579.833 284.833,579.167 285.5,578.5 Z"/></g>
<g><path style="opacity:1" fill="#565b67" d="M 306.5,580.5 C 306.833,580.5 307.167,580.5 307.5,580.5C 306.421,582.543 304.754,583.876 302.5,584.5C 303.326,582.736 304.659,581.402 306.5,580.5 Z"/></g>
<g><path style="opacity:1" fill="#878b92" d="M 300.5,584.5 C 301.167,584.5 301.833,584.5 302.5,584.5C 302.167,585.5 301.5,586.167 300.5,586.5C 300.5,585.833 300.5,585.167 300.5,584.5 Z"/></g>
<g><path style="opacity:1" fill="#333b43" d="M 282.5,584.5 C 282.371,586.216 282.038,587.883 281.5,589.5C 281.672,590.492 281.338,591.158 280.5,591.5C 280.171,588.772 280.837,586.438 282.5,584.5 Z"/></g>
<g><path style="opacity:1" fill="#7a8289" d="M 283.5,580.5 C 283.5,581.833 283.5,583.167 283.5,584.5C 283.88,586.698 283.213,588.365 281.5,589.5C 282.038,587.883 282.371,586.216 282.5,584.5C 282.232,582.901 282.566,581.568 283.5,580.5 Z"/></g>
<g><path style="opacity:1" fill="#8b9095" d="M 300.5,586.5 C 300.167,587.5 299.5,588.167 298.5,588.5C 298.5,587.167 299.167,586.5 300.5,586.5 Z"/></g>
<g><path style="opacity:1" fill="#e5e9ee" d="M 289.5,566.5 C 288.617,570.485 288.617,574.651 289.5,579C 287.006,581.423 287.006,583.756 289.5,586C 288.167,588.605 286.167,590.605 283.5,592C 285.339,593.132 287.339,593.965 289.5,594.5C 290.536,591.541 292.036,588.875 294,586.5C 295.011,587.337 296.178,587.67 297.5,587.5C 297.5,586.5 297.5,585.5 297.5,584.5C 298.5,584.5 299.5,584.5 300.5,584.5C 300.5,585.167 300.5,585.833 300.5,586.5C 299.167,586.5 298.5,587.167 298.5,588.5C 292.823,593.178 287.823,598.511 283.5,604.5C 283.167,604.5 282.833,604.5 282.5,604.5C 280.824,603.817 280.157,602.483 280.5,600.5C 280.5,599.167 280.5,597.833 280.5,596.5C 280.5,595.167 280.5,593.833 280.5,592.5C 280.5,592.167 280.5,591.833 280.5,591.5C 281.338,591.158 281.672,590.492 281.5,589.5C 283.213,588.365 283.88,586.698 283.5,584.5C 285.074,582.898 285.741,580.898 285.5,578.5C 285.5,577.833 285.5,577.167 285.5,576.5C 286.117,576.389 286.617,576.056 287,575.5C 287.057,572.149 287.891,569.149 289.5,566.5 Z"/></g>
<g><path style="opacity:1" fill="#383f48" d="M 280.5,592.5 C 280.5,593.833 280.5,595.167 280.5,596.5C 279.833,597.167 279.167,597.833 278.5,598.5C 278.054,595.99 278.72,593.99 280.5,592.5 Z"/></g>
<g><path style="opacity:1" fill="#777c82" d="M 298.5,588.5 C 294.205,594.463 289.205,599.796 283.5,604.5C 287.823,598.511 292.823,593.178 298.5,588.5 Z"/></g>
<g><path style="opacity:1" fill="#8a929a" d="M 280.5,596.5 C 280.5,597.833 280.5,599.167 280.5,600.5C 279.833,601.833 279.167,603.167 278.5,604.5C 278.5,602.5 278.5,600.5 278.5,598.5C 279.167,597.833 279.833,597.167 280.5,596.5 Z"/></g>
<g><path style="opacity:1" fill="#bec6cf" d="M 280.5,600.5 C 280.157,602.483 280.824,603.817 282.5,604.5C 281.4,605.605 280.733,606.938 280.5,608.5C 279.504,608.414 278.671,608.748 278,609.5C 277.506,607.866 277.34,606.199 277.5,604.5C 277.833,604.5 278.167,604.5 278.5,604.5C 279.167,603.167 279.833,601.833 280.5,600.5 Z"/></g>
<g><path style="opacity:1" fill="#586170" d="M 277.5,604.5 C 277.34,606.199 277.506,607.866 278,609.5C 278.671,608.748 279.504,608.414 280.5,608.5C 279.713,610.104 278.38,610.771 276.5,610.5C 276.205,608.265 276.539,606.265 277.5,604.5 Z"/></g>
<g><path style="opacity:1" fill="#585d65" d="M 282.5,604.5 C 282.833,604.5 283.167,604.5 283.5,604.5C 283.262,606.404 282.262,607.738 280.5,608.5C 280.733,606.938 281.4,605.605 282.5,604.5 Z"/></g>
</svg>
