<svg viewBox="0 0 128 138" fill="none" xmlns="http://www.w3.org/2000/svg">
<rect width="128" height="138" fill="#8B8B8B"/>
<path d="M-624 -1305C-624 -1306.1 -623.105 -1307 -622 -1307H1352C1353.1 -1307 1354 -1306.1 1354 -1305V7854C1354 7855.1 1353.1 7856 1352 7856H-622C-623.105 7856 -624 7855.1 -624 7854V-1305Z" fill="#404040"/>
<path d="M-622 -1306H1352V-1308H-622V-1306ZM1353 -1305V7854H1355V-1305H1353ZM1352 7855H-622V7857H1352V7855ZM-623 7854V-1305H-625V7854H-623ZM-622 7855C-622.552 7855 -623 7854.55 -623 7854H-625C-625 7855.66 -623.657 7857 -622 7857V7855ZM1353 7854C1353 7854.55 1352.55 7855 1352 7855V7857C1353.66 7857 1355 7855.66 1355 7854H1353ZM1352 -1306C1352.55 -1306 1353 -1305.55 1353 -1305H1355C1355 -1306.66 1353.66 -1308 1352 -1308V-1306ZM-622 -1308C-623.657 -1308 -625 -1306.66 -625 -1305H-623C-623 -1305.55 -622.552 -1306 -622 -1306V-1308Z" fill="white" fill-opacity="0.1"/>
<g clip-path="url(#clip0_4004_17482)">
<rect width="1512" height="8826" transform="translate(-373 -1130)" fill="#FAFAFA"/>
<rect x="-373" y="-1130" width="1512" height="6123" fill="#FAFAFA"/>
<g filter="url(#filter0_d_4004_17482)">
<rect x="-240" y="-81" width="608" height="300" rx="45" fill="#FAFAFA"/>
<rect x="-239.5" y="-80.5" width="607" height="299" rx="44.5" stroke="#191A23"/>
<path d="M116.339 0.871094C109.883 0.871094 104.65 6.10226 104.65 12.5553C104.65 13.6486 104.8 14.7069 105.081 15.7106C111.691 12.9829 119.232 11.3849 127.956 11.2473C127.306 5.40997 122.353 0.871094 116.339 0.871094Z" fill="black"/>
<path d="M128 13.3826C119.53 13.515 112.232 15.0624 105.844 17.7062C107.749 21.5762 111.733 24.2394 116.339 24.2394C122.517 24.2394 127.575 19.4495 128 13.3826Z" fill="black"/>
<path d="M102.241 16.978V12.7479C89.3236 12.7479 78.8515 23.2151 78.8515 36.1271V36.9173C80.7741 34.3951 82.8026 31.9921 84.9613 29.7408C89.9348 24.5539 95.598 20.173 102.241 16.978Z" fill="black"/>
<path d="M78.8515 40.5081C81.2261 37.199 83.7584 34.0811 86.5028 31.219C91.0733 26.4525 96.2334 22.395 102.241 19.359V92.6299C102.241 105.542 91.7693 116.009 78.8515 116.009V40.5081Z" fill="black"/>
<path d="M72.2662 46.5852C68.1064 40.1139 60.8409 35.8269 52.5738 35.8269V84.1873C54.724 80.078 56.8152 75.8566 58.9197 71.6081L58.9239 71.5996C59.1896 71.0632 59.4556 70.5263 59.7219 69.9892C63.6677 62.0306 67.6912 54.0191 72.2662 46.5852Z" fill="black"/>
<path d="M52.5738 88.733C55.4105 83.5057 58.0959 78.0837 60.7786 72.667C61.0642 72.0905 61.3497 71.514 61.6353 70.9378C65.4156 63.3131 69.2238 55.7367 73.4761 48.7027C75.0675 51.8606 75.9636 55.4286 75.9636 59.2058V137.129C63.0459 137.129 52.5738 126.662 52.5738 113.75V88.733Z" fill="black"/>
<path d="M49.6859 89.5555V56.414C36.768 56.414 26.2959 66.881 26.2959 79.7929V118.47C29.8008 115.964 32.9771 113.02 35.9089 109.736C41.1273 103.891 45.5642 96.9821 49.6859 89.5555Z" fill="black"/>
<path d="M26.2959 121.067C30.4322 118.288 34.1301 114.935 37.5021 111.158C42.0596 106.054 46.0268 100.167 49.6859 93.8798V106.207C49.6859 119.119 39.2139 129.586 26.2959 129.586V121.067Z" fill="black"/>
<path d="M22.2122 121.096C22.9764 118.786 23.3899 116.316 23.3899 113.75V96.1345C10.472 96.1345 0 106.602 0 119.514V127.457C8.66489 126.975 15.939 124.699 22.2122 121.096Z" fill="black"/>
<path d="M0 129.596C8.01279 129.165 14.8976 127.255 20.9208 124.217C17.079 131.874 9.15355 137.129 0 137.129V129.596Z" fill="black"/>
</g>
</g>
<defs>
<filter id="filter0_d_4004_17482" x="-240" y="-81" width="608" height="305" filterUnits="userSpaceOnUse" color-interpolation-filters="sRGB">
<feFlood flood-opacity="0" result="BackgroundImageFix"/>
<feColorMatrix in="SourceAlpha" type="matrix" values="0 0 0 0 0 0 0 0 0 0 0 0 0 0 0 0 0 0 127 0" result="hardAlpha"/>
<feOffset dy="5"/>
<feComposite in2="hardAlpha" operator="out"/>
<feColorMatrix type="matrix" values="0 0 0 0 0.0980392 0 0 0 0 0.101961 0 0 0 0 0.137255 0 0 0 1 0"/>
<feBlend mode="normal" in2="BackgroundImageFix" result="effect1_dropShadow_4004_17482"/>
<feBlend mode="normal" in="SourceGraphic" in2="effect1_dropShadow_4004_17482" result="shape"/>
</filter>
<clipPath id="clip0_4004_17482">
<rect width="1512" height="8826" fill="white" transform="translate(-373 -1130)"/>
</clipPath>
</defs>
</svg>
