<svg width="36" height="36" viewBox="0 0 36 36" fill="none" xmlns="http://www.w3.org/2000/svg">
<rect width="36" height="36" rx="18" fill="#E1705D"/>
<path d="M27.7448 10.3827V8.90845C27.7448 8.54285 27.45 8.25391 27.0903 8.25391H20.0495C19.6839 8.25391 19.3949 8.54875 19.3949 8.90845V15.9492C19.3949 16.3148 19.6898 16.6038 20.0495 16.6038H24.3011C24.6667 16.6038 24.9556 16.8986 24.9556 17.2583V24.2991C24.9556 24.6647 24.6608 24.9537 24.3011 24.9537H22.8269C22.4613 24.9537 22.1723 24.6588 22.1723 24.2991V20.0416C22.1723 19.676 21.8775 19.3871 21.5178 19.3871H14.477C14.1114 19.3871 13.8224 19.6819 13.8224 20.0416V24.2991C13.8224 24.6647 13.5276 24.9537 13.1679 24.9537H11.6937C11.3281 24.9537 11.0392 24.6588 11.0392 24.2991V17.2642C11.0392 16.8986 11.334 16.6097 11.6937 16.6097H15.9453C16.3109 16.6097 16.5998 16.3148 16.5998 15.9551V8.90845C16.5998 8.54285 16.305 8.25391 15.9453 8.25391H8.9104C8.5507 8.25391 8.25586 8.54875 8.25586 8.90845V10.3827C8.25586 10.7483 8.5507 11.0372 8.9104 11.0372H13.162C13.5276 11.0372 13.8165 11.332 13.8165 11.6917V13.1659C13.8165 13.5315 13.5217 13.8205 13.162 13.8205H8.9104C8.5448 13.8205 8.25586 14.1153 8.25586 14.475V27.0883C8.25586 27.4539 8.5507 27.7429 8.9104 27.7429H15.9512C16.3168 27.7429 16.6057 27.448 16.6057 27.0883V22.8308C16.6057 22.4711 16.9006 22.1763 17.2603 22.1763H18.7345C19.1001 22.1763 19.389 22.4711 19.389 22.8308V27.0883C19.389 27.4539 19.6839 27.7429 20.0436 27.7429H27.0844C27.45 27.7429 27.7389 27.448 27.7389 27.0883V14.475C27.7389 14.1094 27.4441 13.8205 27.0844 13.8205H22.8328C22.4672 13.8205 22.1782 13.5257 22.1782 13.1659V11.6917C22.1782 11.3261 22.4731 11.0372 22.8328 11.0372H27.0844C27.45 11.0372 27.7389 10.7424 27.7389 10.3827H27.7448Z" fill="white"/>
</svg>
