<?xml version="1.0" encoding="UTF-8"?>
<!DOCTYPE svg PUBLIC "-//W3C//DTD SVG 1.1//EN" "http://www.w3.org/Graphics/SVG/1.1/DTD/svg11.dtd">
<svg xmlns="http://www.w3.org/2000/svg" version="1.1" width="244px" height="244px" style="shape-rendering:geometricPrecision; text-rendering:geometricPrecision; image-rendering:optimizeQuality; fill-rule:evenodd; clip-rule:evenodd" xmlns:xlink="http://www.w3.org/1999/xlink">
<g><path style="opacity:1" fill="#f8f8f8" d="M -0.5,-0.5 C 35.8333,-0.5 72.1667,-0.5 108.5,-0.5C 47.1959,10.8041 10.8626,47.1374 -0.5,108.5C -0.5,72.1667 -0.5,35.8333 -0.5,-0.5 Z"/></g>
<g><path style="opacity:1" fill="#000000" d="M 108.5,-0.5 C 116.833,-0.5 125.167,-0.5 133.5,-0.5C 194.96,10.2937 231.627,46.2937 243.5,107.5C 243.5,116.167 243.5,124.833 243.5,133.5C 234.549,190.291 202.216,226.124 146.5,241C 140.341,241.75 134.341,242.583 128.5,243.5C 121.833,243.5 115.167,243.5 108.5,243.5C 52.2615,234.101 16.7615,201.768 2,146.5C 1.25007,140.341 0.416734,134.341 -0.5,128.5C -0.5,121.833 -0.5,115.167 -0.5,108.5C 10.8626,47.1374 47.1959,10.8041 108.5,-0.5 Z"/></g>
<g><path style="opacity:1" fill="#f8f8f8" d="M 133.5,-0.5 C 170.167,-0.5 206.833,-0.5 243.5,-0.5C 243.5,35.5 243.5,71.5 243.5,107.5C 231.627,46.2937 194.96,10.2937 133.5,-0.5 Z"/></g>
<g><path style="opacity:1" fill="#656566" d="M 56.5,93.5 C 91.5,92.1667 126.5,92.1667 161.5,93.5C 154.833,93.5 148.167,93.5 141.5,93.5C 134.167,93.5 126.833,93.5 119.5,93.5C 103.991,93.1705 88.6576,93.5038 73.5,94.5C 72.8333,94.1667 72.1667,93.8333 71.5,93.5C 66.5,93.5 61.5,93.5 56.5,93.5 Z"/></g>
<g><path style="opacity:1" fill="#d3d4d6" d="M 73.5,94.5 C 88.6576,93.5038 103.991,93.1705 119.5,93.5C 119.326,97.7602 119.659,101.927 120.5,106C 111.173,106.5 101.839,106.666 92.5,106.5C 86.026,102.761 79.6927,98.7607 73.5,94.5 Z"/></g>
<g><path style="opacity:1" fill="#c0c1c3" d="M 119.5,93.5 C 126.833,93.5 134.167,93.5 141.5,93.5C 142.626,97.9422 142.626,102.109 141.5,106C 134.987,106.172 128.653,106.672 122.5,107.5C 112.319,107.827 102.319,107.494 92.5,106.5C 101.839,106.666 111.173,106.5 120.5,106C 119.659,101.927 119.326,97.7602 119.5,93.5 Z"/></g>
<g><path style="opacity:1" fill="#a2a6a8" d="M 141.5,93.5 C 148.167,93.5 154.833,93.5 161.5,93.5C 168.264,95.092 173.098,99.092 176,105.5C 177.58,114.424 177.913,123.424 177,132.5C 172.586,129.376 168.086,126.376 163.5,123.5C 162.672,118.868 162.172,114.202 162,109.5C 161.25,108.874 160.416,108.374 159.5,108C 147.171,107.5 134.838,107.333 122.5,107.5C 128.653,106.672 134.987,106.172 141.5,106C 142.626,102.109 142.626,97.9422 141.5,93.5 Z"/></g>
<g><path style="opacity:1" fill="#e0e1e2" d="M 56.5,93.5 C 61.5,93.5 66.5,93.5 71.5,93.5C 71.5,113.833 71.5,134.167 71.5,154.5C 66.5,154.5 61.5,154.5 56.5,154.5C 56.5,141.167 56.5,127.833 56.5,114.5C 60.8461,114.666 65.1794,114.499 69.5,114C 65.2467,111.29 61.0801,108.457 57,105.5C 56.5012,101.514 56.3345,97.5138 56.5,93.5 Z"/></g>
<g><path style="opacity:1" fill="#cdcecf" d="M 111.5,139.5 C 117.31,140.49 123.31,140.823 129.5,140.5C 129.947,144.939 129.947,149.273 129.5,153.5C 122.5,153.5 115.5,153.5 108.5,153.5C 101.418,152.21 96.5851,148.21 94,141.5C 92.42,132.576 92.0867,123.576 93,114.5C 97.414,117.624 101.914,120.624 106.5,123.5C 107.328,127.796 107.828,132.129 108,136.5C 108.72,138.056 109.887,139.056 111.5,139.5 Z"/></g>
<g><path style="opacity:1" fill="#f7f7f7" d="M 243.5,133.5 C 243.5,170.167 243.5,206.833 243.5,243.5C 205.167,243.5 166.833,243.5 128.5,243.5C 134.341,242.583 140.341,241.75 146.5,241C 202.216,226.124 234.549,190.291 243.5,133.5 Z"/></g>
<g><path style="opacity:1" fill="#f8f8f8" d="M -0.5,128.5 C 0.416734,134.341 1.25007,140.341 2,146.5C 16.7615,201.768 52.2615,234.101 108.5,243.5C 72.1667,243.5 35.8333,243.5 -0.5,243.5C -0.5,205.167 -0.5,166.833 -0.5,128.5 Z"/></g>
<g><path style="opacity:1" fill="#b6b8ba" d="M 111.5,139.5 C 123.167,139.5 134.833,139.5 146.5,139.5C 149.358,140.166 152.358,140.833 155.5,141.5C 155.989,145.723 155.989,149.723 155.5,153.5C 146.833,153.5 138.167,153.5 129.5,153.5C 129.947,149.273 129.947,144.939 129.5,140.5C 123.31,140.823 117.31,140.49 111.5,139.5 Z"/></g>
<g><path style="opacity:1" fill="#a2a6a7" d="M 146.5,139.5 C 156.839,139.334 167.172,139.5 177.5,140C 183.862,144.177 190.195,148.344 196.5,152.5C 183.01,153.496 169.344,153.829 155.5,153.5C 155.989,149.723 155.989,145.723 155.5,141.5C 152.358,140.833 149.358,140.166 146.5,139.5 Z"/></g>
<g><path style="opacity:1" fill="#555657" d="M 196.5,152.5 C 197.289,152.783 197.956,153.283 198.5,154C 168.331,154.831 138.331,154.664 108.5,153.5C 115.5,153.5 122.5,153.5 129.5,153.5C 138.167,153.5 146.833,153.5 155.5,153.5C 169.344,153.829 183.01,153.496 196.5,152.5 Z"/></g>
</svg>
