<?xml version="1.0" encoding="UTF-8"?>
<!DOCTYPE svg PUBLIC "-//W3C//DTD SVG 1.1//EN" "http://www.w3.org/Graphics/SVG/1.1/DTD/svg11.dtd">
<svg xmlns="http://www.w3.org/2000/svg" version="1.1" width="200px" height="200px" style="shape-rendering:geometricPrecision; text-rendering:geometricPrecision; image-rendering:optimizeQuality; fill-rule:evenodd; clip-rule:evenodd" xmlns:xlink="http://www.w3.org/1999/xlink">
<g><path style="opacity:1" fill="#f3da89" d="M 101.5,9.5 C 99.2307,12.3233 96.8974,15.1566 94.5,18C 95.3402,19.6665 94.8402,19.8331 93,18.5C 91.8021,21.3662 89.6354,23.1995 86.5,24C 84.2332,26.1562 82.7332,28.3228 82,30.5C 81.6667,30.1667 81.3333,29.8333 81,29.5C 76.3852,33.6273 73.0519,37.9606 71,42.5C 70.6667,42.1667 70.3333,41.8333 70,41.5C 67.4744,45.6899 63.9744,48.8565 59.5,51C 57.5877,54.3308 54.5877,57.3308 50.5,60C 50.8333,60.3333 51.1667,60.6667 51.5,61C 47.9585,62.9177 45.4585,65.7511 44,69.5C 43.6667,69.1667 43.3333,68.8333 43,68.5C 41.4384,71.0626 39.2718,72.8959 36.5,74C 35.1667,74.6667 35.1667,75.3333 36.5,76C 35.5,76.3333 34.5,76.6667 33.5,77C 32.5,79.3333 30.8333,81 28.5,82C 28.8333,82.3333 29.1667,82.6667 29.5,83C 27.9194,83.7065 26.4194,84.5399 25,85.5C 24.0991,88.0707 22.7658,90.404 21,92.5C 17.5867,95.2075 13.7533,98.2075 9.5,101.5C 8.62388,98.2011 8.45721,94.8678 9,91.5C 10.099,85.9753 12.2657,80.9753 15.5,76.5C 17.934,73.5624 20.6007,70.7291 23.5,68C 31.0503,62.7853 39.0503,58.452 47.5,55C 54.0483,49.388 58.715,42.5547 61.5,34.5C 64.7114,29.9109 68.0447,25.4109 71.5,21C 80.0737,13.5503 90.0737,9.71696 101.5,9.5 Z"/></g>
<g><path style="opacity:1" fill="#f2d485" d="M 101.5,9.5 C 104.902,9.34243 108.236,9.67577 111.5,10.5C 109.14,12.7126 107.306,15.3793 106,18.5C 103.155,19.928 100.321,22.0946 97.5,25C 97.8333,25.3333 98.1667,25.6667 98.5,26C 94.9458,28.8874 91.2791,31.7207 87.5,34.5C 86.7189,35.7287 86.2189,37.062 86,38.5C 85.6667,37.8333 85.3333,37.1667 85,36.5C 84.51,37.7932 84.3433,39.1266 84.5,40.5C 80.1207,43.0301 76.1207,46.1968 72.5,50C 73.6537,50.9138 73.487,51.7471 72,52.5C 71.6667,52.1667 71.3333,51.8333 71,51.5C 69.1398,54.2719 66.8065,56.6053 64,58.5C 63.5172,59.448 63.3505,60.448 63.5,61.5C 62.1667,61.5 60.8333,61.5 59.5,61.5C 56.126,67.0489 51.7927,71.8823 46.5,76C 46.8333,76.3333 47.1667,76.6667 47.5,77C 44.0267,77.8066 41.86,79.9732 41,83.5C 40.6667,83.1667 40.3333,82.8333 40,82.5C 39.4115,84.8633 37.9115,85.8633 35.5,85.5C 35.6495,86.552 35.4828,87.552 35,88.5C 33.058,90.2422 31.3913,92.2422 30,94.5C 29.6667,94.1667 29.3333,93.8333 29,93.5C 27.6397,95.1054 26.1397,96.6054 24.5,98C 24.8333,98.3333 25.1667,98.6667 25.5,99C 24.3774,100.044 23.0441,100.71 21.5,101C 20.5721,102.976 19.4054,104.809 18,106.5C 17.6667,106.167 17.3333,105.833 17,105.5C 16.5,107.333 15.3333,108.5 13.5,109C 14.4506,109.718 14.6172,110.551 14,111.5C 12.8873,110.695 11.7206,110.028 10.5,109.5C 9.90843,106.873 9.5751,104.206 9.5,101.5C 13.7533,98.2075 17.5867,95.2075 21,92.5C 22.7658,90.404 24.0991,88.0707 25,85.5C 26.4194,84.5399 27.9194,83.7065 29.5,83C 29.1667,82.6667 28.8333,82.3333 28.5,82C 30.8333,81 32.5,79.3333 33.5,77C 34.5,76.6667 35.5,76.3333 36.5,76C 35.1667,75.3333 35.1667,74.6667 36.5,74C 39.2718,72.8959 41.4384,71.0626 43,68.5C 43.3333,68.8333 43.6667,69.1667 44,69.5C 45.4585,65.7511 47.9585,62.9177 51.5,61C 51.1667,60.6667 50.8333,60.3333 50.5,60C 54.5877,57.3308 57.5877,54.3308 59.5,51C 63.9744,48.8565 67.4744,45.6899 70,41.5C 70.3333,41.8333 70.6667,42.1667 71,42.5C 73.0519,37.9606 76.3852,33.6273 81,29.5C 81.3333,29.8333 81.6667,30.1667 82,30.5C 82.7332,28.3228 84.2332,26.1562 86.5,24C 89.6354,23.1995 91.8021,21.3662 93,18.5C 94.8402,19.8331 95.3402,19.6665 94.5,18C 96.8974,15.1566 99.2307,12.3233 101.5,9.5 Z"/></g>
<g><path style="opacity:1" fill="#edd481" d="M 111.5,10.5 C 115.135,11.1523 118.469,12.4856 121.5,14.5C 119.015,17.8187 116.348,20.9854 113.5,24C 109.439,25.438 106.439,28.1046 104.5,32C 104.833,32.3333 105.167,32.6667 105.5,33C 103.939,33.3176 102.772,34.1509 102,35.5C 101.667,35.1667 101.333,34.8333 101,34.5C 98.2174,39.5981 94.0508,44.0981 88.5,48C 88.8333,48.3333 89.1667,48.6667 89.5,49C 87.9391,49.3176 86.7724,50.1509 86,51.5C 85.6667,51.1667 85.3333,50.8333 85,50.5C 83.3333,53.5 81,55.8333 78,57.5C 74.707,62.3851 71.3737,66.7184 68,70.5C 67.6667,70.1667 67.3333,69.8333 67,69.5C 65.887,70.7604 65.7203,71.927 66.5,73C 65.5509,73.6172 64.7175,73.4506 64,72.5C 55.8952,80.5691 48.5619,88.5691 42,96.5C 41.6667,96.1667 41.3333,95.8333 41,95.5C 37.2534,98.4023 34.0867,101.902 31.5,106C 30.552,106.483 29.552,106.649 28.5,106.5C 25.9551,112.05 21.9551,116.383 16.5,119.5C 13.7035,116.69 11.7035,113.357 10.5,109.5C 11.7206,110.028 12.8873,110.695 14,111.5C 14.6172,110.551 14.4506,109.718 13.5,109C 15.3333,108.5 16.5,107.333 17,105.5C 17.3333,105.833 17.6667,106.167 18,106.5C 19.4054,104.809 20.5721,102.976 21.5,101C 23.0441,100.71 24.3774,100.044 25.5,99C 25.1667,98.6667 24.8333,98.3333 24.5,98C 26.1397,96.6054 27.6397,95.1054 29,93.5C 29.3333,93.8333 29.6667,94.1667 30,94.5C 31.3913,92.2422 33.058,90.2422 35,88.5C 35.4828,87.552 35.6495,86.552 35.5,85.5C 37.9115,85.8633 39.4115,84.8633 40,82.5C 40.3333,82.8333 40.6667,83.1667 41,83.5C 41.86,79.9732 44.0267,77.8066 47.5,77C 47.1667,76.6667 46.8333,76.3333 46.5,76C 51.7927,71.8823 56.126,67.0489 59.5,61.5C 60.8333,61.5 62.1667,61.5 63.5,61.5C 63.3505,60.448 63.5172,59.448 64,58.5C 66.8065,56.6053 69.1398,54.2719 71,51.5C 71.3333,51.8333 71.6667,52.1667 72,52.5C 73.487,51.7471 73.6537,50.9138 72.5,50C 76.1207,46.1968 80.1207,43.0301 84.5,40.5C 84.3433,39.1266 84.51,37.7932 85,36.5C 85.3333,37.1667 85.6667,37.8333 86,38.5C 86.2189,37.062 86.7189,35.7287 87.5,34.5C 91.2791,31.7207 94.9458,28.8874 98.5,26C 98.1667,25.6667 97.8333,25.3333 97.5,25C 100.321,22.0946 103.155,19.928 106,18.5C 107.306,15.3793 109.14,12.7126 111.5,10.5 Z"/></g>
<g><path style="opacity:1" fill="#a68d3a" d="M 98.5,5.5 C 110.978,4.42936 121.312,8.42936 129.5,17.5C 129.5,18.1667 129.5,18.8333 129.5,19.5C 127.348,17.0152 124.681,15.3485 121.5,14.5C 121.056,12.8868 120.056,11.7202 118.5,11C 113.598,9.35754 108.598,8.19087 103.5,7.5C 101.833,6.83333 100.167,6.16667 98.5,5.5 Z"/></g>
<g><path style="opacity:1" fill="#ecce7d" d="M 121.5,14.5 C 124.681,15.3485 127.348,17.0152 129.5,19.5C 129.5,19.8333 129.5,20.1667 129.5,20.5C 125.999,24.1529 121.999,27.3195 117.5,30C 117.833,30.3333 118.167,30.6667 118.5,31C 107.901,40.2654 98.2344,49.932 89.5,60C 88.552,60.4828 87.552,60.6495 86.5,60.5C 86.719,61.675 86.3857,62.675 85.5,63.5C 80.9508,67.0767 76.9508,71.0767 73.5,75.5C 70.6146,75.1936 67.9479,75.5269 65.5,76.5C 64.5269,78.9479 64.1936,81.6146 64.5,84.5C 60.8627,87.306 57.6961,90.6393 55,94.5C 51.6685,97.9978 48.1685,101.331 44.5,104.5C 44,105.5 43.5,106.5 43,107.5C 42.6667,107.167 42.3333,106.833 42,106.5C 38.5271,110.64 34.6938,114.473 30.5,118C 31.8333,118.667 31.8333,119.333 30.5,120C 26.3485,120.987 23.6818,123.487 22.5,127.5C 20.016,125.2 18.016,122.533 16.5,119.5C 21.9551,116.383 25.9551,112.05 28.5,106.5C 29.552,106.649 30.552,106.483 31.5,106C 34.0867,101.902 37.2534,98.4023 41,95.5C 41.3333,95.8333 41.6667,96.1667 42,96.5C 48.5619,88.5691 55.8952,80.5691 64,72.5C 64.7175,73.4506 65.5509,73.6172 66.5,73C 65.7203,71.927 65.887,70.7604 67,69.5C 67.3333,69.8333 67.6667,70.1667 68,70.5C 71.3737,66.7184 74.707,62.3851 78,57.5C 81,55.8333 83.3333,53.5 85,50.5C 85.3333,50.8333 85.6667,51.1667 86,51.5C 86.7724,50.1509 87.9391,49.3176 89.5,49C 89.1667,48.6667 88.8333,48.3333 88.5,48C 94.0508,44.0981 98.2174,39.5981 101,34.5C 101.333,34.8333 101.667,35.1667 102,35.5C 102.772,34.1509 103.939,33.3176 105.5,33C 105.167,32.6667 104.833,32.3333 104.5,32C 106.439,28.1046 109.439,25.438 113.5,24C 116.348,20.9854 119.015,17.8187 121.5,14.5 Z"/></g>
<g><path style="opacity:1" fill="#e6c970" d="M 129.5,20.5 C 132.831,23.9995 135.998,27.6662 139,31.5C 140.751,36.2637 142.585,40.9304 144.5,45.5C 143.209,46.4728 143.209,47.4728 144.5,48.5C 143.092,49.2432 141.759,50.0766 140.5,51C 141.167,51.3333 141.833,51.6667 142.5,52C 137.39,53.7902 133.556,56.9568 131,61.5C 130.667,61.1667 130.333,60.8333 130,60.5C 129.167,62 128,63.1667 126.5,64C 128.932,65.0875 128.598,65.5875 125.5,65.5C 125.5,66.5 125.5,67.5 125.5,68.5C 122.65,69.1725 120.483,70.8391 119,73.5C 118.086,72.3463 117.253,72.513 116.5,74C 117.167,74.3333 117.833,74.6667 118.5,75C 109.324,75.1703 100.324,75.6703 91.5,76.5C 90.7776,80.3908 89.9443,84.3908 89,88.5C 84.9464,90.9653 81.7798,93.632 79.5,96.5C 79.5,89.5 79.5,82.5 79.5,75.5C 77.5,75.5 75.5,75.5 73.5,75.5C 76.9508,71.0767 80.9508,67.0767 85.5,63.5C 86.3857,62.675 86.719,61.675 86.5,60.5C 87.552,60.6495 88.552,60.4828 89.5,60C 98.2344,49.932 107.901,40.2654 118.5,31C 118.167,30.6667 117.833,30.3333 117.5,30C 121.999,27.3195 125.999,24.1529 129.5,20.5 Z"/></g>
<g><path style="opacity:1" fill="#f8e2a3" d="M 103.5,7.5 C 108.598,8.19087 113.598,9.35754 118.5,11C 120.056,11.7202 121.056,12.8868 121.5,14.5C 118.469,12.4856 115.135,11.1523 111.5,10.5C 108.236,9.67577 104.902,9.34243 101.5,9.5C 90.0737,9.71696 80.0737,13.5503 71.5,21C 68.0447,25.4109 64.7114,29.9109 61.5,34.5C 58.715,42.5547 54.0483,49.388 47.5,55C 39.0503,58.452 31.0503,62.7853 23.5,68C 20.6007,70.7291 17.934,73.5624 15.5,76.5C 15.8333,75.1667 16.1667,73.8333 16.5,72.5C 16.9867,71.5266 17.4867,70.5266 18,69.5C 24.7928,62.5137 32.9594,57.6804 42.5,55C 51.9558,48.9352 58.1225,40.4352 61,29.5C 67.3922,20.4322 75.5589,13.5989 85.5,9C 91.4547,7.92835 97.4547,7.42835 103.5,7.5 Z"/></g>
<g><path style="opacity:1" fill="#d9b450" d="M 175.5,67.5 C 177.167,68.5 178.5,69.8333 179.5,71.5C 178.531,72.3094 177.698,73.3094 177,74.5C 176.667,74.1667 176.333,73.8333 176,73.5C 175.064,75.7085 173.398,77.0418 171,77.5C 170.333,79.5 169.667,81.5 169,83.5C 168.195,81.0989 167.362,81.2656 166.5,84C 165.552,84.4828 164.552,84.6495 163.5,84.5C 163.762,85.9778 163.429,87.3112 162.5,88.5C 156.171,93.8497 150.504,99.183 145.5,104.5C 145.709,105.086 146.043,105.586 146.5,106C 142.64,107.193 140.14,109.693 139,113.5C 138.174,111.595 137.007,111.261 135.5,112.5C 136.571,114.325 135.904,115.492 133.5,116C 134.167,116.333 134.833,116.667 135.5,117C 132.929,117.901 130.596,119.234 128.5,121C 130.878,121.974 130.544,122.641 127.5,123C 125.438,124.532 124.104,126.532 123.5,129C 122.551,129.617 121.718,129.451 121,128.5C 116.835,133.999 111.669,139.166 105.5,144C 106.167,144.333 106.833,144.667 107.5,145C 106.062,145.219 104.729,145.719 103.5,146.5C 100.147,150.933 96.6474,155.267 93,159.5C 92.3333,160.833 91.6667,160.833 91,159.5C 86.9016,164.191 82.7349,168.025 78.5,171C 78.8333,171.333 79.1667,171.667 79.5,172C 78.5,172.333 77.5,172.667 76.5,173C 77.2797,174.073 77.113,175.24 76,176.5C 75.6667,175.833 75.3333,175.167 75,174.5C 74.3378,175.984 73.5045,177.317 72.5,178.5C 70.8333,177.5 69.5,176.167 68.5,174.5C 70.2667,172.591 71.9334,170.591 73.5,168.5C 74.086,168.709 74.586,169.043 75,169.5C 76.5353,163.797 80.0353,159.797 85.5,157.5C 84.5092,155.877 85.1759,154.877 87.5,154.5C 88.086,154.709 88.586,155.043 89,155.5C 90.4213,152.991 92.0879,150.657 94,148.5C 94.3333,148.833 94.6667,149.167 95,149.5C 95.6667,148.167 96.3333,146.833 97,145.5C 97.6667,144.167 98.3333,144.167 99,145.5C 99.3333,144.5 99.6667,143.5 100,142.5C 101.771,141.696 103.271,140.529 104.5,139C 103.448,137.284 104.114,136.284 106.5,136C 106.167,135.667 105.833,135.333 105.5,135C 109.225,132.694 113.225,130.027 117.5,127C 118.833,126 118.833,125 117.5,124C 118.833,123.333 119.833,122.333 120.5,121C 121.833,120.667 123.167,120.333 124.5,120C 130.751,109.748 138.751,101.748 148.5,96C 148.167,95.6667 147.833,95.3333 147.5,95C 151.543,90.9914 155.543,86.9914 159.5,83C 159.167,82.6667 158.833,82.3333 158.5,82C 159.854,80.7063 161.188,80.5396 162.5,81.5C 163.604,80.3687 163.271,79.5354 161.5,79C 163.861,78.8032 165.528,77.6365 166.5,75.5C 168.529,76.6293 168.863,76.1293 167.5,74C 168.449,73.3828 169.282,73.5494 170,74.5C 170.967,71.3794 172.8,69.046 175.5,67.5 Z"/></g>
<g><path style="opacity:1" fill="#d4b44a" d="M 179.5,71.5 C 182.258,74.678 184.258,78.3447 185.5,82.5C 183.442,83.3921 181.942,85.3921 181,88.5C 180.147,90.1247 179.147,90.4581 178,89.5C 176.662,91.8129 174.828,94.3129 172.5,97C 168.359,99.642 164.359,102.475 160.5,105.5C 159.855,106.732 159.689,108.065 160,109.5C 159.282,108.549 158.449,108.383 157.5,109C 157.509,110.851 156.676,112.685 155,114.5C 154.667,114.167 154.333,113.833 154,113.5C 152.708,116.288 150.874,118.622 148.5,120.5C 146.471,119.371 146.137,119.871 147.5,122C 142.794,125.634 137.794,129.634 132.5,134C 132.833,134.333 133.167,134.667 133.5,135C 132.809,136.067 132.309,137.234 132,138.5C 131.751,137.376 131.251,136.376 130.5,135.5C 130.853,138.059 129.52,139.893 126.5,141C 127.726,143.601 127.06,144.435 124.5,143.5C 120.678,148.118 116.845,151.785 113,154.5C 110.638,157.266 107.804,159.433 104.5,161C 104.957,161.414 105.291,161.914 105.5,162.5C 99.4545,169.886 92.4545,176.386 84.5,182C 83.7476,182.671 83.4142,183.504 83.5,184.5C 79.3447,183.258 75.678,181.258 72.5,178.5C 73.5045,177.317 74.3378,175.984 75,174.5C 75.3333,175.167 75.6667,175.833 76,176.5C 77.113,175.24 77.2797,174.073 76.5,173C 77.5,172.667 78.5,172.333 79.5,172C 79.1667,171.667 78.8333,171.333 78.5,171C 82.7349,168.025 86.9016,164.191 91,159.5C 91.6667,160.833 92.3333,160.833 93,159.5C 96.6474,155.267 100.147,150.933 103.5,146.5C 104.729,145.719 106.062,145.219 107.5,145C 106.833,144.667 106.167,144.333 105.5,144C 111.669,139.166 116.835,133.999 121,128.5C 121.718,129.451 122.551,129.617 123.5,129C 124.104,126.532 125.438,124.532 127.5,123C 130.544,122.641 130.878,121.974 128.5,121C 130.596,119.234 132.929,117.901 135.5,117C 134.833,116.667 134.167,116.333 133.5,116C 135.904,115.492 136.571,114.325 135.5,112.5C 137.007,111.261 138.174,111.595 139,113.5C 140.14,109.693 142.64,107.193 146.5,106C 146.043,105.586 145.709,105.086 145.5,104.5C 150.504,99.183 156.171,93.8497 162.5,88.5C 163.429,87.3112 163.762,85.9778 163.5,84.5C 164.552,84.6495 165.552,84.4828 166.5,84C 167.362,81.2656 168.195,81.0989 169,83.5C 169.667,81.5 170.333,79.5 171,77.5C 173.398,77.0418 175.064,75.7085 176,73.5C 176.333,73.8333 176.667,74.1667 177,74.5C 177.698,73.3094 178.531,72.3094 179.5,71.5 Z"/></g>
<g><path style="opacity:1" fill="#433a1f" d="M 65.5,76.5 C 67.9479,75.5269 70.6146,75.1936 73.5,75.5C 75.5,75.5 77.5,75.5 79.5,75.5C 79.5,82.5 79.5,89.5 79.5,96.5C 79.8264,105.349 79.493,114.016 78.5,122.5C 78.5,107.167 78.5,91.8333 78.5,76.5C 74.1667,76.5 69.8333,76.5 65.5,76.5 Z"/></g>
<g><path style="opacity:1" fill="#020100" d="M 91.5,76.5 C 103.505,76.3335 115.505,76.5001 127.5,77C 140.2,80.9098 143.867,89.0765 138.5,101.5C 135.225,104.972 131.225,107.138 126.5,108C 119.508,108.5 112.508,108.666 105.5,108.5C 105.5,113.167 105.5,117.833 105.5,122.5C 100.833,122.5 96.1667,122.5 91.5,122.5C 91.5,107.167 91.5,91.8333 91.5,76.5 Z"/></g>
<g><path style="opacity:1" fill="#eacd77" d="M 98.5,5.5 C 100.167,6.16667 101.833,6.83333 103.5,7.5C 97.4547,7.42835 91.4547,7.92835 85.5,9C 75.5589,13.5989 67.3922,20.4322 61,29.5C 58.1225,40.4352 51.9558,48.9352 42.5,55C 32.9594,57.6804 24.7928,62.5137 18,69.5C 17.4867,70.5266 16.9867,71.5266 16.5,72.5C 14.0209,74.8464 11.8542,77.5131 10,80.5C 3.25406,99.1676 6.75406,115.501 20.5,129.5C 19.1667,129.5 18.5,130.167 18.5,131.5C 8.5423,123.353 3.5423,112.686 3.5,99.5C 4.07951,91.8486 5.91285,84.5153 9,77.5C 14.1667,71 20,65.1667 26.5,60C 37.9703,57.1868 47.137,51.0202 54,41.5C 59.3555,25.2792 69.8555,13.7792 85.5,7C 89.77,5.92456 94.1033,5.42456 98.5,5.5 Z"/></g>
<g><path style="opacity:1" fill="#d3af44" d="M 185.5,82.5 C 186.338,82.8417 186.672,83.5084 186.5,84.5C 188.322,87.8309 189.322,91.4976 189.5,95.5C 187.932,94.5269 186.265,94.3603 184.5,95C 183.167,95.6667 183.167,96.3333 184.5,97C 182.699,97.3173 182.366,97.984 183.5,99C 180.641,100.072 178.641,101.572 177.5,103.5C 178.629,105.529 178.129,105.863 176,104.5C 175.369,107.641 173.702,108.641 171,107.5C 170.748,109.378 170.081,111.378 169,113.5C 168.667,112.833 168.333,112.167 168,111.5C 165.3,117.194 161.3,121.528 156,124.5C 154.887,125.76 154.72,126.927 155.5,128C 154.069,128.465 152.903,129.299 152,130.5C 150.984,129.366 150.317,129.699 150,131.5C 149.667,131.167 149.333,130.833 149,130.5C 147.066,133.944 144.899,137.277 142.5,140.5C 136.878,144.454 131.878,149.12 127.5,154.5C 125.833,155.333 124.167,156.167 122.5,157C 123.5,157.333 124.5,157.667 125.5,158C 121.704,158.229 119.371,160.229 118.5,164C 118.833,164.333 119.167,164.667 119.5,165C 117.709,165.415 116.376,166.415 115.5,168C 113.866,168.494 112.199,168.66 110.5,168.5C 110.628,170.655 110.128,172.655 109,174.5C 108.282,173.549 107.449,173.383 106.5,174C 105.177,176.663 102.844,178.996 99.5,181C 99.8333,181.333 100.167,181.667 100.5,182C 98.5448,182.953 96.8782,184.287 95.5,186C 99.4862,186.499 103.486,186.666 107.5,186.5C 106.552,187.978 105.219,188.978 103.5,189.5C 102.833,189.5 102.167,189.5 101.5,189.5C 95.473,187.957 89.473,186.29 83.5,184.5C 83.4142,183.504 83.7476,182.671 84.5,182C 92.4545,176.386 99.4545,169.886 105.5,162.5C 105.291,161.914 104.957,161.414 104.5,161C 107.804,159.433 110.638,157.266 113,154.5C 116.845,151.785 120.678,148.118 124.5,143.5C 127.06,144.435 127.726,143.601 126.5,141C 129.52,139.893 130.853,138.059 130.5,135.5C 131.251,136.376 131.751,137.376 132,138.5C 132.309,137.234 132.809,136.067 133.5,135C 133.167,134.667 132.833,134.333 132.5,134C 137.794,129.634 142.794,125.634 147.5,122C 146.137,119.871 146.471,119.371 148.5,120.5C 150.874,118.622 152.708,116.288 154,113.5C 154.333,113.833 154.667,114.167 155,114.5C 156.676,112.685 157.509,110.851 157.5,109C 158.449,108.383 159.282,108.549 160,109.5C 159.689,108.065 159.855,106.732 160.5,105.5C 164.359,102.475 168.359,99.642 172.5,97C 174.828,94.3129 176.662,91.8129 178,89.5C 179.147,90.4581 180.147,90.1247 181,88.5C 181.942,85.3921 183.442,83.3921 185.5,82.5 Z"/></g>
<g><path style="opacity:1" fill="#d5b65a" d="M 105.5,88.5 C 111.176,88.3339 116.843,88.5006 122.5,89C 125.306,90.3051 126.14,92.4718 125,95.5C 124.25,96.1258 123.416,96.6258 122.5,97C 116.843,97.4994 111.176,97.6661 105.5,97.5C 105.5,94.5 105.5,91.5 105.5,88.5 Z"/></g>
<g><path style="opacity:1" fill="#f6e1af" d="M 16.5,72.5 C 16.1667,73.8333 15.8333,75.1667 15.5,76.5C 12.2657,80.9753 10.099,85.9753 9,91.5C 8.45721,94.8678 8.62388,98.2011 9.5,101.5C 9.5751,104.206 9.90843,106.873 10.5,109.5C 11.7035,113.357 13.7035,116.69 16.5,119.5C 18.016,122.533 20.016,125.2 22.5,127.5C 27.8707,132.186 33.8707,135.853 40.5,138.5C 46.7215,142.6 52.0548,147.6 56.5,153.5C 58.001,161.984 62.001,168.984 68.5,174.5C 69.5,176.167 70.8333,177.5 72.5,178.5C 75.678,181.258 79.3447,183.258 83.5,184.5C 89.473,186.29 95.473,187.957 101.5,189.5C 84.1847,189.925 70.3513,183.258 60,169.5C 58.3402,163.645 55.8402,158.312 52.5,153.5C 50.4203,149.914 47.7537,146.747 44.5,144C 36.1089,139.767 28.1089,134.934 20.5,129.5C 6.75406,115.501 3.25406,99.1676 10,80.5C 11.8542,77.5131 14.0209,74.8464 16.5,72.5 Z"/></g>
<g><path style="opacity:1" fill="#cdad3c" d="M 189.5,95.5 C 189.041,111.586 182.374,124.42 169.5,134C 158.767,137.787 149.601,143.954 142,152.5C 137.562,159.251 133.562,166.251 130,173.5C 124.173,180.827 116.673,185.161 107.5,186.5C 103.486,186.666 99.4862,186.499 95.5,186C 96.8782,184.287 98.5448,182.953 100.5,182C 100.167,181.667 99.8333,181.333 99.5,181C 102.844,178.996 105.177,176.663 106.5,174C 107.449,173.383 108.282,173.549 109,174.5C 110.128,172.655 110.628,170.655 110.5,168.5C 112.199,168.66 113.866,168.494 115.5,168C 116.376,166.415 117.709,165.415 119.5,165C 119.167,164.667 118.833,164.333 118.5,164C 119.371,160.229 121.704,158.229 125.5,158C 124.5,157.667 123.5,157.333 122.5,157C 124.167,156.167 125.833,155.333 127.5,154.5C 131.878,149.12 136.878,144.454 142.5,140.5C 144.899,137.277 147.066,133.944 149,130.5C 149.333,130.833 149.667,131.167 150,131.5C 150.317,129.699 150.984,129.366 152,130.5C 152.903,129.299 154.069,128.465 155.5,128C 154.72,126.927 154.887,125.76 156,124.5C 161.3,121.528 165.3,117.194 168,111.5C 168.333,112.167 168.667,112.833 169,113.5C 170.081,111.378 170.748,109.378 171,107.5C 173.702,108.641 175.369,107.641 176,104.5C 178.129,105.863 178.629,105.529 177.5,103.5C 178.641,101.572 180.641,100.072 183.5,99C 182.366,97.984 182.699,97.3173 184.5,97C 183.167,96.3333 183.167,95.6667 184.5,95C 186.265,94.3603 187.932,94.5269 189.5,95.5 Z"/></g>
<g><path style="opacity:1" fill="#e7ca72" d="M 64.5,84.5 C 64.5,94.1667 64.5,103.833 64.5,113.5C 61.4017,113.413 61.0684,113.913 63.5,115C 62.5,115.333 61.5,115.667 60.5,116C 57.0272,120.806 52.8606,124.973 48,128.5C 47.5172,129.448 47.3505,130.448 47.5,131.5C 46.1667,131.5 44.8333,131.5 43.5,131.5C 41.9956,132.895 40.9956,135.228 40.5,138.5C 33.8707,135.853 27.8707,132.186 22.5,127.5C 23.6818,123.487 26.3485,120.987 30.5,120C 31.8333,119.333 31.8333,118.667 30.5,118C 34.6938,114.473 38.5271,110.64 42,106.5C 42.3333,106.833 42.6667,107.167 43,107.5C 43.5,106.5 44,105.5 44.5,104.5C 48.1685,101.331 51.6685,97.9978 55,94.5C 57.6961,90.6393 60.8627,87.306 64.5,84.5 Z"/></g>
<g><path style="opacity:1" fill="#ddbf64" d="M 65.5,76.5 C 65.5,91.8333 65.5,107.167 65.5,122.5C 69.8333,122.5 74.1667,122.5 78.5,122.5C 79.493,114.016 79.8264,105.349 79.5,96.5C 81.7798,93.632 84.9464,90.9653 89,88.5C 89.9443,84.3908 90.7776,80.3908 91.5,76.5C 91.5,91.8333 91.5,107.167 91.5,122.5C 90.71,121.391 90.21,120.058 90,118.5C 79.6319,126.694 70.7985,135.694 63.5,145.5C 62.3112,146.429 60.9778,146.762 59.5,146.5C 58.1989,148.672 57.1989,151.005 56.5,153.5C 52.0548,147.6 46.7215,142.6 40.5,138.5C 40.9956,135.228 41.9956,132.895 43.5,131.5C 44.8333,131.5 46.1667,131.5 47.5,131.5C 47.3505,130.448 47.5172,129.448 48,128.5C 52.8606,124.973 57.0272,120.806 60.5,116C 61.5,115.667 62.5,115.333 63.5,115C 61.0684,113.913 61.4017,113.413 64.5,113.5C 64.5,103.833 64.5,94.1667 64.5,84.5C 64.1936,81.6146 64.5269,78.9479 65.5,76.5 Z"/></g>
<g><path style="opacity:1" fill="#000000" d="M 65.5,76.5 C 69.8333,76.5 74.1667,76.5 78.5,76.5C 78.5,91.8333 78.5,107.167 78.5,122.5C 74.1667,122.5 69.8333,122.5 65.5,122.5C 65.5,107.167 65.5,91.8333 65.5,76.5 Z"/></g>
<g><path style="opacity:1" fill="#daba57" d="M 144.5,45.5 C 147.964,48.4625 151.297,51.6291 154.5,55C 162.192,58.1725 169.192,62.3391 175.5,67.5C 172.8,69.046 170.967,71.3794 170,74.5C 169.282,73.5494 168.449,73.3828 167.5,74C 168.863,76.1293 168.529,76.6293 166.5,75.5C 165.528,77.6365 163.861,78.8032 161.5,79C 163.271,79.5354 163.604,80.3687 162.5,81.5C 161.188,80.5396 159.854,80.7063 158.5,82C 158.833,82.3333 159.167,82.6667 159.5,83C 155.543,86.9914 151.543,90.9914 147.5,95C 147.833,95.3333 148.167,95.6667 148.5,96C 138.751,101.748 130.751,109.748 124.5,120C 123.167,120.333 121.833,120.667 120.5,121C 119.833,122.333 118.833,123.333 117.5,124C 118.833,125 118.833,126 117.5,127C 113.225,130.027 109.225,132.694 105.5,135C 105.833,135.333 106.167,135.667 106.5,136C 104.114,136.284 103.448,137.284 104.5,139C 103.271,140.529 101.771,141.696 100,142.5C 99.6667,143.5 99.3333,144.5 99,145.5C 98.3333,144.167 97.6667,144.167 97,145.5C 96.3333,146.833 95.6667,148.167 95,149.5C 94.6667,149.167 94.3333,148.833 94,148.5C 92.0879,150.657 90.4213,152.991 89,155.5C 88.586,155.043 88.086,154.709 87.5,154.5C 85.1759,154.877 84.5092,155.877 85.5,157.5C 80.0353,159.797 76.5353,163.797 75,169.5C 74.586,169.043 74.086,168.709 73.5,168.5C 71.9334,170.591 70.2667,172.591 68.5,174.5C 62.001,168.984 58.001,161.984 56.5,153.5C 57.1989,151.005 58.1989,148.672 59.5,146.5C 60.9778,146.762 62.3112,146.429 63.5,145.5C 70.7985,135.694 79.6319,126.694 90,118.5C 90.21,120.058 90.71,121.391 91.5,122.5C 96.1667,122.5 100.833,122.5 105.5,122.5C 105.5,117.833 105.5,113.167 105.5,108.5C 112.508,108.666 119.508,108.5 126.5,108C 131.225,107.138 135.225,104.972 138.5,101.5C 143.867,89.0765 140.2,80.9098 127.5,77C 115.505,76.5001 103.505,76.3335 91.5,76.5C 100.324,75.6703 109.324,75.1703 118.5,75C 117.833,74.6667 117.167,74.3333 116.5,74C 117.253,72.513 118.086,72.3463 119,73.5C 120.483,70.8391 122.65,69.1725 125.5,68.5C 125.5,67.5 125.5,66.5 125.5,65.5C 128.598,65.5875 128.932,65.0875 126.5,64C 128,63.1667 129.167,62 130,60.5C 130.333,60.8333 130.667,61.1667 131,61.5C 133.556,56.9568 137.39,53.7902 142.5,52C 141.833,51.6667 141.167,51.3333 140.5,51C 141.759,50.0766 143.092,49.2432 144.5,48.5C 143.209,47.4728 143.209,46.4728 144.5,45.5 Z"/></g>
<g><path style="opacity:1" fill="#8f7625" d="M 103.5,189.5 C 105.219,188.978 106.552,187.978 107.5,186.5C 116.673,185.161 124.173,180.827 130,173.5C 133.562,166.251 137.562,159.251 142,152.5C 149.601,143.954 158.767,137.787 169.5,134C 182.374,124.42 189.041,111.586 189.5,95.5C 189.322,91.4976 188.322,87.8309 186.5,84.5C 187.75,84.4226 188.583,83.756 189,82.5C 195.223,98.7043 193.223,113.704 183,127.5C 179.107,131.73 174.941,135.563 170.5,139C 154.631,142.752 143.964,152.252 138.5,167.5C 135.472,171.361 132.639,175.361 130,179.5C 117.035,192.949 101.535,196.783 83.5,191C 90.8032,191.467 98.1366,191.467 105.5,191C 105.833,190.667 106.167,190.333 106.5,190C 105.552,189.517 104.552,189.351 103.5,189.5 Z"/></g>
<g><path style="opacity:1" fill="#6f5907" d="M 129.5,17.5 C 132.891,20.6094 136.057,23.9428 139,27.5C 143.559,44.8914 154.393,56.2247 171.5,61.5C 173.944,63.8955 176.61,66.0622 179.5,68C 192.749,80.8561 196.916,96.3561 192,114.5C 184.852,130.982 172.686,141.815 155.5,147C 147.352,152.99 141.685,160.823 138.5,170.5C 122.532,194.763 101.198,200.93 74.5,189C 69.6667,184.167 64.8333,179.333 60,174.5C 56.5299,167.885 53.3632,161.218 50.5,154.5C 50.8417,153.662 51.5084,153.328 52.5,153.5C 55.8402,158.312 58.3402,163.645 60,169.5C 70.3513,183.258 84.1847,189.925 101.5,189.5C 102.167,189.5 102.833,189.5 103.5,189.5C 104.552,189.351 105.552,189.517 106.5,190C 106.167,190.333 105.833,190.667 105.5,191C 98.1366,191.467 90.8032,191.467 83.5,191C 101.535,196.783 117.035,192.949 130,179.5C 132.639,175.361 135.472,171.361 138.5,167.5C 143.964,152.252 154.631,142.752 170.5,139C 174.941,135.563 179.107,131.73 183,127.5C 193.223,113.704 195.223,98.7043 189,82.5C 188.583,83.756 187.75,84.4226 186.5,84.5C 186.672,83.5084 186.338,82.8417 185.5,82.5C 184.258,78.3447 182.258,74.678 179.5,71.5C 178.5,69.8333 177.167,68.5 175.5,67.5C 169.192,62.3391 162.192,58.1725 154.5,55C 151.297,51.6291 147.964,48.4625 144.5,45.5C 142.585,40.9304 140.751,36.2637 139,31.5C 135.998,27.6662 132.831,23.9995 129.5,20.5C 129.5,20.1667 129.5,19.8333 129.5,19.5C 129.5,18.8333 129.5,18.1667 129.5,17.5 Z"/></g>
<g><path style="opacity:1" fill="#ab913d" d="M 20.5,129.5 C 28.1089,134.934 36.1089,139.767 44.5,144C 47.7537,146.747 50.4203,149.914 52.5,153.5C 51.5084,153.328 50.8417,153.662 50.5,154.5C 47.694,150.863 44.3607,147.696 40.5,145C 31.9645,142.243 24.6312,137.743 18.5,131.5C 18.5,130.167 19.1667,129.5 20.5,129.5 Z"/></g>
</svg>
