<svg width="331" height="332" viewBox="0 0 331 332" fill="none" xmlns="http://www.w3.org/2000/svg">
<path d="M165.303 0.79834H165.302C74.0082 0.79834 0 74.8066 0 166.1V166.101C0 257.395 74.0082 331.403 165.302 331.403H165.303C256.597 331.403 330.605 257.395 330.605 166.101V166.1C330.605 74.8066 256.597 0.79834 165.303 0.79834Z" fill="url(#paint0_linear_15_57)"/>
<path d="M165.303 0.79834H165.302C74.0082 0.79834 0 74.8066 0 166.1V166.101C0 257.395 74.0082 331.403 165.302 331.403H165.303C256.597 331.403 330.605 257.395 330.605 166.101V166.1C330.605 74.8066 256.597 0.79834 165.303 0.79834Z" fill="url(#paint1_radial_15_57)" fill-opacity="0.46"/>
<mask id="mask0_15_57" style="mask-type:luminance" maskUnits="userSpaceOnUse" x="82" y="101" width="166" height="130">
<path d="M247.953 101.12H82.6509V230.614H247.953V101.12Z" fill="white"/>
</mask>
<g mask="url(#mask0_15_57)">
<path d="M109.416 200.111C110.429 199.098 111.803 198.53 113.235 198.53H245.393C247.8 198.53 249.005 201.441 247.302 203.142L221.188 229.236C220.175 230.248 218.801 230.817 217.369 230.817H85.2114C82.8039 230.817 81.5989 227.906 83.3019 226.204L109.416 200.111Z" fill="white"/>
<path d="M109.416 102.626C110.429 101.613 111.803 101.044 113.235 101.044H245.393C247.8 101.044 249.005 103.956 247.302 105.657L221.188 131.751C220.175 132.763 218.801 133.332 217.369 133.332H85.2114C82.8039 133.332 81.5989 130.421 83.3019 128.719L109.416 102.626Z" fill="white"/>
<path d="M221.188 151.06C220.175 150.047 218.801 149.479 217.369 149.479H85.2114C82.8039 149.479 81.5989 152.39 83.3019 154.091L109.416 180.185C110.429 181.197 111.803 181.766 113.235 181.766H245.393C247.8 181.766 249.005 178.854 247.302 177.153L221.188 151.06Z" fill="white"/>
</g>
<path d="M301.087 166.1C301.087 241.092 240.294 301.884 165.302 301.884C90.3109 301.884 29.5183 241.092 29.5183 166.1C29.5183 91.109 90.3109 30.3164 165.302 30.3164C240.294 30.3164 301.087 91.109 301.087 166.1Z" stroke="white" stroke-width="11.8073"/>
<defs>
<linearGradient id="paint0_linear_15_57" x1="94.4585" y1="101.16" x2="224.339" y2="231.041" gradientUnits="userSpaceOnUse">
<stop stop-color="#4BC57C"/>
<stop offset="1" stop-color="#289279"/>
</linearGradient>
<radialGradient id="paint1_radial_15_57" cx="0" cy="0" r="1" gradientUnits="userSpaceOnUse" gradientTransform="translate(165.302 59.8349) rotate(90) scale(318.797)">
<stop stop-color="#F1F2B3" stop-opacity="0.92"/>
<stop offset="1" stop-color="#F5E8A3" stop-opacity="0"/>
</radialGradient>
</defs>
</svg>
