<svg width="501" height="502" viewBox="0 0 501 502" fill="none" xmlns="http://www.w3.org/2000/svg">
<rect y="0.777344" width="500.443" height="500.443" rx="250.222" fill="white"/>
<circle cx="250.179" cy="248.462" r="199.768" stroke="black" stroke-width="17.3712"/>
<path d="M270.122 199.74C255.794 209.628 240.388 213.017 223.932 209.885C207.447 206.774 194.352 198.158 184.62 184.057L170.139 163.075L190.912 148.738L205.394 169.72C211.155 178.067 218.845 183.127 228.491 184.88C238.108 186.653 247.168 184.605 255.612 178.777L292.26 153.325C303.908 145.235 319.911 148.144 327.967 159.816V159.816L270.122 199.74Z" fill="black"/>
<path d="M298.169 269.456C288.261 255.102 284.848 239.679 287.948 223.217C291.028 206.727 299.615 193.639 313.689 183.925L334.632 169.471L348.996 190.284L328.054 204.738C319.722 210.488 314.679 218.174 312.944 227.824C311.19 237.445 313.252 246.514 319.091 254.974L344.647 291.771C352.721 303.397 349.817 319.37 338.168 327.411V327.411L298.169 269.456Z" fill="black"/>
<path d="M228.188 297.639C242.515 287.751 257.922 284.362 274.378 287.493C290.863 290.605 303.957 299.221 313.69 313.322L328.171 334.304L307.398 348.641L292.916 327.659C287.155 319.312 279.465 314.252 269.819 312.499C260.201 310.726 251.142 312.774 242.698 318.602L206.05 344.054C194.402 352.144 178.399 349.234 170.343 337.563V337.563L228.188 297.639Z" fill="black"/>
<path d="M201.397 229.749C211.304 244.103 214.718 259.526 211.618 275.988C208.537 292.478 199.95 305.566 185.876 315.28L164.934 329.734L150.569 308.921L171.512 294.467C179.843 288.717 184.886 281.031 186.621 271.382C188.375 261.76 186.313 252.691 180.474 244.231L154.919 207.434C146.844 195.808 149.748 179.835 161.398 171.794V171.794L201.397 229.749Z" fill="black"/>
</svg>
