<?xml version="1.0" encoding="UTF-8"?>
<!DOCTYPE svg PUBLIC "-//W3C//DTD SVG 1.1//EN" "http://www.w3.org/Graphics/SVG/1.1/DTD/svg11.dtd">
<svg xmlns="http://www.w3.org/2000/svg" version="1.1" width="400px" height="400px" style="shape-rendering:geometricPrecision; text-rendering:geometricPrecision; image-rendering:optimizeQuality; fill-rule:evenodd; clip-rule:evenodd" xmlns:xlink="http://www.w3.org/1999/xlink">
<g><path style="opacity:1" fill="#000100" d="M 399.5,180.5 C 399.5,193.5 399.5,206.5 399.5,219.5C 387.196,304.644 340.529,361.811 259.5,391C 246.233,394.818 232.9,397.652 219.5,399.5C 206.5,399.5 193.5,399.5 180.5,399.5C 99.4123,387.915 43.2457,344.248 12,268.5C -11.7511,194.936 0.582203,128.269 49,68.5C 97.4536,16.2121 157.287,-5.95457 228.5,2C 301.255,14.7715 353.089,54.6048 384,121.5C 391.855,140.591 397.021,160.258 399.5,180.5 Z"/></g>
<g><path style="opacity:1" fill="#33f6d6" d="M 311.5,135.5 C 309.203,139.287 305.869,141.787 301.5,143C 290.833,143.333 280.167,143.667 269.5,144C 268.944,144.383 268.611,144.883 268.5,145.5C 264.293,148.881 260.293,152.547 256.5,156.5C 253.927,157.219 251.427,158.219 249,159.5C 248.333,157.5 247.667,155.5 247,153.5C 246.311,154.357 245.478,155.023 244.5,155.5C 244.249,153.013 243.749,150.68 243,148.5C 242.396,150.686 241.23,150.852 239.5,149C 240.909,146.121 243.243,144.455 246.5,144C 245.346,143.086 245.513,142.253 247,141.5C 247.333,141.833 247.667,142.167 248,142.5C 248.371,137.372 250.538,136.372 254.5,139.5C 254.689,135.441 255.856,131.441 258,127.5C 258.5,123.5 259,119.5 259.5,115.5C 257.19,108.326 257.023,100.993 259,93.5C 260,93.1667 261,92.8333 262,92.5C 262.41,91.0993 262.91,89.766 263.5,88.5C 276.66,87.3396 289.994,87.173 303.5,88C 308.062,89.6271 310.895,92.7938 312,97.5C 312.795,110.212 312.628,122.879 311.5,135.5 Z"/></g>
<g><path style="opacity:1" fill="#4ae1c4" d="M 170.5,95.5 C 171.332,111.995 171.832,128.662 172,145.5C 172.738,148.648 174.238,151.315 176.5,153.5C 175.167,153.5 173.833,153.5 172.5,153.5C 172.477,151.073 171.977,148.74 171,146.5C 170.5,129.503 170.333,112.503 170.5,95.5 Z"/></g>
<g><path style="opacity:1" fill="#051c15" d="M 311.5,135.5 C 311.005,137.482 310.505,139.482 310,141.5C 307.825,142.255 305.659,143.088 303.5,144C 291.788,144.208 280.121,144.708 268.5,145.5C 268.611,144.883 268.944,144.383 269.5,144C 280.167,143.667 290.833,143.333 301.5,143C 305.869,141.787 309.203,139.287 311.5,135.5 Z"/></g>
<g><path style="opacity:1" fill="#3fe5c8" d="M 263.5,88.5 C 262.91,89.766 262.41,91.0993 262,92.5C 261,92.8333 260,93.1667 259,93.5C 257.023,100.993 257.19,108.326 259.5,115.5C 259,119.5 258.5,123.5 258,127.5C 255.856,131.441 254.689,135.441 254.5,139.5C 250.538,136.372 248.371,137.372 248,142.5C 247.667,142.167 247.333,141.833 247,141.5C 245.513,142.253 245.346,143.086 246.5,144C 243.243,144.455 240.909,146.121 239.5,149C 241.23,150.852 242.396,150.686 243,148.5C 243.749,150.68 244.249,153.013 244.5,155.5C 245.478,155.023 246.311,154.357 247,153.5C 247.667,155.5 248.333,157.5 249,159.5C 251.427,158.219 253.927,157.219 256.5,156.5C 252.465,160.94 248.298,165.273 244,169.5C 243.209,170.745 242.709,172.078 242.5,173.5C 241.338,190.662 241.171,207.995 242,225.5C 243.387,229.747 245.887,233.08 249.5,235.5C 251.5,237.833 253.5,240.167 255.5,242.5C 254.883,242.611 254.383,242.944 254,243.5C 252.401,241.944 250.901,240.277 249.5,238.5C 246.82,239.164 244.986,239.164 244,238.5C 242.38,236.759 240.88,234.925 239.5,233C 240.167,232.667 240.833,232.333 241.5,232C 240.643,231.311 239.977,230.478 239.5,229.5C 240.833,209.167 240.833,188.833 239.5,168.5C 240.189,166.556 240.689,164.556 241,162.5C 241.098,164.619 241.931,166.286 243.5,167.5C 244.716,164.783 246.716,162.95 249.5,162C 246.195,159.011 242.528,156.511 238.5,154.5C 239.462,152.117 238.462,151.117 235.5,151.5C 236.167,150.5 236.833,149.5 237.5,148.5C 243.439,142.389 249.272,136.056 255,129.5C 255.333,118.5 255.667,107.5 256,96.5C 257.32,92.6812 259.82,90.0145 263.5,88.5 Z"/></g>
<g><path style="opacity:1" fill="#031a14" d="M 237.5,148.5 C 236.833,149.5 236.167,150.5 235.5,151.5C 234.833,151.833 234.167,152.167 233.5,152.5C 231.862,153.657 230.196,154.824 228.5,156C 213.504,156.5 198.504,156.667 183.5,156.5C 182.209,156.737 181.209,156.404 180.5,155.5C 195.837,155.667 211.17,155.5 226.5,155C 230.827,153.427 233.993,150.593 236,146.5C 236.278,147.416 236.778,148.082 237.5,148.5 Z"/></g>
<g><path style="opacity:1" fill="#32f8d8" d="M 170.5,95.5 C 170.333,112.503 170.5,129.503 171,146.5C 171.977,148.74 172.477,151.073 172.5,153.5C 173.833,153.5 175.167,153.5 176.5,153.5C 177.514,154.674 178.847,155.34 180.5,155.5C 181.209,156.404 182.209,156.737 183.5,156.5C 183.611,157.117 183.944,157.617 184.5,158C 198.833,158.667 213.167,158.667 227.5,158C 230.788,157.434 232.788,155.6 233.5,152.5C 234.167,152.167 234.833,151.833 235.5,151.5C 238.462,151.117 239.462,152.117 238.5,154.5C 242.528,156.511 246.195,159.011 249.5,162C 246.716,162.95 244.716,164.783 243.5,167.5C 241.931,166.286 241.098,164.619 241,162.5C 240.689,164.556 240.189,166.556 239.5,168.5C 240.833,188.833 240.833,209.167 239.5,229.5C 239.977,230.478 240.643,231.311 241.5,232C 240.833,232.333 240.167,232.667 239.5,233C 240.88,234.925 242.38,236.759 244,238.5C 244.986,239.164 246.82,239.164 249.5,238.5C 250.901,240.277 252.401,241.944 254,243.5C 254.383,242.944 254.883,242.611 255.5,242.5C 260.043,247.209 265.043,251.375 270.5,255C 280.833,255.333 291.167,255.667 301.5,256C 306.185,257.35 309.685,260.183 312,264.5C 312.667,277.167 312.667,289.833 312,302.5C 310.098,307.4 306.598,310.567 301.5,312C 289.5,312.667 277.5,312.667 265.5,312C 262.172,310.521 259.506,308.355 257.5,305.5C 257.291,304.078 256.791,302.745 256,301.5C 255.667,290.833 255.333,280.167 255,269.5C 252.332,265.666 249.165,262.333 245.5,259.5C 239.892,252.387 233.225,246.554 225.5,242C 210.837,241.5 196.17,241.333 181.5,241.5C 176.734,241.701 173.734,244.035 172.5,248.5C 171.022,248.238 169.689,248.571 168.5,249.5C 168.846,250.696 169.346,250.696 170,249.5C 170.5,267.497 170.667,285.497 170.5,303.5C 168.658,307.508 165.658,310.341 161.5,312C 140.167,312.667 118.833,312.667 97.5,312C 92.7548,310.885 89.5881,308.052 88,303.5C 87.8333,292.167 87.6667,280.833 87.5,269.5C 87.3525,257.408 87.8525,245.408 89,233.5C 90.8734,231.291 93.04,229.458 95.5,228C 112.5,227.667 129.5,227.333 146.5,227C 151.418,225.48 154.585,222.314 156,217.5C 156.667,205.167 156.667,192.833 156,180.5C 153.994,176.995 151.16,174.328 147.5,172.5C 130.176,171.667 112.843,171.167 95.5,171C 92.7215,169.888 90.5549,168.055 89,165.5C 87.3543,142.255 87.0209,118.921 88,95.5C 89.2811,91.763 91.7811,89.263 95.5,88C 118.167,87.3333 140.833,87.3333 163.5,88C 166.739,89.7364 169.073,92.2364 170.5,95.5 Z"/></g>
<g><path style="opacity:1" fill="#47cdb6" d="M 233.5,152.5 C 232.788,155.6 230.788,157.434 227.5,158C 213.167,158.667 198.833,158.667 184.5,158C 183.944,157.617 183.611,157.117 183.5,156.5C 198.504,156.667 213.504,156.5 228.5,156C 230.196,154.824 231.862,153.657 233.5,152.5 Z"/></g>
<g><path style="opacity:1" fill="#02251e" d="M 242.5,173.5 C 242.333,190.503 242.5,207.503 243,224.5C 244.837,228.454 247.004,232.121 249.5,235.5C 245.887,233.08 243.387,229.747 242,225.5C 241.171,207.995 241.338,190.662 242.5,173.5 Z"/></g>
<g><path style="opacity:1" fill="#4be4c7" d="M 181.5,241.5 C 177.189,243.647 174.022,246.98 172,251.5C 171.832,269.005 171.332,286.338 170.5,303.5C 170.667,285.497 170.5,267.497 170,249.5C 169.346,250.696 168.846,250.696 168.5,249.5C 169.689,248.571 171.022,248.238 172.5,248.5C 173.734,244.035 176.734,241.701 181.5,241.5 Z"/></g>
<g><path style="opacity:1" fill="#041813" d="M 245.5,259.5 C 249.165,262.333 252.332,265.666 255,269.5C 255.333,280.167 255.667,290.833 256,301.5C 256.791,302.745 257.291,304.078 257.5,305.5C 256.25,305.423 255.417,304.756 255,303.5C 254.667,292.5 254.333,281.5 254,270.5C 253.167,269.5 252.333,268.5 251.5,267.5C 250.914,267.709 250.414,268.043 250,268.5C 248.952,265.244 247.452,262.244 245.5,259.5 Z"/></g>
</svg>
