<svg width="429" height="429" viewBox="0 0 429 429" fill="none" xmlns="http://www.w3.org/2000/svg">
<path d="M372.872 187.866L359.949 171.207L286.25 123.82C286.485 125.215 286.753 126.603 287.054 127.985C288.086 132.547 289.297 137.067 290.683 141.534C305.251 188.135 334.316 210.282 373.337 239.972C375.884 224.129 376.047 207.994 373.82 192.103L372.872 187.866Z" fill="#EE7730"/>
<path d="M229.944 254.666C159.892 223.349 116.116 159.803 113.56 95.8105C113.536 95.2003 113.339 94.6094 112.992 94.1071C112.645 93.6047 112.162 93.2115 111.599 92.9734C111.037 92.7353 110.418 92.6622 109.816 92.7626C109.214 92.863 108.652 93.1328 108.198 93.5404C92.329 107.519 79.3704 124.487 70.0621 143.475C60.7539 162.463 55.2785 183.1 53.9489 204.205C52.6192 225.31 55.4613 246.471 62.3128 266.477C69.1643 286.484 79.8909 304.944 93.8796 320.803C112.223 341.589 135.619 357.292 161.805 366.393C187.99 375.495 216.082 377.688 243.363 372.76C270.644 367.832 296.192 355.95 317.539 338.263C338.886 320.575 355.31 297.68 365.222 271.79C365.434 271.242 365.492 270.647 365.39 270.069C365.288 269.49 365.03 268.951 364.643 268.509C364.256 268.067 363.756 267.74 363.197 267.562C362.637 267.384 362.039 267.362 361.468 267.5C317.422 278.028 271.119 273.522 229.944 254.666ZM373.82 192.139C370.03 183.38 317.216 160.637 215.376 123.91C138.514 96.168 124.213 69.4091 179.876 57.3077C182.593 56.7119 185.328 56.1935 188.081 55.7526C276.026 41.4169 358.948 100.976 373.302 188.743L373.82 192.139Z" fill="#F9D85E"/>
</svg>
