<?xml version="1.0" encoding="UTF-8"?>
<!DOCTYPE svg PUBLIC "-//W3C//DTD SVG 1.1//EN" "http://www.w3.org/Graphics/SVG/1.1/DTD/svg11.dtd">
<svg xmlns="http://www.w3.org/2000/svg" version="1.1" width="200px" height="200px" style="shape-rendering:geometricPrecision; text-rendering:geometricPrecision; image-rendering:optimizeQuality; fill-rule:evenodd; clip-rule:evenodd" xmlns:xlink="http://www.w3.org/1999/xlink">
<g><path style="opacity:1" fill="#f2a731" d="M -0.5,-0.5 C 66.1667,-0.5 132.833,-0.5 199.5,-0.5C 199.5,66.1667 199.5,132.833 199.5,199.5C 132.833,199.5 66.1667,199.5 -0.5,199.5C -0.5,132.833 -0.5,66.1667 -0.5,-0.5 Z"/></g>
<g><path style="opacity:1" fill="#ead869" d="M 168.5,66.5 C 171.635,74.7204 173.969,83.0537 175.5,91.5C 175.5,91.8333 175.5,92.1667 175.5,92.5C 175.697,98.5451 175.363,104.545 174.5,110.5C 173.292,109.766 171.959,109.433 170.5,109.5C 170.517,107.435 170.85,105.435 171.5,103.5C 171.852,98.4069 171.852,93.4069 171.5,88.5C 170.166,78.1476 166.499,68.8143 160.5,60.5C 158.643,57.6077 156.81,54.6077 155,51.5C 151.895,49.3064 149.228,46.6397 147,43.5C 146.667,43.8333 146.333,44.1667 146,44.5C 142.59,39.5455 138.59,36.8788 134,36.5C 131.264,33.8784 128.097,31.8784 124.5,30.5C 109.79,25.7418 95.1238,25.4084 80.5,29.5C 78.0733,29.523 75.74,30.023 73.5,31C 67.7713,33.8643 62.1047,36.6977 56.5,39.5C 55.5,39.5 54.5,39.5 53.5,39.5C 71.5445,25.7405 91.8778,20.9072 114.5,25C 138.794,30.8107 156.794,44.644 168.5,66.5 Z"/></g>
<g><path style="opacity:1" fill="#cebc45" d="M 80.5,29.5 C 80.5,30.1667 80.8333,30.5 81.5,30.5C 80.0198,33.2551 80.1865,35.9218 82,38.5C 84.3834,41.2728 87.2167,43.4395 90.5,45C 100.969,48.6285 111.302,52.6285 121.5,57C 126.57,56.7018 131.57,55.8684 136.5,54.5C 139.972,54.7779 143.638,54.9446 147.5,55C 145.568,56.4585 143.568,57.6252 141.5,58.5C 141.5,58.8333 141.5,59.1667 141.5,59.5C 140.448,59.3505 139.448,59.5172 138.5,60C 136.406,62.4213 134.74,65.088 133.5,68C 134.727,69.5874 134.394,70.9207 132.5,72C 132.728,72.3988 133.062,72.5654 133.5,72.5C 135.578,74.3904 136.911,76.7238 137.5,79.5C 137.353,84.2142 137.686,88.8809 138.5,93.5C 139.833,98.1667 139.833,102.833 138.5,107.5C 136.523,109.814 134.523,112.147 132.5,114.5C 131.513,111.232 131.18,107.898 131.5,104.5C 130.695,102.085 129.695,99.7513 128.5,97.5C 127.739,94.1461 126.072,91.3128 123.5,89C 124.833,87.6667 126.167,86.3333 127.5,85C 126.751,83.2663 126.251,81.433 126,79.5C 125.329,78.7476 124.496,78.4142 123.5,78.5C 123.804,77.8501 124.137,77.1835 124.5,76.5C 121.878,74.5887 119.711,72.2554 118,69.5C 117.617,70.056 117.117,70.3893 116.5,70.5C 116.554,61.5703 115.054,61.237 112,69.5C 109.96,67.6298 108.127,65.6298 106.5,63.5C 106.5,62.5 106.5,61.5 106.5,60.5C 105.038,59.6126 103.205,58.6126 101,57.5C 99.4931,58.5348 97.9931,58.3681 96.5,57C 97.6956,56.3457 97.6956,55.8457 96.5,55.5C 95.8076,56.0253 95.3076,56.6919 95,57.5C 93.54,55.5776 91.8733,54.9109 90,55.5C 89.6667,54.5 89.3333,53.5 89,52.5C 87.7083,53.7911 86.5417,53.7911 85.5,52.5C 89.2335,51.0227 93.2335,50.1894 97.5,50C 91.7258,49.3108 86.0591,49.8108 80.5,51.5C 76.899,48.4064 72.899,45.9064 68.5,44C 66.9343,43.235 65.6009,43.4017 64.5,44.5C 64.1667,44.5 63.8333,44.5 63.5,44.5C 61.1576,42.9557 58.6576,42.6223 56,43.5C 54.4132,42.154 54.5798,40.8206 56.5,39.5C 62.1047,36.6977 67.7713,33.8643 73.5,31C 75.74,30.023 78.0733,29.523 80.5,29.5 Z"/></g>
<g><path style="opacity:1" fill="#e9d669" d="M 48.5,43.5 C 48.259,46.999 49.0924,47.3323 51,44.5C 51.5,45 52,45.5 52.5,46C 47.6005,50.0823 43.2672,54.5823 39.5,59.5C 38.6236,59.3691 37.9569,59.7025 37.5,60.5C 35.2802,64.2725 33.6135,68.2725 32.5,72.5C 28.8045,79.6106 26.8045,87.2773 26.5,95.5C 27.0199,118.042 35.3532,137.209 51.5,153C 56.5528,157.525 62.2195,161.025 68.5,163.5C 78.0514,168.747 88.3847,171.08 99.5,170.5C 111.441,171.131 122.441,168.464 132.5,162.5C 135.586,161.302 138.252,159.635 140.5,157.5C 146.548,154.225 151.715,149.891 156,144.5C 161.232,136.702 165.399,128.369 168.5,119.5C 168.833,119.5 169.167,119.5 169.5,119.5C 169.821,121.048 170.821,121.715 172.5,121.5C 169.622,129.589 165.955,137.255 161.5,144.5C 143.89,166.466 120.89,176.799 92.5,175.5C 92.1667,175.5 91.8333,175.5 91.5,175.5C 80.745,173.805 70.4117,170.472 60.5,165.5C 49.8333,158.167 40.8333,149.167 33.5,138.5C 32.6743,135.515 31.341,132.849 29.5,130.5C 23.9913,115.937 22.3247,100.937 24.5,85.5C 24.5,85.1667 24.5,84.8333 24.5,84.5C 26.4083,77.7793 28.7416,71.1127 31.5,64.5C 36.0295,56.6313 41.6961,49.6313 48.5,43.5 Z"/></g>
<g><path style="opacity:1" fill="#b57f26" d="M 168.5,66.5 C 156.794,44.644 138.794,30.8107 114.5,25C 91.8778,20.9072 71.5445,25.7405 53.5,39.5C 51.246,40.1237 49.5794,41.457 48.5,43.5C 41.6961,49.6313 36.0295,56.6313 31.5,64.5C 33.8609,58.1131 37.0276,52.1131 41,46.5C 46.8352,41.9316 52.3352,37.0983 57.5,32C 65.3922,29.0265 73.3922,26.3599 81.5,24C 101.459,21.0332 120.792,23.0332 139.5,30C 141.18,33.4091 143.846,35.4091 147.5,36C 151.279,39.7792 155.113,43.6126 159,47.5C 161.084,51.3359 163.417,55.0026 166,58.5C 167.341,61.022 168.174,63.6887 168.5,66.5 Z"/></g>
<g><path style="opacity:1" fill="#918438" d="M 124.5,30.5 C 124.631,31.3764 124.298,32.0431 123.5,32.5C 113.137,28.9701 102.47,27.6368 91.5,28.5C 88.1353,29.0396 84.802,29.7063 81.5,30.5C 80.8333,30.5 80.5,30.1667 80.5,29.5C 95.1238,25.4084 109.79,25.7418 124.5,30.5 Z"/></g>
<g><path style="opacity:1" fill="#dbc94f" d="M 91.5,28.5 C 110.389,35.9434 129.055,43.9434 147.5,52.5C 143.899,53.349 140.232,54.0157 136.5,54.5C 131.57,55.8684 126.57,56.7018 121.5,57C 111.302,52.6285 100.969,48.6285 90.5,45C 87.2167,43.4395 84.3834,41.2728 82,38.5C 80.1865,35.9218 80.0198,33.2551 81.5,30.5C 84.802,29.7063 88.1353,29.0396 91.5,28.5 Z"/></g>
<g><path style="opacity:1" fill="#e9da59" d="M 53.5,39.5 C 54.5,39.5 55.5,39.5 56.5,39.5C 54.5798,40.8206 54.4132,42.154 56,43.5C 58.6576,42.6223 61.1576,42.9557 63.5,44.5C 58.5709,48.6769 55.4042,54.0102 54,60.5C 53.5012,64.4862 53.3345,68.4862 53.5,72.5C 46.1792,70.8407 41.5125,66.5073 39.5,59.5C 43.2672,54.5823 47.6005,50.0823 52.5,46C 52,45.5 51.5,45 51,44.5C 49.0924,47.3323 48.259,46.999 48.5,43.5C 49.5794,41.457 51.246,40.1237 53.5,39.5 Z"/></g>
<g><path style="opacity:1" fill="#a39416" d="M 85.5,52.5 C 84.1991,53.8845 84.1991,55.3845 85.5,57C 82.091,58.6384 81.091,61.1384 82.5,64.5C 80.0522,70.4113 75.8856,73.078 70,72.5C 68.9701,72.8361 68.4701,73.5028 68.5,74.5C 68.0618,74.4346 67.7284,74.6012 67.5,75C 70.0921,77.0109 69.9254,78.8442 67,80.5C 65.7651,81.6155 64.5984,81.6155 63.5,80.5C 62.1667,81.5 60.8333,82.5 59.5,83.5C 58.2638,82.7542 56.9305,82.4208 55.5,82.5C 53.6469,99.662 59.9803,112.662 74.5,121.5C 74.8333,122.167 75.1667,122.833 75.5,123.5C 70.3506,121.019 65.0173,119.019 59.5,117.5C 56.7933,114.753 55.1266,111.42 54.5,107.5C 53.6647,93.511 53.8313,79.511 55,65.5C 56.0157,57.4727 59.1823,50.4727 64.5,44.5C 65.6009,43.4017 66.9343,43.235 68.5,44C 72.899,45.9064 76.899,48.4064 80.5,51.5C 86.0591,49.8108 91.7258,49.3108 97.5,50C 93.2335,50.1894 89.2335,51.0227 85.5,52.5 Z"/></g>
<g><path style="opacity:1" fill="#706700" d="M 70.5,60.5 C 69.2003,57.5677 67.2003,55.2344 64.5,53.5C 64.9867,52.5266 65.4867,51.5266 66,50.5C 69.1286,53.05 71.9619,55.2167 74.5,57C 73.6159,58.7198 72.2825,59.8865 70.5,60.5 Z"/></g>
<g><path style="opacity:1" fill="#2a2900" d="M 64.5,53.5 C 67.2003,55.2344 69.2003,57.5677 70.5,60.5C 70.5,60.8333 70.5,61.1667 70.5,61.5C 68.7673,62.0076 68.434,62.841 69.5,64C 68.4258,64.7387 67.7591,65.7387 67.5,67C 68.6579,68.2607 68.6579,69.4274 67.5,70.5C 67.1667,70.5 66.8333,70.5 66.5,70.5C 65.078,69.075 63.4113,68.075 61.5,67.5C 61.571,62.5593 62.571,57.8926 64.5,53.5 Z"/></g>
<g><path style="opacity:1" fill="#716900" d="M 64.5,53.5 C 62.571,57.8926 61.571,62.5593 61.5,67.5C 60.3115,66.9524 59.1448,66.6191 58,66.5C 57.4444,68.5951 56.9444,68.7618 56.5,67C 57.6207,61.5896 59.454,56.4229 62,51.5C 62.4169,52.756 63.2502,53.4226 64.5,53.5 Z"/></g>
<g><path style="opacity:1" fill="#655800" d="M 141.5,58.5 C 145.699,58.5268 146.533,60.1935 144,63.5C 141.932,67.0705 139.099,69.7371 135.5,71.5C 137.5,67.5 139.5,63.5 141.5,59.5C 141.5,59.1667 141.5,58.8333 141.5,58.5 Z"/></g>
<g><path style="opacity:1" fill="#a8961d" d="M 147.5,52.5 C 149.042,53.3007 150.708,53.634 152.5,53.5C 151.752,60.6606 149.085,66.9939 144.5,72.5C 141.16,73.8396 138.827,76.173 137.5,79.5C 136.911,76.7238 135.578,74.3904 133.5,72.5C 134.492,72.6716 135.158,72.3382 135.5,71.5C 139.099,69.7371 141.932,67.0705 144,63.5C 146.533,60.1935 145.699,58.5268 141.5,58.5C 143.568,57.6252 145.568,56.4585 147.5,55C 143.638,54.9446 139.972,54.7779 136.5,54.5C 140.232,54.0157 143.899,53.349 147.5,52.5 Z"/></g>
<g><path style="opacity:1" fill="#302901" d="M 141.5,59.5 C 139.5,63.5 137.5,67.5 135.5,71.5C 135.158,72.3382 134.492,72.6716 133.5,72.5C 133.062,72.5654 132.728,72.3988 132.5,72C 134.394,70.9207 134.727,69.5874 133.5,68C 134.74,65.088 136.406,62.4213 138.5,60C 139.448,59.5172 140.448,59.3505 141.5,59.5 Z"/></g>
<g><path style="opacity:1" fill="#ede05d" d="M 106.5,63.5 C 108.127,65.6298 109.96,67.6298 112,69.5C 115.054,61.237 116.554,61.5703 116.5,70.5C 121.931,80.7886 119.265,83.6219 108.5,79C 103.571,73.8945 101.738,68.0611 103,61.5C 103.816,62.8228 104.983,63.4894 106.5,63.5 Z"/></g>
<g><path style="opacity:1" fill="#746900" d="M 70.5,61.5 C 74.309,63.153 74.309,64.9863 70.5,67C 71.694,69.6578 70.694,70.8244 67.5,70.5C 68.6579,69.4274 68.6579,68.2607 67.5,67C 67.7591,65.7387 68.4258,64.7387 69.5,64C 68.434,62.841 68.7673,62.0076 70.5,61.5 Z"/></g>
<g><path style="opacity:1" fill="#d1bf4b" d="M 91.5,28.5 C 102.47,27.6368 113.137,28.9701 123.5,32.5C 124.298,32.0431 124.631,31.3764 124.5,30.5C 128.097,31.8784 131.264,33.8784 134,36.5C 138.59,36.8788 142.59,39.5455 146,44.5C 146.333,44.1667 146.667,43.8333 147,43.5C 149.228,46.6397 151.895,49.3064 155,51.5C 156.81,54.6077 158.643,57.6077 160.5,60.5C 165.15,68.9482 168.317,77.9482 170,87.5C 170.383,88.056 170.883,88.3893 171.5,88.5C 171.852,93.4069 171.852,98.4069 171.5,103.5C 170.677,100.023 170.177,96.3563 170,92.5C 161.693,85.9265 152.526,80.7598 142.5,77C 141.112,76.1107 141.278,75.6107 143,75.5C 156.735,80.7137 156.901,80.2137 143.5,74C 144.056,73.6174 144.389,73.1174 144.5,72.5C 149.085,66.9939 151.752,60.6606 152.5,53.5C 150.708,53.634 149.042,53.3007 147.5,52.5C 129.055,43.9434 110.389,35.9434 91.5,28.5 Z"/></g>
<g><path style="opacity:1" fill="#786c01" d="M 61.5,67.5 C 63.4113,68.075 65.078,69.075 66.5,70.5C 64.9421,76.3565 62.2754,76.5231 58.5,71C 59.448,70.5172 60.448,70.3505 61.5,70.5C 61.5,69.5 61.5,68.5 61.5,67.5 Z"/></g>
<g><path style="opacity:1" fill="#cec03a" d="M 85.5,52.5 C 86.5417,53.7911 87.7083,53.7911 89,52.5C 89.3333,53.5 89.6667,54.5 90,55.5C 91.8733,54.9109 93.54,55.5776 95,57.5C 95.3076,56.6919 95.8076,56.0253 96.5,55.5C 97.6956,55.8457 97.6956,56.3457 96.5,57C 97.9931,58.3681 99.4931,58.5348 101,57.5C 103.205,58.6126 105.038,59.6126 106.5,60.5C 106.5,61.5 106.5,62.5 106.5,63.5C 104.983,63.4894 103.816,62.8228 103,61.5C 101.738,68.0611 103.571,73.8945 108.5,79C 119.265,83.6219 121.931,80.7886 116.5,70.5C 117.117,70.3893 117.617,70.056 118,69.5C 119.711,72.2554 121.878,74.5887 124.5,76.5C 124.137,77.1835 123.804,77.8501 123.5,78.5C 122.833,78.5 122.5,78.8333 122.5,79.5C 120.488,81.2082 120.154,83.2082 121.5,85.5C 122.326,89.1359 122.992,92.8026 123.5,96.5C 121.62,96.2291 120.287,96.8958 119.5,98.5C 119.167,98.5 118.833,98.5 118.5,98.5C 116.986,95.3081 115.32,92.1414 113.5,89C 111.209,88.7746 109.209,88.6079 107.5,88.5C 108.661,83.8254 106.994,81.1587 102.5,80.5C 100.777,78.7819 98.7772,77.4486 96.5,76.5C 92.2519,74.7871 89.2519,76.1205 87.5,80.5C 85.1191,79.5804 82.7857,79.5804 80.5,80.5C 80.3309,79.6034 79.9976,78.6034 79.5,77.5C 77.9954,80.1306 77.3287,79.7973 77.5,76.5C 74.3084,76.5955 71.3084,75.9288 68.5,74.5C 68.4701,73.5028 68.9701,72.8361 70,72.5C 75.8856,73.078 80.0522,70.4113 82.5,64.5C 81.091,61.1384 82.091,58.6384 85.5,57C 84.1991,55.3845 84.1991,53.8845 85.5,52.5 Z"/></g>
<g><path style="opacity:1" fill="#cab746" d="M 39.5,59.5 C 41.5125,66.5073 46.1792,70.8407 53.5,72.5C 52.78,79.3222 52.1134,86.1556 51.5,93C 51.1865,98.2275 52.1865,103.061 54.5,107.5C 55.1266,111.42 56.7933,114.753 59.5,117.5C 59.5,117.833 59.5,118.167 59.5,118.5C 52.3647,115.602 45.0313,113.269 37.5,111.5C 32.001,111.513 30.1677,114.18 32,119.5C 34.2047,122.04 36.7047,124.207 39.5,126C 45.671,129 52.0044,131.5 58.5,133.5C 58.1984,136.059 58.5318,138.393 59.5,140.5C 59.8583,143.689 60.525,146.689 61.5,149.5C 64.3794,153.925 66.7127,158.592 68.5,163.5C 62.2195,161.025 56.5528,157.525 51.5,153C 35.3532,137.209 27.0199,118.042 26.5,95.5C 27.3213,98.6414 27.8213,101.975 28,105.5C 27.67,94.2131 29.17,83.2131 32.5,72.5C 33.6135,68.2725 35.2802,64.2725 37.5,60.5C 37.9569,59.7025 38.6236,59.3691 39.5,59.5 Z"/></g>
<g><path style="opacity:1" fill="#996a1e" d="M 31.5,64.5 C 28.7416,71.1127 26.4083,77.7793 24.5,84.5C 25.0103,79.7887 25.8436,75.122 27,70.5C 27.8136,67.8233 29.3136,65.8233 31.5,64.5 Z"/></g>
<g><path style="opacity:1" fill="#96893a" d="M 160.5,60.5 C 166.499,68.8143 170.166,78.1476 171.5,88.5C 170.883,88.3893 170.383,88.056 170,87.5C 168.317,77.9482 165.15,68.9482 160.5,60.5 Z"/></g>
<g><path style="opacity:1" fill="#766600" d="M 63.5,44.5 C 63.8333,44.5 64.1667,44.5 64.5,44.5C 59.1823,50.4727 56.0157,57.4727 55,65.5C 53.8313,79.511 53.6647,93.511 54.5,107.5C 52.1865,103.061 51.1865,98.2275 51.5,93C 52.1134,86.1556 52.78,79.3222 53.5,72.5C 53.3345,68.4862 53.5012,64.4862 54,60.5C 55.4042,54.0102 58.5709,48.6769 63.5,44.5 Z"/></g>
<g><path style="opacity:1" fill="#120f02" d="M 96.5,76.5 C 96.5,76.8333 96.5,77.1667 96.5,77.5C 97.8333,79.5 97.8333,81.5 96.5,83.5C 94.8333,83.5 93.1667,83.5 91.5,83.5C 91.6332,80.075 90.9665,79.7417 89.5,82.5C 88.8333,81.8333 88.1667,81.1667 87.5,80.5C 89.2519,76.1205 92.2519,74.7871 96.5,76.5 Z"/></g>
<g><path style="opacity:1" fill="#161207" d="M 122.5,79.5 C 123.995,79.4148 124.995,80.0815 125.5,81.5C 124.754,82.7362 124.421,84.0695 124.5,85.5C 123.5,85.5 122.5,85.5 121.5,85.5C 120.154,83.2082 120.488,81.2082 122.5,79.5 Z"/></g>
<g><path style="opacity:1" fill="#faf9f7" d="M 138.5,93.5 C 138.665,96.5184 138.498,99.5184 138,102.5C 137.333,103.833 136.667,103.833 136,102.5C 135.456,96.5358 134.289,90.7024 132.5,85C 132.542,83.0326 133.042,81.1992 134,79.5C 135.244,82.6382 135.911,85.9716 136,89.5C 136.608,91.0664 137.442,92.3998 138.5,93.5 Z"/></g>
<g><path style="opacity:1" fill="#f5f1c0" d="M 96.5,77.5 C 101.459,79.9634 101.459,81.9634 96.5,83.5C 97.8333,81.5 97.8333,79.5 96.5,77.5 Z"/></g>
<g><path style="opacity:1" fill="#9a6c20" d="M 168.5,66.5 C 169.376,66.3691 170.043,66.7025 170.5,67.5C 174.313,75.0455 175.98,83.0455 175.5,91.5C 173.969,83.0537 171.635,74.7204 168.5,66.5 Z"/></g>
<g><path style="opacity:1" fill="#8c7f35" d="M 32.5,72.5 C 29.17,83.2131 27.67,94.2131 28,105.5C 27.8213,101.975 27.3213,98.6414 26.5,95.5C 26.8045,87.2773 28.8045,79.6106 32.5,72.5 Z"/></g>
<g><path style="opacity:1" fill="#f2e06f" d="M 115.5,103.5 C 116.512,107.024 118.178,110.19 120.5,113C 119.218,114.911 117.385,115.744 115,115.5C 112.813,115.212 110.646,114.878 108.5,114.5C 107.833,113.833 107.167,113.167 106.5,112.5C 104.97,110.654 102.97,109.654 100.5,109.5C 93.9229,110.424 88.9229,108.091 85.5,102.5C 86.7366,101.719 87.7366,100.719 88.5,99.5C 85.4662,98.4329 82.4662,97.2663 79.5,96C 78.1486,92.805 75.8153,90.9717 72.5,90.5C 72.3367,92.8568 72.5034,95.1902 73,97.5C 77.2189,100.052 80.3855,103.552 82.5,108C 79.6691,109.917 77.1691,109.417 75,106.5C 74.8333,106.833 74.6667,107.167 74.5,107.5C 76.4752,110.805 78.8085,113.805 81.5,116.5C 81.782,120.913 83.1153,124.913 85.5,128.5C 84.1266,128.657 82.7932,128.49 81.5,128C 79.5992,126.361 77.5992,124.861 75.5,123.5C 75.1667,122.833 74.8333,122.167 74.5,121.5C 70.0667,116.045 66.4,110.045 63.5,103.5C 63.8333,102.833 64.1667,102.167 64.5,101.5C 61.8898,96.1472 60.8898,90.4805 61.5,84.5C 67.4633,83.3491 73.4633,82.5158 79.5,82C 87.9946,86.1643 95.6613,91.4976 102.5,98C 105.407,98.8545 107.74,98.0212 109.5,95.5C 111.031,98.583 113.031,101.25 115.5,103.5 Z"/></g>
<g><path style="opacity:1" fill="#49400a" d="M 96.5,77.5 C 96.5,77.1667 96.5,76.8333 96.5,76.5C 98.7772,77.4486 100.777,78.7819 102.5,80.5C 102.506,83.9764 100.84,85.9764 97.5,86.5C 94.3117,86.3822 91.3117,85.5489 88.5,84C 89.056,83.6174 89.3893,83.1174 89.5,82.5C 90.9665,79.7417 91.6332,80.075 91.5,83.5C 93.1667,83.5 94.8333,83.5 96.5,83.5C 101.459,81.9634 101.459,79.9634 96.5,77.5 Z"/></g>
<g><path style="opacity:1" fill="#ac9b1a" d="M 102.5,80.5 C 106.994,81.1587 108.661,83.8254 107.5,88.5C 103.518,91.3038 100.185,90.6371 97.5,86.5C 100.84,85.9764 102.506,83.9764 102.5,80.5 Z"/></g>
<g><path style="opacity:1" fill="#f9f2ba" d="M 100.5,109.5 C 96.7774,112.61 95.7774,116.443 97.5,121C 96.9019,122.301 95.9019,123.135 94.5,123.5C 89.9533,121.396 85.62,119.063 81.5,116.5C 78.8085,113.805 76.4752,110.805 74.5,107.5C 74.6667,107.167 74.8333,106.833 75,106.5C 77.1691,109.417 79.6691,109.917 82.5,108C 80.3855,103.552 77.2189,100.052 73,97.5C 72.5034,95.1902 72.3367,92.8568 72.5,90.5C 75.8153,90.9717 78.1486,92.805 79.5,96C 82.4662,97.2663 85.4662,98.4329 88.5,99.5C 87.7366,100.719 86.7366,101.719 85.5,102.5C 88.9229,108.091 93.9229,110.424 100.5,109.5 Z"/></g>
<g><path style="opacity:1" fill="#7d6f00" d="M 160.5,92.5 C 162.265,91.5386 164.265,91.2053 166.5,91.5C 166.5,98.1667 166.5,104.833 166.5,111.5C 166.84,113.548 166.507,114.548 165.5,114.5C 165.5,107.167 165.5,99.8333 165.5,92.5C 163.833,92.5 162.167,92.5 160.5,92.5 Z"/></g>
<g><path style="opacity:1" fill="#998c1b" d="M 122.5,79.5 C 122.5,78.8333 122.833,78.5 123.5,78.5C 124.496,78.4142 125.329,78.7476 126,79.5C 126.251,81.433 126.751,83.2663 127.5,85C 126.167,86.3333 124.833,87.6667 123.5,89C 126.072,91.3128 127.739,94.1461 128.5,97.5C 126.883,96.962 125.216,96.6287 123.5,96.5C 122.992,92.8026 122.326,89.1359 121.5,85.5C 122.5,85.5 123.5,85.5 124.5,85.5C 124.421,84.0695 124.754,82.7362 125.5,81.5C 124.995,80.0815 123.995,79.4148 122.5,79.5 Z"/></g>
<g><path style="opacity:1" fill="#ecdd5c" d="M 144.5,72.5 C 144.389,73.1174 144.056,73.6174 143.5,74C 156.901,80.2137 156.735,80.7137 143,75.5C 141.278,75.6107 141.112,76.1107 142.5,77C 152.526,80.7598 161.693,85.9265 170,92.5C 170.177,96.3563 170.677,100.023 171.5,103.5C 170.85,105.435 170.517,107.435 170.5,109.5C 171.959,109.433 173.292,109.766 174.5,110.5C 173.992,114.197 173.326,117.864 172.5,121.5C 170.821,121.715 169.821,121.048 169.5,119.5C 169.59,117.304 169.923,115.137 170.5,113C 170.167,112.167 169.833,111.333 169.5,110.5C 168.583,111.127 167.583,111.461 166.5,111.5C 166.5,104.833 166.5,98.1667 166.5,91.5C 164.265,91.2053 162.265,91.5386 160.5,92.5C 160.665,95.5184 160.498,98.5184 160,101.5C 156,98.1667 152,94.8333 148,91.5C 147.502,94.4816 147.335,97.4816 147.5,100.5C 146.5,100.5 145.5,100.5 144.5,100.5C 144.5,101.5 144.5,102.5 144.5,103.5C 142.836,102.257 141.669,100.59 141,98.5C 140.696,102.548 140.196,106.548 139.5,110.5C 138.527,112.139 137.194,113.473 135.5,114.5C 136.758,112.313 137.758,109.98 138.5,107.5C 139.833,102.833 139.833,98.1667 138.5,93.5C 137.686,88.8809 137.353,84.2142 137.5,79.5C 138.827,76.173 141.16,73.8396 144.5,72.5 Z"/></g>
<g><path style="opacity:1" fill="#b3a221" d="M 160.5,92.5 C 162.167,92.5 163.833,92.5 165.5,92.5C 165.5,99.8333 165.5,107.167 165.5,114.5C 161.562,111.902 157.895,108.902 154.5,105.5C 153.679,108.447 153.179,111.447 153,114.5C 148.671,112.023 146.838,108.357 147.5,103.5C 146.5,103.5 145.5,103.5 144.5,103.5C 144.5,102.5 144.5,101.5 144.5,100.5C 145.5,100.5 146.5,100.5 147.5,100.5C 147.335,97.4816 147.502,94.4816 148,91.5C 152,94.8333 156,98.1667 160,101.5C 160.498,98.5184 160.665,95.5184 160.5,92.5 Z"/></g>
<g><path style="opacity:1" fill="#9b6e21" d="M 24.5,85.5 C 22.3247,100.937 23.9913,115.937 29.5,130.5C 27.6885,128.615 26.5218,126.281 26,123.5C 22.229,110.785 21.729,98.1185 24.5,85.5 Z"/></g>
<g><path style="opacity:1" fill="#d5c34b" d="M 68.5,74.5 C 71.3084,75.9288 74.3084,76.5955 77.5,76.5C 77.3287,79.7973 77.9954,80.1306 79.5,77.5C 79.9976,78.6034 80.3309,79.6034 80.5,80.5C 82.7857,79.5804 85.1191,79.5804 87.5,80.5C 88.1667,81.1667 88.8333,81.8333 89.5,82.5C 89.3893,83.1174 89.056,83.6174 88.5,84C 91.3117,85.5489 94.3117,86.3822 97.5,86.5C 100.185,90.6371 103.518,91.3038 107.5,88.5C 109.209,88.6079 111.209,88.7746 113.5,89C 115.32,92.1414 116.986,95.3081 118.5,98.5C 118.167,99.1667 117.833,99.8333 117.5,100.5C 116.094,100.973 115.427,101.973 115.5,103.5C 113.031,101.25 111.031,98.583 109.5,95.5C 107.74,98.0212 105.407,98.8545 102.5,98C 95.6613,91.4976 87.9946,86.1643 79.5,82C 73.4633,82.5158 67.4633,83.3491 61.5,84.5C 60.8898,90.4805 61.8898,96.1472 64.5,101.5C 64.1667,102.167 63.8333,102.833 63.5,103.5C 66.4,110.045 70.0667,116.045 74.5,121.5C 59.9803,112.662 53.6469,99.662 55.5,82.5C 56.9305,82.4208 58.2638,82.7542 59.5,83.5C 60.8333,82.5 62.1667,81.5 63.5,80.5C 64.5984,81.6155 65.7651,81.6155 67,80.5C 69.9254,78.8442 70.0921,77.0109 67.5,75C 67.7284,74.6012 68.0618,74.4346 68.5,74.5 Z"/></g>
<g><path style="opacity:1" fill="#574b01" d="M 117.5,100.5 C 117.833,99.8333 118.167,99.1667 118.5,98.5C 118.833,98.5 119.167,98.5 119.5,98.5C 121.927,97.0262 124.26,97.1929 126.5,99C 129.273,102.205 128.607,104.705 124.5,106.5C 123.551,102.727 121.384,101.727 118,103.5C 117.517,102.552 117.351,101.552 117.5,100.5 Z"/></g>
<g><path style="opacity:1" fill="#2b2500" d="M 123.5,96.5 C 125.216,96.6287 126.883,96.962 128.5,97.5C 129.695,99.7513 130.695,102.085 131.5,104.5C 130.599,105.29 129.932,106.29 129.5,107.5C 128.698,110.167 126.698,112.333 123.5,114C 124.619,115.876 126.286,116.709 128.5,116.5C 128.5,117.167 128.167,117.5 127.5,117.5C 121.838,117.031 116.171,116.531 110.5,116C 109.584,115.722 108.918,115.222 108.5,114.5C 110.646,114.878 112.813,115.212 115,115.5C 117.385,115.744 119.218,114.911 120.5,113C 118.178,110.19 116.512,107.024 115.5,103.5C 115.427,101.973 116.094,100.973 117.5,100.5C 117.351,101.552 117.517,102.552 118,103.5C 121.384,101.727 123.551,102.727 124.5,106.5C 128.607,104.705 129.273,102.205 126.5,99C 124.26,97.1929 121.927,97.0262 119.5,98.5C 120.287,96.8958 121.62,96.2291 123.5,96.5 Z"/></g>
<g><path style="opacity:1" fill="#d9c74e" d="M 144.5,103.5 C 145.5,103.5 146.5,103.5 147.5,103.5C 146.838,108.357 148.671,112.023 153,114.5C 153.179,111.447 153.679,108.447 154.5,105.5C 157.895,108.902 161.562,111.902 165.5,114.5C 166.507,114.548 166.84,113.548 166.5,111.5C 167.583,111.461 168.583,111.127 169.5,110.5C 169.833,111.333 170.167,112.167 170.5,113C 169.923,115.137 169.59,117.304 169.5,119.5C 169.167,119.5 168.833,119.5 168.5,119.5C 168.53,118.503 168.03,117.836 167,117.5C 163.504,118.429 160.004,118.262 156.5,117C 150.766,114.923 145.099,112.757 139.5,110.5C 140.196,106.548 140.696,102.548 141,98.5C 141.669,100.59 142.836,102.257 144.5,103.5 Z"/></g>
<g><path style="opacity:1" fill="#a69422" d="M 131.5,104.5 C 131.18,107.898 131.513,111.232 132.5,114.5C 134.523,112.147 136.523,109.814 138.5,107.5C 137.758,109.98 136.758,112.313 135.5,114.5C 131.37,120.085 126.37,124.752 120.5,128.5C 119.167,128.5 117.833,128.5 116.5,128.5C 112.381,126.536 108.214,126.869 104,129.5C 103.586,129.043 103.086,128.709 102.5,128.5C 96.6984,131.126 91.0318,131.126 85.5,128.5C 83.1153,124.913 81.782,120.913 81.5,116.5C 85.62,119.063 89.9533,121.396 94.5,123.5C 95.9019,123.135 96.9019,122.301 97.5,121C 95.7774,116.443 96.7774,112.61 100.5,109.5C 102.97,109.654 104.97,110.654 106.5,112.5C 106.002,115.935 107.669,118.435 111.5,120C 115.5,120.667 119.5,120.667 123.5,120C 125.32,119.8 126.653,118.966 127.5,117.5C 128.167,117.5 128.5,117.167 128.5,116.5C 129.317,114.169 129.984,111.669 130.5,109C 130.43,108.235 130.097,107.735 129.5,107.5C 129.932,106.29 130.599,105.29 131.5,104.5 Z"/></g>
<g><path style="opacity:1" fill="#726100" d="M 129.5,107.5 C 130.097,107.735 130.43,108.235 130.5,109C 129.984,111.669 129.317,114.169 128.5,116.5C 126.286,116.709 124.619,115.876 123.5,114C 126.698,112.333 128.698,110.167 129.5,107.5 Z"/></g>
<g><path style="opacity:1" fill="#dbc94f" d="M 59.5,118.5 C 59.5,119.167 59.8333,119.5 60.5,119.5C 59.962,121.117 59.6287,122.784 59.5,124.5C 58.8333,124.5 58.5,124.833 58.5,125.5C 58.5,128.167 58.5,130.833 58.5,133.5C 52.0044,131.5 45.671,129 39.5,126C 36.7047,124.207 34.2047,122.04 32,119.5C 30.1677,114.18 32.001,111.513 37.5,111.5C 45.0313,113.269 52.3647,115.602 59.5,118.5 Z"/></g>
<g><path style="opacity:1" fill="#6e5d01" d="M 106.5,112.5 C 107.167,113.167 107.833,113.833 108.5,114.5C 108.918,115.222 109.584,115.722 110.5,116C 116.171,116.531 121.838,117.031 127.5,117.5C 126.653,118.966 125.32,119.8 123.5,120C 119.5,120.667 115.5,120.667 111.5,120C 107.669,118.435 106.002,115.935 106.5,112.5 Z"/></g>
<g><path style="opacity:1" fill="#c9b645" d="M 139.5,110.5 C 145.099,112.757 150.766,114.923 156.5,117C 160.004,118.262 163.504,118.429 167,117.5C 168.03,117.836 168.53,118.503 168.5,119.5C 165.399,128.369 161.232,136.702 156,144.5C 151.715,149.891 146.548,154.225 140.5,157.5C 139.528,154.014 137.528,151.181 134.5,149C 128.719,145.685 122.719,142.852 116.5,140.5C 116.612,136.035 117.945,132.035 120.5,128.5C 126.37,124.752 131.37,120.085 135.5,114.5C 137.194,113.473 138.527,112.139 139.5,110.5 Z"/></g>
<g><path style="opacity:1" fill="#222000" d="M 60.5,119.5 C 64.6655,122.193 68.9988,124.526 73.5,126.5C 69.8342,124.954 67.6676,126.288 67,130.5C 65.292,132.543 63.292,134.21 61,135.5C 60.3923,137.154 59.8923,138.821 59.5,140.5C 58.5318,138.393 58.1984,136.059 58.5,133.5C 58.5,130.833 58.5,128.167 58.5,125.5C 59.3195,128.305 59.8195,131.305 60,134.5C 60.8075,130.973 60.6408,127.64 59.5,124.5C 59.6287,122.784 59.962,121.117 60.5,119.5 Z"/></g>
<g><path style="opacity:1" fill="#564900" d="M 73.5,126.5 C 73.7394,128.467 73.4061,130.301 72.5,132C 74.1667,132.833 75.8333,133.667 77.5,134.5C 81.3385,130.126 84.0051,130.793 85.5,136.5C 86.7362,137.246 88.0695,137.579 89.5,137.5C 89.5,138.5 89.5,139.5 89.5,140.5C 90.8734,140.657 92.2068,140.49 93.5,140C 92.944,139.617 92.6107,139.117 92.5,138.5C 93.9587,138.433 95.2921,138.766 96.5,139.5C 96.1667,140.833 95.8333,142.167 95.5,143.5C 90.8215,143.334 86.1548,143.501 81.5,144C 79.249,144.748 77.9156,146.248 77.5,148.5C 77.5,149.167 77.1667,149.5 76.5,149.5C 75.1411,148.993 74.1411,147.993 73.5,146.5C 71.4664,147.559 69.4664,148.559 67.5,149.5C 67.1075,147.716 66.4408,146.05 65.5,144.5C 62.5159,144.787 61.1826,146.454 61.5,149.5C 60.525,146.689 59.8583,143.689 59.5,140.5C 59.8923,138.821 60.3923,137.154 61,135.5C 63.292,134.21 65.292,132.543 67,130.5C 67.6676,126.288 69.8342,124.954 73.5,126.5 Z"/></g>
<g><path style="opacity:1" fill="#706101" d="M 58.5,125.5 C 58.5,124.833 58.8333,124.5 59.5,124.5C 60.6408,127.64 60.8075,130.973 60,134.5C 59.8195,131.305 59.3195,128.305 58.5,125.5 Z"/></g>
<g><path style="opacity:1" fill="#746401" d="M 59.5,117.5 C 65.0173,119.019 70.3506,121.019 75.5,123.5C 77.5992,124.861 79.5992,126.361 81.5,128C 82.7932,128.49 84.1266,128.657 85.5,128.5C 91.0318,131.126 96.6984,131.126 102.5,128.5C 103.086,128.709 103.586,129.043 104,129.5C 108.214,126.869 112.381,126.536 116.5,128.5C 114.967,130.245 112.967,131.245 110.5,131.5C 104.211,132.372 97.8778,132.705 91.5,132.5C 85.4123,130.878 79.4123,128.878 73.5,126.5C 68.9988,124.526 64.6655,122.193 60.5,119.5C 59.8333,119.5 59.5,119.167 59.5,118.5C 59.5,118.167 59.5,117.833 59.5,117.5 Z"/></g>
<g><path style="opacity:1" fill="#a37221" d="M 175.5,92.5 C 176.641,100.692 176.474,109.025 175,117.5C 172.867,124.231 170.534,130.898 168,137.5C 165.967,140.03 163.8,142.363 161.5,144.5C 165.955,137.255 169.622,129.589 172.5,121.5C 173.326,117.864 173.992,114.197 174.5,110.5C 175.363,104.545 175.697,98.5451 175.5,92.5 Z"/></g>
<g><path style="opacity:1" fill="#524600" d="M 99.5,143.5 C 99.4828,141.435 99.1495,139.435 98.5,137.5C 99.7382,136.588 101.072,136.421 102.5,137C 101.289,137.893 101.289,138.726 102.5,139.5C 103.775,132.963 105.275,132.963 107,139.5C 108.269,138.095 108.769,136.429 108.5,134.5C 111.408,134.738 113.742,133.738 115.5,131.5C 115.833,132 116.167,132.5 116.5,133C 114.176,136.31 111.676,139.477 109,142.5C 108.692,141.692 108.192,141.025 107.5,140.5C 106.28,141.711 105.113,141.711 104,140.5C 101.904,141.715 102.071,142.549 104.5,143C 102.866,143.494 101.199,143.66 99.5,143.5 Z"/></g>
<g><path style="opacity:1" fill="#201e01" d="M 73.5,126.5 C 79.4123,128.878 85.4123,130.878 91.5,132.5C 92.9526,133.825 92.6192,134.658 90.5,135C 92.6194,138.169 94.6194,138.169 96.5,135C 96.1667,134.667 95.8333,134.333 95.5,134C 99.8333,133.667 104.167,133.333 108.5,133C 109.416,132.722 110.082,132.222 110.5,131.5C 112.967,131.245 114.967,130.245 116.5,128.5C 117.833,128.5 119.167,128.5 120.5,128.5C 117.945,132.035 116.612,136.035 116.5,140.5C 113.337,142.246 110.004,143.746 106.5,145C 99.8417,145.5 93.175,145.666 86.5,145.5C 83.1826,145.664 80.1826,146.664 77.5,148.5C 77.9156,146.248 79.249,144.748 81.5,144C 86.1548,143.501 90.8215,143.334 95.5,143.5C 96.8333,143.5 98.1667,143.5 99.5,143.5C 101.199,143.66 102.866,143.494 104.5,143C 102.071,142.549 101.904,141.715 104,140.5C 105.113,141.711 106.28,141.711 107.5,140.5C 108.192,141.025 108.692,141.692 109,142.5C 111.676,139.477 114.176,136.31 116.5,133C 116.167,132.5 115.833,132 115.5,131.5C 113.742,133.738 111.408,134.738 108.5,134.5C 108.769,136.429 108.269,138.095 107,139.5C 105.275,132.963 103.775,132.963 102.5,139.5C 101.289,138.726 101.289,137.893 102.5,137C 101.072,136.421 99.7382,136.588 98.5,137.5C 97.8333,138.167 97.1667,138.833 96.5,139.5C 95.2921,138.766 93.9587,138.433 92.5,138.5C 91.391,138.443 90.391,138.11 89.5,137.5C 88.0695,137.579 86.7362,137.246 85.5,136.5C 84.0051,130.793 81.3385,130.126 77.5,134.5C 75.8333,133.667 74.1667,132.833 72.5,132C 73.4061,130.301 73.7394,128.467 73.5,126.5 Z"/></g>
<g><path style="opacity:1" fill="#4d4401" d="M 110.5,131.5 C 110.082,132.222 109.416,132.722 108.5,133C 104.167,133.333 99.8333,133.667 95.5,134C 95.8333,134.333 96.1667,134.667 96.5,135C 94.6194,138.169 92.6194,138.169 90.5,135C 92.6192,134.658 92.9526,133.825 91.5,132.5C 97.8778,132.705 104.211,132.372 110.5,131.5 Z"/></g>
<g><path style="opacity:1" fill="#8b7807" d="M 65.5,144.5 C 64.2347,143.521 62.9014,142.521 61.5,141.5C 64.1421,137.691 66.9754,134.024 70,130.5C 69.8471,133.174 69.3471,135.84 68.5,138.5C 72.51,136.737 76.1767,137.237 79.5,140C 77.301,141.697 74.9676,143.197 72.5,144.5C 70.2727,143.947 67.9393,143.947 65.5,144.5 Z"/></g>
<g><path style="opacity:1" fill="#a29316" d="M 89.5,137.5 C 90.391,138.11 91.391,138.443 92.5,138.5C 92.6107,139.117 92.944,139.617 93.5,140C 92.2068,140.49 90.8734,140.657 89.5,140.5C 89.5,139.5 89.5,138.5 89.5,137.5 Z"/></g>
<g><path style="opacity:1" fill="#907f08" d="M 98.5,137.5 C 99.1495,139.435 99.4828,141.435 99.5,143.5C 98.1667,143.5 96.8333,143.5 95.5,143.5C 95.8333,142.167 96.1667,140.833 96.5,139.5C 97.1667,138.833 97.8333,138.167 98.5,137.5 Z"/></g>
<g><path style="opacity:1" fill="#d9c74e" d="M 116.5,140.5 C 122.719,142.852 128.719,145.685 134.5,149C 137.528,151.181 139.528,154.014 140.5,157.5C 138.252,159.635 135.586,161.302 132.5,162.5C 127.629,162.808 122.963,161.975 118.5,160C 107.605,155.435 96.9388,150.601 86.5,145.5C 93.175,145.666 99.8417,145.5 106.5,145C 110.004,143.746 113.337,142.246 116.5,140.5 Z"/></g>
<g><path style="opacity:1" fill="#bd8327" d="M 33.5,138.5 C 40.8333,149.167 49.8333,158.167 60.5,165.5C 55.9521,163.893 51.6188,161.726 47.5,159C 43.6126,155.113 39.7792,151.279 36,147.5C 34.8695,144.555 34.0362,141.555 33.5,138.5 Z"/></g>
<g><path style="opacity:1" fill="#c9b745" d="M 86.5,145.5 C 96.9388,150.601 107.605,155.435 118.5,160C 122.963,161.975 127.629,162.808 132.5,162.5C 122.441,168.464 111.441,171.131 99.5,170.5C 88.3847,171.08 78.0514,168.747 68.5,163.5C 70.6316,158.575 73.2983,153.908 76.5,149.5C 77.1667,149.5 77.5,149.167 77.5,148.5C 80.1826,146.664 83.1826,145.664 86.5,145.5 Z"/></g>
<g><path style="opacity:1" fill="#1f1d00" d="M 65.5,144.5 C 66.4408,146.05 67.1075,147.716 67.5,149.5C 69.4664,148.559 71.4664,147.559 73.5,146.5C 74.1411,147.993 75.1411,148.993 76.5,149.5C 73.2983,153.908 70.6316,158.575 68.5,163.5C 66.7127,158.592 64.3794,153.925 61.5,149.5C 61.1826,146.454 62.5159,144.787 65.5,144.5 Z"/></g>
<g><path style="opacity:1" fill="#816e03" d="M 67.5,149.5 C 67.369,150.239 67.5357,150.906 68,151.5C 69.5843,150.139 71.4176,149.472 73.5,149.5C 73.2189,151.963 72.2189,154.13 70.5,156C 68.0658,156.333 67.0658,155.166 67.5,152.5C 63.9286,152.592 62.7619,150.926 64,147.5C 65.1127,148.305 66.2794,148.972 67.5,149.5 Z"/></g>
<g><path style="opacity:1" fill="#9e6e20" d="M 60.5,165.5 C 70.4117,170.472 80.745,173.805 91.5,175.5C 83.4918,175.748 75.8252,174.248 68.5,171C 65.3793,169.694 62.7126,167.86 60.5,165.5 Z"/></g>
<g><path style="opacity:1" fill="#a67422" d="M 161.5,144.5 C 160.928,146.255 160.094,147.922 159,149.5C 152.368,156.524 145.202,162.691 137.5,168C 125.687,173.248 113.354,176.082 100.5,176.5C 97.6445,176.497 94.9779,176.164 92.5,175.5C 120.89,176.799 143.89,166.466 161.5,144.5 Z"/></g>
</svg>
