<?xml version="1.0" encoding="UTF-8"?>
  <svg xmlns="http://www.w3.org/2000/svg" xmlns:xlink="http://www.w3.org/1999/xlink" width="540px" height="540px" viewBox="0 0 540 540" version="1.1">
    <defs>
      <radialGradient id="radial0" gradientUnits="userSpaceOnUse" cx="0" cy="0" fx="0" fy="0" r="1" gradientTransform="matrix(241.075356,-88.594811,88.596558,241.080114,269.3925,270.001688)">
        <stop offset="0" style="stop-color:rgb(100%,100%,100%);stop-opacity:1;"/>
        <stop offset="1" style="stop-color:rgb(100%,100%,100%);stop-opacity:0;"/>
      </radialGradient>
    </defs>
    <g id="surface1">
      <rect x="0" y="0" width="540" height="540" style="fill:rgb(4.705882%,4.313725%,5.098039%);fill-opacity:1;stroke:none;"/>
      <path style=" stroke:none;fill-rule:nonzero;fill:url(#radial0);" d="M 490.589844 159.683594 C 493.796875 158.082031 495.101562 154.179688 493.417969 151.019531 C 468.914062 105 430.761719 67.621094 384.128906 44.066406 C 335.570312 19.535156 280.394531 11.300781 226.789062 20.589844 C 173.179688 29.878906 123.992188 56.191406 86.511719 95.632812 C 49.035156 135.070312 25.257812 185.535156 18.714844 239.546875 C 12.167969 293.558594 23.199219 348.242188 50.171875 395.492188 C 77.144531 442.742188 118.625 480.042969 168.460938 501.867188 C 218.296875 523.691406 273.84375 528.878906 326.859375 516.65625 C 377.765625 504.921875 423.742188 477.734375 458.527344 438.90625 C 460.921875 436.238281 460.585938 432.136719 457.855469 429.816406 C 455.128906 427.492188 451.039062 427.832031 448.644531 430.496094 C 415.664062 467.203125 372.132812 492.90625 323.945312 504.015625 C 273.644531 515.609375 220.949219 510.6875 173.664062 489.984375 C 126.382812 469.277344 87.03125 433.886719 61.4375 389.058594 C 35.847656 344.230469 25.382812 292.351562 31.59375 241.109375 C 37.804688 189.863281 60.359375 141.984375 95.917969 104.570312 C 131.472656 67.152344 178.144531 42.1875 229.003906 33.375 C 279.863281 24.5625 332.207031 32.371094 378.28125 55.644531 C 422.421875 77.945312 458.554688 113.300781 481.8125 156.824219 C 483.5 159.984375 487.390625 161.289062 490.589844 159.683594 Z M 490.589844 159.683594 "/>
      <path style=" stroke:none;fill-rule:nonzero;fill:rgb(100%,100%,100%);fill-opacity:1;" d="M 367.257812 365.890625 L 186.859375 253.359375 L 186.859375 160.394531 C 186.859375 155.828125 182.679688 151.914062 177.804688 151.914062 C 172.929688 151.914062 168.75 155.828125 168.75 160.394531 L 168.75 372.417969 C 168.75 376.984375 172.929688 380.898438 177.804688 380.898438 C 182.679688 380.898438 186.859375 376.984375 186.859375 372.417969 L 186.859375 273.582031 L 357.15625 379.917969 C 361.335938 382.527344 366.910156 381.546875 369.695312 377.636719 L 369.695312 377.308594 C 372.480469 373.71875 371.4375 368.503906 367.257812 365.890625 Z M 367.257812 365.890625 "/>
      <path style=" stroke:none;fill-rule:nonzero;fill:rgb(100%,100%,100%);fill-opacity:1;" d="M 250.234375 227.914062 L 252.324219 230.851562 C 254.414062 233.789062 258.941406 234.765625 262.074219 232.808594 L 367.25 166.917969 C 370.382812 164.960938 371.425781 160.722656 369.339844 157.785156 L 367.25 154.851562 C 365.160156 151.914062 360.632812 150.9375 357.496094 152.894531 L 252.324219 218.78125 C 249.191406 220.738281 248.144531 224.652344 250.234375 227.914062 Z M 250.234375 227.914062 "/>
    </g>
  </svg>
