<?xml version="1.0" encoding="UTF-8"?>
<!DOCTYPE svg PUBLIC "-//W3C//DTD SVG 1.1//EN" "http://www.w3.org/Graphics/SVG/1.1/DTD/svg11.dtd">
<svg xmlns="http://www.w3.org/2000/svg" version="1.1" width="200px" height="200px" style="shape-rendering:geometricPrecision; text-rendering:geometricPrecision; image-rendering:optimizeQuality; fill-rule:evenodd; clip-rule:evenodd" xmlns:xlink="http://www.w3.org/1999/xlink">
<g><path style="opacity:1" fill="#064b37" d="M -0.5,-0.5 C 66.1667,-0.5 132.833,-0.5 199.5,-0.5C 199.5,66.1667 199.5,132.833 199.5,199.5C 132.833,199.5 66.1667,199.5 -0.5,199.5C -0.5,132.833 -0.5,66.1667 -0.5,-0.5 Z"/></g>
<g><path style="opacity:1" fill="#f9faf9" d="M 51.5,51.5 C 57.5,51.5 63.5,51.5 69.5,51.5C 69.5,76.8333 69.5,102.167 69.5,127.5C 95.5,127.5 121.5,127.5 147.5,127.5C 147.5,134.167 147.5,140.833 147.5,147.5C 115.5,147.5 83.5,147.5 51.5,147.5C 51.5,115.5 51.5,83.5 51.5,51.5 Z"/></g>
<g><path style="opacity:1" fill="#f9faf9" d="M 88.5,51.5 C 108.167,51.5 127.833,51.5 147.5,51.5C 147.5,58.1667 147.5,64.8333 147.5,71.5C 127.833,71.5 108.167,71.5 88.5,71.5C 88.5,64.8333 88.5,58.1667 88.5,51.5 Z"/></g>
<g><path style="opacity:1" fill="#f9faf9" d="M 88.5,89.5 C 108.167,89.5 127.833,89.5 147.5,89.5C 147.5,96.1667 147.5,102.833 147.5,109.5C 127.833,109.5 108.167,109.5 88.5,109.5C 88.5,102.833 88.5,96.1667 88.5,89.5 Z"/></g>
</svg>
