<?xml version="1.0" encoding="UTF-8"?>
<svg version="1.1" xmlns="http://www.w3.org/2000/svg" width="160" height="160">
<path d="M0 0 C16.72054811 12.88510004 27.33574332 31.63569978 30.4609375 52.421875 C33.0885178 73.01642328 28.24431417 94.21852029 16.125 111.1875 C1.88638558 129.53131377 -17.64656661 140.99925847 -40.75 143.9375 C-42.12355487 144.04198191 -43.49883819 144.1262781 -44.875 144.1875 C-45.55175781 144.22746094 -46.22851562 144.26742187 -46.92578125 144.30859375 C-68.95156615 144.99312454 -89.78470304 136.49826722 -105.72583008 121.55395508 C-121.58869291 105.83729374 -129.19468937 85.65895875 -129.375 63.625 C-129.15487807 40.83730007 -120.32380086 20.48497821 -104.09765625 4.44140625 C-74.08282724 -22.02804698 -32.3626551 -22.19804652 0 0 Z " fill="#FEFEFE" transform="translate(128.875,15.8125)"/>
<path d="M0 0 C6.64662518 4.0258921 9.916538 9.73789525 12.328125 16.97265625 C13.4220543 33.45332877 10.26868172 46.21368121 -0.515625 59.19140625 C-11.55309963 70.95264971 -27.24147895 78.21848271 -43.27734375 79.19140625 C-50.94162868 79.37590258 -57.51837999 78.80039075 -64.671875 75.97265625 C-61.96753819 73.80796034 -59.44098666 72.33002716 -56.234375 71.03515625 C-49.3909893 68.0222745 -45.96384212 64.77652764 -42.80078125 57.984375 C-39.78583018 49.94102804 -38.77417868 41.45526386 -37.9609375 32.95654297 C-36.68451165 19.6668592 -33.10836423 11.70090841 -23.046875 2.59765625 C-16.31804475 -2.00628024 -7.65044472 -2.94161836 0 0 Z " fill="#FFD602" transform="translate(125.671875,56.02734375)"/>
<path d="M0 0 C0.73283203 -0.00773437 1.46566406 -0.01546875 2.22070312 -0.0234375 C6.35822881 -0.00851405 9.59363195 0.40156855 13.3125 2.25 C10.3125 4.25 10.3125 4.25 8.04296875 5.44140625 C0.69854427 9.40130332 -3.59628101 13.73777591 -6.57861328 21.59887695 C-9.27334051 30.73416191 -9.1222244 39.69880927 -9.12695312 49.15625 C-9.28746064 60.04862212 -10.89045006 69.47596983 -18.72265625 77.5234375 C-25.18108201 83.19863469 -30.86063093 85.17397316 -39.53125 84.7890625 C-45.57443793 83.75693387 -49.69044074 81.00270331 -53.27734375 76.05859375 C-54.57598616 73.83396284 -55.663545 71.61198023 -56.6875 69.25 C-57.120625 68.321875 -57.55375 67.39375 -58 66.4375 C-60.87397928 53.11268696 -57.83098641 39.6521033 -50.6875 28.25 C-47.91994294 24.65529713 -44.90921429 21.43928092 -41.6875 18.25 C-40.68976562 17.20199219 -40.68976562 17.20199219 -39.671875 16.1328125 C-29.13833732 5.80029653 -14.67753149 -0.1573998 0 0 Z " fill="#201A8A" transform="translate(79.6875,24.75)"/>
</svg>
