<?xml version="1.0" encoding="UTF-8"?>
<svg version="1.1" xmlns="http://www.w3.org/2000/svg" width="200" height="200">
<path d="M0 0 C11.22 0 22.44 0 34 0 C34 0.66 34 1.32 34 2 C35.216875 1.979375 36.43375 1.95875 37.6875 1.9375 C40.91977322 1.93175884 43.84934741 2.21233685 47 3 C47 3.66 47 4.32 47 5 C49.97 5.33 52.94 5.66 56 6 C56 6.66 56 7.32 56 8 C57.98 8.33 59.96 8.66 62 9 C62 9.66 62 10.32 62 11 C64.31 11.33 66.62 11.66 69 12 C69 12.66 69 13.32 69 14 C69.99 14 70.98 14 72 14 C73.6875 15.375 73.6875 15.375 75 17 C75 17.66 75 18.32 75 19 C76.32 19.33 77.64 19.66 79 20 C79 20.66 79 21.32 79 22 C80.65 22.33 82.3 22.66 84 23 C84 23.66 84 24.32 84 25 C84.66 25 85.32 25 86 25 C87.35386936 26.65002828 88.68678142 28.3174387 90 30 C90.66 30.33 91.32 30.66 92 31 C92 31.66 92 32.32 92 33 C92.66 33 93.32 33 94 33 C94.33 33.99 94.66 34.98 95 36 C95.515625 36.515625 96.03125 37.03125 96.5625 37.5625 C97.036875 38.036875 97.51125 38.51125 98 39 C98 39.66 98 40.32 98 41 C98.66 41 99.32 41 100 41 C100.33 41.99 100.66 42.98 101 44 C101.66 44.33 102.32 44.66 103 45 C103.40729228 47.32156597 103.74438677 49.6568787 104 52 C104.66 52 105.32 52 106 52 C106 52.99 106 53.98 106 55 C106.66 55 107.32 55 108 55 C108.33 56.98 108.66 58.96 109 61 C109.66 61 110.32 61 111 61 C111.33 63.64 111.66 66.28 112 69 C112.66 69 113.32 69 114 69 C114.95261487 73.76307437 115.08333357 78.1666528 115 83 C115.66 83 116.32 83 117 83 C117 94.22 117 105.44 117 117 C116.34 117 115.68 117 115 117 C115.0309375 118.8253125 115.0309375 118.8253125 115.0625 120.6875 C115.06824116 123.91977322 114.78766315 126.84934741 114 130 C113.34 130 112.68 130 112 130 C111.67 132.97 111.34 135.94 111 139 C110.34 139 109.68 139 109 139 C108.67 140.98 108.34 142.96 108 145 C107.34 145 106.68 145 106 145 C106 145.99 106 146.98 106 148 C105.34 148 104.68 148 104 148 C103.896875 149.093125 103.79375 150.18625 103.6875 151.3125 C103 155 103 155 101.5625 156.9375 C100 158 100 158 98 158 C97.67 159.32 97.34 160.64 97 162 C96.34 162 95.68 162 95 162 C94.67 163.65 94.34 165.3 94 167 C93.34 167 92.68 167 92 167 C92 167.66 92 168.32 92 169 C90.34997172 170.35386936 88.6825613 171.68678142 87 173 C86.67 173.66 86.34 174.32 86 175 C85.34 175 84.68 175 84 175 C84 175.66 84 176.32 84 177 C82.35 177.33 80.7 177.66 79 178 C78.67 178.99 78.34 179.98 78 181 C77.34 181 76.68 181 76 181 C76 181.66 76 182.32 76 183 C75.01 183.33 74.02 183.66 73 184 C72.67 184.66 72.34 185.32 72 186 C69.67843403 186.40729228 67.3431213 186.74438677 65 187 C65 187.66 65 188.32 65 189 C64.01 189 63.02 189 62 189 C62 189.66 62 190.32 62 191 C60.02 191.33 58.04 191.66 56 192 C56 192.66 56 193.32 56 194 C53.36 194.33 50.72 194.66 48 195 C48 195.66 48 196.32 48 197 C43.23692563 197.95261487 38.8333472 198.08333357 34 198 C34 198.66 34 199.32 34 200 C22.78 200 11.56 200 0 200 C0 199.34 0 198.68 0 198 C-1.216875 198.020625 -2.43375 198.04125 -3.6875 198.0625 C-6.91977322 198.06824116 -9.84934741 197.78766315 -13 197 C-13 196.34 -13 195.68 -13 195 C-15.97 194.67 -18.94 194.34 -22 194 C-22 193.34 -22 192.68 -22 192 C-23.98 191.67 -25.96 191.34 -28 191 C-28 190.34 -28 189.68 -28 189 C-28.99 189 -29.98 189 -31 189 C-31 188.34 -31 187.68 -31 187 C-32.6396875 186.8453125 -32.6396875 186.8453125 -34.3125 186.6875 C-38 186 -38 186 -39.9375 184.5625 C-41 183 -41 183 -41 181 C-42.2065625 180.814375 -42.2065625 180.814375 -43.4375 180.625 C-44.283125 180.41875 -45.12875 180.2125 -46 180 C-46.33 179.34 -46.66 178.68 -47 178 C-47.99 177.67 -48.98 177.34 -50 177 C-50 176.34 -50 175.68 -50 175 C-50.66 175 -51.32 175 -52 175 C-53.35386936 173.34997172 -54.68678142 171.6825613 -56 170 C-56.66 169.67 -57.32 169.34 -58 169 C-58 168.34 -58 167.68 -58 167 C-58.66 167 -59.32 167 -60 167 C-60.33 165.35 -60.66 163.7 -61 162 C-61.99 161.67 -62.98 161.34 -64 161 C-64 160.34 -64 159.68 -64 159 C-64.66 159 -65.32 159 -66 159 C-66.33 158.01 -66.66 157.02 -67 156 C-67.66 155.67 -68.32 155.34 -69 155 C-69 154.01 -69 153.02 -69 152 C-69.66 152 -70.32 152 -71 152 C-71.33 149.69 -71.66 147.38 -72 145 C-72.66 145 -73.32 145 -74 145 C-74.33 143.02 -74.66 141.04 -75 139 C-75.66 139 -76.32 139 -77 139 C-77.33 136.36 -77.66 133.72 -78 131 C-78.66 131 -79.32 131 -80 131 C-80.95261487 126.23692563 -81.08333357 121.8333472 -81 117 C-81.66 117 -82.32 117 -83 117 C-83 105.78 -83 94.56 -83 83 C-82.34 83 -81.68 83 -81 83 C-81.020625 81.783125 -81.04125 80.56625 -81.0625 79.3125 C-81.06824116 76.08022678 -80.78766315 73.15065259 -80 70 C-79.34 70 -78.68 70 -78 70 C-77.67 67.03 -77.34 64.06 -77 61 C-76.34 61 -75.68 61 -75 61 C-74.505 58.03 -74.505 58.03 -74 55 C-73.34 55 -72.68 55 -72 55 C-71.67 52.69 -71.34 50.38 -71 48 C-70.34 48 -69.68 48 -69 48 C-69 47.01 -69 46.02 -69 45 C-67.625 43.3125 -67.625 43.3125 -66 42 C-65.34 42 -64.68 42 -64 42 C-63.87625 41.195625 -63.7525 40.39125 -63.625 39.5625 C-63.315625 38.2940625 -63.315625 38.2940625 -63 37 C-62.01 36.505 -62.01 36.505 -61 36 C-60.67 35.01 -60.34 34.02 -60 33 C-59.34 33 -58.68 33 -58 33 C-58 32.34 -58 31.68 -58 31 C-56.34997172 29.64613064 -54.6825613 28.31321858 -53 27 C-52.67 26.34 -52.34 25.68 -52 25 C-51.34 25 -50.68 25 -50 25 C-50 24.34 -50 23.68 -50 23 C-49.01 22.67 -48.02 22.34 -47 22 C-46.484375 21.484375 -45.96875 20.96875 -45.4375 20.4375 C-44.963125 19.963125 -44.48875 19.48875 -44 19 C-43.34 19 -42.68 19 -42 19 C-42 18.34 -42 17.68 -42 17 C-41.01 16.67 -40.02 16.34 -39 16 C-38.67 15.34 -38.34 14.68 -38 14 C-37.01 14 -36.02 14 -35 14 C-35 13.34 -35 12.68 -35 12 C-31.535 11.505 -31.535 11.505 -28 11 C-28 10.34 -28 9.68 -28 9 C-26.02 8.67 -24.04 8.34 -22 8 C-22 7.34 -22 6.68 -22 6 C-19.36 5.67 -16.72 5.34 -14 5 C-14 4.34 -14 3.68 -14 3 C-9.23692563 2.04738513 -4.8333472 1.91666643 0 2 C0 1.34 0 0.68 0 0 Z " fill="#201A8A" transform="translate(83,0)"/>
<path d="M0 0 C8.25 0 16.5 0 25 0 C25 0.66 25 1.32 25 2 C27.64 2.33 30.28 2.66 33 3 C33 3.66 33 4.32 33 5 C35.31 5.33 37.62 5.66 40 6 C40.495 7.98 40.495 7.98 41 10 C42.11375 10.0928125 42.11375 10.0928125 43.25 10.1875 C46.83127761 11.24560475 47.84857871 13.03252236 50 16 C50.66 16.33 51.32 16.66 52 17 C52 18.32 52 19.64 52 21 C53.485 21.495 53.485 21.495 55 22 C55 22.99 55 23.98 55 25 C55.66 25 56.32 25 57 25 C57.495 27.97 57.495 27.97 58 31 C58.66 31 59.32 31 60 31 C60.89898617 37.06815666 61.08522169 42.86403867 61 49 C56.38 49 51.76 49 47 49 C46.67 44.38 46.34 39.76 46 35 C45.34 35 44.68 35 44 35 C43.505 31.535 43.505 31.535 43 28 C41.515 27.505 41.515 27.505 40 27 C40 26.34 40 25.68 40 25 C39.401875 24.896875 38.80375 24.79375 38.1875 24.6875 C35.68741714 23.90175967 34.62464918 23.03081147 33 21 C33 20.34 33 19.68 33 19 C32.01 19 31.02 19 30 19 C30 18.34 30 17.68 30 17 C28.02 16.67 26.04 16.34 24 16 C24 15.34 24 14.68 24 14 C16.74 14 9.48 14 2 14 C2 14.66 2 15.32 2 16 C-0.97 16.495 -0.97 16.495 -4 17 C-4 17.66 -4 18.32 -4 19 C-4.99 19 -5.98 19 -7 19 C-7 19.66 -7 20.32 -7 21 C-11.47058824 25 -11.47058824 25 -14 25 C-14.33 25.99 -14.66 26.98 -15 28 C-15.66 28 -16.32 28 -17 28 C-17.33 30.64 -17.66 33.28 -18 36 C-18.66 36 -19.32 36 -20 36 C-20 44.25 -20 52.5 -20 61 C-19.34 61 -18.68 61 -18 61 C-17.67 62.98 -17.34 64.96 -17 67 C-16.34 67 -15.68 67 -15 67 C-14.67 68.32 -14.34 69.64 -14 71 C-13.13375 71.0928125 -13.13375 71.0928125 -12.25 71.1875 C-9.12812615 72.31484334 -8.00227698 74.4164168 -6 77 C-4.515 77.495 -4.515 77.495 -3 78 C-3 78.66 -3 79.32 -3 80 C0.3 80 3.6 80 7 80 C7.495 78.515 7.495 78.515 8 77 C8.66 77 9.32 77 10 77 C10.495 75.515 10.495 75.515 11 74 C12.65 74.33 14.3 74.66 16 75 C16 75.66 16 76.32 16 77 C16.99 77.33 17.98 77.66 19 78 C19 78.66 19 79.32 19 80 C19.99 80.33 20.98 80.66 22 81 C22 81.66 22 82.32 22 83 C22.66 83 23.32 83 24 83 C25.625 84.375 25.625 84.375 27 86 C27 86.66 27 87.32 27 88 C27.99 88.33 28.98 88.66 30 89 C29.505 90.485 29.505 90.485 29 92 C28.34 92 27.68 92 27 92 C27 92.66 27 93.32 27 94 C26.34 94 25.68 94 25 94 C24.505 95.485 24.505 95.485 24 97 C23.34 97 22.68 97 22 97 C21.505 98.485 21.505 98.485 21 100 C20.34 100 19.68 100 19 100 C18.505 101.485 18.505 101.485 18 103 C17.34 103 16.68 103 16 103 C15.505 104.485 15.505 104.485 15 106 C13.35 105.67 11.7 105.34 10 105 C10 104.34 10 103.68 10 103 C9.01 102.67 8.02 102.34 7 102 C7 101.34 7 100.68 7 100 C6.01 99.67 5.02 99.34 4 99 C4 98.34 4 97.68 4 97 C2.35 96.67 0.7 96.34 -1 96 C-1 95.34 -1 94.68 -1 94 C-2.65 94 -4.3 94 -6 94 C-6 93.34 -6 92.68 -6 92 C-7.98 91.67 -9.96 91.34 -12 91 C-12 90.34 -12 89.68 -12 89 C-13.11375 88.9071875 -13.11375 88.9071875 -14.25 88.8125 C-17.85122777 87.74850088 -18.96756296 86.08629328 -21 83 C-21 82.34 -21 81.68 -21 81 C-22.32 80.67 -23.64 80.34 -25 80 C-25.495 77.525 -25.495 77.525 -26 75 C-26.99 74.67 -27.98 74.34 -29 74 C-29 73.01 -29 72.02 -29 71 C-29.66 71 -30.32 71 -31 71 C-31.33 68.69 -31.66 66.38 -32 64 C-32.66 64 -33.32 64 -34 64 C-34.88806917 60.94731734 -35.12863019 58.2176379 -35.1328125 55.04296875 C-35.13410156 54.09486328 -35.13539062 53.14675781 -35.13671875 52.16992188 C-35.13285156 51.18572266 -35.12898438 50.20152344 -35.125 49.1875 C-35.12886719 48.21490234 -35.13273437 47.24230469 -35.13671875 46.24023438 C-35.12969301 41.05172249 -34.89834298 36.11199934 -34 31 C-33.34 31 -32.68 31 -32 31 C-31.67 29.02 -31.34 27.04 -31 25 C-30.34 25 -29.68 25 -29 25 C-28.67 23.68 -28.34 22.36 -28 21 C-27.34 21 -26.68 21 -26 21 C-25.67 19.35 -25.34 17.7 -25 16 C-24.34 16 -23.68 16 -23 16 C-23 15.34 -23 14.68 -23 14 C-18.64705882 10 -18.64705882 10 -15 10 C-14.67 8.68 -14.34 7.36 -14 6 C-10.535 5.505 -10.535 5.505 -7 5 C-7 4.34 -7 3.68 -7 3 C-3.535 2.505 -3.535 2.505 0 2 C0 1.34 0 0.68 0 0 Z " fill="#F7F7FB" transform="translate(87,31)"/>
<path d="M0 0 C1.32 0 2.64 0 4 0 C4.1546875 0.9590625 4.1546875 0.9590625 4.3125 1.9375 C4.6528125 2.9584375 4.6528125 2.9584375 5 4 C5.99 4.33 6.98 4.66 8 5 C8 5.66 8 6.32 8 7 C8.99 7.33 9.98 7.66 11 8 C11 8.66 11 9.32 11 10 C13.475 10.495 13.475 10.495 16 11 C16 11.66 16 12.32 16 13 C17.65 13 19.3 13 21 13 C21 13.66 21 14.32 21 15 C23.97 15.495 23.97 15.495 27 16 C27 16.66 27 17.32 27 18 C28.11375 18.0928125 28.11375 18.0928125 29.25 18.1875 C32.86065729 19.25428511 33.84459336 20.9824307 36 24 C36.5775 24.556875 37.155 25.11375 37.75 25.6875 C39 27 39 27 39 29 C39.66 29 40.32 29 41 29 C41 29.99 41 30.98 41 32 C42.485 32.495 42.485 32.495 44 33 C44 33.99 44 34.98 44 36 C44.66 36 45.32 36 46 36 C46.495 39.96 46.495 39.96 47 44 C47.66 44 48.32 44 49 44 C49.98017103 46.94051308 50.12885886 48.86561937 50.1328125 51.9296875 C50.13410156 52.89003906 50.13539063 53.85039063 50.13671875 54.83984375 C50.13285156 55.84144531 50.12898438 56.84304687 50.125 57.875 C50.12886719 58.86886719 50.13273437 59.86273438 50.13671875 60.88671875 C50.13542969 61.84964844 50.13414062 62.81257813 50.1328125 63.8046875 C50.13168457 64.68108887 50.13055664 65.55749023 50.12939453 66.46044922 C49.9969249 69.0603531 49.573267 71.46384858 49 74 C48.34 74 47.68 74 47 74 C46.67 76.64 46.34 79.28 46 82 C45.34 82 44.68 82 44 82 C43.505 83.98 43.505 83.98 43 86 C42.34 86 41.68 86 41 86 C41 87.32 41 88.64 41 90 C38.6875 92.0625 38.6875 92.0625 36 94 C35.46375 94.5775 34.9275 95.155 34.375 95.75 C33 97 33 97 30 97 C29.505 98.485 29.505 98.485 29 100 C27.68 100 26.36 100 25 100 C25 100.66 25 101.32 25 102 C24.01 102 23.02 102 22 102 C22 102.66 22 103.32 22 104 C19.36 104.33 16.72 104.66 14 105 C14 105.66 14 106.32 14 107 C5.75 107 -2.5 107 -11 107 C-11 106.34 -11 105.68 -11 105 C-13.31 104.67 -15.62 104.34 -18 104 C-18 103.34 -18 102.68 -18 102 C-18.99 102 -19.98 102 -21 102 C-21 101.34 -21 100.68 -21 100 C-22.65 99.67 -24.3 99.34 -26 99 C-26 98.34 -26 97.68 -26 97 C-26.763125 96.896875 -27.52625 96.79375 -28.3125 96.6875 C-31.18416484 95.95288806 -32.23042094 95.3283935 -34 93 C-34 92.34 -34 91.68 -34 91 C-34.99 90.67 -35.98 90.34 -37 90 C-37 88.68 -37 87.36 -37 86 C-37.99 85.67 -38.98 85.34 -40 85 C-40 84.01 -40 83.02 -40 82 C-40.66 82 -41.32 82 -42 82 C-42.33 79.69 -42.66 77.38 -43 75 C-43.66 75 -44.32 75 -45 75 C-45.99640721 69.27065855 -46.07968356 63.81689987 -46 58 C-41.38 58 -36.76 58 -32 58 C-31.67 62.62 -31.34 67.24 -31 72 C-30.34 72 -29.68 72 -29 72 C-28.67 74.31 -28.34 76.62 -28 79 C-26.515 79.495 -26.515 79.495 -25 80 C-25 80.66 -25 81.32 -25 82 C-24.401875 82.103125 -23.80375 82.20625 -23.1875 82.3125 C-20.68741714 83.09824033 -19.62464918 83.96918853 -18 86 C-18 86.66 -18 87.32 -18 88 C-17.01 88 -16.02 88 -15 88 C-15 88.66 -15 89.32 -15 90 C-12.03 90.495 -12.03 90.495 -9 91 C-9 91.66 -9 92.32 -9 93 C-1.74 93 5.52 93 13 93 C13 92.34 13 91.68 13 91 C15.97 90.505 15.97 90.505 19 90 C19 89.34 19 88.68 19 88 C19.99 88 20.98 88 22 88 C22 87.34 22 86.68 22 86 C26.47058824 82 26.47058824 82 29 82 C29.495 80.515 29.495 80.515 30 79 C30.66 79 31.32 79 32 79 C32.33 76.36 32.66 73.72 33 71 C33.66 71 34.32 71 35 71 C35 62.75 35 54.5 35 46 C34.34 46 33.68 46 33 46 C32.505 43.03 32.505 43.03 32 40 C31.34 40 30.68 40 30 40 C29.505 38.02 29.505 38.02 29 36 C28.13375 35.9071875 28.13375 35.9071875 27.25 35.8125 C24.12812615 34.68515666 23.00227698 32.5835832 21 30 C19.515 29.505 19.515 29.505 18 29 C18 28.34 18 27.68 18 27 C16.68 27 15.36 27 14 27 C14 26.34 14 25.68 14 25 C12.68 25 11.36 25 10 25 C10 25.66 10 26.32 10 27 C9.34 27 8.68 27 8 27 C7.505 28.485 7.505 28.485 7 30 C6.34 30 5.68 30 5 30 C4.505 31.485 4.505 31.485 4 33 C2.35 32.67 0.7 32.34 -1 32 C-1 31.34 -1 30.68 -1 30 C-1.99 29.67 -2.98 29.34 -4 29 C-4 28.34 -4 27.68 -4 27 C-4.66 27 -5.32 27 -6 27 C-7.625 25.625 -7.625 25.625 -9 24 C-9 23.34 -9 22.68 -9 22 C-9.99 21.67 -10.98 21.34 -12 21 C-12 20.34 -12 19.68 -12 19 C-12.99 18.67 -13.98 18.34 -15 18 C-14.67 17.01 -14.34 16.02 -14 15 C-13.34 15 -12.68 15 -12 15 C-11.67 13.68 -11.34 12.36 -11 11 C-10.360625 10.896875 -9.72125 10.79375 -9.0625 10.6875 C-8.381875 10.460625 -7.70125 10.23375 -7 10 C-6.67 9.01 -6.34 8.02 -6 7 C-5.34 7 -4.68 7 -4 7 C-3.67 6.01 -3.34 5.02 -3 4 C-2.34 4 -1.68 4 -1 4 C-0.67 2.68 -0.34 1.36 0 0 Z " fill="#F8F8FB" transform="translate(98,62)"/>
</svg>
