<svg width="612" height="612" viewBox="0 0 612 612" fill="none" xmlns="http://www.w3.org/2000/svg">
<path fill-rule="evenodd" clip-rule="evenodd" d="M183.192 470.603C148.617 444.802 123.046 408.766 110.108 367.611C97.1702 326.455 97.5224 282.27 111.115 241.326C124.707 200.382 150.85 164.759 185.832 139.512C220.814 114.265 262.859 100.677 306 100.675C399.611 100.675 501.84 156.596 526.55 242.251C510.489 186.442 473.868 138.796 424.068 108.919C374.268 79.0426 314.994 69.1565 258.193 81.2539C201.393 93.3513 151.291 126.533 117.987 174.109C84.6835 221.685 70.6549 280.118 78.7293 337.628C86.8037 395.138 116.381 447.449 161.498 484.015C206.615 520.581 263.917 538.683 321.853 534.671C379.789 530.66 434.049 504.833 473.696 462.398C513.344 419.963 535.429 364.075 535.5 306.001V293.914H521.22C511.967 293.744 502.722 293.259 493.502 292.46C476.289 290.956 456.654 288.049 443.267 282.694C421.77 274.1 409.607 262.702 395.735 249.365L394.919 248.6C381.021 235.238 365.39 220.244 338.309 207.494C311.661 194.948 282.158 196.963 260.483 201.425C248.494 203.912 236.763 207.515 225.446 212.186C214.532 216.776 203.949 222.208 193.239 227.231C193.239 227.231 214.251 232.994 224.604 236.233C227.409 237.117 230.163 238.111 232.866 239.216C239.768 241.987 246.364 245.362 252.654 249.34C263.874 256.556 273.156 265.609 276.956 276.727C253.19 279.863 230.877 290.318 214.2 300.11C203.223 306.585 192.748 313.873 182.861 321.913C181.509 323.035 160.013 341.956 160.013 341.956C160.013 341.956 187.731 344.914 201.399 347.668C210.503 349.504 222.768 352.436 235.569 356.899C248.396 361.387 261.375 367.252 272.162 374.774C282.948 382.322 290.853 391.018 294.755 400.988C306.128 430.033 294.959 458.312 272.57 474.224C250.461 489.958 216.827 493.681 183.192 470.603ZM261.503 506.507C270.454 503.618 278.908 499.369 286.569 493.91C317.042 472.261 333.056 432.608 317.246 392.191C311.024 376.304 299.141 364.166 285.983 354.961C272.774 345.755 257.576 338.998 243.5 334.102C234.957 331.143 226.277 328.598 217.49 326.477C220.431 324.573 223.406 322.729 226.415 320.944C245.03 310.004 268.439 299.957 290.904 299.957C324.743 299.957 349.962 310.361 374.034 321.505L380.613 324.565C402.11 334.663 424.703 345.245 450.942 345.245C476.391 345.245 496.205 338.054 509.873 330.608C506.438 359.07 497.083 386.497 482.409 411.125C467.735 435.753 448.068 457.037 424.673 473.605C401.278 490.174 374.673 501.661 346.57 507.328C318.468 512.995 289.49 512.715 261.503 506.507ZM483.786 315.767C473.205 319.338 462.109 321.147 450.942 321.122C430.364 321.122 412.692 312.86 390.201 302.38L384.158 299.575C361.692 289.145 335.682 278.129 301.793 276.115C297.279 253.7 280.271 238.375 265.736 229.016C264.143 227.995 262.527 227.008 260.891 226.058C262.336 225.718 263.823 225.395 265.353 225.089C284.886 221.06 308.27 220.04 328.032 229.348C351.492 240.415 364.752 253.114 378.522 266.348L378.981 266.807C393.159 280.424 408.153 294.679 434.316 305.134C448.851 310.922 467.645 314.033 483.786 315.767Z" fill="url(#paint0_linear_2083_303)"/>
<defs>
<linearGradient id="paint0_linear_2083_303" x1="72.3946" y1="310.234" x2="539.606" y2="301.691" gradientUnits="userSpaceOnUse">
<stop stop-color="#29CCB9"/>
<stop offset="0.49" stop-color="#0091FF"/>
<stop offset="1" stop-color="#FF66B7"/>
</linearGradient>
</defs>
</svg>
