<svg width="20" height="20" viewBox="0 0 20 20" fill="none" xmlns="http://www.w3.org/2000/svg"><path fill-rule="evenodd" clip-rule="evenodd" d="M10.0026 19.1667C15.0652 19.1667 19.1693 15.0627 19.1693 10C19.1693 4.93742 15.0652 0.833374 10.0026 0.833374C4.93998 0.833374 0.835938 4.93742 0.835938 10C0.835938 15.0627 4.93998 19.1667 10.0026 19.1667ZM10.0027 10.2701L4.05315 5.83988L3.586 6.18473V13.3731L6.46485 15.5004L6.93241 15.1581V10.7886L10.0027 13.0221L13.0729 10.7886V15.1581L13.5411 15.5L16.4193 13.3731V6.18473L15.9522 5.83988L10.0027 10.2701ZM7.20566 6.97535L10.276 9.20452L13.3462 6.97535V4.84852L12.882 4.50004L10.2759 6.45686L7.66977 4.50004L7.20566 4.84852V6.97535Z" fill="white"></path></svg>