<?xml version="1.0" encoding="UTF-8"?>
<!DOCTYPE svg PUBLIC "-//W3C//DTD SVG 1.1//EN" "http://www.w3.org/Graphics/SVG/1.1/DTD/svg11.dtd">
<svg xmlns="http://www.w3.org/2000/svg" version="1.1" width="200px" height="200px" style="shape-rendering:geometricPrecision; text-rendering:geometricPrecision; image-rendering:optimizeQuality; fill-rule:evenodd; clip-rule:evenodd" xmlns:xlink="http://www.w3.org/1999/xlink">
<g><path style="opacity:1" fill="#171718" d="M 81.5,-0.5 C 92.8333,-0.5 104.167,-0.5 115.5,-0.5C 141.892,3.7619 163.059,16.4286 179,37.5C 179.333,37.1667 179.667,36.8333 180,36.5C 182.272,41.584 185.106,46.2506 188.5,50.5C 189.235,53.7021 190.402,56.7021 192,59.5C 192.333,58.8333 192.667,58.1667 193,57.5C 195.637,66.7907 197.804,76.7907 199.5,87.5C 199.5,94.8333 199.5,102.167 199.5,109.5C 198.187,120.284 196.02,130.284 193,139.5C 192.667,139.167 192.333,138.833 192,138.5C 190.403,141.292 189.403,144.292 189,147.5C 188.667,147.167 188.333,146.833 188,146.5C 185.299,151.377 182.799,156.377 180.5,161.5C 179.5,161.5 178.5,161.5 177.5,161.5C 177.649,162.552 177.483,163.552 177,164.5C 174.31,166.193 172.31,168.527 171,171.5C 170.667,171.167 170.333,170.833 170,170.5C 168.187,172.761 166.687,175.095 165.5,177.5C 164.448,177.351 163.448,177.517 162.5,178C 147.472,190.732 130.139,197.898 110.5,199.5C 102.833,199.5 95.1667,199.5 87.5,199.5C 59.1034,196.083 36.6034,183.417 20,161.5C 19.6667,161.833 19.3333,162.167 19,162.5C 14.2627,155.672 10.2627,148.338 7,140.5C 6.66667,140.833 6.33333,141.167 6,141.5C 3.66331,133.488 1.49665,124.821 -0.5,115.5C -0.5,104.5 -0.5,93.5 -0.5,82.5C 1.92152,66.2621 8.42152,50.9287 19,36.5C 19.3333,36.8333 19.6667,37.1667 20,37.5C 20.8333,35.8333 21.6667,34.1667 22.5,32.5C 26.5156,28.6516 30.3489,24.6516 34,20.5C 34.3333,20.8333 34.6667,21.1667 35,21.5C 37.1187,18.7428 39.6187,16.4094 42.5,14.5C 47.7652,11.7231 52.9319,8.72306 58,5.5C 58.3333,5.83333 58.6667,6.16667 59,6.5C 61.5485,5.47626 64.0485,4.30959 66.5,3C 71.7053,2.14867 76.7053,0.982 81.5,-0.5 Z M 82.5,17.5 C 98.4504,16.5248 114.117,18.0248 129.5,22C 134.936,24.8124 140.269,27.8124 145.5,31C 178.538,56.4867 188.872,89.1534 176.5,129C 173.792,135.269 170.959,140.769 168,145.5C 167.667,145.167 167.333,144.833 167,144.5C 164.202,150.316 160.536,154.649 156,157.5C 144.742,169.86 130.242,177.527 112.5,180.5C 98.0159,182.378 83.8492,181.045 70,176.5C 48.2007,166.982 32.2007,151.315 22,129.5C 15.8719,108.78 16.0386,88.1133 22.5,67.5C 26.5877,60.3198 30.921,53.3198 35.5,46.5C 40.5748,41.2561 45.7415,36.2561 51,31.5C 52.8402,32.8331 53.3402,32.6665 52.5,31C 56.5877,28.3584 61.0877,25.8584 66,23.5C 66.3333,23.8333 66.6667,24.1667 67,24.5C 67.3742,23.5838 67.8742,22.7504 68.5,22C 73.6124,21.127 78.279,19.627 82.5,17.5 Z"/></g>
<g><path style="opacity:1" fill="#181818" d="M 53.5,37.5 C 63.1667,37.5 72.8333,37.5 82.5,37.5C 87.64,54.3008 93.4733,71.6341 100,89.5C 104.906,72.0401 110.072,54.7067 115.5,37.5C 125.5,37.5 135.5,37.5 145.5,37.5C 145.5,70.1667 145.5,102.833 145.5,135.5C 142.427,134.801 139.427,133.801 136.5,132.5C 133.076,130.039 129.576,127.706 126,125.5C 125,109.515 124.334,93.5147 124,77.5C 119.859,92.4266 115.192,106.427 110,119.5C 103,120.833 96,120.833 89,119.5C 84.3399,106.209 79.6733,92.8756 75,79.5C 74.7517,95.2017 73.9184,110.868 72.5,126.5C 68.6666,128.388 64.9999,130.555 61.5,133C 58.9373,134.079 56.2706,134.579 53.5,134.5C 53.5,102.167 53.5,69.8333 53.5,37.5 Z"/></g>
<g><path style="opacity:1" fill="#161618" d="M 73.5,131.5 C 85.9288,129.927 91.7621,135.26 91,147.5C 87.5341,155.014 81.7007,157.681 73.5,155.5C 72.9646,153.729 72.1313,153.396 71,154.5C 64.344,144.974 65.1774,137.308 73.5,131.5 Z"/></g>
<g><path style="opacity:1" fill="#171718" d="M 112.5,131.5 C 117.974,131.303 123.308,131.969 128.5,133.5C 134.379,148.434 129.379,155.934 113.5,156C 113.833,155.667 114.167,155.333 114.5,155C 110.627,153.96 108.127,151.46 107,147.5C 106.667,147.833 106.333,148.167 106,148.5C 105.179,145.446 105.345,142.446 106.5,139.5C 108.577,138.012 109.577,136.012 109.5,133.5C 111.179,133.715 112.179,133.048 112.5,131.5 Z"/></g>
</svg>
