<?xml version="1.0" encoding="UTF-8"?>
<!DOCTYPE svg PUBLIC "-//W3C//DTD SVG 1.1//EN" "http://www.w3.org/Graphics/SVG/1.1/DTD/svg11.dtd">
<svg xmlns="http://www.w3.org/2000/svg" version="1.1" width="320px" height="321px" style="shape-rendering:geometricPrecision; text-rendering:geometricPrecision; image-rendering:optimizeQuality; fill-rule:evenodd; clip-rule:evenodd" xmlns:xlink="http://www.w3.org/1999/xlink">
<g><path style="opacity:1" fill="#434a50" d="M 319.5,150.5 C 319.5,162.167 319.5,173.833 319.5,185.5C 309.402,251.26 273.402,296.26 211.5,320.5C 176.833,320.5 142.167,320.5 107.5,320.5C 45.5683,296.236 9.56835,251.236 -0.5,185.5C -0.5,173.833 -0.5,162.167 -0.5,150.5C 9.2892,87.2154 43.6225,43.0487 102.5,18C 163.969,-2.37203 219.302,8.29464 268.5,50C 297.06,77.6203 314.06,111.12 319.5,150.5 Z"/></g>
<g><path style="opacity:1" fill="#120c19" d="M 146.5,18.5 C 214.779,16.3635 264.612,45.3635 296,105.5C 319.179,162.567 312.179,215.567 275,264.5C 231.317,311.718 178.15,327.551 115.5,312C 70.5563,296.726 38.7229,267.226 20,223.5C -0.336199,166.534 8.6638,114.868 47,68.5C 73.998,39.4178 107.165,22.7511 146.5,18.5 Z"/></g>
<g><path style="opacity:1" fill="#ef6b00" d="M 195.5,93.5 C 192.2,90.1733 188.867,86.84 185.5,83.5C 183.042,81.3506 180.375,79.6839 177.5,78.5C 181.015,72.9229 186.015,71.0896 192.5,73C 196.419,74.5403 199.919,76.7069 203,79.5C 203.667,81.5 203.667,83.5 203,85.5C 200.267,88.0625 197.767,90.7291 195.5,93.5 Z"/></g>
<g><path style="opacity:1" fill="#ed4e01" d="M 150.5,96.5 C 148.278,96.822 146.444,96.1554 145,94.5C 144.667,94.8333 144.333,95.1667 144,95.5C 142.041,91.9467 139.374,88.9467 136,86.5C 135.692,87.3081 135.192,87.9747 134.5,88.5C 133.523,86.5891 132.857,84.5891 132.5,82.5C 143.495,73.3366 156.161,69.5033 170.5,71C 171.576,72.7261 171.743,74.5594 171,76.5C 164.298,83.3693 157.465,90.036 150.5,96.5 Z"/></g>
<g><path style="opacity:1" fill="#ed5500" d="M 177.5,78.5 C 180.375,79.6839 183.042,81.3506 185.5,83.5C 188.867,86.84 192.2,90.1733 195.5,93.5C 190.833,98.8333 185.833,103.833 180.5,108.5C 175.536,102.54 169.87,97.2066 163.5,92.5C 167.833,87.5 172.5,82.8333 177.5,78.5 Z"/></g>
<g><path style="opacity:1" fill="#ef7000" d="M 220.5,109.5 C 220.631,108.761 220.464,108.094 220,107.5C 215.218,103.852 210.718,99.8522 206.5,95.5C 205.675,94.6143 204.675,94.281 203.5,94.5C 208.778,85.5486 214.611,85.2153 221,93.5C 223.03,96.2263 224.53,99.2263 225.5,102.5C 224.973,105.687 223.307,108.02 220.5,109.5 Z"/></g>
<g><path style="opacity:1" fill="#f16300" d="M 203.5,94.5 C 204.675,94.281 205.675,94.6143 206.5,95.5C 210.718,99.8522 215.218,103.852 220,107.5C 220.464,108.094 220.631,108.761 220.5,109.5C 217.138,113.192 213.805,116.859 210.5,120.5C 205.193,116.194 200.193,111.527 195.5,106.5C 194.583,105.873 193.583,105.539 192.5,105.5C 195.833,101.5 199.5,97.8333 203.5,94.5 Z"/></g>
<g><path style="opacity:1" fill="#e14718" d="M 132.5,82.5 C 132.857,84.5891 133.523,86.5891 134.5,88.5C 135.192,87.9747 135.692,87.3081 136,86.5C 139.374,88.9467 142.041,91.9467 144,95.5C 144.333,95.1667 144.667,94.8333 145,94.5C 146.444,96.1554 148.278,96.822 150.5,96.5C 146.472,100.859 142.472,105.193 138.5,109.5C 134.032,105.834 130.198,102.167 127,98.5C 126.667,99.1667 126.333,99.8333 126,100.5C 124.331,98.2574 122.831,95.9241 121.5,93.5C 124.833,89.5 128.5,85.8333 132.5,82.5 Z"/></g>
<g><path style="opacity:1" fill="#ea4907" d="M 163.5,92.5 C 169.87,97.2066 175.536,102.54 180.5,108.5C 176.167,113.5 171.5,118.167 166.5,122.5C 162.396,120.524 159.23,117.524 157,113.5C 156.667,113.833 156.333,114.167 156,114.5C 155,112.167 153.333,110.5 151,109.5C 150.517,108.552 150.351,107.552 150.5,106.5C 154.127,101.206 158.46,96.539 163.5,92.5 Z"/></g>
<g><path style="opacity:1" fill="#d14331" d="M 121.5,93.5 C 122.831,95.9241 124.331,98.2574 126,100.5C 126.333,99.8333 126.667,99.1667 127,98.5C 130.198,102.167 134.032,105.834 138.5,109.5C 135.5,113.167 132.167,116.5 128.5,119.5C 124.458,117.638 120.792,115.138 117.5,112C 115.21,110.223 113.543,108.056 112.5,105.5C 114.762,100.91 117.762,96.9103 121.5,93.5 Z"/></g>
<g><path style="opacity:1" fill="#cb4341" d="M 112.5,105.5 C 113.543,108.056 115.21,110.223 117.5,112C 120.792,115.138 124.458,117.638 128.5,119.5C 127.167,121.5 125.5,123.167 123.5,124.5C 118.548,122.733 114.215,119.9 110.5,116C 109.733,114.53 109.067,113.03 108.5,111.5C 109.475,109.205 110.808,107.205 112.5,105.5 Z"/></g>
<g><path style="opacity:1" fill="#c4434d" d="M 108.5,111.5 C 109.067,113.03 109.733,114.53 110.5,116C 114.215,119.9 118.548,122.733 123.5,124.5C 121.833,126.833 119.833,128.833 117.5,130.5C 111.237,128.569 106.903,124.569 104.5,118.5C 105.584,115.996 106.917,113.663 108.5,111.5 Z"/></g>
<g><path style="opacity:1" fill="#ee6400" d="M 235.5,136.5 C 230.11,131.106 224.444,126.106 218.5,121.5C 220.628,118.87 222.961,116.37 225.5,114C 228.956,112.877 231.79,113.71 234,116.5C 236.423,120.773 238.257,125.273 239.5,130C 239.293,132.924 237.96,135.09 235.5,136.5 Z"/></g>
<g><path style="opacity:1" fill="#e84a0b" d="M 192.5,105.5 C 193.583,105.539 194.583,105.873 195.5,106.5C 200.193,111.527 205.193,116.194 210.5,120.5C 201.5,130.167 192.167,139.5 182.5,148.5C 177.824,144.498 173.158,140.498 168.5,136.5C 167.638,135.234 166.971,133.901 166.5,132.5C 174.466,122.866 183.133,113.866 192.5,105.5 Z"/></g>
<g><path style="opacity:1" fill="#de4521" d="M 150.5,106.5 C 150.351,107.552 150.517,108.552 151,109.5C 153.333,110.5 155,112.167 156,114.5C 156.333,114.167 156.667,113.833 157,113.5C 159.23,117.524 162.396,120.524 166.5,122.5C 163.138,126.192 159.805,129.859 156.5,133.5C 152.075,130.927 147.742,128.094 143.5,125C 143.833,124.667 144.167,124.333 144.5,124C 142.004,122.669 140.004,120.836 138.5,118.5C 142.167,114.167 146.167,110.167 150.5,106.5 Z"/></g>
<g><path style="opacity:1" fill="#bc435c" d="M 104.5,118.5 C 106.903,124.569 111.237,128.569 117.5,130.5C 114.5,134.167 111.167,137.5 107.5,140.5C 104.091,137.758 101.091,134.758 98.5,131.5C 99.7327,126.797 101.733,122.464 104.5,118.5 Z"/></g>
<g><path style="opacity:1" fill="#cb433d" d="M 138.5,118.5 C 140.004,120.836 142.004,122.669 144.5,124C 144.167,124.333 143.833,124.667 143.5,125C 147.742,128.094 152.075,130.927 156.5,133.5C 152.833,137.833 148.833,141.833 144.5,145.5C 137.786,141.12 132.452,135.453 128.5,128.5C 131.5,124.833 134.833,121.5 138.5,118.5 Z"/></g>
<g><path style="opacity:1" fill="#ee4f00" d="M 218.5,121.5 C 224.444,126.106 230.11,131.106 235.5,136.5C 230.871,142.797 225.538,148.463 219.5,153.5C 215.579,151.033 211.579,147.699 207.5,143.5C 206.271,142.719 204.938,142.219 203.5,142C 203.488,140.025 203.822,137.858 204.5,135.5C 208.833,130.5 213.5,125.833 218.5,121.5 Z"/></g>
<g><path style="opacity:1" fill="#bf4253" d="M 128.5,128.5 C 132.452,135.453 137.786,141.12 144.5,145.5C 141.457,149.544 137.791,152.877 133.5,155.5C 129.905,152.351 126.238,149.184 122.5,146C 120.21,144.223 118.543,142.056 117.5,139.5C 120.833,135.5 124.5,131.833 128.5,128.5 Z"/></g>
<g><path style="opacity:1" fill="#d44331" d="M 166.5,132.5 C 166.971,133.901 167.638,135.234 168.5,136.5C 173.158,140.498 177.824,144.498 182.5,148.5C 179.471,151.859 176.471,155.192 173.5,158.5C 171.821,158.108 170.154,157.608 168.5,157C 164.238,153.283 160.072,149.45 156,145.5C 155.536,144.906 155.369,144.239 155.5,143.5C 158.833,139.5 162.5,135.833 166.5,132.5 Z"/></g>
<g><path style="opacity:1" fill="#a94175" d="M 98.5,131.5 C 101.091,134.758 104.091,137.758 107.5,140.5C 102.958,145.729 98.291,150.896 93.5,156C 91.8659,156.494 90.1992,156.66 88.5,156.5C 91.028,147.787 94.3613,139.454 98.5,131.5 Z"/></g>
<g><path style="opacity:1" fill="#b64368" d="M 117.5,139.5 C 118.543,142.056 120.21,144.223 122.5,146C 126.238,149.184 129.905,152.351 133.5,155.5C 128.404,157.096 123.071,158.096 117.5,158.5C 115.264,157.611 113.264,156.278 111.5,154.5C 110.914,154.709 110.414,155.043 110,155.5C 109.634,153.548 108.801,151.882 107.5,150.5C 110.862,146.808 114.195,143.141 117.5,139.5 Z"/></g>
<g><path style="opacity:1" fill="#c54348" d="M 155.5,143.5 C 155.369,144.239 155.536,144.906 156,145.5C 160.072,149.45 164.238,153.283 168.5,157C 170.154,157.608 171.821,158.108 173.5,158.5C 170.167,162.5 166.5,166.167 162.5,169.5C 161.127,169.657 159.793,169.49 158.5,169C 154,165.167 149.5,161.333 145,157.5C 144.517,156.552 144.351,155.552 144.5,154.5C 147.833,150.5 151.5,146.833 155.5,143.5 Z"/></g>
<g><path style="opacity:1" fill="#e24714" d="M 204.5,135.5 C 203.822,137.858 203.488,140.025 203.5,142C 204.938,142.219 206.271,142.719 207.5,143.5C 211.579,147.699 215.579,151.033 219.5,153.5C 215.167,158.5 210.5,163.167 205.5,167.5C 203.418,167.376 201.918,166.376 201,164.5C 200.667,164.833 200.333,165.167 200,165.5C 196.487,160.793 192.32,156.793 187.5,153.5C 192.463,146.869 198.13,140.869 204.5,135.5 Z"/></g>
<g><path style="opacity:1" fill="#bb4259" d="M 144.5,154.5 C 144.351,155.552 144.517,156.552 145,157.5C 149.5,161.333 154,165.167 158.5,169C 159.793,169.49 161.127,169.657 162.5,169.5C 160.833,171.833 158.833,173.833 156.5,175.5C 149.629,171.639 143.296,166.972 137.5,161.5C 139.5,158.833 141.833,156.5 144.5,154.5 Z"/></g>
<g><path style="opacity:1" fill="#ec4b03" d="M 235.5,172.5 C 230.4,170.914 226.233,167.914 223,163.5C 222.51,162.207 222.343,160.873 222.5,159.5C 227.839,152.982 233.839,147.482 240.5,143C 242.444,145.153 242.944,147.653 242,150.5C 240.756,158.148 238.59,165.481 235.5,172.5 Z"/></g>
<g><path style="opacity:1" fill="#a64280" d="M 107.5,150.5 C 108.801,151.882 109.634,153.548 110,155.5C 110.414,155.043 110.914,154.709 111.5,154.5C 113.264,156.278 115.264,157.611 117.5,158.5C 112.564,162.096 107.897,166.096 103.5,170.5C 101.833,166.833 99.1667,164.167 95.5,162.5C 99.1667,158.167 103.167,154.167 107.5,150.5 Z"/></g>
<g><path style="opacity:1" fill="#d44431" d="M 187.5,153.5 C 192.32,156.793 196.487,160.793 200,165.5C 200.333,165.167 200.667,164.833 201,164.5C 201.918,166.376 203.418,167.376 205.5,167.5C 201.833,171.833 197.833,175.833 193.5,179.5C 189.361,175.532 185.027,171.699 180.5,168C 178.859,166.871 177.859,165.371 177.5,163.5C 180.5,159.833 183.833,156.5 187.5,153.5 Z"/></g>
<g><path style="opacity:1" fill="#e24814" d="M 222.5,159.5 C 222.343,160.873 222.51,162.207 223,163.5C 226.233,167.914 230.4,170.914 235.5,172.5C 233.754,176.327 231.754,179.993 229.5,183.5C 227.037,183.199 224.704,182.699 222.5,182C 223.357,181.311 224.023,180.478 224.5,179.5C 222.869,177.703 220.869,176.536 218.5,176C 217.359,173.692 215.692,171.859 213.5,170.5C 214.853,169.476 215.52,168.143 215.5,166.5C 217.5,163.833 219.833,161.5 222.5,159.5 Z"/></g>
<g><path style="opacity:1" fill="#b54366" d="M 137.5,161.5 C 143.296,166.972 149.629,171.639 156.5,175.5C 154.451,178.55 151.784,180.883 148.5,182.5C 143.167,177.5 137.833,172.5 132.5,167.5C 133.443,164.891 135.11,162.891 137.5,161.5 Z"/></g>
<g><path style="opacity:1" fill="#ca4341" d="M 177.5,163.5 C 177.859,165.371 178.859,166.871 180.5,168C 185.027,171.699 189.361,175.532 193.5,179.5C 192.396,181.389 191.063,183.055 189.5,184.5C 186.062,182.241 182.729,179.741 179.5,177C 176.553,174.564 174.22,171.731 172.5,168.5C 173.833,166.5 175.5,164.833 177.5,163.5 Z"/></g>
<g><path style="opacity:1" fill="#994298" d="M 95.5,162.5 C 99.1667,164.167 101.833,166.833 103.5,170.5C 100.5,174.167 97.1667,177.5 93.5,180.5C 90.319,178.408 87.319,176.075 84.5,173.5C 87.8333,169.5 91.5,165.833 95.5,162.5 Z"/></g>
<g><path style="opacity:1" fill="#ae4375" d="M 132.5,167.5 C 137.833,172.5 143.167,177.5 148.5,182.5C 143.876,185.094 138.876,186.427 133.5,186.5C 129.812,183.479 126.479,180.146 123.5,176.5C 126.167,173.167 129.167,170.167 132.5,167.5 Z"/></g>
<g><path style="opacity:1" fill="#c3434d" d="M 172.5,168.5 C 174.22,171.731 176.553,174.564 179.5,177C 182.729,179.741 186.062,182.241 189.5,184.5C 187.833,186.833 185.833,188.833 183.5,190.5C 176.654,186.275 170.988,180.942 166.5,174.5C 168.167,172.167 170.167,170.167 172.5,168.5 Z"/></g>
<g><path style="opacity:1" fill="#b8425f" d="M 166.5,174.5 C 170.988,180.942 176.654,186.275 183.5,190.5C 180.833,193.833 177.833,196.833 174.5,199.5C 172.692,199.509 171.025,199.009 169.5,198C 165.767,192.991 161.6,189.158 157,186.5C 156.536,185.906 156.369,185.239 156.5,184.5C 159.5,180.833 162.833,177.5 166.5,174.5 Z"/></g>
<g><path style="opacity:1" fill="#8840ac" d="M 84.5,173.5 C 87.319,176.075 90.319,178.408 93.5,180.5C 87.8377,186.33 82.3377,192.33 77,198.5C 74.3212,188.697 76.8212,180.363 84.5,173.5 Z"/></g>
<g><path style="opacity:1" fill="#cd433d" d="M 201.5,181.5 C 207.233,186.573 213.233,191.239 219.5,195.5C 217.167,198.5 214.5,201.167 211.5,203.5C 210.078,203.291 208.745,202.791 207.5,202C 203.97,197.97 199.97,194.47 195.5,191.5C 194.614,190.675 194.281,189.675 194.5,188.5C 196.5,185.833 198.833,183.5 201.5,181.5 Z"/></g>
<g><path style="opacity:1" fill="#d64427" d="M 215.5,166.5 C 215.52,168.143 214.853,169.476 213.5,170.5C 215.692,171.859 217.359,173.692 218.5,176C 220.869,176.536 222.869,177.703 224.5,179.5C 224.023,180.478 223.357,181.311 222.5,182C 224.704,182.699 227.037,183.199 229.5,183.5C 226.514,187.817 223.18,191.817 219.5,195.5C 213.233,191.239 207.233,186.573 201.5,181.5C 205.461,175.871 210.127,170.871 215.5,166.5 Z"/></g>
<g><path style="opacity:1" fill="#a1438d" d="M 123.5,176.5 C 126.479,180.146 129.812,183.479 133.5,186.5C 128.715,188.736 124.382,191.736 120.5,195.5C 117.792,192.791 114.792,190.458 111.5,188.5C 115.167,184.167 119.167,180.167 123.5,176.5 Z"/></g>
<g><path style="opacity:1" fill="#af4376" d="M 156.5,184.5 C 156.369,185.239 156.536,185.906 157,186.5C 161.6,189.158 165.767,192.991 169.5,198C 171.025,199.009 172.692,199.509 174.5,199.5C 170.757,204.572 165.757,207.572 159.5,208.5C 156.578,206.406 154.078,203.739 152,200.5C 151.667,200.833 151.333,201.167 151,201.5C 149.565,199.789 147.731,198.622 145.5,198C 146.252,197.329 146.586,196.496 146.5,195.5C 149.142,191.225 152.475,187.558 156.5,184.5 Z"/></g>
<g><path style="opacity:1" fill="#c5434e" d="M 194.5,188.5 C 194.281,189.675 194.614,190.675 195.5,191.5C 199.97,194.47 203.97,197.97 207.5,202C 208.745,202.791 210.078,203.291 211.5,203.5C 209.14,205.853 206.473,207.853 203.5,209.5C 199.169,205.337 194.669,201.337 190,197.5C 189.51,196.207 189.343,194.873 189.5,193.5C 190.833,191.5 192.5,189.833 194.5,188.5 Z"/></g>
<g><path style="opacity:1" fill="#9342a4" d="M 111.5,188.5 C 114.792,190.458 117.792,192.791 120.5,195.5C 117.5,199.167 114.167,202.5 110.5,205.5C 107.566,202.879 104.233,200.879 100.5,199.5C 103.833,195.5 107.5,191.833 111.5,188.5 Z"/></g>
<g><path style="opacity:1" fill="#a54285" d="M 146.5,195.5 C 146.586,196.496 146.252,197.329 145.5,198C 147.731,198.622 149.565,199.789 151,201.5C 151.333,201.167 151.667,200.833 152,200.5C 154.078,203.739 156.578,206.406 159.5,208.5C 156.417,209.993 153.083,210.993 149.5,211.5C 147.438,207.105 144.104,204.105 139.5,202.5C 141.5,199.833 143.833,197.5 146.5,195.5 Z"/></g>
<g><path style="opacity:1" fill="#ba435f" d="M 189.5,193.5 C 189.343,194.873 189.51,196.207 190,197.5C 194.669,201.337 199.169,205.337 203.5,209.5C 200.403,212.888 196.736,215.555 192.5,217.5C 187.733,214.041 183.066,209.707 178.5,204.5C 181.833,200.5 185.5,196.833 189.5,193.5 Z"/></g>
<g><path style="opacity:1" fill="#8742bd" d="M 100.5,199.5 C 104.233,200.879 107.566,202.879 110.5,205.5C 106.472,209.859 102.472,214.193 98.5,218.5C 95.7915,215.791 92.7915,213.458 89.5,211.5C 92.7099,207.079 96.3765,203.079 100.5,199.5 Z"/></g>
<g><path style="opacity:1" fill="#b1426c" d="M 178.5,204.5 C 183.066,209.707 187.733,214.041 192.5,217.5C 191.101,218.89 189.434,219.89 187.5,220.5C 186.07,220.579 184.736,220.246 183.5,219.5C 180.452,215.785 177.119,212.452 173.5,209.5C 174.833,207.5 176.5,205.833 178.5,204.5 Z"/></g>
<g><path style="opacity:1" fill="#9b4299" d="M 139.5,202.5 C 144.104,204.105 147.438,207.105 149.5,211.5C 144.958,213.699 140.958,216.699 137.5,220.5C 134.792,217.791 131.792,215.458 128.5,213.5C 131.833,209.5 135.5,205.833 139.5,202.5 Z"/></g>
<g><path style="opacity:1" fill="#a9427b" d="M 173.5,209.5 C 177.119,212.452 180.452,215.785 183.5,219.5C 184.736,220.246 186.07,220.579 187.5,220.5C 182.709,224.068 177.709,227.402 172.5,230.5C 169.491,227.158 166.157,224.158 162.5,221.5C 165.458,216.874 169.124,212.874 173.5,209.5 Z"/></g>
<g><path style="opacity:1" fill="#9042aa" d="M 128.5,213.5 C 131.792,215.458 134.792,217.791 137.5,220.5C 134.833,223.833 131.833,226.833 128.5,229.5C 126.377,226.044 123.377,223.711 119.5,222.5C 122.167,219.167 125.167,216.167 128.5,213.5 Z"/></g>
<g><path style="opacity:1" fill="#7541d4" d="M 89.5,211.5 C 92.7915,213.458 95.7915,215.791 98.5,218.5C 92.5361,224.965 86.3694,231.298 80,237.5C 76.7005,226.571 79.8672,217.905 89.5,211.5 Z"/></g>
<g><path style="opacity:1" fill="#8342c3" d="M 119.5,222.5 C 123.377,223.711 126.377,226.044 128.5,229.5C 124.805,233.526 121.138,237.526 117.5,241.5C 117.631,240.761 117.464,240.094 117,239.5C 114.337,237.666 111.837,235.666 109.5,233.5C 112.123,229.209 115.456,225.543 119.5,222.5 Z"/></g>
<g><path style="opacity:1" fill="#97429a" d="M 162.5,221.5 C 166.157,224.158 169.491,227.158 172.5,230.5C 166.194,234.322 159.861,238.155 153.5,242C 147.92,243.261 146.087,241.094 148,235.5C 152.702,230.63 157.535,225.963 162.5,221.5 Z"/></g>
<g><path style="opacity:1" fill="#7841d4" d="M 109.5,233.5 C 111.837,235.666 114.337,237.666 117,239.5C 117.464,240.094 117.631,240.761 117.5,241.5C 114.833,244.833 111.833,247.833 108.5,250.5C 106.833,246.833 104.167,244.167 100.5,242.5C 103.167,239.167 106.167,236.167 109.5,233.5 Z"/></g>
<g><path style="opacity:1" fill="#6a41ec" d="M 100.5,242.5 C 104.167,244.167 106.833,246.833 108.5,250.5C 103.188,256.479 97.521,262.146 91.5,267.5C 88.498,261.189 88.998,255.189 93,249.5C 95.3697,246.961 97.8697,244.628 100.5,242.5 Z"/></g>
</svg>
