<svg width="60" height="60" viewBox="0 0 60 60" fill="none" xmlns="http://www.w3.org/2000/svg">
<g clip-path="url(#clip0_16317_35674)">
<path d="M30 60C46.5685 60 60 46.5685 60 30C60 13.4315 46.5685 0 30 0C13.4315 0 0 13.4315 0 30C0 46.5685 13.4315 60 30 60Z" fill="#FC784A"/>
<path d="M30 60C46.5685 60 60 46.5685 60 30C60 13.4315 46.5685 0 30 0C13.4315 0 0 13.4315 0 30C0 46.5685 13.4315 60 30 60Z" fill="url(#paint0_radial_16317_35674)"/>
<path d="M30 60C46.5685 60 60 46.5685 60 30C60 13.4315 46.5685 0 30 0C13.4315 0 0 13.4315 0 30C0 46.5685 13.4315 60 30 60Z" fill="#FC784A"/>
<path d="M30 60C46.5685 60 60 46.5685 60 30C60 13.4315 46.5685 0 30 0C13.4315 0 0 13.4315 0 30C0 46.5685 13.4315 60 30 60Z" fill="url(#paint1_radial_16317_35674)"/>
<path d="M30 60C46.5685 60 60 46.5685 60 30C60 13.4315 46.5685 0 30 0C13.4315 0 0 13.4315 0 30C0 46.5685 13.4315 60 30 60Z" fill="#FC784A"/>
<path d="M30 60C46.5685 60 60 46.5685 60 30C60 13.4315 46.5685 0 30 0C13.4315 0 0 13.4315 0 30C0 46.5685 13.4315 60 30 60Z" fill="url(#paint2_linear_16317_35674)"/>
<path d="M30 60C46.5685 60 60 46.5685 60 30C60 13.4315 46.5685 0 30 0C13.4315 0 0 13.4315 0 30C0 46.5685 13.4315 60 30 60Z" fill="url(#paint3_radial_16317_35674)"/>
<path d="M30 60C46.5685 60 60 46.5685 60 30C60 13.4315 46.5685 0 30 0C13.4315 0 0 13.4315 0 30C0 46.5685 13.4315 60 30 60Z" fill="url(#paint4_radial_16317_35674)"/>
<path d="M30 60C46.5685 60 60 46.5685 60 30C60 13.4315 46.5685 0 30 0C13.4315 0 0 13.4315 0 30C0 46.5685 13.4315 60 30 60Z" fill="#FC784A"/>
<path d="M30 60C46.5685 60 60 46.5685 60 30C60 13.4315 46.5685 0 30 0C13.4315 0 0 13.4315 0 30C0 46.5685 13.4315 60 30 60Z" fill="url(#paint5_linear_16317_35674)"/>
<path d="M30 60C46.5685 60 60 46.5685 60 30C60 13.4315 46.5685 0 30 0C13.4315 0 0 13.4315 0 30C0 46.5685 13.4315 60 30 60Z" fill="url(#paint6_radial_16317_35674)"/>
<path d="M30 60C46.5685 60 60 46.5685 60 30C60 13.4315 46.5685 0 30 0C13.4315 0 0 13.4315 0 30C0 46.5685 13.4315 60 30 60Z" fill="url(#paint7_radial_16317_35674)"/>
<path d="M18.2637 14.9347C18.3229 14.904 18.7133 14.599 18.7837 14.5445C19.081 14.3144 19.3534 14.1181 19.6667 13.9097C20.97 13.0372 22.3712 12.3206 23.8415 11.7747C27.9123 10.2651 32.3946 10.2953 36.4449 11.8597C37.0883 12.1145 37.7032 12.4032 38.3231 12.7122C38.6393 12.8698 39.0881 13.1881 39.3884 13.3238L39.4365 13.3451C40.2964 13.9174 41.0608 14.4644 41.8464 15.1396C47.5439 20.0378 50.1776 28.6526 48.1039 35.8851C47.9878 35.9587 47.9416 36.1026 47.8694 36.2351L47.8183 36.2357C47.6267 36.01 47.7745 35.8373 47.7464 35.5204C47.6898 35.7196 47.6312 35.9178 47.5707 36.1157C47.4641 36.4588 47.3055 36.987 47.1566 37.3135L47.1665 37.3491C47.3418 37.3167 47.3123 37.2974 47.4353 37.3684C47.4873 37.4718 47.4713 37.6415 47.4706 37.7642C47.3549 38.1734 47.0441 38.7752 46.8583 39.1609C43.6529 45.8102 36.0518 49.9658 28.7061 49.411C23.6659 49.0532 18.9791 46.6913 15.6929 42.8533C12.3657 38.9967 10.6957 33.9824 11.0457 28.901C11.4065 24.3486 13.2857 20.0493 16.382 16.6927C16.988 16.0395 17.5921 15.511 18.2637 14.9347Z" fill="#FCFEFD"/>
<path d="M20.9345 15.7128C29.7183 10.0696 40.9632 12.7484 45.1155 22.6129C46.6613 26.2851 47.1981 30.3501 46.3261 34.2624C45.37 38.5001 42.7667 42.1834 39.091 44.4988C38.7819 44.6961 38.4652 44.8818 38.1424 45.0555C38.1424 45.2021 38.1172 45.2779 38.1853 45.3878C38.2968 45.4222 38.3413 45.4133 38.4561 45.4088C38.181 45.5553 37.8811 45.7208 37.5923 45.8314C37.5566 45.8539 37.5703 45.8467 37.5281 45.8664C33.6018 47.6954 28.8457 47.8596 24.7734 46.4496C20.4434 44.9502 17.1686 41.8089 15.2209 37.6883C13.3804 33.726 13.177 29.1975 14.6548 25.0863C16.0112 21.2783 18.6275 18.0477 22.0705 15.9295C22.7051 15.5426 23.2603 15.2758 23.9326 14.9583L23.9057 14.8952L23.8092 14.8777L23.8066 14.836C24.0202 14.6375 24.8352 14.4763 24.9106 14.3701C24.9079 14.2751 24.9085 14.1929 24.8927 14.0988C24.8116 14.1547 24.8036 14.1497 24.7598 14.235C24.6249 14.2848 24.6161 14.2812 24.4689 14.2736C24.4268 14.2492 24.3944 14.2298 24.353 14.2033L24.3671 14.2694L24.3225 14.3058C24.2524 14.2802 24.1827 14.2537 24.1134 14.2263C24.0326 14.2841 23.6982 14.4396 23.5821 14.4951C23.3027 14.6286 22.7753 14.7983 22.5428 14.9956L22.5373 15.1223L22.4971 15.1199L22.4395 15.0245C22.2316 15.0682 22.1196 15.2793 22.0408 15.3009C21.625 15.4147 21.4325 15.5741 21.0782 15.8045C21.0305 15.7738 20.9866 15.7349 20.9345 15.7128Z" fill="#368299"/>
<path d="M23.9326 14.9542C24.7901 14.6089 25.4015 14.3707 26.2983 14.1287C29.6866 13.1962 33.2908 13.4368 36.5253 14.8114C39.9698 16.2816 42.8626 19.2026 44.3063 22.6775C44.3223 22.7157 44.3191 22.7082 44.3286 22.7442C44.3469 22.8557 44.3838 22.9595 44.3459 23.0494C44.2458 23.0378 44.1984 22.9866 44.1173 22.9246C43.6973 22.3686 43.4402 21.9887 42.964 21.4639C40.4582 18.7069 37.066 16.9148 33.3765 16.399C29.0992 15.8211 24.7668 16.9554 21.3216 19.5551C18.2488 21.8675 16.2174 25.3031 15.672 29.1099C14.4773 37.9334 20.4615 45.5061 29.228 46.6299C32.0174 46.9874 34.4372 46.6352 37.0382 45.5911C37.4254 45.4128 37.7659 45.2503 38.1424 45.0514C38.1424 45.1979 38.1172 45.2738 38.1853 45.3837C38.2968 45.4181 38.3413 45.4092 38.4561 45.4047C38.181 45.5512 37.8811 45.7167 37.5922 45.8273C37.5566 45.8498 37.5703 45.8426 37.5281 45.8623C33.6018 47.6913 28.8457 47.8555 24.7734 46.4454C20.4434 44.9461 17.1686 41.8048 15.2209 37.6841C13.3804 33.7218 13.177 29.1933 14.6548 25.0822C16.0112 21.2742 18.6275 18.0436 22.0705 15.9254C22.7051 15.5385 23.2603 15.2717 23.9326 14.9542Z" fill="#FCFEFD"/>
<path d="M37.0381 45.5944C37.4254 45.4161 37.7659 45.2536 38.1423 45.0547C38.1423 45.2012 38.1171 45.2771 38.1852 45.387C38.2967 45.4214 38.3412 45.4125 38.456 45.4079C38.1809 45.5545 37.881 45.72 37.5922 45.8305C37.6756 45.6644 37.8731 45.6575 37.8843 45.4698L37.829 45.4442C37.5012 45.4877 37.4293 45.6179 37.0881 45.5976L37.0381 45.5944Z" fill="#ECFCFC"/>
<path d="M44.3285 22.75C44.4933 23.0999 44.6307 23.4861 44.7494 23.8542C44.6242 23.6831 44.2045 23.0982 44.1172 22.9304C44.1983 22.9924 44.2457 23.0436 44.3458 23.0553C44.3838 22.9653 44.3468 22.8616 44.3285 22.75Z" fill="#ECFCFC"/>
<path d="M27.1703 17.787C27.2235 17.6996 27.2715 17.5763 27.3731 17.5584C28.3642 17.3832 29.4867 17.2814 30.4892 17.3092C30.8919 17.3204 31.3603 17.4509 31.7744 17.4578C32.0337 17.4621 32.3369 17.6308 32.6477 17.657L32.6614 17.5405C32.768 17.6203 32.63 17.6177 32.7101 17.6465C32.9417 17.7297 33.2982 17.8849 33.5043 17.9745C33.4929 18.0511 33.4742 18.0455 33.4072 18.114C36.5262 19.5142 38.2111 21.993 39.4494 25.0683C41.8034 30.9147 39.6378 37.5048 33.5828 39.882C29.6238 41.4367 24.9097 40.1502 23.3321 35.9259C25.3984 37.8495 27.2087 39.0951 30.1818 38.9433C37.9733 38.5456 41.8836 27.9697 36.1609 22.6634C32.0383 18.8411 24.7634 19.9451 21.1809 23.9477C19.0955 26.251 17.9995 29.5252 18.1527 32.6168C18.3242 36.0865 19.8727 39.3446 22.4551 41.6686C25.0847 44.0327 28.5473 45.2524 32.0779 45.0585C33.7499 44.9623 35.3854 44.5319 36.8877 43.792C37.0113 43.7305 37.5582 43.4384 37.6612 43.3527C37.8156 43.0695 38.4747 42.8405 38.5296 42.5128C38.3255 42.4042 37.5255 42.9275 37.0967 42.8834L36.9887 42.9001C36.2996 43.1558 34.8817 43.5094 34.1568 43.6291C34.2671 43.4597 34.3416 43.5575 34.4339 43.4139L34.3986 43.372C34.1343 43.3125 33.7784 43.3979 33.4549 43.3697L33.4117 43.3655C34.6717 43.1274 35.197 42.991 36.4029 42.4974C36.7516 42.2884 37.1889 42.115 37.5553 41.892C38.5767 41.2692 39.5384 40.4492 40.3561 39.5818C42.8102 36.9873 44.127 33.5206 44.0152 29.9508C43.9167 26.8221 42.6839 23.8738 40.624 21.5356C40.1638 21.0133 39.699 20.5659 39.1926 20.0896C39.1786 19.9653 39.156 19.9693 39.2113 19.8937L39.4069 19.9011C42.4818 21.8611 44.6674 24.9467 45.4959 28.4977C46.2521 31.859 45.631 35.3833 43.7708 38.2836C41.7688 41.4733 38.0289 44.3798 34.3259 45.2194C30.5239 46.0479 26.5485 45.3326 23.274 43.2304C20.0917 41.2129 17.5615 37.8155 16.7409 34.1191C15.9471 30.5729 16.6086 26.8563 18.577 23.8015C20.6009 20.6349 23.5024 18.5929 27.1703 17.787Z" fill="#FCFEFD"/>
<path d="M27.1699 17.787C27.2231 17.6996 27.2712 17.5763 27.3727 17.5584C28.3638 17.3832 29.4863 17.2814 30.4889 17.3092C30.8915 17.3204 31.3599 17.4509 31.774 17.4578C32.0333 17.4621 32.3366 17.6308 32.6473 17.657L32.661 17.5405C32.7677 17.6203 32.6296 17.6177 32.7098 17.6465C32.9413 17.7297 33.2979 17.8849 33.5039 17.9745C33.4925 18.0511 33.4738 18.0455 33.4068 18.114C31.4021 17.2797 29.2538 17.3875 27.1699 17.787Z" fill="#698EE0"/>
<path d="M33.4121 43.3603C34.672 43.1222 35.1973 42.9858 36.4033 42.4922C36.2895 42.7097 35.7161 42.8464 35.5306 43.0289C35.4171 43.1408 34.9883 43.0891 34.9707 43.237C35.1587 43.2707 36.5668 42.8461 36.9891 42.8948C36.2999 43.1506 34.882 43.5042 34.1572 43.6239C34.2674 43.4545 34.342 43.5523 34.4343 43.4087L34.3989 43.3668C34.1346 43.3073 33.7788 43.3927 33.4553 43.3645L33.4121 43.3603Z" fill="#ECFCFC"/>
<path d="M37.0967 42.8808C37.6279 42.6797 38.1538 42.4645 38.6739 42.2355C39.0036 42.0883 39.4769 41.8482 39.7964 41.7266C39.2286 42.2816 38.3668 42.9744 37.6612 43.3502C37.8156 43.067 38.4747 42.838 38.5296 42.5103C38.3255 42.4017 37.5255 42.925 37.0967 42.8808Z" fill="#297578"/>
<path d="M38.2169 20.986C38.1966 20.8515 38.1848 20.9096 38.2264 20.7998L38.3323 20.7578C40.8427 22.7527 42.6564 26.1618 43.0159 29.3435C43.3675 32.5339 42.4304 35.7325 40.4132 38.2291C38.4174 40.7258 35.5014 42.3151 32.3215 42.6399C30.8411 42.8031 29.3427 42.6337 27.9356 42.1447C27.7819 42.0913 27.2385 41.8814 27.1121 41.8012C26.5284 41.5821 25.5124 40.9413 25.0452 40.5249C24.8759 40.4219 24.442 39.9977 24.296 39.8446C23.2503 38.7469 22.4767 37.6207 21.9154 36.2074C21.0127 33.9342 20.9733 31.5412 21.9238 29.2739C22.7168 27.3823 24.3451 25.7484 26.2486 24.9867C26.5061 24.8826 26.7083 24.8074 26.9727 24.7236L26.4624 25.2124C24.3506 27.3528 22.8922 29.5823 22.4646 32.6062C21.8392 37.03 24.4963 40.6908 28.9996 41.252C31.8116 41.6024 34.3776 40.783 36.6397 39.089C42.5746 34.6439 42.5419 26.5676 38.2169 20.986Z" fill="#FCFEFD"/>
<path d="M25.0459 40.5234C25.4761 40.5247 26.5226 41.2352 26.825 41.5652C26.9249 41.6744 27.0294 41.6385 27.1128 41.7997C26.5292 41.5806 25.5131 40.9398 25.0459 40.5234Z" fill="#ECFCFC"/>
<path d="M26.248 24.9975C26.5055 24.8934 26.7077 24.8181 26.9722 24.7344L26.4619 25.2231C26.4842 25.1396 26.4924 25.108 26.5043 25.02C26.425 24.9629 26.3742 24.9907 26.248 24.9975Z" fill="#ECFCFC"/>
<path d="M26.4417 42.786C26.2977 42.751 25.7052 42.4487 25.5593 42.3702C23.9817 41.5313 22.6 40.3675 21.5053 38.9551C19.6288 36.5056 18.7481 33.5252 19.1704 30.4535C19.5374 27.5884 21.0299 24.9873 23.3183 23.2248C26.4154 20.883 30.9619 20.4134 34.2131 22.7241C34.8558 23.1809 35.5152 23.7474 35.9895 24.3744C36.0104 24.5126 36.0363 24.5119 35.9784 24.5948C35.8528 24.5921 35.7933 24.5521 35.6742 24.5255C33.1537 23.0933 30.502 22.3646 27.6217 23.1587C25.1166 23.8553 22.9965 25.5289 21.7376 27.8038C19.5002 31.7655 20.2714 36.8575 23.3721 40.1029C23.643 40.3865 23.9391 40.657 24.2264 40.9242L24.2203 40.9804C24.4467 41.2052 25.3916 41.9941 25.7445 42.1858C25.7492 42.1884 25.8745 42.1619 25.9087 42.1828C26.2997 42.4213 27.1185 42.6587 27.4474 42.9093L27.464 42.9554C27.2245 43.1189 26.7624 42.7791 26.4417 42.786Z" fill="#FCFEFD"/>
<path d="M24.2268 40.9297L24.2664 40.9529C24.5057 41.0955 24.7683 41.3484 25.0076 41.5139C27.3496 43.1313 29.9611 43.7246 32.7881 43.4401C33.0004 43.4093 33.1979 43.3818 33.4115 43.3609L33.4547 43.3652C33.7782 43.3933 34.1341 43.3079 34.3983 43.3674L34.4337 43.4093C34.3414 43.5529 34.2669 43.4551 34.1566 43.6245C32.9696 43.8692 31.2165 43.9405 30.0082 43.7727C28.9844 43.6402 27.369 43.2559 26.4421 42.7915C26.7629 42.7846 27.225 43.1244 27.4645 42.9609L27.4478 42.9148C27.1189 42.6642 26.3002 42.4268 25.9091 42.1883C25.875 42.1674 25.7496 42.1939 25.7449 42.1913C25.392 41.9996 24.4471 41.2107 24.2207 40.9859L24.2268 40.9297Z" fill="#ECFCFC"/>
<path d="M33.412 43.3666L33.4552 43.3709C33.7787 43.399 34.1346 43.3136 34.3989 43.3732L34.4342 43.415C34.3419 43.5586 34.2674 43.4608 34.1571 43.6303C32.9702 43.8749 31.217 43.9462 30.0087 43.7784L29.9996 43.7323C29.5829 43.5972 29.2832 43.6574 28.8652 43.4147C29.6215 43.3882 30.5213 43.6443 31.2801 43.6597C31.5673 43.6656 32.5119 43.5796 32.7687 43.5024L32.7886 43.4458C33.0009 43.415 33.1985 43.3876 33.412 43.3666Z" fill="#FCFEFD"/>
<path d="M39.1936 20.0819C39.0094 19.9179 37.9762 19.12 37.9199 19.0391C38.3661 19.3165 38.9084 19.582 39.4078 19.8935L39.2122 19.8861C39.157 19.9617 39.1795 19.9577 39.1936 20.0819Z" fill="#ECFCFC"/>
<path d="M38.2183 20.9951C37.9681 20.6706 37.6809 20.39 37.4248 20.0703C37.7316 20.2977 38.0417 20.521 38.3338 20.767L38.2278 20.809C38.1863 20.9188 38.198 20.8607 38.2183 20.9951Z" fill="#ECFCFC"/>
<path d="M35.9901 24.3828C36.1828 24.641 36.3058 24.8331 36.4726 25.1044C36.2109 24.9086 35.945 24.7183 35.6748 24.5339C35.7939 24.5605 35.8534 24.6005 35.979 24.6031C36.0369 24.5203 36.011 24.521 35.9901 24.3828Z" fill="#ECFCFC"/>
<path d="M20.9343 15.7078C20.9865 15.7299 21.0304 15.7688 21.078 15.7995C21.4323 15.5691 21.6249 15.4096 22.0407 15.2959C22.1195 15.2743 22.2315 15.0632 22.4393 15.0195L22.497 15.1148L22.5372 15.1173L22.5427 14.9906C22.7752 14.7933 23.3026 14.6236 23.582 14.4901C23.698 14.4346 24.0324 14.2791 24.1132 14.2212C24.1826 14.2487 24.2523 14.2752 24.3224 14.3008L24.3669 14.2644L24.3529 14.1983C24.3942 14.2248 24.4266 14.2442 24.4687 14.2686C24.6159 14.2762 24.6247 14.2798 24.7597 14.2299C24.8034 14.1447 24.8114 14.1497 24.8925 14.0938C24.9084 14.1879 24.9078 14.2701 24.9104 14.3651C24.835 14.4713 24.02 14.6325 23.8064 14.831L23.809 14.8727L23.9056 14.8902L23.9325 14.9533C23.2601 15.2708 22.705 15.5376 22.0703 15.9245C18.6274 18.0427 16.0111 21.2733 14.6546 25.0813C13.1768 29.1925 13.3803 33.7209 15.2208 37.6833C17.1685 41.8039 20.4433 44.9452 24.7732 46.4446C28.8455 47.8546 33.6017 47.6904 37.528 45.8614C37.5702 45.8417 37.5565 45.8489 37.5921 45.8264C37.8809 45.7158 38.1809 45.5503 38.4559 45.4038C42.05 43.5011 44.9309 40.4851 46.6668 36.8073L46.968 36.1221C47.0527 36.2631 47.0288 36.2647 47.1633 36.3298C47.3634 36.3291 47.4102 36.1885 47.5211 36.0482L47.563 36.0701L47.5702 36.1211C47.4635 36.4642 47.3049 36.9925 47.1561 37.3189L47.1659 37.3545C47.0998 37.4651 46.8902 37.9767 46.83 38.1193C46.6497 38.5461 46.4761 38.8997 46.2523 39.3076C44.9172 41.7829 43.0028 43.8982 40.6726 45.4734C36.5029 48.2844 31.9463 49.055 27.0452 48.0934C22.5417 47.2309 18.5635 44.6191 15.9815 40.8298C13.2828 36.7864 12.2956 31.8382 13.2359 27.0687C14.1905 22.2603 16.8737 18.4244 20.9343 15.7078Z" fill="#2A808C"/>
<path d="M46.9685 36.1286C47.0532 36.2696 47.0293 36.2712 47.1637 36.3363C47.3639 36.3357 47.4107 36.195 47.5216 36.0547L47.5634 36.0766L47.5706 36.1276C47.464 36.4707 47.3054 36.999 47.1565 37.3254C46.8317 37.2822 47.2308 36.878 47.1451 36.6379C46.9335 36.544 46.8 36.9234 46.7169 37.0814L46.678 37.0755C46.6394 36.9709 46.6545 36.9241 46.6672 36.8139L46.9685 36.1286Z" fill="#1D7576"/>
<path d="M46.9688 36.1235C47.1336 35.6411 47.3213 35.157 47.4895 34.6641L47.5333 34.7246L47.5981 34.6745C47.741 34.8008 47.7557 34.8391 47.8686 34.9869C47.8427 35.0968 47.7564 35.433 47.7466 35.5272C47.69 35.7264 47.6314 35.9246 47.5709 36.1225L47.5637 36.0715L47.5219 36.0496C47.411 36.1899 47.3642 36.3306 47.164 36.3312C47.0296 36.2661 47.0535 36.2645 46.9688 36.1235Z" fill="#297578"/>
<path d="M47.8991 33.0408C47.9606 32.9502 47.9805 32.925 48.0231 32.8203C48.0149 33.0532 47.9472 33.1638 47.9393 33.4575L47.9822 33.467C48.064 33.3613 48.0721 33.1049 48.0859 32.9623C48.151 33.1579 48.1071 33.239 48.1362 33.4343C48.1251 33.8343 47.9701 34.5895 47.8674 34.9935C47.7545 34.8456 47.7398 34.8074 47.5969 34.6811L47.5321 34.7311L47.4883 34.6706C47.6423 34.1587 47.7728 33.5657 47.8991 33.0408Z" fill="#1D7576"/>
<path d="M48.1928 30.795C48.2128 30.7201 48.2075 30.6825 48.2553 30.6406C48.2844 31.0138 48.2429 31.4377 48.2697 31.8008C48.2638 32.1436 48.2164 33.1046 48.1366 33.431C48.1074 33.2357 48.1513 33.1546 48.0862 32.959C48.0724 33.1016 48.0643 33.358 47.9825 33.4637L47.9396 33.4542C47.9475 33.1605 48.0152 33.0499 48.0234 32.8171C47.9809 32.9217 47.9609 32.9469 47.8994 33.0375C48.0486 32.2296 48.1699 31.6209 48.1928 30.795Z" fill="#297578"/>
<path d="M48.1934 30.7973C48.1956 30.5432 48.1924 30.3388 48.232 30.0859C48.3176 30.1945 48.3131 31.6059 48.2702 31.8031C48.2434 31.4401 48.2849 31.0162 48.2558 30.643C48.2081 30.6848 48.2133 30.7224 48.1934 30.7973Z" fill="#89898A"/>
<path d="M47.5694 36.1265C47.6299 35.9287 47.6884 35.7304 47.745 35.5312C47.7731 35.8482 47.6253 36.0209 47.817 36.2466L47.868 36.2459C47.9403 36.1135 47.9864 35.9695 48.1025 35.896C47.9681 36.3951 47.6838 37.3099 47.4693 37.7751C47.4699 37.6524 47.486 37.4826 47.434 37.3793C47.311 37.3083 47.3404 37.3276 47.1651 37.36L47.1553 37.3243C47.3041 36.9979 47.4627 36.4697 47.5694 36.1265Z" fill="#ECFCFC"/>
<path d="M47.4924 36.8047C47.6017 36.8619 47.5614 36.8224 47.6239 36.9205C47.6265 37.033 47.5784 37.0902 47.5212 37.1887C47.4502 37.135 47.4535 37.136 47.4025 37.0621C47.3897 36.9555 47.4378 36.9005 47.4924 36.8047Z" fill="#FCFEFD"/>
<path d="M36.7449 10C36.7959 10.0839 36.813 10.1081 36.8502 10.201L36.8139 10.2638C36.7188 10.1795 36.7534 10.2308 36.7188 10.0967L36.7449 10Z" fill="#698EE0"/>
</g>
<defs>
<radialGradient id="paint0_radial_16317_35674" cx="0" cy="0" r="1" gradientUnits="userSpaceOnUse" gradientTransform="translate(14.125 4.25) rotate(64.4069) scale(59.3202)">
<stop stop-color="#68B3FE"/>
<stop offset="0.168269" stop-color="#65A0FE"/>
<stop offset="0.620192" stop-color="#22834A"/>
<stop offset="1" stop-color="#21BF63"/>
</radialGradient>
<radialGradient id="paint1_radial_16317_35674" cx="0" cy="0" r="1" gradientUnits="userSpaceOnUse" gradientTransform="translate(12.4251 3.02452) rotate(61.8119) scale(61.9524)">
<stop stop-color="#5C7FCD"/>
<stop offset="0.0606417" stop-color="#3F6FC2"/>
<stop offset="0.483975" stop-color="#298963"/>
<stop offset="1" stop-color="#317943"/>
</radialGradient>
<linearGradient id="paint2_linear_16317_35674" x1="9.72752" y1="-10.0545" x2="43.8965" y2="60" gradientUnits="userSpaceOnUse">
<stop stop-color="#1BA8A8"/>
<stop offset="0.26522" stop-color="#1BA8A8"/>
<stop offset="0.634375" stop-color="#268395"/>
<stop offset="1" stop-color="#287993"/>
</linearGradient>
<radialGradient id="paint3_radial_16317_35674" cx="0" cy="0" r="1" gradientUnits="userSpaceOnUse" gradientTransform="translate(30) rotate(90) scale(39)">
<stop stop-color="#1BA8A8"/>
<stop offset="1" stop-color="#277B94"/>
</radialGradient>
<radialGradient id="paint4_radial_16317_35674" cx="0" cy="0" r="1" gradientUnits="userSpaceOnUse" gradientTransform="translate(30) rotate(90) scale(39)">
<stop stop-color="#7796FA"/>
<stop offset="1" stop-color="#187D7D"/>
</radialGradient>
<linearGradient id="paint5_linear_16317_35674" x1="9.72752" y1="-10.0545" x2="43.8965" y2="60" gradientUnits="userSpaceOnUse">
<stop stop-color="#1BA8A8"/>
<stop offset="0.26522" stop-color="#1BA8A8"/>
<stop offset="0.634375" stop-color="#268395"/>
<stop offset="1" stop-color="#287993"/>
</linearGradient>
<radialGradient id="paint6_radial_16317_35674" cx="0" cy="0" r="1" gradientUnits="userSpaceOnUse" gradientTransform="translate(30) rotate(90) scale(39)">
<stop stop-color="#1BA8A8"/>
<stop offset="1" stop-color="#277B94"/>
</radialGradient>
<radialGradient id="paint7_radial_16317_35674" cx="0" cy="0" r="1" gradientUnits="userSpaceOnUse" gradientTransform="translate(30) rotate(90) scale(39)">
<stop stop-color="#7796FA"/>
<stop offset="1" stop-color="#187D7D"/>
</radialGradient>
<clipPath id="clip0_16317_35674">
<rect width="60" height="60" fill="white"/>
</clipPath>
</defs>
</svg>
