<?xml version="1.0" encoding="UTF-8"?>
<!DOCTYPE svg PUBLIC "-//W3C//DTD SVG 1.1//EN" "http://www.w3.org/Graphics/SVG/1.1/DTD/svg11.dtd">
<svg xmlns="http://www.w3.org/2000/svg" version="1.1" width="200px" height="200px" style="shape-rendering:geometricPrecision; text-rendering:geometricPrecision; image-rendering:optimizeQuality; fill-rule:evenodd; clip-rule:evenodd" xmlns:xlink="http://www.w3.org/1999/xlink">
<g><path style="opacity:1" fill="#ecb412" d="M 88.5,-0.5 C 95.8333,-0.5 103.167,-0.5 110.5,-0.5C 160.5,8.83333 190.167,38.5 199.5,88.5C 199.5,95.8333 199.5,103.167 199.5,110.5C 190.167,160.5 160.5,190.167 110.5,199.5C 103.167,199.5 95.8333,199.5 88.5,199.5C 38.5,190.167 8.83333,160.5 -0.5,110.5C -0.5,103.167 -0.5,95.8333 -0.5,88.5C 8.83333,38.5 38.5,8.83333 88.5,-0.5 Z"/></g>
<g><path style="opacity:1" fill="#000000" d="M 32.5,46.5 C 42.1667,46.5 51.8333,46.5 61.5,46.5C 61.0753,53.6154 61.5753,60.6154 63,67.5C 64.1667,68.6667 65.3333,69.8333 66.5,71C 82.4436,69.9424 90.277,77.4424 90,93.5C 96.3333,98.8333 102.667,98.8333 109,93.5C 108.723,77.4424 116.556,69.9424 132.5,71C 133.667,69.8333 134.833,68.6667 136,67.5C 137.425,60.6154 137.925,53.6154 137.5,46.5C 147.167,46.5 156.833,46.5 166.5,46.5C 166.666,52.1764 166.499,57.8431 166,63.5C 165.169,68.6814 162.336,72.1814 157.5,74C 152.983,74.2632 148.649,75.2632 144.5,77C 139.536,81.2725 138.37,86.4392 141,92.5C 142.938,95.1059 145.438,96.9392 148.5,98C 162.222,98.3769 167.722,105.21 165,118.5C 161.252,124.539 155.752,127.373 148.5,127C 145.898,127.883 143.731,129.383 142,131.5C 140.575,138.385 140.075,145.385 140.5,152.5C 130.833,152.5 121.167,152.5 111.5,152.5C 111.334,146.824 111.501,141.157 112,135.5C 114.445,126.843 120.278,123.009 129.5,124C 140.174,117.957 141.174,110.624 132.5,102C 125.781,99.1487 119.947,100.315 115,105.5C 115.629,116.948 110.462,123.948 99.5,126.5C 88.5378,123.948 83.3712,116.948 84,105.5C 79.8604,100.789 74.6938,99.2886 68.5,101C 60.5927,105.387 58.7593,111.554 63,119.5C 67.2434,123.761 72.4101,125.595 78.5,125C 81.9371,126.105 84.4371,128.272 86,131.5C 87.339,138.426 87.839,145.426 87.5,152.5C 77.8333,152.5 68.1667,152.5 58.5,152.5C 58.9247,145.385 58.4247,138.385 57,131.5C 55.2691,129.383 53.1024,127.883 50.5,127C 35.3198,126.178 30.1531,118.678 35,104.5C 38.9593,99.6201 44.126,97.4535 50.5,98C 57.5696,95.6067 60.403,90.7734 59,83.5C 58.3102,80.804 56.8102,78.6374 54.5,77C 50.3505,75.2632 46.0172,74.2632 41.5,74C 36.3739,71.9336 33.5406,68.1003 33,62.5C 32.5006,57.1771 32.334,51.8437 32.5,46.5 Z"/></g>
</svg>
