<?xml version="1.0" encoding="UTF-8"?>
<svg version="1.1" xmlns="http://www.w3.org/2000/svg" viewBox="0 0 128 128">
<path d="M0 0 C1.93318588 -0.01925285 1.93318588 -0.01925285 3.90542603 -0.03889465 C5.31113294 -0.04706535 6.71684424 -0.05450844 8.12255859 -0.0612793 C9.19055758 -0.06739259 9.19055758 -0.06739259 10.28013229 -0.07362938 C14.05231176 -0.09446303 17.8244552 -0.1087737 21.59667969 -0.11816406 C25.47002665 -0.12919434 29.34279374 -0.16356197 33.21593666 -0.20333576 C36.21362282 -0.22963705 39.21117394 -0.23786799 42.2089653 -0.24144554 C43.63535838 -0.24628047 45.0617467 -0.25780493 46.48802567 -0.27648354 C59.83136955 -0.4403015 70.41944887 2.56744577 80.36474609 11.7668457 C87.11641864 19.08689884 90.73719014 27.65128995 90.82299805 37.53100586 C90.8422509 39.46419174 90.8422509 39.46419174 90.8618927 41.43643188 C90.87006339 42.8421388 90.87750649 44.2478501 90.88427734 45.65356445 C90.88835287 46.36556377 90.8924284 47.0775631 90.89662743 47.81113815 C90.91746107 51.58331762 90.93177175 55.35546106 90.94116211 59.12768555 C90.95219238 63.00103251 90.98656002 66.8737996 91.02633381 70.74694252 C91.05263509 73.74462868 91.06086604 76.7421798 91.06444359 79.73997116 C91.06927852 81.16636424 91.08080298 82.59275256 91.09948158 84.01903152 C91.26329955 97.36237541 88.25555228 107.95045473 79.05615234 117.89575195 C71.73609921 124.64742449 63.1717081 128.268196 53.29199219 128.35400391 C51.3588063 128.37325676 51.3588063 128.37325676 49.38656616 128.39289856 C47.98085925 128.40106925 46.57514795 128.40851235 45.16943359 128.4152832 C44.45743427 128.41935873 43.74543495 128.42343426 43.01185989 128.42763329 C39.23968042 128.44846693 35.46753698 128.46277761 31.6953125 128.47216797 C27.82196553 128.48319824 23.94919844 128.51756588 20.07605553 128.55733967 C17.07836937 128.58364095 14.08081825 128.5918719 11.08302689 128.59544945 C9.65663381 128.60028438 8.23024549 128.61180884 6.80396652 128.63048744 C-6.53937736 128.79430541 -17.12745668 125.78655813 -27.07275391 116.5871582 C-33.82442645 109.26710506 -37.44519795 100.70271396 -37.53100586 90.82299805 C-37.54384109 89.53420746 -37.55667633 88.24541687 -37.56990051 86.91757202 C-37.5780712 85.51186511 -37.5855143 84.10615381 -37.59228516 82.70043945 C-37.59636068 81.98844013 -37.60043621 81.27644081 -37.60463524 80.54286575 C-37.62546888 76.77068628 -37.63977956 72.99854284 -37.64916992 69.22631836 C-37.6602002 65.35297139 -37.69456783 61.4802043 -37.73434162 57.60706139 C-37.76064291 54.60937522 -37.76887385 51.61182411 -37.7724514 48.61403275 C-37.77728633 47.18763967 -37.78881079 45.76125135 -37.8074894 44.33497238 C-37.97130736 30.9916285 -34.96356009 20.40354918 -25.76416016 10.45825195 C-18.44410702 3.70657941 -9.87971591 0.08580791 0 0 Z " fill="#0E8861" transform="translate(37.35400390625,-0.177001953125)"/>
<path d="M0 0 C1.93318588 -0.01925285 1.93318588 -0.01925285 3.90542603 -0.03889465 C5.31113294 -0.04706535 6.71684424 -0.05450844 8.12255859 -0.0612793 C9.19055758 -0.06739259 9.19055758 -0.06739259 10.28013229 -0.07362938 C14.05231176 -0.09446303 17.8244552 -0.1087737 21.59667969 -0.11816406 C25.47002665 -0.12919434 29.34279374 -0.16356197 33.21593666 -0.20333576 C36.21362282 -0.22963705 39.21117394 -0.23786799 42.2089653 -0.24144554 C43.63535838 -0.24628047 45.0617467 -0.25780493 46.48802567 -0.27648354 C59.83136955 -0.4403015 70.41944887 2.56744577 80.36474609 11.7668457 C87.11641864 19.08689884 90.73719014 27.65128995 90.82299805 37.53100586 C90.8422509 39.46419174 90.8422509 39.46419174 90.8618927 41.43643188 C90.87006339 42.8421388 90.87750649 44.2478501 90.88427734 45.65356445 C90.88835287 46.36556377 90.8924284 47.0775631 90.89662743 47.81113815 C90.91746107 51.58331762 90.93177175 55.35546106 90.94116211 59.12768555 C90.95219238 63.00103251 90.98656002 66.8737996 91.02633381 70.74694252 C91.05263509 73.74462868 91.06086604 76.7421798 91.06444359 79.73997116 C91.06927852 81.16636424 91.08080298 82.59275256 91.09948158 84.01903152 C91.26329955 97.36237541 88.25555228 107.95045473 79.05615234 117.89575195 C71.73609921 124.64742449 63.1717081 128.268196 53.29199219 128.35400391 C51.3588063 128.37325676 51.3588063 128.37325676 49.38656616 128.39289856 C47.98085925 128.40106925 46.57514795 128.40851235 45.16943359 128.4152832 C44.45743427 128.41935873 43.74543495 128.42343426 43.01185989 128.42763329 C39.23968042 128.44846693 35.46753698 128.46277761 31.6953125 128.47216797 C27.82196553 128.48319824 23.94919844 128.51756588 20.07605553 128.55733967 C17.07836937 128.58364095 14.08081825 128.5918719 11.08302689 128.59544945 C9.65663381 128.60028438 8.23024549 128.61180884 6.80396652 128.63048744 C-6.53937736 128.79430541 -17.12745668 125.78655813 -27.07275391 116.5871582 C-33.82442645 109.26710506 -37.44519795 100.70271396 -37.53100586 90.82299805 C-37.54384109 89.53420746 -37.55667633 88.24541687 -37.56990051 86.91757202 C-37.5780712 85.51186511 -37.5855143 84.10615381 -37.59228516 82.70043945 C-37.59636068 81.98844013 -37.60043621 81.27644081 -37.60463524 80.54286575 C-37.62546888 76.77068628 -37.63977956 72.99854284 -37.64916992 69.22631836 C-37.6602002 65.35297139 -37.69456783 61.4802043 -37.73434162 57.60706139 C-37.76064291 54.60937522 -37.76887385 51.61182411 -37.7724514 48.61403275 C-37.77728633 47.18763967 -37.78881079 45.76125135 -37.8074894 44.33497238 C-37.97130736 30.9916285 -34.96356009 20.40354918 -25.76416016 10.45825195 C-18.44410702 3.70657941 -9.87971591 0.08580791 0 0 Z M-25.29541016 16.43481445 C-32.45783866 25.97475054 -33.81532004 35.21987671 -33.75244141 46.9465332 C-33.75531158 48.14453049 -33.75818176 49.34252777 -33.76113892 50.576828 C-33.76317056 53.09891231 -33.75770406 55.62101269 -33.74511719 58.14306641 C-33.72909442 61.96789482 -33.74497592 65.79165975 -33.76416016 69.61645508 C-33.76217674 72.08065008 -33.75833103 74.54484444 -33.75244141 77.0090332 C-33.7585141 78.13549759 -33.76458679 79.26196198 -33.77084351 80.42256165 C-33.64562296 94.8283252 -30.57925833 105.13990423 -20.85009766 115.8293457 C-11.81018347 124.30265558 0.7809201 124.33293475 12.35302734 124.3449707 C13.47360031 124.3482991 14.59417328 124.3516275 15.748703 124.35505676 C18.11298209 124.36010528 20.47726826 124.36246573 22.84155273 124.36230469 C26.43599336 124.36448828 30.03012542 124.38265853 33.62451172 124.40161133 C35.92984922 124.40454635 38.23518817 124.40653042 40.54052734 124.4074707 C42.13632378 124.41824898 42.13632378 124.41824898 43.76435852 124.429245 C55.98817901 124.392292 66.67313368 122.3848622 75.97802734 114.0168457 C85.82617457 103.1539011 86.79666416 91.36140244 86.88427734 77.41137695 C86.89638496 75.56760468 86.89638496 75.56760468 86.90873718 73.68658447 C86.92253365 71.09111931 86.93327553 68.49563634 86.94116211 65.90014648 C86.95268709 63.25849046 86.97314679 60.61685781 87.00268555 57.9753418 C87.04551932 54.14136057 87.06155254 50.30806825 87.07177734 46.47387695 C87.09803947 44.7217691 87.09803947 44.7217691 87.12483215 42.93426514 C87.09556027 31.75049051 84.2141416 22.94734836 76.92333984 14.4074707 C67.18686477 4.87140335 56.7884883 3.86357454 43.78662109 3.84106445 C42.43292098 3.83462403 41.07922222 3.82789478 39.7255249 3.82089233 C36.89462056 3.80895923 34.06383785 3.80520727 31.23291016 3.80639648 C27.63432776 3.80659918 24.03653949 3.77933207 20.43814468 3.74485207 C17.64284806 3.72243167 14.84773779 3.71856356 12.05236053 3.71961594 C10.09004339 3.71615858 8.12778441 3.6945903 6.16558838 3.67251587 C-6.23858477 3.73518807 -17.0122896 6.80172857 -25.29541016 16.43481445 Z " fill="#0A0C0B" transform="translate(37.35400390625,-0.177001953125)"/>
<path d="M0 0 C2.40234375 5.60546875 4.8046875 11.2109375 7.20703125 16.81640625 C7.46766861 17.42450134 7.72830597 18.03259644 7.99684143 18.65911865 C8.52739846 19.89720427 9.05778225 21.13536414 9.58799744 22.37359619 C10.93557018 25.52002543 12.28617871 28.66508726 13.64282227 31.80761719 C13.90940643 32.42635712 14.1759906 33.04509705 14.45065308 33.68258667 C15.18258374 35.38106797 15.91583085 37.07898179 16.64916992 38.77685547 C18.48776523 43.16383095 20.16918832 47.60358641 21.82421875 52.0625 C23.05518062 55.1378599 24.50941055 58.04345894 26 61 C26.33 61.99 26.66 62.98 27 64 C28.98 64 30.96 64 33 64 C33 65.32 33 66.64 33 68 C24.42 68 15.84 68 7 68 C7 66.68 7 65.36 7 64 C9.97 63.505 9.97 63.505 13 63 C12.55934629 57.56527092 10.3922929 53.22991049 8.05859375 48.390625 C7 46 7 46 7 44 C-1.58 44 -10.16 44 -19 44 C-19.33 45.65 -19.66 47.3 -20 49 C-20.49824818 50.50765252 -21.018809 52.0081329 -21.5625 53.5 C-22.69411471 56.79047189 -23.3404651 59.48186065 -23 63 C-20.36 63.33 -17.72 63.66 -15 64 C-15 65.32 -15 66.64 -15 68 C-22.92 68 -30.84 68 -39 68 C-39 66.68 -39 65.36 -39 64 C-37.39125 63.505 -37.39125 63.505 -35.75 63 C-32.00349883 61.35996535 -30.5891311 59.28021064 -28.953125 55.48828125 C-28.63859375 54.66714844 -28.3240625 53.84601563 -28 53 C-27.62359375 52.02417969 -27.2471875 51.04835937 -26.859375 50.04296875 C-26.01492815 47.83297653 -25.17667461 45.62061056 -24.34375 43.40625 C-23.05446995 40.13807498 -21.63140485 36.98556554 -20.125 33.8125 C-17.27075262 27.77297139 -14.85070489 21.61644263 -12.53564453 15.35473633 C-8.02336679 3.36874812 -8.02336679 3.36874812 -3.875 0.5625 C-2 0 -2 0 0 0 Z " fill="#C9E5DC" transform="translate(67,26)"/>
<path d="M0 0 C1.35084289 -0.0045734 2.70168346 -0.00988237 4.05252075 -0.0158844 C6.87153629 -0.02477114 9.69026788 -0.02244433 12.50927734 -0.01245117 C16.09215352 -0.00097736 19.67404169 -0.02116987 23.25678825 -0.05036831 C26.04352879 -0.06886432 28.83003848 -0.06841136 31.6168251 -0.06273079 C33.57025599 -0.06250629 35.52366564 -0.07927952 37.47702026 -0.09654236 C48.3402269 -0.01241931 57.40974765 2.24871914 65.87109375 9.3125 C75.51999653 19.17945708 77.25631529 29.01594851 77.2109375 42.234375 C77.21285095 43.46592819 77.2147644 44.69748138 77.21673584 45.96635437 C77.2180938 48.56603195 77.21442461 51.1657164 77.20605469 53.76538086 C77.19537752 57.72199951 77.20594944 61.67816128 77.21875 65.63476562 C77.2174278 68.16796974 77.21486416 70.70117358 77.2109375 73.234375 C77.21498596 74.40760818 77.21903442 75.58084137 77.22320557 76.78962708 C77.14757242 90.20031403 74.76485316 100.72752814 65.61328125 110.8671875 C55.80785933 120.07555796 43.9811704 120.58830883 31.23828125 120.6015625 C30.11770828 120.6048909 28.99713531 120.6082193 27.84260559 120.61164856 C25.4783265 120.61669708 23.11404033 120.61905753 20.74975586 120.61889648 C17.15531523 120.62108008 13.56118318 120.63925032 9.96679688 120.65820312 C7.66145937 120.66113815 5.35612043 120.66312222 3.05078125 120.6640625 C1.45498482 120.67484077 1.45498482 120.67484077 -0.17304993 120.68583679 C-12.42032506 120.64881289 -23.14202285 118.66422432 -32.390625 110.17578125 C-42.28768407 99.81407152 -43.52759772 87.08006675 -43.453125 73.265625 C-43.45599518 72.06475754 -43.45886536 70.86389008 -43.46182251 69.62663269 C-43.46384822 67.10988895 -43.458424 64.59312892 -43.44580078 62.07641602 C-43.42968393 58.24524561 -43.4457236 54.41512319 -43.46484375 50.58398438 C-43.46286188 48.12369561 -43.45901938 45.6634075 -43.453125 43.203125 C-43.45919769 42.07058792 -43.46527039 40.93805084 -43.4715271 39.77119446 C-43.37085651 28.29040504 -40.81094665 19.106634 -33.0546875 10.43359375 C-22.90738277 1.51067455 -13.19637468 -0.03037902 0 0 Z M-32.0546875 16.43359375 C-38.92234016 25.66324256 -39.37013453 34.55697994 -39.390625 45.76953125 C-39.3972818 47.04406158 -39.4039386 48.31859192 -39.41079712 49.63174438 C-39.42089333 52.3197433 -39.4264839 55.00733724 -39.42529297 57.6953125 C-39.42508991 61.11349918 -39.45240305 64.53085328 -39.48683739 67.948843 C-39.51462208 71.24320639 -39.51325969 74.53756677 -39.515625 77.83203125 C-39.52999603 79.04587494 -39.54436707 80.25971863 -39.55917358 81.51034546 C-39.50329582 91.99570312 -37.18208051 99.99236076 -29.9140625 107.6796875 C-23.55702613 113.67613567 -17.61316506 116.64378929 -8.68896484 116.75585938 C-7.4468222 116.77507446 -6.20467957 116.79428955 -4.92489624 116.81408691 C-3.58014674 116.82378805 -2.23538858 116.83234444 -0.890625 116.83984375 C-0.20502125 116.8454985 0.4805825 116.85115326 1.18696213 116.85697937 C4.81882998 116.88687436 8.45054093 116.90538641 12.08251953 116.9140625 C15.80129951 116.92498997 19.51859926 116.97297527 23.2369175 117.03000641 C26.12490784 117.06759045 29.01255423 117.07768776 31.90076828 117.08073425 C33.92796659 117.08959713 35.95497944 117.12673175 37.98184204 117.16467285 C47.90163742 117.11745799 55.883364 114.93824002 63.41812134 108.23303223 C72.17525889 99.37978987 73.55969605 89.57857985 73.51171875 77.53515625 C73.51791733 76.22380707 73.52411591 74.91245789 73.53050232 73.56137085 C73.54084424 70.79952262 73.53643736 68.03819155 73.52172852 65.27636719 C73.50456841 61.77073112 73.52803107 58.26673867 73.56321812 54.76128578 C73.59071071 51.3733188 73.58044133 47.98572891 73.57421875 44.59765625 C73.58747696 43.35666168 73.60073517 42.11566711 73.61439514 40.83706665 C73.50233688 30.21444794 70.96098199 21.56356782 63.9453125 13.43359375 C61.97513815 11.70869107 61.97513815 11.70869107 59.8203125 10.30859375 C59.13710937 9.83164063 58.45390625 9.3546875 57.75 8.86328125 C49.41031574 4.612133 41.30771818 3.98603325 32.0703125 4.03515625 C30.8652002 4.03228607 29.66008789 4.02941589 28.41845703 4.02645874 C25.88378425 4.02442749 23.34909546 4.02989119 20.81445312 4.04248047 C16.95667131 4.05854645 13.09993711 4.04259851 9.2421875 4.0234375 C6.76822688 4.0254201 4.2942669 4.02926411 1.8203125 4.03515625 C0.67836426 4.02908356 -0.46358398 4.02301086 -1.64013672 4.01675415 C-14.01691871 4.12431559 -23.6227898 6.92068352 -32.0546875 16.43359375 Z " fill="#487F6D" transform="translate(47.0546875,3.56640625)"/>
<path d="M0 0 C2.49325659 2.23199914 3.75225995 4.26818462 5.04296875 7.34375 C5.39423828 8.17777344 5.74550781 9.01179688 6.10742188 9.87109375 C6.46384766 10.73863281 6.82027344 11.60617188 7.1875 12.5 C7.73954102 13.80130859 7.73954102 13.80130859 8.30273438 15.12890625 C11 21.60434543 11 21.60434543 11 25 C4.4 25 -2.2 25 -9 25 C-8.28653598 20.71921589 -7.78470648 18.04074836 -6.15234375 14.2578125 C-5.79462891 13.41992188 -5.43691406 12.58203125 -5.06835938 11.71875 C-4.50858398 10.43484375 -4.50858398 10.43484375 -3.9375 9.125 C-3.56044922 8.24585938 -3.18339844 7.36671875 -2.79492188 6.4609375 C-1.86913928 4.30468436 -0.93738089 2.15123021 0 0 Z " fill="#2C9775" transform="translate(60,40)"/>
</svg>
