<svg width="24" height="24" viewBox="0 0 24 24" fill="none" xmlns="http://www.w3.org/2000/svg">
<rect x="1" y="1" width="22" height="22" rx="11" fill="#39BEB7"/>
<rect x="1" y="1" width="22" height="22" rx="11" stroke="white" stroke-width="2"/>
<path d="M13.6181 6.07933L12.3849 5.75L11.3456 9.6155L10.4073 6.1257L9.17404 6.45503L10.1878 10.2255L7.66277 7.70906L6.75996 8.60881L9.52959 11.3691L6.08045 10.448L5.75 11.6771L9.51862 12.6834C9.47547 12.498 9.45265 12.3047 9.45265 12.1062C9.45265 10.7007 10.5959 9.56128 12.0062 9.56128C13.4165 9.56128 14.5597 10.7007 14.5597 12.1062C14.5597 12.3034 14.5372 12.4955 14.4946 12.6799L17.9196 13.5945L18.25 12.3654L14.4664 11.355L17.9158 10.4339L17.5853 9.20484L13.8019 10.2152L16.3269 7.69873L15.4241 6.79898L12.6928 9.52094L13.6181 6.07933Z" fill="white"/>
<path d="M14.491 12.6942C14.3852 13.1397 14.162 13.5399 13.8557 13.8606L16.337 16.3334L17.2398 15.4337L14.491 12.6942Z" fill="white"/>
<path d="M13.8307 13.8864C13.5207 14.202 13.129 14.4374 12.6896 14.5588L13.5925 17.9169L14.8258 17.5876L13.8307 13.8864Z" fill="white"/>
<path d="M12.6436 14.5711C12.4398 14.6233 12.2261 14.651 12.006 14.651C11.7701 14.651 11.5417 14.6191 11.3249 14.5595L10.4212 17.9207L11.6544 18.25L12.6436 14.5711Z" fill="white"/>
<path d="M11.2813 14.5471C10.8487 14.4197 10.4639 14.1813 10.1603 13.8648L7.6729 16.3437L8.57572 17.2435L11.2813 14.5471Z" fill="white"/>
<path d="M10.1398 13.8429C9.8413 13.5245 9.62391 13.1296 9.52043 12.691L6.08427 13.6086L6.41472 14.8376L10.1398 13.8429Z" fill="white"/>
</svg>
