<?xml version="1.0" encoding="UTF-8"?>
<svg version="1.1" xmlns="http://www.w3.org/2000/svg" viewBox="0 0 128 128">
<path d="M0 0 C1.93318588 -0.01925285 1.93318588 -0.01925285 3.90542603 -0.03889465 C5.31113294 -0.04706535 6.71684424 -0.05450844 8.12255859 -0.0612793 C9.19055758 -0.06739259 9.19055758 -0.06739259 10.28013229 -0.07362938 C14.05231176 -0.09446303 17.8244552 -0.1087737 21.59667969 -0.11816406 C25.47002665 -0.12919434 29.34279374 -0.16356197 33.21593666 -0.20333576 C36.21362282 -0.22963705 39.21117394 -0.23786799 42.2089653 -0.24144554 C43.63535838 -0.24628047 45.0617467 -0.25780493 46.48802567 -0.27648354 C59.83136955 -0.4403015 70.41944887 2.56744577 80.36474609 11.7668457 C87.11641864 19.08689884 90.73719014 27.65128995 90.82299805 37.53100586 C90.8422509 39.46419174 90.8422509 39.46419174 90.8618927 41.43643188 C90.87006339 42.8421388 90.87750649 44.2478501 90.88427734 45.65356445 C90.88835287 46.36556377 90.8924284 47.0775631 90.89662743 47.81113815 C90.91746107 51.58331762 90.93177175 55.35546106 90.94116211 59.12768555 C90.95219238 63.00103251 90.98656002 66.8737996 91.02633381 70.74694252 C91.05263509 73.74462868 91.06086604 76.7421798 91.06444359 79.73997116 C91.06927852 81.16636424 91.08080298 82.59275256 91.09948158 84.01903152 C91.26329955 97.36237541 88.25555228 107.95045473 79.05615234 117.89575195 C71.73609921 124.64742449 63.1717081 128.268196 53.29199219 128.35400391 C51.3588063 128.37325676 51.3588063 128.37325676 49.38656616 128.39289856 C47.98085925 128.40106925 46.57514795 128.40851235 45.16943359 128.4152832 C44.45743427 128.41935873 43.74543495 128.42343426 43.01185989 128.42763329 C39.23968042 128.44846693 35.46753698 128.46277761 31.6953125 128.47216797 C27.82196553 128.48319824 23.94919844 128.51756588 20.07605553 128.55733967 C17.07836937 128.58364095 14.08081825 128.5918719 11.08302689 128.59544945 C9.65663381 128.60028438 8.23024549 128.61180884 6.80396652 128.63048744 C-6.53937736 128.79430541 -17.12745668 125.78655813 -27.07275391 116.5871582 C-33.82442645 109.26710506 -37.44519795 100.70271396 -37.53100586 90.82299805 C-37.54384109 89.53420746 -37.55667633 88.24541687 -37.56990051 86.91757202 C-37.5780712 85.51186511 -37.5855143 84.10615381 -37.59228516 82.70043945 C-37.59636068 81.98844013 -37.60043621 81.27644081 -37.60463524 80.54286575 C-37.62546888 76.77068628 -37.63977956 72.99854284 -37.64916992 69.22631836 C-37.6602002 65.35297139 -37.69456783 61.4802043 -37.73434162 57.60706139 C-37.76064291 54.60937522 -37.76887385 51.61182411 -37.7724514 48.61403275 C-37.77728633 47.18763967 -37.78881079 45.76125135 -37.8074894 44.33497238 C-37.97130736 30.9916285 -34.96356009 20.40354918 -25.76416016 10.45825195 C-18.44410702 3.70657941 -9.87971591 0.08580791 0 0 Z " fill="#0165B8" transform="translate(37.35400390625,-0.177001953125)"/>
<path d="M0 0 C1.93318588 -0.01925285 1.93318588 -0.01925285 3.90542603 -0.03889465 C5.31113294 -0.04706535 6.71684424 -0.05450844 8.12255859 -0.0612793 C9.19055758 -0.06739259 9.19055758 -0.06739259 10.28013229 -0.07362938 C14.05231176 -0.09446303 17.8244552 -0.1087737 21.59667969 -0.11816406 C25.47002665 -0.12919434 29.34279374 -0.16356197 33.21593666 -0.20333576 C36.21362282 -0.22963705 39.21117394 -0.23786799 42.2089653 -0.24144554 C43.63535838 -0.24628047 45.0617467 -0.25780493 46.48802567 -0.27648354 C59.83136955 -0.4403015 70.41944887 2.56744577 80.36474609 11.7668457 C87.11641864 19.08689884 90.73719014 27.65128995 90.82299805 37.53100586 C90.8422509 39.46419174 90.8422509 39.46419174 90.8618927 41.43643188 C90.87006339 42.8421388 90.87750649 44.2478501 90.88427734 45.65356445 C90.88835287 46.36556377 90.8924284 47.0775631 90.89662743 47.81113815 C90.91746107 51.58331762 90.93177175 55.35546106 90.94116211 59.12768555 C90.95219238 63.00103251 90.98656002 66.8737996 91.02633381 70.74694252 C91.05263509 73.74462868 91.06086604 76.7421798 91.06444359 79.73997116 C91.06927852 81.16636424 91.08080298 82.59275256 91.09948158 84.01903152 C91.26329955 97.36237541 88.25555228 107.95045473 79.05615234 117.89575195 C71.73609921 124.64742449 63.1717081 128.268196 53.29199219 128.35400391 C51.3588063 128.37325676 51.3588063 128.37325676 49.38656616 128.39289856 C47.98085925 128.40106925 46.57514795 128.40851235 45.16943359 128.4152832 C44.45743427 128.41935873 43.74543495 128.42343426 43.01185989 128.42763329 C39.23968042 128.44846693 35.46753698 128.46277761 31.6953125 128.47216797 C27.82196553 128.48319824 23.94919844 128.51756588 20.07605553 128.55733967 C17.07836937 128.58364095 14.08081825 128.5918719 11.08302689 128.59544945 C9.65663381 128.60028438 8.23024549 128.61180884 6.80396652 128.63048744 C-6.53937736 128.79430541 -17.12745668 125.78655813 -27.07275391 116.5871582 C-33.82442645 109.26710506 -37.44519795 100.70271396 -37.53100586 90.82299805 C-37.54384109 89.53420746 -37.55667633 88.24541687 -37.56990051 86.91757202 C-37.5780712 85.51186511 -37.5855143 84.10615381 -37.59228516 82.70043945 C-37.59636068 81.98844013 -37.60043621 81.27644081 -37.60463524 80.54286575 C-37.62546888 76.77068628 -37.63977956 72.99854284 -37.64916992 69.22631836 C-37.6602002 65.35297139 -37.69456783 61.4802043 -37.73434162 57.60706139 C-37.76064291 54.60937522 -37.76887385 51.61182411 -37.7724514 48.61403275 C-37.77728633 47.18763967 -37.78881079 45.76125135 -37.8074894 44.33497238 C-37.97130736 30.9916285 -34.96356009 20.40354918 -25.76416016 10.45825195 C-18.44410702 3.70657941 -9.87971591 0.08580791 0 0 Z M-25.29541016 16.43481445 C-32.46678221 25.98666283 -33.81522131 35.24101364 -33.75244141 46.98168945 C-33.75531158 48.18205841 -33.75818176 49.38242737 -33.76113892 50.61917114 C-33.76317043 53.14545161 -33.75770486 55.67174813 -33.74511719 58.19799805 C-33.72907996 62.03381091 -33.74498371 65.86856563 -33.76416016 69.7043457 C-33.76217701 72.17179591 -33.75833187 74.63924548 -33.75244141 77.10668945 C-33.7585141 78.23831512 -33.76458679 79.3699408 -33.77084351 80.53585815 C-33.66881937 92.27384952 -31.65022495 104.07761832 -23.63916016 113.1105957 C-13.15242551 123.08264399 -1.41691534 124.33064882 12.35302734 124.3449707 C13.47360031 124.3482991 14.59417328 124.3516275 15.748703 124.35505676 C18.11298209 124.36010528 20.47726826 124.36246573 22.84155273 124.36230469 C26.43599336 124.36448828 30.03012542 124.38265853 33.62451172 124.40161133 C35.92984922 124.40454635 38.23518817 124.40653042 40.54052734 124.4074707 C42.13632378 124.41824898 42.13632378 124.41824898 43.76435852 124.429245 C56.54911039 124.39059629 67.16247604 122.12392594 76.75537109 113.28637695 C86.1067972 102.85296766 86.95626017 90.50721592 86.98193359 77.1184082 C86.98859039 75.89347153 86.99524719 74.66853485 87.00210571 73.40647888 C87.01218195 70.8289438 87.0169243 68.25138289 87.01660156 65.67382812 C87.02097931 61.75452372 87.05736808 57.83634241 87.09521484 53.91723633 C87.10108329 51.4009641 87.1050525 48.88468657 87.10693359 46.3684082 C87.12130463 45.20974747 87.13567566 44.05108673 87.15048218 42.85731506 C87.08861615 31.71651866 84.18534466 22.91361787 76.92333984 14.4074707 C67.18686477 4.87140335 56.7884883 3.86357454 43.78662109 3.84106445 C42.43292098 3.83462403 41.07922222 3.82789478 39.7255249 3.82089233 C36.89462056 3.80895923 34.06383785 3.80520727 31.23291016 3.80639648 C27.63432776 3.80659918 24.03653949 3.77933207 20.43814468 3.74485207 C17.64284806 3.72243167 14.84773779 3.71856356 12.05236053 3.71961594 C10.09004339 3.71615858 8.12778441 3.6945903 6.16558838 3.67251587 C-6.23858477 3.73518807 -17.0122896 6.80172857 -25.29541016 16.43481445 Z " fill="#0A0B0C" transform="translate(37.35400390625,-0.177001953125)"/>
<path d="M0 0 C1.35084289 -0.0045734 2.70168346 -0.00988237 4.05252075 -0.0158844 C6.87153629 -0.02477114 9.69026788 -0.02244433 12.50927734 -0.01245117 C16.09215352 -0.00097736 19.67404169 -0.02116987 23.25678825 -0.05036831 C26.04352879 -0.06886432 28.83003848 -0.06841136 31.6168251 -0.06273079 C33.57025599 -0.06250629 35.52366564 -0.07927952 37.47702026 -0.09654236 C48.3402269 -0.01241931 57.40974765 2.24871914 65.87109375 9.3125 C75.48744903 19.14617404 77.2563325 28.98622333 77.24609375 42.1640625 C77.25037888 43.39087234 77.254664 44.61768219 77.25907898 45.88166809 C77.26480991 48.47294499 77.26533168 51.06423798 77.26098633 53.65551758 C77.25783715 57.59029105 77.28126513 61.52430431 77.30664062 65.45898438 C77.30891502 67.98567614 77.30961646 70.51236991 77.30859375 73.0390625 C77.3178035 74.20197311 77.32701324 75.36488373 77.33650208 76.56303406 C77.26693409 89.04618479 74.95938679 100.79385086 66.28125 110.24609375 C56.13391737 119.51306419 44.19354309 120.75008394 30.9453125 120.69921875 C29.82898438 120.7011322 28.71265625 120.70304565 27.5625 120.70501709 C25.21614352 120.70637038 22.86977934 120.70273419 20.5234375 120.69433594 C16.9555562 120.6836245 13.38817835 120.69426081 9.8203125 120.70703125 C7.52864473 120.7057095 5.23697728 120.7031468 2.9453125 120.69921875 C1.89085937 120.70326721 0.83640625 120.70731567 -0.25 120.71148682 C-12.17341622 120.63691782 -22.99831723 118.75819229 -32.1640625 110.54296875 C-42.10702466 99.75018076 -43.36679909 87.75494307 -43.35546875 73.55859375 C-43.35975388 72.35348145 -43.364039 71.14836914 -43.36845398 69.90673828 C-43.37416813 67.37207667 -43.37471919 64.83739868 -43.37036133 62.30273438 C-43.36719688 58.44502624 -43.39071416 54.5880826 -43.41601562 50.73046875 C-43.4182886 48.25651138 -43.41899212 45.78255196 -43.41796875 43.30859375 C-43.4271785 42.16664551 -43.43638824 41.02469727 -43.44587708 39.84814453 C-43.37992625 28.32695594 -40.83905113 19.1380604 -33.0546875 10.43359375 C-22.90738277 1.51067455 -13.19637468 -0.03037902 0 0 Z M-32.0546875 16.43359375 C-38.9409829 25.6882971 -39.38345561 34.67373098 -39.4609375 45.91796875 C-39.47233765 47.20995178 -39.48373779 48.50193481 -39.4954834 49.83306885 C-39.51638632 52.55962675 -39.52814758 55.28606879 -39.53515625 58.01269531 C-39.54610089 61.47363255 -39.59414442 64.93298626 -39.65110016 68.3934288 C-39.69774321 71.7349049 -39.70127601 75.07618479 -39.7109375 78.41796875 C-39.7356311 79.64336365 -39.76032471 80.86875854 -39.7857666 82.13128662 C-39.73297046 92.46249874 -36.66741868 100.72500777 -29.6796875 108.43359375 C-23.72756024 113.85664303 -16.98007263 116.53922221 -8.98193359 116.6105957 C-7.10385513 116.62984856 -7.10385513 116.62984856 -5.18783569 116.64949036 C-3.81793617 116.65766095 -2.44803215 116.66510407 -1.078125 116.671875 C-0.38602558 116.67595053 0.30607384 116.68002605 1.01914597 116.68422508 C4.68642628 116.70507605 8.35366935 116.71937877 12.02099609 116.72875977 C15.79022442 116.73978859 19.55885659 116.77414935 23.32787514 116.81393147 C26.24145525 116.84021497 29.15489624 116.84846217 32.06858444 116.85204124 C33.45672989 116.85688143 34.84487022 116.86842139 36.23289871 116.88707924 C47.81459309 117.03301347 55.63330345 115.27787914 64.15625 107.28125 C73.07254326 98.0729384 73.26116921 88.49709065 73.31640625 76.0703125 C73.32543472 74.80194046 73.3344632 73.53356842 73.34376526 72.22676086 C73.35822054 69.55312887 73.3679371 66.87992271 73.37084961 64.20629883 C73.37622527 60.81395368 73.41391169 57.42280375 73.45959377 54.0307951 C73.49684043 50.75237491 73.49789347 47.47391552 73.50390625 44.1953125 C73.52343857 42.99492844 73.54297089 41.79454437 73.56309509 40.55778503 C73.50764298 30.05381429 70.88222324 21.45883815 63.9453125 13.43359375 C61.93992198 11.70939683 61.93992198 11.70939683 59.7578125 10.30859375 C59.06300781 9.83164063 58.36820312 9.3546875 57.65234375 8.86328125 C49.52626387 4.57158538 42.04805694 3.98788915 32.94921875 4.03515625 C31.72049545 4.03228607 30.49177216 4.02941589 29.22581482 4.02645874 C26.63808733 4.02442539 24.05034421 4.02990396 21.46264648 4.04248047 C17.52357245 4.05852954 13.58552659 4.04261277 9.64648438 4.0234375 C7.12239359 4.02542033 4.59830344 4.02926482 2.07421875 4.03515625 C0.90725967 4.02908356 -0.2596994 4.02301086 -1.46202087 4.01675415 C-13.91815185 4.12274072 -23.56069514 6.85062801 -32.0546875 16.43359375 Z " fill="#487192" transform="translate(47.0546875,3.56640625)"/>
<path d="M0 0 C5.18387095 -0.66823336 9.82667582 -0.89741338 15 0 C18.25476142 2.52084463 19.99304808 5.537262 21.94433594 9.12841797 C23.60943317 12.08046131 25.50121568 14.87881949 27.36621094 17.70727539 C29.23420841 20.54584566 31.06330023 23.40827401 32.89013672 26.2734375 C33.90993914 27.85989652 34.95385702 29.43078553 36 31 C35.67695695 34.77185464 33.51988451 37.60101707 31.5078125 40.71875 C30.45013672 42.36423828 30.45013672 42.36423828 29.37109375 44.04296875 C29.00226074 44.61063965 28.63342773 45.17831055 28.25341797 45.76318359 C27.13086898 47.49096669 26.01591089 49.22344882 24.90234375 50.95703125 C22.9505124 53.98254761 20.99957223 57.00581343 19 60 C18.50121338 60.76989258 18.00242676 61.53978516 17.48852539 62.33300781 C16 64 16 64 12.42578125 64.390625 C11.05414252 64.3641199 9.68278062 64.3165309 8.3125 64.25 C7.61060547 64.23195313 6.90871094 64.21390625 6.18554688 64.1953125 C4.45644564 64.14826213 2.72804795 64.07651873 1 64 C5.17099317 56.04851038 10.15758327 48.77469059 15.35546875 41.46484375 C15.96777344 40.57410156 16.58007812 39.68335938 17.2109375 38.765625 C17.77087402 37.96930664 18.33081055 37.17298828 18.90771484 36.35253906 C20.32691959 33.29588798 20.13704743 32.1604663 19 29 C17.64326683 26.71981814 16.26751771 24.58487992 14.74609375 22.421875 C14.32578384 21.80983215 13.90547394 21.19778931 13.47242737 20.56719971 C12.13513004 18.62270054 10.78687479 16.6861327 9.4375 14.75 C8.08665683 12.79822233 6.73813907 10.84488276 5.39186096 8.88995361 C4.55475635 7.67584486 3.71460635 6.46382936 2.87120056 5.25408936 C0 1.11006642 0 1.11006642 0 0 Z " fill="#DFEDF9" transform="translate(36,32)"/>
<path d="M0 0 C4.6271018 4.22362539 7.8971767 9.02119398 11.3125 14.25 C12.13717773 15.49136719 12.13717773 15.49136719 12.97851562 16.7578125 C17 22.85248447 17 22.85248447 17 24 C11.81145248 24.6688362 7.17177348 24.94364012 2 24 C-1.83950679 20.94439251 -4.2728534 17.5937302 -6 13 C-5.71997492 7.25589572 -3.42838066 4.39535982 0 0 Z " fill="#DEECF7" transform="translate(77,72)"/>
<path d="M0 0 C1.39456452 0.00667256 2.78911118 0.01863093 4.18359375 0.03515625 C4.89451172 0.03966797 5.60542969 0.04417969 6.33789062 0.04882812 C8.09899388 0.06064761 9.86005411 0.07858362 11.62109375 0.09765625 C7.89998511 6.00491622 4.13754021 11.88473788 0.30859375 17.72265625 C-0.34753906 18.72554687 -1.00367187 19.7284375 -1.6796875 20.76171875 C-3.37890625 23.09765625 -3.37890625 23.09765625 -5.37890625 24.09765625 C-7.68890625 20.46765625 -9.99890625 16.83765625 -12.37890625 13.09765625 C-11.06779826 11.11755466 -9.75509289 9.13854588 -8.44140625 7.16015625 C-7.88163086 6.31420898 -7.88163086 6.31420898 -7.31054688 5.45117188 C-3.75953403 0.10865705 -3.75953403 0.10865705 0 0 Z " fill="#DDECF7" transform="translate(82.37890625,31.90234375)"/>
</svg>
