<?xml version="1.0" encoding="UTF-8"?>
<svg version="1.1" xmlns="http://www.w3.org/2000/svg" viewBox="0 0 64 64">
<path d="M0 0 C0.91517395 -0.00807175 1.8303479 -0.01614349 2.77325439 -0.02445984 C4.7134003 -0.03830504 6.65357061 -0.04902524 8.59375 -0.05688477 C11.55255748 -0.07407025 14.51023967 -0.11794882 17.46875 -0.16210938 C19.35415845 -0.17223876 21.23957641 -0.1807541 23.125 -0.1875 C24.00645691 -0.20500809 24.88791382 -0.22251617 25.79608154 -0.24055481 C31.31606657 -0.22119053 34.45282329 0.5536173 38.828125 4.23828125 C43.65319636 9.71538928 44.00701775 13.25843737 44.06640625 20.41015625 C44.074478 21.3253302 44.08254974 22.24050415 44.09086609 23.18341064 C44.10471129 25.12355655 44.11543149 27.06372686 44.12329102 29.00390625 C44.1404765 31.96271373 44.18435507 34.92039592 44.22851562 37.87890625 C44.23864501 39.7643147 44.24716035 41.64973266 44.25390625 43.53515625 C44.27141434 44.41661316 44.28892242 45.29807007 44.30696106 46.20623779 C44.28759678 51.72622282 43.51278895 54.86297954 39.828125 59.23828125 C34.35101697 64.06335261 30.80796888 64.417174 23.65625 64.4765625 C22.74107605 64.48463425 21.8259021 64.49270599 20.88299561 64.50102234 C18.9428497 64.51486754 17.00267939 64.52558774 15.0625 64.53344727 C12.10369252 64.55063275 9.14601033 64.59451132 6.1875 64.63867188 C4.30209155 64.64880126 2.41667359 64.6573166 0.53125 64.6640625 C-0.35020691 64.68157059 -1.23166382 64.69907867 -2.13983154 64.71711731 C-7.65981657 64.69775303 -10.79657329 63.9229452 -15.171875 60.23828125 C-19.99694636 54.76117322 -20.35076775 51.21812513 -20.41015625 44.06640625 C-20.418228 43.1512323 -20.42629974 42.23605835 -20.43461609 41.29315186 C-20.44846129 39.35300595 -20.45918149 37.41283564 -20.46704102 35.47265625 C-20.4842265 32.51384877 -20.52810507 29.55616658 -20.57226562 26.59765625 C-20.58239501 24.7122478 -20.59091035 22.82682984 -20.59765625 20.94140625 C-20.61516434 20.05994934 -20.63267242 19.17849243 -20.65071106 18.27032471 C-20.63134678 12.75033968 -19.85653895 9.61358296 -16.171875 5.23828125 C-10.69476697 0.41320989 -7.15171888 0.0593885 0 0 Z " fill="#020202" transform="translate(20.171875,-0.23828125)"/>
<path d="M0 0 C5.67912356 0.23180096 8.45613773 1.7044897 12.71484375 5.4296875 C14 7 14 7 14 10 C10.58315917 10.41838867 8.00642428 10.59452863 4.9765625 8.8046875 C3.09306766 7.27482842 1.46352418 5.93950317 0 4 C0 2.68 0 1.36 0 0 Z " fill="#E9E9E9" transform="translate(27,45)"/>
<path d="M0 0 C2.88302028 0.19220135 3.83378212 0.81003671 5.75 3 C7.4428059 7.06273416 7.25533894 10.65923807 7 15 C3.2109375 14.1875 3.2109375 14.1875 1.3125 12.5 C-0.59793765 8.86107115 -0.96681607 5.08991921 -1 1 C-0.67 0.67 -0.34 0.34 0 0 Z " fill="#E8E8E8" transform="translate(38,9)"/>
<path d="M0 0 C0.64974692 5.19797535 -0.87602199 8.08614674 -3.515625 12.36328125 C-5.27159216 14.29946609 -6.4528801 14.62446309 -9 15 C-9.71438696 8.21332388 -9.71438696 8.21332388 -7.76953125 4.91015625 C-3.70283742 0 -3.70283742 0 0 0 Z " fill="#EBEBEB" transform="translate(20,32)"/>
<path d="M0 0 C5.67276511 -0.29341888 8.99067246 -0.00559652 14 3 C14 4.32 14 5.64 14 7 C3.44191344 7.55353075 3.44191344 7.55353075 -1 4 C-0.67 2.68 -0.34 1.36 0 0 Z " fill="#EDEDED" transform="translate(13,15)"/>
<path d="M0 0 C-0.32945919 2.9651327 -0.84903155 4.78260543 -2.5625 7.25 C-6.0223361 9.73398489 -8.77692253 9.7184615 -13 10 C-12.70179167 6.42150008 -12.25754642 5.23773516 -9.5625 2.75 C-6.00921871 0.32336888 -4.26814092 -0.1123195 0 0 Z " fill="#F1F1F1" transform="translate(56,31)"/>
</svg>
