<?xml version="1.0" encoding="UTF-8"?>
<!DOCTYPE svg PUBLIC "-//W3C//DTD SVG 1.1//EN" "http://www.w3.org/Graphics/SVG/1.1/DTD/svg11.dtd">
<svg xmlns="http://www.w3.org/2000/svg" version="1.1" width="296px" height="296px" style="shape-rendering:geometricPrecision; text-rendering:geometricPrecision; image-rendering:optimizeQuality; fill-rule:evenodd; clip-rule:evenodd" xmlns:xlink="http://www.w3.org/1999/xlink">
<g><path style="opacity:1" fill="#eaeaf0" d="M 130.5,-0.5 C 141.833,-0.5 153.167,-0.5 164.5,-0.5C 206.802,5.1385 241.302,25.4718 268,60.5C 270.038,63.2432 271.538,66.2432 272.5,69.5C 272.75,71.674 273.75,73.3406 275.5,74.5C 276.338,74.8417 276.672,75.5084 276.5,76.5C 276.626,78.6216 277.293,79.6216 278.5,79.5C 280.728,80.3218 281.395,81.6552 280.5,83.5C 280.968,85.1338 281.968,86.3005 283.5,87C 282.944,87.3826 282.611,87.8826 282.5,88.5C 282.259,91.0336 283.259,92.7002 285.5,93.5C 285.5,93.8333 285.5,94.1667 285.5,94.5C 284.903,94.7352 284.57,95.2352 284.5,96C 302.995,156.02 289.995,208.02 245.5,252C 202.472,288.584 153.805,298.584 99.5,282C 85.0882,276.631 71.7548,269.464 59.5,260.5C 12.9018,221.382 -5.43152,171.715 4.5,111.5C 3.49367,110.604 3.49367,109.938 4.5,109.5C 5.11742,109.611 5.61742,109.944 6,110.5C 7.50404,105.148 9.00404,99.8149 10.5,94.5C 12.1472,90.5763 13.8139,86.5763 15.5,82.5C 18.0078,78.8178 20.0078,74.8178 21.5,70.5C 21.5,70.1667 21.5,69.8333 21.5,69.5C 22.8333,69.5 23.5,68.8333 23.5,67.5C 23.8449,64.8021 25.1782,62.8021 27.5,61.5C 28.9063,61.0269 29.573,60.0269 29.5,58.5C 31.1054,57.9941 31.4387,57.3274 30.5,56.5C 56.091,24.0345 89.4244,5.03454 130.5,-0.5 Z"/></g>
<g><path style="opacity:1" fill="#bdbdbd" d="M 131.5,13.5 C 187.556,10.1107 230.723,31.7774 261,78.5C 284.24,122.465 284.24,166.465 261,210.5C 231.022,257.073 188.189,278.573 132.5,275C 80.1385,266.964 43.9719,238.464 24,189.5C 7.12818,134.168 19.2948,86.3347 60.5,46C 81.2375,28.6291 104.904,17.7958 131.5,13.5 Z"/></g>
<g><path style="opacity:1" fill="#010101" d="M 132.5,19.5 C 188.93,16.1863 231.097,38.853 259,87.5C 280.117,134.831 275.451,179.498 245,221.5C 211.582,259.642 169.748,274.142 119.5,265C 66.7215,249.89 35.2215,215.39 25,161.5C 19.5977,107.143 39.7644,65.3092 85.5,36C 100.394,27.873 116.061,22.373 132.5,19.5 Z"/></g>
<g><path style="opacity:1" fill="#3a3a3a" d="M 30.5,56.5 C 31.4387,57.3274 31.1054,57.9941 29.5,58.5C 29.3284,57.5084 29.6618,56.8417 30.5,56.5 Z"/></g>
<g><path style="opacity:1" fill="#464646" d="M 29.5,58.5 C 29.573,60.0269 28.9063,61.0269 27.5,61.5C 27.2852,59.8212 27.9519,58.8212 29.5,58.5 Z"/></g>
<g><path style="opacity:1" fill="#151515" d="M 23.5,67.5 C 23.5,68.8333 22.8333,69.5 21.5,69.5C 21.5,68.1667 22.1667,67.5 23.5,67.5 Z"/></g>
<g><path style="opacity:1" fill="#797a7a" d="M 272.5,69.5 C 273.931,70.4458 275.264,71.6125 276.5,73C 275.944,73.3826 275.611,73.8826 275.5,74.5C 273.75,73.3406 272.75,71.674 272.5,69.5 Z"/></g>
<g><path style="opacity:1" fill="#0d0d0d" d="M 276.5,76.5 C 277.906,76.9731 278.573,77.9731 278.5,79.5C 277.293,79.6216 276.626,78.6216 276.5,76.5 Z"/></g>
<g><path style="opacity:1" fill="#585858" d="M 21.5,70.5 C 20.0078,74.8178 18.0078,78.8178 15.5,82.5C 15.5,82.1667 15.5,81.8333 15.5,81.5C 16.7219,77.3881 18.7219,73.7214 21.5,70.5 Z"/></g>
<g><path style="opacity:1" fill="#131313" d="M 15.5,81.5 C 15.5,81.8333 15.5,82.1667 15.5,82.5C 13.8139,86.5763 12.1472,90.5763 10.5,94.5C 10.5,93.5 10.5,92.5 10.5,91.5C 11.6589,87.8487 13.3256,84.5154 15.5,81.5 Z"/></g>
<g><path style="opacity:1" fill="#f6f6f6" d="M 145.5,86.5 C 148.505,86.253 151.005,87.253 153,89.5C 166.414,113.33 180.081,136.997 194,160.5C 195.494,168.338 192.994,174.505 186.5,179C 161.229,180.638 135.896,180.972 110.5,180C 101.699,175.227 98.8656,168.06 102,158.5C 115.586,135.664 128.919,112.664 142,89.5C 143.145,88.3636 144.312,87.3636 145.5,86.5 Z"/></g>
<g><path style="opacity:1" fill="#242424" d="M 282.5,88.5 C 284.25,89.6594 285.25,91.326 285.5,93.5C 283.259,92.7002 282.259,91.0336 282.5,88.5 Z"/></g>
<g><path style="opacity:1" fill="#5e5e5e" d="M 10.5,91.5 C 10.5,92.5 10.5,93.5 10.5,94.5C 9.00404,99.8149 7.50404,105.148 6,110.5C 5.61742,109.944 5.11742,109.611 4.5,109.5C 5.59178,103.106 7.59178,97.1055 10.5,91.5 Z"/></g>
<g><path style="opacity:1" fill="#060606" d="M 140.5,112.5 C 141.497,131.326 141.83,150.326 141.5,169.5C 132.494,169.666 123.494,169.5 114.5,169C 113.196,168.196 112.529,167.029 112.5,165.5C 121.823,147.84 131.156,130.173 140.5,112.5 Z"/></g>
<g><path style="opacity:1" fill="#060606" d="M 154.5,112.5 C 163.844,130.173 173.177,147.84 182.5,165.5C 182.471,167.029 181.804,168.196 180.5,169C 171.506,169.5 162.506,169.666 153.5,169.5C 153.17,150.326 153.503,131.326 154.5,112.5 Z"/></g>
<g><path style="opacity:1" fill="#c0c0c0" d="M 140.5,112.5 C 140.56,111.957 140.893,111.624 141.5,111.5C 142.828,130.996 142.828,150.329 141.5,169.5C 141.83,150.326 141.497,131.326 140.5,112.5 Z"/></g>
<g><path style="opacity:1" fill="#c6c6c6" d="M 154.5,112.5 C 153.503,131.326 153.17,150.326 153.5,169.5C 152.172,150.329 152.172,130.996 153.5,111.5C 154.107,111.624 154.44,111.957 154.5,112.5 Z"/></g>
<g><path style="opacity:1" fill="#212121" d="M 4.5,111.5 C -5.43152,171.715 12.9018,221.382 59.5,260.5C 57.002,261.082 54.6687,261.082 52.5,260.5C 50.8089,259.136 49.1423,257.803 47.5,256.5C 47.5,255.167 46.8333,254.5 45.5,254.5C 28.757,238.682 16.257,220.016 8,198.5C 6.64095,194.595 5.80762,190.595 5.5,186.5C 5.74061,184.102 5.07394,182.102 3.5,180.5C 1.73373,173.235 0.400399,165.901 -0.5,158.5C -0.5,151.167 -0.5,143.833 -0.5,136.5C 0.198181,133.103 0.864848,129.603 1.5,126C 1.16667,125.667 0.833333,125.333 0.5,125C 1.52824,120.318 2.86157,115.818 4.5,111.5 Z"/></g>
<g><path style="opacity:1" fill="#9a9a9a" d="M 3.5,180.5 C 5.07394,182.102 5.74061,184.102 5.5,186.5C 4.26162,184.786 3.59495,182.786 3.5,180.5 Z"/></g>
<g><path style="opacity:1" fill="#b9b9b9" d="M 45.5,254.5 C 46.8333,254.5 47.5,255.167 47.5,256.5C 46.5,256.167 45.8333,255.5 45.5,254.5 Z"/></g>
<g><path style="opacity:1" fill="#161616" d="M 285.5,94.5 C 287.232,98.5474 288.899,102.714 290.5,107C 290.014,109.728 290.68,112.395 292.5,115C 292.167,115.333 291.833,115.667 291.5,116C 292.977,121.898 294.311,127.731 295.5,133.5C 295.5,133.833 295.5,134.167 295.5,134.5C 294.167,134.833 294.167,135.167 295.5,135.5C 295.5,143.167 295.5,150.833 295.5,158.5C 294.167,158.833 294.167,159.167 295.5,159.5C 295.5,159.833 295.5,160.167 295.5,160.5C 290.281,206.703 267.614,244.036 227.5,272.5C 206.47,284.786 183.47,292.452 158.5,295.5C 152.167,295.5 145.833,295.5 139.5,295.5C 139.167,294.167 138.833,294.167 138.5,295.5C 138.167,295.5 137.833,295.5 137.5,295.5C 117.858,293.575 98.8575,288.242 80.5,279.5C 80.0269,278.094 79.0269,277.427 77.5,277.5C 75.1667,276.167 72.8333,274.833 70.5,273.5C 70.0269,272.094 69.0269,271.427 67.5,271.5C 61.929,268.554 56.929,264.888 52.5,260.5C 54.6687,261.082 57.002,261.082 59.5,260.5C 71.7548,269.464 85.0882,276.631 99.5,282C 153.805,298.584 202.472,288.584 245.5,252C 289.995,208.02 302.995,156.02 284.5,96C 284.57,95.2352 284.903,94.7352 285.5,94.5 Z"/></g>
<g><path style="opacity:1" fill="#dcdcdc" d="M 67.5,271.5 C 69.0269,271.427 70.0269,272.094 70.5,273.5C 68.9731,273.573 67.9731,272.906 67.5,271.5 Z"/></g>
<g><path style="opacity:1" fill="#dcdcdc" d="M 77.5,277.5 C 79.0269,277.427 80.0269,278.094 80.5,279.5C 78.9731,279.573 77.9731,278.906 77.5,277.5 Z"/></g>
</svg>
