<svg viewBox="0 0 40 40" fill="none" xmlns="http://www.w3.org/2000/svg">
<rect width="40" height="40" rx="8" fill="#0043B1"/>
<path d="M22.4382 13.925C22.3218 14.1291 22.0452 14.1874 21.8124 14.2895C21.8124 14.3916 21.8851 14.4353 21.8997 14.5228H22.4528C22.5837 14.4207 22.642 14.2458 22.7729 14.1437C22.9476 14.1583 23.0786 14.202 23.2387 14.2166V14.552C23.4715 14.6249 23.6899 14.7999 23.5152 15.0769C23.719 15.281 23.9518 15.0915 24.1265 14.9894C24.3011 14.8582 24.5049 14.7707 24.7232 14.7561C24.796 14.829 24.7232 14.9457 24.7377 15.0769C24.9269 15.1206 25.1744 14.9602 25.0288 14.7561C25.3636 14.6686 25.5964 14.3916 26.0185 14.4499C26.0913 14.5957 26.0331 14.7707 25.8875 14.8436C25.873 14.8436 25.8584 14.8582 25.8584 14.8582C25.8875 14.9165 25.9166 14.9748 25.9312 15.0332C26.1786 15.1352 26.3532 14.9311 26.5279 14.9019C26.7899 14.8728 27.0373 15.0477 27.2847 15.1061C27.2556 15.2665 27.0955 15.281 26.9645 15.3394C26.9936 15.3977 27.0809 15.3977 27.1101 15.4414C27.372 15.2665 27.7213 15.2373 28.0124 15.3685C27.8523 15.5435 27.6049 15.631 27.372 15.5872C27.3138 15.7039 27.1537 15.7914 27.2119 15.9664C27.3429 15.9809 27.503 15.7914 27.7213 15.7476C28.0561 15.6747 28.4927 15.6747 28.6237 15.8934C28.6091 15.9664 28.5509 15.9955 28.5364 16.0538C28.4345 16.0101 28.3326 15.9809 28.2307 15.9226C28.0852 15.9809 27.9542 16.0393 27.8232 16.0976C27.6922 16.2726 27.5758 16.4621 27.4594 16.6517C27.5758 16.7683 27.9542 16.885 28.0852 16.71C28.0415 16.4621 28.2016 16.2288 28.449 16.1851C28.5364 16.1559 28.58 16.3163 28.6673 16.3455C28.6528 16.4475 28.5072 16.433 28.4636 16.5204C28.7692 16.6371 28.8129 16.3163 29.0166 16.2288C29.0894 16.2871 29.1913 16.3163 29.2495 16.3746C29.2495 16.6371 28.9584 16.5934 28.9439 16.8412C29.2932 17.0745 29.7298 16.7537 29.8026 16.433C30.1082 16.433 30.181 16.71 30.1082 16.987C30.0354 17.0016 29.9626 17.0308 29.8899 17.06C29.9335 17.3807 30.1519 17.5557 30.5303 17.4682V17.2495C30.7922 17.1474 31.1415 16.9725 31.4472 17.162C31.3744 17.3516 31.1415 17.5266 31.0105 17.7015C31.2871 17.7744 31.5636 17.8619 31.8401 17.9786V18.1535C31.6655 18.1827 31.3598 18.2119 31.3307 18.0223C31.2289 18.0223 31.127 18.0223 31.0251 18.0369C30.9232 18.1827 31.0105 18.2556 31.0396 18.416C30.865 18.4743 30.7195 18.5618 30.5594 18.6347C30.5594 18.7076 30.603 18.7805 30.5739 18.8097C30.4429 18.868 30.2974 18.8972 30.2828 19.0868C30.5011 19.1305 30.734 19.0722 30.8941 18.9264C31.0542 18.8243 31.1997 18.7368 31.2143 18.5327C31.3744 18.5618 31.5781 18.5472 31.7382 18.591C31.8983 18.5035 32.0584 18.416 32.204 18.3139C32.2767 18.3577 32.3641 18.4014 32.4368 18.4452C32.3495 18.5327 32.204 18.5618 32.1312 18.6639C32.3059 18.9409 33.0481 18.4743 33.0481 18.9847C32.888 19.0138 32.7279 19.043 32.5678 19.0576C32.626 19.2617 32.8735 19.2763 33.0336 19.3784C33.4411 19.2326 33.9068 19.3346 34.1979 19.6554C34.096 19.7137 33.9796 19.7575 33.8631 19.7867C34.0523 19.8304 34.2852 19.845 34.4744 19.8741C34.5326 20.0054 34.6199 20.0929 34.6782 20.2387C34.5617 20.3262 34.4016 20.3553 34.4453 20.6032C34.358 20.5595 34.2852 20.5303 34.1979 20.5157C34.1397 20.5886 34.1106 20.7053 34.0232 20.749C33.7176 20.7782 33.6594 20.574 33.5138 20.4282C33.5575 20.3407 33.6303 20.2678 33.6739 20.1949C33.5575 20.1512 33.4411 20.122 33.3101 20.1074C33.2373 20.1803 33.2228 20.3116 33.1645 20.3991C33.2228 20.5157 33.2228 20.6324 33.2664 20.7199C33.3829 20.924 33.6739 20.9969 33.6012 21.3031C33.4702 21.3323 33.3392 21.3614 33.2082 21.376C33.1645 21.3177 33.0918 21.2739 33.1209 21.1427C33.0336 21.1281 32.9899 21.0698 32.8735 21.0844C32.7716 21.2594 32.7861 21.4198 32.5678 21.3906C32.335 21.3614 32.3059 21.0261 32.204 20.8511C32.1021 20.9094 32.0148 20.9969 31.9274 21.0844C31.942 21.1573 31.9711 21.2302 32.0148 21.3031C31.68 21.3468 31.3307 21.2302 31.0979 21.3906C31.0251 21.4635 30.996 21.5947 30.9232 21.6676C30.7195 21.6822 30.5157 21.6239 30.3411 21.5072C30.3993 21.4489 30.472 21.4052 30.5448 21.376C30.5448 21.2594 30.5594 21.1427 30.5739 21.0406C30.5157 20.9094 30.3847 20.8657 30.3265 20.749C30.1518 20.9969 29.6425 21.3614 29.5697 20.7636C29.4096 20.7053 29.2786 20.8802 29.1185 20.9094C28.8129 20.9532 28.5364 20.7928 28.2744 20.9094C28.0561 21.0115 28.027 21.2302 27.8086 21.3177C27.7795 21.5218 27.6049 21.6822 27.4011 21.6968C27.2701 21.7114 27.1392 21.6093 26.9936 21.6676C26.8044 21.726 26.6589 21.9301 26.4697 22.0613C26.2659 22.2509 26.0039 22.3821 25.7274 22.4404C25.4509 22.4696 25.1889 22.3967 24.8396 22.4404C24.5776 22.4696 24.4321 22.7029 24.1701 22.8487C23.7044 23.1112 23.0786 23.1112 22.6711 23.2862C22.5255 23.5778 22.4673 23.9132 22.511 24.2339C22.5255 24.3069 22.5692 24.3798 22.5837 24.4672C22.642 24.7735 22.5983 24.9193 22.9185 24.9484C23.6462 25.0359 24.5049 24.963 25.2617 25.0213C25.9894 25.0797 26.819 25.0797 27.5467 25.1234C29.8026 25.2984 32.0584 25.4442 34.1833 25.7212C34.8819 25.7796 35.566 25.8962 36.25 26.042C35.857 26.0566 35.4641 26.042 35.0857 25.9691C33.0044 25.7796 30.8213 25.6629 28.6237 25.5754C20.91 25.2692 12.4541 25.415 5.22075 26.0858C5.24986 25.9983 5.36629 26.0129 5.43906 25.9983C6.66161 25.7796 7.97147 25.6629 9.28133 25.5317C11.1297 25.3567 13.0072 25.1963 14.9283 25.0942C15.3067 25.0797 15.7433 25.0651 16.1363 25.0359C17.0095 24.963 18.0283 24.9484 18.887 24.8318C19.0617 24.8026 19.3236 24.7297 19.3382 24.5547C19.3527 24.4672 19.3091 24.336 19.3091 24.1902C19.3091 23.9715 19.3819 23.7528 19.3236 23.5924C19.2363 23.3591 18.7269 23.2716 18.5523 23.1112C18.2466 23.0966 17.9847 23.2133 17.6645 23.1987C17.4462 23.1841 17.2278 23.0674 17.0241 23.0674C16.7621 23.0674 16.5147 23.2133 16.2527 23.2133C15.918 23.2133 15.5832 23.1695 15.2485 23.1549C14.9429 23.1403 14.6518 23.1258 14.3461 23.082C14.0405 23.0383 13.7203 22.8779 13.4001 22.8487C13.0799 22.8196 12.7598 22.9362 12.425 22.8779C12.2213 22.8487 12.0321 22.63 11.8137 22.5863C11.5081 22.5571 11.2025 22.5717 10.8968 22.6154C10.6494 22.6883 10.4893 23.0091 10.1546 23.0529C9.76162 23.1112 9.49965 22.9508 9.15035 22.8196C9.04847 22.8779 9.00481 22.9654 8.91748 23.0383C8.45175 22.98 8.49542 22.3821 7.91325 22.4259C7.66584 22.4404 7.52029 22.63 7.28743 22.7029L6.90902 22.455C7.05456 21.7697 6.25409 21.9593 6.07944 22.2363V22.5717C5.94846 22.5863 5.77381 22.4842 5.64282 22.4988C5.57005 22.5134 5.48273 22.6154 5.36629 22.6446C5.08977 22.7029 4.50761 22.63 4.46394 22.4259C4.40573 22.1488 4.76958 22.1342 4.76958 21.8864C4.76958 21.7114 4.56582 21.7551 4.6677 21.551C4.44939 21.5802 4.23108 21.5364 4.05643 21.4052C4.17286 21.2156 4.3184 21.0406 4.49305 20.8948C4.39117 20.7636 4.07098 20.8511 3.88178 20.8073C3.76535 20.5886 3.91089 20.4428 4.01277 20.297C3.92544 20.1949 3.73624 20.1658 3.75079 19.9908C3.75079 19.8158 4.05643 19.7721 4.23108 19.67C4.39117 19.5534 4.52216 19.4075 4.62404 19.2326C4.78413 19.2909 4.94423 19.218 5.017 19.0722C5.17709 19.1013 5.29352 19.1451 5.45362 19.1742C5.48273 19.1159 5.3954 19.043 5.38085 18.9701C5.43906 18.8534 5.52639 18.7514 5.62827 18.6785C5.73015 18.766 5.87569 18.8243 5.96301 18.9118C6.13766 18.8243 6.34142 18.8389 6.48696 18.9701C6.6325 18.8972 6.74893 18.8097 6.89447 18.7368C6.79259 18.6347 6.64705 18.5472 6.69071 18.3431C6.76348 17.9932 7.57851 18.1535 7.98602 17.964C8.11701 17.9057 8.14612 17.789 8.23344 17.7161C8.4372 17.6869 8.65551 17.6869 8.85927 17.7307C9.01936 17.6286 9.1649 17.512 9.31044 17.3953C9.23767 17.2933 9.13579 17.3078 9.00481 17.337C9.04847 17.2641 9.07758 17.1912 9.10669 17.1183C9.38321 17.1183 9.65974 17.0454 9.89261 16.8996C9.77617 17.0745 9.74706 17.2933 9.81984 17.4974C10.0236 17.4245 10.2128 17.3224 10.4166 17.2495C10.4166 17.162 10.2856 17.0745 10.1982 17.0162V16.7246C10.3583 16.6225 10.6349 16.6225 10.8095 16.4038C10.9259 16.258 10.9551 16.0393 11.1734 16.0684C11.348 16.083 11.4062 16.258 11.3917 16.5204H11.7701C11.741 17.06 10.8532 16.4184 10.8823 17.0016C11.217 17.1912 11.6536 17.1474 11.9447 16.8996C12.1485 16.9287 12.3813 16.9141 12.5706 16.9579C12.6433 16.9141 12.7015 16.8704 12.7452 16.7975C12.4541 16.6808 12.0903 16.6225 11.9738 16.3309C12.0903 16.3163 12.2067 16.3017 12.2504 16.1997C12.2649 16.083 12.0903 16.1559 12.0757 16.0684C12.1048 15.9372 12.2358 15.908 12.3231 15.8497C12.3377 15.5435 11.9011 15.631 11.7264 15.7039C11.3335 15.5581 11.7119 14.9019 12.0466 15.004C12.1776 15.0332 12.1776 15.2227 12.2213 15.3685C12.3522 15.2956 12.4541 15.179 12.5851 15.0915C12.9781 15.1644 12.7015 15.5143 12.6142 15.7185C12.7598 15.7039 12.9198 15.6747 13.0654 15.6456C13.0072 15.5435 12.9781 15.4268 12.9926 15.3102C13.1236 15.2227 13.2837 15.179 13.4438 15.179C13.5457 15.1352 13.6039 15.0332 13.6476 14.9165C13.895 15.0769 14.0987 15.281 14.3461 15.4414C14.3607 15.5289 14.3316 15.6456 14.3607 15.6893C14.448 15.7039 14.5353 15.6893 14.6081 15.6601C14.71 15.7331 14.8119 15.8205 14.9138 15.908C15.0156 15.8497 15.103 15.7914 15.2048 15.7476C15.1175 15.5727 15.0156 15.4123 14.9138 15.2665C14.7537 15.2373 14.6372 15.179 14.4771 15.1352C14.3753 14.9748 14.2588 14.8144 14.1133 14.6686H13.7494C13.7931 14.5374 13.8513 14.4207 13.9095 14.2895C14.1424 14.4062 14.6663 14.2312 14.7391 14.5082C14.972 14.4936 15.2922 14.552 15.4231 14.4353C15.4231 14.2458 15.2631 14.202 15.2922 13.9833C15.4377 13.9104 15.6123 13.8958 15.7724 13.925C15.8452 14.0125 15.787 14.0854 15.787 14.202C15.9762 14.2749 16.471 14.1145 16.4274 14.3478C16.4128 14.4791 16.2527 14.4062 16.1217 14.4499C16.1072 14.5811 16.2236 14.5666 16.2236 14.6832C16.0781 14.8582 16.1217 15.179 16.1508 15.456C16.2382 15.456 16.3837 15.3539 16.5147 15.3248C16.3255 15.0623 16.471 14.8144 16.5438 14.5082H16.9222C17.0241 14.3333 17.0241 14.0416 17.2424 13.9833C17.4025 14.0416 17.5189 14.1583 17.679 14.2166C17.5626 14.4353 17.3588 14.5811 17.2278 14.7999C17.5044 15.1352 18.0574 14.7269 18.203 14.5228C18.1448 14.4353 18.0138 14.4207 17.9556 14.3478C18.0865 14.0416 18.5959 14.2603 18.8433 14.3333C18.9889 14.2603 19.0762 14.1291 19.2218 14.0562C19.3818 14.1729 19.5711 14.2458 19.7603 14.2603C19.7748 14.377 19.7603 14.4936 19.7311 14.5957C20.0077 14.6249 19.9931 14.377 20.1678 14.3041C20.3861 14.4353 20.6335 14.4791 20.8664 14.4353C20.9537 14.2458 20.7936 14.1437 20.6626 14.1145C20.8809 13.9833 21.1138 13.8667 21.3466 13.75C21.4631 13.7937 21.5795 13.8521 21.6814 13.925C21.8997 13.9104 22.2636 13.7792 22.4382 13.925ZM21.9579 14.9602C21.9434 15.1644 21.7833 15.1935 21.6668 15.2956C21.9579 15.5143 22.5983 15.4123 22.7293 15.1352C22.6565 14.9602 22.6711 14.6978 22.4819 14.654C22.38 14.8436 22.2636 15.0332 21.9579 14.9602ZM19.0762 14.7124C19.0034 14.7999 18.9016 14.8728 18.7997 14.9311C18.6833 14.8728 18.5668 14.7999 18.4649 14.7269C18.3631 14.8582 18.1448 14.9457 18.2903 15.179C18.5232 15.1935 18.7269 15.2373 18.9598 15.2519C19.1053 15.1352 19.3091 15.0623 19.3527 14.8582C19.2509 14.8144 19.2072 14.7124 19.0762 14.7124ZM13.2983 16.1705C13.371 16.2142 13.4438 16.2434 13.5166 16.3017C13.6476 16.258 13.7494 16.1705 13.8368 16.0684C13.8076 15.8351 13.4875 15.7914 13.3274 15.7476C13.3419 15.8789 13.3419 16.0247 13.2983 16.1705ZM15.3795 16.1122C15.4086 16.1559 15.4377 16.2142 15.4668 16.258C15.4086 16.2871 15.3358 16.3017 15.3213 16.3892C15.2631 16.7975 14.7682 16.7392 14.3898 16.6808V16.8412C14.6081 16.9287 14.841 17.0016 15.0593 17.0891C15.1321 16.9579 15.2339 16.8412 15.3358 16.7246C15.4377 16.7537 15.5396 16.7829 15.6415 16.7975C15.6269 16.71 15.6415 16.6225 15.656 16.5496C16.1217 16.5204 16.5875 16.4767 16.6457 16.0393C16.5729 15.806 16.1072 15.631 16.1072 16.0393C15.9325 15.9372 15.787 15.806 15.6123 15.7185C15.5396 15.8497 15.4377 15.9664 15.3795 16.1122ZM19.28 15.8934C19.1199 15.9809 18.9598 16.0684 18.7997 16.1267C18.756 16.258 18.6833 16.3455 18.6396 16.4913C18.756 16.6517 18.9016 16.7829 19.018 16.9433C18.9598 17.162 18.8725 17.3662 18.7706 17.5557C18.9889 17.5411 19.0762 17.6432 19.2363 17.6869C19.3382 17.5266 19.5856 17.4536 19.5274 17.2058C19.6584 17.162 19.8185 17.06 19.8039 16.9141C19.6875 16.8412 19.5274 17.0308 19.4255 16.9141C19.4255 16.71 19.5856 16.6663 19.6438 16.5204C19.6147 16.3746 19.6002 16.2288 19.5856 16.083C19.4692 16.0247 19.3818 15.9518 19.28 15.8934ZM23.4133 16.5934C23.4424 16.7246 23.4861 16.8267 23.5006 16.9725C23.3697 17.0745 23.2241 17.1766 23.064 17.2641C23.195 17.4974 23.3697 17.6869 23.5152 17.9202C23.6316 17.9348 23.7626 17.964 23.8791 18.0077C24.141 17.8765 24.3884 17.7161 24.403 17.3224C24.3011 17.162 24.0974 17.0891 23.9082 17.1766V16.6954C23.7626 16.6225 23.6025 16.4475 23.4133 16.5934ZM25.1453 17.0454C25.1744 16.7392 24.665 16.7246 24.5922 16.9579C24.6359 16.987 24.6941 17.0016 24.7232 17.0454C24.6504 17.1037 24.5922 17.162 24.5485 17.2203C24.5776 17.2787 24.6213 17.3224 24.6359 17.3807C25.0288 17.4828 25.5237 17.4974 25.6983 17.1766C25.4946 17.162 25.3199 17.1183 25.1453 17.0454ZM17.2861 17.7744C17.1987 17.6869 17.1114 17.5849 17.0386 17.4828C16.9513 17.4974 16.9222 17.5703 16.8349 17.5849C16.9659 17.7015 17.1551 18.0952 16.9077 18.139C16.6748 18.1973 16.5584 17.8911 16.3692 17.8328C16.3109 17.9348 16.18 17.9786 16.1363 18.1098C16.2236 18.1535 16.3255 18.1973 16.4128 18.2556C16.3692 18.3431 16.2673 18.3723 16.2382 18.4743C16.4565 18.5764 16.7039 18.591 16.9368 18.5472C16.9222 18.6493 16.9077 18.766 16.9077 18.868C16.9513 18.9264 17.0241 18.9409 17.0678 18.9993C17.3879 18.6785 18.1593 18.8097 18.4504 18.4598C18.334 18.416 18.2321 18.3285 18.1448 18.241C18.3048 18.139 18.5086 18.0952 18.5814 17.9057C18.4213 17.8328 18.1011 17.8911 17.8828 17.8765C17.8537 17.789 17.8391 17.7161 17.8246 17.6286C18.0429 17.5995 18.072 17.2787 18.0429 17.0454C17.5771 17.0745 17.4607 17.4536 17.2861 17.7744ZM13.1091 17.5849C13.1382 17.337 12.5269 17.2495 12.294 17.3807C12.3522 17.4974 12.425 17.614 12.5123 17.7161C12.7452 17.7161 13.0799 17.7599 13.1091 17.5849ZM27.9833 17.9494C28.0997 18.0806 28.2162 18.2265 28.318 18.3577C28.4636 18.2848 28.4781 18.1244 28.6528 18.1098C28.8274 18.0952 29.0312 18.2702 29.1913 18.1244C29.1767 17.9932 29.1622 17.8619 29.1185 17.7307C28.9439 17.7599 28.7692 17.7744 28.5946 17.7453C28.5072 17.6578 28.5072 17.4828 28.4345 17.3662C28.4054 17.6724 28.1871 17.8036 27.9833 17.9494ZM22.0307 17.5849V17.789C22.1471 17.789 22.3072 17.7307 22.4091 17.7744C22.3945 17.8328 22.3945 17.9057 22.3945 17.9786C22.5983 17.9494 22.8021 18.0077 22.9476 18.139C23.0786 18.0952 23.195 18.0369 23.3114 17.964C23.1659 17.9348 23.0349 17.8911 22.9039 17.8328C22.9476 17.3224 22.3218 17.4974 22.0307 17.5849ZM13.9532 17.9348C14.0551 17.9786 14.1133 18.0515 14.2297 18.0952C14.3025 18.0369 14.3898 17.9932 14.4626 17.9348C14.4335 17.7599 14.5353 17.7307 14.5499 17.5995C14.3607 17.5995 14.2152 17.5703 14.026 17.5703C14.0114 17.6724 13.9969 17.8036 13.9532 17.9348ZM19.5856 17.789C19.5565 17.9202 19.4401 17.964 19.2945 17.964C19.3091 17.8911 19.2654 17.8765 19.28 17.8036C19.1199 17.7161 18.9743 17.8328 18.8142 17.8619C18.9889 18.0806 19.0762 18.3577 19.0617 18.6347C19.5128 18.6785 19.7457 18.9264 20.1387 19.0138C20.3133 18.9264 20.488 18.8243 20.6626 18.7222C20.8664 18.766 21.2157 18.8389 21.2739 18.6493C21.3321 18.4452 21.0701 18.3868 20.9974 18.241C21.0556 18.1827 21.2157 18.2119 21.3175 18.2119C21.3612 18.0952 21.4194 17.9786 21.4631 17.8765C21.2302 17.8619 21.0119 18.0077 20.8227 17.9786C20.6626 17.9494 20.5898 17.8036 20.4297 17.7744C20.3279 17.8619 20.3133 18.0369 20.2842 18.2119C20.357 18.2848 20.4588 18.3285 20.5316 18.3868C20.3861 18.4889 20.2551 18.6201 20.095 18.7076C19.9058 18.6347 19.6147 18.6639 19.5565 18.4598C19.6002 18.4306 19.6729 18.416 19.7166 18.3868C19.7166 18.2994 19.6584 18.2702 19.6438 18.1827C19.7457 18.0952 19.8185 17.9932 19.8912 17.8765C19.8767 17.7307 19.7311 17.7161 19.5856 17.789ZM15.0011 17.789C14.6663 17.8473 14.5062 18.1827 14.5208 18.5327C14.7537 18.5472 14.972 18.4743 15.1466 18.3285C15.2048 18.4889 15.2922 18.6493 15.394 18.7805C15.5687 18.7514 15.7288 18.6931 15.918 18.6785C15.9616 18.5035 15.9762 18.3285 15.9762 18.1535C15.8889 18.2119 15.787 18.2556 15.6851 18.2994C15.6269 18.2556 15.5541 18.241 15.525 18.1681C15.5978 18.0806 15.6706 17.9932 15.7288 17.8911C15.6269 17.7599 15.2048 17.7453 15.0011 17.789ZM10.3147 17.8328C10.0964 18.1098 9.1649 17.9057 9.29589 18.4452C9.35411 18.7076 10.2128 18.6493 10.3729 18.4452C10.3001 18.3723 10.2273 18.2848 10.1546 18.1973C10.2565 18.1244 10.3583 18.0223 10.4457 17.9202C10.3874 17.9057 10.3583 17.8619 10.3147 17.8328ZM13.764 18.3139C13.8368 17.9932 12.9198 17.8619 12.5706 17.8473C12.5706 17.9057 12.556 17.9786 12.4978 18.0077C12.3086 18.0952 12.0903 18.0077 11.8865 18.0369C11.6828 18.0806 11.5081 18.241 11.3335 18.2702C11.4062 18.3868 11.479 18.5035 11.5663 18.6056C11.9011 18.5181 12.1485 18.3431 12.6288 18.3868C12.7452 18.4598 12.9198 18.7076 13.0072 18.6931C13.0217 18.591 12.9781 18.4452 13.0217 18.3723C13.2255 18.4306 13.7058 18.5181 13.764 18.3139ZM25.6838 19.2763C25.742 19.3638 25.7856 19.4659 25.8875 19.5096C26.0039 19.4659 26.1058 19.4221 26.2223 19.3784C26.1931 19.043 26.4988 19.043 26.5861 18.8243C26.4988 18.6347 26.2223 18.7076 26.0622 18.7951C25.9603 18.7222 25.9166 18.5764 25.8147 18.5035C25.8293 18.766 25.7856 19.0284 25.6838 19.2763ZM10.8532 18.8972C10.7658 19.1451 10.2856 19.0138 10.0381 19.1305C9.96538 19.3492 10.1691 19.4221 10.402 19.3784C10.533 19.4659 10.5475 19.6554 10.7658 19.6554V19.4221C11.0569 19.4075 11.3626 19.393 11.4062 19.1305C11.2461 18.9993 11.0569 18.9264 10.8532 18.8972ZM12.5706 19.7721C12.4396 19.5825 12.5414 19.1013 12.1776 19.3055C12.0466 19.67 11.8137 19.9179 11.2316 19.8304C11.3189 19.9179 11.3917 20.1366 11.5372 20.1949C11.6245 20.2241 11.7264 20.1803 11.8137 20.2095C11.9302 20.2678 11.9011 20.4136 12.0466 20.5157C12.3959 20.7636 13.0945 20.4282 13.2983 20.2678C13.371 20.2095 13.502 20.1074 13.4729 20.0491C13.0799 19.947 12.7452 20.0345 12.5706 19.7721ZM6.12311 19.9325C6.21043 20.122 6.35597 20.3116 6.57428 20.297C6.76348 20.2824 7.11278 19.9616 7.25832 19.9033C6.90902 19.7721 6.55973 19.6263 6.39963 19.3055C6.31231 19.5096 6.19588 19.6992 6.12311 19.9325ZM5.83202 19.5096C5.7447 19.1742 5.23531 19.5534 5.23531 19.67C5.23531 19.7283 5.40996 19.8158 5.46817 19.8741C5.64282 19.7867 5.89024 19.7429 5.83202 19.5096ZM30.4429 19.8741C30.1518 20.0491 29.8899 20.297 29.7007 20.574C30.0063 20.5449 30.2828 20.5157 30.4429 20.3407C30.5739 20.3699 30.7195 20.3991 30.8504 20.4136C30.9232 20.3407 31.0979 20.1949 31.0688 20.1366C30.8504 20.0929 30.6321 20.0054 30.4429 19.8741ZM26.5861 20.0491C26.5279 20.1949 26.2223 20.2824 26.1786 20.5011C26.1349 20.7199 26.3096 20.9677 26.2659 21.1719C26.2077 21.4489 25.5673 21.5072 25.3345 21.3468C25.3636 21.2594 25.3636 21.1719 25.3636 21.0698C25.1889 21.0552 24.9997 20.9969 24.9124 21.1281C24.9269 21.1865 24.9415 21.2448 24.9269 21.3031C24.796 21.4052 24.5922 21.3906 24.4903 21.2448C24.4467 21.201 24.4321 21.1427 24.4321 21.0844C24.5049 21.0698 24.5776 21.0261 24.6359 20.9532V20.6615H24.4903C24.4467 20.7199 24.4758 20.8365 24.403 20.8657C24.272 20.8657 24.1847 20.8948 24.0683 20.8948V20.6761C23.8354 20.6324 23.7626 20.7636 23.6898 20.8948C23.8791 21.0552 24.0683 21.2302 24.2283 21.4198C24.141 21.4635 24.0974 21.551 24.01 21.5802C23.3988 21.1865 23.2096 22.0905 22.5692 21.828C22.511 22.0759 22.4528 22.3238 22.3945 22.5863C22.6565 22.5425 22.8457 22.3967 23.1077 22.353C23.3697 22.3092 23.6607 22.3675 23.9227 22.2946C24.0828 22.2509 24.2429 22.0905 24.4467 22.0176C24.5631 21.9884 24.6795 21.9593 24.7814 21.9447C25.1016 21.9155 25.5819 22.0613 25.8584 21.9155C25.9748 21.8572 26.0622 21.6239 26.1786 21.551C26.2368 21.5218 26.3387 21.5218 26.426 21.4781C26.4988 21.4489 26.5716 21.3614 26.6443 21.3323C26.8772 21.2302 27.1101 21.1573 27.3575 21.1281C27.4302 20.9386 27.3866 20.7344 27.4885 20.6032C27.5467 20.5157 27.7213 20.5303 27.7068 20.3845C27.503 20.2678 27.2556 20.297 27.0809 20.4428C27.0664 20.5011 27.0518 20.574 27.0518 20.6469C26.9645 20.6615 26.9063 20.7053 26.819 20.7199C26.7316 20.6324 26.688 20.5011 26.7316 20.3845C26.8335 20.3262 26.95 20.297 26.9063 20.0929C26.7899 20.122 26.6734 20.0929 26.5861 20.0491ZM27.8086 20.9969C27.9833 20.9094 28.1288 20.6032 28.3326 20.5595C28.58 20.5011 29.1767 20.7199 29.3805 20.5303C29.4678 20.4428 29.4678 20.3116 29.3805 20.2241C29.3368 20.1803 29.2932 20.1658 29.2349 20.1658C29.0166 20.1366 28.7983 20.3262 28.6382 20.3407C28.3908 20.3699 28.3326 20.1803 28.1143 20.2387C28.0852 20.5449 27.8669 20.7782 27.8086 20.9969ZM7.37475 20.574V20.9677C7.5494 21.0552 7.72405 21.1427 7.91325 21.201C7.97147 21.0406 8.02969 20.8802 8.0879 20.7199C7.84048 20.6615 7.60762 20.3991 7.37475 20.574ZM8.88838 21.5802C8.91748 21.4198 8.91748 21.2594 8.91748 21.099C9.04847 21.0552 9.13579 20.9823 9.28133 20.9386V20.6469C8.61185 20.6178 8.26255 20.9823 8.4372 21.6968C8.248 21.6239 8.05879 21.5364 7.85504 21.4635V21.7697C8.13157 21.8718 8.42265 21.8864 8.69917 21.8426C8.74283 21.9155 8.77194 21.9884 8.7865 22.0759C9.00481 22.003 9.15035 22.0759 9.33955 22.003C9.49965 21.9447 9.58697 21.7551 9.73251 21.726C9.89261 21.6968 10.009 21.8135 10.1982 21.8135C10.1837 21.2302 9.22312 21.3468 8.88838 21.5802ZM15.6997 21.4489C15.525 21.4198 15.3795 21.3323 15.2485 21.2156C15.2485 21.1135 15.2194 21.0261 15.1757 20.9386C15.0447 20.7782 14.3753 20.7782 14.317 20.9969C14.5936 21.2302 14.8264 21.5072 15.3358 21.5072C15.3795 21.5802 15.4086 21.6676 15.4377 21.7405C15.5978 21.7405 15.7142 21.7697 15.8889 21.7551C16.1217 21.9738 16.4128 22.1342 16.7185 22.2217C17.1551 22.2946 17.6499 22.1488 18.0429 22.2363C18.2612 22.2801 18.3922 22.4404 18.5814 22.4842C18.4649 22.1051 18.2175 21.7989 17.8828 21.5947C17.8682 21.7697 17.7227 21.9009 17.548 21.7989C17.548 21.726 17.5626 21.6239 17.5335 21.5802C17.257 21.5072 16.8203 21.6093 16.9077 21.1865C16.7912 21.0406 16.4419 20.8511 16.2382 21.0115C16.2236 21.376 16.6166 21.3323 16.6602 21.6385C16.6311 21.726 16.5001 21.7114 16.3837 21.7114C16.2527 21.6385 16.2236 21.4781 16.18 21.3177C16.1363 21.3177 16.1072 21.3468 16.049 21.3323C16.1363 21.7697 15.8016 21.7405 15.6997 21.4489ZM6.70527 20.924C6.4724 20.9386 6.32686 21.1427 6.10855 21.1573C5.9339 21.1719 5.71559 20.9677 5.5555 21.1427C5.59916 21.551 6.03578 21.6676 6.41419 21.6822C6.42874 21.5947 6.39963 21.4635 6.42874 21.3906C6.69071 21.4198 6.95269 21.3468 7.171 21.2156C7.02546 21.1135 6.86536 21.0261 6.70527 20.924ZM10.8968 21.1135C10.9259 21.3323 11.3917 21.2448 11.6391 21.2448C11.6973 21.0115 10.8386 20.7636 10.8968 21.1135ZM20.6772 20.9386C20.6189 21.099 20.5607 21.2448 20.4734 21.3906C20.5171 21.4635 20.5462 21.551 20.5607 21.6385C20.2405 21.7989 19.8767 21.8426 19.5128 21.7843C19.5711 21.9155 19.7894 22.0322 19.8767 22.1926C20.1823 22.2801 20.5025 22.4404 20.9391 22.353C21.1283 22.0613 21.3758 21.828 21.4922 21.4927C21.3903 21.4781 21.2884 21.4489 21.2011 21.4052C21.2011 21.2302 21.2302 21.0261 21.1283 20.9532C20.9973 20.9386 20.8373 20.924 20.6772 20.9386ZM12.949 21.3177C12.8762 21.5656 13.2255 21.7114 13.0217 21.9738C12.7598 22.0468 12.5269 21.828 12.3813 21.6822C12.4105 21.6093 12.4832 21.4927 12.4396 21.3906C12.2649 21.3468 12.0903 21.4635 12.0466 21.6385C12.0321 21.6822 12.0321 21.7114 12.0466 21.7551C12.0612 21.8718 12.2213 21.9884 12.2213 22.0905C12.2213 22.2071 12.1194 22.2655 12.0612 22.3238C12.3086 22.6154 12.7306 22.5279 13.1527 22.5279C13.502 22.5279 13.8076 22.6883 14.1278 22.7029C14.5499 22.7321 15.0011 22.5134 15.4086 22.5279C15.4814 22.4113 15.525 22.2363 15.6269 22.1488C15.7433 22.1488 15.8307 22.1197 15.9616 22.1342C15.787 21.7114 14.6372 22.353 14.71 21.726C14.3898 21.6676 14.1715 21.5218 13.7785 21.551C13.8076 21.6531 14.0114 21.726 14.0842 21.8426C13.895 21.9447 13.6767 21.9884 13.4729 21.9447C13.2837 21.7843 13.5748 21.551 13.4729 21.3177C13.2837 21.2739 13.1091 21.2885 12.949 21.3177ZM7.44752 21.726C7.41842 21.6239 7.47663 21.5364 7.44752 21.4489C7.3602 21.2302 7.11278 21.3468 6.99635 21.5364C7.05456 21.5802 7.14189 21.5947 7.15644 21.6676C7.12734 21.8426 6.90902 21.828 6.83625 21.9593C7.06912 22.1051 7.3602 22.1051 7.60762 21.9738C7.62217 21.8864 7.47663 21.828 7.44752 21.726ZM11.348 21.8864C11.0278 21.6968 10.795 22.1634 10.4457 22.2071C10.1255 22.2509 10.0236 22.1051 9.73251 22.0468C9.57242 22.2071 9.48509 22.455 9.33955 22.63C9.60152 22.6883 9.81983 22.8341 10.0818 22.7904C10.3438 22.7467 10.4748 22.4404 10.7804 22.3821C11.0424 22.3238 11.2316 22.3821 11.5518 22.3238C11.479 22.1634 11.479 21.9738 11.348 21.8864ZM16.6748 22.5279C16.3983 22.4696 16.1654 22.2363 15.7579 22.3238C15.6706 22.4404 15.6269 22.5863 15.5396 22.6883C15.3067 22.7175 15.0884 22.7612 14.8701 22.8341C15.3504 22.8196 15.8307 22.9508 16.2964 22.907C16.5729 22.8779 16.7767 22.7467 17.0532 22.7612C17.4462 22.7904 17.8246 22.9654 18.1448 22.7612C17.8682 22.455 17.1405 22.63 16.6748 22.5279Z" fill="white"/>
</svg>
