<?xml version="1.0" encoding="UTF-8"?>
<!DOCTYPE svg PUBLIC "-//W3C//DTD SVG 1.1//EN" "http://www.w3.org/Graphics/SVG/1.1/DTD/svg11.dtd">
<svg xmlns="http://www.w3.org/2000/svg" version="1.1" width="384px" height="384px" style="shape-rendering:geometricPrecision; text-rendering:geometricPrecision; image-rendering:optimizeQuality; fill-rule:evenodd; clip-rule:evenodd" xmlns:xlink="http://www.w3.org/1999/xlink">
<g><path style="opacity:1" fill="#46eec8" d="M 181.5,-0.5 C 184.833,-0.5 188.167,-0.5 191.5,-0.5C 191.291,0.921673 190.791,2.25501 190,3.5C 188.334,2.65975 188.167,3.15975 189.5,5C 187.408,6.37699 185.742,8.21032 184.5,10.5C 184.709,11.086 185.043,11.586 185.5,12C 181.795,14.2115 179.129,17.3782 177.5,21.5C 165.838,33.523 153.838,44.523 141.5,54.5C 140.078,54.2914 138.745,53.7914 137.5,53C 135.167,50.6667 132.833,48.3333 130.5,46C 125.471,42.4903 120.471,38.9903 115.5,35.5C 133.94,24.4409 152.607,13.6076 171.5,3C 174.98,1.89744 178.313,0.73077 181.5,-0.5 Z"/></g>
<g><path style="opacity:1" fill="#3ae7c8" d="M 191.5,-0.5 C 194.833,-0.5 198.167,-0.5 201.5,-0.5C 204.081,0.488483 206.748,1.48848 209.5,2.5C 207.73,8.38318 205.564,13.7165 203,18.5C 202.667,18.1667 202.333,17.8333 202,17.5C 201,19.5 200,21.5 199,23.5C 198.667,23.1667 198.333,22.8333 198,22.5C 197.333,24.5 196,25.8333 194,26.5C 193.383,27.4491 193.549,28.2825 194.5,29C 192.278,31.4989 189.944,33.3322 187.5,34.5C 185.656,36.9823 184.323,39.649 183.5,42.5C 181.436,42.687 179.436,43.187 177.5,44C 177.833,44.3333 178.167,44.6667 178.5,45C 177.333,45.5 176.5,46.3333 176,47.5C 175.667,47.1667 175.333,46.8333 175,46.5C 174.345,50.1572 172.178,51.9906 168.5,52C 166.399,55.9454 163.066,58.2788 158.5,59C 157.874,59.7504 157.374,60.5838 157,61.5C 155.251,60.701 153.918,61.3676 153,63.5C 152.329,62.7476 151.496,62.4142 150.5,62.5C 146.854,60.5181 143.854,57.8515 141.5,54.5C 153.838,44.523 165.838,33.523 177.5,21.5C 179.129,17.3782 181.795,14.2115 185.5,12C 185.043,11.586 184.709,11.086 184.5,10.5C 185.742,8.21032 187.408,6.37699 189.5,5C 188.167,3.15975 188.334,2.65975 190,3.5C 190.791,2.25501 191.291,0.921673 191.5,-0.5 Z"/></g>
<g><path style="opacity:1" fill="#34e1c8" d="M 209.5,2.5 C 216.114,5.80293 222.447,9.46959 228.5,13.5C 228.657,14.8734 228.49,16.2068 228,17.5C 225.682,21.0038 222.515,24.3371 218.5,27.5C 218.709,28.086 219.043,28.586 219.5,29C 216.422,31.7523 213.089,34.0856 209.5,36C 209.833,36.3333 210.167,36.6667 210.5,37C 209.584,37.3742 208.75,37.8742 208,38.5C 207.08,40.6317 205.913,42.6317 204.5,44.5C 203.914,44.2907 203.414,43.9574 203,43.5C 201.823,45.1757 200.323,46.5091 198.5,47.5C 195.172,50.6095 192.339,54.6095 190,59.5C 189.333,58.8333 188.667,58.1667 188,57.5C 187,59.5 186,61.5 185,63.5C 182.708,62.3991 181.208,63.2324 180.5,66C 176.728,67.3321 173.228,69.8321 170,73.5C 169.586,73.0426 169.086,72.7093 168.5,72.5C 167.735,73.6119 166.735,74.2786 165.5,74.5C 159.868,71.1922 154.868,67.1922 150.5,62.5C 151.496,62.4142 152.329,62.7476 153,63.5C 153.918,61.3676 155.251,60.701 157,61.5C 157.374,60.5838 157.874,59.7504 158.5,59C 163.066,58.2788 166.399,55.9454 168.5,52C 172.178,51.9906 174.345,50.1572 175,46.5C 175.333,46.8333 175.667,47.1667 176,47.5C 176.5,46.3333 177.333,45.5 178.5,45C 178.167,44.6667 177.833,44.3333 177.5,44C 179.436,43.187 181.436,42.687 183.5,42.5C 184.323,39.649 185.656,36.9823 187.5,34.5C 189.944,33.3322 192.278,31.4989 194.5,29C 193.549,28.2825 193.383,27.4491 194,26.5C 196,25.8333 197.333,24.5 198,22.5C 198.333,22.8333 198.667,23.1667 199,23.5C 200,21.5 201,19.5 202,17.5C 202.333,17.8333 202.667,18.1667 203,18.5C 205.564,13.7165 207.73,8.38318 209.5,2.5 Z"/></g>
<g><path style="opacity:1" fill="#2edac8" d="M 228.5,13.5 C 233.632,15.8995 238.632,18.5662 243.5,21.5C 242.27,23.2972 241.604,25.2972 241.5,27.5C 237.265,30.0619 233.598,33.3953 230.5,37.5C 229.914,37.2907 229.414,36.9574 229,36.5C 226.367,40.5374 223.533,44.3707 220.5,48C 215.882,50.8665 211.382,54.6999 207,59.5C 206.086,58.3463 205.253,58.513 204.5,60C 204.833,60.3333 205.167,60.6667 205.5,61C 204.552,61.4828 203.552,61.6495 202.5,61.5C 202.649,62.552 202.483,63.552 202,64.5C 199.614,65.7633 197.781,67.5967 196.5,70C 195.128,70.4017 193.795,70.9017 192.5,71.5C 189.141,74.6948 185.641,77.6948 182,80.5C 181.692,79.6919 181.192,79.0253 180.5,78.5C 179.168,80.8329 177.168,82.1663 174.5,82.5C 170.812,80.5082 167.812,77.8415 165.5,74.5C 166.735,74.2786 167.735,73.6119 168.5,72.5C 169.086,72.7093 169.586,73.0426 170,73.5C 173.228,69.8321 176.728,67.3321 180.5,66C 181.208,63.2324 182.708,62.3991 185,63.5C 186,61.5 187,59.5 188,57.5C 188.667,58.1667 189.333,58.8333 190,59.5C 192.339,54.6095 195.172,50.6095 198.5,47.5C 200.323,46.5091 201.823,45.1757 203,43.5C 203.414,43.9574 203.914,44.2907 204.5,44.5C 205.913,42.6317 207.08,40.6317 208,38.5C 208.75,37.8742 209.584,37.3742 210.5,37C 210.167,36.6667 209.833,36.3333 209.5,36C 213.089,34.0856 216.422,31.7523 219.5,29C 219.043,28.586 218.709,28.086 218.5,27.5C 222.515,24.3371 225.682,21.0038 228,17.5C 228.49,16.2068 228.657,14.8734 228.5,13.5 Z"/></g>
<g><path style="opacity:1" fill="#f5f9f9" d="M 115.5,35.5 C 120.471,38.9903 125.471,42.4903 130.5,46C 132.833,48.3333 135.167,50.6667 137.5,53C 138.745,53.7914 140.078,54.2914 141.5,54.5C 143.854,57.8515 146.854,60.5181 150.5,62.5C 154.868,67.1922 159.868,71.1922 165.5,74.5C 167.812,77.8415 170.812,80.5082 174.5,82.5C 176.9,85.9031 179.9,88.5698 183.5,90.5C 185.86,93.5272 188.527,96.1938 191.5,98.5C 195.917,102.926 200.584,106.926 205.5,110.5C 205.987,111.473 206.487,112.473 207,113.5C 211.582,118.192 216.416,122.526 221.5,126.5C 221.987,127.473 222.487,128.473 223,129.5C 225.731,131.418 228.231,133.418 230.5,135.5C 231.657,137.138 232.824,138.804 234,140.5C 234.818,146.349 234.652,152.015 233.5,157.5C 231.194,154.527 228.527,151.86 225.5,149.5C 221.5,144.833 217.167,140.5 212.5,136.5C 209.727,133.549 207.061,130.382 204.5,127C 199.96,122.954 195.293,119.121 190.5,115.5C 185.131,109.13 179.131,103.463 172.5,98.5C 166.866,93.0068 161.199,87.5068 155.5,82C 154.255,81.2086 152.922,80.7086 151.5,80.5C 143.762,72.7968 135.429,65.7968 126.5,59.5C 119.433,53.0918 112.099,47.0918 104.5,41.5C 107.678,38.7417 111.345,36.7417 115.5,35.5 Z"/></g>
<g><path style="opacity:1" fill="#1fc8cd" d="M 272.5,38.5 C 276.783,39.9751 280.783,41.9751 284.5,44.5C 284.108,46.1789 283.608,47.8455 283,49.5C 282.667,49.1667 282.333,48.8333 282,48.5C 276.585,52.2453 272.252,56.912 269,62.5C 267.933,63.1905 266.766,63.6905 265.5,64C 266.863,66.1293 266.529,66.6293 264.5,65.5C 261.362,68.8343 257.362,71.8343 252.5,74.5C 251.91,75.7989 250.91,76.6322 249.5,77C 250.451,77.7175 250.617,78.5509 250,79.5C 249,79.1667 248,78.8333 247,78.5C 243.738,82.5495 239.571,85.2162 234.5,86.5C 234.649,87.552 234.483,88.552 234,89.5C 229.573,93.254 225.073,96.9207 220.5,100.5C 219.914,100.291 219.414,99.9574 219,99.5C 214.491,103.645 209.658,106.478 204.5,108C 205.252,108.671 205.586,109.504 205.5,110.5C 200.584,106.926 195.917,102.926 191.5,98.5C 193.199,98.6602 194.866,98.4935 196.5,98C 200.861,94.1612 205.861,91.3278 211.5,89.5C 214.312,86.5985 217.312,83.9319 220.5,81.5C 221.192,82.0253 221.692,82.6919 222,83.5C 225.966,79.5341 229.633,75.8674 233,72.5C 233.333,72.8333 233.667,73.1667 234,73.5C 237.849,68.7302 242.183,64.3969 247,60.5C 247.667,59.1667 248.333,57.8333 249,56.5C 254.17,52.9863 259.003,49.1529 263.5,45C 265.766,42.6094 267.933,40.1094 270,37.5C 270.671,38.2524 271.504,38.5858 272.5,38.5 Z"/></g>
<g><path style="opacity:1" fill="#28d4c8" d="M 243.5,21.5 C 248.701,24.263 253.701,27.263 258.5,30.5C 257.5,30.5 256.5,30.5 255.5,30.5C 254.721,33.6344 253.055,36.3011 250.5,38.5C 249.914,38.2907 249.414,37.9574 249,37.5C 245.904,41.7685 242.07,45.1018 237.5,47.5C 233.899,52.1575 230.399,56.8242 227,61.5C 226.667,61.1667 226.333,60.8333 226,60.5C 221.216,66.0483 215.883,70.0483 210,72.5C 209.383,73.4491 209.549,74.2825 210.5,75C 208.5,75.6667 207.167,77 206.5,79C 203.848,80.8068 201.181,81.8068 198.5,82C 196.093,84.2848 193.593,86.4514 191,88.5C 190.667,88.1667 190.333,87.8333 190,87.5C 188.867,91.1876 186.701,92.1876 183.5,90.5C 179.9,88.5698 176.9,85.9031 174.5,82.5C 177.168,82.1663 179.168,80.8329 180.5,78.5C 181.192,79.0253 181.692,79.6919 182,80.5C 185.641,77.6948 189.141,74.6948 192.5,71.5C 193.795,70.9017 195.128,70.4017 196.5,70C 197.781,67.5967 199.614,65.7633 202,64.5C 202.483,63.552 202.649,62.552 202.5,61.5C 203.552,61.6495 204.552,61.4828 205.5,61C 205.167,60.6667 204.833,60.3333 204.5,60C 205.253,58.513 206.086,58.3463 207,59.5C 211.382,54.6999 215.882,50.8665 220.5,48C 223.533,44.3707 226.367,40.5374 229,36.5C 229.414,36.9574 229.914,37.2907 230.5,37.5C 233.598,33.3953 237.265,30.0619 241.5,27.5C 241.604,25.2972 242.27,23.2972 243.5,21.5 Z"/></g>
<g><path style="opacity:1" fill="#1dbbcf" d="M 297.5,52.5 C 302.632,54.8995 307.632,57.5662 312.5,60.5C 309.241,61.0735 307.408,63.0735 307,66.5C 306.667,66.1667 306.333,65.8333 306,65.5C 302.778,68.388 299.278,70.888 295.5,73C 294.167,75.6667 292.167,77.6667 289.5,79C 289.833,79.3333 290.167,79.6667 290.5,80C 288.671,80.2735 287.171,81.1068 286,82.5C 285.667,82.1667 285.333,81.8333 285,81.5C 282.477,84.5243 279.31,86.5243 275.5,87.5C 275.709,88.086 276.043,88.586 276.5,89C 275.058,89.3768 274.058,90.2101 273.5,91.5C 266.5,91.5 259.5,91.5 252.5,91.5C 254.423,90.2181 256.423,88.8848 258.5,87.5C 258.291,86.914 257.957,86.414 257.5,86C 259.994,84.5091 262.494,83.0091 265,81.5C 265.333,81.8333 265.667,82.1667 266,82.5C 267.044,81.3774 267.71,80.0441 268,78.5C 269.067,77.8095 270.234,77.3095 271.5,77C 271.167,76.6667 270.833,76.3333 270.5,76C 272.93,75.3571 274.597,73.8571 275.5,71.5C 276.086,71.7093 276.586,72.0426 277,72.5C 277.583,70.9984 278.416,69.6651 279.5,68.5C 280.086,68.7093 280.586,69.0426 281,69.5C 284.596,65.3015 288.762,60.9682 293.5,56.5C 294.736,55.7542 296.07,55.4208 297.5,55.5C 297.5,54.5 297.5,53.5 297.5,52.5 Z"/></g>
<g><path style="opacity:1" fill="#41edc8" d="M 104.5,41.5 C 112.099,47.0918 119.433,53.0918 126.5,59.5C 126.461,60.5832 126.127,61.5832 125.5,62.5C 121.516,62.6826 118.35,64.3493 116,67.5C 114.602,66.9491 113.268,66.6158 112,66.5C 108.934,67.6699 106.934,69.3366 106,71.5C 104.686,70.6872 103.519,69.6872 102.5,68.5C 101.304,68.8457 101.304,69.3457 102.5,70C 100.22,70.2326 98.2199,71.066 96.5,72.5C 92.775,72.8324 89.275,72.4991 86,71.5C 84.9148,72.2931 83.7481,72.9598 82.5,73.5C 79.6815,73.2613 76.8482,72.928 74,72.5C 72.7147,72.9504 71.548,73.6171 70.5,74.5C 68.287,71.9199 66.1203,71.9199 64,74.5C 58.9648,73.648 53.7981,73.3147 48.5,73.5C 66.8331,62.3309 85.4998,51.6643 104.5,41.5 Z"/></g>
<g><path style="opacity:1" fill="#37e5c8" d="M 126.5,59.5 C 135.429,65.7968 143.762,72.7968 151.5,80.5C 151.439,82.5922 150.439,84.0922 148.5,85C 145.088,85.5692 142.255,87.0692 140,89.5C 139.667,89.1667 139.333,88.8333 139,88.5C 135.427,90.7436 131.927,93.0769 128.5,95.5C 126.973,95.573 125.973,94.9063 125.5,93.5C 125.389,92.8826 125.056,92.3826 124.5,92C 110.837,91.5001 97.1707,91.3334 83.5,91.5C 83.1667,91.5 82.8333,91.5 82.5,91.5C 79.9912,89.8428 77.8245,90.1762 76,92.5C 72.9876,89.7501 70.321,90.0834 68,93.5C 66,92.1667 64,92.1667 62,93.5C 57.6162,91.5183 53.1162,91.5183 48.5,93.5C 44.8591,91.115 41.3591,91.115 38,93.5C 37.6121,92.572 36.9454,91.9054 36,91.5C 32.8475,90.334 29.6809,89.334 26.5,88.5C 32.4376,81.5253 39.771,76.5253 48.5,73.5C 53.7981,73.3147 58.9648,73.648 64,74.5C 66.1203,71.9199 68.287,71.9199 70.5,74.5C 71.548,73.6171 72.7147,72.9504 74,72.5C 76.8482,72.928 79.6815,73.2613 82.5,73.5C 83.7481,72.9598 84.9148,72.2931 86,71.5C 89.275,72.4991 92.775,72.8324 96.5,72.5C 98.2199,71.066 100.22,70.2326 102.5,70C 101.304,69.3457 101.304,68.8457 102.5,68.5C 103.519,69.6872 104.686,70.6872 106,71.5C 106.934,69.3366 108.934,67.6699 112,66.5C 113.268,66.6158 114.602,66.9491 116,67.5C 118.35,64.3493 121.516,62.6826 125.5,62.5C 126.127,61.5832 126.461,60.5832 126.5,59.5 Z"/></g>
<g><path style="opacity:1" fill="#1ab4d4" d="M 312.5,60.5 C 317.202,63.1819 321.869,65.8486 326.5,68.5C 324.019,68.3234 322.186,69.3234 321,71.5C 320.667,71.1667 320.333,70.8333 320,70.5C 318.982,73.7121 316.816,75.5454 313.5,76C 311.122,77.6333 308.956,80.1333 307,83.5C 306.667,83.1667 306.333,82.8333 306,82.5C 303.528,84.4555 301.695,86.7889 300.5,89.5C 298.214,89.595 296.214,90.2616 294.5,91.5C 287.5,91.5 280.5,91.5 273.5,91.5C 274.058,90.2101 275.058,89.3768 276.5,89C 276.043,88.586 275.709,88.086 275.5,87.5C 279.31,86.5243 282.477,84.5243 285,81.5C 285.333,81.8333 285.667,82.1667 286,82.5C 287.171,81.1068 288.671,80.2735 290.5,80C 290.167,79.6667 289.833,79.3333 289.5,79C 292.167,77.6667 294.167,75.6667 295.5,73C 299.278,70.888 302.778,68.388 306,65.5C 306.333,65.8333 306.667,66.1667 307,66.5C 307.408,63.0735 309.241,61.0735 312.5,60.5 Z"/></g>
<g><path style="opacity:1" fill="#19afd4" d="M 326.5,68.5 C 331.784,71.1373 336.784,74.1373 341.5,77.5C 340.527,78.7914 339.527,78.7914 338.5,77.5C 335.706,80.478 332.539,82.8113 329,84.5C 326.463,84.8568 324.463,86.5234 323,89.5C 321.434,88.9394 320.101,89.6061 319,91.5C 318.667,91.1667 318.333,90.8333 318,90.5C 316.333,91.5 315,92.8333 314,94.5C 313.667,94.1667 313.333,93.8333 313,93.5C 312.517,94.448 312.351,95.448 312.5,96.5C 309.332,99.2382 305.665,101.238 301.5,102.5C 301.5,98.8333 301.5,95.1667 301.5,91.5C 299.167,91.5 296.833,91.5 294.5,91.5C 296.214,90.2616 298.214,89.595 300.5,89.5C 301.695,86.7889 303.528,84.4555 306,82.5C 306.333,82.8333 306.667,83.1667 307,83.5C 308.956,80.1333 311.122,77.6333 313.5,76C 316.816,75.5454 318.982,73.7121 320,70.5C 320.333,70.8333 320.667,71.1667 321,71.5C 322.186,69.3234 324.019,68.3234 326.5,68.5 Z"/></g>
<g><path style="opacity:1" fill="#23ceca" d="M 258.5,30.5 C 263.5,32.6643 268.167,35.331 272.5,38.5C 271.504,38.5858 270.671,38.2524 270,37.5C 267.933,40.1094 265.766,42.6094 263.5,45C 259.003,49.1529 254.17,52.9863 249,56.5C 248.333,57.8333 247.667,59.1667 247,60.5C 242.183,64.3969 237.849,68.7302 234,73.5C 233.667,73.1667 233.333,72.8333 233,72.5C 229.633,75.8674 225.966,79.5341 222,83.5C 221.692,82.6919 221.192,82.0253 220.5,81.5C 217.312,83.9319 214.312,86.5985 211.5,89.5C 205.861,91.3278 200.861,94.1612 196.5,98C 194.866,98.4935 193.199,98.6602 191.5,98.5C 188.527,96.1938 185.86,93.5272 183.5,90.5C 186.701,92.1876 188.867,91.1876 190,87.5C 190.333,87.8333 190.667,88.1667 191,88.5C 193.593,86.4514 196.093,84.2848 198.5,82C 201.181,81.8068 203.848,80.8068 206.5,79C 207.167,77 208.5,75.6667 210.5,75C 209.549,74.2825 209.383,73.4491 210,72.5C 215.883,70.0483 221.216,66.0483 226,60.5C 226.333,60.8333 226.667,61.1667 227,61.5C 230.399,56.8242 233.899,52.1575 237.5,47.5C 242.07,45.1018 245.904,41.7685 249,37.5C 249.414,37.9574 249.914,38.2907 250.5,38.5C 253.055,36.3011 254.721,33.6344 255.5,30.5C 256.5,30.5 257.5,30.5 258.5,30.5 Z"/></g>
<g><path style="opacity:1" fill="#19a8d4" d="M 341.5,77.5 C 346.322,78.9977 350.322,81.6644 353.5,85.5C 350.702,86.7063 348.535,88.7063 347,91.5C 346.282,90.5494 345.449,90.3828 344.5,91C 335.96,98.0067 325.96,103.507 314.5,107.5C 310.699,111.307 306.365,114.307 301.5,116.5C 301.5,111.833 301.5,107.167 301.5,102.5C 305.665,101.238 309.332,99.2382 312.5,96.5C 312.351,95.448 312.517,94.448 313,93.5C 313.333,93.8333 313.667,94.1667 314,94.5C 315,92.8333 316.333,91.5 318,90.5C 318.333,90.8333 318.667,91.1667 319,91.5C 320.101,89.6061 321.434,88.9394 323,89.5C 324.463,86.5234 326.463,84.8568 329,84.5C 332.539,82.8113 335.706,80.478 338.5,77.5C 339.527,78.7914 340.527,78.7914 341.5,77.5 Z"/></g>
<g><path style="opacity:1" fill="#1bc0ce" d="M 284.5,44.5 C 289.037,46.9301 293.37,49.5968 297.5,52.5C 297.5,53.5 297.5,54.5 297.5,55.5C 296.07,55.4208 294.736,55.7542 293.5,56.5C 288.762,60.9682 284.596,65.3015 281,69.5C 280.586,69.0426 280.086,68.7093 279.5,68.5C 278.416,69.6651 277.583,70.9984 277,72.5C 276.586,72.0426 276.086,71.7093 275.5,71.5C 274.597,73.8571 272.93,75.3571 270.5,76C 270.833,76.3333 271.167,76.6667 271.5,77C 270.234,77.3095 269.067,77.8095 268,78.5C 267.71,80.0441 267.044,81.3774 266,82.5C 265.667,82.1667 265.333,81.8333 265,81.5C 262.494,83.0091 259.994,84.5091 257.5,86C 257.957,86.414 258.291,86.914 258.5,87.5C 256.423,88.8848 254.423,90.2181 252.5,91.5C 251.167,91.5 249.833,91.5 248.5,91.5C 248.5,99.5 248.5,107.5 248.5,115.5C 247.834,112.972 247.168,110.306 246.5,107.5C 239.087,113.496 231.421,118.329 223.5,122C 221.963,123.11 221.297,124.61 221.5,126.5C 216.416,122.526 211.582,118.192 207,113.5C 206.487,112.473 205.987,111.473 205.5,110.5C 205.586,109.504 205.252,108.671 204.5,108C 209.658,106.478 214.491,103.645 219,99.5C 219.414,99.9574 219.914,100.291 220.5,100.5C 225.073,96.9207 229.573,93.254 234,89.5C 234.483,88.552 234.649,87.552 234.5,86.5C 239.571,85.2162 243.738,82.5495 247,78.5C 248,78.8333 249,79.1667 250,79.5C 250.617,78.5509 250.451,77.7175 249.5,77C 250.91,76.6322 251.91,75.7989 252.5,74.5C 257.362,71.8343 261.362,68.8343 264.5,65.5C 266.529,66.6293 266.863,66.1293 265.5,64C 266.766,63.6905 267.933,63.1905 269,62.5C 272.252,56.912 276.585,52.2453 282,48.5C 282.333,48.8333 282.667,49.1667 283,49.5C 283.608,47.8455 284.108,46.1789 284.5,44.5 Z"/></g>
<g><path style="opacity:1" fill="#19a2d9" d="M 353.5,85.5 C 357.471,88.7759 360.471,92.7759 362.5,97.5C 360.702,96.5371 359.368,97.2038 358.5,99.5C 357.914,99.2907 357.414,98.9574 357,98.5C 354.949,100.524 352.616,102.19 350,103.5C 349,103.5 348,103.5 347,103.5C 346.517,104.448 346.351,105.448 346.5,106.5C 344.073,106.523 341.74,107.023 339.5,108C 334.86,111.953 330.194,114.62 325.5,116C 321.373,118.293 317.373,120.793 313.5,123.5C 312.914,123.291 312.414,122.957 312,122.5C 308.644,125.109 305.144,127.443 301.5,129.5C 301.5,125.167 301.5,120.833 301.5,116.5C 306.365,114.307 310.699,111.307 314.5,107.5C 325.96,103.507 335.96,98.0067 344.5,91C 345.449,90.3828 346.282,90.5494 347,91.5C 348.535,88.7063 350.702,86.7063 353.5,85.5 Z"/></g>
<g><path style="opacity:1" fill="#30e0c8" d="M 26.5,88.5 C 29.6809,89.334 32.8475,90.334 36,91.5C 36.9454,91.9054 37.6121,92.572 38,93.5C 41.3591,91.115 44.8591,91.115 48.5,93.5C 53.1162,91.5183 57.6162,91.5183 62,93.5C 64,92.1667 66,92.1667 68,93.5C 70.321,90.0834 72.9876,89.7501 76,92.5C 77.8245,90.1762 79.9912,89.8428 82.5,91.5C 82.8082,97.4254 82.4749,103.259 81.5,109C 76.6961,109.217 72.0294,110.051 67.5,111.5C 63.6608,110.691 59.8275,111.024 56,112.5C 52.8568,111.358 49.6901,111.358 46.5,112.5C 36.3087,111.491 26.3087,110.158 16.5,108.5C 17.7308,100.705 21.0642,94.0382 26.5,88.5 Z"/></g>
<g><path style="opacity:1" fill="#f8f9f9" d="M 125.5,93.5 C 125.973,94.9063 126.973,95.573 128.5,95.5C 133.915,101.581 139.581,107.248 145.5,112.5C 151.416,118.149 157.416,123.815 163.5,129.5C 168.819,135.711 174.819,141.378 181.5,146.5C 187.034,152.611 193.034,158.278 199.5,163.5C 203.539,168.54 208.206,172.873 213.5,176.5C 220.084,183.893 227.084,190.56 234.5,196.5C 238.527,200.527 242.527,204.527 246.5,208.5C 246.833,209.5 247.5,210.167 248.5,210.5C 249.499,171.337 249.832,132.004 249.5,92.5C 266.5,92.5 283.5,92.5 300.5,92.5C 300.5,157.833 300.5,223.167 300.5,288.5C 287.5,288.5 274.5,288.5 261.5,288.5C 258.712,285.964 255.712,283.631 252.5,281.5C 252.013,280.527 251.513,279.527 251,278.5C 248.816,276.712 246.649,275.046 244.5,273.5C 242.806,270.472 240.472,268.139 237.5,266.5C 235.806,264.139 233.806,262.139 231.5,260.5C 229.192,258.529 226.858,256.529 224.5,254.5C 222.167,251.5 219.5,248.833 216.5,246.5C 212.859,243.195 209.192,239.862 205.5,236.5C 204.167,234.5 202.5,232.833 200.5,231.5C 199.167,229.5 197.5,227.833 195.5,226.5C 194.167,224.5 192.5,222.833 190.5,221.5C 184.833,216.167 179.167,210.833 173.5,205.5C 169.833,202.5 166.5,199.167 163.5,195.5C 154.786,186.95 145.952,178.616 137,170.5C 136.5,184.496 136.333,198.496 136.5,212.5C 136.5,216.167 136.5,219.833 136.5,223.5C 136.5,229.5 136.5,235.5 136.5,241.5C 136.172,252.014 136.506,262.347 137.5,272.5C 137.833,272.5 138.167,272.5 138.5,272.5C 139.614,273.885 140.614,275.385 141.5,277C 144.278,278.807 146.945,280.641 149.5,282.5C 150.5,285.5 152.5,287.5 155.5,288.5C 157.751,291.295 160.418,293.628 163.5,295.5C 168.223,300.554 173.557,304.887 179.5,308.5C 182.344,311.409 185.344,314.076 188.5,316.5C 192.044,319.686 195.711,322.853 199.5,326C 201.078,327.094 202.745,327.928 204.5,328.5C 212.884,335.868 221.884,342.534 231.5,348.5C 232.605,349.6 233.938,350.267 235.5,350.5C 239.32,353.253 242.986,356.253 246.5,359.5C 242.864,362.323 238.864,364.656 234.5,366.5C 227.796,361.821 221.129,357.154 214.5,352.5C 214.027,351.094 213.027,350.427 211.5,350.5C 210.232,348.953 208.565,347.953 206.5,347.5C 205.738,345.738 204.404,344.738 202.5,344.5C 197.118,339.783 191.451,335.45 185.5,331.5C 183.766,328.8 181.432,326.8 178.5,325.5C 174.833,322.5 171.167,319.5 167.5,316.5C 165.766,313.8 163.432,311.8 160.5,310.5C 157.461,307.46 154.127,304.794 150.5,302.5C 148.451,299.45 145.784,297.117 142.5,295.5C 139.616,292.581 136.616,289.915 133.5,287.5C 132.496,286.317 131.662,284.984 131,283.5C 128.833,282.512 127,281.179 125.5,279.5C 123.039,276.887 120.373,274.554 117.5,272.5C 116.167,269.167 113.833,266.833 110.5,265.5C 109.162,263.304 107.495,261.304 105.5,259.5C 102.38,256.257 99.0468,253.257 95.5,250.5C 95.631,249.761 95.4643,249.094 95,248.5C 92.0371,245.552 88.8704,242.885 85.5,240.5C 85.631,239.761 85.4643,239.094 85,238.5C 82.0371,235.552 78.8704,232.885 75.5,230.5C 73.2065,226.873 70.5398,223.539 67.5,220.5C 64.5,217.167 61.5,213.833 58.5,210.5C 51.8437,202.178 44.8437,194.178 37.5,186.5C 30.485,177.161 23.1517,168.161 15.5,159.5C 15.5,153.167 15.5,146.833 15.5,140.5C 17.8606,142.194 19.8606,144.194 21.5,146.5C 24.79,152.087 28.79,157.087 33.5,161.5C 36.4864,165.817 39.8197,169.817 43.5,173.5C 49.1195,180.958 54.9528,188.292 61,195.5C 61.6708,196.252 62.5041,196.586 63.5,196.5C 69.409,203.485 75.409,210.485 81.5,217.5C 81.811,218.478 82.4777,219.145 83.5,219.5C 84.4999,177.172 84.8333,134.839 84.5,92.5C 98.2156,92.2022 111.882,92.5355 125.5,93.5 Z"/></g>
<g><path style="opacity:1" fill="#27d6c8" d="M 151.5,80.5 C 152.922,80.7086 154.255,81.2086 155.5,82C 161.199,87.5068 166.866,93.0068 172.5,98.5C 172.631,99.3764 172.298,100.043 171.5,100.5C 167.102,103.41 162.602,106.077 158,108.5C 157.667,107.833 157.333,107.167 157,106.5C 153.284,109.541 149.451,111.541 145.5,112.5C 139.581,107.248 133.915,101.581 128.5,95.5C 131.927,93.0769 135.427,90.7436 139,88.5C 139.333,88.8333 139.667,89.1667 140,89.5C 142.255,87.0692 145.088,85.5692 148.5,85C 150.439,84.0922 151.439,82.5922 151.5,80.5 Z"/></g>
<g><path style="opacity:1" fill="#199cda" d="M 362.5,97.5 C 365.129,101.376 366.796,105.71 367.5,110.5C 364.14,111.013 361.14,112.347 358.5,114.5C 357.035,113.391 356.035,113.891 355.5,116C 349.015,116.967 343.181,120.134 338,125.5C 337.586,125.043 337.086,124.709 336.5,124.5C 334.184,126.494 331.518,127.494 328.5,127.5C 328.64,129.124 327.973,130.29 326.5,131C 323.336,131.387 320.502,132.554 318,134.5C 316.31,133.851 314.477,133.851 312.5,134.5C 312.5,135.5 312.5,136.5 312.5,137.5C 308.392,139.181 304.725,140.514 301.5,141.5C 301.5,137.5 301.5,133.5 301.5,129.5C 305.144,127.443 308.644,125.109 312,122.5C 312.414,122.957 312.914,123.291 313.5,123.5C 317.373,120.793 321.373,118.293 325.5,116C 330.194,114.62 334.86,111.953 339.5,108C 341.74,107.023 344.073,106.523 346.5,106.5C 346.351,105.448 346.517,104.448 347,103.5C 348,103.5 349,103.5 350,103.5C 352.616,102.19 354.949,100.524 357,98.5C 357.414,98.9574 357.914,99.2907 358.5,99.5C 359.368,97.2038 360.702,96.5371 362.5,97.5 Z"/></g>
<g><path style="opacity:1" fill="#2cdac8" d="M 82.5,91.5 C 82.8333,91.5 83.1667,91.5 83.5,91.5C 83.5,104.833 83.5,118.167 83.5,131.5C 83.1667,131.5 82.8333,131.5 82.5,131.5C 82.5,128.5 82.5,125.5 82.5,122.5C 79.8431,122.162 77.5098,122.829 75.5,124.5C 73.2753,123.899 71.1086,123.566 69,123.5C 66.3255,125.871 63.1589,127.037 59.5,127C 54.581,127.802 49.7477,127.635 45,126.5C 41.6667,127.167 38.3333,127.833 35,128.5C 33.5944,127.332 32.4277,127.665 31.5,129.5C 28.6891,126.821 26.1891,127.155 24,130.5C 21.9114,130.255 19.9114,130.255 18,130.5C 17.2917,129.619 16.4584,128.953 15.5,128.5C 15.176,121.646 15.5093,114.979 16.5,108.5C 26.3087,110.158 36.3087,111.491 46.5,112.5C 49.6901,111.358 52.8568,111.358 56,112.5C 59.8275,111.024 63.6608,110.691 67.5,111.5C 72.0294,110.051 76.6961,109.217 81.5,109C 82.4749,103.259 82.8082,97.4254 82.5,91.5 Z"/></g>
<g><path style="opacity:1" fill="#1cb6d0" d="M 248.5,115.5 C 248.5,125.5 248.5,135.5 248.5,145.5C 247.518,142.038 247.185,138.371 247.5,134.5C 247.5,129.833 247.5,125.167 247.5,120.5C 244.376,120.943 242.043,122.61 240.5,125.5C 237.947,126.805 235.28,127.805 232.5,128.5C 230.485,130.7 229.819,133.034 230.5,135.5C 228.231,133.418 225.731,131.418 223,129.5C 222.487,128.473 221.987,127.473 221.5,126.5C 221.297,124.61 221.963,123.11 223.5,122C 231.421,118.329 239.087,113.496 246.5,107.5C 247.168,110.306 247.834,112.972 248.5,115.5 Z"/></g>
<g><path style="opacity:1" fill="#afebe9" d="M 83.5,91.5 C 97.1707,91.3334 110.837,91.5001 124.5,92C 125.056,92.3826 125.389,92.8826 125.5,93.5C 111.882,92.5355 98.2156,92.2022 84.5,92.5C 84.8333,134.839 84.4999,177.172 83.5,219.5C 82.4777,219.145 81.811,218.478 81.5,217.5C 83.4461,212.604 84.1128,207.271 83.5,201.5C 83.5,189.833 83.5,178.167 83.5,166.5C 83.5,154.833 83.5,143.167 83.5,131.5C 83.5,118.167 83.5,104.833 83.5,91.5 Z"/></g>
<g><path style="opacity:1" fill="#1995da" d="M 367.5,110.5 C 367.5,116.167 367.5,121.833 367.5,127.5C 366.542,127.953 365.708,128.619 365,129.5C 363.274,128.424 361.441,128.257 359.5,129C 355.025,132.132 350.525,135.299 346,138.5C 345.667,138.167 345.333,137.833 345,137.5C 339.992,139.783 335.492,142.116 331.5,144.5C 330.158,143.098 329.324,143.431 329,145.5C 327.606,143.598 325.773,143.265 323.5,144.5C 323.649,145.552 323.483,146.552 323,147.5C 322.667,147.167 322.333,146.833 322,146.5C 318.651,148.356 315.318,150.356 312,152.5C 311,152.167 310,151.833 309,151.5C 306.25,152.889 303.75,154.556 301.5,156.5C 301.5,151.5 301.5,146.5 301.5,141.5C 304.725,140.514 308.392,139.181 312.5,137.5C 312.5,136.5 312.5,135.5 312.5,134.5C 314.477,133.851 316.31,133.851 318,134.5C 320.502,132.554 323.336,131.387 326.5,131C 327.973,130.29 328.64,129.124 328.5,127.5C 331.518,127.494 334.184,126.494 336.5,124.5C 337.086,124.709 337.586,125.043 338,125.5C 343.181,120.134 349.015,116.967 355.5,116C 356.035,113.891 357.035,113.391 358.5,114.5C 361.14,112.347 364.14,111.013 367.5,110.5 Z"/></g>
<g><path style="opacity:1" fill="#1dcac9" d="M 172.5,98.5 C 179.131,103.463 185.131,109.13 190.5,115.5C 188.516,116.983 186.683,118.649 185,120.5C 178.081,121.762 172.414,125.095 168,130.5C 166.532,128.964 165.032,128.63 163.5,129.5C 157.416,123.815 151.416,118.149 145.5,112.5C 149.451,111.541 153.284,109.541 157,106.5C 157.333,107.167 157.667,107.833 158,108.5C 162.602,106.077 167.102,103.41 171.5,100.5C 172.298,100.043 172.631,99.3764 172.5,98.5 Z"/></g>
<g><path style="opacity:1" fill="#25d4c8" d="M 82.5,131.5 C 82.7989,133.604 82.4656,135.604 81.5,137.5C 76.5335,136.74 71.5335,136.907 66.5,138C 65.9747,138.692 65.3081,139.192 64.5,139.5C 62.8988,138.835 61.3988,138.501 60,138.5C 57.3736,139.059 54.8736,140.225 52.5,142C 50.4325,142.687 48.4325,142.52 46.5,141.5C 44.3855,142.034 42.5522,143.034 41,144.5C 37.3874,143.851 33.7207,143.517 30,143.5C 27.1081,144.546 24.2748,145.546 21.5,146.5C 19.8606,144.194 17.8606,142.194 15.5,140.5C 15.5,136.5 15.5,132.5 15.5,128.5C 16.4584,128.953 17.2917,129.619 18,130.5C 19.9114,130.255 21.9114,130.255 24,130.5C 26.1891,127.155 28.6891,126.821 31.5,129.5C 32.4277,127.665 33.5944,127.332 35,128.5C 38.3333,127.833 41.6667,127.167 45,126.5C 49.7477,127.635 54.581,127.802 59.5,127C 63.1589,127.037 66.3255,125.871 69,123.5C 71.1086,123.566 73.2753,123.899 75.5,124.5C 77.5098,122.829 79.8431,122.162 82.5,122.5C 82.5,125.5 82.5,128.5 82.5,131.5 Z"/></g>
<g><path style="opacity:1" fill="#18bece" d="M 190.5,115.5 C 195.293,119.121 199.96,122.954 204.5,127C 207.061,130.382 209.727,133.549 212.5,136.5C 210.831,134.86 208.831,133.526 206.5,132.5C 204.194,134.639 201.527,136.139 198.5,137C 197.874,137.75 197.374,138.584 197,139.5C 195.667,139.5 194.333,139.5 193,139.5C 189.124,141.937 185.291,144.271 181.5,146.5C 174.819,141.378 168.819,135.711 163.5,129.5C 165.032,128.63 166.532,128.964 168,130.5C 172.414,125.095 178.081,121.762 185,120.5C 186.683,118.649 188.516,116.983 190.5,115.5 Z"/></g>
<g><path style="opacity:1" fill="#24b1d5" d="M 247.5,134.5 C 245.113,136.096 242.447,137.262 239.5,138C 238.845,139.487 237.845,140.653 236.5,141.5C 235.833,147.167 235.167,152.833 234.5,158.5C 233.893,158.376 233.56,158.043 233.5,157.5C 234.652,152.015 234.818,146.349 234,140.5C 232.824,138.804 231.657,137.138 230.5,135.5C 229.819,133.034 230.485,130.7 232.5,128.5C 235.28,127.805 237.947,126.805 240.5,125.5C 242.043,122.61 244.376,120.943 247.5,120.5C 247.5,125.167 247.5,129.833 247.5,134.5 Z"/></g>
<g><path style="opacity:1" fill="#198fe0" d="M 367.5,127.5 C 367.5,132.5 367.5,137.5 367.5,142.5C 361.458,144.233 355.292,146.566 349,149.5C 348.667,149.167 348.333,148.833 348,148.5C 346.981,149.687 345.814,150.687 344.5,151.5C 343.017,149.054 341.851,149.388 341,152.5C 340.667,152.167 340.333,151.833 340,151.5C 338.559,152.87 336.892,153.87 335,154.5C 333.237,154.694 331.403,154.694 329.5,154.5C 328.749,155.376 328.249,156.376 328,157.5C 326.57,157.694 325.07,157.694 323.5,157.5C 319.49,159.119 315.823,161.286 312.5,164C 311.207,164.49 309.873,164.657 308.5,164.5C 308.649,165.552 308.483,166.552 308,167.5C 305.919,166.667 303.752,166.667 301.5,167.5C 301.5,163.833 301.5,160.167 301.5,156.5C 303.75,154.556 306.25,152.889 309,151.5C 310,151.833 311,152.167 312,152.5C 315.318,150.356 318.651,148.356 322,146.5C 322.333,146.833 322.667,147.167 323,147.5C 323.483,146.552 323.649,145.552 323.5,144.5C 325.773,143.265 327.606,143.598 329,145.5C 329.324,143.431 330.158,143.098 331.5,144.5C 335.492,142.116 339.992,139.783 345,137.5C 345.333,137.833 345.667,138.167 346,138.5C 350.525,135.299 355.025,132.132 359.5,129C 361.441,128.257 363.274,128.424 365,129.5C 365.708,128.619 366.542,127.953 367.5,127.5 Z"/></g>
<g><path style="opacity:1" fill="#24cece" d="M 82.5,131.5 C 82.8333,131.5 83.1667,131.5 83.5,131.5C 83.5,143.167 83.5,154.833 83.5,166.5C 82.6618,166.158 82.3284,165.492 82.5,164.5C 82.8275,159.456 82.4941,154.456 81.5,149.5C 78.3814,151.684 75.048,152.351 71.5,151.5C 69.2674,151.864 67.434,152.864 66,154.5C 63.8274,152.099 61.4941,152.099 59,154.5C 57.4345,153.939 56.1011,154.606 55,156.5C 54.6667,155.833 54.3333,155.167 54,154.5C 51.7765,156.054 49.2765,157.054 46.5,157.5C 44.2273,156.572 41.894,156.572 39.5,157.5C 36.787,157.975 34.787,159.308 33.5,161.5C 28.79,157.087 24.79,152.087 21.5,146.5C 24.2748,145.546 27.1081,144.546 30,143.5C 33.7207,143.517 37.3874,143.851 41,144.5C 42.5522,143.034 44.3855,142.034 46.5,141.5C 48.4325,142.52 50.4325,142.687 52.5,142C 54.8736,140.225 57.3736,139.059 60,138.5C 61.3988,138.501 62.8988,138.835 64.5,139.5C 65.3081,139.192 65.9747,138.692 66.5,138C 71.5335,136.907 76.5335,136.74 81.5,137.5C 82.4656,135.604 82.7989,133.604 82.5,131.5 Z"/></g>
<g><path style="opacity:1" fill="#0fb1cf" d="M 212.5,136.5 C 217.167,140.5 221.5,144.833 225.5,149.5C 223.738,149.643 222.071,149.309 220.5,148.5C 217.86,150.653 214.86,151.987 211.5,152.5C 211.5,153.5 211.5,154.5 211.5,155.5C 208.19,155.461 205.524,156.794 203.5,159.5C 202.264,160.246 200.93,160.579 199.5,160.5C 199.5,161.5 199.5,162.5 199.5,163.5C 193.034,158.278 187.034,152.611 181.5,146.5C 185.291,144.271 189.124,141.937 193,139.5C 194.333,139.5 195.667,139.5 197,139.5C 197.374,138.584 197.874,137.75 198.5,137C 201.527,136.139 204.194,134.639 206.5,132.5C 208.831,133.526 210.831,134.86 212.5,136.5 Z"/></g>
<g><path style="opacity:1" fill="#1a89e1" d="M 367.5,142.5 C 367.5,146.833 367.5,151.167 367.5,155.5C 363.386,158.041 359.052,159.375 354.5,159.5C 352.912,160.01 351.745,161.01 351,162.5C 349.732,162.384 348.398,162.051 347,161.5C 343.53,164.581 339.696,165.748 335.5,165C 332.274,165.872 329.774,167.705 328,170.5C 327.275,169.941 326.442,169.608 325.5,169.5C 322.185,172.243 318.519,173.243 314.5,172.5C 310.195,175.807 305.861,178.14 301.5,179.5C 301.5,175.5 301.5,171.5 301.5,167.5C 303.752,166.667 305.919,166.667 308,167.5C 308.483,166.552 308.649,165.552 308.5,164.5C 309.873,164.657 311.207,164.49 312.5,164C 315.823,161.286 319.49,159.119 323.5,157.5C 325.07,157.694 326.57,157.694 328,157.5C 328.249,156.376 328.749,155.376 329.5,154.5C 331.403,154.694 333.237,154.694 335,154.5C 336.892,153.87 338.559,152.87 340,151.5C 340.333,151.833 340.667,152.167 341,152.5C 341.851,149.388 343.017,149.054 344.5,151.5C 345.814,150.687 346.981,149.687 348,148.5C 348.333,148.833 348.667,149.167 349,149.5C 355.292,146.566 361.458,144.233 367.5,142.5 Z"/></g>
<g><path style="opacity:1" fill="#1bc8ce" d="M 82.5,164.5 C 80.857,164.48 79.5237,165.147 78.5,166.5C 77.5224,166.023 76.6891,165.357 76,164.5C 71.9419,165.901 67.9419,167.568 64,169.5C 61.0893,169.218 58.256,169.218 55.5,169.5C 51.6458,172.111 47.6458,173.445 43.5,173.5C 39.8197,169.817 36.4864,165.817 33.5,161.5C 34.787,159.308 36.787,157.975 39.5,157.5C 41.894,156.572 44.2273,156.572 46.5,157.5C 49.2765,157.054 51.7765,156.054 54,154.5C 54.3333,155.167 54.6667,155.833 55,156.5C 56.1011,154.606 57.4345,153.939 59,154.5C 61.4941,152.099 63.8274,152.099 66,154.5C 67.434,152.864 69.2674,151.864 71.5,151.5C 75.048,152.351 78.3814,151.684 81.5,149.5C 82.4941,154.456 82.8275,159.456 82.5,164.5 Z"/></g>
<g><path style="opacity:1" fill="#0fa5d4" d="M 247.5,134.5 C 247.185,138.371 247.518,142.038 248.5,145.5C 248.5,156.167 248.5,166.833 248.5,177.5C 247.833,171.654 247.167,165.654 246.5,159.5C 245.28,160.711 244.113,160.711 243,159.5C 239.28,161.638 235.78,164.138 232.5,167C 229.993,167.093 227.826,167.926 226,169.5C 225.667,169.167 225.333,168.833 225,168.5C 222.328,171.84 218.828,173.674 214.5,174C 213.748,174.671 213.414,175.504 213.5,176.5C 208.206,172.873 203.539,168.54 199.5,163.5C 199.5,162.5 199.5,161.5 199.5,160.5C 200.93,160.579 202.264,160.246 203.5,159.5C 205.524,156.794 208.19,155.461 211.5,155.5C 211.5,154.5 211.5,153.5 211.5,152.5C 214.86,151.987 217.86,150.653 220.5,148.5C 222.071,149.309 223.738,149.643 225.5,149.5C 228.527,151.86 231.194,154.527 233.5,157.5C 233.56,158.043 233.893,158.376 234.5,158.5C 235.167,152.833 235.833,147.167 236.5,141.5C 237.845,140.653 238.845,139.487 239.5,138C 242.447,137.262 245.113,136.096 247.5,134.5 Z"/></g>
<g><path style="opacity:1" fill="#1e83e1" d="M 367.5,155.5 C 367.5,159.5 367.5,163.5 367.5,167.5C 364.433,169.398 361.266,170.065 358,169.5C 356.281,171.716 354.114,173.383 351.5,174.5C 345.479,173.43 340.146,175.097 335.5,179.5C 334.167,179.167 332.833,178.833 331.5,178.5C 322.33,181.21 314.163,184.877 307,189.5C 304.702,188.554 302.868,189.221 301.5,191.5C 301.5,187.5 301.5,183.5 301.5,179.5C 305.861,178.14 310.195,175.807 314.5,172.5C 318.519,173.243 322.185,172.243 325.5,169.5C 326.442,169.608 327.275,169.941 328,170.5C 329.774,167.705 332.274,165.872 335.5,165C 339.696,165.748 343.53,164.581 347,161.5C 348.398,162.051 349.732,162.384 351,162.5C 351.745,161.01 352.912,160.01 354.5,159.5C 359.052,159.375 363.386,158.041 367.5,155.5 Z"/></g>
<g><path style="opacity:1" fill="#b0d3f2" d="M 252.5,91.5 C 259.5,91.5 266.5,91.5 273.5,91.5C 280.5,91.5 287.5,91.5 294.5,91.5C 296.833,91.5 299.167,91.5 301.5,91.5C 301.5,95.1667 301.5,98.8333 301.5,102.5C 301.5,107.167 301.5,111.833 301.5,116.5C 301.5,120.833 301.5,125.167 301.5,129.5C 301.5,133.5 301.5,137.5 301.5,141.5C 301.5,146.5 301.5,151.5 301.5,156.5C 301.5,160.167 301.5,163.833 301.5,167.5C 301.5,171.5 301.5,175.5 301.5,179.5C 301.5,183.5 301.5,187.5 301.5,191.5C 301.5,195.167 301.5,198.833 301.5,202.5C 301.5,206.167 301.5,209.833 301.5,213.5C 301.5,217.5 301.5,221.5 301.5,225.5C 301.5,229.167 301.5,232.833 301.5,236.5C 301.5,240.167 301.5,243.833 301.5,247.5C 301.5,254.5 301.5,261.5 301.5,268.5C 301.5,275.167 301.5,281.833 301.5,288.5C 301.5,288.833 301.5,289.167 301.5,289.5C 287.99,289.829 274.656,289.496 261.5,288.5C 274.5,288.5 287.5,288.5 300.5,288.5C 300.5,223.167 300.5,157.833 300.5,92.5C 283.5,92.5 266.5,92.5 249.5,92.5C 249.832,132.004 249.499,171.337 248.5,210.5C 248.5,199.5 248.5,188.5 248.5,177.5C 248.5,166.833 248.5,156.167 248.5,145.5C 248.5,135.5 248.5,125.5 248.5,115.5C 248.5,107.5 248.5,99.5 248.5,91.5C 249.833,91.5 251.167,91.5 252.5,91.5 Z"/></g>
<g><path style="opacity:1" fill="#1ec0cf" d="M 82.5,164.5 C 82.3284,165.492 82.6618,166.158 83.5,166.5C 83.5,178.167 83.5,189.833 83.5,201.5C 82.9389,197.171 82.1055,192.838 81,188.5C 74.8377,191.775 69.0044,194.441 63.5,196.5C 62.5041,196.586 61.6708,196.252 61,195.5C 54.9528,188.292 49.1195,180.958 43.5,173.5C 47.6458,173.445 51.6458,172.111 55.5,169.5C 58.256,169.218 61.0893,169.218 64,169.5C 67.9419,167.568 71.9419,165.901 76,164.5C 76.6891,165.357 77.5224,166.023 78.5,166.5C 79.5237,165.147 80.857,164.48 82.5,164.5 Z"/></g>
<g><path style="opacity:1" fill="#1f7de1" d="M 367.5,167.5 C 367.5,172.5 367.5,177.5 367.5,182.5C 363.799,184.055 359.965,185.388 356,186.5C 355,186.167 354,185.833 353,185.5C 349.842,187.076 346.675,188.576 343.5,190C 338.35,190.268 333.35,191.268 328.5,193C 325.075,196.035 321.241,197.202 317,196.5C 312.446,199.312 307.779,201.979 303,204.5C 302.722,203.584 302.222,202.918 301.5,202.5C 301.5,198.833 301.5,195.167 301.5,191.5C 302.868,189.221 304.702,188.554 307,189.5C 314.163,184.877 322.33,181.21 331.5,178.5C 332.833,178.833 334.167,179.167 335.5,179.5C 340.146,175.097 345.479,173.43 351.5,174.5C 354.114,173.383 356.281,171.716 358,169.5C 361.266,170.065 364.433,169.398 367.5,167.5 Z"/></g>
<g><path style="opacity:1" fill="#1299da" d="M 248.5,177.5 C 248.5,188.5 248.5,199.5 248.5,210.5C 247.5,210.167 246.833,209.5 246.5,208.5C 247.493,200.016 247.826,191.349 247.5,182.5C 243.91,183.298 241.577,185.464 240.5,189C 237.814,190.368 235.147,191.701 232.5,193C 233.823,193.816 234.489,194.983 234.5,196.5C 227.084,190.56 220.084,183.893 213.5,176.5C 213.414,175.504 213.748,174.671 214.5,174C 218.828,173.674 222.328,171.84 225,168.5C 225.333,168.833 225.667,169.167 226,169.5C 227.826,167.926 229.993,167.093 232.5,167C 235.78,164.138 239.28,161.638 243,159.5C 244.113,160.711 245.28,160.711 246.5,159.5C 247.167,165.654 247.833,171.654 248.5,177.5 Z"/></g>
<g><path style="opacity:1" fill="#24c4cf" d="M 15.5,159.5 C 23.1517,168.161 30.485,177.161 37.5,186.5C 34.7434,188.939 31.91,190.606 29,191.5C 26.4992,189.543 23.8326,188.877 21,189.5C 20.3211,193.059 18.4878,194.059 15.5,192.5C 15.5,181.5 15.5,170.5 15.5,159.5 Z"/></g>
<g><path style="opacity:1" fill="#138ee0" d="M 246.5,208.5 C 242.527,204.527 238.527,200.527 234.5,196.5C 234.489,194.983 233.823,193.816 232.5,193C 235.147,191.701 237.814,190.368 240.5,189C 241.577,185.464 243.91,183.298 247.5,182.5C 247.826,191.349 247.493,200.016 246.5,208.5 Z"/></g>
<g><path style="opacity:1" fill="#1eb5d5" d="M 83.5,201.5 C 84.1128,207.271 83.4461,212.604 81.5,217.5C 75.409,210.485 69.409,203.485 63.5,196.5C 69.0044,194.441 74.8377,191.775 81,188.5C 82.1055,192.838 82.9389,197.171 83.5,201.5 Z"/></g>
<g><path style="opacity:1" fill="#12acd4" d="M 163.5,195.5 C 161.534,194.559 159.534,193.559 157.5,192.5C 156.019,193.48 154.685,194.647 153.5,196C 147.818,197.437 142.818,199.437 138.5,202C 137.865,205.603 137.198,209.103 136.5,212.5C 136.333,198.496 136.5,184.496 137,170.5C 145.952,178.616 154.786,186.95 163.5,195.5 Z"/></g>
<g><path style="opacity:1" fill="#2076e5" d="M 367.5,182.5 C 367.5,187.167 367.5,191.833 367.5,196.5C 364.813,196.336 362.146,196.503 359.5,197C 358.965,199.109 357.965,199.609 356.5,198.5C 349.897,200.519 343.063,201.853 336,202.5C 332.564,204.834 328.731,206.5 324.5,207.5C 323.707,207.069 322.873,206.735 322,206.5C 315.664,210.268 308.831,212.601 301.5,213.5C 301.5,209.833 301.5,206.167 301.5,202.5C 302.222,202.918 302.722,203.584 303,204.5C 307.779,201.979 312.446,199.312 317,196.5C 321.241,197.202 325.075,196.035 328.5,193C 333.35,191.268 338.35,190.268 343.5,190C 346.675,188.576 349.842,187.076 353,185.5C 354,185.833 355,186.167 356,186.5C 359.965,185.388 363.799,184.055 367.5,182.5 Z"/></g>
<g><path style="opacity:1" fill="#0ba1d4" d="M 163.5,195.5 C 166.5,199.167 169.833,202.5 173.5,205.5C 166.81,204.385 160.644,205.718 155,209.5C 153.39,209.87 151.89,209.203 150.5,207.5C 148.336,207.998 146.669,209.164 145.5,211C 143.212,211.822 140.878,212.489 138.5,213C 137.865,216.603 137.198,220.103 136.5,223.5C 136.5,219.833 136.5,216.167 136.5,212.5C 137.198,209.103 137.865,205.603 138.5,202C 142.818,199.437 147.818,197.437 153.5,196C 154.685,194.647 156.019,193.48 157.5,192.5C 159.534,193.559 161.534,194.559 163.5,195.5 Z"/></g>
<g><path style="opacity:1" fill="#2570e6" d="M 367.5,196.5 C 367.5,200.833 367.5,205.167 367.5,209.5C 366.518,208.859 365.518,208.193 364.5,207.5C 359.074,210.95 353.241,212.283 347,211.5C 338.574,214.949 329.741,217.115 320.5,218C 314.111,220.624 307.777,223.124 301.5,225.5C 301.5,221.5 301.5,217.5 301.5,213.5C 308.831,212.601 315.664,210.268 322,206.5C 322.873,206.735 323.707,207.069 324.5,207.5C 328.731,206.5 332.564,204.834 336,202.5C 343.063,201.853 349.897,200.519 356.5,198.5C 357.965,199.609 358.965,199.109 359.5,197C 362.146,196.503 364.813,196.336 367.5,196.5 Z"/></g>
<g><path style="opacity:1" fill="#1cb7d4" d="M 37.5,186.5 C 44.8437,194.178 51.8437,202.178 58.5,210.5C 54.0271,211.936 49.5271,213.269 45,214.5C 43.8831,214.335 42.7164,214.002 41.5,213.5C 39.1726,213.956 37.3393,215.623 36,218.5C 34.6012,218.499 33.1012,218.165 31.5,217.5C 29.2674,217.864 27.434,218.864 26,220.5C 22.4962,219.362 18.9962,220.028 15.5,222.5C 15.5,212.5 15.5,202.5 15.5,192.5C 18.4878,194.059 20.3211,193.059 21,189.5C 23.8326,188.877 26.4992,189.543 29,191.5C 31.91,190.606 34.7434,188.939 37.5,186.5 Z"/></g>
<g><path style="opacity:1" fill="#256ae7" d="M 367.5,209.5 C 367.5,213.167 367.5,216.833 367.5,220.5C 364.052,220.108 360.886,220.775 358,222.5C 353.195,221.783 348.361,221.95 343.5,223C 342.874,223.75 342.374,224.584 342,225.5C 341.311,224.643 340.478,223.977 339.5,223.5C 332.18,226.601 324.68,229.268 317,231.5C 316.586,231.043 316.086,230.709 315.5,230.5C 311.697,232.261 307.697,233.261 303.5,233.5C 303.715,235.179 303.048,236.179 301.5,236.5C 301.5,232.833 301.5,229.167 301.5,225.5C 307.777,223.124 314.111,220.624 320.5,218C 329.741,217.115 338.574,214.949 347,211.5C 353.241,212.283 359.074,210.95 364.5,207.5C 365.518,208.193 366.518,208.859 367.5,209.5 Z"/></g>
<g><path style="opacity:1" fill="#0b97da" d="M 173.5,205.5 C 179.167,210.833 184.833,216.167 190.5,221.5C 188.772,220.621 186.939,219.954 185,219.5C 176.024,222.294 167.024,224.961 158,227.5C 154.432,229.026 150.599,230.86 146.5,233C 145.299,233.903 144.465,235.069 144,236.5C 143.586,236.043 143.086,235.709 142.5,235.5C 141.41,236.727 140.076,237.56 138.5,238C 137.915,239.302 137.249,240.469 136.5,241.5C 136.5,235.5 136.5,229.5 136.5,223.5C 137.198,220.103 137.865,216.603 138.5,213C 140.878,212.489 143.212,211.822 145.5,211C 146.669,209.164 148.336,207.998 150.5,207.5C 151.89,209.203 153.39,209.87 155,209.5C 160.644,205.718 166.81,204.385 173.5,205.5 Z"/></g>
<g><path style="opacity:1" fill="#16afd5" d="M 58.5,210.5 C 61.5,213.833 64.5,217.167 67.5,220.5C 64.3363,221.658 61.5029,223.325 59,225.5C 57.4748,225.888 55.8082,225.888 54,225.5C 52.9207,227.394 51.5874,227.727 50,226.5C 44.7496,230.479 38.9163,232.646 32.5,233C 27.5171,234.654 23.0171,237.154 19,240.5C 18.1841,239.177 17.0174,238.511 15.5,238.5C 15.5,233.167 15.5,227.833 15.5,222.5C 18.9962,220.028 22.4962,219.362 26,220.5C 27.434,218.864 29.2674,217.864 31.5,217.5C 33.1012,218.165 34.6012,218.499 36,218.5C 37.3393,215.623 39.1726,213.956 41.5,213.5C 42.7164,214.002 43.8831,214.335 45,214.5C 49.5271,213.269 54.0271,211.936 58.5,210.5 Z"/></g>
<g><path style="opacity:1" fill="#15a8d9" d="M 67.5,220.5 C 70.5398,223.539 73.2065,226.873 75.5,230.5C 69.61,232.587 64.4434,235.253 60,238.5C 57.5883,237.525 55.5883,238.192 54,240.5C 52.984,239.366 52.3173,239.699 52,241.5C 51.586,241.043 51.086,240.709 50.5,240.5C 48.2304,242.691 45.7304,243.358 43,242.5C 41.1026,242.896 39.6026,243.896 38.5,245.5C 37.8333,245.167 37.1667,244.833 36.5,244.5C 33.1667,246.833 29.8333,249.167 26.5,251.5C 25.914,251.291 25.414,250.957 25,250.5C 22.5593,252.523 19.8927,254.189 17,255.5C 16.6174,254.944 16.1174,254.611 15.5,254.5C 15.5,249.167 15.5,243.833 15.5,238.5C 17.0174,238.511 18.1841,239.177 19,240.5C 23.0171,237.154 27.5171,234.654 32.5,233C 38.9163,232.646 44.7496,230.479 50,226.5C 51.5874,227.727 52.9207,227.394 54,225.5C 55.8082,225.888 57.4748,225.888 59,225.5C 61.5029,223.325 64.3363,221.658 67.5,220.5 Z"/></g>
<g><path style="opacity:1" fill="#108fe1" d="M 190.5,221.5 C 192.5,222.833 194.167,224.5 195.5,226.5C 193.284,225.797 191.451,224.464 190,222.5C 187.455,223.522 184.955,224.688 182.5,226C 182.833,226.333 183.167,226.667 183.5,227C 182.146,228.294 180.812,228.46 179.5,227.5C 178.749,228.376 178.249,229.376 178,230.5C 174.958,228.373 172.125,228.873 169.5,232C 169.833,232.333 170.167,232.667 170.5,233C 166.035,233.313 162.868,235.479 161,239.5C 159.413,238.273 158.079,238.606 157,240.5C 155.092,239.921 153.425,239.921 152,240.5C 151.716,242.886 150.716,243.552 149,242.5C 147.415,243.376 146.415,244.709 146,246.5C 145.667,246.167 145.333,245.833 145,245.5C 143.005,247.747 140.505,248.747 137.5,248.5C 137.5,252.5 137.5,256.5 137.5,260.5C 137.5,264.5 137.5,268.5 137.5,272.5C 136.506,262.347 136.172,252.014 136.5,241.5C 137.249,240.469 137.915,239.302 138.5,238C 140.076,237.56 141.41,236.727 142.5,235.5C 143.086,235.709 143.586,236.043 144,236.5C 144.465,235.069 145.299,233.903 146.5,233C 150.599,230.86 154.432,229.026 158,227.5C 167.024,224.961 176.024,222.294 185,219.5C 186.939,219.954 188.772,220.621 190.5,221.5 Z"/></g>
<g><path style="opacity:1" fill="#2d65e8" d="M 367.5,220.5 C 367.5,225.5 367.5,230.5 367.5,235.5C 360.183,235.57 352.849,235.57 345.5,235.5C 341.055,237.416 336.555,238.082 332,237.5C 329.367,239.233 326.534,240.566 323.5,241.5C 322.702,241.957 322.369,242.624 322.5,243.5C 320.496,242.327 318.996,240.66 318,238.5C 317.5,245.158 317.334,251.825 317.5,258.5C 315.72,254.273 314.886,249.606 315,244.5C 310.435,246.098 305.935,247.098 301.5,247.5C 301.5,243.833 301.5,240.167 301.5,236.5C 303.048,236.179 303.715,235.179 303.5,233.5C 307.697,233.261 311.697,232.261 315.5,230.5C 316.086,230.709 316.586,231.043 317,231.5C 324.68,229.268 332.18,226.601 339.5,223.5C 340.478,223.977 341.311,224.643 342,225.5C 342.374,224.584 342.874,223.75 343.5,223C 348.361,221.95 353.195,221.783 358,222.5C 360.886,220.775 364.052,220.108 367.5,220.5 Z"/></g>
<g><path style="opacity:1" fill="#16a2da" d="M 75.5,230.5 C 78.8704,232.885 82.0371,235.552 85,238.5C 85.4643,239.094 85.631,239.761 85.5,240.5C 84.5041,240.586 83.6708,240.252 83,239.5C 82.6758,241.569 81.8425,241.902 80.5,240.5C 77.329,241.006 74.9957,242.672 73.5,245.5C 71.6707,244.718 70.1707,245.384 69,247.5C 68.586,247.043 68.086,246.709 67.5,246.5C 64.7766,248.398 61.9432,250.065 59,251.5C 58.6667,251.167 58.3333,250.833 58,250.5C 55.834,252.121 53.334,252.955 50.5,253C 49.7801,255.122 48.6134,255.622 47,254.5C 42.2046,258.817 36.7046,261.983 30.5,264C 29.4517,266.2 27.9517,266.7 26,265.5C 21.5573,267.095 18.0573,269.095 15.5,271.5C 15.5,265.833 15.5,260.167 15.5,254.5C 16.1174,254.611 16.6174,254.944 17,255.5C 19.8927,254.189 22.5593,252.523 25,250.5C 25.414,250.957 25.914,251.291 26.5,251.5C 29.8333,249.167 33.1667,246.833 36.5,244.5C 37.1667,244.833 37.8333,245.167 38.5,245.5C 39.6026,243.896 41.1026,242.896 43,242.5C 45.7304,243.358 48.2304,242.691 50.5,240.5C 51.086,240.709 51.586,241.043 52,241.5C 52.3173,239.699 52.984,239.366 54,240.5C 55.5883,238.192 57.5883,237.525 60,238.5C 64.4434,235.253 69.61,232.587 75.5,230.5 Z"/></g>
<g><path style="opacity:1" fill="#2c5be7" d="M 367.5,235.5 C 367.5,243.5 367.5,251.5 367.5,259.5C 359.245,258.366 350.912,258.199 342.5,259C 340.676,261.081 339.009,260.915 337.5,258.5C 336.5,259 335.5,259.5 334.5,260C 335.337,261.011 335.67,262.178 335.5,263.5C 330.698,257.252 326.364,250.586 322.5,243.5C 322.369,242.624 322.702,241.957 323.5,241.5C 326.534,240.566 329.367,239.233 332,237.5C 336.555,238.082 341.055,237.416 345.5,235.5C 352.849,235.57 360.183,235.57 367.5,235.5 Z"/></g>
<g><path style="opacity:1" fill="#1d7de7" d="M 205.5,236.5 C 209.192,239.862 212.859,243.195 216.5,246.5C 211.433,244.563 206.933,245.896 203,250.5C 202.667,250.167 202.333,249.833 202,249.5C 194.344,255.578 185.844,259.911 176.5,262.5C 176.5,263.5 176.5,264.5 176.5,265.5C 168.843,266.962 162.176,270.462 156.5,276C 152.876,275.987 149.876,277.32 147.5,280C 148.756,280.417 149.423,281.25 149.5,282.5C 146.945,280.641 144.278,278.807 141.5,277C 140.614,275.385 139.614,273.885 138.5,272.5C 140.914,270.329 143.581,268.329 146.5,266.5C 150.226,264.397 154.226,262.897 158.5,262C 157.167,261.333 157.167,260.667 158.5,260C 161.572,259.23 164.238,257.73 166.5,255.5C 167.716,256.002 168.883,256.335 170,256.5C 171.616,254.78 173.116,253.114 174.5,251.5C 178.338,250.543 181.838,248.543 185,245.5C 188.338,245.114 191.671,243.114 195,239.5C 196,239.833 197,240.167 198,240.5C 200.157,238.505 202.657,237.172 205.5,236.5 Z"/></g>
<g><path style="opacity:1" fill="#1189e1" d="M 195.5,226.5 C 197.5,227.833 199.167,229.5 200.5,231.5C 198.83,231.249 197.33,230.582 196,229.5C 195.646,231.807 194.646,232.141 193,230.5C 191.349,231.742 189.515,232.576 187.5,233C 180.737,237.799 173.571,242.632 166,247.5C 165.667,246.833 165.333,246.167 165,245.5C 164.044,246.579 163.211,247.745 162.5,249C 158.029,250.6 153.862,252.767 150,255.5C 149.667,255.167 149.333,254.833 149,254.5C 146.08,258.345 142.747,259.678 139,258.5C 138.722,259.416 138.222,260.082 137.5,260.5C 137.5,256.5 137.5,252.5 137.5,248.5C 140.505,248.747 143.005,247.747 145,245.5C 145.333,245.833 145.667,246.167 146,246.5C 146.415,244.709 147.415,243.376 149,242.5C 150.716,243.552 151.716,242.886 152,240.5C 153.425,239.921 155.092,239.921 157,240.5C 158.079,238.606 159.413,238.273 161,239.5C 162.868,235.479 166.035,233.313 170.5,233C 170.167,232.667 169.833,232.333 169.5,232C 172.125,228.873 174.958,228.373 178,230.5C 178.249,229.376 178.749,228.376 179.5,227.5C 180.812,228.46 182.146,228.294 183.5,227C 183.167,226.667 182.833,226.333 182.5,226C 184.955,224.688 187.455,223.522 190,222.5C 191.451,224.464 193.284,225.797 195.5,226.5 Z"/></g>
<g><path style="opacity:1" fill="#179cda" d="M 85.5,240.5 C 88.8704,242.885 92.0371,245.552 95,248.5C 95.4643,249.094 95.631,249.761 95.5,250.5C 94.1779,250.67 93.0113,250.337 92,249.5C 90.738,251.303 89.0713,252.636 87,253.5C 86.6667,253.167 86.3333,252.833 86,252.5C 78.2785,256.171 70.2785,258.838 62,260.5C 61.586,260.043 61.086,259.709 60.5,259.5C 53.3244,262.826 46.491,266.826 40,271.5C 39.6667,271.167 39.3333,270.833 39,270.5C 36.9285,271.525 34.7619,272.358 32.5,273C 27.8742,276.773 23.2076,279.607 18.5,281.5C 16.8993,278.45 15.8993,275.116 15.5,271.5C 18.0573,269.095 21.5573,267.095 26,265.5C 27.9517,266.7 29.4517,266.2 30.5,264C 36.7046,261.983 42.2046,258.817 47,254.5C 48.6134,255.622 49.7801,255.122 50.5,253C 53.334,252.955 55.834,252.121 58,250.5C 58.3333,250.833 58.6667,251.167 59,251.5C 61.9432,250.065 64.7766,248.398 67.5,246.5C 68.086,246.709 68.586,247.043 69,247.5C 70.1707,245.384 71.6707,244.718 73.5,245.5C 74.9957,242.672 77.329,241.006 80.5,240.5C 81.8425,241.902 82.6758,241.569 83,239.5C 83.6708,240.252 84.5041,240.586 85.5,240.5 Z"/></g>
<g><path style="opacity:1" fill="#f2f3f9" d="M 322.5,243.5 C 326.364,250.586 330.698,257.252 335.5,263.5C 342.562,273.901 349.229,284.567 355.5,295.5C 353.037,299.3 349.704,301.967 345.5,303.5C 342.262,297.257 338.595,291.257 334.5,285.5C 332.902,281.289 330.568,277.622 327.5,274.5C 324.178,269.195 320.844,263.861 317.5,258.5C 317.334,251.825 317.5,245.158 318,238.5C 318.996,240.66 320.496,242.327 322.5,243.5 Z"/></g>
<g><path style="opacity:1" fill="#1783e6" d="M 200.5,231.5 C 202.5,232.833 204.167,234.5 205.5,236.5C 202.657,237.172 200.157,238.505 198,240.5C 197,240.167 196,239.833 195,239.5C 191.671,243.114 188.338,245.114 185,245.5C 181.838,248.543 178.338,250.543 174.5,251.5C 173.116,253.114 171.616,254.78 170,256.5C 168.883,256.335 167.716,256.002 166.5,255.5C 164.238,257.73 161.572,259.23 158.5,260C 157.167,260.667 157.167,261.333 158.5,262C 154.226,262.897 150.226,264.397 146.5,266.5C 143.581,268.329 140.914,270.329 138.5,272.5C 138.167,272.5 137.833,272.5 137.5,272.5C 137.5,268.5 137.5,264.5 137.5,260.5C 138.222,260.082 138.722,259.416 139,258.5C 142.747,259.678 146.08,258.345 149,254.5C 149.333,254.833 149.667,255.167 150,255.5C 153.862,252.767 158.029,250.6 162.5,249C 163.211,247.745 164.044,246.579 165,245.5C 165.333,246.167 165.667,246.833 166,247.5C 173.571,242.632 180.737,237.799 187.5,233C 189.515,232.576 191.349,231.742 193,230.5C 194.646,232.141 195.646,231.807 196,229.5C 197.33,230.582 198.83,231.249 200.5,231.5 Z"/></g>
<g><path style="opacity:1" fill="#2676ed" d="M 216.5,246.5 C 219.5,248.833 222.167,251.5 224.5,254.5C 222.956,254.297 221.622,253.63 220.5,252.5C 217.002,254.75 213.336,256.75 209.5,258.5C 208.914,258.291 208.414,257.957 208,257.5C 203.632,261.768 198.466,264.601 192.5,266C 189.64,268.36 186.64,270.527 183.5,272.5C 182.914,272.291 182.414,271.957 182,271.5C 177.395,275.122 172.561,278.289 167.5,281C 165.608,281.973 163.608,282.64 161.5,283C 159.922,285.416 157.922,287.25 155.5,288.5C 152.5,287.5 150.5,285.5 149.5,282.5C 149.423,281.25 148.756,280.417 147.5,280C 149.876,277.32 152.876,275.987 156.5,276C 162.176,270.462 168.843,266.962 176.5,265.5C 176.5,264.5 176.5,263.5 176.5,262.5C 185.844,259.911 194.344,255.578 202,249.5C 202.333,249.833 202.667,250.167 203,250.5C 206.933,245.896 211.433,244.563 216.5,246.5 Z"/></g>
<g><path style="opacity:1" fill="#2a70ee" d="M 224.5,254.5 C 226.858,256.529 229.192,258.529 231.5,260.5C 229.143,260.337 226.81,260.503 224.5,261C 221.152,262.61 217.819,264.11 214.5,265.5C 214.5,266.5 214.5,267.5 214.5,268.5C 206.546,270.895 199.046,274.229 192,278.5C 191.667,278.167 191.333,277.833 191,277.5C 184.137,283.678 176.303,288.178 167.5,291C 165.365,291.876 164.031,293.376 163.5,295.5C 160.418,293.628 157.751,291.295 155.5,288.5C 157.922,287.25 159.922,285.416 161.5,283C 163.608,282.64 165.608,281.973 167.5,281C 172.561,278.289 177.395,275.122 182,271.5C 182.414,271.957 182.914,272.291 183.5,272.5C 186.64,270.527 189.64,268.36 192.5,266C 198.466,264.601 203.632,261.768 208,257.5C 208.414,257.957 208.914,258.291 209.5,258.5C 213.336,256.75 217.002,254.75 220.5,252.5C 221.622,253.63 222.956,254.297 224.5,254.5 Z"/></g>
<g><path style="opacity:1" fill="#3259ec" d="M 317.5,258.5 C 320.844,263.861 324.178,269.195 327.5,274.5C 325.565,273.85 323.565,273.517 321.5,273.5C 320.796,270.021 319.63,266.688 318,263.5C 316,266.167 314,266.167 312,263.5C 308.525,265.158 305.025,266.825 301.5,268.5C 301.5,261.5 301.5,254.5 301.5,247.5C 305.935,247.098 310.435,246.098 315,244.5C 314.886,249.606 315.72,254.273 317.5,258.5 Z"/></g>
<g><path style="opacity:1" fill="#1996e1" d="M 95.5,250.5 C 99.0468,253.257 102.38,256.257 105.5,259.5C 103.516,259.617 101.85,258.95 100.5,257.5C 96.8365,259.979 92.8365,261.812 88.5,263C 86.8753,263.853 86.5419,264.853 87.5,266C 86.5509,266.617 85.7175,266.451 85,265.5C 82.6959,267.068 80.1959,268.235 77.5,269C 75.9588,270.579 74.7922,272.413 74,274.5C 73.2753,273.941 72.4419,273.608 71.5,273.5C 67.9393,275.11 64.6059,276.943 61.5,279C 60.9647,281.109 59.9647,281.609 58.5,280.5C 55.5,282.5 52.5,284.5 49.5,286.5C 48.0353,285.391 47.0353,285.891 46.5,288C 40.1868,290.177 34.5202,293.344 29.5,297.5C 24.2793,293.272 20.6126,287.938 18.5,281.5C 23.2076,279.607 27.8742,276.773 32.5,273C 34.7619,272.358 36.9285,271.525 39,270.5C 39.3333,270.833 39.6667,271.167 40,271.5C 46.491,266.826 53.3244,262.826 60.5,259.5C 61.086,259.709 61.586,260.043 62,260.5C 70.2785,258.838 78.2785,256.171 86,252.5C 86.3333,252.833 86.6667,253.167 87,253.5C 89.0713,252.636 90.738,251.303 92,249.5C 93.0113,250.337 94.1779,250.67 95.5,250.5 Z"/></g>
<g><path style="opacity:1" fill="#326af1" d="M 231.5,260.5 C 233.806,262.139 235.806,264.139 237.5,266.5C 236.417,266.461 235.417,266.127 234.5,265.5C 229.12,268.043 224.12,271.21 219.5,275C 212.907,277.265 207.074,280.765 202,285.5C 201.667,284.833 201.333,284.167 201,283.5C 195.394,287.717 189.561,291.55 183.5,295C 181.285,295.17 179.285,295.837 177.5,297C 178.308,297.308 178.975,297.808 179.5,298.5C 177.13,301.753 177.13,305.086 179.5,308.5C 173.557,304.887 168.223,300.554 163.5,295.5C 164.031,293.376 165.365,291.876 167.5,291C 176.303,288.178 184.137,283.678 191,277.5C 191.333,277.833 191.667,278.167 192,278.5C 199.046,274.229 206.546,270.895 214.5,268.5C 214.5,267.5 214.5,266.5 214.5,265.5C 217.819,264.11 221.152,262.61 224.5,261C 226.81,260.503 229.143,260.337 231.5,260.5 Z"/></g>
<g><path style="opacity:1" fill="#198fe1" d="M 105.5,259.5 C 107.495,261.304 109.162,263.304 110.5,265.5C 109.178,265.67 108.011,265.337 107,264.5C 105.954,266.09 104.787,267.59 103.5,269C 100.58,269.408 98.2462,270.741 96.5,273C 88.1383,274.858 81.1383,279.025 75.5,285.5C 74.914,285.291 74.414,284.957 74,284.5C 69.7389,287.339 65.4056,290.672 61,294.5C 59.6667,294.5 58.3333,294.5 57,294.5C 52.7506,299.328 47.584,302.995 41.5,305.5C 36.6783,304.002 32.6783,301.336 29.5,297.5C 34.5202,293.344 40.1868,290.177 46.5,288C 47.0353,285.891 48.0353,285.391 49.5,286.5C 52.5,284.5 55.5,282.5 58.5,280.5C 59.9647,281.609 60.9647,281.109 61.5,279C 64.6059,276.943 67.9393,275.11 71.5,273.5C 72.4419,273.608 73.2753,273.941 74,274.5C 74.7922,272.413 75.9588,270.579 77.5,269C 80.1959,268.235 82.6959,267.068 85,265.5C 85.7175,266.451 86.5509,266.617 87.5,266C 86.5419,264.853 86.8753,263.853 88.5,263C 92.8365,261.812 96.8365,259.979 100.5,257.5C 101.85,258.95 103.516,259.617 105.5,259.5 Z"/></g>
<g><path style="opacity:1" fill="#1989e1" d="M 110.5,265.5 C 113.833,266.833 116.167,269.167 117.5,272.5C 113.564,274.898 109.731,277.231 106,279.5C 103.81,278.416 102.144,279.083 101,281.5C 100.667,281.167 100.333,280.833 100,280.5C 96.4369,283.275 93.1036,286.275 90,289.5C 89.6667,289.167 89.3333,288.833 89,288.5C 86.302,291.635 83.302,293.635 80,294.5C 74.4087,298.415 69.0754,302.749 64,307.5C 63.586,307.043 63.086,306.709 62.5,306.5C 60.3965,309.27 58.0632,311.604 55.5,313.5C 50.4997,311.336 45.833,308.669 41.5,305.5C 47.584,302.995 52.7506,299.328 57,294.5C 58.3333,294.5 59.6667,294.5 61,294.5C 65.4056,290.672 69.7389,287.339 74,284.5C 74.414,284.957 74.914,285.291 75.5,285.5C 81.1383,279.025 88.1383,274.858 96.5,273C 98.2462,270.741 100.58,269.408 103.5,269C 104.787,267.59 105.954,266.09 107,264.5C 108.011,265.337 109.178,265.67 110.5,265.5 Z"/></g>
<g><path style="opacity:1" fill="#3764f4" d="M 237.5,266.5 C 240.472,268.139 242.806,270.472 244.5,273.5C 238.361,276.809 232.028,279.976 225.5,283C 220.662,286.585 215.662,289.918 210.5,293C 209.216,293.684 208.049,293.517 207,292.5C 203.077,295.368 198.91,297.868 194.5,300C 190.331,304.615 188.331,310.115 188.5,316.5C 185.344,314.076 182.344,311.409 179.5,308.5C 177.13,305.086 177.13,301.753 179.5,298.5C 178.975,297.808 178.308,297.308 177.5,297C 179.285,295.837 181.285,295.17 183.5,295C 189.561,291.55 195.394,287.717 201,283.5C 201.333,284.167 201.667,284.833 202,285.5C 207.074,280.765 212.907,277.265 219.5,275C 224.12,271.21 229.12,268.043 234.5,265.5C 235.417,266.127 236.417,266.461 237.5,266.5 Z"/></g>
<g><path style="opacity:1" fill="#2d4de6" d="M 367.5,259.5 C 369.254,273.571 365.254,285.571 355.5,295.5C 349.229,284.567 342.562,273.901 335.5,263.5C 335.67,262.178 335.337,261.011 334.5,260C 335.5,259.5 336.5,259 337.5,258.5C 339.009,260.915 340.676,261.081 342.5,259C 350.912,258.199 359.245,258.366 367.5,259.5 Z"/></g>
<g><path style="opacity:1" fill="#324de8" d="M 327.5,274.5 C 330.568,277.622 332.902,281.289 334.5,285.5C 327.61,284.96 320.944,285.627 314.5,287.5C 311.885,286.366 309.385,286.699 307,288.5C 305.174,287.327 303.341,287.327 301.5,288.5C 301.5,281.833 301.5,275.167 301.5,268.5C 305.025,266.825 308.525,265.158 312,263.5C 314,266.167 316,266.167 318,263.5C 319.63,266.688 320.796,270.021 321.5,273.5C 323.565,273.517 325.565,273.85 327.5,274.5 Z"/></g>
<g><path style="opacity:1" fill="#1f7de6" d="M 125.5,279.5 C 127,281.179 128.833,282.512 131,283.5C 131.662,284.984 132.496,286.317 133.5,287.5C 131.299,287.858 129.965,289.192 129.5,291.5C 122.042,295.732 114.708,300.232 107.5,305C 103.471,310.185 98.4709,314.185 92.5,317C 89.3975,319.988 86.7308,323.154 84.5,326.5C 82.5168,326.157 81.1834,326.824 80.5,328.5C 75.9634,326.07 71.6301,323.403 67.5,320.5C 68.6871,319.466 69.5204,318.133 70,316.5C 70.3333,316.833 70.6667,317.167 71,317.5C 72.339,314.906 74.5056,313.406 77.5,313C 77.1667,312.667 76.8333,312.333 76.5,312C 81.3148,309.903 85.4814,306.403 89,301.5C 89.3333,301.833 89.6667,302.167 90,302.5C 92.3631,300.06 94.8631,297.727 97.5,295.5C 107.321,290.193 116.655,284.859 125.5,279.5 Z"/></g>
<g><path style="opacity:1" fill="#2076e7" d="M 133.5,287.5 C 136.616,289.915 139.616,292.581 142.5,295.5C 140.442,296.933 138.108,297.6 135.5,297.5C 135.719,298.675 135.386,299.675 134.5,300.5C 127.753,304.44 121.42,308.774 115.5,313.5C 115.881,315.942 115.214,316.609 113.5,315.5C 105.649,320.981 98.6485,327.314 92.5,334.5C 88.5266,332.513 84.5266,330.513 80.5,328.5C 81.1834,326.824 82.5168,326.157 84.5,326.5C 86.7308,323.154 89.3975,319.988 92.5,317C 98.4709,314.185 103.471,310.185 107.5,305C 114.708,300.232 122.042,295.732 129.5,291.5C 129.965,289.192 131.299,287.858 133.5,287.5 Z"/></g>
<g><path style="opacity:1" fill="#4252f7" d="M 252.5,281.5 C 255.712,283.631 258.712,285.964 261.5,288.5C 274.656,289.496 287.99,289.829 301.5,289.5C 301.5,290.167 301.167,290.5 300.5,290.5C 296.427,292.419 292.26,293.085 288,292.5C 284.856,296.158 281.023,297.491 276.5,296.5C 277.747,294.677 278.414,292.677 278.5,290.5C 276.143,290.337 273.81,290.503 271.5,291C 261.218,294.429 251.885,299.429 243.5,306C 238.649,308.37 233.649,310.37 228.5,312C 222.168,316.492 215.502,320.325 208.5,323.5C 207.286,320.267 206.786,316.934 207,313.5C 208.555,311.854 210.221,311.521 212,312.5C 214.828,309.328 218.328,307.495 222.5,307C 221.034,306.365 219.7,305.531 218.5,304.5C 216.877,305.491 215.877,304.824 215.5,302.5C 214.624,301.749 213.624,301.249 212.5,301C 217.211,298.536 221.711,295.703 226,292.5C 228.647,293.464 231.147,292.964 233.5,291C 238.948,287.727 244.281,284.227 249.5,280.5C 250.417,281.127 251.417,281.461 252.5,281.5 Z"/></g>
<g><path style="opacity:1" fill="#3c5bf4" d="M 244.5,273.5 C 246.649,275.046 248.816,276.712 251,278.5C 251.513,279.527 252.013,280.527 252.5,281.5C 251.417,281.461 250.417,281.127 249.5,280.5C 244.281,284.227 238.948,287.727 233.5,291C 231.147,292.964 228.647,293.464 226,292.5C 221.711,295.703 217.211,298.536 212.5,301C 213.624,301.249 214.624,301.749 215.5,302.5C 215.877,304.824 216.877,305.491 218.5,304.5C 219.7,305.531 221.034,306.365 222.5,307C 218.328,307.495 214.828,309.328 212,312.5C 210.221,311.521 208.555,311.854 207,313.5C 206.786,316.934 207.286,320.267 208.5,323.5C 206.793,324.873 205.46,326.539 204.5,328.5C 202.745,327.928 201.078,327.094 199.5,326C 195.711,322.853 192.044,319.686 188.5,316.5C 188.331,310.115 190.331,304.615 194.5,300C 198.91,297.868 203.077,295.368 207,292.5C 208.049,293.517 209.216,293.684 210.5,293C 215.662,289.918 220.662,286.585 225.5,283C 232.028,279.976 238.361,276.809 244.5,273.5 Z"/></g>
<g><path style="opacity:1" fill="#1c83e5" d="M 117.5,272.5 C 120.373,274.554 123.039,276.887 125.5,279.5C 116.655,284.859 107.321,290.193 97.5,295.5C 94.8631,297.727 92.3631,300.06 90,302.5C 89.6667,302.167 89.3333,301.833 89,301.5C 85.4814,306.403 81.3148,309.903 76.5,312C 76.8333,312.333 77.1667,312.667 77.5,313C 74.5056,313.406 72.339,314.906 71,317.5C 70.6667,317.167 70.3333,316.833 70,316.5C 69.5204,318.133 68.6871,319.466 67.5,320.5C 63.1638,318.668 59.1638,316.335 55.5,313.5C 58.0632,311.604 60.3965,309.27 62.5,306.5C 63.086,306.709 63.586,307.043 64,307.5C 69.0754,302.749 74.4087,298.415 80,294.5C 83.302,293.635 86.302,291.635 89,288.5C 89.3333,288.833 89.6667,289.167 90,289.5C 93.1036,286.275 96.4369,283.275 100,280.5C 100.333,280.833 100.667,281.167 101,281.5C 102.144,279.083 103.81,278.416 106,279.5C 109.731,277.231 113.564,274.898 117.5,272.5 Z"/></g>
<g><path style="opacity:1" fill="#3f48f1" d="M 300.5,290.5 C 299.062,292.443 297.396,294.276 295.5,296C 295.833,296.333 296.167,296.667 296.5,297C 295.552,297.483 294.552,297.649 293.5,297.5C 293.649,298.552 293.483,299.552 293,300.5C 290.821,299.16 290.321,299.493 291.5,301.5C 285.502,304.465 279.169,306.965 272.5,309C 270.301,310.697 267.968,312.197 265.5,313.5C 264.914,313.291 264.414,312.957 264,312.5C 249.232,319.677 235.232,328.343 222,338.5C 221.086,337.346 220.253,337.513 219.5,339C 219.833,339.333 220.167,339.667 220.5,340C 224.406,341.293 227.24,340.126 229,336.5C 229.333,336.833 229.667,337.167 230,337.5C 231.989,335.616 233.989,335.283 236,336.5C 237.133,334.789 238.633,334.289 240.5,335C 235.921,337.778 231.588,340.778 227.5,344C 229.041,345.371 230.375,346.871 231.5,348.5C 221.884,342.534 212.884,335.868 204.5,328.5C 205.46,326.539 206.793,324.873 208.5,323.5C 215.502,320.325 222.168,316.492 228.5,312C 233.649,310.37 238.649,308.37 243.5,306C 251.885,299.429 261.218,294.429 271.5,291C 273.81,290.503 276.143,290.337 278.5,290.5C 278.414,292.677 277.747,294.677 276.5,296.5C 281.023,297.491 284.856,296.158 288,292.5C 292.26,293.085 296.427,292.419 300.5,290.5 Z"/></g>
<g><path style="opacity:1" fill="#2e41e3" d="M 334.5,285.5 C 338.595,291.257 342.262,297.257 345.5,303.5C 342.992,305.924 339.992,307.59 336.5,308.5C 333.134,307.844 329.968,306.511 327,304.5C 326.5,305 326,305.5 325.5,306C 321.822,306.418 318.155,306.918 314.5,307.5C 312.291,307.431 310.291,306.764 308.5,305.5C 309.62,303.404 311.12,303.07 313,304.5C 313.833,303.5 314.667,302.5 315.5,301.5C 316.086,301.709 316.586,302.043 317,302.5C 318.063,301.562 319.23,300.562 320.5,299.5C 321.086,299.709 321.586,300.043 322,300.5C 323.543,298.622 325.376,297.122 327.5,296C 319.47,296.207 311.47,297.04 303.5,298.5C 300.645,300.352 297.478,301.686 294,302.5C 293.329,301.748 292.496,301.414 291.5,301.5C 290.321,299.493 290.821,299.16 293,300.5C 293.483,299.552 293.649,298.552 293.5,297.5C 294.552,297.649 295.552,297.483 296.5,297C 296.167,296.667 295.833,296.333 295.5,296C 297.396,294.276 299.062,292.443 300.5,290.5C 301.167,290.5 301.5,290.167 301.5,289.5C 301.5,289.167 301.5,288.833 301.5,288.5C 303.341,287.327 305.174,287.327 307,288.5C 309.385,286.699 311.885,286.366 314.5,287.5C 320.944,285.627 327.61,284.96 334.5,285.5 Z"/></g>
<g><path style="opacity:1" fill="#2570e8" d="M 142.5,295.5 C 145.784,297.117 148.451,299.45 150.5,302.5C 148.091,305.885 144.757,308.051 140.5,309C 136.808,313.743 132.142,317.076 126.5,319C 125.102,321.398 123.102,323.065 120.5,324C 119.62,325.356 119.286,326.856 119.5,328.5C 118.127,328.343 116.793,328.51 115.5,329C 111.85,333.802 107.517,337.635 102.5,340.5C 98.7991,338.988 95.4658,336.988 92.5,334.5C 98.6485,327.314 105.649,320.981 113.5,315.5C 115.214,316.609 115.881,315.942 115.5,313.5C 121.42,308.774 127.753,304.44 134.5,300.5C 135.386,299.675 135.719,298.675 135.5,297.5C 138.108,297.6 140.442,296.933 142.5,295.5 Z"/></g>
<g><path style="opacity:1" fill="#266aeb" d="M 150.5,302.5 C 154.127,304.794 157.461,307.46 160.5,310.5C 156.734,311.769 153.067,313.269 149.5,315C 144.468,319.37 139.468,323.703 134.5,328C 132.754,328.471 131.087,329.138 129.5,330C 126.958,333.58 124.291,337.08 121.5,340.5C 120.884,343.682 119.884,346.682 118.5,349.5C 113.132,346.485 107.798,343.485 102.5,340.5C 107.517,337.635 111.85,333.802 115.5,329C 116.793,328.51 118.127,328.343 119.5,328.5C 119.286,326.856 119.62,325.356 120.5,324C 123.102,323.065 125.102,321.398 126.5,319C 132.142,317.076 136.808,313.743 140.5,309C 144.757,308.051 148.091,305.885 150.5,302.5 Z"/></g>
<g><path style="opacity:1" fill="#333ae6" d="M 336.5,308.5 C 331.498,312.003 326.165,315.003 320.5,317.5C 318.658,317.277 316.825,316.943 315,316.5C 311.686,317.934 308.186,318.934 304.5,319.5C 302.062,318.606 299.562,318.606 297,319.5C 293.003,320.554 289.17,321.887 285.5,323.5C 283.002,322.62 281.002,323.453 279.5,326C 275.535,327.126 271.535,328.126 267.5,329C 264.446,331.805 260.779,333.472 256.5,334C 252.59,338.255 247.924,341.255 242.5,343C 239.961,345.37 237.628,347.87 235.5,350.5C 233.938,350.267 232.605,349.6 231.5,348.5C 230.375,346.871 229.041,345.371 227.5,344C 231.588,340.778 235.921,337.778 240.5,335C 238.633,334.289 237.133,334.789 236,336.5C 233.989,335.283 231.989,335.616 230,337.5C 229.667,337.167 229.333,336.833 229,336.5C 227.24,340.126 224.406,341.293 220.5,340C 220.167,339.667 219.833,339.333 219.5,339C 220.253,337.513 221.086,337.346 222,338.5C 235.232,328.343 249.232,319.677 264,312.5C 264.414,312.957 264.914,313.291 265.5,313.5C 267.968,312.197 270.301,310.697 272.5,309C 279.169,306.965 285.502,304.465 291.5,301.5C 292.496,301.414 293.329,301.748 294,302.5C 297.478,301.686 300.645,300.352 303.5,298.5C 311.47,297.04 319.47,296.207 327.5,296C 325.376,297.122 323.543,298.622 322,300.5C 321.586,300.043 321.086,299.709 320.5,299.5C 319.23,300.562 318.063,301.562 317,302.5C 316.586,302.043 316.086,301.709 315.5,301.5C 314.667,302.5 313.833,303.5 313,304.5C 311.12,303.07 309.62,303.404 308.5,305.5C 310.291,306.764 312.291,307.431 314.5,307.5C 318.155,306.918 321.822,306.418 325.5,306C 326,305.5 326.5,305 327,304.5C 329.968,306.511 333.134,307.844 336.5,308.5 Z"/></g>
<g><path style="opacity:1" fill="#2c64ed" d="M 160.5,310.5 C 163.432,311.8 165.766,313.8 167.5,316.5C 165.5,317.976 163.833,319.809 162.5,322C 148.461,330.203 136.794,341.036 127.5,354.5C 124.331,353.083 121.331,351.417 118.5,349.5C 119.884,346.682 120.884,343.682 121.5,340.5C 124.291,337.08 126.958,333.58 129.5,330C 131.087,329.138 132.754,328.471 134.5,328C 139.468,323.703 144.468,319.37 149.5,315C 153.067,313.269 156.734,311.769 160.5,310.5 Z"/></g>
<g><path style="opacity:1" fill="#2c31df" d="M 320.5,317.5 C 296.166,332.003 271.499,346.003 246.5,359.5C 242.986,356.253 239.32,353.253 235.5,350.5C 237.628,347.87 239.961,345.37 242.5,343C 247.924,341.255 252.59,338.255 256.5,334C 260.779,333.472 264.446,331.805 267.5,329C 271.535,328.126 275.535,327.126 279.5,326C 281.002,323.453 283.002,322.62 285.5,323.5C 289.17,321.887 293.003,320.554 297,319.5C 299.562,318.606 302.062,318.606 304.5,319.5C 308.186,318.934 311.686,317.934 315,316.5C 316.825,316.943 318.658,317.277 320.5,317.5 Z"/></g>
<g><path style="opacity:1" fill="#2d5ded" d="M 167.5,316.5 C 171.167,319.5 174.833,322.5 178.5,325.5C 176.983,325.489 175.816,324.823 175,323.5C 171.433,327.341 167.6,330.841 163.5,334C 161.774,335.53 159.774,336.53 157.5,337C 150.541,344.744 143.541,352.244 136.5,359.5C 133.24,358.226 130.24,356.56 127.5,354.5C 136.794,341.036 148.461,330.203 162.5,322C 163.833,319.809 165.5,317.976 167.5,316.5 Z"/></g>
<g><path style="opacity:1" fill="#2d57ec" d="M 178.5,325.5 C 181.432,326.8 183.766,328.8 185.5,331.5C 184.504,331.586 183.671,331.252 183,330.5C 172.346,338.443 162.012,347.443 152,357.5C 150.259,360.309 149.092,363.309 148.5,366.5C 144.136,364.656 140.136,362.323 136.5,359.5C 143.541,352.244 150.541,344.744 157.5,337C 159.774,336.53 161.774,335.53 163.5,334C 167.6,330.841 171.433,327.341 175,323.5C 175.816,324.823 176.983,325.489 178.5,325.5 Z"/></g>
<g><path style="opacity:1" fill="#3044e7" d="M 202.5,344.5 C 204.404,344.738 205.738,345.738 206.5,347.5C 204.925,350.582 202.758,353.249 200,355.5C 199.517,356.448 199.351,357.448 199.5,358.5C 194.851,359.651 192.018,362.651 191,367.5C 186.793,371.93 183.627,376.93 181.5,382.5C 177.327,382.333 173.66,381 170.5,378.5C 170.264,375.774 171.097,373.441 173,371.5C 178.558,365.569 183.558,359.235 188,352.5C 191.725,350.04 195.225,347.206 198.5,344C 199.819,343.805 201.153,343.972 202.5,344.5 Z"/></g>
<g><path style="opacity:1" fill="#9fa0f0" d="M 211.5,350.5 C 213.027,350.427 214.027,351.094 214.5,352.5C 212.973,352.573 211.973,351.906 211.5,350.5 Z"/></g>
<g><path style="opacity:1" fill="#2d39e3" d="M 206.5,347.5 C 208.565,347.953 210.232,348.953 211.5,350.5C 211.973,351.906 212.973,352.573 214.5,352.5C 221.129,357.154 227.796,361.821 234.5,366.5C 224.148,373.509 213.148,379.176 201.5,383.5C 194.833,383.5 188.167,383.5 181.5,383.5C 181.5,383.167 181.5,382.833 181.5,382.5C 183.627,376.93 186.793,371.93 191,367.5C 192.018,362.651 194.851,359.651 199.5,358.5C 199.351,357.448 199.517,356.448 200,355.5C 202.758,353.249 204.925,350.582 206.5,347.5 Z"/></g>
<g><path style="opacity:1" fill="#304dea" d="M 185.5,331.5 C 191.451,335.45 197.118,339.783 202.5,344.5C 201.153,343.972 199.819,343.805 198.5,344C 195.225,347.206 191.725,350.04 188,352.5C 183.558,359.235 178.558,365.569 173,371.5C 171.097,373.441 170.264,375.774 170.5,378.5C 162.839,375.005 155.505,371.005 148.5,366.5C 149.092,363.309 150.259,360.309 152,357.5C 162.012,347.443 172.346,338.443 183,330.5C 183.671,331.252 184.504,331.586 185.5,331.5 Z"/></g>
</svg>
