<?xml version="1.0" encoding="UTF-8"?>
<!DOCTYPE svg PUBLIC "-//W3C//DTD SVG 1.1//EN" "http://www.w3.org/Graphics/SVG/1.1/DTD/svg11.dtd">
<svg xmlns="http://www.w3.org/2000/svg" version="1.1" width="200px" height="200px" style="shape-rendering:geometricPrecision; text-rendering:geometricPrecision; image-rendering:optimizeQuality; fill-rule:evenodd; clip-rule:evenodd" xmlns:xlink="http://www.w3.org/1999/xlink">
<g><path style="opacity:0.686" fill="#c7cdd9" d="M 85.5,0.5 C 85.5,0.166667 85.5,-0.166667 85.5,-0.5C 94.8333,-0.5 104.167,-0.5 113.5,-0.5C 116.887,0.287939 120.22,1.28794 123.5,2.5C 110.909,0.77409 98.2419,0.107423 85.5,0.5 Z"/></g>
<g><path style="opacity:1" fill="#c2c8d6" d="M 85.5,0.5 C 82.4115,1.78457 79.0781,2.45123 75.5,2.5C 78.5443,0.988643 81.8776,0.321976 85.5,0.5 Z"/></g>
<g><path style="opacity:0.312" fill="#dbdfe7" d="M 123.5,2.5 C 126.152,2.40953 128.485,3.07619 130.5,4.5C 127.848,4.59047 125.515,3.92381 123.5,2.5 Z"/></g>
<g><path style="opacity:0.996" fill="#b2bacc" d="M 75.5,2.5 C 72.4954,4.2766 69.1621,5.2766 65.5,5.5C 68.5046,3.7234 71.8379,2.7234 75.5,2.5 Z"/></g>
<g><path style="opacity:0.749" fill="#cbd0dc" d="M 65.5,5.5 C 64.2196,6.93127 62.5529,7.59794 60.5,7.5C 61.7804,6.06873 63.4471,5.40206 65.5,5.5 Z"/></g>
<g><path style="opacity:0.749" fill="#d2d6e1" d="M 133.5,5.5 C 135.553,5.40206 137.22,6.06873 138.5,7.5C 136.447,7.59794 134.78,6.93127 133.5,5.5 Z"/></g>
<g><path style="opacity:0.282" fill="#e0e3ea" d="M 60.5,7.5 C 59.2196,8.93127 57.5529,9.59794 55.5,9.5C 56.7804,8.06873 58.4471,7.40206 60.5,7.5 Z"/></g>
<g><path style="opacity:0.999" fill="#3a4f79" d="M 85.5,0.5 C 98.2419,0.107423 110.909,0.77409 123.5,2.5C 125.515,3.92381 127.848,4.59047 130.5,4.5C 131.791,4.26269 132.791,4.59603 133.5,5.5C 134.78,6.93127 136.447,7.59794 138.5,7.5C 141.515,9.6744 144.849,11.3411 148.5,12.5C 149.492,12.3284 150.158,12.6618 150.5,13.5C 150.973,14.9063 151.973,15.573 153.5,15.5C 153.5,15.8333 153.5,16.1667 153.5,16.5C 153.631,17.2389 153.464,17.9056 153,18.5C 152.311,17.6433 151.478,16.9767 150.5,16.5C 149.11,18.2029 147.61,18.8696 146,18.5C 145,17.8333 144,17.1667 143,16.5C 141.951,17.5171 140.784,17.6838 139.5,17C 140.696,16.3457 140.696,15.8457 139.5,15.5C 138.186,16.3128 137.019,17.3128 136,18.5C 134.691,16.1088 133.691,16.1088 133,18.5C 132.667,17.8333 132.333,17.1667 132,16.5C 131.581,17.6721 130.915,18.6721 130,19.5C 128.333,15.5 126.667,15.5 125,19.5C 124.667,18.5 124.333,17.5 124,16.5C 121,17.1667 118,17.8333 115,18.5C 111.824,18.3535 108.157,17.6869 104,16.5C 102.806,18.5254 101.306,18.8587 99.5,17.5C 98.8076,18.0253 98.3076,18.6919 98,19.5C 97.3333,18.1667 96.3333,17.1667 95,16.5C 93.4748,16.8881 91.8082,16.8881 90,16.5C 89.1247,18.5127 87.7913,18.5127 86,16.5C 82.9534,17.245 79.9534,17.5783 77,17.5C 76.6667,16.8333 76.3333,16.1667 76,15.5C 74.8229,16.3176 73.4896,17.3176 72,18.5C 70.416,18.0116 69.2494,17.0116 68.5,15.5C 66.5658,15.9005 65.0658,16.9005 64,18.5C 63.3333,17.8333 62.6667,17.1667 62,16.5C 56.8099,17.5534 51.3099,17.5534 45.5,16.5C 45.5,16.1667 45.5,15.8333 45.5,15.5C 47.0269,15.573 48.0269,14.9063 48.5,13.5C 50.0269,13.573 51.0269,12.9063 51.5,11.5C 52.5137,10.3263 53.847,9.6596 55.5,9.5C 57.5529,9.59794 59.2196,8.93127 60.5,7.5C 62.5529,7.59794 64.2196,6.93127 65.5,5.5C 69.1621,5.2766 72.4954,4.2766 75.5,2.5C 79.0781,2.45123 82.4115,1.78457 85.5,0.5 Z"/></g>
<g><path style="opacity:0.624" fill="#d5dae3" d="M 138.5,7.5 C 142.42,8.12663 145.753,9.7933 148.5,12.5C 144.849,11.3411 141.515,9.6744 138.5,7.5 Z"/></g>
<g><path style="opacity:0.875" fill="#d9dde5" d="M 51.5,11.5 C 51.0269,12.9063 50.0269,13.573 48.5,13.5C 48.9731,12.0937 49.9731,11.427 51.5,11.5 Z"/></g>
<g><path style="opacity:0.125" fill="#e3e5ec" d="M 150.5,13.5 C 152.027,13.427 153.027,14.0937 153.5,15.5C 151.973,15.573 150.973,14.9063 150.5,13.5 Z"/></g>
<g><path style="opacity:0.937" fill="#bec5d2" d="M 48.5,13.5 C 48.0269,14.9063 47.0269,15.573 45.5,15.5C 45.9731,14.0937 46.9731,13.427 48.5,13.5 Z"/></g>
<g><path style="opacity:0.996" fill="#bac2d0" d="M 45.5,15.5 C 45.5,15.8333 45.5,16.1667 45.5,16.5C 44.609,17.1098 43.609,17.4431 42.5,17.5C 42.9731,16.0937 43.9731,15.427 45.5,15.5 Z"/></g>
<g><path style="opacity:0.502" fill="#d3d7e1" d="M 153.5,16.5 C 153.5,16.1667 153.5,15.8333 153.5,15.5C 155.027,15.427 156.027,16.0937 156.5,17.5C 155.391,17.4431 154.391,17.1098 153.5,16.5 Z"/></g>
<g><path style="opacity:0.125" fill="#e3e6ec" d="M 156.5,17.5 C 158.027,17.427 159.027,18.0937 159.5,19.5C 157.973,19.573 156.973,18.9063 156.5,17.5 Z"/></g>
<g><path style="opacity:0.937" fill="#c6cdd8" d="M 42.5,17.5 C 42.0269,18.9063 41.0269,19.573 39.5,19.5C 39.9731,18.0937 40.9731,17.427 42.5,17.5 Z"/></g>
<g><path style="opacity:0.063" fill="#edeff3" d="M 159.5,19.5 C 161.027,19.427 162.027,20.0937 162.5,21.5C 160.973,21.573 159.973,20.9063 159.5,19.5 Z"/></g>
<g><path style="opacity:1" fill="#b9c0cf" d="M 39.5,19.5 C 38.0892,21.914 36.0892,23.5806 33.5,24.5C 34.9108,22.086 36.9108,20.4194 39.5,19.5 Z"/></g>
<g><path style="opacity:0.999" fill="#354972" d="M 153.5,16.5 C 154.391,17.1098 155.391,17.4431 156.5,17.5C 156.973,18.9063 157.973,19.573 159.5,19.5C 159.973,20.9063 160.973,21.573 162.5,21.5C 164.167,22.5 165.5,23.8333 166.5,25.5C 168.833,28.5 171.5,31.1667 174.5,33.5C 175.419,36.0892 177.086,38.0892 179.5,39.5C 179.427,41.0269 180.094,42.0269 181.5,42.5C 181.427,44.0269 182.094,45.0269 183.5,45.5C 183.427,47.0269 184.094,48.0269 185.5,48.5C 185.427,50.0269 186.094,51.0269 187.5,51.5C 187.5,52.5 187.5,53.5 187.5,54.5C 185.209,54.584 182.875,54.584 180.5,54.5C 179.833,55.1667 179.167,55.8333 178.5,56.5C 177.575,55.3595 176.741,55.3595 176,56.5C 175.333,53.8333 174.667,53.8333 174,56.5C 172.75,55.4267 171.416,55.4267 170,56.5C 169.055,56.0946 168.388,55.428 168,54.5C 166.04,57.1463 164.04,57.1463 162,54.5C 160.779,55.2718 159.779,56.2718 159,57.5C 159.077,56.2624 158.911,55.2624 158.5,54.5C 157.28,55.7111 156.113,55.7111 155,54.5C 154.692,55.3081 154.192,55.9747 153.5,56.5C 152.575,55.3595 151.741,55.3595 151,56.5C 150.667,55.8333 150.333,55.1667 150,54.5C 148.667,55.8333 147.333,55.8333 146,54.5C 145.536,55.0944 145.369,55.7611 145.5,56.5C 124.877,37.2647 101.21,32.4313 74.5,42C 68.9462,44.9377 63.6129,48.1044 58.5,51.5C 54.8779,50.8984 54.5446,49.3984 57.5,47C 54.7704,43.5406 54.1037,43.8739 55.5,48C 53.5975,48.1992 52.0975,49.0325 51,50.5C 50.7508,49.376 50.2508,48.376 49.5,47.5C 46.8,48.1067 44.3,48.1067 42,47.5C 41.4536,48.2893 40.7869,49.2893 40,50.5C 38.4702,49.364 37.1369,48.364 36,47.5C 34.6841,50.028 33.5174,50.028 32.5,47.5C 30.8437,49.0224 29.677,48.689 29,46.5C 28.3741,48.9913 27.5407,48.9913 26.5,46.5C 22.0028,47.8325 17.3361,49.4992 12.5,51.5C 12.5,51.1667 12.5,50.8333 12.5,50.5C 12.3284,49.5084 12.6618,48.8417 13.5,48.5C 14.9063,48.0269 15.573,47.0269 15.5,45.5C 16.9063,45.0269 17.573,44.0269 17.5,42.5C 18.9063,42.0269 19.573,41.0269 19.5,39.5C 21.914,38.0892 23.5806,36.0892 24.5,33.5C 24.5,32.8333 24.8333,32.5 25.5,32.5C 28.5,30.1667 31.1667,27.5 33.5,24.5C 36.0892,23.5806 38.0892,21.914 39.5,19.5C 41.0269,19.573 42.0269,18.9063 42.5,17.5C 43.609,17.4431 44.609,17.1098 45.5,16.5C 51.3099,17.5534 56.8099,17.5534 62,16.5C 62.6667,17.1667 63.3333,17.8333 64,18.5C 65.0658,16.9005 66.5658,15.9005 68.5,15.5C 69.2494,17.0116 70.416,18.0116 72,18.5C 73.4896,17.3176 74.8229,16.3176 76,15.5C 76.3333,16.1667 76.6667,16.8333 77,17.5C 79.9534,17.5783 82.9534,17.245 86,16.5C 87.7913,18.5127 89.1247,18.5127 90,16.5C 91.8082,16.8881 93.4748,16.8881 95,16.5C 96.3333,17.1667 97.3333,18.1667 98,19.5C 98.3076,18.6919 98.8076,18.0253 99.5,17.5C 101.306,18.8587 102.806,18.5254 104,16.5C 108.157,17.6869 111.824,18.3535 115,18.5C 118,17.8333 121,17.1667 124,16.5C 124.333,17.5 124.667,18.5 125,19.5C 126.667,15.5 128.333,15.5 130,19.5C 130.915,18.6721 131.581,17.6721 132,16.5C 132.333,17.1667 132.667,17.8333 133,18.5C 133.691,16.1088 134.691,16.1088 136,18.5C 137.019,17.3128 138.186,16.3128 139.5,15.5C 140.696,15.8457 140.696,16.3457 139.5,17C 140.784,17.6838 141.951,17.5171 143,16.5C 144,17.1667 145,17.8333 146,18.5C 147.61,18.8696 149.11,18.2029 150.5,16.5C 151.478,16.9767 152.311,17.6433 153,18.5C 153.464,17.9056 153.631,17.2389 153.5,16.5 Z"/></g>
<g><path style="opacity:0.063" fill="#eaecf0" d="M 166.5,25.5 C 170.167,27.1667 172.833,29.8333 174.5,33.5C 171.5,31.1667 168.833,28.5 166.5,25.5 Z"/></g>
<g><path style="opacity:0.875" fill="#e4e7ec" d="M 33.5,24.5 C 31.1667,27.5 28.5,30.1667 25.5,32.5C 27.1667,28.8333 29.8333,26.1667 33.5,24.5 Z"/></g>
<g><path style="opacity:0.875" fill="#ced2dd" d="M 24.5,33.5 C 23.5806,36.0892 21.914,38.0892 19.5,39.5C 20.4194,36.9108 22.086,34.9108 24.5,33.5 Z"/></g>
<g><path style="opacity:1" fill="#f8f8f9" d="M 145.5,56.5 C 151.45,63.4023 156.117,71.0689 159.5,79.5C 162.166,92.1601 162.166,104.827 159.5,117.5C 157.368,123.762 154.701,129.762 151.5,135.5C 136.653,154.75 116.986,163.417 92.5,161.5C 74.4168,159.064 59.7501,150.73 48.5,136.5C 44.0607,129.625 40.7274,122.291 38.5,114.5C 36.8955,102.748 37.2288,91.0813 39.5,79.5C 44.2052,69.1163 50.5386,59.7829 58.5,51.5C 63.6129,48.1044 68.9462,44.9377 74.5,42C 101.21,32.4313 124.877,37.2647 145.5,56.5 Z"/></g>
<g><path style="opacity:0.812" fill="#cbd0db" d="M 174.5,33.5 C 176.914,34.9108 178.581,36.9108 179.5,39.5C 177.086,38.0892 175.419,36.0892 174.5,33.5 Z"/></g>
<g><path style="opacity:0.875" fill="#d9dde4" d="M 19.5,39.5 C 19.573,41.0269 18.9063,42.0269 17.5,42.5C 17.427,40.9731 18.0937,39.9731 19.5,39.5 Z"/></g>
<g><path style="opacity:0.812" fill="#cdd2dc" d="M 179.5,39.5 C 180.906,39.9731 181.573,40.9731 181.5,42.5C 180.094,42.0269 179.427,41.0269 179.5,39.5 Z"/></g>
<g><path style="opacity:0.875" fill="#c8cdd8" d="M 17.5,42.5 C 17.573,44.0269 16.9063,45.0269 15.5,45.5C 15.427,43.9731 16.0937,42.9731 17.5,42.5 Z"/></g>
<g><path style="opacity:0.875" fill="#c9cdd8" d="M 181.5,42.5 C 182.906,42.9731 183.573,43.9731 183.5,45.5C 182.094,45.0269 181.427,44.0269 181.5,42.5 Z"/></g>
<g><path style="opacity:0.686" fill="#d7dae2" d="M 15.5,45.5 C 15.573,47.0269 14.9063,48.0269 13.5,48.5C 13.427,46.9731 14.0937,45.9731 15.5,45.5 Z"/></g>
<g><path style="opacity:0.749" fill="#ccd1db" d="M 183.5,45.5 C 184.906,45.9731 185.573,46.9731 185.5,48.5C 184.094,48.0269 183.427,47.0269 183.5,45.5 Z"/></g>
<g><path style="opacity:0.999" fill="#314369" d="M 153.5,105.5 C 154.045,102.002 153.212,99.0024 151,96.5C 150.667,97.5 150.333,98.5 150,99.5C 149.333,98.1667 148.667,96.8333 148,95.5C 147.16,98.4637 146.16,98.797 145,96.5C 144.333,99.1667 143.667,99.1667 143,96.5C 142.667,97.1667 142.333,97.8333 142,98.5C 140.307,97.8155 138.807,96.8155 137.5,95.5C 136.304,95.8457 136.304,96.3457 137.5,97C 136.041,96.6446 134.707,96.8112 133.5,97.5C 133.667,85.8286 133.5,74.1619 133,62.5C 129.943,59.7774 126.61,57.444 123,55.5C 122.5,63.1594 122.334,70.8261 122.5,78.5C 121.778,78.0825 121.278,77.4158 121,76.5C 120.131,79.7626 118.797,80.0959 117,77.5C 115,78.1667 113,78.8333 111,79.5C 108.667,78.5 106.333,77.5 104,76.5C 102.216,79.0026 100.549,79.0026 99,76.5C 97.8289,77.8932 96.3289,78.7265 94.5,79C 95.8333,79.6667 97.1667,80.3333 98.5,81C 97.0267,81.7096 96.3601,82.8762 96.5,84.5C 89.8915,74.8744 83.2248,65.2077 76.5,55.5C 72.5919,57.245 69.0919,59.5783 66,62.5C 65.5006,67.8229 65.334,73.1563 65.5,78.5C 61.2326,78.4568 57.2326,78.1235 53.5,77.5C 52.5224,77.9767 51.6891,78.6433 51,79.5C 50.7679,78.2625 50.2679,77.2625 49.5,76.5C 63.1254,51.3552 84.1254,41.1885 112.5,46C 141.567,55.5185 155.234,75.3519 153.5,105.5 Z"/></g>
<g><path style="opacity:0.498" fill="#e3e6eb" d="M 185.5,48.5 C 186.906,48.9731 187.573,49.9731 187.5,51.5C 186.094,51.0269 185.427,50.0269 185.5,48.5 Z"/></g>
<g><path style="opacity:0.999" fill="#2f4268" d="M 58.5,51.5 C 50.5386,59.7829 44.2052,69.1163 39.5,79.5C 38.3172,79.8442 37.4839,79.1775 37,77.5C 35.2215,78.4791 33.5548,78.1458 32,76.5C 30.874,77.9436 29.374,78.6102 27.5,78.5C 24.3066,78.0375 21.1399,77.7042 18,77.5C 16.9125,79.9316 16.4125,79.5983 16.5,76.5C 13.4017,76.4125 13.0684,76.9125 15.5,78C 13.765,78.6514 12.0983,78.4847 10.5,77.5C 10.1667,78.1667 9.83333,78.8333 9.5,79.5C 8.80762,78.9747 8.30762,78.3081 8,77.5C 6.30054,78.4061 4.4672,78.7394 2.5,78.5C 2.5,77.5 2.5,76.5 2.5,75.5C 3.92381,73.4855 4.59047,71.1522 4.5,68.5C 6.5848,66.3155 7.5848,63.6489 7.5,60.5C 7.5,60.1667 7.5,59.8333 7.5,59.5C 9.653,57.2063 11.3197,54.5396 12.5,51.5C 17.3361,49.4992 22.0028,47.8325 26.5,46.5C 27.5407,48.9913 28.3741,48.9913 29,46.5C 29.677,48.689 30.8437,49.0224 32.5,47.5C 33.5174,50.028 34.6841,50.028 36,47.5C 37.1369,48.364 38.4702,49.364 40,50.5C 40.7869,49.2893 41.4536,48.2893 42,47.5C 44.3,48.1067 46.8,48.1067 49.5,47.5C 50.2508,48.376 50.7508,49.376 51,50.5C 52.0975,49.0325 53.5975,48.1992 55.5,48C 54.1037,43.8739 54.7704,43.5406 57.5,47C 54.5446,49.3984 54.8779,50.8984 58.5,51.5 Z"/></g>
<g><path style="opacity:0.999" fill="#2f4167" d="M 187.5,54.5 C 188.167,54.8333 188.833,55.1667 189.5,55.5C 189.12,57.698 189.787,59.3646 191.5,60.5C 191.402,62.5529 192.069,64.2196 193.5,65.5C 193.723,69.1621 194.723,72.4954 196.5,75.5C 196.5,76.5 196.5,77.5 196.5,78.5C 194.403,78.0033 192.57,77.67 191,77.5C 190.692,78.3081 190.192,78.9747 189.5,79.5C 186.793,77.4283 183.793,77.4283 180.5,79.5C 179.5,78.8333 178.5,78.1667 177.5,77.5C 175.009,78.373 172.343,78.7063 169.5,78.5C 168.353,78.1822 167.519,77.5156 167,76.5C 164.622,77.9669 162.122,78.9669 159.5,79.5C 156.117,71.0689 151.45,63.4023 145.5,56.5C 145.369,55.7611 145.536,55.0944 146,54.5C 147.333,55.8333 148.667,55.8333 150,54.5C 150.333,55.1667 150.667,55.8333 151,56.5C 151.741,55.3595 152.575,55.3595 153.5,56.5C 154.192,55.9747 154.692,55.3081 155,54.5C 156.113,55.7111 157.28,55.7111 158.5,54.5C 158.911,55.2624 159.077,56.2624 159,57.5C 159.779,56.2718 160.779,55.2718 162,54.5C 164.04,57.1463 166.04,57.1463 168,54.5C 168.388,55.428 169.055,56.0946 170,56.5C 171.416,55.4267 172.75,55.4267 174,56.5C 174.667,53.8333 175.333,53.8333 176,56.5C 176.741,55.3595 177.575,55.3595 178.5,56.5C 179.167,55.8333 179.833,55.1667 180.5,54.5C 182.875,54.584 185.209,54.584 187.5,54.5 Z"/></g>
<g><path style="opacity:0.498" fill="#e4e8ec" d="M 187.5,51.5 C 188.674,52.5137 189.34,53.847 189.5,55.5C 188.833,55.1667 188.167,54.8333 187.5,54.5C 187.5,53.5 187.5,52.5 187.5,51.5 Z"/></g>
<g><path style="opacity:0.624" fill="#d6dae2" d="M 12.5,50.5 C 12.5,50.8333 12.5,51.1667 12.5,51.5C 11.3197,54.5396 9.653,57.2063 7.5,59.5C 8.40975,56.0078 10.0764,53.0078 12.5,50.5 Z"/></g>
<g><path style="opacity:1" fill="#f8f8f9" d="M 96.5,84.5 C 104.492,97.8133 112.992,110.813 122,123.5C 122.5,108.504 122.667,93.5037 122.5,78.5C 122.334,70.8261 122.5,63.1594 123,55.5C 126.61,57.444 129.943,59.7774 133,62.5C 133.5,74.1619 133.667,85.8286 133.5,97.5C 133.667,110.504 133.5,123.504 133,136.5C 129.933,139.237 126.599,141.571 123,143.5C 107.677,120.863 92.3438,98.1965 77,75.5C 76.8331,98.174 76.3331,120.841 75.5,143.5C 72.6959,141.862 70.0292,140.029 67.5,138C 66.1772,137.184 65.5106,136.017 65.5,134.5C 65.5,115.833 65.5,97.1667 65.5,78.5C 65.334,73.1563 65.5006,67.8229 66,62.5C 69.0919,59.5783 72.5919,57.245 76.5,55.5C 83.2248,65.2077 89.8915,74.8744 96.5,84.5 Z"/></g>
<g><path style="opacity:1" fill="#a6adbe" d="M 189.5,55.5 C 190.931,56.7804 191.598,58.4471 191.5,60.5C 189.787,59.3646 189.12,57.698 189.5,55.5 Z"/></g>
<g><path style="opacity:1" fill="#a5acbe" d="M 7.5,60.5 C 7.5848,63.6489 6.5848,66.3155 4.5,68.5C 4.73292,65.4582 5.73292,62.7916 7.5,60.5 Z"/></g>
<g><path style="opacity:0.498" fill="#d2d6df" d="M 191.5,60.5 C 192.931,61.7804 193.598,63.4471 193.5,65.5C 192.069,64.2196 191.402,62.5529 191.5,60.5 Z"/></g>
<g><path style="opacity:0.996" fill="#b4bac8" d="M 193.5,65.5 C 195.277,68.5046 196.277,71.8379 196.5,75.5C 194.723,72.4954 193.723,69.1621 193.5,65.5 Z"/></g>
<g><path style="opacity:0.937" fill="#bcc1cd" d="M 4.5,68.5 C 4.59047,71.1522 3.92381,73.4855 2.5,75.5C 2.40953,72.8478 3.07619,70.5145 4.5,68.5 Z"/></g>
<g><path style="opacity:1" fill="#c4c9d3" d="M 196.5,75.5 C 198.011,78.5443 198.678,81.8776 198.5,85.5C 197.593,83.3432 196.927,81.0098 196.5,78.5C 196.5,77.5 196.5,76.5 196.5,75.5 Z"/></g>
<g><path style="opacity:0.999" fill="#2b3c5f" d="M 122.5,78.5 C 122.667,93.5037 122.5,108.504 122,123.5C 112.992,110.813 104.492,97.8133 96.5,84.5C 96.3601,82.8762 97.0267,81.7096 98.5,81C 97.1667,80.3333 95.8333,79.6667 94.5,79C 96.3289,78.7265 97.8289,77.8932 99,76.5C 100.549,79.0026 102.216,79.0026 104,76.5C 106.333,77.5 108.667,78.5 111,79.5C 113,78.8333 115,78.1667 117,77.5C 118.797,80.0959 120.131,79.7626 121,76.5C 121.278,77.4158 121.778,78.0825 122.5,78.5 Z"/></g>
<g><path style="opacity:0.812" fill="#cfd3db" d="M 2.5,75.5 C 2.5,76.5 2.5,77.5 2.5,78.5C 2.12487,80.6976 1.4582,82.6976 0.5,84.5C 0.420323,81.2186 1.08699,78.2186 2.5,75.5 Z"/></g>
<g><path style="opacity:0.996" fill="#bcc2cc" d="M -0.5,85.5 C -0.166667,85.5 0.166667,85.5 0.5,85.5C 0.33358,94.1731 0.500246,102.84 1,111.5C 1.18618,114.036 1.68618,116.369 2.5,118.5C 3.16667,122.5 3.83333,126.5 4.5,130.5C 2.36487,124.957 0.698201,119.291 -0.5,113.5C -0.5,104.167 -0.5,94.8333 -0.5,85.5 Z"/></g>
<g><path style="opacity:0.999" fill="#28395b" d="M 49.5,76.5 C 50.2679,77.2625 50.7679,78.2625 51,79.5C 51.6891,78.6433 52.5224,77.9767 53.5,77.5C 57.2326,78.1235 61.2326,78.4568 65.5,78.5C 65.5,97.1667 65.5,115.833 65.5,134.5C 63.3736,135.048 61.3736,135.715 59.5,136.5C 52.1367,129.444 47.6367,120.777 46,110.5C 43.3269,98.7409 44.4935,87.4075 49.5,76.5 Z"/></g>
<g><path style="opacity:0.999" fill="#293a5d" d="M 196.5,78.5 C 196.927,81.0098 197.593,83.3432 198.5,85.5C 198.666,94.5062 198.5,103.506 198,112.5C 197.802,114.382 197.302,116.048 196.5,117.5C 193.909,115.543 191.409,115.543 189,117.5C 186.626,114.712 185.293,115.046 185,118.5C 184.333,117.167 183.333,116.167 182,115.5C 179.56,116.656 177.06,116.656 174.5,115.5C 172.971,115.529 171.804,116.196 171,117.5C 170.676,115.431 169.842,115.098 168.5,116.5C 167.522,116.023 166.689,115.357 166,114.5C 164.261,116.318 162.094,117.318 159.5,117.5C 162.166,104.827 162.166,92.1601 159.5,79.5C 162.122,78.9669 164.622,77.9669 167,76.5C 167.519,77.5156 168.353,78.1822 169.5,78.5C 172.343,78.7063 175.009,78.373 177.5,77.5C 178.5,78.1667 179.5,78.8333 180.5,79.5C 183.793,77.4283 186.793,77.4283 189.5,79.5C 190.192,78.9747 190.692,78.3081 191,77.5C 192.57,77.67 194.403,78.0033 196.5,78.5 Z"/></g>
<g><path style="opacity:0.999" fill="#293a5d" d="M 39.5,79.5 C 37.2288,91.0813 36.8955,102.748 38.5,114.5C 37.6851,115.429 36.8518,116.429 36,117.5C 35.7167,114.258 34.8834,113.924 33.5,116.5C 32.2798,115.289 31.1131,115.289 30,116.5C 29.3109,115.643 28.4776,114.977 27.5,114.5C 26.3887,115.611 25.0554,116.278 23.5,116.5C 21.2675,115.385 19.1008,115.385 17,116.5C 15.1429,112.62 13.8096,112.954 13,117.5C 12,116.833 11,116.167 10,115.5C 8.24936,116.174 6.5827,116.507 5,116.5C 2.84103,114.044 2.0077,114.71 2.5,118.5C 1.68618,116.369 1.18618,114.036 1,111.5C 0.500246,102.84 0.33358,94.1731 0.5,85.5C 0.5,85.1667 0.5,84.8333 0.5,84.5C 1.4582,82.6976 2.12487,80.6976 2.5,78.5C 4.4672,78.7394 6.30054,78.4061 8,77.5C 8.30762,78.3081 8.80762,78.9747 9.5,79.5C 9.83333,78.8333 10.1667,78.1667 10.5,77.5C 12.0983,78.4847 13.765,78.6514 15.5,78C 13.0684,76.9125 13.4017,76.4125 16.5,76.5C 16.4125,79.5983 16.9125,79.9316 18,77.5C 21.1399,77.7042 24.3066,78.0375 27.5,78.5C 29.374,78.6102 30.874,77.9436 32,76.5C 33.5548,78.1458 35.2215,78.4791 37,77.5C 37.4839,79.1775 38.3172,79.8442 39.5,79.5 Z"/></g>
<g><path style="opacity:0.999" fill="#253555" d="M 38.5,114.5 C 40.7274,122.291 44.0607,129.625 48.5,136.5C 47.1529,135.829 45.9862,135.829 45,136.5C 43.324,135.939 41.9906,134.939 41,133.5C 38.8724,137.376 36.5391,137.376 34,133.5C 32.6914,135.891 31.6914,135.891 31,133.5C 30.6827,135.301 30.016,135.634 29,134.5C 28,135.167 27,135.833 26,136.5C 20.4475,136.371 14.2809,136.037 7.5,135.5C 6.83333,134.833 6.16667,134.167 5.5,133.5C 4.59603,132.791 4.26269,131.791 4.5,130.5C 3.83333,126.5 3.16667,122.5 2.5,118.5C 2.0077,114.71 2.84103,114.044 5,116.5C 6.5827,116.507 8.24936,116.174 10,115.5C 11,116.167 12,116.833 13,117.5C 13.8096,112.954 15.1429,112.62 17,116.5C 19.1008,115.385 21.2675,115.385 23.5,116.5C 25.0554,116.278 26.3887,115.611 27.5,114.5C 28.4776,114.977 29.3109,115.643 30,116.5C 31.1131,115.289 32.2798,115.289 33.5,116.5C 34.8834,113.924 35.7167,114.258 36,117.5C 36.8518,116.429 37.6851,115.429 38.5,114.5 Z"/></g>
<g><path style="opacity:0.999" fill="#253555" d="M 196.5,117.5 C 196.5,119.5 196.5,121.5 196.5,123.5C 195.076,125.515 194.41,127.848 194.5,130.5C 194.737,131.791 194.404,132.791 193.5,133.5C 192.069,134.78 191.402,136.447 191.5,138.5C 191.167,138.5 190.833,138.5 190.5,138.5C 188.901,138.062 187.401,136.729 186,134.5C 185.667,135.167 185.333,135.833 185,136.5C 182,135.833 179,135.167 176,134.5C 174.316,136.459 172.316,136.459 170,134.5C 167.838,136.647 165.504,136.647 163,134.5C 159.467,135.161 155.634,135.494 151.5,135.5C 154.701,129.762 157.368,123.762 159.5,117.5C 162.094,117.318 164.261,116.318 166,114.5C 166.689,115.357 167.522,116.023 168.5,116.5C 169.842,115.098 170.676,115.431 171,117.5C 171.804,116.196 172.971,115.529 174.5,115.5C 177.06,116.656 179.56,116.656 182,115.5C 183.333,116.167 184.333,117.167 185,118.5C 185.293,115.046 186.626,114.712 189,117.5C 191.409,115.543 193.909,115.543 196.5,117.5 Z"/></g>
<g><path style="opacity:0.686" fill="#c1c6d0" d="M 198.5,85.5 C 198.833,85.5 199.167,85.5 199.5,85.5C 199.5,94.8333 199.5,104.167 199.5,113.5C 198.712,116.887 197.712,120.22 196.5,123.5C 196.5,121.5 196.5,119.5 196.5,117.5C 197.302,116.048 197.802,114.382 198,112.5C 198.5,103.506 198.666,94.5062 198.5,85.5 Z"/></g>
<g><path style="opacity:0.312" fill="#d7d9df" d="M 196.5,123.5 C 196.59,126.152 195.924,128.485 194.5,130.5C 194.41,127.848 195.076,125.515 196.5,123.5 Z"/></g>
<g><path style="opacity:0.999" fill="#243454" d="M 133.5,97.5 C 134.707,96.8112 136.041,96.6446 137.5,97C 136.304,96.3457 136.304,95.8457 137.5,95.5C 138.807,96.8155 140.307,97.8155 142,98.5C 142.333,97.8333 142.667,97.1667 143,96.5C 143.667,99.1667 144.333,99.1667 145,96.5C 146.16,98.797 147.16,98.4637 148,95.5C 148.667,96.8333 149.333,98.1667 150,99.5C 150.333,98.5 150.667,97.5 151,96.5C 153.212,99.0024 154.045,102.002 153.5,105.5C 148.207,135.952 130.041,152.285 99,154.5C 83.0718,154.282 69.9051,148.282 59.5,136.5C 61.3736,135.715 63.3736,135.048 65.5,134.5C 65.5106,136.017 66.1772,137.184 67.5,138C 70.0292,140.029 72.6959,141.862 75.5,143.5C 76.3331,120.841 76.8331,98.174 77,75.5C 92.3438,98.1965 107.677,120.863 123,143.5C 126.599,141.571 129.933,139.237 133,136.5C 133.5,123.504 133.667,110.504 133.5,97.5 Z"/></g>
<g><path style="opacity:0.749" fill="#c5c9d2" d="M 5.5,133.5 C 6.16667,134.167 6.83333,134.833 7.5,135.5C 7.5,136.5 7.5,137.5 7.5,138.5C 6.06873,137.22 5.40206,135.553 5.5,133.5 Z"/></g>
<g><path style="opacity:0.749" fill="#cccfd7" d="M 193.5,133.5 C 193.598,135.553 192.931,137.22 191.5,138.5C 191.402,136.447 192.069,134.78 193.5,133.5 Z"/></g>
<g><path style="opacity:0.498" fill="#d6d9de" d="M 7.5,138.5 C 10.0078,142.182 12.0078,146.182 13.5,150.5C 10.4598,147.086 8.45979,143.086 7.5,138.5 Z"/></g>
<g><path style="opacity:0.624" fill="#d3d6dd" d="M 190.5,138.5 C 190.833,138.5 191.167,138.5 191.5,138.5C 190.873,142.42 189.207,145.753 186.5,148.5C 187.833,145.167 189.167,141.833 190.5,138.5 Z"/></g>
<g><path style="opacity:0.999" fill="#21304e" d="M 190.5,138.5 C 189.167,141.833 187.833,145.167 186.5,148.5C 186.672,149.492 186.338,150.158 185.5,150.5C 184.094,150.973 183.427,151.973 183.5,153.5C 182.094,153.973 181.427,154.973 181.5,156.5C 180.094,156.973 179.427,157.973 179.5,159.5C 178.094,159.973 177.427,160.973 177.5,162.5C 176.833,163.833 175.833,164.833 174.5,165.5C 174.5,164.5 174.5,163.5 174.5,162.5C 172.856,162.714 171.356,162.38 170,161.5C 168.573,163.787 166.739,164.12 164.5,162.5C 163.808,163.025 163.308,163.692 163,164.5C 161.667,160.5 160.333,160.5 159,164.5C 158.259,163.359 157.425,163.359 156.5,164.5C 155.833,163.833 155.167,163.167 154.5,162.5C 153.284,163.002 152.117,163.335 151,163.5C 149.667,160.833 148.333,160.833 147,163.5C 145.062,162.14 143.396,162.473 142,164.5C 141.333,160.5 140.667,160.5 140,164.5C 138.56,161.665 136.727,161.165 134.5,163C 137.121,163.906 136.954,164.406 134,164.5C 132.674,164.245 131.674,163.578 131,162.5C 128.413,165.034 125.747,165.034 123,162.5C 121.333,163.167 119.667,163.833 118,164.5C 117.309,162.109 116.309,162.109 115,164.5C 107.872,162.852 100.372,162.185 92.5,162.5C 92.5,162.167 92.5,161.833 92.5,161.5C 116.986,163.417 136.653,154.75 151.5,135.5C 155.634,135.494 159.467,135.161 163,134.5C 165.504,136.647 167.838,136.647 170,134.5C 172.316,136.459 174.316,136.459 176,134.5C 179,135.167 182,135.833 185,136.5C 185.333,135.833 185.667,135.167 186,134.5C 187.401,136.729 188.901,138.062 190.5,138.5 Z"/></g>
<g><path style="opacity:0.999" fill="#202e4d" d="M 48.5,136.5 C 59.7501,150.73 74.4168,159.064 92.5,161.5C 92.5,161.833 92.5,162.167 92.5,162.5C 91.7611,162.369 91.0944,162.536 90.5,163C 91.6956,163.654 91.6956,164.154 90.5,164.5C 88.6144,164.072 86.7811,163.739 85,163.5C 84.0546,163.905 83.3879,164.572 83,165.5C 82.6827,163.699 82.016,163.366 81,164.5C 78.8563,162.337 76.523,162.337 74,164.5C 72.8643,163.217 71.531,162.217 70,161.5C 70.0267,162.788 69.0267,163.788 67,164.5C 64.4646,164.243 62.1313,163.576 60,162.5C 59.6667,163.5 59.3333,164.5 59,165.5C 58.0475,163.408 56.7141,163.075 55,164.5C 54.6667,163.833 54.3333,163.167 54,162.5C 53.3109,163.357 52.4776,164.023 51.5,164.5C 50.5745,163.359 49.7412,163.359 49,164.5C 48.6121,163.572 47.9454,162.905 47,162.5C 45.9895,162.892 45.4895,163.559 45.5,164.5C 44.2507,162.525 42.7507,162.191 41,163.5C 39.6667,162.833 38.6667,161.833 38,160.5C 35.8623,162.449 33.529,164.116 31,165.5C 29.0282,161.651 27.1949,161.651 25.5,165.5C 25.1667,165.5 24.8333,165.5 24.5,165.5C 23.8333,165.5 23.5,165.167 23.5,164.5C 22.9202,162.251 21.5869,160.585 19.5,159.5C 19.573,157.973 18.9063,156.973 17.5,156.5C 17.573,154.973 16.9063,153.973 15.5,153.5C 15.573,151.973 14.9063,150.973 13.5,150.5C 12.0078,146.182 10.0078,142.182 7.5,138.5C 7.5,137.5 7.5,136.5 7.5,135.5C 14.2809,136.037 20.4475,136.371 26,136.5C 27,135.833 28,135.167 29,134.5C 30.016,135.634 30.6827,135.301 31,133.5C 31.6914,135.891 32.6914,135.891 34,133.5C 36.5391,137.376 38.8724,137.376 41,133.5C 41.9906,134.939 43.324,135.939 45,136.5C 45.9862,135.829 47.1529,135.829 48.5,136.5 Z"/></g>
<g><path style="opacity:0.125" fill="#dfe1e6" d="M 185.5,150.5 C 185.573,152.027 184.906,153.027 183.5,153.5C 183.427,151.973 184.094,150.973 185.5,150.5 Z"/></g>
<g><path style="opacity:0.498" fill="#d0d4da" d="M 13.5,150.5 C 14.9063,150.973 15.573,151.973 15.5,153.5C 14.0937,153.027 13.427,152.027 13.5,150.5 Z"/></g>
<g><path style="opacity:0.561" fill="#cfd2d9" d="M 15.5,153.5 C 16.9063,153.973 17.573,154.973 17.5,156.5C 16.0937,156.027 15.427,155.027 15.5,153.5 Z"/></g>
<g><path style="opacity:0.498" fill="#ced1d8" d="M 183.5,153.5 C 183.573,155.027 182.906,156.027 181.5,156.5C 181.427,154.973 182.094,153.973 183.5,153.5 Z"/></g>
<g><path style="opacity:0.125" fill="#dbdde2" d="M 17.5,156.5 C 18.9063,156.973 19.573,157.973 19.5,159.5C 18.0937,159.027 17.427,158.027 17.5,156.5 Z"/></g>
<g><path style="opacity:0.125" fill="#dfe1e6" d="M 181.5,156.5 C 181.573,158.027 180.906,159.027 179.5,159.5C 179.427,157.973 180.094,156.973 181.5,156.5 Z"/></g>
<g><path style="opacity:0.063" fill="#d7d9df" d="M 19.5,159.5 C 21.5869,160.585 22.9202,162.251 23.5,164.5C 21.4131,163.415 20.0798,161.749 19.5,159.5 Z"/></g>
<g><path style="opacity:0.999" fill="#1c2a47" d="M 92.5,162.5 C 100.372,162.185 107.872,162.852 115,164.5C 116.309,162.109 117.309,162.109 118,164.5C 119.667,163.833 121.333,163.167 123,162.5C 125.747,165.034 128.413,165.034 131,162.5C 131.674,163.578 132.674,164.245 134,164.5C 136.954,164.406 137.121,163.906 134.5,163C 136.727,161.165 138.56,161.665 140,164.5C 140.667,160.5 141.333,160.5 142,164.5C 143.396,162.473 145.062,162.14 147,163.5C 148.333,160.833 149.667,160.833 151,163.5C 152.117,163.335 153.284,163.002 154.5,162.5C 155.167,163.167 155.833,163.833 156.5,164.5C 157.425,163.359 158.259,163.359 159,164.5C 160.333,160.5 161.667,160.5 163,164.5C 163.308,163.692 163.808,163.025 164.5,162.5C 166.739,164.12 168.573,163.787 170,161.5C 171.356,162.38 172.856,162.714 174.5,162.5C 174.5,163.5 174.5,164.5 174.5,165.5C 174.5,166.167 174.167,166.5 173.5,166.5C 170.5,168.833 167.833,171.5 165.5,174.5C 165.167,175.5 164.5,176.167 163.5,176.5C 161.938,176.733 160.605,177.4 159.5,178.5C 156.408,177.121 153.575,175.787 151,174.5C 150.047,176.592 148.714,176.925 147,175.5C 146.667,176.167 146.333,176.833 146,177.5C 145.333,176.167 144.667,176.167 144,177.5C 143.333,174.833 142.667,174.833 142,177.5C 139.695,177.421 137.195,177.254 134.5,177C 134,176.5 133.5,176 133,175.5C 131.267,177.602 129.267,177.935 127,176.5C 126.311,177.357 125.478,178.023 124.5,178.5C 123.304,178.154 123.304,177.654 124.5,177C 122.888,176.28 121.388,176.446 120,177.5C 119.309,175.109 118.309,175.109 117,177.5C 114.457,177.365 111.79,176.698 109,175.5C 108.667,176.167 108.333,176.833 108,177.5C 106.093,177.579 104.093,177.246 102,176.5C 100.172,178.807 98.5057,178.474 97,175.5C 96.6924,176.308 96.1924,176.975 95.5,177.5C 91.1667,177.5 86.8333,177.5 82.5,177.5C 81.8333,176.833 81.1667,176.167 80.5,175.5C 78.5484,176.814 76.715,177.48 75,177.5C 74.1247,175.487 72.7913,175.487 71,177.5C 69.984,176.366 69.3173,176.699 69,178.5C 68.3946,176.519 67.3946,176.185 66,177.5C 64.6667,176.833 63.3333,176.167 62,175.5C 61.6667,176.167 61.3333,176.833 61,177.5C 58.5384,177.088 56.205,177.088 54,177.5C 52.1284,176.932 50.2951,176.265 48.5,175.5C 48.5105,176.441 48.0105,177.108 47,177.5C 46.0497,176.978 45.2164,176.311 44.5,175.5C 42.9579,176.747 41.4579,176.747 40,175.5C 39.2828,176.044 38.7828,176.711 38.5,177.5C 37.3951,176.4 36.0618,175.733 34.5,175.5C 33.5,175.167 32.8333,174.5 32.5,173.5C 30.1667,170.833 27.8333,168.167 25.5,165.5C 27.1949,161.651 29.0282,161.651 31,165.5C 33.529,164.116 35.8623,162.449 38,160.5C 38.6667,161.833 39.6667,162.833 41,163.5C 42.7507,162.191 44.2507,162.525 45.5,164.5C 45.4895,163.559 45.9895,162.892 47,162.5C 47.9454,162.905 48.6121,163.572 49,164.5C 49.7412,163.359 50.5745,163.359 51.5,164.5C 52.4776,164.023 53.3109,163.357 54,162.5C 54.3333,163.167 54.6667,163.833 55,164.5C 56.7141,163.075 58.0475,163.408 59,165.5C 59.3333,164.5 59.6667,163.5 60,162.5C 62.1313,163.576 64.4646,164.243 67,164.5C 69.0267,163.788 70.0267,162.788 70,161.5C 71.531,162.217 72.8643,163.217 74,164.5C 76.523,162.337 78.8563,162.337 81,164.5C 82.016,163.366 82.6827,163.699 83,165.5C 83.3879,164.572 84.0546,163.905 85,163.5C 86.7811,163.739 88.6144,164.072 90.5,164.5C 91.6956,164.154 91.6956,163.654 90.5,163C 91.0944,162.536 91.7611,162.369 92.5,162.5 Z"/></g>
<g><path style="opacity:0.063" fill="#ebecef" d="M 179.5,159.5 C 179.573,161.027 178.906,162.027 177.5,162.5C 177.427,160.973 178.094,159.973 179.5,159.5 Z"/></g>
<g><path style="opacity:0.063" fill="#e7e9ec" d="M 24.5,165.5 C 24.8333,165.5 25.1667,165.5 25.5,165.5C 27.8333,168.167 30.1667,170.833 32.5,173.5C 28.8333,171.833 26.1667,169.167 24.5,165.5 Z"/></g>
<g><path style="opacity:0.125" fill="#eeeff1" d="M 173.5,166.5 C 171.833,170.167 169.167,172.833 165.5,174.5C 167.833,171.5 170.5,168.833 173.5,166.5 Z"/></g>
<g><path style="opacity:0.999" fill="#1a2742" d="M 159.5,178.5 C 159.5,178.833 159.5,179.167 159.5,179.5C 157.973,179.427 156.973,180.094 156.5,181.5C 154.973,181.427 153.973,182.094 153.5,183.5C 151.973,183.427 150.973,184.094 150.5,185.5C 146.182,186.992 142.182,188.992 138.5,191.5C 136.447,191.402 134.78,192.069 133.5,193.5C 132.791,194.404 131.791,194.737 130.5,194.5C 127.848,194.41 125.515,195.076 123.5,196.5C 110.901,198.19 98.234,198.857 85.5,198.5C 85.1667,198.5 84.8333,198.5 84.5,198.5C 81.7814,197.087 78.7814,196.42 75.5,196.5C 73.4855,195.076 71.1522,194.41 68.5,194.5C 66.3155,192.415 63.6489,191.415 60.5,191.5C 60.1667,191.5 59.8333,191.5 59.5,191.5C 56.9922,189.076 53.9922,187.41 50.5,186.5C 49.5084,186.672 48.8417,186.338 48.5,185.5C 48.0269,184.094 47.0269,183.427 45.5,183.5C 45.0269,182.094 44.0269,181.427 42.5,181.5C 42.0269,180.094 41.0269,179.427 39.5,179.5C 39.1667,178.833 38.8333,178.167 38.5,177.5C 38.7828,176.711 39.2828,176.044 40,175.5C 41.4579,176.747 42.9579,176.747 44.5,175.5C 45.2164,176.311 46.0497,176.978 47,177.5C 48.0105,177.108 48.5105,176.441 48.5,175.5C 50.2951,176.265 52.1284,176.932 54,177.5C 56.205,177.088 58.5384,177.088 61,177.5C 61.3333,176.833 61.6667,176.167 62,175.5C 63.3333,176.167 64.6667,176.833 66,177.5C 67.3946,176.185 68.3946,176.519 69,178.5C 69.3173,176.699 69.984,176.366 71,177.5C 72.7913,175.487 74.1247,175.487 75,177.5C 76.715,177.48 78.5484,176.814 80.5,175.5C 81.1667,176.167 81.8333,176.833 82.5,177.5C 86.8333,177.5 91.1667,177.5 95.5,177.5C 96.1924,176.975 96.6924,176.308 97,175.5C 98.5057,178.474 100.172,178.807 102,176.5C 104.093,177.246 106.093,177.579 108,177.5C 108.333,176.833 108.667,176.167 109,175.5C 111.79,176.698 114.457,177.365 117,177.5C 118.309,175.109 119.309,175.109 120,177.5C 121.388,176.446 122.888,176.28 124.5,177C 123.304,177.654 123.304,178.154 124.5,178.5C 125.478,178.023 126.311,177.357 127,176.5C 129.267,177.935 131.267,177.602 133,175.5C 133.5,176 134,176.5 134.5,177C 137.195,177.254 139.695,177.421 142,177.5C 142.667,174.833 143.333,174.833 144,177.5C 144.667,176.167 145.333,176.167 146,177.5C 146.333,176.833 146.667,176.167 147,175.5C 148.714,176.925 150.047,176.592 151,174.5C 153.575,175.787 156.408,177.121 159.5,178.5 Z"/></g>
<g><path style="opacity:0.875" fill="#d0d2d9" d="M 34.5,175.5 C 36.0618,175.733 37.3951,176.4 38.5,177.5C 38.8333,178.167 39.1667,178.833 39.5,179.5C 37.2512,178.92 35.5846,177.587 34.5,175.5 Z"/></g>
<g><path style="opacity:0.125" fill="#e5e7ea" d="M 163.5,176.5 C 162.738,178.262 161.404,179.262 159.5,179.5C 159.5,179.167 159.5,178.833 159.5,178.5C 160.605,177.4 161.938,176.733 163.5,176.5 Z"/></g>
<g><path style="opacity:0.875" fill="#d4d6dc" d="M 39.5,179.5 C 41.0269,179.427 42.0269,180.094 42.5,181.5C 40.9731,181.573 39.9731,180.906 39.5,179.5 Z"/></g>
<g><path style="opacity:0.125" fill="#e2e4e7" d="M 159.5,179.5 C 159.027,180.906 158.027,181.573 156.5,181.5C 156.973,180.094 157.973,179.427 159.5,179.5 Z"/></g>
<g><path style="opacity:0.875" fill="#c1c4cc" d="M 42.5,181.5 C 44.0269,181.427 45.0269,182.094 45.5,183.5C 43.9731,183.573 42.9731,182.906 42.5,181.5 Z"/></g>
<g><path style="opacity:0.247" fill="#dcdde2" d="M 156.5,181.5 C 156.027,182.906 155.027,183.573 153.5,183.5C 153.973,182.094 154.973,181.427 156.5,181.5 Z"/></g>
<g><path style="opacity:0.686" fill="#d2d4da" d="M 45.5,183.5 C 47.0269,183.427 48.0269,184.094 48.5,185.5C 46.9731,185.573 45.9731,184.906 45.5,183.5 Z"/></g>
<g><path style="opacity:0.125" fill="#dddfe3" d="M 153.5,183.5 C 153.027,184.906 152.027,185.573 150.5,185.5C 150.973,184.094 151.973,183.427 153.5,183.5 Z"/></g>
<g><path style="opacity:0.498" fill="#d5d8dd" d="M 150.5,185.5 C 147.086,188.54 143.086,190.54 138.5,191.5C 142.182,188.992 146.182,186.992 150.5,185.5 Z"/></g>
<g><path style="opacity:0.624" fill="#d1d4d9" d="M 50.5,186.5 C 53.9922,187.41 56.9922,189.076 59.5,191.5C 56.0078,190.59 53.0078,188.924 50.5,186.5 Z"/></g>
<g><path style="opacity:1" fill="#9aa0ac" d="M 60.5,191.5 C 63.6489,191.415 66.3155,192.415 68.5,194.5C 65.4582,194.267 62.7916,193.267 60.5,191.5 Z"/></g>
<g><path style="opacity:0.498" fill="#cdd0d6" d="M 138.5,191.5 C 137.22,192.931 135.553,193.598 133.5,193.5C 134.78,192.069 136.447,191.402 138.5,191.5 Z"/></g>
<g><path style="opacity:0.937" fill="#b5b9c1" d="M 68.5,194.5 C 71.1522,194.41 73.4855,195.076 75.5,196.5C 72.8478,196.59 70.5145,195.924 68.5,194.5 Z"/></g>
<g><path style="opacity:0.312" fill="#dcdde2" d="M 130.5,194.5 C 128.485,195.924 126.152,196.59 123.5,196.5C 125.515,195.076 127.848,194.41 130.5,194.5 Z"/></g>
<g><path style="opacity:0.812" fill="#caccd3" d="M 75.5,196.5 C 78.7814,196.42 81.7814,197.087 84.5,198.5C 81.2186,198.58 78.2186,197.913 75.5,196.5 Z"/></g>
<g><path style="opacity:1" fill="#b5b9c1" d="M 123.5,196.5 C 120.22,197.712 116.887,198.712 113.5,199.5C 104.167,199.5 94.8333,199.5 85.5,199.5C 85.5,199.167 85.5,198.833 85.5,198.5C 98.234,198.857 110.901,198.19 123.5,196.5 Z"/></g>
</svg>
