<?xml version="1.0" encoding="UTF-8"?>
<!DOCTYPE svg PUBLIC "-//W3C//DTD SVG 1.1//EN" "http://www.w3.org/Graphics/SVG/1.1/DTD/svg11.dtd">
<svg xmlns="http://www.w3.org/2000/svg" version="1.1" width="200px" height="200px" style="shape-rendering:geometricPrecision; text-rendering:geometricPrecision; image-rendering:optimizeQuality; fill-rule:evenodd; clip-rule:evenodd" xmlns:xlink="http://www.w3.org/1999/xlink">
<g><path style="opacity:1" fill="#edf2f2" d="M 84.5,-0.5 C 94.5,-0.5 104.5,-0.5 114.5,-0.5C 161.167,9.5 189.5,37.8333 199.5,84.5C 199.5,94.5 199.5,104.5 199.5,114.5C 189.5,161.167 161.167,189.5 114.5,199.5C 104.5,199.5 94.5,199.5 84.5,199.5C 37.8333,189.5 9.5,161.167 -0.5,114.5C -0.5,104.5 -0.5,94.5 -0.5,84.5C 9.49798,37.8354 37.8313,9.50202 84.5,-0.5 Z"/></g>
<g><path style="opacity:1" fill="#0c635c" d="M 133.5,11.5 C 128.224,15.4373 123.224,19.7706 118.5,24.5C 120.959,17.9452 118.626,14.6119 111.5,14.5C 108.016,15.87 106.349,18.5367 106.5,22.5C 106.623,23.9245 106.957,25.2579 107.5,26.5C 105.444,29.558 102.777,31.8914 99.5,33.5C 96.1552,31.1507 92.8219,28.8173 89.5,26.5C 89.8333,25.8333 90.1667,25.1667 90.5,24.5C 91.1667,24.5 91.8333,24.5 92.5,24.5C 92.6107,25.1174 92.944,25.6174 93.5,26C 103.492,28.3425 106.825,24.6758 103.5,15C 100.167,14.3333 96.8333,14.3333 93.5,15C 92.944,15.3826 92.6107,15.8826 92.5,16.5C 91.7321,17.2625 91.2321,18.2625 91,19.5C 90.6174,18.944 90.1174,18.6107 89.5,18.5C 89.5858,17.5041 89.2524,16.6708 88.5,16C 81.7371,13.1085 78.5705,15.2751 79,22.5C 81.8573,23.1431 84.6906,23.4764 87.5,23.5C 84.9135,24.48 82.2469,24.8134 79.5,24.5C 79.5271,26.1993 80.1938,27.5326 81.5,28.5C 85.1413,33.8316 89.808,38.8316 95.5,43.5C 94.4863,44.6737 93.153,45.3404 91.5,45.5C 81.0349,35.5355 70.7016,25.3688 60.5,15C 59.9056,14.5357 59.2389,14.369 58.5,14.5C 74.6963,5.85409 92.0297,2.68742 110.5,5C 118.634,5.9834 126.301,8.15007 133.5,11.5 Z"/></g>
<g><path style="opacity:1" fill="#03635c" d="M 135.5,11.5 C 137.368,12.2632 139.035,13.2632 140.5,14.5C 129.587,23.9094 119.087,33.9094 109,44.5C 108.536,45.0944 108.369,45.7611 108.5,46.5C 106.632,45.7368 104.965,44.7368 103.5,43.5C 114.5,33.1667 125.167,22.5 135.5,11.5 Z"/></g>
<g><path style="opacity:1" fill="#014d46" d="M 57.5,14.5 C 57.8333,14.5 58.1667,14.5 58.5,14.5C 59.2389,14.369 59.9056,14.5357 60.5,15C 70.7016,25.3688 81.0349,35.5355 91.5,45.5C 91.0269,46.9063 90.0269,47.573 88.5,47.5C 78.5355,37.0349 68.3688,26.7016 58,16.5C 57.5357,15.9056 57.369,15.2389 57.5,14.5 Z"/></g>
<g><path style="opacity:1" fill="#e9f0ef" d="M 89.5,18.5 C 78.8534,19.009 78.8534,19.8423 89.5,21C 90.3366,22.0113 90.67,23.1779 90.5,24.5C 90.1667,25.1667 89.8333,25.8333 89.5,26.5C 87.7028,27.7298 85.7028,28.3964 83.5,28.5C 82.8333,28.5 82.1667,28.5 81.5,28.5C 80.1938,27.5326 79.5271,26.1993 79.5,24.5C 82.2469,24.8134 84.9135,24.48 87.5,23.5C 84.6906,23.4764 81.8573,23.1431 79,22.5C 78.5705,15.2751 81.7371,13.1085 88.5,16C 89.2524,16.6708 89.5858,17.5041 89.5,18.5 Z"/></g>
<g><path style="opacity:1" fill="#e8efee" d="M 92.5,24.5 C 92.5,21.8333 92.5,19.1667 92.5,16.5C 92.6107,15.8826 92.944,15.3826 93.5,15C 96.8333,14.3333 100.167,14.3333 103.5,15C 106.825,24.6758 103.492,28.3425 93.5,26C 92.944,25.6174 92.6107,25.1174 92.5,24.5 Z"/></g>
<g><path style="opacity:1" fill="#004c45" d="M 140.5,14.5 C 140.833,14.5 141.167,14.5 141.5,14.5C 132.091,25.4131 122.091,35.9131 111.5,46C 110.552,46.4828 109.552,46.6495 108.5,46.5C 108.369,45.7611 108.536,45.0944 109,44.5C 119.087,33.9094 129.587,23.9094 140.5,14.5 Z"/></g>
<g><path style="opacity:1" fill="#01645c" d="M 57.5,14.5 C 57.369,15.2389 57.5357,15.9056 58,16.5C 68.3688,26.7016 78.5355,37.0349 88.5,47.5C 87.7095,48.4013 86.7095,49.0679 85.5,49.5C 75.1141,38.1128 64.1141,27.4461 52.5,17.5C 53.9649,16.2632 55.6316,15.2632 57.5,14.5 Z"/></g>
<g><path style="opacity:1" fill="#e1eaea" d="M 118.5,24.5 C 118.573,26.0269 117.906,27.0269 116.5,27.5C 113.721,27.7214 111.054,27.388 108.5,26.5C 108.167,26.5 107.833,26.5 107.5,26.5C 106.957,25.2579 106.623,23.9245 106.5,22.5C 106.349,18.5367 108.016,15.87 111.5,14.5C 118.626,14.6119 120.959,17.9452 118.5,24.5 Z"/></g>
<g><path style="opacity:1" fill="#02645c" d="M 141.5,14.5 C 143.368,15.2632 145.035,16.2632 146.5,17.5C 134.886,27.4461 123.886,38.1128 113.5,49.5C 111.632,48.7368 109.965,47.7368 108.5,46.5C 109.552,46.6495 110.552,46.4828 111.5,46C 122.091,35.9131 132.091,25.4131 141.5,14.5 Z"/></g>
<g><path style="opacity:1" fill="#106962" d="M 95.5,17.5 C 97.5,17.5 99.5,17.5 101.5,17.5C 101.5,19.5 101.5,21.5 101.5,23.5C 99.5,23.5 97.5,23.5 95.5,23.5C 95.5,21.5 95.5,19.5 95.5,17.5 Z"/></g>
<g><path style="opacity:1" fill="#458680" d="M 92.5,16.5 C 92.5,19.1667 92.5,21.8333 92.5,24.5C 91.8333,24.5 91.1667,24.5 90.5,24.5C 90.67,23.1779 90.3366,22.0113 89.5,21C 78.8534,19.8423 78.8534,19.009 89.5,18.5C 90.1174,18.6107 90.6174,18.944 91,19.5C 91.2321,18.2625 91.7321,17.2625 92.5,16.5 Z"/></g>
<g><path style="opacity:1" fill="#236e67" d="M 110.5,18.5 C 112.604,18.2011 114.604,18.5344 116.5,19.5C 115.675,20.3857 114.675,20.719 113.5,20.5C 113.36,22.1238 114.027,23.2904 115.5,24C 110.101,25.437 108.435,23.6036 110.5,18.5 Z"/></g>
<g><path style="opacity:1" fill="#04554e" d="M 146.5,17.5 C 164.003,26.6698 176.669,40.3364 184.5,58.5C 182.5,62.5 179.5,65.5 175.5,67.5C 168.591,51.1977 157.591,38.3644 142.5,29C 141.072,28.4209 139.738,28.5876 138.5,29.5C 131.113,36.8909 123.446,43.8909 115.5,50.5C 114.508,50.6716 113.842,50.3382 113.5,49.5C 123.886,38.1128 134.886,27.4461 146.5,17.5 Z"/></g>
<g><path style="opacity:1" fill="#07665f" d="M 89.5,26.5 C 91.8197,30.8197 95.1531,34.1531 99.5,36.5C 103.946,34.3915 106.946,31.0582 108.5,26.5C 111.054,27.388 113.721,27.7214 116.5,27.5C 111.194,32.1396 106.194,37.1396 101.5,42.5C 100.167,41.1667 98.8333,41.1667 97.5,42.5C 93.1396,37.4729 88.4729,32.8062 83.5,28.5C 85.7028,28.3964 87.7028,27.7298 89.5,26.5 Z"/></g>
<g><path style="opacity:1" fill="#004f48" d="M 133.5,11.5 C 134.167,11.5 134.833,11.5 135.5,11.5C 125.167,22.5 114.5,33.1667 103.5,43.5C 102.833,43.1667 102.167,42.8333 101.5,42.5C 106.194,37.1396 111.194,32.1396 116.5,27.5C 117.906,27.0269 118.573,26.0269 118.5,24.5C 123.224,19.7706 128.224,15.4373 133.5,11.5 Z"/></g>
<g><path style="opacity:1" fill="#004f48" d="M 81.5,28.5 C 82.1667,28.5 82.8333,28.5 83.5,28.5C 88.4729,32.8062 93.1396,37.4729 97.5,42.5C 96.8333,42.8333 96.1667,43.1667 95.5,43.5C 89.808,38.8316 85.1413,33.8316 81.5,28.5 Z"/></g>
<g><path style="opacity:1" fill="#edf2f2" d="M 59.5,28.5 C 60.8333,30.1667 60.8333,31.8333 59.5,33.5C 58.8333,33.8333 58.1667,34.1667 57.5,34.5C 56.1283,35.5116 54.795,36.5116 53.5,37.5C 52.5,37.8333 51.8333,38.5 51.5,39.5C 49.9731,39.427 48.9731,40.0937 48.5,41.5C 44.1245,44.8744 40.4578,48.8744 37.5,53.5C 36.5116,54.795 35.5116,56.1283 34.5,57.5C 34.1667,58.1667 33.8333,58.8333 33.5,59.5C 32.3263,60.5137 31.6596,61.847 31.5,63.5C 30.6618,63.8417 30.3284,64.5084 30.5,65.5C 29.2632,66.9649 28.2632,68.6316 27.5,70.5C 27.5,70.8333 27.5,71.1667 27.5,71.5C 26.2616,73.2143 25.595,75.2143 25.5,77.5C 24.2318,79.9052 23.5651,82.5718 23.5,85.5C 22.1667,93.8333 22.1667,102.167 23.5,110.5C 23.5,111.5 23.5,112.5 23.5,113.5C 23.4095,116.152 24.0762,118.485 25.5,120.5C 25.5,120.833 25.5,121.167 25.5,121.5C 25.7959,123.403 26.4625,125.07 27.5,126.5C 27.5,127.167 27.5,127.833 27.5,128.5C 28.2632,130.368 29.2632,132.035 30.5,133.5C 30.3284,134.492 30.6618,135.158 31.5,135.5C 31.6596,137.153 32.3263,138.486 33.5,139.5C 33.8333,140.167 34.1667,140.833 34.5,141.5C 33.759,146.436 31.9257,146.77 29,142.5C 15.7999,118.322 13.9666,93.3217 23.5,67.5C 30.718,49.9537 42.718,36.9537 59.5,28.5 Z"/></g>
<g><path style="opacity:1" fill="#edf2f2" d="M 175.5,67.5 C 185.033,93.3217 183.2,118.322 170,142.5C 167.074,146.77 165.241,146.436 164.5,141.5C 164.833,140.833 165.167,140.167 165.5,139.5C 166.674,138.486 167.34,137.153 167.5,135.5C 168.338,135.158 168.672,134.492 168.5,133.5C 169.737,132.035 170.737,130.368 171.5,128.5C 171.5,127.833 171.5,127.167 171.5,126.5C 172.537,125.07 173.204,123.403 173.5,121.5C 173.5,121.167 173.5,120.833 173.5,120.5C 174.924,118.485 175.59,116.152 175.5,113.5C 175.5,112.5 175.5,111.5 175.5,110.5C 176.833,102.167 176.833,93.8333 175.5,85.5C 175.435,82.5718 174.768,79.9052 173.5,77.5C 173.405,75.2143 172.738,73.2143 171.5,71.5C 171.5,71.1667 171.5,70.8333 171.5,70.5C 170.737,68.6316 169.737,66.9649 168.5,65.5C 168.672,64.5084 168.338,63.8417 167.5,63.5C 167.34,61.847 166.674,60.5137 165.5,59.5C 165.167,58.8333 164.833,58.1667 164.5,57.5C 163.488,56.1283 162.488,54.795 161.5,53.5C 158.542,48.8744 154.876,44.8744 150.5,41.5C 150.027,40.0937 149.027,39.427 147.5,39.5C 147.167,38.5 146.5,37.8333 145.5,37.5C 144.205,36.5116 142.872,35.5116 141.5,34.5C 140.833,34.1667 140.167,33.8333 139.5,33.5C 138.766,32.2921 138.433,30.9587 138.5,29.5C 139.738,28.5876 141.072,28.4209 142.5,29C 157.591,38.3644 168.591,51.1977 175.5,67.5 Z"/></g>
<g><path style="opacity:1" fill="#06665d" d="M 59.5,28.5 C 67.1742,36.1736 75.1742,43.5069 83.5,50.5C 82.205,51.4884 80.8717,52.4884 79.5,53.5C 79.631,52.7611 79.4643,52.0944 79,51.5C 72.9101,44.9043 66.4101,38.9043 59.5,33.5C 60.8333,31.8333 60.8333,30.1667 59.5,28.5 Z"/></g>
<g><path style="opacity:1" fill="#07665d" d="M 138.5,29.5 C 138.433,30.9587 138.766,32.2921 139.5,33.5C 138.761,33.369 138.094,33.5357 137.5,34C 130.904,40.0899 124.904,46.5899 119.5,53.5C 118.128,52.4884 116.795,51.4884 115.5,50.5C 123.446,43.8909 131.113,36.8909 138.5,29.5 Z"/></g>
<g><path style="opacity:1" fill="#004d47" d="M 89.5,26.5 C 92.8219,28.8173 96.1552,31.1507 99.5,33.5C 102.777,31.8914 105.444,29.558 107.5,26.5C 107.833,26.5 108.167,26.5 108.5,26.5C 106.946,31.0582 103.946,34.3915 99.5,36.5C 95.1531,34.1531 91.8197,30.8197 89.5,26.5 Z"/></g>
<g><path style="opacity:1" fill="#05564f" d="M 52.5,17.5 C 64.1141,27.4461 75.1141,38.1128 85.5,49.5C 85.1583,50.3382 84.4916,50.6716 83.5,50.5C 75.1742,43.5069 67.1742,36.1736 59.5,28.5C 42.718,36.9537 30.718,49.9537 23.5,67.5C 19.5,65.5 16.5,62.5 14.5,58.5C 22.3308,40.3364 34.9974,26.6698 52.5,17.5 Z"/></g>
<g><path style="opacity:1" fill="#004e47" d="M 59.5,33.5 C 66.4101,38.9043 72.9101,44.9043 79,51.5C 79.4643,52.0944 79.631,52.7611 79.5,53.5C 78.8333,53.8333 78.1667,54.1667 77.5,54.5C 76.7611,54.631 76.0944,54.4643 75.5,54C 68.9043,47.9101 62.9043,41.4101 57.5,34.5C 58.1667,34.1667 58.8333,33.8333 59.5,33.5 Z"/></g>
<g><path style="opacity:1" fill="#004e47" d="M 139.5,33.5 C 140.167,33.8333 140.833,34.1667 141.5,34.5C 135.891,41.7776 129.558,48.4443 122.5,54.5C 121.391,54.4431 120.391,54.1098 119.5,53.5C 124.904,46.5899 130.904,40.0899 137.5,34C 138.094,33.5357 138.761,33.369 139.5,33.5 Z"/></g>
<g><path style="opacity:1" fill="#07645c" d="M 57.5,34.5 C 62.9043,41.4101 68.9043,47.9101 75.5,54C 76.0944,54.4643 76.7611,54.631 77.5,54.5C 76.4863,55.6737 75.153,56.3404 73.5,56.5C 67.4443,49.4423 60.7776,43.1089 53.5,37.5C 54.795,36.5116 56.1283,35.5116 57.5,34.5 Z"/></g>
<g><path style="opacity:1" fill="#05635b" d="M 141.5,34.5 C 142.872,35.5116 144.205,36.5116 145.5,37.5C 138.222,43.1089 131.556,49.4423 125.5,56.5C 123.973,56.573 122.973,55.9063 122.5,54.5C 129.558,48.4443 135.891,41.7776 141.5,34.5 Z"/></g>
<g><path style="opacity:1" fill="#004c45" d="M 53.5,37.5 C 60.7776,43.1089 67.4443,49.4423 73.5,56.5C 72.7095,57.4013 71.7095,58.0679 70.5,58.5C 63.8333,52.5 57.5,46.1667 51.5,39.5C 51.8333,38.5 52.5,37.8333 53.5,37.5 Z"/></g>
<g><path style="opacity:1" fill="#004c45" d="M 145.5,37.5 C 146.5,37.8333 147.167,38.5 147.5,39.5C 141.5,46.1667 135.167,52.5 128.5,58.5C 127.29,58.0679 126.29,57.4013 125.5,56.5C 131.556,49.4423 138.222,43.1089 145.5,37.5 Z"/></g>
<g><path style="opacity:1" fill="#09665d" d="M 51.5,39.5 C 57.5,46.1667 63.8333,52.5 70.5,58.5C 69.7095,59.4013 68.7095,60.0679 67.5,60.5C 62.1667,53.1667 55.8333,46.8333 48.5,41.5C 48.9731,40.0937 49.9731,39.427 51.5,39.5 Z"/></g>
<g><path style="opacity:1" fill="#09665d" d="M 147.5,39.5 C 149.027,39.427 150.027,40.0937 150.5,41.5C 143.167,46.8333 136.833,53.1667 131.5,60.5C 130.29,60.0679 129.29,59.4013 128.5,58.5C 135.167,52.5 141.5,46.1667 147.5,39.5 Z"/></g>
<g><path style="opacity:1" fill="#ebf1f0" d="M 101.5,42.5 C 102.167,42.8333 102.833,43.1667 103.5,43.5C 104.965,44.7368 106.632,45.7368 108.5,46.5C 109.965,47.7368 111.632,48.7368 113.5,49.5C 113.842,50.3382 114.508,50.6716 115.5,50.5C 116.795,51.4884 118.128,52.4884 119.5,53.5C 120.391,54.1098 121.391,54.4431 122.5,54.5C 122.973,55.9063 123.973,56.573 125.5,56.5C 126.29,57.4013 127.29,58.0679 128.5,58.5C 129.29,59.4013 130.29,60.0679 131.5,60.5C 134.571,62.8977 137.905,64.8977 141.5,66.5C 141.5,88.5 141.5,110.5 141.5,132.5C 140.833,132.5 140.5,132.833 140.5,133.5C 137.366,134.901 134.366,136.568 131.5,138.5C 130.29,138.932 129.29,139.599 128.5,140.5C 127.833,140.833 127.167,141.167 126.5,141.5C 120.464,145.181 114.464,148.848 108.5,152.5C 105.688,154.408 102.688,156.075 99.5,157.5C 94.1325,154.444 88.7992,151.444 83.5,148.5C 82.205,147.512 80.8717,146.512 79.5,145.5C 78.609,144.89 77.609,144.557 76.5,144.5C 76.0269,143.094 75.0269,142.427 73.5,142.5C 68.7671,139.11 63.7671,136.11 58.5,133.5C 58.5,132.833 58.1667,132.5 57.5,132.5C 57.5,110.5 57.5,88.5 57.5,66.5C 61.1178,64.8627 64.4512,62.8627 67.5,60.5C 68.7095,60.0679 69.7095,59.4013 70.5,58.5C 71.7095,58.0679 72.7095,57.4013 73.5,56.5C 75.153,56.3404 76.4863,55.6737 77.5,54.5C 78.1667,54.1667 78.8333,53.8333 79.5,53.5C 80.8717,52.4884 82.205,51.4884 83.5,50.5C 84.4916,50.6716 85.1583,50.3382 85.5,49.5C 86.7095,49.0679 87.7095,48.4013 88.5,47.5C 90.0269,47.573 91.0269,46.9063 91.5,45.5C 93.153,45.3404 94.4863,44.6737 95.5,43.5C 96.1667,43.1667 96.8333,42.8333 97.5,42.5C 98.8333,41.1667 100.167,41.1667 101.5,42.5 Z"/></g>
<g><path style="opacity:1" fill="#0c6861" d="M 98.5,44.5 C 112.192,52.0992 125.692,60.0992 139,68.5C 139.667,89.1667 139.667,109.833 139,130.5C 125.917,138.626 112.75,146.626 99.5,154.5C 86.2501,146.626 73.0834,138.626 60,130.5C 59.3333,109.833 59.3333,89.1667 60,68.5C 72.9815,60.6002 85.8148,52.6002 98.5,44.5 Z"/></g>
<g><path style="opacity:1" fill="#02524b" d="M 48.5,41.5 C 55.8333,46.8333 62.1667,53.1667 67.5,60.5C 64.4512,62.8627 61.1178,64.8627 57.5,66.5C 56.5318,68.6074 56.1984,70.9407 56.5,73.5C 49.4423,67.4443 43.1089,60.7776 37.5,53.5C 40.4578,48.8744 44.1245,44.8744 48.5,41.5 Z"/></g>
<g><path style="opacity:1" fill="#02524a" d="M 150.5,41.5 C 154.876,44.8744 158.542,48.8744 161.5,53.5C 155.891,60.7776 149.558,67.4443 142.5,73.5C 142.802,70.9407 142.468,68.6074 141.5,66.5C 137.905,64.8977 134.571,62.8977 131.5,60.5C 136.833,53.1667 143.167,46.8333 150.5,41.5 Z"/></g>
<g><path style="opacity:1" fill="#03635a" d="M 37.5,53.5 C 43.1089,60.7776 49.4423,67.4443 56.5,73.5C 56.5,74.8333 56.5,76.1667 56.5,77.5C 49.4458,70.442 42.1125,63.7753 34.5,57.5C 35.5116,56.1283 36.5116,54.795 37.5,53.5 Z"/></g>
<g><path style="opacity:1" fill="#03635a" d="M 161.5,53.5 C 162.488,54.795 163.488,56.1283 164.5,57.5C 156.888,63.7753 149.554,70.442 142.5,77.5C 142.5,76.1667 142.5,74.8333 142.5,73.5C 149.558,67.4443 155.891,60.7776 161.5,53.5 Z"/></g>
<g><path style="opacity:1" fill="#7dafaf" d="M 104.5,56.5 C 103.502,85.3285 103.169,114.329 103.5,143.5C 102.17,114.331 102.17,84.9972 103.5,55.5C 104.107,55.6236 104.44,55.9569 104.5,56.5 Z"/></g>
<g><path style="opacity:1" fill="#f5f7f7" d="M 94.5,55.5 C 95.6638,84.6638 95.8305,113.997 95,143.5C 85.7481,137.456 76.2481,131.789 66.5,126.5C 65.3337,108.843 65.167,91.1761 66,73.5C 75.6488,67.6003 85.1488,61.6003 94.5,55.5 Z"/></g>
<g><path style="opacity:1" fill="#f5f7f7" d="M 104.5,56.5 C 114.202,61.6787 123.535,67.3454 132.5,73.5C 132.5,80.1667 132.5,86.8333 132.5,93.5C 130.167,93.5 127.833,93.5 125.5,93.5C 125.828,88.1254 125.495,82.7921 124.5,77.5C 120.472,75.155 116.472,72.8217 112.5,70.5C 112.44,69.9569 112.107,69.6236 111.5,69.5C 110.167,89.5 110.167,109.5 111.5,129.5C 112.107,129.376 112.44,129.043 112.5,128.5C 116.472,126.178 120.472,123.845 124.5,121.5C 125.491,117.555 125.824,113.555 125.5,109.5C 123.167,109.5 120.833,109.5 118.5,109.5C 118.5,106.833 118.5,104.167 118.5,101.5C 123.5,101.5 128.5,101.5 133.5,101.5C 133.666,109.507 133.5,117.507 133,125.5C 123.222,131.637 113.389,137.637 103.5,143.5C 103.169,114.329 103.502,85.3285 104.5,56.5 Z"/></g>
<g><path style="opacity:1" fill="#004b44" d="M 34.5,57.5 C 42.1125,63.7753 49.4458,70.442 56.5,77.5C 56.5,79.1667 56.5,80.8333 56.5,82.5C 48.5,75.1667 40.8333,67.5 33.5,59.5C 33.8333,58.8333 34.1667,58.1667 34.5,57.5 Z"/></g>
<g><path style="opacity:1" fill="#004b44" d="M 164.5,57.5 C 164.833,58.1667 165.167,58.8333 165.5,59.5C 158.167,67.5 150.5,75.1667 142.5,82.5C 142.5,80.8333 142.5,79.1667 142.5,77.5C 149.554,70.442 156.888,63.7753 164.5,57.5 Z"/></g>
<g><path style="opacity:1" fill="#02635a" d="M 33.5,59.5 C 40.8333,67.5 48.5,75.1667 56.5,82.5C 56.5,84.1667 56.5,85.8333 56.5,87.5C 48.1667,79.5 39.8333,71.5 31.5,63.5C 31.6596,61.847 32.3263,60.5137 33.5,59.5 Z"/></g>
<g><path style="opacity:1" fill="#02635a" d="M 165.5,59.5 C 166.674,60.5137 167.34,61.847 167.5,63.5C 159.167,71.5 150.833,79.5 142.5,87.5C 142.5,85.8333 142.5,84.1667 142.5,82.5C 150.5,75.1667 158.167,67.5 165.5,59.5 Z"/></g>
<g><path style="opacity:1" fill="#004d46" d="M 31.5,63.5 C 39.8333,71.5 48.1667,79.5 56.5,87.5C 56.6602,89.1992 56.4935,90.8659 56,92.5C 46.908,83.9123 38.408,74.9123 30.5,65.5C 30.3284,64.5084 30.6618,63.8417 31.5,63.5 Z"/></g>
<g><path style="opacity:1" fill="#004d46" d="M 167.5,63.5 C 168.338,63.8417 168.672,64.5084 168.5,65.5C 160.592,74.9123 152.092,83.9123 143,92.5C 142.506,90.8659 142.34,89.1992 142.5,87.5C 150.833,79.5 159.167,71.5 167.5,63.5 Z"/></g>
<g><path style="opacity:1" fill="#2c736c" d="M 30.5,65.5 C 38.408,74.9123 46.908,83.9123 56,92.5C 56.4935,90.8659 56.6602,89.1992 56.5,87.5C 56.5,85.8333 56.5,84.1667 56.5,82.5C 56.5,80.8333 56.5,79.1667 56.5,77.5C 56.5,76.1667 56.5,74.8333 56.5,73.5C 56.1984,70.9407 56.5318,68.6074 57.5,66.5C 57.5,88.5 57.5,110.5 57.5,132.5C 57.1667,132.5 56.8333,132.5 56.5,132.5C 56.5,130.167 56.5,127.833 56.5,125.5C 56.5,124.167 56.5,122.833 56.5,121.5C 56.5,119.833 56.5,118.167 56.5,116.5C 56.5,114.833 56.5,113.167 56.5,111.5C 56.5,109.833 56.5,108.167 56.5,106.5C 56.5,104.833 56.5,103.167 56.5,101.5C 56.6567,100.127 56.49,98.7932 56,97.5C 46.9126,87.9085 37.4126,78.9085 27.5,70.5C 28.2632,68.6316 29.2632,66.9649 30.5,65.5 Z"/></g>
<g><path style="opacity:1" fill="#2c736d" d="M 168.5,65.5 C 169.737,66.9649 170.737,68.6316 171.5,70.5C 161.587,78.9085 152.087,87.9085 143,97.5C 142.51,98.7932 142.343,100.127 142.5,101.5C 142.5,103.167 142.5,104.833 142.5,106.5C 142.5,108.167 142.5,109.833 142.5,111.5C 142.5,113.167 142.5,114.833 142.5,116.5C 142.5,118.167 142.5,119.833 142.5,121.5C 142.5,122.833 142.5,124.167 142.5,125.5C 142.5,127.833 142.5,130.167 142.5,132.5C 142.167,132.5 141.833,132.5 141.5,132.5C 141.5,110.5 141.5,88.5 141.5,66.5C 142.468,68.6074 142.802,70.9407 142.5,73.5C 142.5,74.8333 142.5,76.1667 142.5,77.5C 142.5,79.1667 142.5,80.8333 142.5,82.5C 142.5,84.1667 142.5,85.8333 142.5,87.5C 142.34,89.1992 142.506,90.8659 143,92.5C 152.092,83.9123 160.592,74.9123 168.5,65.5 Z"/></g>
<g><path style="opacity:1" fill="#004c45" d="M 27.5,70.5 C 37.4126,78.9085 46.9126,87.9085 56,97.5C 56.49,98.7932 56.6567,100.127 56.5,101.5C 47.1141,110.889 37.4474,119.889 27.5,128.5C 27.5,127.833 27.5,127.167 27.5,126.5C 36.2089,117.793 44.5423,108.793 52.5,99.5C 44.1526,90.1541 35.8192,80.8207 27.5,71.5C 27.5,71.1667 27.5,70.8333 27.5,70.5 Z"/></g>
<g><path style="opacity:1" fill="#0c6760" d="M 86.5,70.5 C 87.8333,89.8333 87.8333,109.167 86.5,128.5C 82.5172,126.194 78.5172,123.861 74.5,121.5C 73.1667,106.833 73.1667,92.1667 74.5,77.5C 78.5275,75.155 82.5275,72.8217 86.5,70.5 Z"/></g>
<g><path style="opacity:1" fill="#9bc0c0" d="M 86.5,70.5 C 86.56,69.9569 86.8933,69.6236 87.5,69.5C 88.8333,89.5 88.8333,109.5 87.5,129.5C 86.8933,129.376 86.56,129.043 86.5,128.5C 87.8333,109.167 87.8333,89.8333 86.5,70.5 Z"/></g>
<g><path style="opacity:1" fill="#7eafaf" d="M 112.5,70.5 C 111.167,89.8333 111.167,109.167 112.5,128.5C 112.44,129.043 112.107,129.376 111.5,129.5C 110.167,109.5 110.167,89.5 111.5,69.5C 112.107,69.6236 112.44,69.9569 112.5,70.5 Z"/></g>
<g><path style="opacity:1" fill="#004c45" d="M 171.5,70.5 C 171.5,70.8333 171.5,71.1667 171.5,71.5C 163.181,80.8207 154.847,90.1541 146.5,99.5C 154.458,108.793 162.791,117.793 171.5,126.5C 171.5,127.167 171.5,127.833 171.5,128.5C 161.553,119.889 151.886,110.889 142.5,101.5C 142.343,100.127 142.51,98.7932 143,97.5C 152.087,87.9085 161.587,78.9085 171.5,70.5 Z"/></g>
<g><path style="opacity:1" fill="#02635c" d="M 27.5,71.5 C 35.8192,80.8207 44.1526,90.1541 52.5,99.5C 44.5423,108.793 36.2089,117.793 27.5,126.5C 26.4625,125.07 25.7959,123.403 25.5,121.5C 33.2098,114.791 40.2098,107.458 46.5,99.5C 40.2098,91.5419 33.2098,84.2086 25.5,77.5C 25.595,75.2143 26.2616,73.2143 27.5,71.5 Z"/></g>
<g><path style="opacity:1" fill="#94bcbc" d="M 132.5,73.5 C 133.491,80.3134 133.825,87.3134 133.5,94.5C 130.615,94.8064 127.948,94.4731 125.5,93.5C 127.833,93.5 130.167,93.5 132.5,93.5C 132.5,86.8333 132.5,80.1667 132.5,73.5 Z"/></g>
<g><path style="opacity:1" fill="#02635c" d="M 171.5,71.5 C 172.738,73.2143 173.405,75.2143 173.5,77.5C 165.79,84.2086 158.79,91.5419 152.5,99.5C 158.79,107.458 165.79,114.791 173.5,121.5C 173.204,123.403 172.537,125.07 171.5,126.5C 162.791,117.793 154.458,108.793 146.5,99.5C 154.847,90.1541 163.181,80.8207 171.5,71.5 Z"/></g>
<g><path style="opacity:1" fill="#004b43" d="M 25.5,77.5 C 33.2098,84.2086 40.2098,91.5419 46.5,99.5C 40.2098,107.458 33.2098,114.791 25.5,121.5C 25.5,121.167 25.5,120.833 25.5,120.5C 31.4856,113.512 37.4856,106.512 43.5,99.5C 38.2488,92.744 32.4155,86.4106 26,80.5C 25.5172,79.552 25.3505,78.552 25.5,77.5 Z"/></g>
<g><path style="opacity:1" fill="#004b43" d="M 173.5,77.5 C 173.649,78.552 173.483,79.552 173,80.5C 166.585,86.4106 160.751,92.744 155.5,99.5C 161.514,106.512 167.514,113.512 173.5,120.5C 173.5,120.833 173.5,121.167 173.5,121.5C 165.79,114.791 158.79,107.458 152.5,99.5C 158.79,91.5419 165.79,84.2086 173.5,77.5 Z"/></g>
<g><path style="opacity:1" fill="#06635c" d="M 25.5,77.5 C 25.3505,78.552 25.5172,79.552 26,80.5C 32.4155,86.4106 38.2488,92.744 43.5,99.5C 37.4856,106.512 31.4856,113.512 25.5,120.5C 24.0762,118.485 23.4095,116.152 23.5,113.5C 28.5481,109.454 32.8814,104.787 36.5,99.5C 32.8814,94.2131 28.5481,89.5464 23.5,85.5C 23.5651,82.5718 24.2318,79.9052 25.5,77.5 Z"/></g>
<g><path style="opacity:1" fill="#06635c" d="M 173.5,77.5 C 174.768,79.9052 175.435,82.5718 175.5,85.5C 170.452,89.5464 166.119,94.2131 162.5,99.5C 166.119,104.787 170.452,109.454 175.5,113.5C 175.59,116.152 174.924,118.485 173.5,120.5C 167.514,113.512 161.514,106.512 155.5,99.5C 160.751,92.744 166.585,86.4106 173,80.5C 173.483,79.552 173.649,78.552 173.5,77.5 Z"/></g>
<g><path style="opacity:1" fill="#004e47" d="M 23.5,85.5 C 28.5481,89.5464 32.8814,94.2131 36.5,99.5C 32.8814,104.787 28.5481,109.454 23.5,113.5C 23.5,112.5 23.5,111.5 23.5,110.5C 27.5517,107.45 30.885,103.783 33.5,99.5C 30.9251,95.4177 27.7585,91.751 24,88.5C 23.5172,87.552 23.3505,86.552 23.5,85.5 Z"/></g>
<g><path style="opacity:1" fill="#004e47" d="M 175.5,85.5 C 175.649,86.552 175.483,87.552 175,88.5C 171.242,91.751 168.075,95.4177 165.5,99.5C 168.115,103.783 171.448,107.45 175.5,110.5C 175.5,111.5 175.5,112.5 175.5,113.5C 170.452,109.454 166.119,104.787 162.5,99.5C 166.119,94.2131 170.452,89.5464 175.5,85.5 Z"/></g>
<g><path style="opacity:1" fill="#06625b" d="M 23.5,85.5 C 23.3505,86.552 23.5172,87.552 24,88.5C 27.7585,91.751 30.9251,95.4177 33.5,99.5C 30.885,103.783 27.5517,107.45 23.5,110.5C 22.1667,102.167 22.1667,93.8333 23.5,85.5 Z"/></g>
<g><path style="opacity:1" fill="#06625b" d="M 175.5,85.5 C 176.833,93.8333 176.833,102.167 175.5,110.5C 171.448,107.45 168.115,103.783 165.5,99.5C 168.075,95.4177 171.242,91.751 175,88.5C 175.483,87.552 175.649,86.552 175.5,85.5 Z"/></g>
<g><path style="opacity:1" fill="#02635b" d="M 56.5,101.5 C 56.5,103.167 56.5,104.833 56.5,106.5C 47.1115,114.887 38.4448,123.887 30.5,133.5C 29.2632,132.035 28.2632,130.368 27.5,128.5C 37.4474,119.889 47.1141,110.889 56.5,101.5 Z"/></g>
<g><path style="opacity:1" fill="#02635b" d="M 142.5,101.5 C 151.886,110.889 161.553,119.889 171.5,128.5C 170.737,130.368 169.737,132.035 168.5,133.5C 160.555,123.887 151.889,114.887 142.5,106.5C 142.5,104.833 142.5,103.167 142.5,101.5 Z"/></g>
<g><path style="opacity:1" fill="#004d46" d="M 56.5,106.5 C 56.5,108.167 56.5,109.833 56.5,111.5C 48.1667,119.5 39.8333,127.5 31.5,135.5C 30.6618,135.158 30.3284,134.492 30.5,133.5C 38.4448,123.887 47.1115,114.887 56.5,106.5 Z"/></g>
<g><path style="opacity:1" fill="#004d46" d="M 142.5,106.5 C 151.889,114.887 160.555,123.887 168.5,133.5C 168.672,134.492 168.338,135.158 167.5,135.5C 159.167,127.5 150.833,119.5 142.5,111.5C 142.5,109.833 142.5,108.167 142.5,106.5 Z"/></g>
<g><path style="opacity:1" fill="#02635a" d="M 56.5,111.5 C 56.5,113.167 56.5,114.833 56.5,116.5C 48.5,123.833 40.8333,131.5 33.5,139.5C 32.3263,138.486 31.6596,137.153 31.5,135.5C 39.8333,127.5 48.1667,119.5 56.5,111.5 Z"/></g>
<g><path style="opacity:1" fill="#02635a" d="M 142.5,111.5 C 150.833,119.5 159.167,127.5 167.5,135.5C 167.34,137.153 166.674,138.486 165.5,139.5C 158.167,131.5 150.5,123.833 142.5,116.5C 142.5,114.833 142.5,113.167 142.5,111.5 Z"/></g>
<g><path style="opacity:1" fill="#004b44" d="M 56.5,116.5 C 56.5,118.167 56.5,119.833 56.5,121.5C 49.4458,128.558 42.1125,135.225 34.5,141.5C 34.1667,140.833 33.8333,140.167 33.5,139.5C 40.8333,131.5 48.5,123.833 56.5,116.5 Z"/></g>
<g><path style="opacity:1" fill="#004b44" d="M 142.5,116.5 C 150.5,123.833 158.167,131.5 165.5,139.5C 165.167,140.167 164.833,140.833 164.5,141.5C 156.888,135.225 149.554,128.558 142.5,121.5C 142.5,119.833 142.5,118.167 142.5,116.5 Z"/></g>
<g><path style="opacity:1" fill="#004d47" d="M 56.5,125.5 C 56.5,127.833 56.5,130.167 56.5,132.5C 47.3683,141.131 38.3683,149.964 29.5,159C 28.552,159.483 27.552,159.649 26.5,159.5C 25.0937,159.027 24.427,158.027 24.5,156.5C 35.1667,146.167 45.8333,135.833 56.5,125.5 Z"/></g>
<g><path style="opacity:1" fill="#004d47" d="M 142.5,125.5 C 153.167,135.833 163.833,146.167 174.5,156.5C 174.262,158.404 173.262,159.738 171.5,160.5C 161.86,151.194 152.193,141.861 142.5,132.5C 142.5,130.167 142.5,127.833 142.5,125.5 Z"/></g>
<g><path style="opacity:1" fill="#036259" d="M 56.5,132.5 C 56.8333,132.5 57.1667,132.5 57.5,132.5C 58.1667,132.5 58.5,132.833 58.5,133.5C 48.1122,142.886 38.4455,152.886 29.5,163.5C 28.5116,162.205 27.5116,160.872 26.5,159.5C 27.552,159.649 28.552,159.483 29.5,159C 38.3683,149.964 47.3683,141.131 56.5,132.5 Z"/></g>
<g><path style="opacity:1" fill="#03625a" d="M 140.5,133.5 C 140.5,132.833 140.833,132.5 141.5,132.5C 141.833,132.5 142.167,132.5 142.5,132.5C 152.193,141.861 161.86,151.194 171.5,160.5C 171.068,161.71 170.401,162.71 169.5,163.5C 160.554,152.886 150.888,142.886 140.5,133.5 Z"/></g>
<g><path style="opacity:1" fill="#075f58" d="M 14.5,58.5 C 16.5,62.5 19.5,65.5 23.5,67.5C 13.9666,93.3217 15.7999,118.322 29,142.5C 31.9257,146.77 33.759,146.436 34.5,141.5C 42.1125,135.225 49.4458,128.558 56.5,121.5C 56.5,122.833 56.5,124.167 56.5,125.5C 45.8333,135.833 35.1667,146.167 24.5,156.5C 13.0333,142.29 6.53326,125.957 5,107.5C 3.017,90.046 6.18367,73.7126 14.5,58.5 Z"/></g>
<g><path style="opacity:1" fill="#075f57" d="M 184.5,58.5 C 192.816,73.7126 195.983,90.046 194,107.5C 192.467,125.957 185.967,142.29 174.5,156.5C 163.833,146.167 153.167,135.833 142.5,125.5C 142.5,124.167 142.5,122.833 142.5,121.5C 149.554,128.558 156.888,135.225 164.5,141.5C 165.241,146.436 167.074,146.77 170,142.5C 183.2,118.322 185.033,93.3217 175.5,67.5C 179.5,65.5 182.5,62.5 184.5,58.5 Z"/></g>
<g><path style="opacity:1" fill="#146860" d="M 131.5,138.5 C 136.069,144.576 141.236,150.242 147,155.5C 147.383,154.944 147.883,154.611 148.5,154.5C 149.048,156.394 150.048,158.06 151.5,159.5C 151.167,159.833 150.833,160.167 150.5,160.5C 148.664,159.972 146.997,159.306 145.5,158.5C 140.854,152.168 135.187,146.168 128.5,140.5C 129.29,139.599 130.29,138.932 131.5,138.5 Z"/></g>
<g><path style="opacity:1" fill="#004b45" d="M 128.5,140.5 C 135.187,146.168 140.854,152.168 145.5,158.5C 144.5,158.5 143.5,158.5 142.5,158.5C 136.925,154.433 131.759,149.766 127,144.5C 126.517,143.552 126.351,142.552 126.5,141.5C 127.167,141.167 127.833,140.833 128.5,140.5 Z"/></g>
<g><path style="opacity:1" fill="#004b44" d="M 76.5,144.5 C 77.609,144.557 78.609,144.89 79.5,145.5C 74.1667,151.5 68.5,157.167 62.5,162.5C 61.8333,162.167 61.1667,161.833 60.5,161.5C 64.8113,155.501 70.1447,149.835 76.5,144.5 Z"/></g>
<g><path style="opacity:1" fill="#05645b" d="M 79.5,145.5 C 80.8717,146.512 82.205,147.512 83.5,148.5C 76.5549,154.108 69.8882,160.108 63.5,166.5C 63.5674,165.041 63.2341,163.708 62.5,162.5C 68.5,157.167 74.1667,151.5 79.5,145.5 Z"/></g>
<g><path style="opacity:1" fill="#e5ecec" d="M 56.5,159.5 C 56.1667,160.5 55.5,161.167 54.5,161.5C 52.8523,160.19 51.1856,158.857 49.5,157.5C 49.1667,157.667 48.8333,157.833 48.5,158C 49.6872,159.019 50.6872,160.186 51.5,161.5C 49.7408,162.754 48.2408,162.421 47,160.5C 45.5601,163.335 43.7267,163.835 41.5,162C 43.6453,158.688 46.312,155.854 49.5,153.5C 52.0912,155.281 54.4245,157.281 56.5,159.5 Z"/></g>
<g><path style="opacity:1" fill="#04534c" d="M 58.5,133.5 C 63.7671,136.11 68.7671,139.11 73.5,142.5C 68.1667,148.5 62.5,154.167 56.5,159.5C 54.4245,157.281 52.0912,155.281 49.5,153.5C 46.312,155.854 43.6453,158.688 41.5,162C 43.7267,163.835 45.5601,163.335 47,160.5C 48.2408,162.421 49.7408,162.754 51.5,161.5C 50.6872,160.186 49.6872,159.019 48.5,158C 48.8333,157.833 49.1667,157.667 49.5,157.5C 51.1856,158.857 52.8523,160.19 54.5,161.5C 50.6905,166.654 46.0238,170.654 40.5,173.5C 36.2092,170.877 32.5425,167.544 29.5,163.5C 38.4455,152.886 48.1122,142.886 58.5,133.5 Z"/></g>
<g><path style="opacity:1" fill="#075f58" d="M 73.5,142.5 C 75.0269,142.427 76.0269,143.094 76.5,144.5C 70.1447,149.835 64.8113,155.501 60.5,161.5C 56.8971,163.763 53.5638,166.43 50.5,169.5C 52.4233,170.308 54.4233,170.808 56.5,171C 58.4622,172.621 60.1288,174.454 61.5,176.5C 62.2403,173.134 62.907,169.8 63.5,166.5C 69.8882,160.108 76.5549,154.108 83.5,148.5C 88.7992,151.444 94.1325,154.444 99.5,157.5C 102.688,156.075 105.688,154.408 108.5,152.5C 112.833,158.833 118.167,164.167 124.5,168.5C 123.883,170.68 122.883,172.68 121.5,174.5C 120.996,171.658 119.329,170.325 116.5,170.5C 117.905,174.385 118.905,178.385 119.5,182.5C 120.5,182.5 121.5,182.5 122.5,182.5C 121.467,176.906 122.8,175.739 126.5,179C 131.483,179.028 131.483,177.862 126.5,175.5C 125.224,174.386 125.224,173.386 126.5,172.5C 130.892,176.897 135.558,180.897 140.5,184.5C 104.942,200.923 71.6084,197.256 40.5,173.5C 46.0238,170.654 50.6905,166.654 54.5,161.5C 55.5,161.167 56.1667,160.5 56.5,159.5C 62.5,154.167 68.1667,148.5 73.5,142.5 Z"/></g>
<g><path style="opacity:1" fill="#e8efee" d="M 60.5,161.5 C 61.1667,161.833 61.8333,162.167 62.5,162.5C 63.2341,163.708 63.5674,165.041 63.5,166.5C 62.907,169.8 62.2403,173.134 61.5,176.5C 60.1288,174.454 58.4622,172.621 56.5,171C 54.4233,170.808 52.4233,170.308 50.5,169.5C 53.5638,166.43 56.8971,163.763 60.5,161.5 Z"/></g>
<g><path style="opacity:1" fill="#075750" d="M 140.5,133.5 C 150.888,142.886 160.554,152.886 169.5,163.5C 161.237,172.428 151.57,179.428 140.5,184.5C 135.558,180.897 130.892,176.897 126.5,172.5C 126.421,171.07 126.754,169.736 127.5,168.5C 126.575,167.438 125.575,167.438 124.5,168.5C 118.167,164.167 112.833,158.833 108.5,152.5C 114.464,148.848 120.464,145.181 126.5,141.5C 126.351,142.552 126.517,143.552 127,144.5C 131.759,149.766 136.925,154.433 142.5,158.5C 141.46,160.719 141.96,162.719 144,164.5C 145.529,165.729 146.696,167.229 147.5,169C 148.965,169.601 149.965,169.101 150.5,167.5C 146.145,163.019 146.978,161.686 153,163.5C 154.728,163.546 156.228,163.046 157.5,162C 155.69,159.356 153.69,156.856 151.5,154.5C 150.386,153.224 149.386,153.224 148.5,154.5C 147.883,154.611 147.383,154.944 147,155.5C 141.236,150.242 136.069,144.576 131.5,138.5C 134.366,136.568 137.366,134.901 140.5,133.5 Z"/></g>
<g><path style="opacity:1" fill="#e8efee" d="M 136.5,162.5 C 137.675,162.281 138.675,162.614 139.5,163.5C 137.874,164.99 136.208,166.49 134.5,168C 139.962,166.972 140.629,168.305 136.5,172C 138.49,171.862 140.49,171.362 142.5,170.5C 143.167,170.833 143.833,171.167 144.5,171.5C 142.098,173.789 139.265,175.455 136,176.5C 133.541,173.755 131.707,170.589 130.5,167C 132.358,165.245 134.358,163.745 136.5,162.5 Z"/></g>
<g><path style="opacity:1" fill="#ebf0ef" d="M 142.5,158.5 C 143.5,158.5 144.5,158.5 145.5,158.5C 146.997,159.306 148.664,159.972 150.5,160.5C 150.833,160.167 151.167,159.833 151.5,159.5C 150.048,158.06 149.048,156.394 148.5,154.5C 149.386,153.224 150.386,153.224 151.5,154.5C 153.69,156.856 155.69,159.356 157.5,162C 156.228,163.046 154.728,163.546 153,163.5C 146.978,161.686 146.145,163.019 150.5,167.5C 149.965,169.101 148.965,169.601 147.5,169C 146.696,167.229 145.529,165.729 144,164.5C 141.96,162.719 141.46,160.719 142.5,158.5 Z"/></g>
<g><path style="opacity:1" fill="#e9efef" d="M 69.5,167.5 C 70.8221,167.33 71.9887,167.663 73,168.5C 73.7246,170.949 74.7246,173.283 76,175.5C 76.5431,173.369 77.3764,171.369 78.5,169.5C 79.7199,169.887 80.3865,170.72 80.5,172C 79.7508,175.611 78.2508,178.777 76,181.5C 75.228,181.355 74.5613,181.022 74,180.5C 73.3811,177.968 72.3811,175.635 71,173.5C 69.9914,175.025 69.4914,176.692 69.5,178.5C 68.5,178.5 67.5,178.5 66.5,178.5C 66.8925,174.658 67.8925,170.991 69.5,167.5 Z"/></g>
<g><path style="opacity:1" fill="#39827c" d="M 59.5,165.5 C 60.4345,166.568 60.7678,167.901 60.5,169.5C 59.325,169.719 58.325,169.386 57.5,168.5C 58.1925,167.482 58.8592,166.482 59.5,165.5 Z"/></g>
<g><path style="opacity:1" fill="#e8efee" d="M 126.5,172.5 C 125.224,173.386 125.224,174.386 126.5,175.5C 131.483,177.862 131.483,179.028 126.5,179C 122.8,175.739 121.467,176.906 122.5,182.5C 121.5,182.5 120.5,182.5 119.5,182.5C 118.905,178.385 117.905,174.385 116.5,170.5C 119.329,170.325 120.996,171.658 121.5,174.5C 122.883,172.68 123.883,170.68 124.5,168.5C 125.575,167.438 126.575,167.438 127.5,168.5C 126.754,169.736 126.421,171.07 126.5,172.5 Z"/></g>
<g><path style="opacity:1" fill="#e4ecec" d="M 88.5,172.5 C 92.1667,172.5 95.8333,172.5 99.5,172.5C 99.5,173.5 99.5,174.5 99.5,175.5C 98.1667,175.5 96.8333,175.5 95.5,175.5C 95.0371,178.482 94.7038,181.482 94.5,184.5C 93.5,184.5 92.5,184.5 91.5,184.5C 91.5,181.5 91.5,178.5 91.5,175.5C 90.5,175.5 89.5,175.5 88.5,175.5C 88.5,174.5 88.5,173.5 88.5,172.5 Z"/></g>
<g><path style="opacity:1" fill="#e5edec" d="M 103.5,172.5 C 107.106,172.211 110.606,172.544 114,173.5C 116.342,183.492 112.676,186.825 103,183.5C 100.866,179.647 101.033,175.98 103.5,172.5 Z"/></g>
<g><path style="opacity:1" fill="#0c645d" d="M 105.5,175.5 C 107.5,175.5 109.5,175.5 111.5,175.5C 111.5,177.5 111.5,179.5 111.5,181.5C 109.5,181.5 107.5,181.5 105.5,181.5C 105.5,179.5 105.5,177.5 105.5,175.5 Z"/></g>
</svg>
