<?xml version="1.0" encoding="UTF-8"?>
<!DOCTYPE svg PUBLIC "-//W3C//DTD SVG 1.1//EN" "http://www.w3.org/Graphics/SVG/1.1/DTD/svg11.dtd">
<svg xmlns="http://www.w3.org/2000/svg" version="1.1" width="88px" height="88px" style="shape-rendering:geometricPrecision; text-rendering:geometricPrecision; image-rendering:optimizeQuality; fill-rule:evenodd; clip-rule:evenodd" xmlns:xlink="http://www.w3.org/1999/xlink">
<g><path style="opacity:0.977" fill="#fefefe" d="M 34.5,-0.5 C 40.5,-0.5 46.5,-0.5 52.5,-0.5C 70.5263,4.85961 82.193,16.5263 87.5,34.5C 87.5,40.5 87.5,46.5 87.5,52.5C 82.1404,70.5263 70.4737,82.193 52.5,87.5C 46.5,87.5 40.5,87.5 34.5,87.5C 16.4737,82.1404 4.80704,70.4737 -0.5,52.5C -0.5,46.5 -0.5,40.5 -0.5,34.5C 4.85961,16.4737 16.5263,4.80704 34.5,-0.5 Z"/></g>
<g><path style="opacity:1" fill="#111111" d="M 35.5,34.5 C 34.8333,34.5 34.5,34.8333 34.5,35.5C 29.2384,35.8047 24.0717,35.4714 19,34.5C 18.3333,29.5 18.3333,24.5 19,19.5C 24.082,18.363 29.2487,18.1963 34.5,19C 35.4714,24.0717 35.8047,29.2384 35.5,34.5 Z"/></g>
<g><path style="opacity:1" fill="#111111" d="M 52.5,18.5 C 57.7616,18.1953 62.9283,18.5286 68,19.5C 68.8037,24.7513 68.637,29.918 67.5,35C 62.2487,35.8037 57.082,35.637 52,34.5C 51.2185,29.0833 51.3852,23.7499 52.5,18.5 Z"/></g>
<g><path style="opacity:1" fill="#000000" d="M 50.5,35.5 C 51.4881,40.6405 51.8214,45.9738 51.5,51.5C 46.1667,51.5 40.8333,51.5 35.5,51.5C 35.5,46.1667 35.5,40.8333 35.5,35.5C 40.5,35.5 45.5,35.5 50.5,35.5 Z"/></g>
<g><path style="opacity:1" fill="#bfbfbf" d="M 35.5,34.5 C 40.6946,34.1795 45.6946,34.5128 50.5,35.5C 45.5,35.5 40.5,35.5 35.5,35.5C 35.5,40.8333 35.5,46.1667 35.5,51.5C 35.5,51.8333 35.5,52.1667 35.5,52.5C 34.8333,52.5 34.5,52.1667 34.5,51.5C 34.5,46.1667 34.5,40.8333 34.5,35.5C 34.5,34.8333 34.8333,34.5 35.5,34.5 Z"/></g>
<g><path style="opacity:1" fill="#111111" d="M 34.5,51.5 C 34.5,52.1667 34.8333,52.5 35.5,52.5C 35.8047,57.7616 35.4714,62.9283 34.5,68C 29.5,68.6667 24.5,68.6667 19.5,68C 18.363,62.918 18.1963,57.7513 19,52.5C 24.0717,51.5286 29.2384,51.1953 34.5,51.5 Z"/></g>
<g><path style="opacity:1" fill="#111111" d="M 52.5,51.5 C 57.7616,51.1953 62.9283,51.5286 68,52.5C 68.8037,57.7513 68.637,62.918 67.5,68C 62.2487,68.8037 57.082,68.637 52,67.5C 51.2185,62.0833 51.3852,56.7499 52.5,51.5 Z"/></g>
</svg>
