<svg width="211" height="211" viewBox="0 0 211 211" fill="none" xmlns="http://www.w3.org/2000/svg">
<path fill-rule="evenodd" clip-rule="evenodd" d="M108.26 3.55065C106.513 2.724 104.487 2.724 102.74 3.55065L38.8912 33.7601L67.5749 62.4435H143.421L172.106 33.7586L108.26 3.55065ZM177.24 38.8915L148.554 67.5773V143.423L177.24 172.109L207.449 108.26C208.276 106.513 208.276 104.487 207.449 102.74L177.24 38.8915ZM172.105 177.242L143.421 148.557H67.5749L38.8915 177.24L102.74 207.449C104.487 208.276 106.513 208.276 108.26 207.449L172.105 177.242ZM33.7586 172.106L62.4412 143.423V67.5773L33.7583 38.8947L3.55065 102.74C2.724 104.487 2.724 106.513 3.55065 108.26L33.7586 172.106ZM69.7013 69.7037H141.294V141.297H69.7013V69.7037Z" fill="#002B20"/>
</svg>
