<svg width="204" height="191" viewBox="0 0 204 191" fill="none" xmlns="http://www.w3.org/2000/svg">
<g clip-path="url(#clip0_3557_1484)">
<path d="M56.6823 24.8667C60.565 20.4784 64.136 16.7653 67.5369 13.6148C10.1177 11.7864 26.839 52.9963 8.02042 94.825C-13.5189 143.039 10.5711 161.408 46.4511 167.146C41.4405 161.22 37.3519 154.583 34.3211 147.455C11.1663 118.398 20.5472 65.4296 56.6823 24.8667Z" fill="#EFE812"/>
<path d="M194.846 76.2314C188.065 93.8384 178.255 110.143 165.853 124.417C155.91 136.41 144 146.653 130.624 154.713C115.09 164.483 97.0358 169.574 78.6467 169.369C67.9104 169.464 57.1832 168.721 46.5645 167.146C52.4601 174.136 59.7694 179.819 68.0187 183.827C119.94 208.75 123.199 162.477 178.124 138.989C208.96 125.796 209.073 100.029 194.817 76.2314" fill="#EDE70A"/>
<path d="M130.625 28.1298C138.141 29.4356 145.384 31.9839 152.051 35.6685C169.516 45.4152 184.232 59.3637 194.846 76.2314C204.198 50.0709 199.834 29.5363 179.4 25.8232C156.897 21.7444 139.325 20.4223 122.434 8.72038C101.632 -5.62571 83.3798 -0.9562 67.5654 13.6431L70.9947 13.7837C92.9308 15.0777 113.903 19.4096 130.511 28.0735" fill="#EDE70A"/>
<path d="M56.6826 24.8665C20.5475 65.4294 11.1666 118.397 34.4347 147.455C29.0521 134.842 26.7031 121.157 27.5738 107.486C28.4445 93.8149 32.511 80.5329 39.4511 68.6924C59.0349 36.2871 98.3441 22.2223 130.625 28.1295C113.903 19.3531 92.931 15.1336 71.1082 13.8397L67.6789 13.6709C64.1646 16.8777 60.5936 20.4783 56.6826 24.8665Z" fill="#DEC21C"/>
<path d="M152.05 35.6119C145.38 31.9468 138.138 29.4176 130.625 28.1294C152.617 39.6063 167.213 59.072 167.213 89.8457C167.086 102.836 163.668 115.586 157.274 126.922C150.88 138.257 141.716 147.814 130.625 154.713C144.007 146.661 155.918 136.418 165.853 124.417C178.255 110.142 188.065 93.8379 194.846 76.231C184.239 59.3427 169.523 45.3743 152.05 35.6119Z" fill="#E5CB22"/>
<path d="M130.625 28.1297C98.3441 22.2225 59.0349 36.2873 39.4511 68.5519C32.482 80.4077 28.3992 93.7152 27.5283 107.414C26.6574 121.113 29.0224 134.824 34.4347 147.455C37.4548 154.588 41.5444 161.227 46.5647 167.146C57.1835 168.721 67.9107 169.464 78.647 169.368C97.0361 169.573 115.091 164.483 130.625 154.713C141.718 147.816 150.883 138.26 157.277 126.924C163.672 115.588 167.088 102.837 167.213 89.846C167.213 59.0722 152.618 39.6065 130.625 28.1297ZM126.997 140.085C115.058 147.697 100.569 150.307 86.6965 147.344C72.8243 144.382 60.6984 136.088 52.9699 124.277C36.9287 99.7195 44.8643 68.0174 68.926 51.1397C95.8501 32.1522 130.37 39.6347 142.953 66.9485C155.225 93.5591 151.852 124.305 126.997 140.085Z" fill="#CCA727"/>
</g>
<defs>
<clipPath id="clip0_3557_1484">
<rect width="204" height="191" fill="white"/>
</clipPath>
</defs>
</svg>
