<?xml version="1.0" encoding="UTF-8"?>
<!DOCTYPE svg PUBLIC "-//W3C//DTD SVG 1.1//EN" "http://www.w3.org/Graphics/SVG/1.1/DTD/svg11.dtd">
<svg xmlns="http://www.w3.org/2000/svg" version="1.1" width="250px" height="250px" style="shape-rendering:geometricPrecision; text-rendering:geometricPrecision; image-rendering:optimizeQuality; fill-rule:evenodd; clip-rule:evenodd" xmlns:xlink="http://www.w3.org/1999/xlink">
<g><path style="opacity:1" fill="#e6f2f9" d="M -0.5,-0.5 C 82.8333,-0.5 166.167,-0.5 249.5,-0.5C 249.5,82.8333 249.5,166.167 249.5,249.5C 240.833,249.5 232.167,249.5 223.5,249.5C 224.122,220.427 214.455,195.427 194.5,174.5C 205.978,160.552 207.478,145.552 199,129.5C 199.593,94.9322 182.76,75.9322 148.5,72.5C 146.167,71.8333 143.833,71.1667 141.5,70.5C 143.126,67.7543 143.793,64.7543 143.5,61.5C 136.267,62.9483 129.601,65.7817 123.5,70C 104.562,70.3967 87.2291,75.7301 71.5,86C 52.8041,103.617 46.9708,124.783 54,149.5C 57.4562,157.408 60.6228,165.408 63.5,173.5C 59.7875,181.247 55.2875,188.58 50,195.5C 40.7939,212.325 36.6273,230.325 37.5,249.5C 24.8333,249.5 12.1667,249.5 -0.5,249.5C -0.5,166.167 -0.5,82.8333 -0.5,-0.5 Z"/></g>
<g><path style="opacity:1" fill="#0e1018" d="M 141.5,70.5 C 140.957,70.56 140.624,70.8933 140.5,71.5C 143.086,72.48 145.753,72.8134 148.5,72.5C 182.76,75.9322 199.593,94.9322 199,129.5C 207.478,145.552 205.978,160.552 194.5,174.5C 214.455,195.427 224.122,220.427 223.5,249.5C 222.833,249.5 222.167,249.5 221.5,249.5C 221.554,228.381 215.721,209.048 204,191.5C 199.977,185.986 195.81,180.653 191.5,175.5C 202.891,161.94 204.391,147.273 196,131.5C 195.667,124.167 195.333,116.833 195,109.5C 194.648,107.753 194.148,106.086 193.5,104.5C 190.41,93.8211 183.744,86.3211 173.5,82C 166.418,78.7452 159.084,76.7452 151.5,76C 150.315,77.353 148.981,78.5197 147.5,79.5C 150.206,81.5237 151.539,84.1903 151.5,87.5C 148.833,87.1667 146.167,86.8333 143.5,86.5C 143.5,85.5 143.5,84.5 143.5,83.5C 144.552,83.6495 145.552,83.4828 146.5,83C 144.393,81.7365 143.393,79.9032 143.5,77.5C 144.289,77.2172 144.956,76.7172 145.5,76C 142.183,75.5017 138.85,75.335 135.5,75.5C 136.274,72.6191 137.607,69.9524 139.5,67.5C 139,67.1667 138.5,66.8333 138,66.5C 133.366,67.8092 129.199,69.9759 125.5,73C 121.264,73.3349 117.264,74.1682 113.5,75.5C 111.833,75.5 110.167,75.5 108.5,75.5C 70.7035,80.7922 52.8702,102.459 55,140.5C 58.7066,151.406 62.5399,162.239 66.5,173C 65.8909,178.717 63.5576,183.55 59.5,187.5C 45.4498,205.68 39.4498,226.347 41.5,249.5C 40.1667,249.5 38.8333,249.5 37.5,249.5C 36.6273,230.325 40.7939,212.325 50,195.5C 55.2875,188.58 59.7875,181.247 63.5,173.5C 60.6228,165.408 57.4562,157.408 54,149.5C 46.9708,124.783 52.8041,103.617 71.5,86C 87.2291,75.7301 104.562,70.3967 123.5,70C 129.601,65.7817 136.267,62.9483 143.5,61.5C 143.793,64.7543 143.126,67.7543 141.5,70.5 Z"/></g>
<g><path style="opacity:1" fill="#809dd5" d="M 143.5,77.5 C 140.619,76.4931 137.619,76.3264 134.5,77C 132.219,75.5177 132.219,73.851 134.5,72C 131.644,70.0936 129.977,70.927 129.5,74.5C 124.187,75.0978 118.854,75.4312 113.5,75.5C 117.264,74.1682 121.264,73.3349 125.5,73C 129.199,69.9759 133.366,67.8092 138,66.5C 138.5,66.8333 139,67.1667 139.5,67.5C 137.607,69.9524 136.274,72.6191 135.5,75.5C 138.85,75.335 142.183,75.5017 145.5,76C 144.956,76.7172 144.289,77.2172 143.5,77.5 Z"/></g>
<g><path style="opacity:1" fill="#7c817a" d="M 141.5,70.5 C 143.833,71.1667 146.167,71.8333 148.5,72.5C 145.753,72.8134 143.086,72.48 140.5,71.5C 140.624,70.8933 140.957,70.56 141.5,70.5 Z"/></g>
<g><path style="opacity:1" fill="#7ea7f7" d="M 143.5,77.5 C 143.393,79.9032 144.393,81.7365 146.5,83C 145.552,83.4828 144.552,83.6495 143.5,83.5C 143.5,84.5 143.5,85.5 143.5,86.5C 146.167,86.8333 148.833,87.1667 151.5,87.5C 151.539,84.1903 150.206,81.5237 147.5,79.5C 148.981,78.5197 150.315,77.353 151.5,76C 159.084,76.7452 166.418,78.7452 173.5,82C 183.744,86.3211 190.41,93.8211 193.5,104.5C 181.416,90.1183 169.083,89.9516 156.5,104C 155.271,104.781 153.938,105.281 152.5,105.5C 144.451,100.809 136.117,96.642 127.5,93C 101.85,85.3573 85.1832,94.1906 77.5,119.5C 75.2518,126.43 74.9185,133.596 76.5,141C 76.6842,142.376 77.3509,143.209 78.5,143.5C 85.9217,157.442 94.4217,170.775 104,183.5C 110.567,194.072 112.234,205.405 109,217.5C 104.299,226.853 99.6322,236.186 95,245.5C 94.51,246.793 94.3433,248.127 94.5,249.5C 92.1667,249.5 89.8333,249.5 87.5,249.5C 88.2107,241.777 89.3774,234.11 91,226.5C 91.4993,221.511 91.6659,216.511 91.5,211.5C 91.6646,208.482 91.498,205.482 91,202.5C 90.3333,201.833 89.6667,201.167 89,200.5C 87.6487,202.019 86.1487,203.352 84.5,204.5C 88.0859,213.366 88.4192,222.366 85.5,231.5C 83.6696,229.973 82.6696,230.473 82.5,233C 82.4393,234.711 83.1059,236.044 84.5,237C 83.4258,237.739 82.7591,238.739 82.5,240C 83.3672,243.105 83.7006,246.272 83.5,249.5C 69.5,249.5 55.5,249.5 41.5,249.5C 39.4498,226.347 45.4498,205.68 59.5,187.5C 62.1952,185.821 64.6952,183.821 67,181.5C 67.8974,178.51 68.7308,175.51 69.5,172.5C 65.0516,165.423 62.8849,158.09 63,150.5C 62.0853,151.328 61.4186,152.328 61,153.5C 59.9431,151.781 59.1097,149.947 58.5,148C 60.1802,147.653 61.1802,146.653 61.5,145C 60.8683,142.21 60.7016,139.377 61,136.5C 60.1667,137.333 59.3333,138.167 58.5,139C 59.5762,140.726 59.7429,142.559 59,144.5C 56.3973,142.051 55.8973,139.218 57.5,136C 55.4531,129.233 55.6197,122.4 58,115.5C 60.0732,112.491 61.4066,109.158 62,105.5C 64.8481,102.216 67.1815,98.5495 69,94.5C 72.1667,92 75.3333,89.5 78.5,87C 82.1208,86.0589 85.2875,86.8923 88,89.5C 88.8333,88 90,86.8333 91.5,86C 90.2161,85.3162 89.0495,85.4829 88,86.5C 86.8808,85.4479 86.3808,84.2812 86.5,83C 92.6997,79.4894 99.3664,77.8228 106.5,78C 107.756,77.5831 108.423,76.7498 108.5,75.5C 110.167,75.5 111.833,75.5 113.5,75.5C 118.854,75.4312 124.187,75.0978 129.5,74.5C 129.977,70.927 131.644,70.0936 134.5,72C 132.219,73.851 132.219,75.5177 134.5,77C 137.619,76.3264 140.619,76.4931 143.5,77.5 Z"/></g>
<g><path style="opacity:1" fill="#f8f9f1" d="M 193.5,104.5 C 194.148,106.086 194.648,107.753 195,109.5C 195.333,116.833 195.667,124.167 196,131.5C 204.391,147.273 202.891,161.94 191.5,175.5C 187.417,178.091 185.917,181.757 187,186.5C 189.315,190.638 192.148,194.305 195.5,197.5C 205.021,213.407 210.355,230.74 211.5,249.5C 172.5,249.5 133.5,249.5 94.5,249.5C 94.3433,248.127 94.51,246.793 95,245.5C 99.6322,236.186 104.299,226.853 109,217.5C 112.234,205.405 110.567,194.072 104,183.5C 94.4217,170.775 85.9217,157.442 78.5,143.5C 77.7322,139.025 77.0655,134.525 76.5,130C 76.804,126.489 77.1373,122.989 77.5,119.5C 85.1832,94.1906 101.85,85.3573 127.5,93C 136.117,96.642 144.451,100.809 152.5,105.5C 153.938,105.281 155.271,104.781 156.5,104C 169.083,89.9516 181.416,90.1183 193.5,104.5 Z"/></g>
<g><path style="opacity:1" fill="#80a2e0" d="M 108.5,75.5 C 108.423,76.7498 107.756,77.5831 106.5,78C 99.3664,77.8228 92.6997,79.4894 86.5,83C 86.3808,84.2812 86.8808,85.4479 88,86.5C 89.0495,85.4829 90.2161,85.3162 91.5,86C 90,86.8333 88.8333,88 88,89.5C 85.2875,86.8923 82.1208,86.0589 78.5,87C 75.3333,89.5 72.1667,92 69,94.5C 67.1815,98.5495 64.8481,102.216 62,105.5C 61.4066,109.158 60.0732,112.491 58,115.5C 55.6197,122.4 55.4531,129.233 57.5,136C 55.8973,139.218 56.3973,142.051 59,144.5C 59.7429,142.559 59.5762,140.726 58.5,139C 59.3333,138.167 60.1667,137.333 61,136.5C 60.7016,139.377 60.8683,142.21 61.5,145C 61.1802,146.653 60.1802,147.653 58.5,148C 59.1097,149.947 59.9431,151.781 61,153.5C 61.4186,152.328 62.0853,151.328 63,150.5C 62.8849,158.09 65.0516,165.423 69.5,172.5C 68.7308,175.51 67.8974,178.51 67,181.5C 64.6952,183.821 62.1952,185.821 59.5,187.5C 63.5576,183.55 65.8909,178.717 66.5,173C 62.5399,162.239 58.7066,151.406 55,140.5C 52.8702,102.459 70.7035,80.7922 108.5,75.5 Z"/></g>
<g><path style="opacity:1" fill="#151514" d="M 115.5,115.5 C 126.995,116.822 130.495,122.822 126,133.5C 118.068,139.894 112.402,138.228 109,128.5C 108.509,122.816 110.675,118.482 115.5,115.5 Z"/></g>
<g><path style="opacity:1" fill="#e9e9e9" d="M 118.5,118.5 C 124.74,118.294 127.24,121.294 126,127.5C 122.477,131.701 119.477,131.368 117,126.5C 116.109,123.502 116.609,120.836 118.5,118.5 Z"/></g>
<g><path style="opacity:1" fill="#151514" d="M 178.5,116.5 C 181.482,116.104 184.149,116.771 186.5,118.5C 184.828,118.387 182.994,118.721 181,119.5C 179.216,125.193 181.05,127.527 186.5,126.5C 187.154,124.885 187.654,123.218 188,121.5C 188.667,124.833 188.667,128.167 188,131.5C 183.345,138.195 179.011,137.862 175,130.5C 173.495,124.968 174.662,120.301 178.5,116.5 Z"/></g>
<g><path style="opacity:1" fill="#ececeb" d="M 176.5,128.5 C 177.5,128.5 178.5,128.5 179.5,128.5C 178.5,133.833 177.5,133.833 176.5,128.5 Z"/></g>
<g><path style="opacity:1" fill="#e2e2e0" d="M 113.5,129.5 C 115.912,129.694 116.912,131.027 116.5,133.5C 115.167,133.5 113.833,133.5 112.5,133.5C 112.433,132.041 112.766,130.708 113.5,129.5 Z"/></g>
<g><path style="opacity:1" fill="#93aee2" d="M 77.5,119.5 C 77.1373,122.989 76.804,126.489 76.5,130C 77.0655,134.525 77.7322,139.025 78.5,143.5C 77.3509,143.209 76.6842,142.376 76.5,141C 74.9185,133.596 75.2518,126.43 77.5,119.5 Z"/></g>
<g><path style="opacity:1" fill="#b69051" d="M 144.5,142.5 C 143.402,141.399 143.235,140.066 144,138.5C 151.773,133.003 159.273,133.169 166.5,139C 162.269,148.63 155.602,150.63 146.5,145C 145.619,144.292 144.953,143.458 144.5,142.5 Z"/></g>
<g><path style="opacity:1" fill="#f0ae47" d="M 162.5,141.5 C 162.5,142.5 162.5,143.5 162.5,144.5C 160.406,145.242 158.239,145.909 156,146.5C 152.074,145.402 148.241,144.068 144.5,142.5C 144.312,140.897 144.812,139.563 146,138.5C 146.333,138.833 146.667,139.167 147,139.5C 151.542,135.326 156.709,134.493 162.5,137C 163.801,138.616 163.801,140.116 162.5,141.5 Z"/></g>
<g><path style="opacity:1" fill="#8c5305" d="M 162.5,141.5 C 159.864,141.964 157.197,142.297 154.5,142.5C 152.288,142.588 150.288,142.088 148.5,141C 153.352,140.185 158.019,140.352 162.5,141.5 Z"/></g>
<g><path style="opacity:1" fill="#7fa5ed" d="M 191.5,175.5 C 195.81,180.653 199.977,185.986 204,191.5C 215.721,209.048 221.554,228.381 221.5,249.5C 219.167,249.5 216.833,249.5 214.5,249.5C 213.325,230.475 207.825,212.809 198,196.5C 192.446,189.693 191.613,190.026 195.5,197.5C 192.148,194.305 189.315,190.638 187,186.5C 185.917,181.757 187.417,178.091 191.5,175.5 Z"/></g>
<g><path style="opacity:1" fill="#7a9dd9" d="M 91.5,211.5 C 90.6414,208.788 89.4748,206.122 88,203.5C 87.8333,204 87.6667,204.5 87.5,205C 88.943,208.688 89.6097,212.522 89.5,216.5C 87.9574,227.541 86.2907,238.541 84.5,249.5C 84.1667,249.5 83.8333,249.5 83.5,249.5C 83.7006,246.272 83.3672,243.105 82.5,240C 82.7591,238.739 83.4258,237.739 84.5,237C 83.1059,236.044 82.4393,234.711 82.5,233C 82.6696,230.473 83.6696,229.973 85.5,231.5C 88.4192,222.366 88.0859,213.366 84.5,204.5C 86.1487,203.352 87.6487,202.019 89,200.5C 89.6667,201.167 90.3333,201.833 91,202.5C 91.498,205.482 91.6646,208.482 91.5,211.5 Z"/></g>
<g><path style="opacity:1" fill="#10121c" d="M 214.5,249.5 C 213.5,249.5 212.5,249.5 211.5,249.5C 210.355,230.74 205.021,213.407 195.5,197.5C 191.613,190.026 192.446,189.693 198,196.5C 207.825,212.809 213.325,230.475 214.5,249.5 Z"/></g>
<g><path style="opacity:1" fill="#0b0d21" d="M 91.5,211.5 C 91.6659,216.511 91.4993,221.511 91,226.5C 89.3774,234.11 88.2107,241.777 87.5,249.5C 86.5,249.5 85.5,249.5 84.5,249.5C 86.2907,238.541 87.9574,227.541 89.5,216.5C 89.6097,212.522 88.943,208.688 87.5,205C 87.6667,204.5 87.8333,204 88,203.5C 89.4748,206.122 90.6414,208.788 91.5,211.5 Z"/></g>
</svg>
