<svg width="445" height="445" viewBox="0 0 445 445" fill="none" xmlns="http://www.w3.org/2000/svg">
<path d="M360.376 148.705L355.777 142.809H369.313L372.261 148.705H360.376Z" fill="#DDC6B8"/>
<path d="M372.354 148.705H360.376L363.528 152.636H374.134L372.354 148.705Z" fill="#503B20"/>
<path d="M366.476 156.641L363.528 152.617H374.134L375.895 156.548H366.476V156.641Z" fill="#FFF7D6"/>
<path d="M383.442 178.129L366.569 156.621H375.895C378.862 159.773 382.199 172.344 383.553 178.129H383.442Z" fill="#1B1306"/>
<path d="M284.8 84.6048L290.696 69.7715C303.953 73.4984 318.675 84.7902 324.256 89.8892V125.916L296.11 153.802L284.93 84.6975L284.8 84.6048Z" fill="#DDE18C"/>
<path d="M65.8231 163.63C62.5382 174.085 59.9186 184.736 57.98 195.522L157.808 198.173L175.46 201.511V247.049L199.323 225.355L196.468 186.399L216.789 163.222L219.441 141.046L210.8 112.196L214.639 85.1063L209.892 55.625C203.328 56.0329 184.082 60.0565 175.349 61.9292V142.103L172.901 163.612L65.8231 163.63Z" fill="url(#paint0_linear_2083_317)"/>
<path d="M225.43 142.883C217.568 129.44 219.737 96.7513 221.907 82.0292C234.46 70.2552 255.949 74.5754 265.072 78.2096C272.155 83.9019 287.841 98.2346 295.202 111.084C302.582 123.841 298.261 130.924 295.202 132.778V148.983C283.428 160.757 258.805 184.509 253.984 184.305C247.902 183.916 235.146 159.774 225.319 142.883H225.43Z" fill="#EEE7CB"/>
<path d="M235.739 95.8607C232.586 89.297 240.93 80.1559 245.547 76.5403C239.762 73.9815 225.225 82.0286 222.481 93.8026C219.737 105.595 233.087 111.677 237.797 113.828C241.616 115.496 243.971 120.41 244.657 122.672C243.878 119.705 249.07 118.741 250.739 121.875C252.519 124.841 251.629 137.691 251.721 138.859C251.721 139.749 257.228 137.691 259.973 136.504C260.158 132.388 260.751 123.543 261.345 121.782C262.123 119.724 271.95 118.259 277.253 118.834C282.556 119.427 279.608 128.457 275.955 130.608C272.247 132.573 273.415 132.963 275.955 139.638C277.939 145.052 270.393 150.447 266.351 152.617L281.462 158.791L284.318 142.79C286.376 134.353 290.696 117.165 290.807 116.09C289.354 108.249 287.182 100.559 284.318 93.1165C279.337 88.2034 273.987 83.6784 268.316 79.5811L253.984 77.727C265.961 86.5528 260.473 99.4949 256.246 104.983C250.349 105.595 239.558 104.112 235.739 95.8607Z" fill="#DAB98C"/>
<path d="M231.029 135.354C229.175 130.533 237.111 121.503 241.227 117.48C235.442 122.987 230.436 126.009 228.767 126.899L219.533 134.26L228.767 149.39L247.216 177.258C249.682 177.759 254.67 178.241 254.67 176.09C254.67 173.327 268.613 165.874 272.84 167.153C276.957 168.321 299.04 148.111 296.982 143.883C294.843 135.992 294.307 127.751 295.406 119.649C296.388 112.678 299.837 117.48 296.203 114.05C293.236 111.102 289.825 114.828 288.341 116.998C285.894 122.597 280.795 134.853 281.481 138.877C282.167 143.791 280.684 150.466 277.253 154.081C274.509 157.048 269.206 155.268 266.852 154.081C267.834 155.676 268.224 159.588 262.624 163.13C255.578 167.45 247.902 160.571 250.257 157.53C252.612 154.582 269.206 153.599 263.421 153.302C258.693 152.932 258.508 142.511 258.897 137.32L246.233 139.971C245.937 139.674 244.194 139.971 238.983 143.883C232.401 148.797 233.273 141.343 231.01 135.354" fill="#D89C78"/>
<path d="M227.785 102.776C222.686 93.7467 229.843 84.2348 234.163 80.6934C226.802 83.8454 211.987 92.764 210.986 102.776C210.664 106.367 211.429 109.972 213.181 113.123C214.934 116.274 217.593 118.826 220.813 120.447L236.907 112.993C235.943 113.364 232.884 111.788 227.785 102.776Z" fill="#BC855C"/>
<path d="M222.593 389.376C255.876 389.38 288.398 379.42 315.971 360.779C343.544 342.138 364.905 315.67 377.304 284.782C385.554 264.284 389.65 242.351 389.356 220.257L334.974 149.688L100.588 336.161C116.157 352.963 135.032 366.363 156.028 375.521C177.024 384.679 199.687 389.396 222.593 389.376Z" fill="url(#paint1_linear_2083_317)"/>
<path d="M221.109 134.965C215.417 129.866 218.458 134.575 216.882 131.924C224.447 146.584 232.63 160.88 241.431 174.811C246.808 182.672 253.891 180.503 256.746 178.445C255.356 179.428 251.536 180.41 247.809 176.962C243.192 172.753 228.174 141.25 221.109 134.965Z" fill="#572F23"/>
<path d="M218.847 242.636L213.47 231.548L336.939 134.668L386.501 190.608C388.355 196.69 388.763 212.988 388.763 220.46L333.991 151.93L303.453 175.478L218.847 242.636Z" fill="url(#paint2_linear_2083_317)"/>
<path d="M269.596 202.067L100.774 336.346L96.2499 331.247L91.9482 326.055L260.956 190.59L269.596 202.067Z" fill="url(#paint3_linear_2083_317)"/>
<path d="M159.644 376.822C151.847 373.821 144.389 370.005 137.394 365.437L366.661 190.904L375.988 203.476L159.644 376.822Z" fill="#E6D399"/>
<path d="M353.701 325.276L300.208 261.381C304.936 255.986 314.355 245.176 314.93 245.176C315.431 245.176 349.603 285.819 366.661 306.122L353.701 325.276Z" fill="#E6D399"/>
<path d="M312.279 271.598C320.697 271.598 327.483 265.127 327.483 257.172C327.483 249.218 320.697 242.729 312.279 242.729C303.861 242.729 297.075 249.2 297.075 257.172C297.075 265.145 303.879 271.598 312.279 271.598Z" fill="#EAE9CD"/>
<path d="M227.191 116.498C221.295 116.98 216.103 106.189 214.23 100.793L212.747 121.801L222.277 139.656C219.83 134.075 225.226 129.273 228.266 127.493L228.952 121.801C230.918 119.835 233.069 115.904 227.191 116.498Z" fill="#361822"/>
<path d="M242.025 150.856C243.489 150.67 244.954 142.809 245.455 138.878C247.42 138.507 250.758 138.693 249.163 142.03C247.216 146.146 255.949 154.583 252.019 154.879C250.778 155.035 249.59 155.48 248.553 156.179C247.516 156.878 246.658 157.811 246.048 158.903C246.92 161.462 249.664 166.765 254.188 167.339C258.694 167.933 264.108 167.636 266.259 167.339L259.398 171.27C257.229 173.736 252.019 178.335 248.588 177.259C245.065 176.184 238.094 164.503 235.053 158.903L220.034 136.523L223.557 127.809C223.26 128.773 223.372 132.5 226.505 139.379C230.621 148.019 240.041 151.245 242.025 150.949V150.856Z" fill="#9A634E"/>
<path d="M241.913 124.358C240.133 121.596 233.569 128.567 230.528 132.405C232.976 126.101 241.116 115.032 243.582 118.073C246.029 121.021 246.233 133.574 246.622 139.47L243.674 140.156C243.767 136.04 243.767 126.991 241.913 124.358Z" fill="#CCB98E"/>
<path d="M251.629 161.646C248.588 161.646 248.477 159.291 248.681 158.123C248.31 158.308 248.588 158.03 253.594 156.454C266.555 152.523 267.445 154.489 270.671 154.971C266.054 156.936 254.781 161.646 251.629 161.646Z" fill="#A2776E"/>
<path d="M258.693 162.61C255.059 164.093 251.036 162.332 250.164 162.239C250.442 163.407 252.111 165.855 256.431 166.355C260.863 166.837 267.148 160.756 269.688 157.604C266.087 159.442 262.419 161.149 258.693 162.721V162.61Z" fill="#A2776E"/>
<path d="M244.75 162.536C244.449 160.762 244.787 158.939 245.704 157.391C246.62 155.843 248.056 154.67 249.756 154.081C255.949 151.93 266.759 149.075 273.916 156.046C269.003 152.523 262.142 155.064 257.043 157.029C254.781 157.808 252.816 158.512 251.536 158.605C248.199 158.605 245.64 161.257 244.676 162.536H244.75ZM248.292 164.483C251.926 165.466 260.27 165.966 264.497 161.257C257.915 174.977 250.962 169.1 248.292 164.483Z" fill="#390800"/>
<path d="M167.116 163.611H66.0269L69.6425 156.825H165.54C169.063 156.825 169.174 154.878 168.785 153.895V64.6725L177.314 61.4277V156.732L173.494 163.5H167.116V163.611Z" fill="url(#paint4_linear_2083_317)"/>
<path d="M170.25 156.955H69.7539L72.2014 150.67H163.575V66.1937L170.25 63.9316V156.955Z" fill="#CFBB96"/>
<path d="M163.574 150.818H71.9971C72.6831 148.853 73.5731 147.11 73.9625 146.609H156.51V69.0682C159.254 67.4922 162.017 66.7134 163.574 66.1016V150.818Z" fill="#401D07"/>
<path d="M77.3186 140.36C76.3359 141.917 74.8711 145.255 74.1665 146.738L156.621 146.831V68.7891L153.784 69.5864V140.36H77.3186Z" fill="#D8C19E"/>
<path d="M134.149 78.8027C118.63 85.2738 96.5466 108.84 86.3486 124.341H134.149V78.8027Z" fill="#DDB963"/>
<path d="M86.5523 124.34C84.4941 126.694 79.5806 136.707 77.5225 140.526H153.784V69.6602C150.54 70.4574 138.58 76.2425 134.149 78.8939V124.321L86.5523 124.34Z" fill="#301617"/>
<path d="M171.047 202.865H57.1085C56.8118 204.831 56.6264 207.779 56.5151 209.169H163.612V257.341L171.066 254.504L171.047 202.865Z" fill="#E7D0B1"/>
<path d="M56.6078 208.834C56.1225 213.528 55.8935 218.244 55.9218 222.963H152.116V264.793L163.612 256.82V208.927H56.6264L56.6078 208.834Z" fill="#3B2323"/>
<path d="M61.8921 212.674H143.846V215.529H61.8921V212.674Z" fill="#71524D"/>
<path d="M153.785 216.344H158.884V258.341H153.785V216.344Z" fill="#AC8F71"/>
<path d="M173.809 245.251L84.6797 315.913L89.0926 322.403L93.8022 328.28L152.802 278.218L337.718 135.911L386 191.165L383.553 178.204L334.881 115.793L173.809 245.251Z" fill="url(#paint5_linear_2083_317)"/>
<path d="M58.0726 195.318L57.0898 202.679L170.936 202.865V250.962L179.001 247.81V204.645L169.675 195.318H58.0726Z" fill="#301900"/>
<path d="M72.2012 234.552L55.8103 222.982C54.327 236.815 62.0032 275.196 72.2012 294.034V234.552Z" fill="#4A1F0F"/>
<path d="M71.9047 234.552L55.8105 222.982H152.783L138.859 234.552H71.9047Z" fill="#EAD697"/>
<path d="M138.747 275.01V234.367L152.505 222.686V264.108L138.747 275.01Z" fill="#59301E"/>
<path d="M71.9233 234.459V293.644C72.4054 295.127 74.8715 299.151 76.1508 301.005H105.391L139.155 275.492V234.459H71.9233Z" fill="#D09F52"/>
<path d="M84.7725 316.025C81.6055 311.114 78.5941 306.106 75.7427 301.006H105.484L84.7725 316.025Z" fill="#2C1608"/>
<path d="M220.905 72.4423V55.625H210.021L213.934 84.5871L220.813 72.4237L220.905 72.4423Z" fill="#1C0D0A"/>
<path d="M172.715 184.342C170.75 178.742 172.901 172.846 176.739 168.73C178.704 166.764 180.874 165.207 183.025 164.317C185.274 163.501 187.141 163.439 188.624 164.131C194.205 166.56 196.783 172.253 197.265 174.904L200.491 174.125C199.801 171.302 198.494 168.667 196.663 166.41C194.832 164.153 192.524 162.33 189.904 161.072C187.324 160.09 184.462 160.157 181.931 161.257C179.03 162.401 176.443 164.219 174.384 166.56C169.971 171.27 167.116 178.353 169.675 185.51C171.844 191.295 176.85 194.632 181.949 196.598C187.141 198.563 192.536 199.156 196.078 199.064V195.819C192.833 195.819 187.827 195.318 183.117 193.557C178.408 191.795 174.403 188.94 172.734 184.342M195.021 191.888C194.632 192.074 184.119 191.795 180.299 186.196C176.368 180.596 178.723 168.025 186.473 168.136C194.335 168.136 199.545 181.394 195.021 191.888Z" fill="#1B1107"/>
<path d="M187.753 214.156C187.252 199.619 183.822 194.631 182.246 193.945C214.731 199.526 202.864 217.975 202.271 218.569L193.149 233.291C191.573 232.901 188.235 228.674 187.753 214.156Z" fill="#39201B"/>
<path d="M212.562 157.697C219.422 152.097 216.196 134.631 213.637 126.584C222.759 142.659 232.45 158.405 242.692 173.791C248.996 182.32 254.558 181.838 256.635 180.466L195.299 232.568L197.153 221.777C201.974 206.072 186.956 188.81 186.956 176.146C186.956 163.389 203.828 164.65 212.469 157.697H212.562Z" fill="#141416"/>
<path d="M280.777 65.8421C262.81 57.1275 230.417 55.4588 216.493 55.6442L219.645 73.3144C222.37 72.7211 231.122 71.349 244.565 70.0696C258.1 68.7902 274.306 79.1921 280.777 84.495V65.8421Z" fill="#BC8F65"/>
<path d="M280.387 84.2711V65.6367C283.131 66.2115 288.546 68.7703 290.789 69.9384L287.748 79.7655L291.865 89.5926L280.387 84.2711Z" fill="#1B0000"/>
<path d="M323.96 126.529V89.8164L331.228 95.7127V120.633L323.96 126.529Z" fill="#100000"/>
<path d="M331.043 95.3047L335.567 99.6064V116.98L331.043 120.503V95.3047Z" fill="#D6BD9E"/>
<path d="M335.456 99.5312L341.63 105.224V124.952L335.456 117.09V99.5312Z" fill="#4F2D11"/>
<path d="M341.63 124.823V105.188L345.951 109.823V130.219L341.63 124.823Z" fill="#B38971"/>
<path d="M345.969 130.403V109.785C354.201 117.146 365.011 134.816 369.424 142.789H355.889L346.061 130.403H345.969Z" fill="#240C00"/>
<path d="M256.246 113.531C256.543 112.27 257.915 109.619 261.938 108.933C265.869 108.34 268.613 108.748 269.503 108.933C268.91 110.694 266.945 114.421 264.108 115.015L263.125 115.2C259.787 115.905 256.265 116.591 256.265 113.531M228.396 122.672C230.455 120.818 235.257 117.165 237.519 116.869C240.467 116.591 239.002 127.178 230.362 127.679C229.485 127.64 228.651 127.292 228.007 126.696C227.321 126.103 228.026 123.748 228.396 122.672Z" fill="#E4DAB6"/>
<path fill-rule="evenodd" clip-rule="evenodd" d="M215.621 111.305C219.552 118.073 219.552 131.719 218.958 137.708C206.202 125.137 205.794 106.299 205.608 100.013V99.5309C205.516 93.6346 218.958 71.6442 220.442 70.9767L221.703 69.9754C225.93 66.7492 239.28 56.5327 254.781 59.5921C267.241 62.0396 273.434 68.7146 277.661 73.3129C279.423 75.2784 280.888 76.7617 282.371 77.5405C287.377 80.1919 292.179 86.0696 296.203 93.2452C299.151 98.5482 299.448 112.677 299.151 120.131C299.04 118.666 298.076 116.608 295.016 114.846C290.418 112.084 290.121 119.741 290.121 124.451V129.364C290.121 131.719 290.121 133.203 289.324 132.702C288.249 132.109 287.859 127.603 287.859 125.434C288.341 111.509 284.522 106.002 282.76 103.462L282.371 102.961L281.388 100.996C278.625 94.8213 270.578 77.5405 254.781 77.5405C243.172 77.4745 231.911 81.5059 222.982 88.925C221.703 90.2971 210.615 102.961 215.621 111.305ZM252.037 112.677L247.902 107.374C250.869 107.967 253.891 106.391 257.043 104.834C259.305 103.647 261.549 102.479 263.903 102.071C265.635 101.729 267.422 101.79 269.126 102.25C270.831 102.71 272.406 103.556 273.73 104.723L271.172 104.352C269.216 104.188 267.248 104.483 265.426 105.214C263.604 105.945 261.978 107.091 260.677 108.561C262.439 107.967 264.886 107.578 268.224 107.763L271.264 108.95H270.282C269.889 110.19 269.255 111.34 268.414 112.333C267.574 113.326 266.545 114.143 265.387 114.735L265.962 114.16C265.561 114.326 265.134 114.42 264.701 114.438C262.735 114.438 261.252 113.178 261.252 111.805C261.252 111.46 261.332 111.119 261.487 110.81C261.641 110.501 261.866 110.233 262.142 110.025C260.595 110.313 259.146 110.989 257.933 111.991C257.136 113.845 257.228 116.7 257.34 118.184L256.746 116.311C255.968 112.491 253.316 112.38 252.037 112.677ZM265.758 109.247L269.503 108.95C269.179 109.981 268.677 110.947 268.02 111.805C268.02 110.619 267.148 109.636 265.869 109.247H265.758ZM227.488 114.438C221.795 117.294 220.238 121.614 220.127 123.468C222.778 119.556 228.971 117.59 231.622 116.997C229.226 118.513 227.42 120.803 226.505 123.487C226.159 124.517 226.164 125.632 226.52 126.659C226.876 127.685 227.561 128.565 228.47 129.16V127.9C230.936 128.882 234.663 126.602 236.332 125.341C235.164 126.046 233.864 126.506 232.512 126.691C231.16 126.876 229.785 126.782 228.47 126.416V124.377C228.656 122.782 230.732 121.113 233.384 119.927L233.198 120.131C232.698 121.113 232.197 123.097 233.884 123.969C236.128 124.951 240.244 122.986 239.169 120.131C239.039 119.783 238.831 119.47 238.561 119.216C238.291 118.962 237.966 118.774 237.611 118.666C238.575 118.475 239.56 118.413 240.541 118.48C242.414 118.666 243.304 119.259 243.786 119.853L244.175 121.521C244.972 124.859 245.547 128.382 245.547 131.33C245.454 137.226 244.676 138.487 244.379 138.394C243.582 140.156 243.1 143.994 246.641 144.884C249.089 145.57 250.071 144.476 251.147 143.215C252.037 142.232 253.001 141.046 254.985 140.749L257.432 140.564C260.177 140.36 261.753 140.156 261.753 137.226C261.753 133.481 253.891 133.295 252.519 135.65C251.035 137.912 247.327 139.08 246.641 136.429C246.437 135.743 246.437 134.667 246.344 133.203C246.242 128.143 245.45 123.122 243.99 118.276L243.693 113.752C243.508 108.375 234.849 110.915 227.599 114.438H227.488Z" fill="#390800"/>
<path d="M237.612 64.4689C230.937 66.9164 227.21 72.6272 226.227 75.1675C235.442 67.1204 260.177 69.2712 271.376 71.2366L260.77 64.3762C253.193 62.2366 245.171 62.2366 237.593 64.3762L237.612 64.4689Z" fill="#5D3E2C"/>
<defs>
<linearGradient id="paint0_linear_2083_317" x1="91.7444" y1="261.864" x2="322.718" y2="277.235" gradientUnits="userSpaceOnUse">
<stop stop-color="#E8D394"/>
<stop offset="0.52" stop-color="#E4E1B3"/>
<stop offset="1" stop-color="#E2D07A"/>
</linearGradient>
<linearGradient id="paint1_linear_2083_317" x1="168.043" y1="196.264" x2="329.133" y2="354.684" gradientUnits="userSpaceOnUse">
<stop stop-color="#B69961"/>
<stop offset="0.17" stop-color="#90703F"/>
<stop offset="0.36" stop-color="#CFB885"/>
<stop offset="0.5" stop-color="#95713A"/>
<stop offset="0.71" stop-color="#E0D792"/>
<stop offset="1" stop-color="#DBC07D"/>
</linearGradient>
<linearGradient id="paint2_linear_2083_317" x1="222.5" y1="55.6434" x2="222.5" y2="385.425" gradientUnits="userSpaceOnUse">
<stop stop-color="#664F41"/>
<stop offset="0.33" stop-color="#745A37"/>
<stop offset="0.74" stop-color="#948149"/>
</linearGradient>
<linearGradient id="paint3_linear_2083_317" x1="86.6082" y1="367.106" x2="362.582" y2="208.019" gradientUnits="userSpaceOnUse">
<stop stop-color="#12140D"/>
<stop offset="0.83" stop-color="#4A3D25"/>
<stop offset="1" stop-color="#846E40"/>
</linearGradient>
<linearGradient id="paint4_linear_2083_317" x1="180.707" y1="403.466" x2="418.337" y2="135.187" gradientUnits="userSpaceOnUse">
<stop stop-color="#23150A"/>
<stop offset="1" stop-color="#241500"/>
</linearGradient>
<linearGradient id="paint5_linear_2083_317" x1="222.945" y1="55.6067" x2="-10.2536" y2="287.804" gradientUnits="userSpaceOnUse">
<stop stop-color="#2F2218"/>
<stop offset="1" stop-color="#12140D"/>
</linearGradient>
</defs>
</svg>
