<?xml version="1.0" encoding="UTF-8"?>
<!DOCTYPE svg PUBLIC "-//W3C//DTD SVG 1.1//EN" "http://www.w3.org/Graphics/SVG/1.1/DTD/svg11.dtd">
<svg xmlns="http://www.w3.org/2000/svg" version="1.1" width="200px" height="200px" style="shape-rendering:geometricPrecision; text-rendering:geometricPrecision; image-rendering:optimizeQuality; fill-rule:evenodd; clip-rule:evenodd" xmlns:xlink="http://www.w3.org/1999/xlink">
<g><path style="opacity:1" fill="#acc1df" d="M 66.5,6.5 C 71.5111,6.33407 76.5111,6.50074 81.5,7C 71.5532,9.48722 61.5532,11.6539 51.5,13.5C 55.9385,10.2293 60.9385,7.89594 66.5,6.5 Z"/></g>
<g><path style="opacity:1" fill="#4182b9" d="M 178.5,58.5 C 178.5,59.1667 178.5,59.8333 178.5,60.5C 178.607,62.3786 178.107,62.7119 177,61.5C 173.947,57.6207 171.114,53.6207 168.5,49.5C 167.496,48.3172 166.662,46.9839 166,45.5C 165.577,46.9561 164.744,47.4561 163.5,47C 159.39,44.1914 155.557,41.0247 152,37.5C 151.586,37.9574 151.086,38.2907 150.5,38.5C 145.955,36.8905 141.288,35.7238 136.5,35C 135.335,33.9164 134.002,33.0831 132.5,32.5C 131.167,31.8333 131.167,31.1667 132.5,30.5C 134.709,31.1062 136.876,31.7728 139,32.5C 140.566,33.0606 141.899,32.3939 143,30.5C 143.333,31.1667 143.667,31.8333 144,32.5C 144.824,31.1916 145.324,29.6916 145.5,28C 144.299,27.0975 143.465,25.9308 143,24.5C 142.667,24.8333 142.333,25.1667 142,25.5C 134.409,22.1362 126.575,19.4695 118.5,17.5C 115.959,16.3511 113.459,16.3511 111,17.5C 109.581,16.5399 108.081,15.7065 106.5,15C 98.2775,13.5489 89.9441,13.7155 81.5,15.5C 80.1667,15.3333 78.8333,15.1667 77.5,15C 78.7375,14.7679 79.7375,14.2679 80.5,13.5C 123.315,6.23867 155.981,21.2387 178.5,58.5 Z"/></g>
<g><path style="opacity:1" fill="#508fc7" d="M 80.5,13.5 C 79.7375,14.2679 78.7375,14.7679 77.5,15C 78.8333,15.1667 80.1667,15.3333 81.5,15.5C 89.9441,13.7155 98.2775,13.5489 106.5,15C 108.081,15.7065 109.581,16.5399 111,17.5C 113.459,16.3511 115.959,16.3511 118.5,17.5C 114.782,19.5733 110.782,19.74 106.5,18C 107.696,17.3457 107.696,16.8457 106.5,16.5C 103.317,17.2438 100.317,17.2438 97.5,16.5C 95.336,16.9976 93.6694,18.1642 92.5,20C 96.9583,21.9806 101.458,23.8139 106,25.5C 107.84,24.1669 108.34,24.3335 107.5,26C 114.397,29.1312 121.397,31.9645 128.5,34.5C 131.063,37.6127 134.063,40.446 137.5,43C 148.963,45.4873 159.463,49.9873 169,56.5C 168.581,54.4971 167.747,52.4971 166.5,50.5C 166.957,49.7025 167.624,49.3691 168.5,49.5C 171.114,53.6207 173.947,57.6207 177,61.5C 178.107,62.7119 178.607,62.3786 178.5,60.5C 186.248,74.8897 188.748,90.2231 186,106.5C 185.206,102.45 184.206,98.4496 183,94.5C 182.5,92.6667 181.333,91.5 179.5,91C 180.357,90.3109 181.023,89.4776 181.5,88.5C 179.178,87.0636 178.511,85.2303 179.5,83C 177.893,81.951 177.227,80.451 177.5,78.5C 174.203,78.6713 173.869,78.0046 176.5,76.5C 173.234,67.7557 167.234,61.9224 158.5,59C 151.47,59.0068 144.47,59.3402 137.5,60C 134.146,52.7484 130.146,45.9151 125.5,39.5C 120.808,36.743 115.808,34.743 110.5,33.5C 109.735,33.0766 108.902,32.7432 108,32.5C 106.445,33.8475 104.611,34.5142 102.5,34.5C 97.6823,33.5423 92.6823,32.209 87.5,30.5C 85.2922,31.3987 83.1255,31.0654 81,29.5C 79.2041,30.767 77.3707,30.767 75.5,29.5C 72.9206,30.7061 70.4206,32.0394 68,33.5C 64.5958,29.3322 60.4291,27.1655 55.5,27C 58.2179,25.9282 60.8845,24.7616 63.5,23.5C 58.0987,24.3286 52.7653,26.1619 47.5,29C 44.2486,32.1708 43.9153,31.8374 46.5,28C 56.7885,20.6884 68.1218,15.855 80.5,13.5 Z"/></g>
<g><path style="opacity:1" fill="#5995c5" d="M 67.5,-0.5 C 88.8333,-0.5 110.167,-0.5 131.5,-0.5C 125.013,0.328254 118.346,0.828254 111.5,1C 150.823,7.16853 177.823,28.6685 192.5,65.5C 190.061,63.5901 187.727,61.9234 185.5,60.5C 183.271,59.4229 180.937,58.7563 178.5,58.5C 155.981,21.2387 123.315,6.23867 80.5,13.5C 68.1218,15.855 56.7885,20.6884 46.5,28C 43.9153,31.8374 44.2486,32.1708 47.5,29C 52.7653,26.1619 58.0987,24.3286 63.5,23.5C 60.8845,24.7616 58.2179,25.9282 55.5,27C 60.4291,27.1655 64.5958,29.3322 68,33.5C 70.4206,32.0394 72.9206,30.7061 75.5,29.5C 77.3707,30.767 79.2041,30.767 81,29.5C 83.1255,31.0654 85.2922,31.3987 87.5,30.5C 92.6823,32.209 97.6823,33.5423 102.5,34.5C 104.611,34.5142 106.445,33.8475 108,32.5C 108.902,32.7432 109.735,33.0766 110.5,33.5C 111.953,34.8249 111.619,35.6582 109.5,36C 101.579,37.987 93.9125,37.1536 86.5,33.5C 84.2363,33.904 82.0697,33.904 80,33.5C 78.5913,34.7811 77.0913,35.7811 75.5,36.5C 75.1788,38.0481 74.1788,38.7148 72.5,38.5C 72.6602,40.1992 72.4935,41.8659 72,43.5C 71.2825,42.5494 70.4491,42.3828 69.5,43C 67.2044,46.4256 65.0377,49.9256 63,53.5C 62.0975,54.7014 60.9308,55.5348 59.5,56C 61.1161,56.6152 62.4495,57.6152 63.5,59C 62.9747,59.6924 62.3081,60.1924 61.5,60.5C 60.1667,59.1667 58.8333,59.1667 57.5,60.5C 56.2888,59.7261 56.2888,58.8928 57.5,58C 54.5,56.3333 51.5,54.6667 48.5,53C 44.0842,52.0634 39.7508,51.8967 35.5,52.5C 33.8008,52.3398 32.1341,52.5065 30.5,53C 28.0558,53.8036 26.2225,55.3036 25,57.5C 24.6174,56.944 24.1174,56.6107 23.5,56.5C 26.4862,51.4386 24.8196,49.1052 18.5,49.5C 18.7148,47.8212 18.0481,46.8212 16.5,46.5C 24.9095,32.0917 36.5762,21.0917 51.5,13.5C 61.5532,11.6539 71.5532,9.48722 81.5,7C 76.5111,6.50074 71.5111,6.33407 66.5,6.5C 73.4092,3.43928 80.7426,1.60595 88.5,1C 81.3213,0.828538 74.3213,0.328538 67.5,-0.5 Z"/></g>
<g><path style="opacity:1" fill="#4888c7" d="M 118.5,17.5 C 126.575,19.4695 134.409,22.1362 142,25.5C 142.333,25.1667 142.667,24.8333 143,24.5C 143.465,25.9308 144.299,27.0975 145.5,28C 145.324,29.6916 144.824,31.1916 144,32.5C 143.667,31.8333 143.333,31.1667 143,30.5C 141.899,32.3939 140.566,33.0606 139,32.5C 136.876,31.7728 134.709,31.1062 132.5,30.5C 131.167,31.1667 131.167,31.8333 132.5,32.5C 134.002,33.0831 135.335,33.9164 136.5,35C 141.288,35.7238 145.955,36.8905 150.5,38.5C 151.086,38.2907 151.586,37.9574 152,37.5C 155.557,41.0247 159.39,44.1914 163.5,47C 164.744,47.4561 165.577,46.9561 166,45.5C 166.662,46.9839 167.496,48.3172 168.5,49.5C 167.624,49.3691 166.957,49.7025 166.5,50.5C 167.747,52.4971 168.581,54.4971 169,56.5C 159.463,49.9873 148.963,45.4873 137.5,43C 134.063,40.446 131.063,37.6127 128.5,34.5C 121.397,31.9645 114.397,29.1312 107.5,26C 108.34,24.3335 107.84,24.1669 106,25.5C 101.458,23.8139 96.9583,21.9806 92.5,20C 93.6694,18.1642 95.336,16.9976 97.5,16.5C 100.317,17.2438 103.317,17.2438 106.5,16.5C 107.696,16.8457 107.696,17.3457 106.5,18C 110.782,19.74 114.782,19.5733 118.5,17.5 Z"/></g>
<g><path style="opacity:1" fill="#070404" d="M 120.5,40.5 C 123.709,43.8912 125.876,47.8912 127,52.5C 129.528,61.001 131.195,69.6677 132,78.5C 136.629,72.8652 142.129,68.3652 148.5,65C 164.757,64.2703 171.59,72.1037 169,88.5C 168.153,90.1932 167.32,91.8599 166.5,93.5C 160.888,103.152 152.555,109.152 141.5,111.5C 141.336,114.187 141.503,116.854 142,119.5C 145.219,122.264 148.219,125.264 151,128.5C 151.483,129.448 151.649,130.448 151.5,131.5C 149.418,131.528 147.584,130.861 146,129.5C 146.29,132.413 146.457,135.413 146.5,138.5C 145.207,139.645 144.041,139.311 143,137.5C 143.305,139.443 143.305,141.443 143,143.5C 139.682,142.802 137.182,144.136 135.5,147.5C 120.022,158.161 103.022,161.328 84.5,157C 78.5666,155.36 72.9,153.193 67.5,150.5C 64.892,147.943 62.392,145.277 60,142.5C 59.1841,143.823 58.0174,144.489 56.5,144.5C 56.7989,142.396 56.4656,140.396 55.5,138.5C 53.622,139.661 52.622,138.994 52.5,136.5C 53.3509,134.147 53.8509,131.813 54,129.5C 52.4157,130.861 50.5824,131.528 48.5,131.5C 48.4326,130.041 48.7659,128.708 49.5,127.5C 50.5,126.167 51.5,124.833 52.5,123.5C 53.8853,122.386 55.3853,121.386 57,120.5C 57.2178,117.574 57.7178,114.74 58.5,112C 47.3972,109.036 38.7306,102.869 32.5,93.5C 31.193,90.2748 30.193,86.9415 29.5,83.5C 29.5,81.8333 29.5,80.1667 29.5,78.5C 31.9083,71.0927 36.9083,66.426 44.5,64.5C 54.1179,65.5917 61.6179,70.2584 67,78.5C 68.5384,70.4749 70.205,62.4749 72,54.5C 73.1123,49.6086 75.279,45.2753 78.5,41.5C 80.9567,39.7751 83.6234,39.2751 86.5,40C 90.8022,42.1511 95.1356,44.3178 99.5,46.5C 103.936,44.57 108.269,42.4034 112.5,40C 115.221,39.3985 117.887,39.5651 120.5,40.5 Z"/></g>
<g><path style="opacity:1" fill="#633111" d="M 82.5,41.5 C 83.8734,41.3433 85.2068,41.51 86.5,42C 90.2868,45.2099 94.6201,47.3766 99.5,48.5C 104.553,47.1401 109.219,44.9734 113.5,42C 115.635,41.3653 117.635,41.6986 119.5,43C 121.986,46.1371 123.819,49.6371 125,53.5C 126.823,61.1163 128.323,68.7829 129.5,76.5C 109.83,71.2033 90.1632,71.2033 70.5,76.5C 71.273,65.7416 73.773,55.4082 78,45.5C 79.3968,43.9297 80.8968,42.5964 82.5,41.5 Z"/></g>
<g><path style="opacity:1" fill="#dbe7f1" d="M 16.5,46.5 C 18.0481,46.8212 18.7148,47.8212 18.5,49.5C 24.8196,49.1052 26.4862,51.4386 23.5,56.5C 19.5958,57.9495 15.5958,59.1162 11.5,60C 10.2642,61.3875 8.93083,62.5542 7.5,63.5C 9.73962,57.3504 12.7396,51.6837 16.5,46.5 Z"/></g>
<g><path style="opacity:1" fill="#77abd4" d="M 75.5,36.5 C 76.915,37.2894 78.415,37.9561 80,38.5C 87.4257,35.4571 94.759,36.1238 102,40.5C 102.95,39.9777 103.784,39.311 104.5,38.5C 105.803,39.7178 106.803,39.3845 107.5,37.5C 111.5,38.8333 115.5,38.8333 119.5,37.5C 120.386,38.325 120.719,39.325 120.5,40.5C 117.887,39.5651 115.221,39.3985 112.5,40C 108.269,42.4034 103.936,44.57 99.5,46.5C 95.1356,44.3178 90.8022,42.1511 86.5,40C 83.6234,39.2751 80.9567,39.7751 78.5,41.5C 75.279,45.2753 73.1123,49.6086 72,54.5C 70.205,62.4749 68.5384,70.4749 67,78.5C 61.6179,70.2584 54.1179,65.5917 44.5,64.5C 45.0906,63.8485 45.7573,63.1818 46.5,62.5C 45.0878,61.1936 43.4211,60.3603 41.5,60C 41.8333,59.6667 42.1667,59.3333 42.5,59C 41.2986,58.0975 40.4652,56.9308 40,55.5C 38.3484,54.6006 36.8484,53.6006 35.5,52.5C 39.7508,51.8967 44.0842,52.0634 48.5,53C 51.5,54.6667 54.5,56.3333 57.5,58C 56.2888,58.8928 56.2888,59.7261 57.5,60.5C 58.8333,59.1667 60.1667,59.1667 61.5,60.5C 62.3081,60.1924 62.9747,59.6924 63.5,59C 62.4495,57.6152 61.1161,56.6152 59.5,56C 60.9308,55.5348 62.0975,54.7014 63,53.5C 65.0377,49.9256 67.2044,46.4256 69.5,43C 70.4491,42.3828 71.2825,42.5494 72,43.5C 72.4935,41.8659 72.6602,40.1992 72.5,38.5C 74.1788,38.7148 75.1788,38.0481 75.5,36.5 Z"/></g>
<g><path style="opacity:1" fill="#633111" d="M 42.5,66.5 C 46.747,66.1778 50.747,67.0111 54.5,69C 61.0271,74.1938 66.8605,80.0271 72,86.5C 72.3879,85.572 73.0546,84.9054 74,84.5C 91.3249,88.4705 108.658,88.4705 126,84.5C 126.772,84.6448 127.439,84.9781 128,85.5C 133.531,79.634 139.365,74.134 145.5,69C 149.67,66.2125 154.003,65.8791 158.5,68C 154.902,68.1539 151.569,69.1539 148.5,71C 139.833,79 131.167,87 122.5,95C 107.473,100.933 92.4732,100.933 77.5,95C 69.1926,87.3616 60.8593,79.6949 52.5,72C 48.8771,69.5212 44.8771,68.1878 40.5,68C 41.4158,67.7216 42.0825,67.2216 42.5,66.5 Z"/></g>
<g><path style="opacity:1" fill="#bacce2" d="M 35.5,52.5 C 36.8484,53.6006 38.3484,54.6006 40,55.5C 40.4652,56.9308 41.2986,58.0975 42.5,59C 42.1667,59.3333 41.8333,59.6667 41.5,60C 43.4211,60.3603 45.0878,61.1936 46.5,62.5C 45.7573,63.1818 45.0906,63.8485 44.5,64.5C 36.9083,66.426 31.9083,71.0927 29.5,78.5C 20.8095,76.3466 12.1428,76.3466 3.5,78.5C 4.05633,73.2735 5.38966,68.2735 7.5,63.5C 8.93083,62.5542 10.2642,61.3875 11.5,60C 15.5958,59.1162 19.5958,57.9495 23.5,56.5C 24.1174,56.6107 24.6174,56.944 25,57.5C 26.2225,55.3036 28.0558,53.8036 30.5,53C 32.1341,52.5065 33.8008,52.3398 35.5,52.5 Z"/></g>
<g><path style="opacity:1" fill="#431805" d="M 39.5,70.5 C 43.8131,70.5483 47.8131,71.715 51.5,74C 58.2965,80.489 64.9632,86.989 71.5,93.5C 62.3797,90.3215 54.213,84.9881 47,77.5C 48.0453,81.9045 50.712,85.2379 55,87.5C 54.4535,93.874 56.6201,99.0407 61.5,103C 60.3305,105.185 59.1638,107.351 58,109.5C 44.0754,105.242 35.2421,96.0754 31.5,82C 32.3614,76.7348 35.0281,72.9015 39.5,70.5 Z"/></g>
<g><path style="opacity:1" fill="#431805" d="M 154.5,70.5 C 166.323,71.7057 170.157,78.0391 166,89.5C 160.845,99.8309 152.679,106.498 141.5,109.5C 140.502,107.51 139.502,105.51 138.5,103.5C 142.601,98.9624 144.768,93.629 145,87.5C 148.586,84.6159 151.252,81.2826 153,77.5C 145.727,85.1452 137.227,90.6452 127.5,94C 135.508,84.8115 144.508,76.9781 154.5,70.5 Z"/></g>
<g><path style="opacity:1" fill="#4a240b" d="M 80.5,76.5 C 95.8694,76.1412 111.203,76.6412 126.5,78C 128.286,78.1962 129.619,79.0295 130.5,80.5C 128.78,81.934 126.78,82.7674 124.5,83C 106.769,85.2319 89.1023,84.8986 71.5,82C 70.0267,81.2904 69.3601,80.1238 69.5,78.5C 73.3366,78.0691 77.0032,77.4025 80.5,76.5 Z"/></g>
<g><path style="opacity:1" fill="#6aa1d3" d="M 110.5,33.5 C 115.808,34.743 120.808,36.743 125.5,39.5C 130.146,45.9151 134.146,52.7484 137.5,60C 144.47,59.3402 151.47,59.0068 158.5,59C 167.234,61.9224 173.234,67.7557 176.5,76.5C 173.869,78.0046 174.203,78.6713 177.5,78.5C 177.227,80.451 177.893,81.951 179.5,83C 178.511,85.2303 179.178,87.0636 181.5,88.5C 181.023,89.4776 180.357,90.3109 179.5,91C 181.333,91.5 182.5,92.6667 183,94.5C 184.206,98.4496 185.206,102.45 186,106.5C 188.748,90.2231 186.248,74.8897 178.5,60.5C 178.5,59.8333 178.5,59.1667 178.5,58.5C 180.937,58.7563 183.271,59.4229 185.5,60.5C 187.727,61.9234 190.061,63.5901 192.5,65.5C 198.206,80.3916 199.872,95.7249 197.5,111.5C 194.235,112.92 191.069,114.586 188,116.5C 184.193,115.411 181.026,116.411 178.5,119.5C 178.709,120.086 179.043,120.586 179.5,121C 177.061,121.533 176.395,122.7 177.5,124.5C 174.777,126.271 174.111,128.605 175.5,131.5C 170.827,130.497 166.161,129.497 161.5,128.5C 161.297,126.362 160.297,124.695 158.5,123.5C 159.025,122.808 159.692,122.308 160.5,122C 158.754,121.529 157.087,120.862 155.5,120C 156.167,119.667 156.833,119.333 157.5,119C 156.707,117.915 156.04,116.748 155.5,115.5C 158.436,111.975 161.602,108.642 165,105.5C 165.456,106.744 164.956,107.577 163.5,108C 164.167,108.167 164.833,108.333 165.5,108.5C 167.325,107.349 169.325,106.682 171.5,106.5C 172.413,103.777 173.08,101.277 173.5,99C 172.624,97.414 171.624,95.914 170.5,94.5C 170.938,93.4937 171.604,93.4937 172.5,94.5C 174.762,87.6607 174.262,80.6607 171,73.5C 168.534,70.8718 166.701,67.8718 165.5,64.5C 162.707,62.3398 159.54,61.0065 156,60.5C 153.667,60.5 151.333,60.5 149,60.5C 140.352,68.1126 134.185,65.7793 130.5,53.5C 130.833,52.8333 131.167,52.1667 131.5,51.5C 129.503,51.5234 128.169,50.1901 127.5,47.5C 127.709,46.914 128.043,46.414 128.5,46C 125.935,43.9205 123.268,42.0872 120.5,40.5C 120.719,39.325 120.386,38.325 119.5,37.5C 115.5,38.8333 111.5,38.8333 107.5,37.5C 106.803,39.3845 105.803,39.7178 104.5,38.5C 103.784,39.311 102.95,39.9777 102,40.5C 94.759,36.1238 87.4257,35.4571 80,38.5C 78.415,37.9561 76.915,37.2894 75.5,36.5C 77.0913,35.7811 78.5913,34.7811 80,33.5C 82.0697,33.904 84.2363,33.904 86.5,33.5C 93.9125,37.1536 101.579,37.987 109.5,36C 111.619,35.6582 111.953,34.8249 110.5,33.5 Z"/></g>
<g><path style="opacity:1" fill="#d7e5f1" d="M 29.5,78.5 C 29.5,80.1667 29.5,81.8333 29.5,83.5C 20.6485,81.6378 11.6485,80.6378 2.5,80.5C 2.32842,79.5084 2.66175,78.8417 3.5,78.5C 12.1428,76.3466 20.8095,76.3466 29.5,78.5 Z"/></g>
<g><path style="opacity:1" fill="#8bb8df" d="M 2.5,80.5 C 11.6485,80.6378 20.6485,81.6378 29.5,83.5C 30.193,86.9415 31.193,90.2748 32.5,93.5C 31.7611,93.369 31.0944,93.5357 30.5,94C 31.3136,96.6269 32.6469,98.9602 34.5,101C 31.9744,100.096 29.3078,99.7623 26.5,100C 25.6634,101.011 25.33,102.178 25.5,103.5C 24.8333,103.5 24.5,103.167 24.5,102.5C 24.3573,100.738 24.6906,99.0709 25.5,97.5C 22.1335,94.16 18.8001,90.8267 15.5,87.5C 14.3409,85.6231 12.6742,85.1231 10.5,86C 9.1095,87.02 7.6095,87.8534 6,88.5C 5.25711,90.4406 5.42378,92.2739 6.5,94C 4.89253,93.9813 3.22586,93.8146 1.5,93.5C 1.2941,89.1018 1.62743,84.7685 2.5,80.5 Z"/></g>
<g><path style="opacity:1" fill="#b1656a" d="M 61.5,92.5 C 62.9733,93.072 64.3066,93.9054 65.5,95C 62.691,97.0564 61.3577,96.2231 61.5,92.5 Z"/></g>
<g><path style="opacity:1" fill="#a15d61" d="M 136.5,92.5 C 137.239,92.369 137.906,92.5357 138.5,93C 137.54,94.4194 136.707,95.9194 136,97.5C 133.919,95.4434 134.086,93.7767 136.5,92.5 Z"/></g>
<g><path style="opacity:1" fill="#f5f5ec" d="M 15.5,87.5 C 14.4721,87.9258 13.1388,87.9258 11.5,87.5C 11.2865,89.1439 11.6198,90.6439 12.5,92C 10.8333,93.1667 9.16667,94.3333 7.5,95.5C 7.70931,96.086 8.04265,96.586 8.5,97C 6.15226,97.3459 4.31892,98.5125 3,100.5C 2.32924,99.7476 1.4959,99.4142 0.5,99.5C 0.517151,97.4352 0.850485,95.4352 1.5,93.5C 3.22586,93.8146 4.89253,93.9813 6.5,94C 5.42378,92.2739 5.25711,90.4406 6,88.5C 7.6095,87.8534 9.1095,87.02 10.5,86C 12.6742,85.1231 14.3409,85.6231 15.5,87.5 Z"/></g>
<g><path style="opacity:1" fill="#624438" d="M 139.5,119.5 C 136.906,111.072 131.406,105.405 123,102.5C 121.56,103.148 120.06,103.481 118.5,103.5C 105.833,107.5 93.1667,107.5 80.5,103.5C 75.2479,102.082 70.7479,103.415 67,107.5C 64.2894,110.933 62.1227,114.6 60.5,118.5C 60.4984,110.005 62.9984,102.339 68,95.5C 82.6195,101.237 97.7862,103.07 113.5,101C 119.938,99.9639 126.105,98.1305 132,95.5C 136.403,102.876 138.903,110.876 139.5,119.5 Z"/></g>
<g><path style="opacity:1" fill="#f0f2eb" d="M 24.5,102.5 C 24.5,103.167 24.8333,103.5 25.5,103.5C 26.1174,103.611 26.6174,103.944 27,104.5C 29.2838,102.016 31.7838,101.849 34.5,104C 35.7383,104.69 35.7383,105.19 34.5,105.5C 33.5837,105.018 32.5837,104.685 31.5,104.5C 27.3451,106.185 23.0118,106.851 18.5,106.5C 17.2475,109.12 15.9141,111.787 14.5,114.5C 15.1272,115.417 15.4606,116.417 15.5,117.5C 14.3523,118.895 13.3523,118.728 12.5,117C 8.72596,116.887 5.72596,118.387 3.5,121.5C 2.70937,118.885 2.0427,116.218 1.5,113.5C 4.87225,113.85 8.03892,114.184 11,114.5C 11.2256,111.905 11.7256,109.405 12.5,107C 14.6633,106.755 16.33,105.755 17.5,104C 19.8127,103.338 22.146,102.838 24.5,102.5 Z"/></g>
<g><path style="opacity:1" fill="#adc2df" d="M 15.5,87.5 C 18.8001,90.8267 22.1335,94.16 25.5,97.5C 24.6906,99.0709 24.3573,100.738 24.5,102.5C 22.146,102.838 19.8127,103.338 17.5,104C 16.33,105.755 14.6633,106.755 12.5,107C 11.7256,109.405 11.2256,111.905 11,114.5C 8.03892,114.184 4.87225,113.85 1.5,113.5C 1.64693,108.786 1.3136,104.119 0.5,99.5C 1.4959,99.4142 2.32924,99.7476 3,100.5C 4.31892,98.5125 6.15226,97.3459 8.5,97C 8.04265,96.586 7.70931,96.086 7.5,95.5C 9.16667,94.3333 10.8333,93.1667 12.5,92C 11.6198,90.6439 11.2865,89.1439 11.5,87.5C 13.1388,87.9258 14.4721,87.9258 15.5,87.5 Z"/></g>
<g><path style="opacity:1" fill="#7caed9" d="M 120.5,40.5 C 123.268,42.0872 125.935,43.9205 128.5,46C 128.043,46.414 127.709,46.914 127.5,47.5C 128.169,50.1901 129.503,51.5234 131.5,51.5C 131.167,52.1667 130.833,52.8333 130.5,53.5C 134.185,65.7793 140.352,68.1126 149,60.5C 151.333,60.5 153.667,60.5 156,60.5C 159.54,61.0065 162.707,62.3398 165.5,64.5C 166.701,67.8718 168.534,70.8718 171,73.5C 174.262,80.6607 174.762,87.6607 172.5,94.5C 171.604,93.4937 170.938,93.4937 170.5,94.5C 171.624,95.914 172.624,97.414 173.5,99C 173.08,101.277 172.413,103.777 171.5,106.5C 169.325,106.682 167.325,107.349 165.5,108.5C 164.833,108.333 164.167,108.167 163.5,108C 164.956,107.577 165.456,106.744 165,105.5C 161.602,108.642 158.436,111.975 155.5,115.5C 156.04,116.748 156.707,117.915 157.5,119C 156.833,119.333 156.167,119.667 155.5,120C 157.087,120.862 158.754,121.529 160.5,122C 159.692,122.308 159.025,122.808 158.5,123.5C 160.297,124.695 161.297,126.362 161.5,128.5C 166.161,129.497 170.827,130.497 175.5,131.5C 172.858,132.102 170.525,133.436 168.5,135.5C 169.213,137.776 169.713,140.109 170,142.5C 171.205,143.071 172.372,143.738 173.5,144.5C 170.337,145.324 168.67,147.324 168.5,150.5C 166.901,150.768 165.568,150.434 164.5,149.5C 163.992,147.767 163.159,147.434 162,148.5C 160.397,146.344 158.23,145.01 155.5,144.5C 154.653,142.939 154.986,141.439 156.5,140C 155.552,139.517 154.552,139.351 153.5,139.5C 153.898,132.538 152.232,125.872 148.5,119.5C 149.883,116.924 150.717,117.258 151,120.5C 151.333,118.167 151.667,115.833 152,113.5C 156.435,108.944 161.102,104.61 166,100.5C 166.833,98.8333 167.667,97.1667 168.5,95.5C 168.145,94.4777 167.478,93.811 166.5,93.5C 167.32,91.8599 168.153,90.1932 169,88.5C 171.59,72.1037 164.757,64.2703 148.5,65C 142.129,68.3652 136.629,72.8652 132,78.5C 131.195,69.6677 129.528,61.001 127,52.5C 125.876,47.8912 123.709,43.8912 120.5,40.5 Z"/></g>
<g><path style="opacity:1" fill="#e2bf9b" d="M 80.5,103.5 C 83.508,106.012 85.508,109.179 86.5,113C 86.4301,113.765 86.0967,114.265 85.5,114.5C 82.6152,104.596 77.1152,102.596 69,108.5C 66.5114,112.405 66.0114,116.405 67.5,120.5C 67.8333,121.5 68.5,122.167 69.5,122.5C 74.2185,126.478 78.8852,126.478 83.5,122.5C 84.7298,120.703 85.3964,118.703 85.5,116.5C 86.1667,116.5 86.5,116.167 86.5,115.5C 87.9915,119.264 88.9915,123.264 89.5,127.5C 89.2639,130.226 90.0972,132.559 92,134.5C 94.8459,136.013 97.0126,138.179 98.5,141C 97.6553,144.343 95.4887,145.843 92,145.5C 88.3197,145.491 85.653,143.825 84,140.5C 85.5769,146.879 89.7435,149.046 96.5,147C 97.9308,146.535 99.0975,145.701 100,144.5C 103.719,147.902 107.886,148.402 112.5,146C 116.415,140.826 116.082,140.493 111.5,145C 108.833,145.667 106.167,145.667 103.5,145C 101.604,143.192 101.104,141.025 102,138.5C 105.405,136.598 107.905,133.931 109.5,130.5C 110.644,126.028 111.477,121.362 112,116.5C 113.126,111.582 115.292,107.248 118.5,103.5C 120.06,103.481 121.56,103.148 123,102.5C 131.406,105.405 136.906,111.072 139.5,119.5C 141.244,121.75 143.244,123.917 145.5,126C 144.552,126.483 143.552,126.649 142.5,126.5C 142.548,129.313 143.215,131.979 144.5,134.5C 143.078,134.412 141.578,134.412 140,134.5C 140.135,136.425 140.302,138.425 140.5,140.5C 137.185,140.972 134.851,142.805 133.5,146C 113.13,158.751 92.1301,159.751 70.5,149C 66.7612,145.587 62.7612,142.587 58.5,140C 59.2598,138.559 59.9264,137.059 60.5,135.5C 59.1117,132.921 57.6117,132.921 56,135.5C 55.7479,133.069 56.2479,130.735 57.5,128.5C 57.1667,127.5 56.5,126.833 55.5,126.5C 54.549,127.326 53.549,127.492 52.5,127C 56.1157,124.89 58.7823,122.056 60.5,118.5C 62.1227,114.6 64.2894,110.933 67,107.5C 70.7479,103.415 75.2479,102.082 80.5,103.5 Z"/></g>
<g><path style="opacity:1" fill="#f1f1f1" d="M 131.5,120.5 C 131.158,121.338 130.492,121.672 129.5,121.5C 128.577,122.303 127.577,122.47 126.5,122C 127.435,119.619 127.768,117.119 127.5,114.5C 126.167,114.5 124.833,114.5 123.5,114.5C 123.5,113.167 123.5,111.833 123.5,110.5C 120.901,110.549 118.734,111.549 117,113.5C 117.702,108.047 120.869,105.881 126.5,107C 130.548,110.6 132.215,115.1 131.5,120.5 Z"/></g>
<g><path style="opacity:1" fill="#f3f2f2" d="M 82.5,112.5 C 80.7028,111.27 78.7028,110.604 76.5,110.5C 76.5,111.833 76.5,113.167 76.5,114.5C 74.8333,114.5 73.1667,114.5 71.5,114.5C 71.2924,116.92 71.6258,119.253 72.5,121.5C 71.5281,121.593 70.5281,121.926 69.5,122.5C 68.5,122.167 67.8333,121.5 67.5,120.5C 67.6312,115.562 69.2978,111.228 72.5,107.5C 77.588,105.578 80.9213,107.244 82.5,112.5 Z"/></g>
<g><path style="opacity:1" fill="#755144" d="M 80.5,103.5 C 93.1667,107.5 105.833,107.5 118.5,103.5C 115.292,107.248 113.126,111.582 112,116.5C 111.477,121.362 110.644,126.028 109.5,130.5C 109.102,125.807 107.602,121.474 105,117.5C 105.049,120.345 105.549,123.178 106.5,126C 105.448,129.222 103.115,131.055 99.5,131.5C 97.0413,130.436 94.708,129.102 92.5,127.5C 93.6774,124.157 94.5108,120.824 95,117.5C 92.5788,120.596 90.7455,123.929 89.5,127.5C 88.9915,123.264 87.9915,119.264 86.5,115.5C 85.8333,115.5 85.5,115.167 85.5,114.5C 86.0967,114.265 86.4301,113.765 86.5,113C 85.508,109.179 83.508,106.012 80.5,103.5 Z"/></g>
<g><path style="opacity:1" fill="#0e0d0c" d="M 85.5,114.5 C 85.5,115.167 85.8333,115.5 86.5,115.5C 86.5,116.167 86.1667,116.5 85.5,116.5C 84.5,115.167 83.5,113.833 82.5,112.5C 80.9213,107.244 77.588,105.578 72.5,107.5C 69.2978,111.228 67.6312,115.562 67.5,120.5C 66.0114,116.405 66.5114,112.405 69,108.5C 77.1152,102.596 82.6152,104.596 85.5,114.5 Z"/></g>
<g><path style="opacity:1" fill="#140e08" d="M 82.5,112.5 C 84.1461,115.895 83.8127,119.061 81.5,122C 82.0944,122.464 82.7611,122.631 83.5,122.5C 78.8852,126.478 74.2185,126.478 69.5,122.5C 70.5281,121.926 71.5281,121.593 72.5,121.5C 71.6258,119.253 71.2924,116.92 71.5,114.5C 73.1667,114.5 74.8333,114.5 76.5,114.5C 76.5,113.167 76.5,111.833 76.5,110.5C 78.7028,110.604 80.7028,111.27 82.5,112.5 Z"/></g>
<g><path style="opacity:1" fill="#130e09" d="M 131.5,120.5 C 132.215,115.1 130.548,110.6 126.5,107C 120.869,105.881 117.702,108.047 117,113.5C 118.734,111.549 120.901,110.549 123.5,110.5C 123.5,111.833 123.5,113.167 123.5,114.5C 124.833,114.5 126.167,114.5 127.5,114.5C 127.768,117.119 127.435,119.619 126.5,122C 127.577,122.47 128.577,122.303 129.5,121.5C 129.611,122.117 129.944,122.617 130.5,123C 120.072,128.119 115.238,125.286 116,114.5C 115.465,116.271 114.631,116.604 113.5,115.5C 115.825,105.584 121.325,102.917 130,107.5C 131.779,110.613 132.945,113.946 133.5,117.5C 133.547,119.038 132.88,120.038 131.5,120.5 Z"/></g>
<g><path style="opacity:1" fill="#c8d3e3" d="M 34.5,105.5 C 35.6438,107.967 37.3104,108.634 39.5,107.5C 45.7358,107.563 48.5691,110.563 48,116.5C 44.7464,111.777 40.2464,110.277 34.5,112C 33.2341,112.309 32.0674,112.809 31,113.5C 24.1542,111.734 23.6542,113.567 29.5,119C 28.4464,120.388 28.2797,121.888 29,123.5C 31.8095,122.164 34.6429,121.831 37.5,122.5C 39.6705,120.914 42.0038,119.58 44.5,118.5C 46.7015,121.059 49.3682,122.725 52.5,123.5C 51.5,124.833 50.5,126.167 49.5,127.5C 48.0779,127.25 47.0779,126.417 46.5,125C 45.1011,124.405 43.7678,124.572 42.5,125.5C 41.8333,124.833 41.1667,124.167 40.5,123.5C 38.2241,124.213 35.8907,124.713 33.5,125C 31.6667,125.5 30.5,126.667 30,128.5C 28.9563,127.377 28.2896,126.044 28,124.5C 27.51,125.793 27.3433,127.127 27.5,128.5C 25.076,128.808 22.7427,128.474 20.5,127.5C 18.5328,124.223 16.8661,120.889 15.5,117.5C 15.4606,116.417 15.1272,115.417 14.5,114.5C 15.9141,111.787 17.2475,109.12 18.5,106.5C 23.0118,106.851 27.3451,106.185 31.5,104.5C 32.5837,104.685 33.5837,105.018 34.5,105.5 Z"/></g>
<g><path style="opacity:1" fill="#a9c2e0" d="M 32.5,93.5 C 38.7306,102.869 47.3972,109.036 58.5,112C 57.7178,114.74 57.2178,117.574 57,120.5C 55.3853,121.386 53.8853,122.386 52.5,123.5C 49.3682,122.725 46.7015,121.059 44.5,118.5C 42.0038,119.58 39.6705,120.914 37.5,122.5C 34.6429,121.831 31.8095,122.164 29,123.5C 28.2797,121.888 28.4464,120.388 29.5,119C 23.6542,113.567 24.1542,111.734 31,113.5C 32.0674,112.809 33.2341,112.309 34.5,112C 40.2464,110.277 44.7464,111.777 48,116.5C 48.5691,110.563 45.7358,107.563 39.5,107.5C 37.3104,108.634 35.6438,107.967 34.5,105.5C 35.7383,105.19 35.7383,104.69 34.5,104C 31.7838,101.849 29.2838,102.016 27,104.5C 26.6174,103.944 26.1174,103.611 25.5,103.5C 25.33,102.178 25.6634,101.011 26.5,100C 29.3078,99.7623 31.9744,100.096 34.5,101C 32.6469,98.9602 31.3136,96.6269 30.5,94C 31.0944,93.5357 31.7611,93.369 32.5,93.5 Z"/></g>
<g><path style="opacity:1" fill="#dfdfdf" d="M 82.5,112.5 C 83.5,113.833 84.5,115.167 85.5,116.5C 85.3964,118.703 84.7298,120.703 83.5,122.5C 82.7611,122.631 82.0944,122.464 81.5,122C 83.8127,119.061 84.1461,115.895 82.5,112.5 Z"/></g>
<g><path style="opacity:1" fill="#0b0807" d="M 109.5,130.5 C 107.905,133.931 105.405,136.598 102,138.5C 101.104,141.025 101.604,143.192 103.5,145C 106.167,145.667 108.833,145.667 111.5,145C 116.082,140.493 116.415,140.826 112.5,146C 107.886,148.402 103.719,147.902 100,144.5C 99.0975,145.701 97.9308,146.535 96.5,147C 89.7435,149.046 85.5769,146.879 84,140.5C 85.653,143.825 88.3197,145.491 92,145.5C 95.4887,145.843 97.6553,144.343 98.5,141C 97.0126,138.179 94.8459,136.013 92,134.5C 90.0972,132.559 89.2639,130.226 89.5,127.5C 90.7455,123.929 92.5788,120.596 95,117.5C 94.5108,120.824 93.6774,124.157 92.5,127.5C 94.708,129.102 97.0413,130.436 99.5,131.5C 103.115,131.055 105.448,129.222 106.5,126C 105.549,123.178 105.049,120.345 105,117.5C 107.602,121.474 109.102,125.807 109.5,130.5 Z"/></g>
<g><path style="opacity:1" fill="#cfe0ef" d="M 197.5,111.5 C 196.832,121.821 194.165,131.488 189.5,140.5C 189.753,138.173 189.086,136.173 187.5,134.5C 186.043,136.275 184.876,138.275 184,140.5C 181.629,138.058 178.796,136.224 175.5,135C 176.448,134.517 177.448,134.351 178.5,134.5C 178.162,131.843 178.829,129.51 180.5,127.5C 179.23,126.712 178.23,125.712 177.5,124.5C 176.395,122.7 177.061,121.533 179.5,121C 179.043,120.586 178.709,120.086 178.5,119.5C 181.026,116.411 184.193,115.411 188,116.5C 191.069,114.586 194.235,112.92 197.5,111.5 Z"/></g>
<g><path style="opacity:1" fill="#b2c0dc" d="M 15.5,117.5 C 16.8661,120.889 18.5328,124.223 20.5,127.5C 22.7427,128.474 25.076,128.808 27.5,128.5C 27.3433,127.127 27.51,125.793 28,124.5C 28.2896,126.044 28.9563,127.377 30,128.5C 30.5,126.667 31.6667,125.5 33.5,125C 35.8907,124.713 38.2241,124.213 40.5,123.5C 41.1667,124.167 41.8333,124.833 42.5,125.5C 43.7678,124.572 45.1011,124.405 46.5,125C 47.0779,126.417 48.0779,127.25 49.5,127.5C 48.7659,128.708 48.4326,130.041 48.5,131.5C 50.5824,131.528 52.4157,130.861 54,129.5C 53.8509,131.813 53.3509,134.147 52.5,136.5C 52.622,138.994 53.622,139.661 55.5,138.5C 56.4656,140.396 56.7989,142.396 56.5,144.5C 54.8546,143.521 53.5213,142.188 52.5,140.5C 50.9547,139.548 49.288,139.215 47.5,139.5C 47.023,137.536 45.8563,136.202 44,135.5C 41.5661,136.322 39.0661,136.656 36.5,136.5C 36.7163,134.319 35.883,132.653 34,131.5C 32.1114,132.097 30.2781,132.431 28.5,132.5C 30.5,133.167 32.5,133.833 34.5,134.5C 35.5063,135.396 35.5063,136.062 34.5,136.5C 31.223,135.746 27.8897,135.246 24.5,135C 23.1084,131.619 20.7751,130.786 17.5,132.5C 18.8793,133.863 18.7126,134.863 17,135.5C 14.2048,134.815 11.3715,134.315 8.5,134C 12.8682,127.843 11.2015,124.01 3.5,122.5C 3.5,122.167 3.5,121.833 3.5,121.5C 5.72596,118.387 8.72596,116.887 12.5,117C 13.3523,118.728 14.3523,118.895 15.5,117.5 Z"/></g>
<g><path style="opacity:1" fill="#e08489" d="M 93.5,132.5 C 93.56,131.957 93.8933,131.624 94.5,131.5C 96.0009,132.752 97.6675,133.752 99.5,134.5C 101.729,133.037 104.063,132.203 106.5,132C 104.612,134.19 102.445,136.023 100,137.5C 97.6721,136.001 95.5054,134.334 93.5,132.5 Z"/></g>
<g><path style="opacity:1" fill="#88a5cd" d="M 3.5,122.5 C 11.2015,124.01 12.8682,127.843 8.5,134C 11.3715,134.315 14.2048,134.815 17,135.5C 18.7126,134.863 18.8793,133.863 17.5,132.5C 20.7751,130.786 23.1084,131.619 24.5,135C 27.8897,135.246 31.223,135.746 34.5,136.5C 35.5063,136.062 35.5063,135.396 34.5,134.5C 32.5,133.833 30.5,133.167 28.5,132.5C 30.2781,132.431 32.1114,132.097 34,131.5C 35.883,132.653 36.7163,134.319 36.5,136.5C 39.0661,136.656 41.5661,136.322 44,135.5C 45.8563,136.202 47.023,137.536 47.5,139.5C 47.4142,140.496 47.7476,141.329 48.5,142C 51.9403,143.6 55.2736,145.433 58.5,147.5C 55.9382,148.641 53.2716,149.474 50.5,150C 50.8333,150.333 51.1667,150.667 51.5,151C 46.5,151.333 41.5,151.667 36.5,152C 35.3045,153.852 33.6379,155.019 31.5,155.5C 30.2003,156.108 28.8669,156.775 27.5,157.5C 24.8853,156.731 22.2186,156.397 19.5,156.5C 12.0675,146.295 6.73415,134.962 3.5,122.5 Z"/></g>
<g><path style="opacity:1" fill="#9fc4e3" d="M 47.5,139.5 C 49.288,139.215 50.9547,139.548 52.5,140.5C 53.5213,142.188 54.8546,143.521 56.5,144.5C 58.0174,144.489 59.1841,143.823 60,142.5C 62.392,145.277 64.892,147.943 67.5,150.5C 65.6412,150.461 64.3079,151.294 63.5,153C 65.7538,154.377 67.9205,155.877 70,157.5C 70.3333,157.167 70.6667,156.833 71,156.5C 73.6901,158.182 76.5234,159.682 79.5,161C 79.1667,161.333 78.8333,161.667 78.5,162C 80.2072,162.195 81.8739,162.195 83.5,162C 77.3599,166.731 70.6932,168.064 63.5,166C 67.1851,165.086 66.8518,164.419 62.5,164C 65.1667,163.333 67.8333,163.333 70.5,164C 69.2941,165.018 69.6274,165.518 71.5,165.5C 72.938,165.281 74.2713,164.781 75.5,164C 73.7148,162.837 71.7148,162.17 69.5,162C 69.8333,161.667 70.1667,161.333 70.5,161C 67.0594,160.984 63.7261,160.817 60.5,160.5C 58.9448,159.367 57.1114,158.701 55,158.5C 52.2187,160.808 49.052,162.475 45.5,163.5C 43.5976,164.511 41.5976,164.678 39.5,164C 36.6286,161.297 33.9619,158.464 31.5,155.5C 33.6379,155.019 35.3045,153.852 36.5,152C 41.5,151.667 46.5,151.333 51.5,151C 51.1667,150.667 50.8333,150.333 50.5,150C 53.2716,149.474 55.9382,148.641 58.5,147.5C 55.2736,145.433 51.9403,143.6 48.5,142C 47.7476,141.329 47.4142,140.496 47.5,139.5 Z"/></g>
<g><path style="opacity:1" fill="#99c7e6" d="M 146.5,138.5 C 147.496,138.586 148.329,138.252 149,137.5C 151.734,138.362 151.901,139.195 149.5,140C 150.833,140.667 150.833,141.333 149.5,142C 148.551,142.617 147.718,142.451 147,141.5C 147.16,144.509 145.993,146.675 143.5,148C 144.833,148.667 144.833,149.333 143.5,150C 148.154,151.578 148.487,153.578 144.5,156C 145.667,156.5 146.5,157.333 147,158.5C 149.825,156.994 151.658,157.827 152.5,161C 151.924,162.714 150.757,163.881 149,164.5C 146.936,163.409 144.769,163.242 142.5,164C 145.993,165.088 146.159,166.255 143,167.5C 141.273,166.626 139.44,166.793 137.5,168C 143.175,168.464 143.508,169.131 138.5,170C 139.571,170.852 140.571,171.685 141.5,172.5C 140.602,173.158 139.602,173.824 138.5,174.5C 138.709,175.086 139.043,175.586 139.5,176C 136.401,177.276 133.734,179.11 131.5,181.5C 130.833,181.5 130.167,181.5 129.5,181.5C 128.527,181.013 127.527,180.513 126.5,180C 128.762,179.299 129.762,178.132 129.5,176.5C 125.553,177.86 121.719,179.527 118,181.5C 117.5,181.333 117,181.167 116.5,181C 117.833,180.333 117.833,179.667 116.5,179C 114.285,177.956 111.952,177.29 109.5,177C 110.5,176.667 111.5,176.333 112.5,176C 110.899,175.727 109.399,175.227 108,174.5C 107.667,175.167 107.333,175.833 107,176.5C 105.601,175.773 104.101,175.273 102.5,175C 103.696,174.346 103.696,173.846 102.5,173.5C 100.452,174.083 98.6187,174.083 97,173.5C 95.3905,172.853 93.8905,172.02 92.5,171C 95.1667,170.333 95.1667,169.667 92.5,169C 94.087,168.138 95.7536,167.471 97.5,167C 102.167,166.667 106.833,166.333 111.5,166C 111.167,165.667 110.833,165.333 110.5,165C 119.028,161.784 127.362,158.117 135.5,154C 135.167,153.667 134.833,153.333 134.5,153C 137.544,152.641 137.878,151.974 135.5,151C 137.927,149.446 137.927,148.279 135.5,147.5C 137.182,144.136 139.682,142.802 143,143.5C 143.305,141.443 143.305,139.443 143,137.5C 144.041,139.311 145.207,139.645 146.5,138.5 Z"/></g>
<g><path style="opacity:1" fill="#90bde0" d="M 166.5,93.5 C 167.478,93.811 168.145,94.4777 168.5,95.5C 167.667,97.1667 166.833,98.8333 166,100.5C 161.102,104.61 156.435,108.944 152,113.5C 151.667,115.833 151.333,118.167 151,120.5C 150.717,117.258 149.883,116.924 148.5,119.5C 152.232,125.872 153.898,132.538 153.5,139.5C 154.552,139.351 155.552,139.517 156.5,140C 154.986,141.439 154.653,142.939 155.5,144.5C 158.23,145.01 160.397,146.344 162,148.5C 163.159,147.434 163.992,147.767 164.5,149.5C 160.415,149.582 157.748,151.582 156.5,155.5C 157.96,158.029 158.46,160.696 158,163.5C 152.486,166.511 146.986,169.511 141.5,172.5C 140.571,171.685 139.571,170.852 138.5,170C 143.508,169.131 143.175,168.464 137.5,168C 139.44,166.793 141.273,166.626 143,167.5C 146.159,166.255 145.993,165.088 142.5,164C 144.769,163.242 146.936,163.409 149,164.5C 150.757,163.881 151.924,162.714 152.5,161C 151.658,157.827 149.825,156.994 147,158.5C 146.5,157.333 145.667,156.5 144.5,156C 148.487,153.578 148.154,151.578 143.5,150C 144.833,149.333 144.833,148.667 143.5,148C 145.993,146.675 147.16,144.509 147,141.5C 147.718,142.451 148.551,142.617 149.5,142C 150.833,141.333 150.833,140.667 149.5,140C 151.901,139.195 151.734,138.362 149,137.5C 148.329,138.252 147.496,138.586 146.5,138.5C 146.457,135.413 146.29,132.413 146,129.5C 147.584,130.861 149.418,131.528 151.5,131.5C 151.649,130.448 151.483,129.448 151,128.5C 148.219,125.264 145.219,122.264 142,119.5C 141.503,116.854 141.336,114.187 141.5,111.5C 152.555,109.152 160.888,103.152 166.5,93.5 Z"/></g>
<g><path style="opacity:1" fill="#ecefeb" d="M 177.5,124.5 C 178.23,125.712 179.23,126.712 180.5,127.5C 178.829,129.51 178.162,131.843 178.5,134.5C 177.448,134.351 176.448,134.517 175.5,135C 178.796,136.224 181.629,138.058 184,140.5C 184.876,138.275 186.043,136.275 187.5,134.5C 189.086,136.173 189.753,138.173 189.5,140.5C 184.597,152.314 177.264,162.314 167.5,170.5C 166.034,169.653 165.2,168.32 165,166.5C 161.306,166.556 157.473,166.723 153.5,167C 153.167,167.333 152.833,167.667 152.5,168C 154.167,168.333 155.833,168.667 157.5,169C 156.258,171.661 154.424,172.161 152,170.5C 150.941,170.63 150.108,171.13 149.5,172C 150.167,173.333 150.833,174.667 151.5,176C 148.431,177.846 145.098,178.846 141.5,179C 143.087,179.862 144.754,180.529 146.5,181C 143.672,181.637 141.672,183.304 140.5,186C 142.058,186.21 143.391,186.71 144.5,187.5C 141.133,189.623 137.466,190.956 133.5,191.5C 129.152,192.754 124.818,192.754 120.5,191.5C 117.15,191.665 113.817,191.498 110.5,191C 113.238,190.017 115.905,188.851 118.5,187.5C 122.313,188.874 121.98,189.707 117.5,190C 122.828,190.068 128.162,189.735 133.5,189C 131.089,187.417 128.422,186.417 125.5,186C 128.98,185.699 132.313,184.865 135.5,183.5C 134.234,182.638 132.901,181.971 131.5,181.5C 133.734,179.11 136.401,177.276 139.5,176C 139.043,175.586 138.709,175.086 138.5,174.5C 139.602,173.824 140.602,173.158 141.5,172.5C 146.986,169.511 152.486,166.511 158,163.5C 158.46,160.696 157.96,158.029 156.5,155.5C 157.748,151.582 160.415,149.582 164.5,149.5C 165.568,150.434 166.901,150.768 168.5,150.5C 168.67,147.324 170.337,145.324 173.5,144.5C 172.372,143.738 171.205,143.071 170,142.5C 169.713,140.109 169.213,137.776 168.5,135.5C 170.525,133.436 172.858,132.102 175.5,131.5C 174.111,128.605 174.777,126.271 177.5,124.5 Z"/></g>
<g><path style="opacity:1" fill="#abd0e9" d="M 135.5,147.5 C 137.927,148.279 137.927,149.446 135.5,151C 137.878,151.974 137.544,152.641 134.5,153C 134.833,153.333 135.167,153.667 135.5,154C 127.362,158.117 119.028,161.784 110.5,165C 110.833,165.333 111.167,165.667 111.5,166C 106.833,166.333 102.167,166.667 97.5,167C 95.7536,167.471 94.087,168.138 92.5,169C 95.1667,169.667 95.1667,170.333 92.5,171C 93.8905,172.02 95.3905,172.853 97,173.5C 98.6187,174.083 100.452,174.083 102.5,173.5C 103.696,173.846 103.696,174.346 102.5,175C 104.101,175.273 105.601,175.773 107,176.5C 107.333,175.833 107.667,175.167 108,174.5C 109.399,175.227 110.899,175.727 112.5,176C 111.5,176.333 110.5,176.667 109.5,177C 111.952,177.29 114.285,177.956 116.5,179C 117.833,179.667 117.833,180.333 116.5,181C 117,181.167 117.5,181.333 118,181.5C 121.719,179.527 125.553,177.86 129.5,176.5C 129.762,178.132 128.762,179.299 126.5,180C 127.527,180.513 128.527,181.013 129.5,181.5C 121.392,185.619 112.726,187.119 103.5,186C 105.5,185.667 107.5,185.333 109.5,185C 106.666,184.955 104.166,184.121 102,182.5C 99.273,183.188 96.6064,183.522 94,183.5C 88.5642,182.521 88.3976,181.688 93.5,181C 90.9429,179.881 88.4429,179.715 86,180.5C 83.8316,178.545 81.4983,177.879 79,178.5C 76.4786,176.167 73.6453,175.834 70.5,177.5C 66.6901,177.012 63.5234,175.345 61,172.5C 60.6667,172.833 60.3333,173.167 60,173.5C 58.3627,172.167 57.5293,170.834 57.5,169.5C 55.7738,171.03 53.7738,172.03 51.5,172.5C 45.5139,171.35 39.6806,170.017 34,168.5C 33.0053,169.066 32.172,169.733 31.5,170.5C 27.0365,166.246 23.0365,161.579 19.5,156.5C 22.2186,156.397 24.8853,156.731 27.5,157.5C 28.8669,156.775 30.2003,156.108 31.5,155.5C 33.9619,158.464 36.6286,161.297 39.5,164C 41.5976,164.678 43.5976,164.511 45.5,163.5C 45.7352,164.097 46.2352,164.43 47,164.5C 50.7002,162.442 54.5335,161.775 58.5,162.5C 59.5223,162.145 60.189,161.478 60.5,160.5C 63.7261,160.817 67.0594,160.984 70.5,161C 70.1667,161.333 69.8333,161.667 69.5,162C 71.7148,162.17 73.7148,162.837 75.5,164C 74.2713,164.781 72.938,165.281 71.5,165.5C 69.6274,165.518 69.2941,165.018 70.5,164C 67.8333,163.333 65.1667,163.333 62.5,164C 66.8518,164.419 67.1851,165.086 63.5,166C 70.6932,168.064 77.3599,166.731 83.5,162C 81.8739,162.195 80.2072,162.195 78.5,162C 78.8333,161.667 79.1667,161.333 79.5,161C 76.5234,159.682 73.6901,158.182 71,156.5C 70.6667,156.833 70.3333,157.167 70,157.5C 67.9205,155.877 65.7538,154.377 63.5,153C 64.3079,151.294 65.6412,150.461 67.5,150.5C 72.9,153.193 78.5666,155.36 84.5,157C 103.022,161.328 120.022,158.161 135.5,147.5 Z"/></g>
<g><path style="opacity:1" fill="#eff3f1" d="M 60.5,160.5 C 60.189,161.478 59.5223,162.145 58.5,162.5C 54.5335,161.775 50.7002,162.442 47,164.5C 46.2352,164.43 45.7352,164.097 45.5,163.5C 49.052,162.475 52.2187,160.808 55,158.5C 57.1114,158.701 58.9448,159.367 60.5,160.5 Z"/></g>
<g><path style="opacity:1" fill="#c0ddf2" d="M 167.5,170.5 C 160.762,177.375 153.095,183.041 144.5,187.5C 143.391,186.71 142.058,186.21 140.5,186C 141.672,183.304 143.672,181.637 146.5,181C 144.754,180.529 143.087,179.862 141.5,179C 145.098,178.846 148.431,177.846 151.5,176C 150.833,174.667 150.167,173.333 149.5,172C 150.108,171.13 150.941,170.63 152,170.5C 154.424,172.161 156.258,171.661 157.5,169C 155.833,168.667 154.167,168.333 152.5,168C 152.833,167.667 153.167,167.333 153.5,167C 157.473,166.723 161.306,166.556 165,166.5C 165.2,168.32 166.034,169.653 167.5,170.5 Z"/></g>
<g><path style="opacity:1" fill="#bcd9ed" d="M 129.5,181.5 C 130.167,181.5 130.833,181.5 131.5,181.5C 132.901,181.971 134.234,182.638 135.5,183.5C 132.313,184.865 128.98,185.699 125.5,186C 128.422,186.417 131.089,187.417 133.5,189C 128.162,189.735 122.828,190.068 117.5,190C 121.98,189.707 122.313,188.874 118.5,187.5C 115.905,188.851 113.238,190.017 110.5,191C 113.817,191.498 117.15,191.665 120.5,191.5C 114.74,192.333 108.906,193.333 103,194.5C 102.729,192.193 103.895,191.026 106.5,191C 99.9359,191.446 93.4359,191.613 87,191.5C 86.51,190.207 86.3433,188.873 86.5,187.5C 84.712,187.785 83.0453,187.452 81.5,186.5C 82.0253,185.808 82.6919,185.308 83.5,185C 80.5,184.333 77.5,184.333 74.5,185C 76.8912,186.309 76.8912,187.309 74.5,188C 69.1771,188.499 63.8437,188.666 58.5,188.5C 47.9768,184.742 38.9768,178.742 31.5,170.5C 32.172,169.733 33.0053,169.066 34,168.5C 39.6806,170.017 45.5139,171.35 51.5,172.5C 53.7738,172.03 55.7738,171.03 57.5,169.5C 57.5293,170.834 58.3627,172.167 60,173.5C 60.3333,173.167 60.6667,172.833 61,172.5C 63.5234,175.345 66.6901,177.012 70.5,177.5C 73.6453,175.834 76.4786,176.167 79,178.5C 81.4983,177.879 83.8316,178.545 86,180.5C 88.4429,179.715 90.9429,179.881 93.5,181C 88.3976,181.688 88.5642,182.521 94,183.5C 96.6064,183.522 99.273,183.188 102,182.5C 104.166,184.121 106.666,184.955 109.5,185C 107.5,185.333 105.5,185.667 103.5,186C 112.726,187.119 121.392,185.619 129.5,181.5 Z"/></g>
<g><path style="opacity:1" fill="#e5ebec" d="M 60.5,177.5 C 65.6469,182.152 71.4802,183.152 78,180.5C 80.0208,180.673 81.8541,181.34 83.5,182.5C 76.0766,183.345 68.7433,184.678 61.5,186.5C 60.1667,186.167 58.8333,185.833 57.5,185.5C 63.5102,184.183 63.8435,182.183 58.5,179.5C 59.2427,178.818 59.9094,178.151 60.5,177.5 Z"/></g>
<g><path style="opacity:1" fill="#a7cbee" d="M 120.5,191.5 C 124.818,192.754 129.152,192.754 133.5,191.5C 129.452,193.462 125.119,194.962 120.5,196C 113.679,196.932 106.845,197.765 100,198.5C 85.228,198.514 71.3947,195.181 58.5,188.5C 63.8437,188.666 69.1771,188.499 74.5,188C 76.8912,187.309 76.8912,186.309 74.5,185C 77.5,184.333 80.5,184.333 83.5,185C 82.6919,185.308 82.0253,185.808 81.5,186.5C 83.0453,187.452 84.712,187.785 86.5,187.5C 86.3433,188.873 86.51,190.207 87,191.5C 93.4359,191.613 99.9359,191.446 106.5,191C 103.895,191.026 102.729,192.193 103,194.5C 108.906,193.333 114.74,192.333 120.5,191.5 Z"/></g>
</svg>
