<?xml version="1.0" encoding="UTF-8"?>
<!DOCTYPE svg PUBLIC "-//W3C//DTD SVG 1.1//EN" "http://www.w3.org/Graphics/SVG/1.1/DTD/svg11.dtd">
<svg xmlns="http://www.w3.org/2000/svg" version="1.1" width="200px" height="200px" style="shape-rendering:geometricPrecision; text-rendering:geometricPrecision; image-rendering:optimizeQuality; fill-rule:evenodd; clip-rule:evenodd" xmlns:xlink="http://www.w3.org/1999/xlink">
<g><path style="opacity:1" fill="#fada6a" d="M 85.5,-0.5 C 87.8333,-0.5 90.1667,-0.5 92.5,-0.5C 94.6137,1.01888 96.2803,3.01888 97.5,5.5C 99.1227,4.50921 100.123,5.17588 100.5,7.5C 99.4937,8.39567 99.4937,9.06233 100.5,9.5C 101.624,4.27916 102.458,4.27916 103,9.5C 103.667,10.8333 104.333,10.8333 105,9.5C 105.684,10.7839 105.517,11.9505 104.5,13C 105.025,13.6924 105.692,14.1924 106.5,14.5C 107.879,11.837 109.379,12.5037 111,16.5C 111.914,15.3463 112.747,15.513 113.5,17C 112.366,18.016 112.699,18.6827 114.5,19C 113.833,19.3333 113.167,19.6667 112.5,20C 116.172,21.4255 119.838,23.2589 123.5,25.5C 113.833,25.5 104.167,25.5 94.5,25.5C 91.7719,24.7948 88.9386,24.1281 86,23.5C 84.8831,23.6651 83.7164,23.9984 82.5,24.5C 81.7189,23.2713 81.2189,21.938 81,20.5C 80.6667,21.1667 80.3333,21.8333 80,22.5C 79.8047,20.7928 79.8047,19.1261 80,17.5C 79.3333,18.8333 78.6667,18.8333 78,17.5C 77.6667,18.1667 77.3333,18.8333 77,19.5C 77.0354,15.7548 76.0354,15.0881 74,17.5C 74.9791,15.7215 74.6458,14.0548 73,12.5C 71.1316,13.6719 69.2983,13.5053 67.5,12C 67.9574,11.586 68.2907,11.086 68.5,10.5C 67.0071,8.32951 65.0071,6.99618 62.5,6.5C 69.9483,3.38883 77.615,1.0555 85.5,-0.5 Z"/></g>
<g><path style="opacity:1" fill="#fae06b" d="M 92.5,-0.5 C 99.5,-0.5 106.5,-0.5 113.5,-0.5C 113.5,-0.166667 113.5,0.166667 113.5,0.5C 112.683,2.30771 113.35,3.80771 115.5,5C 117.701,5.8249 119.534,5.3249 121,3.5C 124.41,4.87413 124.243,5.5408 120.5,5.5C 120.329,8.79731 120.995,9.13065 122.5,6.5C 122.826,8.65436 123.992,9.9877 126,10.5C 126.658,8.89201 126.158,7.72535 124.5,7C 125.705,5.72949 127.038,5.06283 128.5,5C 127.534,7.40058 127.534,10.0672 128.5,13C 126.122,13.9745 126.456,14.6411 129.5,15C 125.777,15.4342 125.61,16.2676 129,17.5C 130.735,16.3181 131.735,14.6515 132,12.5C 132.273,14.1012 132.773,15.6012 133.5,17C 129.611,19.1295 129.945,20.1295 134.5,20C 136.452,17.9261 138.285,15.7594 140,13.5C 140.75,14.1258 141.584,14.6258 142.5,15C 141.692,15.3076 141.025,15.8076 140.5,16.5C 142.119,18.9876 141.452,20.9876 138.5,22.5C 139.868,23.5937 141.035,23.2603 142,21.5C 143.44,23.0456 145.273,23.879 147.5,24C 144.655,25.2364 141.655,26.9031 138.5,29C 140.828,31.0643 142.661,32.8977 144,34.5C 144.5,34.3333 145,34.1667 145.5,34C 144.5,32.3333 143.167,31 141.5,30C 142.449,29.3828 143.282,29.5494 144,30.5C 144.667,29.1667 145.333,27.8333 146,26.5C 146.923,27.7588 147.757,29.0921 148.5,30.5C 148.307,29.3118 148.807,27.9785 150,26.5C 150.569,30.3605 151.402,30.3605 152.5,26.5C 152.833,26.6667 153.167,26.8333 153.5,27C 153.165,28.8671 152.665,31.0337 152,33.5C 151.275,31.842 150.108,31.342 148.5,32C 150,32.8333 151.167,34 152,35.5C 152.837,33.9926 154.004,33.4926 155.5,34C 155.295,35.6763 156.128,37.1763 158,38.5C 158.561,37.9781 159.228,37.6448 160,37.5C 161.565,38.9525 162.898,40.6191 164,42.5C 165.609,41.8499 167.109,42.3499 168.5,44C 167.552,44.4828 166.552,44.6495 165.5,44.5C 165.329,47.7973 165.995,48.1306 167.5,45.5C 168.598,47.6317 169.598,49.7984 170.5,52C 169.692,52.3076 169.025,52.8076 168.5,53.5C 169.167,53.8333 169.833,54.1667 170.5,54.5C 169.263,55.2807 168.263,56.2807 167.5,57.5C 168.365,58.5827 169.365,58.7494 170.5,58C 170.167,57.6667 169.833,57.3333 169.5,57C 170.5,56.3333 171.5,56.3333 172.5,57C 171.483,58.0495 171.316,59.2161 172,60.5C 172.772,59.1509 173.939,58.3176 175.5,58C 173.362,56.5784 172.195,54.745 172,52.5C 173.851,55.0643 175.684,55.0643 177.5,52.5C 180.461,53.1831 180.795,54.0164 178.5,55C 179.784,55.6838 180.951,55.5171 182,54.5C 182.167,54.8333 182.333,55.1667 182.5,55.5C 181.271,56.2811 179.938,56.7811 178.5,57C 183.529,57.8049 183.696,59.3049 179,61.5C 178.346,60.3044 177.846,60.3044 177.5,61.5C 180.953,62.4786 181.286,63.9786 178.5,66C 180.604,69.4478 181.937,69.1145 182.5,65C 184.657,64.9219 186.657,64.7552 188.5,64.5C 191.407,67.8554 191.074,69.8554 187.5,70.5C 190.647,71.1849 193.647,72.1849 196.5,73.5C 197.51,77.6145 198.51,81.6145 199.5,85.5C 199.5,91.1667 199.5,96.8333 199.5,102.5C 198.732,101.737 198.232,100.737 198,99.5C 197.667,100.167 197.333,100.833 197,101.5C 194.963,98.9648 193.13,96.2981 191.5,93.5C 190.5,92.1667 189.5,92.1667 188.5,93.5C 187.3,92.4688 185.966,91.6355 184.5,91C 184.527,89.4743 185.027,87.9743 186,86.5C 185.667,86.8333 185.333,87.1667 185,87.5C 181.868,85.9707 179.535,83.6374 178,80.5C 177.667,80.8333 177.333,81.1667 177,81.5C 175.786,79.9512 174.286,78.7845 172.5,78C 172.957,77.586 173.291,77.086 173.5,76.5C 172.685,74.7241 171.518,74.0574 170,74.5C 169.383,73.5509 169.549,72.7175 170.5,72C 169.207,71.51 167.873,71.3433 166.5,71.5C 166.649,70.448 166.483,69.448 166,68.5C 165.667,68.8333 165.333,69.1667 165,69.5C 164.348,67.2769 162.848,66.1102 160.5,66C 161.833,64.1598 161.666,63.6598 160,64.5C 157.564,60.6842 154.564,57.3509 151,54.5C 149.915,56.6574 148.749,56.8241 147.5,55C 148.167,54.3333 148.833,53.6667 149.5,53C 146.626,52.0575 143.96,50.8908 141.5,49.5C 143.527,49.6621 145.527,49.4955 147.5,49C 139.632,40.9642 131.632,33.1309 123.5,25.5C 119.838,23.2589 116.172,21.4255 112.5,20C 113.167,19.6667 113.833,19.3333 114.5,19C 112.699,18.6827 112.366,18.016 113.5,17C 112.747,15.513 111.914,15.3463 111,16.5C 109.379,12.5037 107.879,11.837 106.5,14.5C 105.692,14.1924 105.025,13.6924 104.5,13C 105.517,11.9505 105.684,10.7839 105,9.5C 104.333,10.8333 103.667,10.8333 103,9.5C 102.458,4.27916 101.624,4.27916 100.5,9.5C 99.4937,9.06233 99.4937,8.39567 100.5,7.5C 100.123,5.17588 99.1227,4.50921 97.5,5.5C 96.2803,3.01888 94.6137,1.01888 92.5,-0.5 Z"/></g>
<g><path style="opacity:1" fill="#fae16e" d="M 113.5,0.5 C 124.941,1.64865 135.608,4.98198 145.5,10.5C 146.451,12.6195 147.951,14.2862 150,15.5C 150.333,15.1667 150.667,14.8333 151,14.5C 151.492,15.549 151.326,16.549 150.5,17.5C 151.035,19.2705 151.869,19.6039 153,18.5C 154.419,19.4601 155.919,20.2935 157.5,21C 157.043,21.414 156.709,21.914 156.5,22.5C 157.518,23.8524 158.851,24.8524 160.5,25.5C 160.291,26.086 159.957,26.586 159.5,27C 160.849,27.7724 161.682,28.9391 162,30.5C 163.716,31.5523 164.716,30.8856 165,28.5C 165.483,29.448 165.649,30.448 165.5,31.5C 166.552,31.3505 167.552,31.5172 168.5,32C 168.167,32.3333 167.833,32.6667 167.5,33C 169.226,34.5298 171.226,35.5298 173.5,36C 171.122,36.9745 171.456,37.6411 174.5,38C 173.044,38.4226 172.544,39.2559 173,40.5C 174.016,39.3659 174.683,39.6992 175,41.5C 175.333,40.8333 175.667,40.1667 176,39.5C 176.333,40.8333 176.667,42.1667 177,43.5C 177.333,42.8333 177.667,42.1667 178,41.5C 180.748,44.0809 182.914,47.0809 184.5,50.5C 185.298,50.0431 185.631,49.3764 185.5,48.5C 190.501,56.1405 194.167,64.4738 196.5,73.5C 193.647,72.1849 190.647,71.1849 187.5,70.5C 191.074,69.8554 191.407,67.8554 188.5,64.5C 186.657,64.7552 184.657,64.9219 182.5,65C 181.937,69.1145 180.604,69.4478 178.5,66C 181.286,63.9786 180.953,62.4786 177.5,61.5C 177.846,60.3044 178.346,60.3044 179,61.5C 183.696,59.3049 183.529,57.8049 178.5,57C 179.938,56.7811 181.271,56.2811 182.5,55.5C 182.333,55.1667 182.167,54.8333 182,54.5C 180.951,55.5171 179.784,55.6838 178.5,55C 180.795,54.0164 180.461,53.1831 177.5,52.5C 175.684,55.0643 173.851,55.0643 172,52.5C 172.195,54.745 173.362,56.5784 175.5,58C 173.939,58.3176 172.772,59.1509 172,60.5C 171.316,59.2161 171.483,58.0495 172.5,57C 171.5,56.3333 170.5,56.3333 169.5,57C 169.833,57.3333 170.167,57.6667 170.5,58C 169.365,58.7494 168.365,58.5827 167.5,57.5C 168.263,56.2807 169.263,55.2807 170.5,54.5C 169.833,54.1667 169.167,53.8333 168.5,53.5C 169.025,52.8076 169.692,52.3076 170.5,52C 169.598,49.7984 168.598,47.6317 167.5,45.5C 165.995,48.1306 165.329,47.7973 165.5,44.5C 166.552,44.6495 167.552,44.4828 168.5,44C 167.109,42.3499 165.609,41.8499 164,42.5C 162.898,40.6191 161.565,38.9525 160,37.5C 159.228,37.6448 158.561,37.9781 158,38.5C 156.128,37.1763 155.295,35.6763 155.5,34C 154.004,33.4926 152.837,33.9926 152,35.5C 151.167,34 150,32.8333 148.5,32C 150.108,31.342 151.275,31.842 152,33.5C 152.665,31.0337 153.165,28.8671 153.5,27C 153.167,26.8333 152.833,26.6667 152.5,26.5C 151.402,30.3605 150.569,30.3605 150,26.5C 148.807,27.9785 148.307,29.3118 148.5,30.5C 147.757,29.0921 146.923,27.7588 146,26.5C 145.333,27.8333 144.667,29.1667 144,30.5C 143.282,29.5494 142.449,29.3828 141.5,30C 143.167,31 144.5,32.3333 145.5,34C 145,34.1667 144.5,34.3333 144,34.5C 142.661,32.8977 140.828,31.0643 138.5,29C 141.655,26.9031 144.655,25.2364 147.5,24C 145.273,23.879 143.44,23.0456 142,21.5C 141.035,23.2603 139.868,23.5937 138.5,22.5C 141.452,20.9876 142.119,18.9876 140.5,16.5C 141.025,15.8076 141.692,15.3076 142.5,15C 141.584,14.6258 140.75,14.1258 140,13.5C 138.285,15.7594 136.452,17.9261 134.5,20C 129.945,20.1295 129.611,19.1295 133.5,17C 132.773,15.6012 132.273,14.1012 132,12.5C 131.735,14.6515 130.735,16.3181 129,17.5C 125.61,16.2676 125.777,15.4342 129.5,15C 126.456,14.6411 126.122,13.9745 128.5,13C 127.534,10.0672 127.534,7.40058 128.5,5C 127.038,5.06283 125.705,5.72949 124.5,7C 126.158,7.72535 126.658,8.89201 126,10.5C 123.992,9.9877 122.826,8.65436 122.5,6.5C 120.995,9.13065 120.329,8.79731 120.5,5.5C 124.243,5.5408 124.41,4.87413 121,3.5C 119.534,5.3249 117.701,5.8249 115.5,5C 113.35,3.80771 112.683,2.30771 113.5,0.5 Z"/></g>
<g><path style="opacity:1" fill="#fad46a" d="M 62.5,6.5 C 65.0071,6.99618 67.0071,8.32951 68.5,10.5C 68.2907,11.086 67.9574,11.586 67.5,12C 69.2983,13.5053 71.1316,13.6719 73,12.5C 74.6458,14.0548 74.9791,15.7215 74,17.5C 76.0354,15.0881 77.0354,15.7548 77,19.5C 77.3333,18.8333 77.6667,18.1667 78,17.5C 78.6667,18.8333 79.3333,18.8333 80,17.5C 79.8047,19.1261 79.8047,20.7928 80,22.5C 80.3333,21.8333 80.6667,21.1667 81,20.5C 81.2189,21.938 81.7189,23.2713 82.5,24.5C 83.7164,23.9984 84.8831,23.6651 86,23.5C 88.9386,24.1281 91.7719,24.7948 94.5,25.5C 87.825,25.3337 81.1583,25.5004 74.5,26C 70.2978,30.3702 65.9645,34.5368 61.5,38.5C 60.0864,36.8615 60.4197,35.5282 62.5,34.5C 61.624,33.7492 60.624,33.2492 59.5,33C 59.8333,32.6667 60.1667,32.3333 60.5,32C 57.1071,31.6065 54.9404,29.7732 54,26.5C 53.3333,27.1667 52.6667,27.8333 52,28.5C 51.1853,26.3772 50.1853,24.3772 49,22.5C 48.6667,23.1667 48.3333,23.8333 48,24.5C 47.1667,22.3333 45.6667,20.8333 43.5,20C 44.3081,19.6924 44.9747,19.1924 45.5,18.5C 45.1543,17.3044 44.6543,17.3044 44,18.5C 43.5357,17.9056 43.369,17.2389 43.5,16.5C 49.0665,11.8815 55.3998,8.54821 62.5,6.5 Z"/></g>
<g><path style="opacity:1" fill="#face6a" d="M 43.5,16.5 C 43.369,17.2389 43.5357,17.9056 44,18.5C 44.6543,17.3044 45.1543,17.3044 45.5,18.5C 44.9747,19.1924 44.3081,19.6924 43.5,20C 45.6667,20.8333 47.1667,22.3333 48,24.5C 48.3333,23.8333 48.6667,23.1667 49,22.5C 50.1853,24.3772 51.1853,26.3772 52,28.5C 52.6667,27.8333 53.3333,27.1667 54,26.5C 54.9404,29.7732 57.1071,31.6065 60.5,32C 60.1667,32.3333 59.8333,32.6667 59.5,33C 60.624,33.2492 61.624,33.7492 62.5,34.5C 60.4197,35.5282 60.0864,36.8615 61.5,38.5C 58.3707,42.1309 55.0374,45.6309 51.5,49C 59.4931,49.4997 67.4931,49.6664 75.5,49.5C 75.3505,50.552 75.5172,51.552 76,52.5C 77.1131,51.2889 78.2798,51.2889 79.5,52.5C 80.517,54.8371 82.1837,56.5037 84.5,57.5C 84.1667,58.1667 83.8333,58.8333 83.5,59.5C 87.7692,59.5615 90.6026,61.8948 92,66.5C 92.414,66.0426 92.914,65.7093 93.5,65.5C 95.9823,66.0671 98.3157,66.7337 100.5,67.5C 89.495,67.3335 78.495,67.5002 67.5,68C 66.2949,69.3756 64.9616,70.5423 63.5,71.5C 63.4207,70.0416 62.9207,68.7083 62,67.5C 60.2835,68.5523 59.2835,67.8856 59,65.5C 58.6667,66.1667 58.3333,66.8333 58,67.5C 57.6667,66.1667 57.3333,64.8333 57,63.5C 56.6667,63.8333 56.3333,64.1667 56,64.5C 50.7643,59.6548 45.7643,54.6548 41,49.5C 40.0862,50.6537 39.2529,50.487 38.5,49C 39.624,48.7508 40.624,48.2508 41.5,47.5C 41.3333,47.1667 41.1667,46.8333 41,46.5C 39.9505,47.5171 38.7839,47.6838 37.5,47C 38.8627,44.8707 38.5294,44.3707 36.5,45.5C 36.7036,44.4706 36.2036,43.4706 35,42.5C 34.586,42.9574 34.086,43.2907 33.5,43.5C 32.5,41.8333 31.1667,40.5 29.5,39.5C 30.3256,38.549 30.4922,37.549 30,36.5C 26.6415,40.3076 26.1415,39.9742 28.5,35.5C 27.1645,35.6545 25.8311,34.9879 24.5,33.5C 26.2433,30.2496 28.5766,27.4162 31.5,25C 35.1018,21.5587 39.1018,18.7253 43.5,16.5 Z"/></g>
<g><path style="opacity:1" fill="#fae66e" d="M 145.5,10.5 C 163.057,18.7238 176.39,31.3904 185.5,48.5C 185.631,49.3764 185.298,50.0431 184.5,50.5C 182.914,47.0809 180.748,44.0809 178,41.5C 177.667,42.1667 177.333,42.8333 177,43.5C 176.667,42.1667 176.333,40.8333 176,39.5C 175.667,40.1667 175.333,40.8333 175,41.5C 174.683,39.6992 174.016,39.3659 173,40.5C 172.544,39.2559 173.044,38.4226 174.5,38C 171.456,37.6411 171.122,36.9745 173.5,36C 171.226,35.5298 169.226,34.5298 167.5,33C 167.833,32.6667 168.167,32.3333 168.5,32C 167.552,31.5172 166.552,31.3505 165.5,31.5C 165.649,30.448 165.483,29.448 165,28.5C 164.716,30.8856 163.716,31.5523 162,30.5C 161.682,28.9391 160.849,27.7724 159.5,27C 159.957,26.586 160.291,26.086 160.5,25.5C 158.851,24.8524 157.518,23.8524 156.5,22.5C 156.709,21.914 157.043,21.414 157.5,21C 155.919,20.2935 154.419,19.4601 153,18.5C 151.869,19.6039 151.035,19.2705 150.5,17.5C 151.326,16.549 151.492,15.549 151,14.5C 150.667,14.8333 150.333,15.1667 150,15.5C 147.951,14.2862 146.451,12.6195 145.5,10.5 Z"/></g>
<g><path style="opacity:1" fill="#fac86a" d="M 24.5,33.5 C 25.8311,34.9879 27.1645,35.6545 28.5,35.5C 26.1415,39.9742 26.6415,40.3076 30,36.5C 30.4922,37.549 30.3256,38.549 29.5,39.5C 31.1667,40.5 32.5,41.8333 33.5,43.5C 34.086,43.2907 34.586,42.9574 35,42.5C 36.2036,43.4706 36.7036,44.4706 36.5,45.5C 38.5294,44.3707 38.8627,44.8707 37.5,47C 38.7839,47.6838 39.9505,47.5171 41,46.5C 41.1667,46.8333 41.3333,47.1667 41.5,47.5C 40.624,48.2508 39.624,48.7508 38.5,49C 39.2529,50.487 40.0862,50.6537 41,49.5C 45.7643,54.6548 50.7643,59.6548 56,64.5C 56.3333,64.1667 56.6667,63.8333 57,63.5C 57.3333,64.8333 57.6667,66.1667 58,67.5C 58.3333,66.8333 58.6667,66.1667 59,65.5C 59.2835,67.8856 60.2835,68.5523 62,67.5C 62.9207,68.7083 63.4207,70.0416 63.5,71.5C 56.1667,79.5 48.5,87.1667 40.5,94.5C 40.8588,92.629 41.8588,91.129 43.5,90C 42.376,89.7508 41.376,89.2508 40.5,88.5C 41.4347,85.9405 40.6013,85.2738 38,86.5C 37.6667,84.8333 37.3333,83.1667 37,81.5C 35.5709,79.5184 33.2376,77.8517 30,76.5C 29.5172,75.552 29.3505,74.552 29.5,73.5C 27.8762,73.6399 26.7096,72.9733 26,71.5C 25.5488,73.9288 24.7155,74.0955 23.5,72C 24.731,70.8173 24.731,69.6507 23.5,68.5C 22.2322,69.4279 20.8989,69.5946 19.5,69C 21.8776,68.0255 21.5443,67.3589 18.5,67C 21.1667,66.3333 21.1667,65.6667 18.5,65C 18.8333,64.6667 19.1667,64.3333 19.5,64C 17.3921,63.6401 15.3921,62.9734 13.5,62C 13.8333,61.6667 14.1667,61.3333 14.5,61C 11.3482,60.5363 9.68153,58.703 9.5,55.5C 13.0196,47.118 18.0196,39.7846 24.5,33.5 Z"/></g>
<g><path style="opacity:1" fill="#fad46a" d="M 75.5,49.5 C 87.1667,49.5 98.8333,49.5 110.5,49.5C 110.918,50.2216 111.584,50.7216 112.5,51C 112.167,51.3333 111.833,51.6667 111.5,52C 112.448,52.4828 113.448,52.6495 114.5,52.5C 114.259,55.999 115.092,56.3323 117,53.5C 117.617,54.4491 117.451,55.2825 116.5,56C 118.436,56.813 120.436,57.313 122.5,57.5C 122.163,61.9943 124.163,64.8276 128.5,66C 126.618,66.1981 124.952,66.6981 123.5,67.5C 115.833,67.5 108.167,67.5 100.5,67.5C 98.3157,66.7337 95.9823,66.0671 93.5,65.5C 92.914,65.7093 92.414,66.0426 92,66.5C 90.6026,61.8948 87.7692,59.5615 83.5,59.5C 83.8333,58.8333 84.1667,58.1667 84.5,57.5C 82.1837,56.5037 80.517,54.8371 79.5,52.5C 78.2798,51.2889 77.1131,51.2889 76,52.5C 75.5172,51.552 75.3505,50.552 75.5,49.5 Z"/></g>
<g><path style="opacity:1" fill="#fad96a" d="M 110.5,49.5 C 120.833,49.5 131.167,49.5 141.5,49.5C 143.96,50.8908 146.626,52.0575 149.5,53C 148.833,53.6667 148.167,54.3333 147.5,55C 148.749,56.8241 149.915,56.6574 151,54.5C 154.564,57.3509 157.564,60.6842 160,64.5C 161.666,63.6598 161.833,64.1598 160.5,66C 162.848,66.1102 164.348,67.2769 165,69.5C 165.333,69.1667 165.667,68.8333 166,68.5C 166.483,69.448 166.649,70.448 166.5,71.5C 167.873,71.3433 169.207,71.51 170.5,72C 169.549,72.7175 169.383,73.5509 170,74.5C 171.518,74.0574 172.685,74.7241 173.5,76.5C 173.291,77.086 172.957,77.586 172.5,78C 174.286,78.7845 175.786,79.9512 177,81.5C 177.333,81.1667 177.667,80.8333 178,80.5C 179.535,83.6374 181.868,85.9707 185,87.5C 185.333,87.1667 185.667,86.8333 186,86.5C 185.027,87.9743 184.527,89.4743 184.5,91C 185.966,91.6355 187.3,92.4688 188.5,93.5C 189.5,92.1667 190.5,92.1667 191.5,93.5C 193.13,96.2981 194.963,98.9648 197,101.5C 197.333,100.833 197.667,100.167 198,99.5C 198.232,100.737 198.732,101.737 199.5,102.5C 199.5,106.167 199.5,109.833 199.5,113.5C 198.784,115.556 198.117,117.723 197.5,120C 193.179,120.499 188.846,120.666 184.5,120.5C 182.5,116.5 179.5,113.5 175.5,111.5C 160.701,97.2019 146.035,82.7019 131.5,68C 128.854,67.5026 126.187,67.3359 123.5,67.5C 124.952,66.6981 126.618,66.1981 128.5,66C 124.163,64.8276 122.163,61.9943 122.5,57.5C 120.436,57.313 118.436,56.813 116.5,56C 117.451,55.2825 117.617,54.4491 117,53.5C 115.092,56.3323 114.259,55.999 114.5,52.5C 113.448,52.6495 112.448,52.4828 111.5,52C 111.833,51.6667 112.167,51.3333 112.5,51C 111.584,50.7216 110.918,50.2216 110.5,49.5 Z"/></g>
<g><path style="opacity:1" fill="#fac169" d="M 9.5,55.5 C 9.68153,58.703 11.3482,60.5363 14.5,61C 14.1667,61.3333 13.8333,61.6667 13.5,62C 15.3921,62.9734 17.3921,63.6401 19.5,64C 19.1667,64.3333 18.8333,64.6667 18.5,65C 21.1667,65.6667 21.1667,66.3333 18.5,67C 21.5443,67.3589 21.8776,68.0255 19.5,69C 20.8989,69.5946 22.2322,69.4279 23.5,68.5C 24.731,69.6507 24.731,70.8173 23.5,72C 24.7155,74.0955 25.5488,73.9288 26,71.5C 26.7096,72.9733 27.8762,73.6399 29.5,73.5C 29.3505,74.552 29.5172,75.552 30,76.5C 33.2376,77.8517 35.5709,79.5184 37,81.5C 37.3333,83.1667 37.6667,84.8333 38,86.5C 40.6013,85.2738 41.4347,85.9405 40.5,88.5C 41.376,89.2508 42.376,89.7508 43.5,90C 41.8588,91.129 40.8588,92.629 40.5,94.5C 37.1667,98.5 33.5,102.167 29.5,105.5C 27.9826,105.511 26.8159,106.177 26,107.5C 23.4438,106.781 22.2771,105.114 22.5,102.5C 21.5,102.5 20.5,102.5 19.5,102.5C 19.6567,101.127 19.49,99.7932 19,98.5C 14.9201,98.4266 12.5868,96.0932 12,91.5C 10.927,92.2797 9.76035,92.113 8.5,91C 8.95735,90.586 9.29069,90.086 9.5,89.5C 5.82345,87.4843 2.82345,84.8176 0.5,81.5C 2.33303,72.3308 5.33303,63.6641 9.5,55.5 Z"/></g>
<g><path style="opacity:1" fill="#faba69" d="M 0.5,81.5 C 2.82345,84.8176 5.82345,87.4843 9.5,89.5C 9.29069,90.086 8.95735,90.586 8.5,91C 9.76035,92.113 10.927,92.2797 12,91.5C 12.5868,96.0932 14.9201,98.4266 19,98.5C 19.49,99.7932 19.6567,101.127 19.5,102.5C 20.5,102.5 21.5,102.5 22.5,102.5C 22.2771,105.114 23.4438,106.781 26,107.5C 26.8159,106.177 27.9826,105.511 29.5,105.5C 25.0366,110.465 20.3699,115.298 15.5,120C 10.8333,120.667 6.16667,120.667 1.5,120C 0.882779,117.723 0.216112,115.556 -0.5,113.5C -0.5,104.167 -0.5,94.8333 -0.5,85.5C 0.434475,84.4324 0.767809,83.099 0.5,81.5 Z"/></g>
<g><path style="opacity:1" fill="#f9d469" d="M 175.5,111.5 C 179.5,113.5 182.5,116.5 184.5,120.5C 181.167,117.833 178.167,114.833 175.5,111.5 Z"/></g>
<g><path style="opacity:1" fill="#faba69" d="M 36.5,119.5 C 38.7445,120.591 40.5779,122.258 42,124.5C 42.3333,124.167 42.6667,123.833 43,123.5C 44.3189,125.487 46.1523,126.654 48.5,127C 48.0426,127.414 47.7093,127.914 47.5,128.5C 49.6239,129.458 51.6239,130.625 53.5,132C 53.1667,132.333 52.8333,132.667 52.5,133C 55.3549,134.858 57.5216,137.358 59,140.5C 59.9147,139.672 60.5814,138.672 61,137.5C 61.3981,140.232 62.8981,142.065 65.5,143C 64.1667,143.667 64.1667,144.333 65.5,145C 67.5454,145.49 69.5454,145.323 71.5,144.5C 65.5,151.167 59.1667,157.5 52.5,163.5C 50.4727,163.662 48.4727,163.495 46.5,163C 47.6721,162.581 48.6721,161.915 49.5,161C 47.5,160.333 45.5,159.667 43.5,159C 44.1667,158.667 44.8333,158.333 45.5,158C 42.0026,156.589 39.3359,154.256 37.5,151C 37.8333,150.667 38.1667,150.333 38.5,150C 36.3493,148.226 34.016,146.726 31.5,145.5C 30.6143,144.675 30.281,143.675 30.5,142.5C 27.8858,142.723 26.2191,141.556 25.5,139C 21.8169,138.403 19.6502,136.236 19,132.5C 18.6667,132.833 18.3333,133.167 18,133.5C 18.1484,132.175 17.9817,131.008 17.5,130C 15.6133,130.423 13.6133,130.256 11.5,129.5C 14.2956,126.203 17.2956,123.036 20.5,120C 25.8229,119.501 31.1563,119.334 36.5,119.5 Z"/></g>
<g><path style="opacity:1" fill="#fac16a" d="M 36.5,119.5 C 51.5,119.5 66.5,119.5 81.5,119.5C 79.9581,120.163 78.2914,120.83 76.5,121.5C 77,122.5 77.5,123.5 78,124.5C 78.3333,124.167 78.6667,123.833 79,123.5C 79.4828,124.448 79.6495,125.448 79.5,126.5C 80.5,126.5 81.5,126.5 82.5,126.5C 82.3118,128.103 82.8118,129.437 84,130.5C 85.0495,129.483 86.2161,129.316 87.5,130C 86.3279,130.419 85.3279,131.085 84.5,132C 86.3333,133.167 88.1667,134.333 90,135.5C 91.308,134.849 92.1414,135.515 92.5,137.5C 87.8215,137.334 83.1548,137.501 78.5,138C 76.2968,140.372 73.9635,142.539 71.5,144.5C 69.5454,145.323 67.5454,145.49 65.5,145C 64.1667,144.333 64.1667,143.667 65.5,143C 62.8981,142.065 61.3981,140.232 61,137.5C 60.5814,138.672 59.9147,139.672 59,140.5C 57.5216,137.358 55.3549,134.858 52.5,133C 52.8333,132.667 53.1667,132.333 53.5,132C 51.6239,130.625 49.6239,129.458 47.5,128.5C 47.7093,127.914 48.0426,127.414 48.5,127C 46.1523,126.654 44.3189,125.487 43,123.5C 42.6667,123.833 42.3333,124.167 42,124.5C 40.5779,122.258 38.7445,120.591 36.5,119.5 Z"/></g>
<g><path style="opacity:1" fill="#fac86a" d="M 81.5,119.5 C 90.5,119.5 99.5,119.5 108.5,119.5C 110.969,120.317 113.635,120.817 116.5,121C 115.167,122.84 115.334,123.34 117,122.5C 117.915,123.328 118.581,124.328 119,125.5C 119.333,124.833 119.667,124.167 120,123.5C 121.419,125.336 122.586,127.336 123.5,129.5C 124.833,130.167 126.167,130.833 127.5,131.5C 126.529,132.962 126.862,134.295 128.5,135.5C 129.696,135.154 129.696,134.654 128.5,134C 129.635,133.251 130.635,133.417 131.5,134.5C 130.674,135.451 130.508,136.451 131,137.5C 131.333,137.167 131.667,136.833 132,136.5C 134.219,138.72 136.719,140.553 139.5,142C 138.833,142.333 138.167,142.667 137.5,143C 139.483,144.889 141.816,146.222 144.5,147C 144.167,147.333 143.833,147.667 143.5,148C 145.861,149.669 148.194,151.335 150.5,153C 150.5,154 150.5,155 150.5,156C 151.784,156.684 152.951,156.517 154,155.5C 155.044,157.715 155.71,160.048 156,162.5C 156.626,160.009 157.459,160.009 158.5,162.5C 159.425,161.359 160.259,161.359 161,162.5C 162.807,165.972 165.307,168.805 168.5,171C 167.748,171.671 167.414,172.504 167.5,173.5C 164.024,174.643 160.358,174.81 156.5,174C 144.5,162 132.5,150 120.5,138C 111.173,137.5 101.839,137.334 92.5,137.5C 92.1414,135.515 91.308,134.849 90,135.5C 88.1667,134.333 86.3333,133.167 84.5,132C 85.3279,131.085 86.3279,130.419 87.5,130C 86.2161,129.316 85.0495,129.483 84,130.5C 82.8118,129.437 82.3118,128.103 82.5,126.5C 81.5,126.5 80.5,126.5 79.5,126.5C 79.6495,125.448 79.4828,124.448 79,123.5C 78.6667,123.833 78.3333,124.167 78,124.5C 77.5,123.5 77,122.5 76.5,121.5C 78.2914,120.83 79.9581,120.163 81.5,119.5 Z"/></g>
<g><path style="opacity:1" fill="#face6a" d="M 108.5,119.5 C 123.5,119.5 138.5,119.5 153.5,119.5C 153.047,120.458 152.381,121.292 151.5,122C 153.481,122.605 153.815,123.605 152.5,125C 153.5,125.333 154.5,125.667 155.5,126C 155.167,126.333 154.833,126.667 154.5,127C 155.701,127.903 156.535,129.069 157,130.5C 157.308,129.692 157.808,129.025 158.5,128.5C 160.69,130.524 163.023,132.357 165.5,134C 164.044,134.423 163.544,135.256 164,136.5C 165.749,135.701 167.082,136.368 168,138.5C 169.666,137.66 169.833,138.16 168.5,140C 169.715,142.096 170.549,141.929 171,139.5C 172.167,141.333 173.667,142.833 175.5,144C 174.167,144.667 174.167,145.333 175.5,146C 176.935,145.689 178.268,145.855 179.5,146.5C 179.833,146.833 180.167,147.167 180.5,147.5C 180.154,148.696 179.654,148.696 179,147.5C 178.517,148.448 178.351,149.448 178.5,150.5C 180.308,150.491 181.975,150.991 183.5,152C 182.262,152.69 182.262,153.19 183.5,153.5C 179.3,161.038 173.966,167.704 167.5,173.5C 167.414,172.504 167.748,171.671 168.5,171C 165.307,168.805 162.807,165.972 161,162.5C 160.259,161.359 159.425,161.359 158.5,162.5C 157.459,160.009 156.626,160.009 156,162.5C 155.71,160.048 155.044,157.715 154,155.5C 152.951,156.517 151.784,156.684 150.5,156C 150.5,155 150.5,154 150.5,153C 148.194,151.335 145.861,149.669 143.5,148C 143.833,147.667 144.167,147.333 144.5,147C 141.816,146.222 139.483,144.889 137.5,143C 138.167,142.667 138.833,142.333 139.5,142C 136.719,140.553 134.219,138.72 132,136.5C 131.667,136.833 131.333,137.167 131,137.5C 130.508,136.451 130.674,135.451 131.5,134.5C 130.635,133.417 129.635,133.251 128.5,134C 129.696,134.654 129.696,135.154 128.5,135.5C 126.862,134.295 126.529,132.962 127.5,131.5C 126.167,130.833 124.833,130.167 123.5,129.5C 122.586,127.336 121.419,125.336 120,123.5C 119.667,124.167 119.333,124.833 119,125.5C 118.581,124.328 117.915,123.328 117,122.5C 115.334,123.34 115.167,122.84 116.5,121C 113.635,120.817 110.969,120.317 108.5,119.5 Z"/></g>
<g><path style="opacity:1" fill="#fad46a" d="M 153.5,119.5 C 161.507,119.334 169.507,119.5 177.5,120C 182.833,125.333 188.167,130.667 193.5,136C 191.038,142.434 187.705,148.268 183.5,153.5C 182.262,153.19 182.262,152.69 183.5,152C 181.975,150.991 180.308,150.491 178.5,150.5C 178.351,149.448 178.517,148.448 179,147.5C 179.654,148.696 180.154,148.696 180.5,147.5C 180.167,147.167 179.833,146.833 179.5,146.5C 178.268,145.855 176.935,145.689 175.5,146C 174.167,145.333 174.167,144.667 175.5,144C 173.667,142.833 172.167,141.333 171,139.5C 170.549,141.929 169.715,142.096 168.5,140C 169.833,138.16 169.666,137.66 168,138.5C 167.082,136.368 165.749,135.701 164,136.5C 163.544,135.256 164.044,134.423 165.5,134C 163.023,132.357 160.69,130.524 158.5,128.5C 157.808,129.025 157.308,129.692 157,130.5C 156.535,129.069 155.701,127.903 154.5,127C 154.833,126.667 155.167,126.333 155.5,126C 154.5,125.667 153.5,125.333 152.5,125C 153.815,123.605 153.481,122.605 151.5,122C 152.381,121.292 153.047,120.458 153.5,119.5 Z"/></g>
<g><path style="opacity:1" fill="#fab569" d="M 11.5,129.5 C 13.6133,130.256 15.6133,130.423 17.5,130C 17.9817,131.008 18.1484,132.175 18,133.5C 18.3333,133.167 18.6667,132.833 19,132.5C 19.6502,136.236 21.8169,138.403 25.5,139C 26.2191,141.556 27.8858,142.723 30.5,142.5C 30.281,143.675 30.6143,144.675 31.5,145.5C 34.016,146.726 36.3493,148.226 38.5,150C 38.1667,150.333 37.8333,150.667 37.5,151C 39.3359,154.256 42.0026,156.589 45.5,158C 44.8333,158.333 44.1667,158.667 43.5,159C 45.5,159.667 47.5,160.333 49.5,161C 48.6721,161.915 47.6721,162.581 46.5,163C 48.4727,163.495 50.4727,163.662 52.5,163.5C 49.3707,167.131 46.0374,170.631 42.5,174C 38.3749,174.854 34.3749,174.52 30.5,173C 19.5868,162.247 11.2535,149.747 5.5,135.5C 7.1878,133.146 9.1878,131.146 11.5,129.5 Z"/></g>
<g><path style="opacity:1" fill="#faba69" d="M 81.5,161.5 C 81.3894,163.648 82.056,163.981 83.5,162.5C 83.8333,163.167 84.1667,163.833 84.5,164.5C 85.1924,163.975 85.6924,163.308 86,162.5C 86.9025,163.701 88.0692,164.535 89.5,165C 87.9926,165.837 87.4926,167.004 88,168.5C 89,168.167 90,167.833 91,167.5C 92.3402,173.393 95.6735,176.726 101,177.5C 101.98,179.059 102.813,180.726 103.5,182.5C 104.086,182.291 104.586,181.957 105,181.5C 105.333,182.833 105.667,184.167 106,185.5C 107.84,184.167 108.34,184.334 107.5,186C 109.5,187 111.5,188 113.5,189C 112.833,189.333 112.167,189.667 111.5,190C 112.938,190.219 114.271,190.719 115.5,191.5C 114.975,192.192 114.308,192.692 113.5,193C 114.931,193.465 116.097,194.299 117,195.5C 118.785,194.646 119.951,195.313 120.5,197.5C 118.048,198.065 115.715,198.732 113.5,199.5C 104.167,199.5 94.8333,199.5 85.5,199.5C 85.1583,198.662 84.4916,198.328 83.5,198.5C 83.6107,197.883 83.944,197.383 84.5,197C 82.853,195.267 81.353,193.434 80,191.5C 78.3903,191.87 76.8903,191.203 75.5,189.5C 76.0253,188.808 76.6919,188.308 77.5,188C 75.7444,187.798 74.0777,187.298 72.5,186.5C 72.7093,185.914 73.0426,185.414 73.5,185C 71.8333,183.333 70.1667,181.667 68.5,180C 68.8333,179.667 69.1667,179.333 69.5,179C 67.5,178.333 65.5,177.667 63.5,177C 63.9589,175.057 62.9589,173.724 60.5,173C 60.8333,172.667 61.1667,172.333 61.5,172C 58.7683,171.602 56.935,170.102 56,167.5C 55.1841,168.823 54.0174,169.489 52.5,169.5C 54.6281,166.87 56.9614,164.37 59.5,162C 66.8258,161.5 74.1591,161.334 81.5,161.5 Z"/></g>
<g><path style="opacity:1" fill="#fac169" d="M 81.5,161.5 C 95.5,161.5 109.5,161.5 123.5,161.5C 122.737,162.268 121.737,162.768 120.5,163C 122.091,165.133 124.091,166.799 126.5,168C 125.483,169.049 125.316,170.216 126,171.5C 126.333,171.167 126.667,170.833 127,170.5C 128.044,171.623 128.71,172.956 129,174.5C 129.667,170.5 130.333,170.5 131,174.5C 131.75,175.126 132.584,175.626 133.5,176C 132.327,179.11 132.827,179.277 135,176.5C 136.167,179 138,180.833 140.5,182C 139.833,182.333 139.167,182.667 138.5,183C 140.087,183.862 141.754,184.529 143.5,185C 143.167,185.333 142.833,185.667 142.5,186C 143.858,186.934 145.192,187.768 146.5,188.5C 138.265,192.69 129.599,195.69 120.5,197.5C 119.951,195.313 118.785,194.646 117,195.5C 116.097,194.299 114.931,193.465 113.5,193C 114.308,192.692 114.975,192.192 115.5,191.5C 114.271,190.719 112.938,190.219 111.5,190C 112.167,189.667 112.833,189.333 113.5,189C 111.5,188 109.5,187 107.5,186C 108.34,184.334 107.84,184.167 106,185.5C 105.667,184.167 105.333,182.833 105,181.5C 104.586,181.957 104.086,182.291 103.5,182.5C 102.813,180.726 101.98,179.059 101,177.5C 95.6735,176.726 92.3402,173.393 91,167.5C 90,167.833 89,168.167 88,168.5C 87.4926,167.004 87.9926,165.837 89.5,165C 88.0692,164.535 86.9025,163.701 86,162.5C 85.6924,163.308 85.1924,163.975 84.5,164.5C 84.1667,163.833 83.8333,163.167 83.5,162.5C 82.056,163.981 81.3894,163.648 81.5,161.5 Z"/></g>
<g><path style="opacity:1" fill="#fac86a" d="M 123.5,161.5 C 128.844,161.334 134.177,161.501 139.5,162C 145.333,167.833 151.167,173.667 157,179.5C 157.507,180.996 157.007,182.163 155.5,183C 152.472,184.844 149.472,186.678 146.5,188.5C 145.192,187.768 143.858,186.934 142.5,186C 142.833,185.667 143.167,185.333 143.5,185C 141.754,184.529 140.087,183.862 138.5,183C 139.167,182.667 139.833,182.333 140.5,182C 138,180.833 136.167,179 135,176.5C 132.827,179.277 132.327,179.11 133.5,176C 132.584,175.626 131.75,175.126 131,174.5C 130.333,170.5 129.667,170.5 129,174.5C 128.71,172.956 128.044,171.623 127,170.5C 126.667,170.833 126.333,171.167 126,171.5C 125.316,170.216 125.483,169.049 126.5,168C 124.091,166.799 122.091,165.133 120.5,163C 121.737,162.768 122.737,162.268 123.5,161.5 Z"/></g>
<g><path style="opacity:1" fill="#fab569" d="M 83.5,198.5 C 68.956,196.376 55.6227,191.209 43.5,183C 41.9926,182.163 41.4926,180.996 42,179.5C 45.3691,175.963 48.8691,172.629 52.5,169.5C 54.0174,169.489 55.1841,168.823 56,167.5C 56.935,170.102 58.7683,171.602 61.5,172C 61.1667,172.333 60.8333,172.667 60.5,173C 62.9589,173.724 63.9589,175.057 63.5,177C 65.5,177.667 67.5,178.333 69.5,179C 69.1667,179.333 68.8333,179.667 68.5,180C 70.1667,181.667 71.8333,183.333 73.5,185C 73.0426,185.414 72.7093,185.914 72.5,186.5C 74.0777,187.298 75.7444,187.798 77.5,188C 76.6919,188.308 76.0253,188.808 75.5,189.5C 76.8903,191.203 78.3903,191.87 80,191.5C 81.353,193.434 82.853,195.267 84.5,197C 83.944,197.383 83.6107,197.883 83.5,198.5 Z"/></g>
</svg>
