<?xml version="1.0" encoding="UTF-8"?>
<!DOCTYPE svg PUBLIC "-//W3C//DTD SVG 1.1//EN" "http://www.w3.org/Graphics/SVG/1.1/DTD/svg11.dtd">
<svg xmlns="http://www.w3.org/2000/svg" version="1.1" width="200px" height="200px" style="shape-rendering:geometricPrecision; text-rendering:geometricPrecision; image-rendering:optimizeQuality; fill-rule:evenodd; clip-rule:evenodd" xmlns:xlink="http://www.w3.org/1999/xlink">
<g><path style="opacity:1" fill="#fa0dc1" d="M 85.5,-0.5 C 94.8333,-0.5 104.167,-0.5 113.5,-0.5C 161.167,9.16667 189.833,37.8333 199.5,85.5C 199.5,94.8333 199.5,104.167 199.5,113.5C 189.833,161.167 161.167,189.833 113.5,199.5C 104.167,199.5 94.8333,199.5 85.5,199.5C 37.8333,189.833 9.16667,161.167 -0.5,113.5C -0.5,104.167 -0.5,94.8333 -0.5,85.5C 9.16667,37.8333 37.8333,9.16667 85.5,-0.5 Z"/></g>
<g><path style="opacity:1" fill="#faf9f9" d="M 125.5,84.5 C 125.167,84.5 124.833,84.5 124.5,84.5C 124.666,75.1607 124.5,65.8274 124,56.5C 115.836,60.9143 107.836,65.581 100,70.5C 99.5002,80.1609 99.3335,89.8276 99.5,99.5C 99.1667,99.5 98.8333,99.5 98.5,99.5C 90.8636,94.3436 82.8636,89.677 74.5,85.5C 74.3335,75.8276 74.5002,66.1609 75,56.5C 91.4178,46.7072 107.918,37.0405 124.5,27.5C 132.5,32.1667 140.5,36.8333 148.5,41.5C 149.665,51.1495 149.832,60.8161 149,70.5C 141.222,75.304 133.388,79.9706 125.5,84.5 Z"/></g>
<g><path style="opacity:1" fill="#fa11c1" d="M 124.5,84.5 C 116.5,89.5 108.5,94.5 100.5,99.5C 100.167,99.5 99.8333,99.5 99.5,99.5C 99.3335,89.8276 99.5002,80.1609 100,70.5C 107.836,65.581 115.836,60.9143 124,56.5C 124.5,65.8274 124.666,75.1607 124.5,84.5 Z"/></g>
<g><path style="opacity:1" fill="#fa6ad9" d="M 74.5,85.5 C 82.8636,89.677 90.8636,94.3436 98.5,99.5C 90.5,104.5 82.5,109.5 74.5,114.5C 74.1667,114.5 73.8333,114.5 73.5,114.5C 73.6309,113.624 73.2975,112.957 72.5,112.5C 64.837,108.671 57.5037,104.337 50.5,99.5C 58.1994,94.317 66.1994,89.6503 74.5,85.5 Z"/></g>
<g><path style="opacity:1" fill="#fa6ad9" d="M 124.5,84.5 C 124.833,84.5 125.167,84.5 125.5,84.5C 125.369,85.3764 125.702,86.0431 126.5,86.5C 134.163,90.3294 141.496,94.6627 148.5,99.5C 140.801,104.683 132.801,109.35 124.5,113.5C 116.136,109.323 108.136,104.656 100.5,99.5C 108.5,94.5 116.5,89.5 124.5,84.5 Z"/></g>
<g><path style="opacity:1" fill="#fa12c1" d="M 98.5,99.5 C 98.8333,99.5 99.1667,99.5 99.5,99.5C 99.6665,109.172 99.4998,118.839 99,128.5C 91.164,133.419 83.164,138.086 75,142.5C 74.5002,133.173 74.3335,123.839 74.5,114.5C 82.5,109.5 90.5,104.5 98.5,99.5 Z"/></g>
<g><path style="opacity:1" fill="#faf9f9" d="M 99.5,99.5 C 99.8333,99.5 100.167,99.5 100.5,99.5C 108.136,104.656 116.136,109.323 124.5,113.5C 124.666,123.172 124.5,132.839 124,142.5C 107.582,152.293 91.0822,161.959 74.5,171.5C 66.5,166.833 58.5,162.167 50.5,157.5C 49.3345,147.851 49.1679,138.184 50,128.5C 57.7784,123.696 65.6117,119.029 73.5,114.5C 73.8333,114.5 74.1667,114.5 74.5,114.5C 74.3335,123.839 74.5002,133.173 75,142.5C 83.164,138.086 91.164,133.419 99,128.5C 99.4998,118.839 99.6665,109.172 99.5,99.5 Z"/></g>
</svg>
