<?xml version="1.0" encoding="UTF-8"?>
<!DOCTYPE svg PUBLIC "-//W3C//DTD SVG 1.1//EN" "http://www.w3.org/Graphics/SVG/1.1/DTD/svg11.dtd">
<svg xmlns="http://www.w3.org/2000/svg" version="1.1" width="384px" height="384px" style="shape-rendering:geometricPrecision; text-rendering:geometricPrecision; image-rendering:optimizeQuality; fill-rule:evenodd; clip-rule:evenodd" xmlns:xlink="http://www.w3.org/1999/xlink">
<g><path style="opacity:1" fill="#d9f9f2" d="M 181.5,-0.5 C 188.167,-0.5 194.833,-0.5 201.5,-0.5C 207.301,1.39416 212.968,3.89416 218.5,7C 261.338,31.5865 304.338,55.9198 347.5,80C 357.55,87.0536 364.05,96.5536 367,108.5C 367.667,163.833 367.667,219.167 367,274.5C 363.512,288.644 355.345,299.144 342.5,306C 298.671,330.413 255.005,355.08 211.5,380C 208.02,381.103 204.687,382.269 201.5,383.5C 194.833,383.5 188.167,383.5 181.5,383.5C 175.699,381.606 170.032,379.106 164.5,376C 121.662,351.414 78.6622,327.08 35.5,303C 25.4499,295.946 18.9499,286.446 16,274.5C 15.3333,219.167 15.3333,163.833 16,108.5C 19.4879,94.3559 27.6546,83.8559 40.5,77C 84.3288,52.5865 127.995,27.9199 171.5,3C 174.98,1.89744 178.313,0.73077 181.5,-0.5 Z"/></g>
<g><path style="opacity:1" fill="#2c4645" d="M 251.5,113.5 C 250.833,108.5 250.167,103.5 249.5,98.5C 247.451,84.52 243.285,71.1867 237,58.5C 235.321,55.4875 232.987,53.1541 230,51.5C 216.381,61.6159 205.881,74.2826 198.5,89.5C 196.896,90.287 196.229,91.6203 196.5,93.5C 194.396,93.2011 192.396,93.5344 190.5,94.5C 189.873,95.4168 189.539,96.4168 189.5,97.5C 187.167,97.5 184.833,97.5 182.5,97.5C 182.5,96.5 182.5,95.5 182.5,94.5C 180.5,94.5 178.5,94.5 176.5,94.5C 172.596,95.8094 168.596,96.8094 164.5,97.5C 162.833,97.5 161.167,97.5 159.5,97.5C 159.5,98.8333 159.5,100.167 159.5,101.5C 157.228,102.319 154.894,102.985 152.5,103.5C 152.5,102.5 152.5,101.5 152.5,100.5C 151.209,100.737 150.209,100.404 149.5,99.5C 149.046,96.8602 147.879,94.5268 146,92.5C 137.726,83.22 128.559,75.0533 118.5,68C 113.982,65.7922 111.149,67.2922 110,72.5C 104.613,90.6817 104.113,109.015 108.5,127.5C 107.833,126.5 107.167,125.5 106.5,124.5C 102.977,114.564 101.81,104.231 103,93.5C 104.333,86.8333 105.667,80.1667 107,73.5C 108.439,70.3974 110.273,67.5641 112.5,65C 114.167,64.3333 115.833,64.3333 117.5,65C 130.921,74.2543 142.921,85.0876 153.5,97.5C 167.348,94.0206 181.348,91.6872 195.5,90.5C 203.309,73.8645 214.642,60.1978 229.5,49.5C 233.715,50.8783 236.881,53.545 239,57.5C 244.722,68.9404 248.722,80.9404 251,93.5C 251.5,100.158 251.666,106.825 251.5,113.5 Z"/></g>
<g><path style="opacity:1" fill="#d6799c" d="M 231.5,58.5 C 232.167,58.5 232.833,58.5 233.5,58.5C 234.906,58.9731 235.573,59.9731 235.5,61.5C 234.259,77.0391 235.926,92.2058 240.5,107C 240.167,107.5 239.833,108 239.5,108.5C 238.583,107.873 237.583,107.539 236.5,107.5C 236.027,106.094 235.027,105.427 233.5,105.5C 232.892,104.2 232.225,102.867 231.5,101.5C 231.846,100.151 232.179,98.8175 232.5,97.5C 232.33,96.1779 232.663,95.0113 233.5,94C 230.876,94.6498 228.209,94.4832 225.5,93.5C 225.5,91.5 225.5,89.5 225.5,87.5C 222.603,87.3187 219.77,87.6521 217,88.5C 215.521,87.1269 215.688,85.6269 217.5,84C 216.748,83.3292 216.414,82.4959 216.5,81.5C 218.048,71.4268 223.048,63.7601 231.5,58.5 Z"/></g>
<g><path style="opacity:1" fill="#21353a" d="M 231.5,58.5 C 223.048,63.7601 218.048,71.4268 216.5,81.5C 214.928,84.2154 213.928,87.2154 213.5,90.5C 217.135,89.8857 220.802,89.5524 224.5,89.5C 224.414,91.677 223.747,93.677 222.5,95.5C 225.821,96.3303 229.154,96.997 232.5,97.5C 232.179,98.8175 231.846,100.151 231.5,101.5C 232.225,102.867 232.892,104.2 233.5,105.5C 230.013,104.555 228.68,102.222 229.5,98.5C 225.704,98.7825 222.037,98.7825 218.5,98.5C 220.02,96.3379 221.02,94.0046 221.5,91.5C 217.803,92.0078 214.136,92.6745 210.5,93.5C 211.901,86.6322 213.901,79.9655 216.5,73.5C 218.43,69.8751 220.43,66.2084 222.5,62.5C 224.865,60.1397 227.532,58.1397 230.5,56.5C 231.298,56.9569 231.631,57.6236 231.5,58.5 Z"/></g>
<g><path style="opacity:1" fill="#e8bccd" d="M 112.5,75.5 C 113.167,75.5 113.833,75.5 114.5,75.5C 112.836,85.4768 111.169,95.4768 109.5,105.5C 110.503,112.172 111.503,118.839 112.5,125.5C 109.21,118.473 107.877,110.973 108.5,103C 108.372,93.603 109.705,84.4364 112.5,75.5 Z"/></g>
<g><path style="opacity:1" fill="#f2aec7" d="M 114.5,75.5 C 118.316,79.1174 121.15,83.4508 123,88.5C 123.605,95.9088 123.105,103.242 121.5,110.5C 120.662,110.842 120.328,111.508 120.5,112.5C 118.027,117.909 115.361,123.243 112.5,128.5C 112.5,127.5 112.5,126.5 112.5,125.5C 111.503,118.839 110.503,112.172 109.5,105.5C 111.169,95.4768 112.836,85.4768 114.5,75.5 Z"/></g>
<g><path style="opacity:1" fill="#e6eff0" d="M 149.5,99.5 C 148.761,99.631 148.094,99.4643 147.5,99C 142.323,92.9909 136.989,87.1576 131.5,81.5C 130.417,82.365 130.251,83.365 131,84.5C 134.073,92.3269 137.573,99.9936 141.5,107.5C 141.833,107.833 142.167,108.167 142.5,108.5C 145.437,106.187 148.77,104.854 152.5,104.5C 153.363,106.421 154.029,108.421 154.5,110.5C 153.288,109.77 152.288,108.77 151.5,107.5C 150.289,108.39 148.955,108.39 147.5,107.5C 144.69,109.498 141.524,110.831 138,111.5C 137.308,110.975 136.808,110.308 136.5,109.5C 138.963,107.286 139.129,104.952 137,102.5C 136.802,104.382 136.302,106.048 135.5,107.5C 132.505,95.679 127.672,84.679 121,74.5C 118.997,72.0779 116.497,71.2446 113.5,72C 112.748,72.6708 112.414,73.5041 112.5,74.5C 112.5,74.8333 112.5,75.1667 112.5,75.5C 109.705,84.4364 108.372,93.603 108.5,103C 107.877,110.973 109.21,118.473 112.5,125.5C 112.5,126.5 112.5,127.5 112.5,128.5C 112.5,128.833 112.5,129.167 112.5,129.5C 111.5,129.5 110.5,129.5 109.5,129.5C 108.662,129.158 108.328,128.492 108.5,127.5C 104.113,109.015 104.613,90.6817 110,72.5C 111.149,67.2922 113.982,65.7922 118.5,68C 128.559,75.0533 137.726,83.22 146,92.5C 147.879,94.5268 149.046,96.8602 149.5,99.5 Z"/></g>
<g><path style="opacity:1" fill="#b47490" d="M 216.5,81.5 C 216.414,82.4959 216.748,83.3292 217.5,84C 215.688,85.6269 215.521,87.1269 217,88.5C 219.77,87.6521 222.603,87.3187 225.5,87.5C 225.5,89.5 225.5,91.5 225.5,93.5C 228.209,94.4832 230.876,94.6498 233.5,94C 232.663,95.0113 232.33,96.1779 232.5,97.5C 229.154,96.997 225.821,96.3303 222.5,95.5C 223.747,93.677 224.414,91.677 224.5,89.5C 220.802,89.5524 217.135,89.8857 213.5,90.5C 213.928,87.2154 214.928,84.2154 216.5,81.5 Z"/></g>
<g><path style="opacity:1" fill="#ca7b9b" d="M 121.5,110.5 C 123.105,103.242 123.605,95.9088 123,88.5C 121.15,83.4508 118.316,79.1174 114.5,75.5C 113.833,75.5 113.167,75.5 112.5,75.5C 112.5,75.1667 112.5,74.8333 112.5,74.5C 115.589,72.8057 118.089,73.4724 120,76.5C 125.212,85.0155 129.379,94.0155 132.5,103.5C 130.234,104.314 127.9,104.814 125.5,105C 124.332,106.406 124.665,107.572 126.5,108.5C 124.861,109.322 123.195,109.989 121.5,110.5 Z"/></g>
<g><path style="opacity:1" fill="#375461" d="M 176.5,94.5 C 175.766,95.7079 175.433,97.0413 175.5,98.5C 172.124,98.9516 168.791,99.6182 165.5,100.5C 164.614,99.675 164.281,98.675 164.5,97.5C 168.596,96.8094 172.596,95.8094 176.5,94.5 Z"/></g>
<g><path style="opacity:1" fill="#8ad0e6" d="M 149.5,99.5 C 150.209,100.404 151.209,100.737 152.5,100.5C 152.5,101.5 152.5,102.5 152.5,103.5C 152.5,103.833 152.5,104.167 152.5,104.5C 148.77,104.854 145.437,106.187 142.5,108.5C 142.167,108.167 141.833,107.833 141.5,107.5C 137.573,99.9936 134.073,92.3269 131,84.5C 130.251,83.365 130.417,82.365 131.5,81.5C 136.989,87.1576 142.323,92.9909 147.5,99C 148.094,99.4643 148.761,99.631 149.5,99.5 Z"/></g>
<g><path style="opacity:1" fill="#333239" d="M 135.5,107.5 C 133.131,107.149 130.797,106.982 128.5,107C 129.357,107.689 130.023,108.522 130.5,109.5C 127.833,110.5 125.167,111.5 122.5,112.5C 123.833,113.167 125.167,113.833 126.5,114.5C 126.376,115.107 126.043,115.44 125.5,115.5C 122.715,116.084 121.048,115.084 120.5,112.5C 120.328,111.508 120.662,110.842 121.5,110.5C 123.195,109.989 124.861,109.322 126.5,108.5C 124.665,107.572 124.332,106.406 125.5,105C 127.9,104.814 130.234,104.314 132.5,103.5C 129.379,94.0155 125.212,85.0155 120,76.5C 118.089,73.4724 115.589,72.8057 112.5,74.5C 112.414,73.5041 112.748,72.6708 113.5,72C 116.497,71.2446 118.997,72.0779 121,74.5C 127.672,84.679 132.505,95.679 135.5,107.5 Z"/></g>
<g><path style="opacity:1" fill="#f6f8f8" d="M 175.5,98.5 C 177.833,98.5 180.167,98.5 182.5,98.5C 182.173,103.214 182.507,107.88 183.5,112.5C 184.99,107.53 186.99,102.864 189.5,98.5C 217.852,98.8514 235.185,112.851 241.5,140.5C 241.5,140.833 241.5,141.167 241.5,141.5C 237.939,143.048 234.606,145.048 231.5,147.5C 235.445,148.491 239.445,148.824 243.5,148.5C 243.5,152.5 243.5,156.5 243.5,160.5C 243.5,161.167 243.167,161.5 242.5,161.5C 238.818,161.335 235.152,161.501 231.5,162C 231.043,162.414 230.709,162.914 230.5,163.5C 233.976,165.657 237.642,167.323 241.5,168.5C 236.856,179.648 229.19,188.148 218.5,194C 191.937,205.582 164.27,208.915 135.5,204C 133.685,203.243 132.019,202.41 130.5,201.5C 131.23,200.288 132.23,199.288 133.5,198.5C 133,198.167 132.5,197.833 132,197.5C 130.357,198.315 128.857,199.315 127.5,200.5C 124.561,199.544 122.228,197.877 120.5,195.5C 122.742,194.352 125.076,193.352 127.5,192.5C 123.883,191.286 120.549,191.952 117.5,194.5C 116.893,194.376 116.56,194.043 116.5,193.5C 119.185,190.81 121.518,187.81 123.5,184.5C 122.486,183.235 120.986,182.569 119,182.5C 112.663,185.252 109.163,183.252 108.5,176.5C 109.014,173.448 109.68,170.448 110.5,167.5C 115.011,166.667 119.345,165.333 123.5,163.5C 120.86,160.194 117.86,157.194 114.5,154.5C 113.607,151.916 113.274,149.249 113.5,146.5C 113.731,141.302 114.897,136.302 117,131.5C 119.393,128.048 121.226,124.381 122.5,120.5C 123.075,118.589 124.075,116.922 125.5,115.5C 126.043,115.44 126.376,115.107 126.5,114.5C 125.167,113.833 123.833,113.167 122.5,112.5C 125.167,111.5 127.833,110.5 130.5,109.5C 130.023,108.522 129.357,107.689 128.5,107C 130.797,106.982 133.131,107.149 135.5,107.5C 136.302,106.048 136.802,104.382 137,102.5C 139.129,104.952 138.963,107.286 136.5,109.5C 136.808,110.308 137.308,110.975 138,111.5C 141.524,110.831 144.69,109.498 147.5,107.5C 148.955,108.39 150.289,108.39 151.5,107.5C 152.288,108.77 153.288,109.77 154.5,110.5C 155.188,113.057 156.354,115.391 158,117.5C 158.83,112.192 159.33,106.859 159.5,101.5C 161.167,101.5 162.833,101.5 164.5,101.5C 165.054,111.051 166.721,120.385 169.5,129.5C 171.503,119.153 173.503,108.82 175.5,98.5 Z"/></g>
<g><path style="opacity:1" fill="#89cfe4" d="M 216.5,73.5 C 213.901,79.9655 211.901,86.6322 210.5,93.5C 214.136,92.6745 217.803,92.0078 221.5,91.5C 221.02,94.0046 220.02,96.3379 218.5,98.5C 222.037,98.7825 225.704,98.7825 229.5,98.5C 228.68,102.222 230.013,104.555 233.5,105.5C 235.027,105.427 236.027,106.094 236.5,107.5C 238.592,109.169 240.592,110.836 242.5,112.5C 244.087,115.268 245.92,117.935 248,120.5C 248.401,123.699 249.234,126.699 250.5,129.5C 250.5,129.833 250.5,130.167 250.5,130.5C 248.212,134.456 245.212,137.789 241.5,140.5C 235.185,112.851 217.852,98.8514 189.5,98.5C 189.5,98.1667 189.5,97.8333 189.5,97.5C 189.539,96.4168 189.873,95.4168 190.5,94.5C 192.396,93.5344 194.396,93.2011 196.5,93.5C 196.229,91.6203 196.896,90.287 198.5,89.5C 199.334,90.7479 200.667,91.4146 202.5,91.5C 203.833,91.3333 205.167,91.1667 206.5,91C 210.015,85.1213 213.348,79.288 216.5,73.5 Z"/></g>
<g><path style="opacity:1" fill="#efb0c9" d="M 235.5,61.5 C 244.076,77.7152 247.409,95.0485 245.5,113.5C 244.583,112.873 243.583,112.539 242.5,112.5C 240.592,110.836 238.592,109.169 236.5,107.5C 237.583,107.539 238.583,107.873 239.5,108.5C 239.833,108 240.167,107.5 240.5,107C 235.926,92.2058 234.259,77.0391 235.5,61.5 Z"/></g>
<g><path style="opacity:1" fill="#a0acb1" d="M 176.5,94.5 C 178.5,94.5 180.5,94.5 182.5,94.5C 182.5,95.5 182.5,96.5 182.5,97.5C 184.833,97.5 187.167,97.5 189.5,97.5C 189.5,97.8333 189.5,98.1667 189.5,98.5C 186.99,102.864 184.99,107.53 183.5,112.5C 182.507,107.88 182.173,103.214 182.5,98.5C 180.167,98.5 177.833,98.5 175.5,98.5C 175.433,97.0413 175.766,95.7079 176.5,94.5 Z"/></g>
<g><path style="opacity:1" fill="#9fa9ac" d="M 164.5,97.5 C 164.281,98.675 164.614,99.675 165.5,100.5C 168.791,99.6182 172.124,98.9516 175.5,98.5C 173.503,108.82 171.503,119.153 169.5,129.5C 166.721,120.385 165.054,111.051 164.5,101.5C 162.833,101.5 161.167,101.5 159.5,101.5C 159.5,100.167 159.5,98.8333 159.5,97.5C 161.167,97.5 162.833,97.5 164.5,97.5 Z"/></g>
<g><path style="opacity:1" fill="#e9eff0" d="M 249.5,98.5 C 249.186,105.361 249.186,112.028 249.5,118.5C 250.499,121.162 251.499,123.828 252.5,126.5C 252.715,128.179 252.048,129.179 250.5,129.5C 249.234,126.699 248.401,123.699 248,120.5C 245.92,117.935 244.087,115.268 242.5,112.5C 243.583,112.539 244.583,112.873 245.5,113.5C 247.409,95.0485 244.076,77.7152 235.5,61.5C 235.573,59.9731 234.906,58.9731 233.5,58.5C 233.22,54.7747 231.22,53.608 227.5,55C 224.758,56.8864 223.091,59.3864 222.5,62.5C 220.43,66.2084 218.43,69.8751 216.5,73.5C 213.348,79.288 210.015,85.1213 206.5,91C 205.167,91.1667 203.833,91.3333 202.5,91.5C 200.667,91.4146 199.334,90.7479 198.5,89.5C 205.881,74.2826 216.381,61.6159 230,51.5C 232.987,53.1541 235.321,55.4875 237,58.5C 243.285,71.1867 247.451,84.52 249.5,98.5 Z"/></g>
<g><path style="opacity:1" fill="#96c6d0" d="M 233.5,58.5 C 232.833,58.5 232.167,58.5 231.5,58.5C 231.631,57.6236 231.298,56.9569 230.5,56.5C 227.532,58.1397 224.865,60.1397 222.5,62.5C 223.091,59.3864 224.758,56.8864 227.5,55C 231.22,53.608 233.22,54.7747 233.5,58.5 Z"/></g>
<g><path style="opacity:1" fill="#617573" d="M 249.5,98.5 C 250.167,103.5 250.833,108.5 251.5,113.5C 251.5,115.167 251.5,116.833 251.5,118.5C 250.71,117.391 250.21,116.058 250,114.5C 249.51,115.793 249.343,117.127 249.5,118.5C 249.186,112.028 249.186,105.361 249.5,98.5 Z"/></g>
<g><path style="opacity:1" fill="#a0a7ab" d="M 159.5,101.5 C 159.33,106.859 158.83,112.192 158,117.5C 156.354,115.391 155.188,113.057 154.5,110.5C 154.029,108.421 153.363,106.421 152.5,104.5C 152.5,104.167 152.5,103.833 152.5,103.5C 154.894,102.985 157.228,102.319 159.5,101.5 Z"/></g>
<g><path style="opacity:1" fill="#cb7d9d" d="M 120.5,112.5 C 121.048,115.084 122.715,116.084 125.5,115.5C 124.075,116.922 123.075,118.589 122.5,120.5C 118.829,123.846 116.162,127.846 114.5,132.5C 114.068,131.29 113.401,130.29 112.5,129.5C 112.5,129.167 112.5,128.833 112.5,128.5C 115.361,123.243 118.027,117.909 120.5,112.5 Z"/></g>
<g><path style="opacity:1" fill="#8f9e9f" d="M 252.5,126.5 C 255.469,132.072 257.469,138.072 258.5,144.5C 257.209,144.263 256.209,144.596 255.5,145.5C 255.167,145.5 254.833,145.5 254.5,145.5C 253.992,140.784 253.158,136.118 252,131.5C 251.617,130.944 251.117,130.611 250.5,130.5C 250.5,130.167 250.5,129.833 250.5,129.5C 252.048,129.179 252.715,128.179 252.5,126.5 Z"/></g>
<g><path style="opacity:1" fill="#3a596b" d="M 250.5,130.5 C 251.117,130.611 251.617,130.944 252,131.5C 253.158,136.118 253.992,140.784 254.5,145.5C 250.915,146.583 247.249,147.249 243.5,147.5C 242.715,145.626 242.048,143.626 241.5,141.5C 241.5,141.167 241.5,140.833 241.5,140.5C 245.212,137.789 248.212,134.456 250.5,130.5 Z"/></g>
<g><path style="opacity:1" fill="#a2acaf" d="M 241.5,141.5 C 242.048,143.626 242.715,145.626 243.5,147.5C 243.5,147.833 243.5,148.167 243.5,148.5C 239.445,148.824 235.445,148.491 231.5,147.5C 234.606,145.048 237.939,143.048 241.5,141.5 Z"/></g>
<g><path style="opacity:1" fill="#ddedee" d="M 258.5,144.5 C 260.351,148.039 262.018,151.706 263.5,155.5C 262.249,157.22 260.749,157.553 259,156.5C 257.326,152.979 256.16,149.313 255.5,145.5C 256.209,144.596 257.209,144.263 258.5,144.5 Z"/></g>
<g><path style="opacity:1" fill="#86cfe6" d="M 254.5,145.5 C 254.833,145.5 255.167,145.5 255.5,145.5C 256.16,149.313 257.326,152.979 259,156.5C 260.749,157.553 262.249,157.22 263.5,155.5C 264.434,156.568 264.768,157.901 264.5,159.5C 262.453,159.489 260.453,159.156 258.5,158.5C 253.595,159.905 248.595,160.571 243.5,160.5C 243.5,156.5 243.5,152.5 243.5,148.5C 243.5,148.167 243.5,147.833 243.5,147.5C 247.249,147.249 250.915,146.583 254.5,145.5 Z"/></g>
<g><path style="opacity:1" fill="#9ea6a7" d="M 113.5,146.5 C 113.274,149.249 113.607,151.916 114.5,154.5C 117.86,157.194 120.86,160.194 123.5,163.5C 119.345,165.333 115.011,166.667 110.5,167.5C 111.668,160.397 112.668,153.397 113.5,146.5 Z"/></g>
<g><path style="opacity:1" fill="#092420" d="M 210.5,144.5 C 221.935,146.336 226.101,153.002 223,164.5C 221.171,170.158 217.337,171.992 211.5,170C 204.069,161.606 203.736,153.106 210.5,144.5 Z"/></g>
<g><path style="opacity:1" fill="#dfe6e6" d="M 213.5,148.5 C 218.328,148.385 219.661,150.552 217.5,155C 211.339,155.878 210.006,153.711 213.5,148.5 Z"/></g>
<g><path style="opacity:1" fill="#0f2a25" d="M 137.5,155.5 C 143.362,155.189 147.196,157.856 149,163.5C 150.409,169.316 149.242,174.483 145.5,179C 143.167,179.667 140.833,179.667 138.5,179C 136.641,177.442 135.141,175.609 134,173.5C 133.333,168.833 133.333,164.167 134,159.5C 135.376,158.295 136.542,156.962 137.5,155.5 Z"/></g>
<g><path style="opacity:1" fill="#1e3936" d="M 122.5,120.5 C 121.226,124.381 119.393,128.048 117,131.5C 114.897,136.302 113.731,141.302 113.5,146.5C 112.668,153.397 111.668,160.397 110.5,167.5C 109.68,170.448 109.014,173.448 108.5,176.5C 109.163,183.252 112.663,185.252 119,182.5C 120.986,182.569 122.486,183.235 123.5,184.5C 120.5,184.5 117.5,184.5 114.5,184.5C 114.336,187.187 114.503,189.854 115,192.5C 115.383,193.056 115.883,193.389 116.5,193.5C 116.56,194.043 116.893,194.376 117.5,194.5C 120.549,191.952 123.883,191.286 127.5,192.5C 125.076,193.352 122.742,194.352 120.5,195.5C 119.209,196.542 119.209,197.708 120.5,199C 122.333,200.167 124.167,201.333 126,202.5C 126.717,201.956 127.217,201.289 127.5,200.5C 128.857,199.315 130.357,198.315 132,197.5C 132.5,197.833 133,198.167 133.5,198.5C 132.23,199.288 131.23,200.288 130.5,201.5C 129.35,203.267 130.017,204.433 132.5,205C 139.823,207.425 147.157,209.258 154.5,210.5C 146.125,210.179 141.792,214.179 141.5,222.5C 140.605,226.763 142.272,229.263 146.5,230C 147.167,231 147.833,232 148.5,233C 150.708,233.191 152.708,233.691 154.5,234.5C 149.589,234.967 144.922,234.3 140.5,232.5C 138.583,233.903 137.583,233.57 137.5,231.5C 136.519,226.871 136.352,222.204 137,217.5C 137.763,214.53 139.263,212.03 141.5,210C 137.037,208.375 132.537,206.875 128,205.5C 126.266,207.29 124.766,209.29 123.5,211.5C 123.167,211 122.833,210.5 122.5,210C 123.167,208.333 123.833,206.667 124.5,205C 122.244,202.078 119.411,199.911 116,198.5C 113.259,199.789 110.759,201.455 108.5,203.5C 107.479,202.998 107.312,202.332 108,201.5C 110.643,200.024 112.81,198.024 114.5,195.5C 112.629,192.766 111.629,189.766 111.5,186.5C 108.646,186.924 105.979,187.924 103.5,189.5C 102.289,188.726 102.289,187.893 103.5,187C 105.025,185.991 106.692,185.491 108.5,185.5C 108.137,182.437 107.47,179.437 106.5,176.5C 109.331,165.676 110.998,154.676 111.5,143.5C 109.631,137.224 107.964,130.891 106.5,124.5C 107.167,125.5 107.833,126.5 108.5,127.5C 108.328,128.492 108.662,129.158 109.5,129.5C 110.103,132.308 111.103,134.974 112.5,137.5C 113.562,135.978 114.229,134.312 114.5,132.5C 116.162,127.846 118.829,123.846 122.5,120.5 Z"/></g>
<g><path style="opacity:1" fill="#89b9c7" d="M 109.5,129.5 C 110.5,129.5 111.5,129.5 112.5,129.5C 113.401,130.29 114.068,131.29 114.5,132.5C 114.229,134.312 113.562,135.978 112.5,137.5C 111.103,134.974 110.103,132.308 109.5,129.5 Z"/></g>
<g><path style="opacity:1" fill="#dee5e5" d="M 140.5,159.5 C 145.159,159.015 146.492,160.848 144.5,165C 139.728,165.81 138.395,163.977 140.5,159.5 Z"/></g>
<g><path style="opacity:1" fill="#a2acae" d="M 242.5,161.5 C 242.5,163.833 242.5,166.167 242.5,168.5C 242.167,168.5 241.833,168.5 241.5,168.5C 237.642,167.323 233.976,165.657 230.5,163.5C 230.709,162.914 231.043,162.414 231.5,162C 235.152,161.501 238.818,161.335 242.5,161.5 Z"/></g>
<g><path style="opacity:1" fill="#3a5b69" d="M 264.5,159.5 C 258.886,160.206 253.553,162.039 248.5,165C 247.007,166.156 247.174,166.99 249,167.5C 253.003,165.415 257.17,163.748 261.5,162.5C 260.18,165.14 258.847,167.807 257.5,170.5C 252.43,170.315 247.43,169.648 242.5,168.5C 242.5,166.167 242.5,163.833 242.5,161.5C 243.167,161.5 243.5,161.167 243.5,160.5C 248.595,160.571 253.595,159.905 258.5,158.5C 260.453,159.156 262.453,159.489 264.5,159.5 Z"/></g>
<g><path style="opacity:1" fill="#889a99" d="M 261.5,162.5 C 262.497,162.47 263.164,162.97 263.5,164C 262.711,165.626 261.711,167.126 260.5,168.5C 260.863,169.183 261.196,169.85 261.5,170.5C 260.167,170.5 258.833,170.5 257.5,170.5C 258.847,167.807 260.18,165.14 261.5,162.5 Z"/></g>
<g><path style="opacity:1" fill="#1b3431" d="M 167.5,169.5 C 170.5,169.5 173.5,169.5 176.5,169.5C 176.02,172.005 175.02,174.338 173.5,176.5C 178.898,179.88 183.231,178.88 186.5,173.5C 187.583,174.365 187.749,175.365 187,176.5C 182.809,181.046 177.976,181.713 172.5,178.5C 170.483,179.174 168.817,180.341 167.5,182C 164.833,182.667 162.167,182.667 159.5,182C 158.643,181.311 157.977,180.478 157.5,179.5C 160.56,180.473 163.893,180.473 167.5,179.5C 167.977,178.522 168.643,177.689 169.5,177C 166.924,176.218 164.924,174.718 163.5,172.5C 164.624,171.141 165.958,170.141 167.5,169.5 Z"/></g>
<g><path style="opacity:1" fill="#799993" d="M 264.5,170.5 C 267.61,171.088 270.61,171.755 273.5,172.5C 269.988,173.055 266.988,172.388 264.5,170.5 Z"/></g>
<g><path style="opacity:1" fill="#d7e6e6" d="M 254.5,182.5 C 255.455,180.254 256.122,177.921 256.5,175.5C 258.364,174.207 260.364,174.207 262.5,175.5C 261.07,178.433 259.07,180.933 256.5,183C 255.563,183.692 254.897,183.525 254.5,182.5 Z"/></g>
<g><path style="opacity:1" fill="#203d3a" d="M 251.5,118.5 C 257.226,131.284 262.392,144.284 267,157.5C 279.038,158.862 279.204,160.029 267.5,161C 265.076,163.943 264.076,167.11 264.5,170.5C 266.988,172.388 269.988,173.055 273.5,172.5C 276.722,172.108 279.722,172.608 282.5,174C 276.5,174.333 270.5,174.667 264.5,175C 263.065,177.943 261.398,180.777 259.5,183.5C 263.058,185.355 266.725,187.022 270.5,188.5C 270,188.833 269.5,189.167 269,189.5C 265.971,188.715 263.138,187.549 260.5,186C 259.167,185.333 257.833,185.333 256.5,186C 253.133,189.703 249.466,193.036 245.5,196C 250.233,200.016 252.567,205.182 252.5,211.5C 251.862,214.503 251.695,217.503 252,220.5C 254.041,223.248 255.541,226.248 256.5,229.5C 255.307,229.97 254.64,230.97 254.5,232.5C 259.277,254.081 252.611,270.915 234.5,283C 233.365,283.749 232.365,283.583 231.5,282.5C 236.485,278.015 241.319,273.349 246,268.5C 256.063,253.051 255.896,237.718 245.5,222.5C 247.022,220.844 246.689,219.677 244.5,219C 246.496,214.729 246.996,210.229 246,205.5C 244.82,201.153 241.987,198.82 237.5,198.5C 244.002,195.341 249.668,191.008 254.5,185.5C 245.299,184.371 245.299,183.371 254.5,182.5C 254.897,183.525 255.563,183.692 256.5,183C 259.07,180.933 261.07,178.433 262.5,175.5C 260.364,174.207 258.364,174.207 256.5,175.5C 254.46,176.519 252.46,176.519 250.5,175.5C 254.493,173.28 258.826,172.114 263.5,172C 262.956,171.283 262.289,170.783 261.5,170.5C 261.196,169.85 260.863,169.183 260.5,168.5C 261.711,167.126 262.711,165.626 263.5,164C 263.164,162.97 262.497,162.47 261.5,162.5C 257.17,163.748 253.003,165.415 249,167.5C 247.174,166.99 247.007,166.156 248.5,165C 253.553,162.039 258.886,160.206 264.5,159.5C 264.768,157.901 264.434,156.568 263.5,155.5C 262.018,151.706 260.351,148.039 258.5,144.5C 257.469,138.072 255.469,132.072 252.5,126.5C 251.499,123.828 250.499,121.162 249.5,118.5C 249.343,117.127 249.51,115.793 250,114.5C 250.21,116.058 250.71,117.391 251.5,118.5 Z"/></g>
<g><path style="opacity:1" fill="#9da5a8" d="M 123.5,184.5 C 121.518,187.81 119.185,190.81 116.5,193.5C 115.883,193.389 115.383,193.056 115,192.5C 114.503,189.854 114.336,187.187 114.5,184.5C 117.5,184.5 120.5,184.5 123.5,184.5 Z"/></g>
<g><path style="opacity:1" fill="#91bec1" d="M 120.5,195.5 C 122.228,197.877 124.561,199.544 127.5,200.5C 127.217,201.289 126.717,201.956 126,202.5C 124.167,201.333 122.333,200.167 120.5,199C 119.209,197.708 119.209,196.542 120.5,195.5 Z"/></g>
<g><path style="opacity:1" fill="#88cce2" d="M 241.5,168.5 C 241.833,168.5 242.167,168.5 242.5,168.5C 247.43,169.648 252.43,170.315 257.5,170.5C 258.833,170.5 260.167,170.5 261.5,170.5C 262.289,170.783 262.956,171.283 263.5,172C 258.826,172.114 254.493,173.28 250.5,175.5C 252.46,176.519 254.46,176.519 256.5,175.5C 256.122,177.921 255.455,180.254 254.5,182.5C 245.299,183.371 245.299,184.371 254.5,185.5C 249.668,191.008 244.002,195.341 237.5,198.5C 224.829,203.337 211.829,206.837 198.5,209C 200.5,209.333 202.5,209.667 204.5,210C 203.529,211.481 202.196,212.315 200.5,212.5C 190.143,212.328 179.81,212.661 169.5,213.5C 169.5,213.167 169.5,212.833 169.5,212.5C 164.68,211.513 159.68,210.847 154.5,210.5C 147.157,209.258 139.823,207.425 132.5,205C 130.017,204.433 129.35,203.267 130.5,201.5C 132.019,202.41 133.685,203.243 135.5,204C 164.27,208.915 191.937,205.582 218.5,194C 229.19,188.148 236.856,179.648 241.5,168.5 Z"/></g>
<g><path style="opacity:1" fill="#1d3836" d="M 271.5,300.5 C 270.375,299.348 270.375,298.348 271.5,297.5C 275.311,298.567 278.645,297.567 281.5,294.5C 284.817,291.87 287.15,288.537 288.5,284.5C 289.265,281.904 289.599,279.237 289.5,276.5C 289.5,273.5 289.5,270.5 289.5,267.5C 289.296,264.482 288.963,261.482 288.5,258.5C 288.101,254.989 287.434,251.656 286.5,248.5C 286.802,245.941 286.468,243.607 285.5,241.5C 285.5,236.167 285.5,230.833 285.5,225.5C 285.557,224.391 285.89,223.391 286.5,222.5C 290.94,217.559 296.607,214.892 303.5,214.5C 309.18,210.124 310.68,204.457 308,197.5C 305.6,195.585 303.1,193.919 300.5,192.5C 284.847,186.826 273.514,191.492 266.5,206.5C 264.218,212.248 263.218,218.248 263.5,224.5C 263.976,228.993 264.642,233.327 265.5,237.5C 265.674,239.861 266.007,242.194 266.5,244.5C 266.5,244.833 266.5,245.167 266.5,245.5C 265.691,247.292 265.191,249.292 265,251.5C 263.812,250.437 263.312,249.103 263.5,247.5C 264.147,246.726 264.48,245.726 264.5,244.5C 262.13,234.951 261.296,225.285 262,215.5C 268.079,190.009 282.912,182.509 306.5,193C 311.624,198.374 312.791,204.54 310,211.5C 305.063,215.873 299.229,218.373 292.5,219C 288.247,222.652 286.247,227.318 286.5,233C 288.82,245.918 290.486,258.918 291.5,272C 292.692,281.929 289.692,290.262 282.5,297C 279.14,299.064 275.474,300.231 271.5,300.5 Z"/></g>
<g><path style="opacity:1" fill="#f2f5f5" d="M 266.5,206.5 C 268.776,208.331 270.609,210.664 272,213.5C 273.926,215.539 276.093,217.206 278.5,218.5C 277.095,222.385 276.095,226.385 275.5,230.5C 273.436,230.313 271.436,229.813 269.5,229C 267.905,226.898 265.905,225.398 263.5,224.5C 263.218,218.248 264.218,212.248 266.5,206.5 Z"/></g>
<g><path style="opacity:1" fill="#385665" d="M 300.5,192.5 C 303.1,193.919 305.6,195.585 308,197.5C 310.68,204.457 309.18,210.124 303.5,214.5C 303.631,213.761 303.464,213.094 303,212.5C 299.218,213.739 295.385,214.905 291.5,216C 289.004,217.331 287.004,219.164 285.5,221.5C 283.716,221.107 282.05,220.441 280.5,219.5C 284.47,209.364 291.637,202.364 302,198.5C 302.748,196.16 302.248,194.16 300.5,192.5 Z"/></g>
<g><path style="opacity:1" fill="#9ba6a7" d="M 300.5,192.5 C 302.248,194.16 302.748,196.16 302,198.5C 291.637,202.364 284.47,209.364 280.5,219.5C 279.833,219.167 279.167,218.833 278.5,218.5C 276.093,217.206 273.926,215.539 272,213.5C 270.609,210.664 268.776,208.331 266.5,206.5C 273.514,191.492 284.847,186.826 300.5,192.5 Z"/></g>
<g><path style="opacity:1" fill="#6d8a87" d="M 303.5,214.5 C 296.607,214.892 290.94,217.559 286.5,222.5C 286.5,221.833 286.167,221.5 285.5,221.5C 287.004,219.164 289.004,217.331 291.5,216C 295.385,214.905 299.218,213.739 303,212.5C 303.464,213.094 303.631,213.761 303.5,214.5 Z"/></g>
<g><path style="opacity:1" fill="#9da6a8" d="M 263.5,224.5 C 265.905,225.398 267.905,226.898 269.5,229C 271.436,229.813 273.436,230.313 275.5,230.5C 275.5,230.833 275.5,231.167 275.5,231.5C 274.469,233.961 273.802,236.627 273.5,239.5C 270.662,238.83 268.162,237.496 266,235.5C 265.536,236.094 265.369,236.761 265.5,237.5C 264.642,233.327 263.976,228.993 263.5,224.5 Z"/></g>
<g><path style="opacity:1" fill="#94d1e4" d="M 278.5,218.5 C 279.167,218.833 279.833,219.167 280.5,219.5C 282.05,220.441 283.716,221.107 285.5,221.5C 286.167,221.5 286.5,221.833 286.5,222.5C 285.89,223.391 285.557,224.391 285.5,225.5C 284.834,228.028 284.168,230.694 283.5,233.5C 280.856,232.705 278.189,232.038 275.5,231.5C 275.5,231.167 275.5,230.833 275.5,230.5C 276.095,226.385 277.095,222.385 278.5,218.5 Z"/></g>
<g><path style="opacity:1" fill="#2f4447" d="M 137.5,231.5 C 137.583,233.57 138.583,233.903 140.5,232.5C 144.922,234.3 149.589,234.967 154.5,234.5C 163.565,234.457 172.565,235.124 181.5,236.5C 181.502,242.523 181.835,248.523 182.5,254.5C 173.025,254.677 165.025,252.011 158.5,246.5C 161.482,252.494 160.982,258.161 157,263.5C 152.178,269.577 146.345,270.91 139.5,267.5C 139.167,267.833 138.833,268.167 138.5,268.5C 140.489,273.659 143.489,278.159 147.5,282C 145.255,281.805 143.422,280.638 142,278.5C 134.332,266.154 132.499,252.987 136.5,239C 135.423,238.53 134.423,238.697 133.5,239.5C 134.326,236.515 135.659,233.849 137.5,231.5 Z"/></g>
<g><path style="opacity:1" fill="#486774" d="M 285.5,225.5 C 285.5,230.833 285.5,236.167 285.5,241.5C 281.443,241.152 277.443,240.486 273.5,239.5C 273.802,236.627 274.469,233.961 275.5,231.5C 278.189,232.038 280.856,232.705 283.5,233.5C 284.168,230.694 284.834,228.028 285.5,225.5 Z"/></g>
<g><path style="opacity:1" fill="#e7f2f2" d="M 273.5,239.5 C 273.777,242.448 273.444,245.281 272.5,248C 271.5,248.667 270.5,248.667 269.5,248C 268.837,246.482 267.837,245.315 266.5,244.5C 266.007,242.194 265.674,239.861 265.5,237.5C 265.369,236.761 265.536,236.094 266,235.5C 268.162,237.496 270.662,238.83 273.5,239.5 Z"/></g>
<g><path style="opacity:1" fill="#90cdde" d="M 273.5,239.5 C 277.443,240.486 281.443,241.152 285.5,241.5C 286.468,243.607 286.802,245.941 286.5,248.5C 285.552,249.978 284.219,250.978 282.5,251.5C 277.482,251.387 272.482,251.053 267.5,250.5C 266.962,248.883 266.629,247.216 266.5,245.5C 266.5,245.167 266.5,244.833 266.5,244.5C 267.837,245.315 268.837,246.482 269.5,248C 270.5,248.667 271.5,248.667 272.5,248C 273.444,245.281 273.777,242.448 273.5,239.5 Z"/></g>
<g><path style="opacity:1" fill="#03211c" d="M 237.5,198.5 C 241.987,198.82 244.82,201.153 246,205.5C 246.996,210.229 246.496,214.729 244.5,219C 246.689,219.677 247.022,220.844 245.5,222.5C 255.896,237.718 256.063,253.051 246,268.5C 241.319,273.349 236.485,278.015 231.5,282.5C 232.365,283.583 233.365,283.749 234.5,283C 252.611,270.915 259.277,254.081 254.5,232.5C 254.64,230.97 255.307,229.97 256.5,229.5C 257.11,230.391 257.443,231.391 257.5,232.5C 258.382,243.438 260.549,254.438 264,265.5C 265.582,274.492 267.082,283.492 268.5,292.5C 269.664,286.528 269.83,280.528 269,274.5C 266.797,265.092 264.297,255.759 261.5,246.5C 261.543,245.584 261.876,244.917 262.5,244.5C 263.11,245.391 263.443,246.391 263.5,247.5C 263.312,249.103 263.812,250.437 265,251.5C 265.191,249.292 265.691,247.292 266.5,245.5C 266.629,247.216 266.962,248.883 267.5,250.5C 267.185,254.371 267.518,258.038 268.5,261.5C 268.833,263.5 269.167,265.5 269.5,267.5C 270.103,271.273 270.77,274.939 271.5,278.5C 271.298,280.95 271.631,283.283 272.5,285.5C 272.721,288.279 272.388,290.946 271.5,293.5C 271.5,294.833 271.5,296.167 271.5,297.5C 270.375,298.348 270.375,299.348 271.5,300.5C 270.167,300.5 269.5,301.167 269.5,302.5C 268.778,302.082 268.278,301.416 268,300.5C 267.536,301.094 267.369,301.761 267.5,302.5C 262.811,306.845 257.478,310.179 251.5,312.5C 250.504,312.586 249.671,312.252 249,311.5C 248.79,309.942 248.29,308.609 247.5,307.5C 246.074,297.767 240.407,293.933 230.5,296C 222.964,301.91 219.297,309.743 219.5,319.5C 218.833,322.833 218.167,326.167 217.5,329.5C 217.5,327.167 217.5,324.833 217.5,322.5C 203.661,321.678 189.661,321.012 175.5,320.5C 167.714,318.929 159.88,317.596 152,316.5C 150.862,316.989 149.695,317.322 148.5,317.5C 145.616,311.289 141.616,305.955 136.5,301.5C 136.785,299.712 136.452,298.045 135.5,296.5C 134.575,297.641 133.741,297.641 133,296.5C 131.215,284.023 131.049,271.523 132.5,259C 132.736,254.562 132.069,251.062 130.5,248.5C 131.304,245.421 132.304,242.421 133.5,239.5C 134.423,238.697 135.423,238.53 136.5,239C 132.499,252.987 134.332,266.154 142,278.5C 143.422,280.638 145.255,281.805 147.5,282C 143.489,278.159 140.489,273.659 138.5,268.5C 138.833,268.167 139.167,267.833 139.5,267.5C 146.345,270.91 152.178,269.577 157,263.5C 160.982,258.161 161.482,252.494 158.5,246.5C 165.025,252.011 173.025,254.677 182.5,254.5C 181.835,248.523 181.502,242.523 181.5,236.5C 172.565,235.124 163.565,234.457 154.5,234.5C 152.708,233.691 150.708,233.191 148.5,233C 147.833,232 147.167,231 146.5,230C 142.272,229.263 140.605,226.763 141.5,222.5C 141.792,214.179 146.125,210.179 154.5,210.5C 159.68,210.847 164.68,211.513 169.5,212.5C 166.15,212.335 162.817,212.502 159.5,213C 160.044,213.717 160.711,214.217 161.5,214.5C 168.72,219.212 175.22,224.878 181,231.5C 182.707,229.963 184.207,228.296 185.5,226.5C 190.116,228.914 194.783,228.747 199.5,226C 208.365,222.569 217.032,218.569 225.5,214C 226.337,212.989 226.67,211.822 226.5,210.5C 219.899,211.639 213.233,212.472 206.5,213C 204.913,213.862 203.246,214.529 201.5,215C 197.352,218.314 193.352,221.814 189.5,225.5C 188.913,224.767 188.913,223.767 189.5,222.5C 193.192,219.138 196.859,215.805 200.5,212.5C 202.196,212.315 203.529,211.481 204.5,210C 202.5,209.667 200.5,209.333 198.5,209C 211.829,206.837 224.829,203.337 237.5,198.5 Z"/></g>
<g><path style="opacity:1" fill="#2f4646" d="M 185.5,226.5 C 186.5,224.833 187.833,223.5 189.5,222.5C 188.913,223.767 188.913,224.767 189.5,225.5C 193.352,221.814 197.352,218.314 201.5,215C 203.246,214.529 204.913,213.862 206.5,213C 213.233,212.472 219.899,211.639 226.5,210.5C 226.67,211.822 226.337,212.989 225.5,214C 217.032,218.569 208.365,222.569 199.5,226C 194.783,228.747 190.116,228.914 185.5,226.5 Z"/></g>
<g><path style="opacity:1" fill="#2f4448" d="M 221.5,247.5 C 223.384,244.397 224.717,241.064 225.5,237.5C 225.305,234.782 224.305,232.449 222.5,230.5C 221.895,228.974 220.729,227.974 219,227.5C 216.032,228.805 213.699,230.805 212,233.5C 203.796,230.096 199.462,232.763 199,241.5C 201.875,248.997 205.708,249.497 210.5,243C 212.59,242.732 213.924,243.732 214.5,246C 212.676,246.66 211.343,247.827 210.5,249.5C 202.213,252.882 193.546,254.549 184.5,254.5C 183.835,248.523 183.502,242.523 183.5,236.5C 195.779,231.424 208.446,227.257 221.5,224C 227.811,222.935 234.144,222.602 240.5,223C 246.355,227.714 249.021,233.88 248.5,241.5C 248.987,250.271 246.821,258.271 242,265.5C 237.297,270.384 231.797,271.551 225.5,269C 223.765,266.808 222.598,264.308 222,261.5C 221.748,258.333 221.582,255.333 221.5,252.5C 217.764,255.11 213.764,256.944 209.5,258C 213.666,255.083 217.999,252.416 222.5,250C 223.883,248.539 223.549,247.706 221.5,247.5 Z"/></g>
<g><path style="opacity:1" fill="#92e6d6" d="M 222.5,230.5 C 224.305,232.449 225.305,234.782 225.5,237.5C 224.717,241.064 223.384,244.397 221.5,247.5C 220.5,247.5 219.5,247.5 218.5,247.5C 216.84,244.534 214.507,242.2 211.5,240.5C 203.946,248.135 200.779,246.469 202,235.5C 202.739,234.426 203.739,233.759 205,233.5C 210.474,239.424 214.64,238.591 217.5,231C 219.134,230.506 220.801,230.34 222.5,230.5 Z"/></g>
<g><path style="opacity:1" fill="#30504e" d="M 222.5,230.5 C 220.801,230.34 219.134,230.506 217.5,231C 214.64,238.591 210.474,239.424 205,233.5C 203.739,233.759 202.739,234.426 202,235.5C 200.779,246.469 203.946,248.135 211.5,240.5C 214.507,242.2 216.84,244.534 218.5,247.5C 215.673,247.584 213.006,248.25 210.5,249.5C 211.343,247.827 212.676,246.66 214.5,246C 213.924,243.732 212.59,242.732 210.5,243C 205.708,249.497 201.875,248.997 199,241.5C 199.462,232.763 203.796,230.096 212,233.5C 213.699,230.805 216.032,228.805 219,227.5C 220.729,227.974 221.895,228.974 222.5,230.5 Z"/></g>
<g><path style="opacity:1" fill="#2f4545" d="M 146.5,215.5 C 150.182,215.335 153.848,215.501 157.5,216C 164.853,219.015 171.187,223.515 176.5,229.5C 174.579,230.641 172.579,230.808 170.5,230C 162.796,227.434 155.462,224.101 148.5,220C 146.963,218.89 146.297,217.39 146.5,215.5 Z"/></g>
<g><path style="opacity:1" fill="#eaf2f2" d="M 200.5,212.5 C 196.859,215.805 193.192,219.138 189.5,222.5C 187.833,223.5 186.5,224.833 185.5,226.5C 184.207,228.296 182.707,229.963 181,231.5C 175.22,224.878 168.72,219.212 161.5,214.5C 163.948,213.527 166.615,213.194 169.5,213.5C 179.81,212.661 190.143,212.328 200.5,212.5 Z"/></g>
<g><path style="opacity:1" fill="#3d6a7a" d="M 169.5,212.5 C 169.5,212.833 169.5,213.167 169.5,213.5C 166.615,213.194 163.948,213.527 161.5,214.5C 160.711,214.217 160.044,213.717 159.5,213C 162.817,212.502 166.15,212.335 169.5,212.5 Z"/></g>
<g><path style="opacity:1" fill="#284340" d="M 257.5,232.5 C 259.928,236.099 261.594,240.099 262.5,244.5C 261.876,244.917 261.543,245.584 261.5,246.5C 264.297,255.759 266.797,265.092 269,274.5C 269.83,280.528 269.664,286.528 268.5,292.5C 267.082,283.492 265.582,274.492 264,265.5C 260.549,254.438 258.382,243.438 257.5,232.5 Z"/></g>
<g><path style="opacity:1" fill="#395d6c" d="M 267.5,250.5 C 272.482,251.053 277.482,251.387 282.5,251.5C 284.821,253.09 285.821,255.423 285.5,258.5C 280.099,259.825 274.599,259.825 269,258.5C 268.517,259.448 268.351,260.448 268.5,261.5C 267.518,258.038 267.185,254.371 267.5,250.5 Z"/></g>
<g><path style="opacity:1" fill="#788f91" d="M 286.5,248.5 C 287.434,251.656 288.101,254.989 288.5,258.5C 287.5,258.5 286.5,258.5 285.5,258.5C 285.821,255.423 284.821,253.09 282.5,251.5C 284.219,250.978 285.552,249.978 286.5,248.5 Z"/></g>
<g><path style="opacity:1" fill="#304448" d="M 184.5,259.5 C 193.398,259.652 202.064,261.152 210.5,264C 215.355,275.524 223.688,283.191 235.5,287C 236.76,288.814 236.76,290.647 235.5,292.5C 234.571,291.311 234.238,289.978 234.5,288.5C 231.121,288.147 228.121,286.813 225.5,284.5C 220.512,286.907 215.179,288.074 209.5,288C 199.839,288.5 190.172,288.666 180.5,288.5C 179.807,278.506 181.141,268.839 184.5,259.5 Z"/></g>
<g><path style="opacity:1" fill="#2f4447" d="M 172.5,260.5 C 175.572,260.183 178.572,260.516 181.5,261.5C 179.27,270.345 178.27,279.345 178.5,288.5C 178.643,296.896 179.143,305.23 180,313.5C 178.754,310.639 177.754,307.639 177,304.5C 176.667,299.167 176.333,293.833 176,288.5C 166.583,287.658 157.75,285.658 149.5,282.5C 154.119,271.538 161.786,264.204 172.5,260.5 Z"/></g>
<g><path style="opacity:1" fill="#8cd3e9" d="M 285.5,258.5 C 286.5,258.5 287.5,258.5 288.5,258.5C 288.963,261.482 289.296,264.482 289.5,267.5C 283.925,268.452 278.259,268.786 272.5,268.5C 271.609,267.89 270.609,267.557 269.5,267.5C 269.167,265.5 268.833,263.5 268.5,261.5C 268.351,260.448 268.517,259.448 269,258.5C 274.599,259.825 280.099,259.825 285.5,258.5 Z"/></g>
<g><path style="opacity:1" fill="#355665" d="M 269.5,267.5 C 270.609,267.557 271.609,267.89 272.5,268.5C 276.97,269.486 281.637,269.819 286.5,269.5C 286.5,271.833 286.5,274.167 286.5,276.5C 281.056,275.892 276.056,276.558 271.5,278.5C 270.77,274.939 270.103,271.273 269.5,267.5 Z"/></g>
<g><path style="opacity:1" fill="#849a9d" d="M 289.5,267.5 C 289.5,270.5 289.5,273.5 289.5,276.5C 288.5,276.5 287.5,276.5 286.5,276.5C 286.5,274.167 286.5,271.833 286.5,269.5C 281.637,269.819 276.97,269.486 272.5,268.5C 278.259,268.786 283.925,268.452 289.5,267.5 Z"/></g>
<g><path style="opacity:1" fill="#84cae0" d="M 286.5,276.5 C 285.735,279.096 285.401,281.763 285.5,284.5C 284.833,284.5 284.5,284.833 284.5,285.5C 280.5,285.5 276.5,285.5 272.5,285.5C 271.631,283.283 271.298,280.95 271.5,278.5C 276.056,276.558 281.056,275.892 286.5,276.5 Z"/></g>
<g><path style="opacity:1" fill="#d8eff0" d="M 286.5,276.5 C 287.5,276.5 288.5,276.5 289.5,276.5C 289.599,279.237 289.265,281.904 288.5,284.5C 287.5,284.5 286.5,284.5 285.5,284.5C 285.401,281.763 285.735,279.096 286.5,276.5 Z"/></g>
<g><path style="opacity:1" fill="#395866" d="M 272.5,285.5 C 276.5,285.5 280.5,285.5 284.5,285.5C 282.805,289.195 280.139,291.861 276.5,293.5C 274.833,293.5 273.167,293.5 271.5,293.5C 272.388,290.946 272.721,288.279 272.5,285.5 Z"/></g>
<g><path style="opacity:1" fill="#90a0a3" d="M 285.5,284.5 C 286.5,284.5 287.5,284.5 288.5,284.5C 287.15,288.537 284.817,291.87 281.5,294.5C 280.081,293.549 278.415,293.216 276.5,293.5C 280.139,291.861 282.805,289.195 284.5,285.5C 284.5,284.833 284.833,284.5 285.5,284.5 Z"/></g>
<g><path style="opacity:1" fill="#7e9c98" d="M 126.5,283.5 C 127.479,286.625 127.813,289.958 127.5,293.5C 125.167,293.5 122.833,293.5 120.5,293.5C 122.833,293.5 125.167,293.5 127.5,293.5C 127.813,289.958 127.479,286.625 126.5,283.5 Z"/></g>
<g><path style="opacity:1" fill="#d9e1e1" d="M 271.5,293.5 C 273.167,293.5 274.833,293.5 276.5,293.5C 278.415,293.216 280.081,293.549 281.5,294.5C 278.645,297.567 275.311,298.567 271.5,297.5C 271.5,296.167 271.5,294.833 271.5,293.5 Z"/></g>
<g><path style="opacity:1" fill="#f1f2f4" d="M 247.5,307.5 C 247.564,313.262 246.897,318.929 245.5,324.5C 242.868,328.734 239.534,332.401 235.5,335.5C 234.883,335.389 234.383,335.056 234,334.5C 229.822,336.399 225.322,337.065 220.5,336.5C 219.548,330.925 219.214,325.259 219.5,319.5C 219.297,309.743 222.964,301.91 230.5,296C 240.407,293.933 246.074,297.767 247.5,307.5 Z"/></g>
<g><path style="opacity:1" fill="#28413e" d="M 130.5,248.5 C 132.069,251.062 132.736,254.562 132.5,259C 131.049,271.523 131.215,284.023 133,296.5C 133.741,297.641 134.575,297.641 135.5,296.5C 136.452,298.045 136.785,299.712 136.5,301.5C 131.245,296.219 124.912,294.386 117.5,296C 115.393,297.264 114.393,299.097 114.5,301.5C 114.335,304.518 114.502,307.518 115,310.5C 117.503,314.123 119.67,317.79 121.5,321.5C 122.026,323.23 123.026,324.564 124.5,325.5C 127.064,329.117 130.397,331.784 134.5,333.5C 139.04,336.296 144.04,337.129 149.5,336C 152.062,333.587 155.062,331.92 158.5,331C 168.727,328.255 179.06,326.088 189.5,324.5C 191.857,324.337 194.19,324.503 196.5,325C 202.683,327.45 209.016,329.617 215.5,331.5C 216.713,331.253 217.38,330.586 217.5,329.5C 218.167,326.167 218.833,322.833 219.5,319.5C 219.214,325.259 219.548,330.925 220.5,336.5C 220.933,339.195 222.266,341.362 224.5,343C 228.594,343.767 232.594,343.434 236.5,342C 242.724,335.039 249.058,328.206 255.5,321.5C 261.259,316.324 265.259,309.991 267.5,302.5C 267.369,301.761 267.536,301.094 268,300.5C 268.278,301.416 268.778,302.082 269.5,302.5C 265.58,313.927 258.746,323.26 249,330.5C 244.822,339.035 238.155,344.035 229,345.5C 227.167,345.333 225.333,345.167 223.5,345C 220.45,341.9 218.45,338.233 217.5,334C 208.43,331.65 199.43,329.15 190.5,326.5C 176.069,328.021 162.402,331.855 149.5,338C 145.5,338.667 141.5,338.667 137.5,338C 126.618,331.78 118.451,322.947 113,311.5C 110.51,305.936 111.01,300.77 114.5,296C 116.217,294.441 118.217,293.608 120.5,293.5C 122.833,293.5 125.167,293.5 127.5,293.5C 127.813,289.958 127.479,286.625 126.5,283.5C 125.739,271.443 127.073,259.776 130.5,248.5 Z"/></g>
<g><path style="opacity:1" fill="#e2efef" d="M 189.5,324.5 C 179.06,326.088 168.727,328.255 158.5,331C 155.062,331.92 152.062,333.587 149.5,336C 144.04,337.129 139.04,336.296 134.5,333.5C 135.778,333.218 136.778,332.551 137.5,331.5C 139.646,331.878 141.813,332.212 144,332.5C 150.212,330.65 156.378,328.817 162.5,327C 168.325,326.851 173.992,325.851 179.5,324C 183.027,323.192 186.36,323.359 189.5,324.5 Z"/></g>
<g><path style="opacity:1" fill="#d4a5bc" d="M 135.5,322.5 C 136.117,322.611 136.617,322.944 137,323.5C 137.497,326.146 137.664,328.813 137.5,331.5C 136.778,332.551 135.778,333.218 134.5,333.5C 130.397,331.784 127.064,329.117 124.5,325.5C 128.52,326.676 132.354,328.342 136,330.5C 136.602,327.779 136.435,325.113 135.5,322.5 Z"/></g>
<g><path style="opacity:1" fill="#6ea6b4" d="M 193.5,322.5 C 201.5,322.5 209.5,322.5 217.5,322.5C 217.5,324.833 217.5,327.167 217.5,329.5C 216.448,329.649 215.448,329.483 214.5,329C 215.406,327.301 215.739,325.467 215.5,323.5C 207.981,323.825 200.648,323.492 193.5,322.5 Z"/></g>
<g><path style="opacity:1" fill="#194144" d="M 175.5,320.5 C 189.661,321.012 203.661,321.678 217.5,322.5C 209.5,322.5 201.5,322.5 193.5,322.5C 187.261,322.724 181.261,322.057 175.5,320.5 Z"/></g>
<g><path style="opacity:1" fill="#8dd1e5" d="M 131.5,311.5 C 135.484,313.495 139.151,315.995 142.5,319C 143.5,319.167 144.5,319.333 145.5,319.5C 147.03,319.36 148.03,318.693 148.5,317.5C 149.695,317.322 150.862,316.989 152,316.5C 159.88,317.596 167.714,318.929 175.5,320.5C 181.261,322.057 187.261,322.724 193.5,322.5C 200.648,323.492 207.981,323.825 215.5,323.5C 215.739,325.467 215.406,327.301 214.5,329C 215.448,329.483 216.448,329.649 217.5,329.5C 217.38,330.586 216.713,331.253 215.5,331.5C 209.016,329.617 202.683,327.45 196.5,325C 194.19,324.503 191.857,324.337 189.5,324.5C 186.36,323.359 183.027,323.192 179.5,324C 173.992,325.851 168.325,326.851 162.5,327C 156.378,328.817 150.212,330.65 144,332.5C 141.813,332.212 139.646,331.878 137.5,331.5C 137.664,328.813 137.497,326.146 137,323.5C 136.617,322.944 136.117,322.611 135.5,322.5C 135.5,321.833 135.5,321.167 135.5,320.5C 134.163,317.978 132.496,315.645 130.5,313.5C 130.863,312.817 131.196,312.15 131.5,311.5 Z"/></g>
<g><path style="opacity:1" fill="#d080a1" d="M 135.5,320.5 C 135.5,321.167 135.5,321.833 135.5,322.5C 136.435,325.113 136.602,327.779 136,330.5C 132.354,328.342 128.52,326.676 124.5,325.5C 123.026,324.564 122.026,323.23 121.5,321.5C 120.884,317.505 122.55,315.505 126.5,315.5C 129.326,317.415 132.326,319.081 135.5,320.5 Z"/></g>
<g><path style="opacity:1" fill="#8accdf" d="M 267.5,302.5 C 265.259,309.991 261.259,316.324 255.5,321.5C 255.44,320.957 255.107,320.624 254.5,320.5C 252.698,321.986 250.698,322.986 248.5,323.5C 248.678,319.498 249.678,315.831 251.5,312.5C 257.478,310.179 262.811,306.845 267.5,302.5 Z"/></g>
<g><path style="opacity:1" fill="#f0b4cb" d="M 230.5,312.5 C 235.922,313.46 238.255,316.794 237.5,322.5C 237.549,329.96 234.049,333.293 227,332.5C 222.959,324.78 224.126,318.113 230.5,312.5 Z"/></g>
<g><path style="opacity:1" fill="#9dc2d9" d="M 126.5,306.5 C 125.549,307.919 125.216,309.585 125.5,311.5C 127.415,311.784 129.081,311.451 130.5,310.5C 131.167,310.5 131.5,310.833 131.5,311.5C 131.196,312.15 130.863,312.817 130.5,313.5C 132.496,315.645 134.163,317.978 135.5,320.5C 132.326,319.081 129.326,317.415 126.5,315.5C 122.55,315.505 120.884,317.505 121.5,321.5C 119.67,317.79 117.503,314.123 115,310.5C 114.502,307.518 114.335,304.518 114.5,301.5C 119.587,300.193 123.587,301.859 126.5,306.5 Z"/></g>
<g><path style="opacity:1" fill="#274a4d" d="M 247.5,307.5 C 248.29,308.609 248.79,309.942 249,311.5C 249.671,312.252 250.504,312.586 251.5,312.5C 249.678,315.831 248.678,319.498 248.5,323.5C 248.167,324.167 247.833,324.833 247.5,325.5C 246.508,325.672 245.842,325.338 245.5,324.5C 246.897,318.929 247.564,313.262 247.5,307.5 Z"/></g>
<g><path style="opacity:1" fill="#c09eb9" d="M 126.5,306.5 C 130.44,305.766 131.773,307.099 130.5,310.5C 129.081,311.451 127.415,311.784 125.5,311.5C 125.216,309.585 125.549,307.919 126.5,306.5 Z"/></g>
<g><path style="opacity:1" fill="#c383a3" d="M 116.5,305.5 C 122.158,304.679 123.825,306.846 121.5,312C 120.101,312.595 118.768,312.428 117.5,311.5C 116.534,309.604 116.201,307.604 116.5,305.5 Z"/></g>
<g><path style="opacity:1" fill="#ecbccf" d="M 225.5,305.5 C 226.833,305.5 228.167,305.5 229.5,305.5C 229.868,308.056 229.034,310.056 227,311.5C 224.535,309.946 224.035,307.946 225.5,305.5 Z"/></g>
<g><path style="opacity:1" fill="#eff4f4" d="M 136.5,301.5 C 141.616,305.955 145.616,311.289 148.5,317.5C 148.03,318.693 147.03,319.36 145.5,319.5C 144.5,319.333 143.5,319.167 142.5,319C 139.151,315.995 135.484,313.495 131.5,311.5C 131.5,310.833 131.167,310.5 130.5,310.5C 131.773,307.099 130.44,305.766 126.5,306.5C 123.587,301.859 119.587,300.193 114.5,301.5C 114.393,299.097 115.393,297.264 117.5,296C 124.912,294.386 131.245,296.219 136.5,301.5 Z"/></g>
<g><path style="opacity:1" fill="#ebbecf" d="M 233.5,300.5 C 238.383,301.466 239.717,304.299 237.5,309C 232.504,309.664 230.67,307.498 232,302.5C 232.717,301.956 233.217,301.289 233.5,300.5 Z"/></g>
<g><path style="opacity:1" fill="#a5d4e0" d="M 245.5,324.5 C 245.842,325.338 246.508,325.672 247.5,325.5C 244.382,331.786 239.715,336.619 233.5,340C 230.833,340.667 228.167,340.667 225.5,340C 229.07,338.792 232.403,337.292 235.5,335.5C 239.534,332.401 242.868,328.734 245.5,324.5 Z"/></g>
<g><path style="opacity:1" fill="#d6eaea" d="M 255.5,321.5 C 249.058,328.206 242.724,335.039 236.5,342C 232.594,343.434 228.594,343.767 224.5,343C 222.266,341.362 220.933,339.195 220.5,336.5C 225.322,337.065 229.822,336.399 234,334.5C 234.383,335.056 234.883,335.389 235.5,335.5C 232.403,337.292 229.07,338.792 225.5,340C 228.167,340.667 230.833,340.667 233.5,340C 239.715,336.619 244.382,331.786 247.5,325.5C 247.833,324.833 248.167,324.167 248.5,323.5C 250.698,322.986 252.698,321.986 254.5,320.5C 255.107,320.624 255.44,320.957 255.5,321.5 Z"/></g>
</svg>
