<?xml version="1.0" encoding="UTF-8"?>
<svg id="Layer_2" data-name="Layer 2" xmlns="http://www.w3.org/2000/svg" viewBox="0 0 32 32">
  <defs>
    <style>
      .cls-1 {
        fill: #fefefe;
      }
    </style>
  </defs>
  <g id="Layer_1-2" data-name="Layer 1">
    <g>
      <circle cx="16" cy="16" r="16"/>
      <path class="cls-1" d="M8.1685970878,25.6837689382l1.5669906086-10.2003961777h-2.8383226118l.2971375925-1.9793476242,2.8388731791-.0143524735.2049314693-1.2881664985h-2.8383226118l.3232262327-1.9681615886,2.8400365871-.013056984.5915008346-3.9322054293,8.0580213154-.0010728498c3.8964409465.2825991617,6.7080044296,3.8491848464,6.0356560535,7.7234894422-.4515889027,2.6022119238-2.4965893201,4.7218877024-5.0756697024,5.2724715757-1.463882252.312510601-3.0339588686.085973285-4.5259245723.1750502444l-1.0179938466,6.2257483633h-6.4601405278Z"/>
      <path d="M12.9582664951,23.7028224342h-2.4835322853l1.2755135507-8.2153578674,7.2208677628-.0078954627c2.2783267746-.2881533914,3.1659271022-3.1502083853,1.3789670652-4.6532499108-.3204467794-.2695330652-1.0142537976-.605759533-1.4342951947-.605759533h-6.3418770856l.3152791147-1.9525995651,6.2052270263-.0000144864c5.5783721942.5383370643,5.6806259421,8.4876890415.1166503614,9.1664280952l-5.2492657718.0134576341-1.0035345437,6.2549910962Z"/>
      <path d="M12.0417248184,13.5024262565l.2241147846-1.3026726276,6.494419066.0094521278c.5758694888.0825577307.7616468909.854594325.2810429484,1.1822059423-.0266894773.0181933231-.2021483781.1110145575-.2142118053.1110145575h-6.7853649937Z"/>
    </g>
  </g>
</svg>