<?xml version="1.0" encoding="UTF-8"?>
<!DOCTYPE svg PUBLIC "-//W3C//DTD SVG 1.1//EN" "http://www.w3.org/Graphics/SVG/1.1/DTD/svg11.dtd">
<svg xmlns="http://www.w3.org/2000/svg" version="1.1" width="733px" height="708px" style="shape-rendering:geometricPrecision; text-rendering:geometricPrecision; image-rendering:optimizeQuality; fill-rule:evenodd; clip-rule:evenodd" xmlns:xlink="http://www.w3.org/1999/xlink">
<g><path style="opacity:0.052" fill="#000000" d="M 137.5,-0.5 C 259.167,-0.5 380.833,-0.5 502.5,-0.5C 505.337,1.40229 508.671,2.06896 512.5,1.5C 512.5,2.5 512.5,3.5 512.5,4.5C 514.5,4.5 516.5,4.5 518.5,4.5C 518.5,5.5 518.5,6.5 518.5,7.5C 519.833,7.5 521.167,7.5 522.5,7.5C 522.5,8.5 522.5,9.5 522.5,10.5C 524.5,10.5 526.5,10.5 528.5,10.5C 528.5,11.5 528.5,12.5 528.5,13.5C 530.5,13.5 532.5,13.5 534.5,13.5C 534.5,14.8333 534.5,16.1667 534.5,17.5C 536.833,17.5 539.167,17.5 541.5,17.5C 541.5,18.5 541.5,19.5 541.5,20.5C 542.5,20.5 543.5,20.5 544.5,20.5C 544.5,21.5 544.5,22.5 544.5,23.5C 546.5,23.5 548.5,23.5 550.5,23.5C 550.5,24.5 550.5,25.5 550.5,26.5C 552.833,26.5 555.167,26.5 557.5,26.5C 558.801,28.6719 559.801,31.0052 560.5,33.5C 562.5,33.5 564.5,33.5 566.5,33.5C 566.5,34.5 566.5,35.5 566.5,36.5C 567.833,36.5 569.167,36.5 570.5,36.5C 570.5,37.5 570.5,38.5 570.5,39.5C 571.5,39.5 572.5,39.5 573.5,39.5C 573.5,40.5 573.5,41.5 573.5,42.5C 575.5,42.5 577.5,42.5 579.5,42.5C 579.5,43.5 579.5,44.5 579.5,45.5C 580.5,45.5 581.5,45.5 582.5,45.5C 582.5,46.8333 582.5,48.1667 582.5,49.5C 583.833,49.5 585.167,49.5 586.5,49.5C 586.5,50.5 586.5,51.5 586.5,52.5C 588.5,52.5 590.5,52.5 592.5,52.5C 592.5,53.5 592.5,54.5 592.5,55.5C 593.5,55.5 594.5,55.5 595.5,55.5C 595.5,56.5 595.5,57.5 595.5,58.5C 596.5,58.5 597.5,58.5 598.5,58.5C 598.5,59.5 598.5,60.5 598.5,61.5C 601.5,61.1667 602.833,62.5 602.5,65.5C 603.5,65.5 604.5,65.5 605.5,65.5C 605.5,66.5 605.5,67.5 605.5,68.5C 606.5,68.5 607.5,68.5 608.5,68.5C 608.5,69.5 608.5,70.5 608.5,71.5C 610.5,71.5 612.5,71.5 614.5,71.5C 614.5,72.5 614.5,73.5 614.5,74.5C 615.822,74.33 616.989,74.6634 618,75.5C 618.495,77.4727 618.662,79.4727 618.5,81.5C 619.5,81.5 620.5,81.5 621.5,81.5C 621.5,82.5 621.5,83.5 621.5,84.5C 622.5,84.5 623.5,84.5 624.5,84.5C 624.5,85.5 624.5,86.5 624.5,87.5C 625.5,87.5 626.5,87.5 627.5,87.5C 627.5,88.5 627.5,89.5 627.5,90.5C 628.5,90.5 629.5,90.5 630.5,90.5C 630.5,91.5 630.5,92.5 630.5,93.5C 631.822,93.33 632.989,93.6634 634,94.5C 634.495,96.4727 634.662,98.4727 634.5,100.5C 635.5,100.5 636.5,100.5 637.5,100.5C 637.5,101.5 637.5,102.5 637.5,103.5C 638.5,103.5 639.5,103.5 640.5,103.5C 640.5,105.5 640.5,107.5 640.5,109.5C 641.5,109.5 642.5,109.5 643.5,109.5C 643.5,110.833 643.5,112.167 643.5,113.5C 644.5,113.5 645.5,113.5 646.5,113.5C 646.5,115.5 646.5,117.5 646.5,119.5C 647.833,119.5 649.167,119.5 650.5,119.5C 651.858,123.712 652.858,128.045 653.5,132.5C 654.5,132.5 655.5,132.5 656.5,132.5C 656.5,134.5 656.5,136.5 656.5,138.5C 657.5,138.5 658.5,138.5 659.5,138.5C 659.5,140.833 659.5,143.167 659.5,145.5C 660.5,145.5 661.5,145.5 662.5,145.5C 662.5,147.5 662.5,149.5 662.5,151.5C 663.833,151.5 665.167,151.5 666.5,151.5C 666.064,154.364 666.897,156.697 669,158.5C 669.498,161.482 669.665,164.482 669.5,167.5C 670.5,167.5 671.5,167.5 672.5,167.5C 672.5,170.833 672.5,174.167 672.5,177.5C 673.5,177.5 674.5,177.5 675.5,177.5C 675.5,181.5 675.5,185.5 675.5,189.5C 676.5,189.5 677.5,189.5 678.5,189.5C 678.5,196.167 678.5,202.833 678.5,209.5C 679.833,209.5 681.167,209.5 682.5,209.5C 682.667,225.17 682.5,240.837 682,256.5C 680.989,257.337 679.822,257.67 678.5,257.5C 678.5,263.833 678.5,270.167 678.5,276.5C 677.5,276.5 676.5,276.5 675.5,276.5C 675.5,280.833 675.5,285.167 675.5,289.5C 674.5,289.5 673.5,289.5 672.5,289.5C 670.737,298.686 669.737,308.186 669.5,318C 669.833,323.167 670.167,328.333 670.5,333.5C 672.111,334.32 672.778,335.654 672.5,337.5C 673.5,337.5 674.5,337.5 675.5,337.5C 675.5,338.5 675.5,339.5 675.5,340.5C 676.5,340.5 677.5,340.5 678.5,340.5C 678.5,341.5 678.5,342.5 678.5,343.5C 679.833,343.5 681.167,343.5 682.5,343.5C 682.5,344.5 682.5,345.5 682.5,346.5C 685.5,346.5 688.5,346.5 691.5,346.5C 691.5,347.5 691.5,348.5 691.5,349.5C 693.527,349.338 695.527,349.505 697.5,350C 698.337,351.011 698.67,352.178 698.5,353.5C 700.5,353.5 702.5,353.5 704.5,353.5C 704.5,354.5 704.5,355.5 704.5,356.5C 706.5,356.5 708.5,356.5 710.5,356.5C 710.5,357.5 710.5,358.5 710.5,359.5C 712.833,359.5 715.167,359.5 717.5,359.5C 717.5,360.5 717.5,361.5 717.5,362.5C 718.5,362.5 719.5,362.5 720.5,362.5C 720.5,363.5 720.5,364.5 720.5,365.5C 722.5,365.5 724.5,365.5 726.5,365.5C 726.5,366.833 726.5,368.167 726.5,369.5C 728.5,369.5 730.5,369.5 732.5,369.5C 732.5,482.167 732.5,594.833 732.5,707.5C 635.5,707.5 538.5,707.5 441.5,707.5C 441.179,705.952 440.179,705.285 438.5,705.5C 438.5,704.5 438.5,703.5 438.5,702.5C 437.5,702.5 436.5,702.5 435.5,702.5C 435.5,701.167 435.5,699.833 435.5,698.5C 434.5,698.5 433.5,698.5 432.5,698.5C 432.5,697.5 432.5,696.5 432.5,695.5C 431.5,695.5 430.5,695.5 429.5,695.5C 429.5,694.5 429.5,693.5 429.5,692.5C 427.005,691.801 424.672,690.801 422.5,689.5C 422.5,688.5 422.5,687.5 422.5,686.5C 421.5,686.5 420.5,686.5 419.5,686.5C 419.5,685.167 419.5,683.833 419.5,682.5C 418.5,682.5 417.5,682.5 416.5,682.5C 416.5,681.5 416.5,680.5 416.5,679.5C 412.167,679.5 407.833,679.5 403.5,679.5C 403.5,680.5 403.5,681.5 403.5,682.5C 402.5,682.5 401.5,682.5 400.5,682.5C 399.801,684.995 398.801,687.328 397.5,689.5C 395.328,690.801 392.995,691.801 390.5,692.5C 390.5,693.5 390.5,694.5 390.5,695.5C 389.5,695.5 388.5,695.5 387.5,695.5C 387.5,696.5 387.5,697.5 387.5,698.5C 386.5,698.5 385.5,698.5 384.5,698.5C 383.801,700.995 382.801,703.328 381.5,705.5C 379.821,705.285 378.821,705.952 378.5,707.5C 275.833,707.5 173.167,707.5 70.5,707.5C 70.1788,705.952 69.1788,705.285 67.5,705.5C 67.5,704.5 67.5,703.5 67.5,702.5C 65.5,702.5 63.5,702.5 61.5,702.5C 61.5,701.167 61.5,699.833 61.5,698.5C 60.1667,698.5 58.8333,698.5 57.5,698.5C 57.5,697.5 57.5,696.5 57.5,695.5C 56.5,695.5 55.5,695.5 54.5,695.5C 54.5,694.5 54.5,693.5 54.5,692.5C 52.5,692.5 50.5,692.5 48.5,692.5C 48.5,691.5 48.5,690.5 48.5,689.5C 47.5,689.5 46.5,689.5 45.5,689.5C 45.5,688.5 45.5,687.5 45.5,686.5C 42.5,686.833 41.1667,685.5 41.5,682.5C 40.5,682.5 39.5,682.5 38.5,682.5C 38.5,681.5 38.5,680.5 38.5,679.5C 37.5,679.5 36.5,679.5 35.5,679.5C 35.5,678.5 35.5,677.5 35.5,676.5C 34.5,676.5 33.5,676.5 32.5,676.5C 32.5,675.5 32.5,674.5 32.5,673.5C 27.0056,674.12 23.6723,671.787 22.5,666.5C 21.5,666.5 20.5,666.5 19.5,666.5C 19.5,664.5 19.5,662.5 19.5,660.5C 18.5,660.5 17.5,660.5 16.5,660.5C 16.5,659.5 16.5,658.5 16.5,657.5C 15.5,657.5 14.5,657.5 13.5,657.5C 13.5,656.5 13.5,655.5 13.5,654.5C 10.5,654.833 9.16667,653.5 9.5,650.5C 8.5,650.5 7.5,650.5 6.5,650.5C 6.5,649.5 6.5,648.5 6.5,647.5C 5.5,647.5 4.5,647.5 3.5,647.5C 3.5,646.5 3.5,645.5 3.5,644.5C 2.5,644.5 1.5,644.5 0.5,644.5C 0.794717,642.265 0.461384,640.265 -0.5,638.5C -0.5,461.167 -0.5,283.833 -0.5,106.5C 0.461384,104.735 0.794717,102.735 0.5,100.5C 1.5,100.5 2.5,100.5 3.5,100.5C 3.5,99.5 3.5,98.5 3.5,97.5C 4.5,97.5 5.5,97.5 6.5,97.5C 6.35055,96.448 6.51722,95.448 7,94.5C 8.5,93.6667 9.66667,92.5 10.5,91C 11.448,90.5172 12.448,90.3505 13.5,90.5C 13.5,89.5 13.5,88.5 13.5,87.5C 14.5,87.5 15.5,87.5 16.5,87.5C 16.5,86.5 16.5,85.5 16.5,84.5C 17.5,84.5 18.5,84.5 19.5,84.5C 19.5,82.1667 19.5,79.8333 19.5,77.5C 20.5,77.5 21.5,77.5 22.5,77.5C 22.5,76.5 22.5,75.5 22.5,74.5C 23.5,74.5 24.5,74.5 25.5,74.5C 25.5,73.5 25.5,72.5 25.5,71.5C 27.8333,71.5 30.1667,71.5 32.5,71.5C 32.5,70.5 32.5,69.5 32.5,68.5C 33.5,68.5 34.5,68.5 35.5,68.5C 35.5,67.5 35.5,66.5 35.5,65.5C 36.5,65.5 37.5,65.5 38.5,65.5C 38.3505,64.448 38.5172,63.448 39,62.5C 40.5,61.6667 41.6667,60.5 42.5,59C 43.448,58.5172 44.448,58.3505 45.5,58.5C 45.5,57.5 45.5,56.5 45.5,55.5C 46.5,55.5 47.5,55.5 48.5,55.5C 48.5,54.5 48.5,53.5 48.5,52.5C 50.5,52.5 52.5,52.5 54.5,52.5C 54.5,51.5 54.5,50.5 54.5,49.5C 55.5,49.5 56.5,49.5 57.5,49.5C 57.1667,46.5 58.5,45.1667 61.5,45.5C 61.5,44.5 61.5,43.5 61.5,42.5C 63.5,42.5 65.5,42.5 67.5,42.5C 67.5,41.5 67.5,40.5 67.5,39.5C 68.5,39.5 69.5,39.5 70.5,39.5C 70.5,38.5 70.5,37.5 70.5,36.5C 71.5,36.5 72.5,36.5 73.5,36.5C 73.5,35.5 73.5,34.5 73.5,33.5C 75.8333,33.5 78.1667,33.5 80.5,33.5C 80.5,32.1667 80.5,30.8333 80.5,29.5C 81.5,29.5 82.5,29.5 83.5,29.5C 83.5,28.5 83.5,27.5 83.5,26.5C 85.5,26.5 87.5,26.5 89.5,26.5C 89.5,25.5 89.5,24.5 89.5,23.5C 91.8333,23.5 94.1667,23.5 96.5,23.5C 96.5,22.5 96.5,21.5 96.5,20.5C 97.5,20.5 98.5,20.5 99.5,20.5C 99.5,19.5 99.5,18.5 99.5,17.5C 101.5,17.5 103.5,17.5 105.5,17.5C 105.33,16.1779 105.663,15.0113 106.5,14C 108.473,13.5045 110.473,13.3379 112.5,13.5C 112.5,12.5 112.5,11.5 112.5,10.5C 114.5,10.5 116.5,10.5 118.5,10.5C 118.5,9.5 118.5,8.5 118.5,7.5C 120.833,7.5 123.167,7.5 125.5,7.5C 125.5,6.5 125.5,5.5 125.5,4.5C 127.5,4.5 129.5,4.5 131.5,4.5C 131.5,3.5 131.5,2.5 131.5,1.5C 134.082,1.97461 136.082,1.30794 137.5,-0.5 Z"/></g>
<g><path style="opacity:1" fill="#9f9f9f" d="M 435.5,46.5 C 449.315,72.1305 463.648,97.4638 478.5,122.5C 460.653,109.403 441.653,98.0694 421.5,88.5C 390.051,74.424 357.051,68.424 322.5,70.5C 314.58,56.9951 306.913,43.3284 299.5,29.5C 346.186,24.8358 391.52,30.5025 435.5,46.5 Z"/></g>
<g><path style="opacity:1" fill="#a5a5a5" d="M 299.5,29.5 C 306.913,43.3284 314.58,56.9951 322.5,70.5C 284.823,73.832 249.156,83.832 215.5,100.5C 215.167,100.5 214.833,100.5 214.5,100.5C 206.855,88.5572 199.688,76.2239 193,63.5C 192.092,61.5614 190.592,60.5614 188.5,60.5C 223.291,42.6866 260.291,32.3533 299.5,29.5 Z"/></g>
<g><path style="opacity:0.999" fill="#9a9a9a" d="M 435.5,46.5 C 495.434,67.3782 544.601,103.045 583,153.5C 602.263,190.406 602.263,227.406 583,264.5C 581.058,268.069 578.892,271.402 576.5,274.5C 565.352,229.863 544.519,190.529 514,156.5C 502.574,144.571 490.741,133.237 478.5,122.5C 463.648,97.4638 449.315,72.1305 435.5,46.5 Z"/></g>
<g><path style="opacity:1" fill="#ababab" d="M 188.5,60.5 C 190.592,60.5614 192.092,61.5614 193,63.5C 199.688,76.2239 206.855,88.5572 214.5,100.5C 181.024,117.974 152.69,141.64 129.5,171.5C 119.833,155.5 110.167,139.5 100.5,123.5C 125.956,97.0373 155.29,76.0373 188.5,60.5 Z"/></g>
<g><path style="opacity:1" fill="#bebebe" d="M 322.5,70.5 C 357.051,68.424 390.051,74.424 421.5,88.5C 436.294,154.467 450.96,220.467 465.5,286.5C 457.5,286.5 449.5,286.5 441.5,286.5C 425.199,287.397 410.532,283.063 397.5,273.5C 388.996,266.5 380.329,259.667 371.5,253C 350.213,239.343 326.88,232.51 301.5,232.5C 283.596,231.333 265.596,232 247.5,234.5C 237.832,189.829 228.166,145.163 218.5,100.5C 217.5,100.5 216.5,100.5 215.5,100.5C 249.156,83.832 284.823,73.832 322.5,70.5 Z"/></g>
<g><path style="opacity:1" fill="#b9b9b9" d="M 421.5,88.5 C 441.653,98.0694 460.653,109.403 478.5,122.5C 490.741,133.237 502.574,144.571 514,156.5C 544.519,190.529 565.352,229.863 576.5,274.5C 568.346,288.658 557.68,300.658 544.5,310.5C 536.274,303.042 527.274,296.542 517.5,291C 515.26,290.023 512.927,289.523 510.5,289.5C 499.779,287.066 488.779,286.066 477.5,286.5C 473.5,286.5 469.5,286.5 465.5,286.5C 450.96,220.467 436.294,154.467 421.5,88.5 Z"/></g>
<g><path style="opacity:1" fill="#c3c3c3" d="M 214.5,100.5 C 214.833,100.5 215.167,100.5 215.5,100.5C 216.5,100.5 217.5,100.5 218.5,100.5C 228.166,145.163 237.832,189.829 247.5,234.5C 244.059,235.097 240.725,235.763 237.5,236.5C 227.184,237.509 217.184,239.509 207.5,242.5C 200.736,243.553 194.07,245.053 187.5,247C 184.524,247.705 181.858,248.871 179.5,250.5C 173.57,252.132 168.236,254.798 163.5,258.5C 158.535,260.649 153.868,263.316 149.5,266.5C 144.948,269.603 140.614,272.936 136.5,276.5C 131.206,280.127 126.539,284.46 122.5,289.5C 116.034,295.296 110.7,301.962 106.5,309.5C 100.644,316.717 95.9778,324.717 92.5,333.5C 84.5543,348.244 78.8876,363.911 75.5,380.5C 74.6773,377.023 74.1773,373.356 74,369.5C 73.5001,356.504 73.3334,343.504 73.5,330.5C 77.0332,271.961 95.6998,218.961 129.5,171.5C 152.69,141.64 181.024,117.974 214.5,100.5 Z"/></g>
<g><path style="opacity:1" fill="#b2b2b2" d="M 100.5,123.5 C 110.167,139.5 119.833,155.5 129.5,171.5C 95.6998,218.961 77.0332,271.961 73.5,330.5C 57.4187,302.669 41.0854,275.002 24.5,247.5C 40.2073,200.051 65.5407,158.717 100.5,123.5 Z"/></g>
<g><path style="opacity:1" fill="#454545" d="M 301.5,232.5 C 293.833,232.5 286.167,232.5 278.5,232.5C 278.797,239.92 278.464,247.254 277.5,254.5C 273.213,255.648 269.213,257.315 265.5,259.5C 255.615,263.109 246.282,267.776 237.5,273.5C 237.5,261.167 237.5,248.833 237.5,236.5C 240.725,235.763 244.059,235.097 247.5,234.5C 265.596,232 283.596,231.333 301.5,232.5 Z"/></g>
<g><path style="opacity:1" fill="#525252" d="M 237.5,236.5 C 237.5,248.833 237.5,261.167 237.5,273.5C 234.319,275.592 231.319,277.925 228.5,280.5C 221.21,285.788 214.21,291.454 207.5,297.5C 207.5,279.167 207.5,260.833 207.5,242.5C 217.184,239.509 227.184,237.509 237.5,236.5 Z"/></g>
<g><path style="opacity:1" fill="#303030" d="M 301.5,232.5 C 326.88,232.51 350.213,239.343 371.5,253C 380.329,259.667 388.996,266.5 397.5,273.5C 397.505,277.534 397.838,281.534 398.5,285.5C 391.058,286.105 386.558,290.105 385,297.5C 383.385,318.811 387.051,339.144 396,358.5C 399.966,366.066 406.133,369.232 414.5,368C 423.981,366.341 430.648,361.174 434.5,352.5C 438.671,358.838 442.337,365.504 445.5,372.5C 429.605,381.281 413.271,389.281 396.5,396.5C 394.876,396.64 393.71,395.973 393,394.5C 383.629,367.542 373.796,340.876 363.5,314.5C 370.366,304.408 372.533,293.408 370,281.5C 366.42,275.11 360.92,271.277 353.5,270C 349.848,269.501 346.182,269.335 342.5,269.5C 344.042,268.837 345.709,268.17 347.5,267.5C 344.568,259.872 341.735,252.205 339,244.5C 338.612,243.572 337.945,242.905 337,242.5C 323.505,243.279 310.338,245.279 297.5,248.5C 290.73,250.192 284.064,252.192 277.5,254.5C 278.464,247.254 278.797,239.92 278.5,232.5C 286.167,232.5 293.833,232.5 301.5,232.5 Z"/></g>
<g><path style="opacity:1" fill="#282828" d="M 342.5,269.5 C 331.901,269.983 321.901,272.65 312.5,277.5C 308.738,268.302 305.238,258.968 302,249.5C 300.644,248.62 299.144,248.286 297.5,248.5C 310.338,245.279 323.505,243.279 337,242.5C 337.945,242.905 338.612,243.572 339,244.5C 341.735,252.205 344.568,259.872 347.5,267.5C 345.709,268.17 344.042,268.837 342.5,269.5 Z"/></g>
<g><path style="opacity:1" fill="#5e5e5e" d="M 207.5,242.5 C 207.5,260.833 207.5,279.167 207.5,297.5C 204.761,300.233 202.427,303.233 200.5,306.5C 192.742,314.588 185.742,323.255 179.5,332.5C 179.5,305.167 179.5,277.833 179.5,250.5C 181.858,248.871 184.524,247.705 187.5,247C 194.07,245.053 200.736,243.553 207.5,242.5 Z"/></g>
<g><path style="opacity:1" fill="#b8b8b8" d="M 24.5,247.5 C 41.0854,275.002 57.4187,302.669 73.5,330.5C 73.3334,343.504 73.5001,356.504 74,369.5C 74.1773,373.356 74.6773,377.023 75.5,380.5C 77.1364,402.389 82.803,423.056 92.5,442.5C 96.3853,452.602 101.052,462.269 106.5,471.5C 111.039,481.68 116.372,491.347 122.5,500.5C 126.81,507.466 131.477,514.133 136.5,520.5C 140.127,525.794 144.46,530.461 149.5,534.5C 153.539,539.54 158.206,543.873 163.5,547.5C 166.545,550.547 169.878,553.213 173.5,555.5C 171.597,560.656 170.264,565.989 169.5,571.5C 168.778,571.918 168.278,572.584 168,573.5C 167.5,581.493 167.334,589.493 167.5,597.5C 168.731,604.095 170.731,610.429 173.5,616.5C 176.213,621.932 179.88,626.599 184.5,630.5C 185.141,631.482 185.807,632.482 186.5,633.5C 186.376,634.107 186.043,634.44 185.5,634.5C 98.2056,589.629 42.0389,519.629 17,424.5C 6.06687,375.242 5.73354,325.908 16,276.5C 18.3692,266.573 21.2026,256.906 24.5,247.5 Z"/></g>
<g><path style="opacity:1" fill="#222222" d="M 297.5,248.5 C 299.144,248.286 300.644,248.62 302,249.5C 305.238,258.968 308.738,268.302 312.5,277.5C 300.032,284.633 290.699,294.633 284.5,307.5C 278.738,292.3 273.238,276.966 268,261.5C 267.583,260.244 266.75,259.577 265.5,259.5C 269.213,257.315 273.213,255.648 277.5,254.5C 284.064,252.192 290.73,250.192 297.5,248.5 Z"/></g>
<g><path style="opacity:1" fill="#676767" d="M 179.5,250.5 C 179.5,277.833 179.5,305.167 179.5,332.5C 177.5,335.833 175.5,339.167 173.5,342.5C 170.151,348.535 166.818,354.535 163.5,360.5C 163.5,326.5 163.5,292.5 163.5,258.5C 168.236,254.798 173.57,252.132 179.5,250.5 Z"/></g>
<g><path style="opacity:1" fill="#6d6d6d" d="M 163.5,258.5 C 163.5,292.5 163.5,326.5 163.5,360.5C 150.385,397.776 150.385,435.11 163.5,472.5C 163.5,497.5 163.5,522.5 163.5,547.5C 158.206,543.873 153.539,539.54 149.5,534.5C 149.5,445.167 149.5,355.833 149.5,266.5C 153.868,263.316 158.535,260.649 163.5,258.5 Z"/></g>
<g><path style="opacity:1" fill="#1c1c1c" d="M 265.5,259.5 C 266.75,259.577 267.583,260.244 268,261.5C 273.238,276.966 278.738,292.3 284.5,307.5C 279.952,322.381 284.285,333.714 297.5,341.5C 307.5,370.833 317.5,400.167 327.5,429.5C 315.007,435.912 302.674,442.579 290.5,449.5C 270.588,392.751 249.921,336.418 228.5,280.5C 231.319,277.925 234.319,275.592 237.5,273.5C 246.282,267.776 255.615,263.109 265.5,259.5 Z"/></g>
<g><path style="opacity:1" fill="#737373" d="M 149.5,266.5 C 149.5,355.833 149.5,445.167 149.5,534.5C 144.46,530.461 140.127,525.794 136.5,520.5C 136.5,439.167 136.5,357.833 136.5,276.5C 140.614,272.936 144.948,269.603 149.5,266.5 Z"/></g>
<g><path style="opacity:1" fill="#efeeef" d="M 342.5,269.5 C 346.182,269.335 349.848,269.501 353.5,270C 360.92,271.277 366.42,275.11 370,281.5C 372.533,293.408 370.366,304.408 363.5,314.5C 355.12,324.891 344.786,332.558 332.5,337.5C 326.532,339.434 320.532,341.267 314.5,343C 308.65,343.948 302.983,343.448 297.5,341.5C 284.285,333.714 279.952,322.381 284.5,307.5C 290.699,294.633 300.032,284.633 312.5,277.5C 321.901,272.65 331.901,269.983 342.5,269.5 Z"/></g>
<g><path style="opacity:1" fill="#797979" d="M 136.5,276.5 C 136.5,357.833 136.5,439.167 136.5,520.5C 131.477,514.133 126.81,507.466 122.5,500.5C 122.5,430.167 122.5,359.833 122.5,289.5C 126.539,284.46 131.206,280.127 136.5,276.5 Z"/></g>
<g><path style="opacity:1" fill="#151515" d="M 228.5,280.5 C 249.921,336.418 270.588,392.751 290.5,449.5C 279.869,456.153 269.203,462.819 258.5,469.5C 239.564,415.027 220.231,360.693 200.5,306.5C 202.427,303.233 204.761,300.233 207.5,297.5C 214.21,291.454 221.21,285.788 228.5,280.5 Z"/></g>
<g><path style="opacity:1" fill="#535353" d="M 397.5,273.5 C 410.532,283.063 425.199,287.397 441.5,286.5C 442.93,288.155 443.764,290.155 444,292.5C 445.762,316.339 447.596,340.172 449.5,364C 449.547,366.295 450.213,368.129 451.5,369.5C 449.819,371.008 447.819,372.008 445.5,372.5C 442.337,365.504 438.671,358.838 434.5,352.5C 439.321,329.458 433.321,309.625 416.5,293C 411.285,288.65 405.285,286.15 398.5,285.5C 397.838,281.534 397.505,277.534 397.5,273.5 Z"/></g>
<g><path style="opacity:1" fill="#5c5c5c" d="M 441.5,286.5 C 449.5,286.5 457.5,286.5 465.5,286.5C 466.644,310.72 468.644,334.72 471.5,358.5C 465.162,362.671 458.496,366.337 451.5,369.5C 450.213,368.129 449.547,366.295 449.5,364C 447.596,340.172 445.762,316.339 444,292.5C 443.764,290.155 442.93,288.155 441.5,286.5 Z"/></g>
<g><path style="opacity:1" fill="#666666" d="M 465.5,286.5 C 469.5,286.5 473.5,286.5 477.5,286.5C 479.424,306.255 481.09,326.089 482.5,346C 482.547,348.295 483.213,350.129 484.5,351.5C 480.423,354.227 476.09,356.561 471.5,358.5C 468.644,334.72 466.644,310.72 465.5,286.5 Z"/></g>
<g><path style="opacity:1" fill="#727272" d="M 477.5,286.5 C 488.779,286.066 499.779,287.066 510.5,289.5C 511.333,304.024 512.666,318.358 514.5,332.5C 505.057,339.589 495.057,345.923 484.5,351.5C 483.213,350.129 482.547,348.295 482.5,346C 481.09,326.089 479.424,306.255 477.5,286.5 Z"/></g>
<g><path style="opacity:0.999" fill="#818181" d="M 510.5,289.5 C 512.927,289.523 515.26,290.023 517.5,291C 527.274,296.542 536.274,303.042 544.5,310.5C 535.348,318.985 525.348,326.318 514.5,332.5C 512.666,318.358 511.333,304.024 510.5,289.5 Z"/></g>
<g><path style="opacity:1" fill="#7f7f7f" d="M 122.5,289.5 C 122.5,359.833 122.5,430.167 122.5,500.5C 116.372,491.347 111.039,481.68 106.5,471.5C 106.5,417.5 106.5,363.5 106.5,309.5C 110.7,301.962 116.034,295.296 122.5,289.5 Z"/></g>
<g><path style="opacity:1" fill="#0f0f0f" d="M 200.5,306.5 C 220.231,360.693 239.564,415.027 258.5,469.5C 248.538,476.821 238.538,484.155 228.5,491.5C 211.047,443.976 193.88,396.309 177,348.5C 176.284,346.121 175.117,344.121 173.5,342.5C 175.5,339.167 177.5,335.833 179.5,332.5C 185.742,323.255 192.742,314.588 200.5,306.5 Z"/></g>
<g><path style="opacity:1" fill="#868686" d="M 106.5,309.5 C 106.5,363.5 106.5,417.5 106.5,471.5C 101.052,462.269 96.3853,452.602 92.5,442.5C 92.5,406.167 92.5,369.833 92.5,333.5C 95.9778,324.717 100.644,316.717 106.5,309.5 Z"/></g>
<g><path style="opacity:1" fill="#e3e2e3" d="M 398.5,285.5 C 405.285,286.15 411.285,288.65 416.5,293C 433.321,309.625 439.321,329.458 434.5,352.5C 430.648,361.174 423.981,366.341 414.5,368C 406.133,369.232 399.966,366.066 396,358.5C 387.051,339.144 383.385,318.811 385,297.5C 386.558,290.105 391.058,286.105 398.5,285.5 Z"/></g>
<g><path style="opacity:1" fill="#282828" d="M 363.5,314.5 C 373.796,340.876 383.629,367.542 393,394.5C 393.71,395.973 394.876,396.64 396.5,396.5C 394.365,398.071 392.032,399.404 389.5,400.5C 379.76,404.2 370.093,408.2 360.5,412.5C 351.987,387.968 343.32,363.468 334.5,339C 334.164,337.97 333.497,337.47 332.5,337.5C 344.786,332.558 355.12,324.891 363.5,314.5 Z"/></g>
<g><path style="opacity:1" fill="#8c8c8c" d="M 92.5,333.5 C 92.5,369.833 92.5,406.167 92.5,442.5C 82.803,423.056 77.1364,402.389 75.5,380.5C 78.8876,363.911 84.5543,348.244 92.5,333.5 Z"/></g>
<g><path style="opacity:1" fill="#222222" d="M 332.5,337.5 C 333.497,337.47 334.164,337.97 334.5,339C 343.32,363.468 351.987,387.968 360.5,412.5C 354.5,415.833 348.5,419.167 342.5,422.5C 337.375,424.562 332.375,426.896 327.5,429.5C 317.5,400.167 307.5,370.833 297.5,341.5C 302.983,343.448 308.65,343.948 314.5,343C 320.532,341.267 326.532,339.434 332.5,337.5 Z"/></g>
<g><path style="opacity:1" fill="#090909" d="M 173.5,342.5 C 175.117,344.121 176.284,346.121 177,348.5C 193.88,396.309 211.047,443.976 228.5,491.5C 215.261,501.806 203.261,513.473 192.5,526.5C 191.504,526.586 190.671,526.252 190,525.5C 179.012,508.857 170.178,491.19 163.5,472.5C 150.385,435.11 150.385,397.776 163.5,360.5C 166.818,354.535 170.151,348.535 173.5,342.5 Z"/></g>
<g><path style="opacity:1" fill="#989898" d="M 389.5,400.5 C 389.813,404.042 389.479,407.375 388.5,410.5C 314.911,472.582 241.745,535.249 169,598.5C 168.617,597.944 168.117,597.611 167.5,597.5C 167.334,589.493 167.5,581.493 168,573.5C 168.278,572.584 168.778,571.918 169.5,571.5C 227.487,522.178 285.153,472.511 342.5,422.5C 348.5,419.167 354.5,415.833 360.5,412.5C 370.093,408.2 379.76,404.2 389.5,400.5 Z"/></g>
<g><path style="opacity:0.999" fill="#b3b3b3" d="M 653.5,403.5 C 631.836,423.616 609.336,442.949 586,461.5C 585.517,460.552 585.351,459.552 585.5,458.5C 588.608,440.117 596.608,424.284 609.5,411C 622.946,400.942 637.612,398.442 653.5,403.5 Z"/></g>
<g><path style="opacity:0.999" fill="#939393" d="M 657.5,405.5 C 697.003,427.209 719.837,460.542 726,505.5C 730.123,565.439 705.956,609.606 653.5,638C 597.306,659.963 548.806,648.796 508,604.5C 499.212,593.679 496.212,581.346 499,567.5C 500.666,559.172 504.166,551.839 509.5,545.5C 514.935,561.366 522.768,576.032 533,589.5C 535.037,591.706 537.203,593.706 539.5,595.5C 549.184,606.682 561.184,614.349 575.5,618.5C 586.728,622.157 598.061,623.157 609.5,621.5C 620.177,621.11 630.51,619.11 640.5,615.5C 643.618,614.441 646.618,613.108 649.5,611.5C 653.095,609.898 656.429,607.898 659.5,605.5C 666.474,601.526 672.14,596.192 676.5,589.5C 682.97,583.244 687.97,575.911 691.5,567.5C 697.172,555.813 700.505,543.48 701.5,530.5C 704.237,502.972 697.404,477.972 681,455.5C 675.761,449.59 669.928,444.423 663.5,440C 662.551,439.383 661.718,439.549 661,440.5C 657.018,448.489 651.518,455.323 644.5,461C 636.765,466.854 629.098,472.687 621.5,478.5C 617.345,479.742 613.678,481.742 610.5,484.5C 607.833,485.833 605.167,487.167 602.5,488.5C 602.414,487.504 602.748,486.671 603.5,486C 623.627,469.542 643.46,452.709 663,435.5C 666.468,427.94 666.301,420.607 662.5,413.5C 660.807,410.816 659.14,408.149 657.5,405.5 Z"/></g>
<g><path style="opacity:1" fill="#a7a7a7" d="M 653.5,403.5 C 654.833,404.167 656.167,404.833 657.5,405.5C 659.14,408.149 660.807,410.816 662.5,413.5C 662.607,415.903 661.607,417.736 659.5,419C 633.648,440.429 607.981,462.096 582.5,484C 581.563,484.692 580.897,484.525 580.5,483.5C 580.784,474.774 582.451,466.441 585.5,458.5C 585.351,459.552 585.517,460.552 586,461.5C 609.336,442.949 631.836,423.616 653.5,403.5 Z"/></g>
<g><path style="opacity:1" fill="#9f9f9f" d="M 388.5,410.5 C 388.476,421.07 387.476,431.403 385.5,441.5C 385.662,439.473 385.495,437.473 385,435.5C 314.628,496.043 244.128,556.377 173.5,616.5C 170.731,610.429 168.731,604.095 167.5,597.5C 168.117,597.611 168.617,597.944 169,598.5C 241.745,535.249 314.911,472.582 388.5,410.5 Z"/></g>
<g><path style="opacity:1" fill="#9a9a9a" d="M 662.5,413.5 C 666.301,420.607 666.468,427.94 663,435.5C 643.46,452.709 623.627,469.542 603.5,486C 602.748,486.671 602.414,487.504 602.5,488.5C 600.632,489.263 598.965,490.263 597.5,491.5C 591.271,494.449 584.938,497.115 578.5,499.5C 578.668,493.966 579.335,488.633 580.5,483.5C 580.897,484.525 581.563,484.692 582.5,484C 607.981,462.096 633.648,440.429 659.5,419C 661.607,417.736 662.607,415.903 662.5,413.5 Z"/></g>
<g><path style="opacity:1" fill="#919191" d="M 342.5,422.5 C 285.153,472.511 227.487,522.178 169.5,571.5C 170.264,565.989 171.597,560.656 173.5,555.5C 179.074,545.357 185.407,535.69 192.5,526.5C 203.261,513.473 215.261,501.806 228.5,491.5C 238.538,484.155 248.538,476.821 258.5,469.5C 269.203,462.819 279.869,456.153 290.5,449.5C 302.674,442.579 315.007,435.912 327.5,429.5C 332.375,426.896 337.375,424.562 342.5,422.5 Z"/></g>
<g><path style="opacity:1" fill="#a5a5a5" d="M 385.5,441.5 C 385.011,449.767 383.678,457.767 381.5,465.5C 381.657,464.127 381.49,462.793 381,461.5C 315.308,517.698 249.808,574.032 184.5,630.5C 179.88,626.599 176.213,621.932 173.5,616.5C 244.128,556.377 314.628,496.043 385,435.5C 385.495,437.473 385.662,439.473 385.5,441.5 Z"/></g>
<g><path style="opacity:1" fill="#c1c1c1" d="M 701.5,530.5 C 698.094,518.216 691.094,508.383 680.5,501C 677.07,500.044 673.57,499.544 670,499.5C 648.629,504.056 632.463,497.056 621.5,478.5C 629.098,472.687 636.765,466.854 644.5,461C 651.518,455.323 657.018,448.489 661,440.5C 661.718,439.549 662.551,439.383 663.5,440C 669.928,444.423 675.761,449.59 681,455.5C 697.404,477.972 704.237,502.972 701.5,530.5 Z"/></g>
<g><path style="opacity:1" fill="#ababab" d="M 381.5,465.5 C 380.502,474.837 378.502,483.837 375.5,492.5C 375.649,491.448 375.483,490.448 375,489.5C 317.128,539.708 258.961,589.541 200.5,639C 199.748,639.671 199.414,640.504 199.5,641.5C 194.516,639.674 189.849,637.341 185.5,634.5C 186.043,634.44 186.376,634.107 186.5,633.5C 185.807,632.482 185.141,631.482 184.5,630.5C 249.808,574.032 315.308,517.698 381,461.5C 381.49,462.793 381.657,464.127 381.5,465.5 Z"/></g>
<g><path style="opacity:1" fill="#666666" d="M 163.5,472.5 C 170.178,491.19 179.012,508.857 190,525.5C 190.671,526.252 191.504,526.586 192.5,526.5C 185.407,535.69 179.074,545.357 173.5,555.5C 169.878,553.213 166.545,550.547 163.5,547.5C 163.5,522.5 163.5,497.5 163.5,472.5 Z"/></g>
<g><path style="opacity:1" fill="#6b6a6b" d="M 621.5,478.5 C 632.463,497.056 648.629,504.056 670,499.5C 673.57,499.544 677.07,500.044 680.5,501C 691.094,508.383 698.094,518.216 701.5,530.5C 700.505,543.48 697.172,555.813 691.5,567.5C 685.063,564.78 679.063,561.28 673.5,557C 665.854,550.198 659.187,542.698 653.5,534.5C 652.712,530.562 650.712,527.562 647.5,525.5C 650.1,513.862 646.434,504.695 636.5,498C 633.829,497.167 631.496,497.667 629.5,499.5C 624.034,493.364 617.701,488.364 610.5,484.5C 613.678,481.742 617.345,479.742 621.5,478.5 Z"/></g>
<g><path style="opacity:1" fill="#3d3d3d" d="M 610.5,484.5 C 617.701,488.364 624.034,493.364 629.5,499.5C 627.931,509.487 629.764,518.82 635,527.5C 640.169,533.233 644.336,532.567 647.5,525.5C 650.712,527.562 652.712,530.562 653.5,534.5C 660.893,552.953 668.56,571.286 676.5,589.5C 672.14,596.192 666.474,601.526 659.5,605.5C 646.962,574.085 634.129,542.751 621,511.5C 620.623,510.058 619.79,509.058 618.5,508.5C 626.097,496.274 622.764,490.774 608.5,492C 606.138,493.511 603.805,495.011 601.5,496.5C 600.855,494.174 599.522,492.507 597.5,491.5C 598.965,490.263 600.632,489.263 602.5,488.5C 605.167,487.167 607.833,485.833 610.5,484.5 Z"/></g>
<g><path style="opacity:1" fill="#b1b1b1" d="M 375.5,492.5 C 373.39,504.289 370.057,515.623 365.5,526.5C 365.631,525.761 365.464,525.094 365,524.5C 317.833,565 270.667,605.5 223.5,646C 224.416,646.278 225.082,646.778 225.5,647.5C 216.439,647.068 207.773,645.068 199.5,641.5C 199.414,640.504 199.748,639.671 200.5,639C 258.961,589.541 317.128,539.708 375,489.5C 375.483,490.448 375.649,491.448 375.5,492.5 Z"/></g>
<g><path style="opacity:1" fill="#ecebec" d="M 618.5,508.5 C 615.763,512.241 612.43,515.241 608.5,517.5C 604.881,518.244 601.215,518.577 597.5,518.5C 590.014,517.002 588.514,513.002 593,506.5C 595.14,502.538 597.973,499.204 601.5,496.5C 603.805,495.011 606.138,493.511 608.5,492C 622.764,490.774 626.097,496.274 618.5,508.5 Z"/></g>
<g><path style="opacity:1" fill="#292929" d="M 597.5,491.5 C 599.522,492.507 600.855,494.174 601.5,496.5C 597.973,499.204 595.14,502.538 593,506.5C 588.514,513.002 590.014,517.002 597.5,518.5C 598.172,519.267 599.005,519.934 600,520.5C 613.006,552.496 626.506,584.163 640.5,615.5C 630.51,619.11 620.177,621.11 609.5,621.5C 607.5,621.5 605.5,621.5 603.5,621.5C 603.433,620.041 603.766,618.708 604.5,617.5C 608.833,617.5 613.167,617.5 617.5,617.5C 621.308,617.837 624.974,617.337 628.5,616C 612.476,578.265 596.643,540.432 581,502.5C 580.302,501.309 579.469,500.309 578.5,499.5C 584.938,497.115 591.271,494.449 597.5,491.5 Z"/></g>
<g><path style="opacity:1" fill="#222222" d="M 578.5,499.5 C 579.469,500.309 580.302,501.309 581,502.5C 596.643,540.432 612.476,578.265 628.5,616C 624.974,617.337 621.308,617.837 617.5,617.5C 601.848,580.192 586.182,542.859 570.5,505.5C 570.863,504.817 571.196,504.15 571.5,503.5C 573.635,501.929 575.968,500.596 578.5,499.5 Z"/></g>
<g><path style="opacity:0.999" fill="#1b1b1b" d="M 571.5,503.5 C 571.196,504.15 570.863,504.817 570.5,505.5C 586.182,542.859 601.848,580.192 617.5,617.5C 613.167,617.5 608.833,617.5 604.5,617.5C 603.833,617.5 603.5,617.167 603.5,616.5C 588.557,580.947 573.89,545.281 559.5,509.5C 563.217,506.975 567.217,504.975 571.5,503.5 Z"/></g>
<g><path style="opacity:1" fill="#353535" d="M 618.5,508.5 C 619.79,509.058 620.623,510.058 621,511.5C 634.129,542.751 646.962,574.085 659.5,605.5C 656.429,607.898 653.095,609.898 649.5,611.5C 636.406,580.974 623.573,550.307 611,519.5C 610.583,518.244 609.75,517.577 608.5,517.5C 612.43,515.241 615.763,512.241 618.5,508.5 Z"/></g>
<g><path style="opacity:1" fill="#e2e1e2" d="M 647.5,525.5 C 644.336,532.567 640.169,533.233 635,527.5C 629.764,518.82 627.931,509.487 629.5,499.5C 631.496,497.667 633.829,497.167 636.5,498C 646.434,504.695 650.1,513.862 647.5,525.5 Z"/></g>
<g><path style="opacity:0.999" fill="#151515" d="M 559.5,509.5 C 573.89,545.281 588.557,580.947 603.5,616.5C 598.739,616.876 594.405,615.876 590.5,613.5C 576.884,580.603 563.55,547.603 550.5,514.5C 553.331,512.583 556.331,510.917 559.5,509.5 Z"/></g>
<g><path style="opacity:1" fill="#2e2e2e" d="M 608.5,517.5 C 609.75,517.577 610.583,518.244 611,519.5C 623.573,550.307 636.406,580.974 649.5,611.5C 646.618,613.108 643.618,614.441 640.5,615.5C 626.506,584.163 613.006,552.496 600,520.5C 599.005,519.934 598.172,519.267 597.5,518.5C 601.215,518.577 604.881,518.244 608.5,517.5 Z"/></g>
<g><path style="opacity:0.997" fill="#0b0b0b" d="M 550.5,514.5 C 563.55,547.603 576.884,580.603 590.5,613.5C 586.066,612.117 581.733,610.451 577.5,608.5C 563.733,600.067 553.067,588.734 545.5,574.5C 543.711,562.808 540.711,551.475 536.5,540.5C 537.043,540.44 537.376,540.107 537.5,539.5C 534.866,535.1 533.366,530.433 533,525.5C 538.202,520.791 544.036,517.125 550.5,514.5 Z"/></g>
<g><path style="opacity:1" fill="#b7b7b7" d="M 365.5,526.5 C 362.242,538.332 357.908,549.666 352.5,560.5C 352.631,559.761 352.464,559.094 352,558.5C 318.5,587.333 285,616.167 251.5,645C 252.094,645.464 252.761,645.631 253.5,645.5C 244.349,647.639 235.016,648.306 225.5,647.5C 225.082,646.778 224.416,646.278 223.5,646C 270.667,605.5 317.833,565 365,524.5C 365.464,525.094 365.631,525.761 365.5,526.5 Z"/></g>
<g><path style="opacity:1" fill="#5a5a5a" d="M 536.5,540.5 C 540.711,551.475 543.711,562.808 545.5,574.5C 543.908,581.61 541.908,588.61 539.5,595.5C 537.203,593.706 535.037,591.706 533,589.5C 522.768,576.032 514.935,561.366 509.5,545.5C 514.054,539.044 519.721,533.71 526.5,529.5C 530.566,532.563 533.899,536.229 536.5,540.5 Z"/></g>
<g><path style="opacity:1" fill="#484848" d="M 653.5,534.5 C 659.187,542.698 665.854,550.198 673.5,557C 679.063,561.28 685.063,564.78 691.5,567.5C 687.97,575.911 682.97,583.244 676.5,589.5C 668.56,571.286 660.893,552.953 653.5,534.5 Z"/></g>
<g><path style="opacity:0.999" fill="#bcbcbc" d="M 352.5,560.5 C 335.176,607.161 302.176,635.495 253.5,645.5C 252.761,645.631 252.094,645.464 251.5,645C 285,616.167 318.5,587.333 352,558.5C 352.464,559.094 352.631,559.761 352.5,560.5 Z"/></g>
<g><path style="opacity:1" fill="#474747" d="M 545.5,574.5 C 553.067,588.734 563.733,600.067 577.5,608.5C 576.626,611.789 575.959,615.123 575.5,618.5C 561.184,614.349 549.184,606.682 539.5,595.5C 541.908,588.61 543.908,581.61 545.5,574.5 Z"/></g>
<g><path style="opacity:1" fill="#3b3b3b" d="M 577.5,608.5 C 581.733,610.451 586.066,612.117 590.5,613.5C 594.405,615.876 598.739,616.876 603.5,616.5C 603.5,617.167 603.833,617.5 604.5,617.5C 603.766,618.708 603.433,620.041 603.5,621.5C 605.5,621.5 607.5,621.5 609.5,621.5C 598.061,623.157 586.728,622.157 575.5,618.5C 575.959,615.123 576.626,611.789 577.5,608.5 Z"/></g>
</svg>
