<?xml version="1.0" standalone="no"?>
<!DOCTYPE svg PUBLIC "-//W3C//DTD SVG 20010904//EN"
 "http://www.w3.org/TR/2001/REC-SVG-20010904/DTD/svg10.dtd">
<svg version="1.0" xmlns="http://www.w3.org/2000/svg"
 width="200.000000pt" height="200.000000pt" viewBox="0 0 200.000000 200.000000"
 preserveAspectRatio="xMidYMid meet">

<g transform="translate(0.000000,200.000000) scale(0.100000,-0.100000)"
fill="#000000" stroke="none">
<path d="M627 1309 c-96 -23 -127 -39 -189 -96 l-48 -46 0 -219 0 -219 33 -52
c19 -29 51 -67 71 -85 l38 -33 18 28 c27 44 130 137 208 187 39 25 167 95 284
154 117 59 234 122 261 140 44 31 47 36 47 76 0 41 -2 44 -31 50 -17 3 -66 6
-108 6 -82 0 -105 9 -207 78 -27 18 -64 37 -84 42 -57 16 -207 10 -293 -11z
m361 -81 c17 -17 15 -64 -5 -94 -20 -31 -85 -65 -126 -66 -61 -2 -83 65 -39
116 44 50 139 75 170 44z m129 -50 c46 -51 57 -116 26 -150 -22 -24 -69 -24
-83 2 -16 30 -31 119 -24 146 8 32 53 33 81 2z"/>
<path d="M1490 689 c-116 -62 -155 -97 -147 -131 9 -36 47 -87 90 -122 31 -25
49 -31 103 -34 116 -8 206 49 240 151 28 83 -4 137 -82 137 -42 0 -44 -1 -34
-21 14 -25 6 -49 -14 -49 -17 0 -30 36 -24 67 3 19 -17 53 -31 53 -3 0 -49
-23 -101 -51z m110 3 c0 -25 -19 -42 -47 -42 -27 0 -30 16 -6 42 21 23 53 24
53 0z"/>
</g>
</svg>
