<?xml version="1.0" encoding="UTF-8"?>
<!DOCTYPE svg PUBLIC "-//W3C//DTD SVG 1.1//EN" "http://www.w3.org/Graphics/SVG/1.1/DTD/svg11.dtd">
<svg xmlns="http://www.w3.org/2000/svg" version="1.1" width="400px" height="400px" style="shape-rendering:geometricPrecision; text-rendering:geometricPrecision; image-rendering:optimizeQuality; fill-rule:evenodd; clip-rule:evenodd" xmlns:xlink="http://www.w3.org/1999/xlink">
<g><path style="opacity:1" fill="#000618" d="M 399.5,180.5 C 399.5,193.5 399.5,206.5 399.5,219.5C 387.196,304.644 340.529,361.811 259.5,391C 246.233,394.818 232.9,397.652 219.5,399.5C 206.5,399.5 193.5,399.5 180.5,399.5C 99.4123,387.915 43.2457,344.248 12,268.5C -11.7511,194.936 0.582203,128.269 49,68.5C 97.4536,16.2121 157.287,-5.95457 228.5,2C 301.255,14.7715 353.089,54.6048 384,121.5C 391.855,140.591 397.021,160.258 399.5,180.5 Z"/></g>
<g><path style="opacity:1" fill="#091804" d="M 216.5,104.5 C 210.997,104.278 205.497,103.944 200,103.5C 195.254,103.439 190.754,104.105 186.5,105.5C 183.119,105.46 179.786,105.793 176.5,106.5C 178.598,105.065 180.931,103.898 183.5,103C 194.167,102.333 204.833,102.333 215.5,103C 216.056,103.383 216.389,103.883 216.5,104.5 Z"/></g>
<g><path style="opacity:1" fill="#b2d972" d="M 216.5,104.5 C 219.087,105.749 221.754,106.749 224.5,107.5C 211.905,105.81 199.239,105.144 186.5,105.5C 190.754,104.105 195.254,103.439 200,103.5C 205.497,103.944 210.997,104.278 216.5,104.5 Z"/></g>
<g><path style="opacity:1" fill="#0d1511" d="M 252.5,123.5 C 252.28,126.925 250.947,129.759 248.5,132C 249.233,133.766 249.567,135.599 249.5,137.5C 248.5,137.5 247.5,137.5 246.5,137.5C 246.5,136.5 246.5,135.5 246.5,134.5C 242.728,137.892 238.394,140.558 233.5,142.5C 239.5,135.833 245.833,129.5 252.5,123.5 Z"/></g>
<g><path style="opacity:1" fill="#04100a" d="M 141.5,122.5 C 130.609,131.644 121.609,142.31 114.5,154.5C 116.01,149.975 118.01,145.641 120.5,141.5C 120,141.167 119.5,140.833 119,140.5C 117.498,142.175 115.998,143.841 114.5,145.5C 114.167,144.667 113.833,143.833 113.5,143C 114.308,140.925 115.642,139.258 117.5,138C 114.62,136.103 113.953,133.603 115.5,130.5C 116.999,133.08 118.499,135.747 120,138.5C 120.561,139.022 121.228,139.355 122,139.5C 125.645,135.855 129.312,132.188 133,128.5C 131.691,126.92 130.858,124.92 130.5,122.5C 132.6,122.477 134.433,123.144 136,124.5C 137.587,123.33 139.253,122.33 141,121.5C 141.399,121.728 141.565,122.062 141.5,122.5 Z"/></g>
<g><path style="opacity:1" fill="#1c2c11" d="M 233.5,142.5 C 232.167,146.5 229.5,149.167 225.5,150.5C 227.833,147.5 230.5,144.833 233.5,142.5 Z"/></g>
<g><path style="opacity:1" fill="#040d0e" d="M 287.5,168.5 C 288.141,167.518 288.807,166.518 289.5,165.5C 286.341,158.512 282.674,151.846 278.5,145.5C 275.146,148.188 272.146,151.188 269.5,154.5C 264.146,158.887 259.48,163.887 255.5,169.5C 254.5,170.167 253.5,170.833 252.5,171.5C 252.5,170.167 252.5,168.833 252.5,167.5C 253.5,167.5 254.5,167.5 255.5,167.5C 255.34,165.801 255.506,164.134 256,162.5C 258.215,163.82 259.715,163.153 260.5,160.5C 259.675,159.614 258.675,159.281 257.5,159.5C 255.479,155.09 255.146,153.09 256.5,153.5C 258.167,153.5 259.833,153.5 261.5,153.5C 261.167,150.5 262.5,149.167 265.5,149.5C 265.5,147.833 265.5,146.167 265.5,144.5C 264.972,143.07 266.972,143.403 271.5,145.5C 271.494,142.452 272.494,141.952 274.5,144C 272.343,145.085 272.176,146.251 274,147.5C 277.256,143.538 280.423,143.538 283.5,147.5C 285.794,153.527 288.461,159.361 291.5,165C 290.928,167.074 289.595,168.24 287.5,168.5 Z"/></g>
<g><path style="opacity:1" fill="#b5e172" d="M 287.5,168.5 C 284.545,171.116 281.545,173.782 278.5,176.5C 278.5,175.5 278.5,174.5 278.5,173.5C 279.209,172.596 280.209,172.263 281.5,172.5C 281.833,169.5 283.5,167.833 286.5,167.5C 286.66,165.801 286.494,164.134 286,162.5C 285.333,163.833 284.667,163.833 284,162.5C 284.335,158.882 282.835,156.548 279.5,155.5C 280.78,153.298 280.78,151.132 279.5,149C 278.5,148.333 277.5,148.333 276.5,149C 274.559,151.454 272.225,153.287 269.5,154.5C 272.146,151.188 275.146,148.188 278.5,145.5C 282.674,151.846 286.341,158.512 289.5,165.5C 288.807,166.518 288.141,167.518 287.5,168.5 Z"/></g>
<g><path style="opacity:1" fill="#c0f95d" d="M 278.5,173.5 C 276.089,173.863 274.589,172.863 274,170.5C 273.25,171.126 272.416,171.626 271.5,172C 276.486,174.201 276.486,175.868 271.5,177C 272.451,177.718 272.617,178.551 272,179.5C 270.59,178.213 269.09,177.046 267.5,176C 268.308,175.692 268.975,175.192 269.5,174.5C 267.411,172.42 265.744,170.087 264.5,167.5C 264.728,165.603 265.728,164.27 267.5,163.5C 266.833,162.833 266.167,162.167 265.5,161.5C 266.889,159.132 268.222,156.799 269.5,154.5C 272.225,153.287 274.559,151.454 276.5,149C 277.5,148.333 278.5,148.333 279.5,149C 280.78,151.132 280.78,153.298 279.5,155.5C 282.835,156.548 284.335,158.882 284,162.5C 284.667,163.833 285.333,163.833 286,162.5C 286.494,164.134 286.66,165.801 286.5,167.5C 283.5,167.833 281.833,169.5 281.5,172.5C 280.209,172.263 279.209,172.596 278.5,173.5 Z"/></g>
<g><path style="opacity:1" fill="#0b1809" d="M 252.5,171.5 C 248.5,176.167 244.167,180.5 239.5,184.5C 240.949,180.364 243.615,177.031 247.5,174.5C 246.54,173.188 246.706,171.854 248,170.5C 249.356,171.38 250.856,171.714 252.5,171.5 Z"/></g>
<g><path style="opacity:1" fill="#060e0d" d="M 225.5,150.5 C 223.679,154.125 221.345,157.458 218.5,160.5C 220.347,161.83 221.847,161.497 223,159.5C 223.884,161.641 223.384,163.307 221.5,164.5C 219.544,163.452 217.544,162.952 215.5,163C 214.448,164.716 215.114,165.716 217.5,166C 215.936,170.148 214.27,170.314 212.5,166.5C 208.471,169.483 204.804,172.983 201.5,177C 202.91,177.368 203.91,178.201 204.5,179.5C 202.577,180.308 200.577,180.808 198.5,181C 198.833,181.333 199.167,181.667 199.5,182C 198.139,183.584 197.472,185.418 197.5,187.5C 195.425,187.302 193.425,187.135 191.5,187C 190.655,188.558 191.321,189.558 193.5,190C 192.167,190.667 192.167,191.333 193.5,192C 192.437,193.188 191.103,193.688 189.5,193.5C 189.344,189.865 188.178,189.532 186,192.5C 185.517,193.448 185.351,194.448 185.5,195.5C 182.612,195.22 181.112,196.553 181,199.5C 178.336,200.534 178.169,202.2 180.5,204.5C 180.167,204.833 179.833,205.167 179.5,205.5C 178.281,204.737 177.281,203.737 176.5,202.5C 175.06,203.952 173.394,204.952 171.5,205.5C 173.167,203.5 174.833,201.5 176.5,199.5C 182.167,194.5 187.5,189.167 192.5,183.5C 203.14,172.194 214.14,161.194 225.5,150.5 Z"/></g>
<g><path style="opacity:1" fill="#c2ef72" d="M 192.5,183.5 C 187.5,189.167 182.167,194.5 176.5,199.5C 176.022,196.722 177.022,194.722 179.5,193.5C 178.91,192.201 177.91,191.368 176.5,191C 177.025,190.308 177.692,189.808 178.5,189.5C 179.842,191.005 181.508,191.672 183.5,191.5C 183.167,188.5 184.5,187.167 187.5,187.5C 187.5,186.167 187.5,184.833 187.5,183.5C 189.167,183.5 190.833,183.5 192.5,183.5 Z"/></g>
<g><path style="opacity:1" fill="#c0f85a" d="M 239.5,187.5 C 245.227,181.778 250.56,175.778 255.5,169.5C 257.394,168.952 259.06,167.952 260.5,166.5C 262.866,168.869 264.866,171.536 266.5,174.5C 266.291,175.086 265.957,175.586 265.5,176C 267.155,177.444 267.822,179.278 267.5,181.5C 263.759,182.401 261.759,181.068 261.5,177.5C 258.5,177.167 257.167,178.5 257.5,181.5C 261.068,181.759 262.401,183.759 261.5,187.5C 257.776,187.95 255.609,186.283 255,182.5C 253.265,184.611 251.432,186.611 249.5,188.5C 248.349,189.731 247.183,189.731 246,188.5C 246.789,190.823 248.289,192.823 250.5,194.5C 250,195.5 249.5,196.5 249,197.5C 246.791,196.08 244.791,194.413 243,192.5C 242.517,191.552 242.351,190.552 242.5,189.5C 240.821,189.715 239.821,189.048 239.5,187.5 Z"/></g>
<g><path style="opacity:1" fill="#c6ee86" d="M 255.5,169.5 C 250.56,175.778 245.227,181.778 239.5,187.5C 232.446,194.558 225.112,201.225 217.5,207.5C 219.5,205.167 221.5,202.833 223.5,200.5C 229.167,195.5 234.5,190.167 239.5,184.5C 244.167,180.5 248.5,176.167 252.5,171.5C 253.5,170.833 254.5,170.167 255.5,169.5 Z"/></g>
<g><path style="opacity:1" fill="#030c0c" d="M 114.5,154.5 C 102.253,179.356 100.253,205.023 108.5,231.5C 106.919,229.326 105.419,226.993 104,224.5C 103.161,227.14 103.661,229.473 105.5,231.5C 104.635,232.583 103.635,232.749 102.5,232C 101.941,229.059 101.107,226.225 100,223.5C 99.3058,219.998 99.8058,216.664 101.5,213.5C 101.061,211.896 100.394,210.396 99.5,209C 100.833,202.667 100.833,196.333 99.5,190C 99.8333,189.5 100.167,189 100.5,188.5C 101.251,189.376 101.751,190.376 102,191.5C 103.289,180.821 105.955,170.488 110,160.5C 110.814,157.823 112.314,155.823 114.5,154.5 Z"/></g>
<g><path style="opacity:1" fill="#bff760" d="M 186.5,105.5 C 199.239,105.144 211.905,105.81 224.5,107.5C 235.342,110.087 245.342,114.587 254.5,121C 253.619,121.708 252.953,122.542 252.5,123.5C 245.833,129.5 239.5,135.833 233.5,142.5C 230.5,144.833 227.833,147.5 225.5,150.5C 214.14,161.194 203.14,172.194 192.5,183.5C 190.833,183.5 189.167,183.5 187.5,183.5C 187.5,184.833 187.5,186.167 187.5,187.5C 184.5,187.167 183.167,188.5 183.5,191.5C 181.508,191.672 179.842,191.005 178.5,189.5C 177.692,189.808 177.025,190.308 176.5,191C 177.91,191.368 178.91,192.201 179.5,193.5C 177.022,194.722 176.022,196.722 176.5,199.5C 174.833,201.5 173.167,203.5 171.5,205.5C 161.167,215.5 150.833,225.5 140.5,235.5C 138.051,234.943 135.718,234.943 133.5,235.5C 134.853,236.524 135.52,237.857 135.5,239.5C 134.127,239.343 132.793,239.51 131.5,240C 131.833,240.333 132.167,240.667 132.5,241C 131.099,242.318 129.265,243.485 127,244.5C 126.311,243.643 125.478,242.977 124.5,242.5C 123.106,244.725 121.94,247.058 121,249.5C 119.842,249.002 119.009,248.169 118.5,247C 122.756,243.28 122.089,242.113 116.5,243.5C 115.915,241.135 114.748,239.135 113,237.5C 112.506,235.866 112.34,234.199 112.5,232.5C 111.5,232.5 110.5,232.5 109.5,232.5C 109.5,231.833 109.167,231.5 108.5,231.5C 100.253,205.023 102.253,179.356 114.5,154.5C 121.609,142.31 130.609,131.644 141.5,122.5C 152.25,115.294 163.916,109.961 176.5,106.5C 179.786,105.793 183.119,105.46 186.5,105.5 Z"/></g>
<g><path style="opacity:1" fill="#030d0d" d="M 141.5,154.5 C 138.274,161.953 134.774,169.286 131,176.5C 130.554,179.343 130.054,182.176 129.5,185C 129.834,187.175 130.834,189.008 132.5,190.5C 131.826,192.517 130.659,194.183 129,195.5C 128.333,197.833 128.333,200.167 129,202.5C 130.143,198.666 132.643,196.499 136.5,196C 138.657,194.019 140.324,191.686 141.5,189C 142.725,188.437 143.725,188.77 144.5,190C 143.483,191.049 143.316,192.216 144,193.5C 145.036,190.705 146.369,188.038 148,185.5C 147.237,188.42 147.903,190.753 150,192.5C 151.805,190.847 153.638,189.18 155.5,187.5C 155.291,186.914 154.957,186.414 154.5,186C 156.955,185.606 158.955,184.44 160.5,182.5C 158.997,179.718 156.663,178.885 153.5,180C 155.01,179.15 156.51,178.317 158,177.5C 158.772,177.645 159.439,177.978 160,178.5C 160.966,175.356 162.299,172.356 164,169.5C 162.885,172.663 163.718,174.997 166.5,176.5C 168.698,171.469 172.364,167.969 177.5,166C 177.167,165.667 176.833,165.333 176.5,165C 177.793,164.51 179.127,164.343 180.5,164.5C 176.833,168.5 173.167,172.5 169.5,176.5C 160.5,184.833 151.833,193.5 143.5,202.5C 138.52,207.145 133.52,211.812 128.5,216.5C 125.958,203.546 125.958,190.546 128.5,177.5C 131.539,169.086 135.873,161.42 141.5,154.5 Z"/></g>
<g><path style="opacity:1" fill="#02041b" d="M 140.5,195.5 C 142.196,195.685 143.529,196.519 144.5,198C 142.612,200.648 140.112,202.482 137,203.5C 135.991,205.025 135.491,206.692 135.5,208.5C 133.641,208.539 132.308,207.706 131.5,206C 133.038,204.068 134.205,201.901 135,199.5C 136.5,197.531 138.333,196.198 140.5,195.5 Z"/></g>
<g><path style="opacity:1" fill="#c5ec85" d="M 169.5,176.5 C 162.093,185.412 154.093,193.912 145.5,202C 144.906,202.464 144.239,202.631 143.5,202.5C 151.833,193.5 160.5,184.833 169.5,176.5 Z"/></g>
<g><path style="opacity:1" fill="#b9e672" d="M 150.5,144.5 C 147.5,147.833 144.5,151.167 141.5,154.5C 135.873,161.42 131.539,169.086 128.5,177.5C 130.058,173.392 130.724,169.059 130.5,164.5C 133.685,164.278 134.685,162.778 133.5,160C 137.28,158.392 139.28,155.558 139.5,151.5C 138.127,151.657 136.793,151.49 135.5,151C 137.09,149.954 138.59,148.787 140,147.5C 140.368,148.91 141.201,149.91 142.5,150.5C 143.452,148.955 143.785,147.288 143.5,145.5C 145.124,145.64 146.29,144.973 147,143.5C 148.011,144.337 149.178,144.67 150.5,144.5 Z"/></g>
<g><path style="opacity:1" fill="#c8ef85" d="M 186.5,159.5 C 181.833,166.167 176.167,171.833 169.5,176.5C 173.167,172.5 176.833,168.5 180.5,164.5C 182.5,162.833 184.5,161.167 186.5,159.5 Z"/></g>
<g><path style="opacity:1" fill="#0e1a06" d="M 194.5,150.5 C 191.833,153.5 189.167,156.5 186.5,159.5C 184.5,161.167 182.5,162.833 180.5,164.5C 180.967,162.289 181.967,160.289 183.5,158.5C 185.6,157.219 187.266,155.552 188.5,153.5C 190.289,151.967 192.289,150.967 194.5,150.5 Z"/></g>
<g><path style="opacity:1" fill="#c6ee89" d="M 204.5,140.5 C 204.649,141.552 204.483,142.552 204,143.5C 198.576,149.431 192.742,154.764 186.5,159.5C 189.167,156.5 191.833,153.5 194.5,150.5C 198.194,147.473 201.527,144.14 204.5,140.5 Z"/></g>
<g><path style="opacity:1" fill="#030d0b" d="M 214.5,127.5 C 215.239,127.369 215.906,127.536 216.5,128C 212.296,132.036 208.296,136.202 204.5,140.5C 201.527,144.14 198.194,147.473 194.5,150.5C 193.147,149.133 193.481,148.133 195.5,147.5C 196.429,146.311 196.762,144.978 196.5,143.5C 197.93,143.579 199.264,143.246 200.5,142.5C 202.389,139.782 204.056,136.949 205.5,134C 202.833,133.667 200.167,133.333 197.5,133C 199.949,130.803 199.783,129.303 197,128.5C 194.665,129.834 192.331,131.168 190,132.5C 185.86,128.935 181.36,128.601 176.5,131.5C 177.62,133.596 179.12,133.93 181,132.5C 182.419,133.46 183.919,134.293 185.5,135C 183.899,135.273 182.399,135.773 181,136.5C 175.956,134.423 170.789,134.09 165.5,135.5C 165.719,136.675 165.386,137.675 164.5,138.5C 162.459,139.236 160.459,140.069 158.5,141C 159.167,141.333 159.833,141.667 160.5,142C 156.223,141.525 153.223,143.192 151.5,147C 148.271,149.741 144.938,152.241 141.5,154.5C 144.5,151.167 147.5,147.833 150.5,144.5C 153.99,141.589 157.656,138.922 161.5,136.5C 177.934,126.793 195.601,123.793 214.5,127.5 Z"/></g>
<g><path style="opacity:1" fill="#000518" d="M 194.5,150.5 C 192.289,150.967 190.289,151.967 188.5,153.5C 187.266,155.552 185.6,157.219 183.5,158.5C 181.967,160.289 180.967,162.289 180.5,164.5C 179.127,164.343 177.793,164.51 176.5,165C 176.833,165.333 177.167,165.667 177.5,166C 172.364,167.969 168.698,171.469 166.5,176.5C 163.718,174.997 162.885,172.663 164,169.5C 162.299,172.356 160.966,175.356 160,178.5C 159.439,177.978 158.772,177.645 158,177.5C 156.51,178.317 155.01,179.15 153.5,180C 156.663,178.885 158.997,179.718 160.5,182.5C 158.955,184.44 156.955,185.606 154.5,186C 154.957,186.414 155.291,186.914 155.5,187.5C 153.638,189.18 151.805,190.847 150,192.5C 147.903,190.753 147.237,188.42 148,185.5C 146.369,188.038 145.036,190.705 144,193.5C 143.316,192.216 143.483,191.049 144.5,190C 143.725,188.77 142.725,188.437 141.5,189C 140.324,191.686 138.657,194.019 136.5,196C 132.643,196.499 130.143,198.666 129,202.5C 128.333,200.167 128.333,197.833 129,195.5C 130.659,194.183 131.826,192.517 132.5,190.5C 130.834,189.008 129.834,187.175 129.5,185C 130.054,182.176 130.554,179.343 131,176.5C 134.774,169.286 138.274,161.953 141.5,154.5C 144.938,152.241 148.271,149.741 151.5,147C 153.223,143.192 156.223,141.525 160.5,142C 159.833,141.667 159.167,141.333 158.5,141C 160.459,140.069 162.459,139.236 164.5,138.5C 165.386,137.675 165.719,136.675 165.5,135.5C 170.789,134.09 175.956,134.423 181,136.5C 182.399,135.773 183.899,135.273 185.5,135C 183.919,134.293 182.419,133.46 181,132.5C 179.12,133.93 177.62,133.596 176.5,131.5C 181.36,128.601 185.86,128.935 190,132.5C 192.331,131.168 194.665,129.834 197,128.5C 199.783,129.303 199.949,130.803 197.5,133C 200.167,133.333 202.833,133.667 205.5,134C 204.056,136.949 202.389,139.782 200.5,142.5C 199.264,143.246 197.93,143.579 196.5,143.5C 196.762,144.978 196.429,146.311 195.5,147.5C 193.481,148.133 193.147,149.133 194.5,150.5 Z"/></g>
<g><path style="opacity:1" fill="#b2db72" d="M 214.5,127.5 C 195.601,123.793 177.934,126.793 161.5,136.5C 161.5,135.5 161.5,134.5 161.5,133.5C 162.5,133.5 163.5,133.5 164.5,133.5C 164.5,132.5 164.5,131.5 164.5,130.5C 166.857,130.663 169.19,130.497 171.5,130C 175.844,127.494 180.511,125.828 185.5,125C 194.167,124.333 202.833,124.333 211.5,125C 212.942,125.377 213.942,126.21 214.5,127.5 Z"/></g>
<g><path style="opacity:1" fill="#bee972" d="M 293.5,222.5 C 292.797,224.629 291.797,226.629 290.5,228.5C 290.675,224.459 290.842,220.459 291,216.5C 288.076,218.078 285.242,219.745 282.5,221.5C 286.463,217.036 290.63,212.702 295,208.5C 294.213,213.072 293.713,217.738 293.5,222.5 Z"/></g>
<g><path style="opacity:1" fill="#0b1b02" d="M 235.5,220.5 C 233.25,223.991 230.75,227.324 228,230.5C 226.736,232.607 224.903,233.607 222.5,233.5C 226.5,228.833 230.833,224.5 235.5,220.5 Z"/></g>
<g><path style="opacity:1" fill="#020f07" d="M 223.5,200.5 C 221.5,202.833 219.5,205.167 217.5,207.5C 204.806,219.527 192.473,231.86 180.5,244.5C 180.238,243.022 180.571,241.689 181.5,240.5C 186.584,234.13 192.251,228.464 198.5,223.5C 199.386,222.675 199.719,221.675 199.5,220.5C 198.5,220.5 197.5,220.5 196.5,220.5C 196.5,219.5 196.5,218.5 196.5,217.5C 198.827,217.247 200.827,217.914 202.5,219.5C 203.681,217.865 203.681,216.198 202.5,214.5C 202.833,214.167 203.167,213.833 203.5,213.5C 204.62,214.833 205.953,215.333 207.5,215C 210.35,212.318 213.016,209.484 215.5,206.5C 214.311,205.571 212.978,205.238 211.5,205.5C 211.5,204.167 211.5,202.833 211.5,201.5C 213.912,201.331 216.079,201.997 218,203.5C 219.482,201.888 221.315,200.888 223.5,200.5 Z"/></g>
<g><path style="opacity:1" fill="#c0f761" d="M 269.5,154.5 C 268.222,156.799 266.889,159.132 265.5,161.5C 266.167,162.167 266.833,162.833 267.5,163.5C 265.728,164.27 264.728,165.603 264.5,167.5C 265.744,170.087 267.411,172.42 269.5,174.5C 268.975,175.192 268.308,175.692 267.5,176C 269.09,177.046 270.59,178.213 272,179.5C 272.617,178.551 272.451,177.718 271.5,177C 276.486,175.868 276.486,174.201 271.5,172C 272.416,171.626 273.25,171.126 274,170.5C 274.589,172.863 276.089,173.863 278.5,173.5C 278.5,174.5 278.5,175.5 278.5,176.5C 264.194,191.14 249.861,205.807 235.5,220.5C 230.833,224.5 226.5,228.833 222.5,233.5C 220.167,235.5 217.833,237.5 215.5,239.5C 211.837,241.228 208.17,243.062 204.5,245C 207.028,245.998 207.028,246.831 204.5,247.5C 203.558,247.608 202.725,247.941 202,248.5C 201.577,247.044 200.744,246.544 199.5,247C 198.483,248.049 198.316,249.216 199,250.5C 200.156,249.007 200.99,249.174 201.5,251C 200.708,252.96 199.375,254.46 197.5,255.5C 196.614,254.675 196.281,253.675 196.5,252.5C 193.434,254.373 190.434,256.539 187.5,259C 188.574,259.739 189.241,260.739 189.5,262C 188.115,263.597 187.449,265.43 187.5,267.5C 184.833,266.5 182.167,265.5 179.5,264.5C 179.444,267.394 178.61,270.061 177,272.5C 175.719,272.381 174.552,272.881 173.5,274C 175.677,275.186 176.677,277.019 176.5,279.5C 174.167,282.5 171.5,285.167 168.5,287.5C 162.666,284.998 156.666,282.998 150.5,281.5C 150.67,280.178 150.337,279.011 149.5,278C 152.93,274.114 156.597,270.447 160.5,267C 161.448,266.517 162.448,266.351 163.5,266.5C 163.5,265.167 163.5,263.833 163.5,262.5C 164.239,262.631 164.906,262.464 165.5,262C 170.209,257.345 174.543,252.512 178.5,247.5C 179.167,246.5 179.833,245.5 180.5,244.5C 192.473,231.86 204.806,219.527 217.5,207.5C 225.112,201.225 232.446,194.558 239.5,187.5C 239.821,189.048 240.821,189.715 242.5,189.5C 242.351,190.552 242.517,191.552 243,192.5C 244.791,194.413 246.791,196.08 249,197.5C 249.5,196.5 250,195.5 250.5,194.5C 248.289,192.823 246.789,190.823 246,188.5C 247.183,189.731 248.349,189.731 249.5,188.5C 251.432,186.611 253.265,184.611 255,182.5C 255.609,186.283 257.776,187.95 261.5,187.5C 262.401,183.759 261.068,181.759 257.5,181.5C 257.167,178.5 258.5,177.167 261.5,177.5C 261.759,181.068 263.759,182.401 267.5,181.5C 267.822,179.278 267.155,177.444 265.5,176C 265.957,175.586 266.291,175.086 266.5,174.5C 264.866,171.536 262.866,168.869 260.5,166.5C 259.06,167.952 257.394,168.952 255.5,169.5C 259.48,163.887 264.146,158.887 269.5,154.5 Z"/></g>
<g><path style="opacity:1" fill="#bce678" d="M 290.5,228.5 C 288.788,236.589 285.455,243.923 280.5,250.5C 280.449,248.43 281.115,246.597 282.5,245C 282.355,244.228 282.022,243.561 281.5,243C 282.416,242.626 283.25,242.126 284,241.5C 285.27,238.618 286.77,235.951 288.5,233.5C 288.796,231.597 289.463,229.93 290.5,228.5 Z"/></g>
<g><path style="opacity:1" fill="#1c2c13" d="M 138.5,238.5 C 137.167,240.833 135.833,243.167 134.5,245.5C 132.833,246.167 131.167,246.833 129.5,247.5C 132.167,244.167 135.167,241.167 138.5,238.5 Z"/></g>
<g><path style="opacity:1" fill="#bef469" d="M 288.5,233.5 C 286.77,235.951 285.27,238.618 284,241.5C 283.25,242.126 282.416,242.626 281.5,243C 282.022,243.561 282.355,244.228 282.5,245C 281.115,246.597 280.449,248.43 280.5,250.5C 279.277,253.274 277.777,255.941 276,258.5C 267.92,267.418 259.086,275.418 249.5,282.5C 245.71,283.895 242.043,285.562 238.5,287.5C 234.744,289.419 230.744,290.752 226.5,291.5C 226.179,289.952 225.179,289.285 223.5,289.5C 223.351,288.448 223.517,287.448 224,286.5C 226.384,288.228 228.884,288.561 231.5,287.5C 231.291,286.914 230.957,286.414 230.5,286C 232.5,285.333 233.833,284 234.5,282C 238.293,279.726 242.293,278.393 246.5,278C 245.167,278.667 245.167,279.333 246.5,280C 247.448,280.483 248.448,280.649 249.5,280.5C 249.52,278.857 248.853,277.524 247.5,276.5C 251.537,274.124 255.537,272.458 259.5,271.5C 257.613,269.96 255.78,268.293 254,266.5C 253.251,265.365 253.417,264.365 254.5,263.5C 255.386,264.325 255.719,265.325 255.5,266.5C 256.833,266.5 258.167,266.5 259.5,266.5C 259.5,267.5 259.5,268.5 259.5,269.5C 265.464,268.869 268.797,265.536 269.5,259.5C 268.5,259.5 267.5,259.5 266.5,259.5C 265.769,257.401 265.769,255.401 266.5,253.5C 268.665,251.296 271.332,249.962 274.5,249.5C 275.308,247.577 275.808,245.577 276,243.5C 279.578,239.227 283.745,235.893 288.5,233.5 Z"/></g>
<g><path style="opacity:1" fill="#bff06f" d="M 109.5,232.5 C 110.5,232.5 111.5,232.5 112.5,232.5C 112.34,234.199 112.506,235.866 113,237.5C 114.748,239.135 115.915,241.135 116.5,243.5C 122.089,242.113 122.756,243.28 118.5,247C 119.009,248.169 119.842,249.002 121,249.5C 121.94,247.058 123.106,244.725 124.5,242.5C 125.478,242.977 126.311,243.643 127,244.5C 129.265,243.485 131.099,242.318 132.5,241C 132.167,240.667 131.833,240.333 131.5,240C 132.793,239.51 134.127,239.343 135.5,239.5C 135.52,237.857 134.853,236.524 133.5,235.5C 135.718,234.943 138.051,234.943 140.5,235.5C 139.833,236.5 139.167,237.5 138.5,238.5C 135.167,241.167 132.167,244.167 129.5,247.5C 127.233,250.271 124.733,252.938 122,255.5C 116.777,248.387 112.611,240.72 109.5,232.5 Z"/></g>
<g><path style="opacity:1" fill="#13200f" d="M 180.5,244.5 C 179.833,245.5 179.167,246.5 178.5,247.5C 176.378,249.333 174.044,251 171.5,252.5C 171.389,251.883 171.056,251.383 170.5,251C 173.128,249.374 175.461,247.374 177.5,245C 178.448,244.517 179.448,244.351 180.5,244.5 Z"/></g>
<g><path style="opacity:1" fill="#010710" d="M 280.5,222.5 C 267.5,236.167 254.167,249.5 240.5,262.5C 239.652,260.519 239.152,258.519 239,256.5C 242.42,252.428 245.753,248.428 249,244.5C 249.49,243.207 249.657,241.873 249.5,240.5C 249.062,238.935 251.062,239.268 255.5,241.5C 255.351,240.448 255.517,239.448 256,238.5C 259.215,236.286 261.715,233.452 263.5,230C 265.752,230.612 268.085,230.945 270.5,231C 271.305,229.028 272.639,227.528 274.5,226.5C 272.366,226.098 270.366,226.098 268.5,226.5C 269.648,224.851 270.981,223.351 272.5,222C 271.269,220.817 271.269,219.651 272.5,218.5C 277.421,219.494 277.754,221.327 273.5,224C 276.095,224.6 278.429,224.1 280.5,222.5 Z"/></g>
<g><path style="opacity:1" fill="#050c0e" d="M 108.5,231.5 C 109.167,231.5 109.5,231.833 109.5,232.5C 112.611,240.72 116.777,248.387 122,255.5C 124.733,252.938 127.233,250.271 129.5,247.5C 131.167,246.833 132.833,246.167 134.5,245.5C 134.263,248.751 132.93,251.917 130.5,255C 128.765,255.651 127.098,255.485 125.5,254.5C 122.432,256.457 119.099,256.957 115.5,256C 114.809,254.933 114.309,253.766 114,252.5C 113.333,253.833 112.667,253.833 112,252.5C 111.333,251.5 111.333,250.5 112,249.5C 112.667,248.167 113.333,248.167 114,249.5C 114.49,248.207 114.657,246.873 114.5,245.5C 113.5,245.5 112.5,245.5 111.5,245.5C 110.116,240.99 109.116,236.323 108.5,231.5 Z"/></g>
<g><path style="opacity:1" fill="#bef168" d="M 215.5,239.5 C 205.8,249.199 196.466,259.199 187.5,269.5C 183.833,272.833 180.167,276.167 176.5,279.5C 176.677,277.019 175.677,275.186 173.5,274C 174.552,272.881 175.719,272.381 177,272.5C 178.61,270.061 179.444,267.394 179.5,264.5C 182.167,265.5 184.833,266.5 187.5,267.5C 187.449,265.43 188.115,263.597 189.5,262C 189.241,260.739 188.574,259.739 187.5,259C 190.434,256.539 193.434,254.373 196.5,252.5C 196.281,253.675 196.614,254.675 197.5,255.5C 199.375,254.46 200.708,252.96 201.5,251C 200.99,249.174 200.156,249.007 199,250.5C 198.316,249.216 198.483,248.049 199.5,247C 200.744,246.544 201.577,247.044 202,248.5C 202.725,247.941 203.558,247.608 204.5,247.5C 207.028,246.831 207.028,245.998 204.5,245C 208.17,243.062 211.837,241.228 215.5,239.5 Z"/></g>
<g><path style="opacity:1" fill="#111b10" d="M 165.5,259.5 C 164.833,260.5 164.167,261.5 163.5,262.5C 159.914,265.079 156.581,268.079 153.5,271.5C 153.343,270.127 153.51,268.793 154,267.5C 155.827,266.341 157.493,265.008 159,263.5C 159.72,261.888 159.554,260.388 158.5,259C 159.996,258.493 161.163,258.993 162,260.5C 163.011,259.663 164.178,259.33 165.5,259.5 Z"/></g>
<g><path style="opacity:1" fill="#bce37f" d="M 178.5,247.5 C 174.543,252.512 170.209,257.345 165.5,262C 164.906,262.464 164.239,262.631 163.5,262.5C 164.167,261.5 164.833,260.5 165.5,259.5C 168.19,257.807 170.19,255.473 171.5,252.5C 174.044,251 176.378,249.333 178.5,247.5 Z"/></g>
<g><path style="opacity:1" fill="#060e0d" d="M 222.5,233.5 C 220.7,235.828 219.533,238.495 219,241.5C 214.723,244.107 210.723,247.107 207,250.5C 206.571,252.669 207.071,254.669 208.5,256.5C 207.675,257.386 206.675,257.719 205.5,257.5C 205.5,258.5 205.5,259.5 205.5,260.5C 204.167,260.5 202.833,260.5 201.5,260.5C 201.5,261.5 201.5,262.5 201.5,263.5C 199.738,263.643 198.071,263.309 196.5,262.5C 193.773,265.232 190.773,267.566 187.5,269.5C 196.466,259.199 205.8,249.199 215.5,239.5C 217.833,237.5 220.167,235.5 222.5,233.5 Z"/></g>
<g><path style="opacity:1" fill="#c0f95c" d="M 290.5,228.5 C 289.463,229.93 288.796,231.597 288.5,233.5C 283.745,235.893 279.578,239.227 276,243.5C 275.808,245.577 275.308,247.577 274.5,249.5C 271.332,249.962 268.665,251.296 266.5,253.5C 265.769,255.401 265.769,257.401 266.5,259.5C 267.5,259.5 268.5,259.5 269.5,259.5C 268.797,265.536 265.464,268.869 259.5,269.5C 259.5,268.5 259.5,267.5 259.5,266.5C 258.167,266.5 256.833,266.5 255.5,266.5C 255.719,265.325 255.386,264.325 254.5,263.5C 253.417,264.365 253.251,265.365 254,266.5C 255.78,268.293 257.613,269.96 259.5,271.5C 255.537,272.458 251.537,274.124 247.5,276.5C 248.853,277.524 249.52,278.857 249.5,280.5C 248.448,280.649 247.448,280.483 246.5,280C 245.167,279.333 245.167,278.667 246.5,278C 242.293,278.393 238.293,279.726 234.5,282C 233.833,284 232.5,285.333 230.5,286C 230.957,286.414 231.291,286.914 231.5,287.5C 228.884,288.561 226.384,288.228 224,286.5C 223.517,287.448 223.351,288.448 223.5,289.5C 225.179,289.285 226.179,289.952 226.5,291.5C 223.002,292.045 220.002,291.212 217.5,289C 219.875,286.824 222.208,284.657 224.5,282.5C 226.134,282.968 227.3,283.968 228,285.5C 229.299,282.994 230.299,280.327 231,277.5C 234.207,276.365 235.541,274.365 235,271.5C 238.042,268.289 241.209,265.289 244.5,262.5C 245.167,263.5 245.833,264.5 246.5,265.5C 247.248,263.668 248.248,262.001 249.5,260.5C 249.154,256.243 251.154,253.243 255.5,251.5C 256.478,251.977 257.311,252.643 258,253.5C 258.617,252.551 258.451,251.718 257.5,251C 258.449,250.383 259.282,250.549 260,251.5C 260,249.5 260,247.5 260,245.5C 268.093,237.912 275.593,229.912 282.5,221.5C 285.242,219.745 288.076,218.078 291,216.5C 290.842,220.459 290.675,224.459 290.5,228.5 Z"/></g>
<g><path style="opacity:1" fill="#beeb73" d="M 282.5,221.5 C 275.593,229.912 268.093,237.912 260,245.5C 260,247.5 260,249.5 260,251.5C 259.282,250.549 258.449,250.383 257.5,251C 258.451,251.718 258.617,252.551 258,253.5C 257.311,252.643 256.478,251.977 255.5,251.5C 251.154,253.243 249.154,256.243 249.5,260.5C 248.248,262.001 247.248,263.668 246.5,265.5C 245.833,264.5 245.167,263.5 244.5,262.5C 241.209,265.289 238.042,268.289 235,271.5C 235.541,274.365 234.207,276.365 231,277.5C 230.299,280.327 229.299,282.994 228,285.5C 227.3,283.968 226.134,282.968 224.5,282.5C 222.208,284.657 219.875,286.824 217.5,289C 220.002,291.212 223.002,292.045 226.5,291.5C 221.287,292.823 215.953,294.156 210.5,295.5C 210.167,295.167 209.833,294.833 209.5,294.5C 215.881,288.785 221.881,282.785 227.5,276.5C 232.208,272.793 236.208,268.46 239.5,263.5C 240.167,263.5 240.5,263.167 240.5,262.5C 254.167,249.5 267.5,236.167 280.5,222.5C 281.167,222.167 281.833,221.833 282.5,221.5 Z"/></g>
<g><path style="opacity:1" fill="#030b10" d="M 293.5,222.5 C 293.664,225.187 293.497,227.854 293,230.5C 289.633,239.715 285.133,248.382 279.5,256.5C 280.002,257.521 280.668,257.688 281.5,257C 282.614,255.43 283.947,254.097 285.5,253C 285.167,252.667 284.833,252.333 284.5,252C 285.078,247.828 286.411,247.495 288.5,251C 287.899,252.605 286.899,253.938 285.5,255C 286.711,256.113 286.711,257.28 285.5,258.5C 281.822,261.679 278.322,265.012 275,268.5C 274.951,265.584 273.784,264.584 271.5,265.5C 269.5,268.167 267.167,270.5 264.5,272.5C 265.381,273.971 266.714,274.804 268.5,275C 265.012,278.322 261.679,281.822 258.5,285.5C 255.671,285.047 253.171,286.047 251,288.5C 250.5,288 250,287.5 249.5,287C 251.349,285.907 253.016,284.574 254.5,283C 252.866,282.506 251.199,282.34 249.5,282.5C 259.086,275.418 267.92,267.418 276,258.5C 277.777,255.941 279.277,253.274 280.5,250.5C 285.455,243.923 288.788,236.589 290.5,228.5C 291.797,226.629 292.797,224.629 293.5,222.5 Z"/></g>
<g><path style="opacity:1" fill="#0d160c" d="M 239.5,263.5 C 236.208,268.46 232.208,272.793 227.5,276.5C 227.595,273.728 228.929,271.728 231.5,270.5C 229.667,269.032 229.334,267.365 230.5,265.5C 231.85,266.95 233.516,267.617 235.5,267.5C 234.833,265.167 234.167,262.833 233.5,260.5C 235.988,260.683 237.988,261.683 239.5,263.5 Z"/></g>
<g><path style="opacity:1" fill="#c1e97f" d="M 163.5,262.5 C 163.5,263.833 163.5,265.167 163.5,266.5C 162.448,266.351 161.448,266.517 160.5,267C 156.597,270.447 152.93,274.114 149.5,278C 150.337,279.011 150.67,280.178 150.5,281.5C 148.804,281.315 147.471,280.481 146.5,279C 148.79,277.223 150.457,275.056 151.5,272.5C 152.167,272.167 152.833,271.833 153.5,271.5C 156.581,268.079 159.914,265.079 163.5,262.5 Z"/></g>
<g><path style="opacity:1" fill="#151f10" d="M 151.5,272.5 C 150.457,275.056 148.79,277.223 146.5,279C 147.471,280.481 148.804,281.315 150.5,281.5C 150.833,282.167 151.167,282.833 151.5,283.5C 145.107,282.79 143.94,279.79 148,274.5C 148.816,273.177 149.983,272.511 151.5,272.5 Z"/></g>
<g><path style="opacity:1" fill="#b8de73" d="M 150.5,281.5 C 156.666,282.998 162.666,284.998 168.5,287.5C 168.038,288.88 167.038,289.547 165.5,289.5C 160.817,287.491 156.15,285.491 151.5,283.5C 151.167,282.833 150.833,282.167 150.5,281.5 Z"/></g>
<g><path style="opacity:1" fill="#050e0d" d="M 227.5,276.5 C 221.881,282.785 215.881,288.785 209.5,294.5C 209.833,294.833 210.167,295.167 210.5,295.5C 215.953,294.156 221.287,292.823 226.5,291.5C 230.744,290.752 234.744,289.419 238.5,287.5C 236.867,289.512 234.867,291.179 232.5,292.5C 234.475,293.578 236.308,293.245 238,291.5C 238.5,292 239,292.5 239.5,293C 237.956,293.29 236.623,293.956 235.5,295C 233.82,295.034 232.32,295.201 231,295.5C 228.865,293.722 226.365,293.055 223.5,293.5C 223.657,294.873 223.49,296.207 223,297.5C 221.445,295.485 219.611,295.152 217.5,296.5C 218.55,298.102 217.883,298.935 215.5,299C 214.174,301.158 212.507,302.992 210.5,304.5C 206.872,303.001 207.206,301.667 211.5,300.5C 214.451,296.935 213.451,295.601 208.5,296.5C 208.022,293.722 209.022,291.722 211.5,290.5C 205.625,289.366 205.292,287.699 210.5,285.5C 211.935,287.401 213.602,287.734 215.5,286.5C 212.176,285.841 210.843,283.841 211.5,280.5C 214.179,280.673 216.513,281.673 218.5,283.5C 219.666,281.635 219.333,279.968 217.5,278.5C 219.398,277.266 221.065,277.599 222.5,279.5C 223.421,277.244 225.088,276.244 227.5,276.5 Z"/></g>
</svg>
