<svg width="24" height="24" viewBox="0 0 24 24" fill="none" xmlns="http://www.w3.org/2000/svg">
<path d="M23.9634 15.6496L22.2876 9.6684L20.6741 3.90978C20.5931 3.6218 20.3847 3.38627 20.1075 3.27195L18.151 2.46303C18.089 2.42005 18.0347 2.39683 17.9882 2.39599L12.373 0.0741425C12.1336 -0.0247142 11.8649 -0.0247142 11.6255 0.0741425L3.89197 3.27281C3.61469 3.38713 3.40629 3.62266 3.32535 3.91064L0.0359401 15.6496C-0.0415593 15.9273 0.00752365 16.2256 0.171133 16.4637L3.26679 20.9699C3.38821 21.1461 3.56301 21.2775 3.76625 21.3447L11.6944 23.9511C11.8925 24.0163 12.1069 24.0163 12.3049 23.9511L20.2331 21.3447C20.4363 21.2775 20.6121 21.1461 20.7327 20.9699L23.8282 16.4637C23.9918 16.2256 24.0408 15.9282 23.9634 15.6496Z" fill="#00B4FE"/>
<path d="M21.8895 13.1483L13.2638 22.6101C12.5861 23.3537 11.4141 23.3537 10.7364 22.6101L2.10904 13.1483C1.51574 12.4976 1.51574 11.503 2.10904 10.8522L10.7364 1.39038C11.4141 0.646809 12.5861 0.646809 13.2638 1.39038L21.8895 10.8522C22.4827 11.503 22.4827 12.4976 21.8895 13.1483Z" fill="#B2E9FF"/>
<path d="M11.983 9.79115V3.58026L6.81836 12.1344L11.983 9.79115Z" fill="#02151F" fill-opacity="0.2"/>
<path opacity="0.7" d="M11.983 15.1832V9.7912L6.81836 12.1344L11.983 15.1832Z" fill="#02151F"/>
<path d="M11.9834 9.79115L17.1481 12.1344L11.9834 3.58026V9.79115Z" fill="#02151F" fill-opacity="0.7"/>
<path d="M11.9834 9.79095V15.183L17.1481 12.1342L11.9834 9.79095Z" fill="#02151F"/>
<path d="M11.983 16.1597L6.81836 13.1141L11.983 20.3801V16.1597Z" fill="#02151F" fill-opacity="0.2"/>
<path d="M17.1512 13.1141L11.9834 16.1597V20.3801L17.1512 13.1141Z" fill="#02151F" fill-opacity="0.7"/>
</svg>
