<svg width="54" height="54" viewBox="0 0 54 54" fill="none" xmlns="http://www.w3.org/2000/svg">
<g filter="url(#filter0_i_2832_408)">
<path d="M25.825 0.0260608C10.9277 0.675029 -0.622907 13.2777 0.0260608 28.175C0.675028 43.0723 13.2777 54.6229 28.1749 53.9739C43.0722 53.3249 54.6229 40.7223 53.9739 25.825C53.3249 10.9278 40.7223 -0.622907 25.825 0.0260608Z" fill="url(#paint0_linear_2832_408)"/>
<path fill-rule="evenodd" clip-rule="evenodd" d="M28.075 6.09866C27.588 5.28199 26.4073 5.27648 25.9128 6.08842L13.567 26.3612L13.4363 26.2816L13.567 26.3612C13.2024 26.96 13.3957 27.7413 13.9974 28.1008L13.9975 28.1008L26.2188 35.4056L26.2189 35.4057C26.6141 35.642 27.1067 35.644 27.5046 35.4112M27.5047 35.4112L39.78 28.2175C40.3843 27.8633 40.5849 27.0844 40.2261 26.4824L28.075 6.09868C28.075 6.09867 28.075 6.09867 28.075 6.09866M25.6512 5.92907C26.2657 4.92001 27.733 4.92695 28.3381 5.94178L28.3381 5.9418L40.4892 26.3256C40.9351 27.0737 40.6859 28.0417 39.9349 28.4818L27.6595 35.6755L27.6594 35.6756C27.1652 35.9648 26.553 35.9624 26.0617 35.6686C26.0617 35.6686 26.0617 35.6686 26.0616 35.6686L13.8403 28.3638C13.0924 27.917 12.8522 26.946 13.3054 26.2019C13.3054 26.2019 13.3054 26.2019 13.3054 26.2019L25.6512 5.92907Z" fill="#D3ECEC"/>
<path fill-rule="evenodd" clip-rule="evenodd" d="M28.0533 10.6386C27.5664 9.82198 26.3856 9.81644 25.8912 10.6284L17.6083 24.2296L17.4775 24.1499L17.6083 24.2296C17.2437 24.8284 17.437 25.6097 18.0388 25.9693L18.0388 25.9693L26.2382 30.8702C26.2382 30.8702 26.2382 30.8702 26.2382 30.8702C26.6337 31.1064 27.1264 31.1087 27.524 30.8758C27.524 30.8758 27.524 30.8758 27.524 30.8758L35.7596 26.0494L35.7597 26.0494C36.3643 25.6951 36.5644 24.9162 36.2057 24.3144C36.2057 24.3143 36.2057 24.3143 36.2057 24.3143L28.0533 10.6386ZM25.6295 10.4691C26.244 9.45997 27.7113 9.46695 28.3165 10.4817L28.3165 10.4818L36.4689 24.1575L36.4689 24.1575C36.9146 24.9054 36.666 25.8734 35.9145 26.3137C35.9145 26.3137 35.9145 26.3137 35.9145 26.3137L27.6789 31.1401L27.6788 31.1401C27.1847 31.4296 26.5725 31.4266 26.0811 31.1332L26.0811 31.1332L17.8817 26.2322C17.8817 26.2322 17.8817 26.2322 17.8817 26.2322C17.1337 25.7853 16.8935 24.8144 17.3467 24.0702L17.3467 24.0702L25.6295 10.4691Z" fill="#D3ECEC"/>
<path fill-rule="evenodd" clip-rule="evenodd" d="M28.0255 16.0462C27.5388 15.2295 26.358 15.2239 25.8635 16.036L25.8635 16.036L22.4262 21.6804C22.4262 21.6804 22.4262 21.6804 22.4262 21.6804C22.0615 22.2792 22.2548 23.0605 22.8566 23.4201L22.8566 23.4201L26.2595 25.4541C26.6549 25.6903 27.1476 25.6925 27.5452 25.4595L27.6227 25.5917L27.5452 25.4595L30.9628 23.4568L30.9628 23.4568C31.5675 23.1025 31.7677 22.3236 31.4088 21.7216L28.0255 16.0462L28.0255 16.0462ZM28.2886 15.8894C27.6838 14.8744 26.2163 14.8675 25.6018 15.8766C25.6018 15.8766 25.6018 15.8766 25.6018 15.8766L22.1645 21.521L22.1645 21.521C21.7113 22.2652 21.9515 23.2361 22.6995 23.683C22.6995 23.683 22.6995 23.683 22.6995 23.6831L26.1023 25.717L26.1023 25.717C26.5937 26.0106 27.206 26.0134 27.7001 25.7238L31.1176 23.7211C31.8691 23.2809 32.1179 22.3129 31.672 21.5648L31.5442 21.6409L31.672 21.5648L28.2887 15.8894C28.2887 15.8894 28.2886 15.8894 28.2886 15.8894Z" fill="#D3ECEC"/>
<path fill-rule="evenodd" clip-rule="evenodd" d="M18.7927 34.6086C17.6232 33.9107 16.3301 35.3043 17.1136 36.4184L25.7762 48.7371C25.7762 48.7371 25.7762 48.7371 25.7762 48.7371C26.2762 49.4478 27.3283 49.4527 27.8344 48.7464L36.6081 36.5064C37.4018 35.3994 36.1215 33.994 34.9454 34.6816L27.8771 38.8135C27.2421 39.1849 26.4551 39.1813 25.8233 38.8043L18.7927 34.6086C18.7927 34.6086 18.7927 34.6086 18.7927 34.6086ZM16.863 36.5946C15.8894 35.2101 17.4962 33.4782 18.9497 34.3455L25.9802 38.5413C25.9803 38.5413 25.9802 38.5413 25.9802 38.5413C26.5162 38.861 27.1839 38.8641 27.7224 38.549L34.7908 34.4171C36.2522 33.5628 37.8435 35.3091 36.8571 36.6848C36.8571 36.6848 36.8571 36.6848 36.8571 36.6848L28.0834 48.9248C27.4543 49.8027 26.1469 49.7965 25.5257 48.9134L16.863 36.5946Z" fill="#D3ECEC"/>
<path fill-rule="evenodd" clip-rule="evenodd" d="M25.9319 41.0169C24.8078 40.3461 23.5653 41.6854 24.3181 42.7559L24.3181 42.7559L25.8867 44.9867C25.8867 44.9867 25.8867 44.9867 25.8867 44.9867C26.3865 45.6974 27.4386 45.7023 27.9449 44.9958L27.9449 44.9958L29.5336 42.7797C29.5336 42.7797 29.5336 42.7797 29.5336 42.7797C30.296 41.7159 29.0656 40.3654 27.9357 41.026L27.9357 41.026C27.3159 41.3883 26.5483 41.3846 25.9319 41.0169L25.9319 41.0169ZM26.0888 40.7538C24.681 39.9137 23.1245 41.5911 24.0675 42.9322C24.0676 42.9322 24.0676 42.9322 24.0676 42.9322L25.6361 45.163L25.6361 45.163C26.2573 46.0461 27.5647 46.0522 28.1939 45.1743C28.1939 45.1743 28.1939 45.1743 28.1939 45.1743L29.7825 42.9582L29.7825 42.9582C30.7375 41.6258 29.1965 39.934 27.7812 40.7615C27.2577 41.0675 26.6094 41.0644 26.0888 40.7538Z" fill="#D3ECEC"/>
</g>
<defs>
<filter id="filter0_i_2832_408" x="0" y="0" width="54" height="55.1613" filterUnits="userSpaceOnUse" color-interpolation-filters="sRGB">
<feFlood flood-opacity="0" result="BackgroundImageFix"/>
<feBlend mode="normal" in="SourceGraphic" in2="BackgroundImageFix" result="shape"/>
<feColorMatrix in="SourceAlpha" type="matrix" values="0 0 0 0 0 0 0 0 0 0 0 0 0 0 0 0 0 0 127 0" result="hardAlpha"/>
<feOffset dy="1.16134"/>
<feGaussianBlur stdDeviation="3.0685"/>
<feComposite in2="hardAlpha" operator="arithmetic" k2="-1" k3="1"/>
<feColorMatrix type="matrix" values="0 0 0 0 0.122917 0 0 0 0 0.5 0 0 0 0 0.5 0 0 0 1 0"/>
<feBlend mode="normal" in2="shape" result="effect1_innerShadow_2832_408"/>
</filter>
<linearGradient id="paint0_linear_2832_408" x1="25.8249" y1="0.0260611" x2="28.1749" y2="53.9739" gradientUnits="userSpaceOnUse">
<stop offset="0.9999" stop-color="#093B3B"/>
<stop offset="1" stop-color="#093B3B"/>
<stop offset="1" stop-color="#093B3B"/>
<stop offset="1" stop-color="#093535"/>
</linearGradient>
</defs>
</svg>
