<?xml version="1.0" encoding="UTF-8"?>
<!DOCTYPE svg PUBLIC "-//W3C//DTD SVG 1.1//EN" "http://www.w3.org/Graphics/SVG/1.1/DTD/svg11.dtd">
<svg xmlns="http://www.w3.org/2000/svg" version="1.1" width="200px" height="200px" style="shape-rendering:geometricPrecision; text-rendering:geometricPrecision; image-rendering:optimizeQuality; fill-rule:evenodd; clip-rule:evenodd" xmlns:xlink="http://www.w3.org/1999/xlink">
<g><path style="opacity:1" fill="#131314" d="M 85.5,-0.5 C 94.8333,-0.5 104.167,-0.5 113.5,-0.5C 160.734,9.06788 189.401,37.4012 199.5,84.5C 199.5,94.8333 199.5,105.167 199.5,115.5C 189.053,161.614 160.72,189.614 114.5,199.5C 104.5,199.5 94.5,199.5 84.5,199.5C 38.2803,189.614 9.94696,161.614 -0.5,115.5C -0.5,105.167 -0.5,94.8333 -0.5,84.5C 9.59888,37.4012 38.2656,9.06788 85.5,-0.5 Z"/></g>
<g><path style="opacity:1" fill="#f0f0f0" d="M 85.5,12.5 C 125.261,9.11859 155.761,24.1186 177,57.5C 182.502,67.5033 185.669,78.1699 186.5,89.5C 137.929,80.5583 97.9294,57.225 66.5,19.5C 66.7093,18.914 67.0426,18.414 67.5,18C 73.5308,15.8324 79.5308,13.999 85.5,12.5 Z"/></g>
<g><path style="opacity:1" fill="#eaeaea" d="M 52.5,25.5 C 53.2389,25.369 53.9056,25.5357 54.5,26C 72.1909,47.0364 92.8576,64.3697 116.5,78C 90.105,70.8025 66.105,58.8025 44.5,42C 42.6487,40.3163 40.982,38.4829 39.5,36.5C 43.5594,32.4349 47.8927,28.7683 52.5,25.5 Z"/></g>
<g><path style="opacity:1" fill="#f0f0f0" d="M 116.5,91.5 C 82.004,92.4984 47.3373,92.8317 12.5,92.5C 12.5,91.5 12.5,90.5 12.5,89.5C 13.8555,73.1339 19.8555,58.8006 30.5,46.5C 55.4564,68.3141 84.1231,83.3141 116.5,91.5 Z"/></g>
<g><path style="opacity:1" fill="#8c8c8c" d="M 12.5,89.5 C 12.5,90.5 12.5,91.5 12.5,92.5C 47.3373,92.8317 82.004,92.4984 116.5,91.5C 117.766,92.0899 119.099,92.5899 120.5,93C 84.1682,93.5 47.8349,93.6667 11.5,93.5C 11.2322,91.901 11.5655,90.5676 12.5,89.5 Z"/></g>
<g><path style="opacity:1" fill="#636363" d="M 12.5,106.5 C 48.331,105.336 84.331,105.169 120.5,106C 119.756,107.039 118.756,107.539 117.5,107.5C 82.6706,106.502 47.6706,106.168 12.5,106.5 Z"/></g>
<g><path style="opacity:1" fill="#f1f1f1" d="M 12.5,106.5 C 47.6706,106.168 82.6706,106.502 117.5,107.5C 84.6865,115.405 55.6865,130.405 30.5,152.5C 19.5292,139.208 13.5292,123.875 12.5,106.5 Z"/></g>
<g><path style="opacity:1" fill="#f0f0f0" d="M 182.5,109.5 C 183.833,109.5 185.167,109.5 186.5,109.5C 180.512,149.618 157.845,174.785 118.5,185C 107.206,186.492 95.8725,186.826 84.5,186C 78.4206,184.857 72.5873,183.024 67,180.5C 66.3333,179.833 66.3333,179.167 67,178.5C 98.0218,143.069 136.522,120.069 182.5,109.5 Z"/></g>
<g><path style="opacity:1" fill="#ebebeb" d="M 112.5,121.5 C 113.552,121.351 114.552,121.517 115.5,122C 91.6646,135.495 71.1646,152.995 54,174.5C 49.0463,171.215 44.3797,167.548 40,163.5C 39.8374,161.613 40.6707,160.113 42.5,159C 63.4129,142.043 86.7463,129.543 112.5,121.5 Z"/></g>
</svg>
