<?xml version="1.0" encoding="UTF-8"?>
<svg id="Layer_2" data-name="Layer 2" xmlns="http://www.w3.org/2000/svg" viewBox="0 0 1931.83 1931.83">
  <defs>
    <style>
      .cls-1 {
        fill: #fff;
      }

      .cls-2 {
        fill: #027d55;
      }
    </style>
  </defs>
  <g id="Layer_1-2" data-name="Layer 1">
    <g>
      <g>
        <circle class="cls-1" cx="965.92" cy="965.92" r="933.92"/>
        <g>
          <path class="cls-2" d="M351.18,1054.65c0-5.62-2.94-10.13-8.82-13.53-5.88-3.4-17.05-6.93-33.52-10.59-16.47-3.66-30.06-8.46-40.77-14.41-10.72-5.95-18.89-13.16-24.5-21.66-5.62-8.49-8.43-18.23-8.43-29.21,0-19.47,8.04-35.51,24.11-48.12,16.07-12.61,37.11-18.92,63.12-18.92,27.96,0,50.44,6.34,67.43,19.01,16.99,12.68,25.48,29.34,25.48,49.99h-66.26c0-16.99-8.95-25.48-26.85-25.48-6.93,0-12.74,1.93-17.45,5.78-4.7,3.86-7.06,8.66-7.06,14.41s2.87,10.65,8.62,14.31c5.75,3.66,14.93,6.66,27.54,9.02,12.61,2.35,23.69,5.16,33.23,8.43,31.88,10.98,47.83,30.65,47.83,59,0,19.34-8.59,35.09-25.78,47.24-17.19,12.15-39.43,18.23-66.75,18.23-18.17,0-34.37-3.27-48.61-9.8-14.25-6.53-25.35-15.42-33.32-26.66-7.97-11.24-11.96-23.06-11.96-35.48h61.75c.26,9.8,3.53,16.96,9.8,21.46,6.27,4.51,14.31,6.76,24.11,6.76,9.02,0,15.78-1.83,20.29-5.49,4.51-3.66,6.76-8.43,6.76-14.31Z"/>
          <path class="cls-2" d="M610.92,1060.92h-94.29l-16.47,53.32h-73.51l104.68-285.41h64.69l105.46,285.41h-73.9l-16.66-53.32ZM533.09,1007.8h61.36l-30.78-98.99-30.58,98.99Z"/>
          <path class="cls-2" d="M953.18,1017.6c-.92,19.87-6.27,37.41-16.07,52.63-9.8,15.23-23.56,27.02-41.26,35.38-17.71,8.36-37.93,12.55-60.67,12.55-37.51,0-67.04-12.22-88.6-36.66-21.56-24.44-32.34-58.94-32.34-103.5v-14.11c0-27.96,4.87-52.44,14.6-73.41,9.73-20.97,23.75-37.18,42.05-48.61,18.29-11.43,39.47-17.15,63.51-17.15,34.63,0,62.46,9.12,83.51,27.34,21.04,18.23,33,43.36,35.87,75.37h-68.61c-.52-17.38-4.9-29.86-13.13-37.44-8.23-7.58-20.78-11.37-37.64-11.37s-29.67,6.4-37.64,19.21c-7.97,12.81-12.15,33.26-12.55,61.36v20.19c0,30.45,3.82,52.21,11.47,65.28,7.65,13.07,20.81,19.6,39.5,19.6,15.81,0,27.9-3.72,36.26-11.17,8.36-7.45,12.81-19.27,13.33-35.48h68.41Z"/>
          <path class="cls-2" d="M1091.76,1013.28h-37.24v100.95h-68.8v-285.41h112.32c33.85,0,60.31,7.51,79.39,22.52,19.08,15.01,28.62,36.23,28.62,63.64,0,19.84-4.02,36.29-12.06,49.35-8.04,13.05-20.62,23.63-37.73,31.72l59.59,115.24v2.94h-73.71l-50.38-100.95ZM1054.52,960.36h43.52c13.07,0,22.9-3.44,29.5-10.32,6.6-6.88,9.9-16.48,9.9-28.79s-3.33-21.98-10-28.98c-6.67-7.01-16.47-10.51-29.4-10.51h-43.52v78.61Z"/>
          <path class="cls-2" d="M1424.62,993.09h-108.21v68.22h127.81v52.93h-196.61v-285.41h197v53.12h-128.2v60.18h108.21v50.97Z"/>
          <path class="cls-2" d="M1472.25,1114.24v-285.41h91.94c25.22,0,47.89,5.72,68.02,17.15,20.12,11.44,35.84,27.58,47.14,48.42,11.3,20.85,17.02,44.2,17.15,70.08v13.13c0,26.14-5.52,49.56-16.56,70.28-11.04,20.71-26.59,36.92-46.65,48.61-20.06,11.7-42.44,17.61-67.14,17.74h-93.9ZM1541.05,881.95v179.36h23.92c19.73,0,34.89-7.02,45.48-21.07,10.58-14.05,15.88-34.92,15.88-62.63v-12.35c0-27.57-5.29-48.35-15.88-62.34-10.59-13.98-26.01-20.97-46.26-20.97h-23.13Z"/>
        </g>
      </g>
      <path d="M965.92,32c515.79,0,933.92,418.13,933.92,933.92s-418.13,933.92-933.92,933.92S32,1481.7,32,965.92,450.13,32,965.92,32M965.92,0c-65.52,0-131,6.6-194.63,19.62-62.03,12.69-123.05,31.63-181.36,56.3-57.24,24.21-112.45,54.18-164.09,89.06-51.14,34.55-99.23,74.23-142.93,117.93-43.7,43.7-83.38,91.79-117.93,142.93-34.89,51.64-64.85,106.85-89.06,164.09-24.66,58.31-43.6,119.32-56.3,181.36C6.6,834.92,0,900.4,0,965.92s6.6,131,19.62,194.63c12.69,62.03,31.63,123.05,56.3,181.36,24.21,57.24,54.18,112.45,89.06,164.09,34.55,51.14,74.23,99.23,117.93,142.93,43.7,43.7,91.79,83.38,142.93,117.93,51.64,34.89,106.85,64.85,164.09,89.06,58.31,24.66,119.32,43.6,181.36,56.3,63.63,13.02,129.12,19.62,194.63,19.62s131-6.6,194.63-19.62c62.03-12.69,123.05-31.63,181.36-56.3,57.24-24.21,112.45-54.18,164.09-89.06,51.14-34.55,99.23-74.23,142.93-117.93,43.7-43.7,83.38-91.79,117.93-142.93,34.89-51.64,64.85-106.85,89.06-164.09,24.66-58.31,43.6-119.32,56.3-181.36,13.02-63.63,19.62-129.12,19.62-194.63s-6.6-131-19.62-194.63c-12.69-62.03-31.63-123.05-56.3-181.36-24.21-57.24-54.18-112.45-89.06-164.09-34.55-51.14-74.23-99.23-117.93-142.93-43.7-43.7-91.79-83.38-142.93-117.93-51.64-34.89-106.85-64.85-164.09-89.06-58.31-24.66-119.32-43.6-181.36-56.3C1096.92,6.6,1031.43,0,965.92,0h0Z"/>
    </g>
  </g>
</svg>