<?xml version="1.0" encoding="UTF-8"?>
<!DOCTYPE svg PUBLIC "-//W3C//DTD SVG 1.1//EN" "http://www.w3.org/Graphics/SVG/1.1/DTD/svg11.dtd">
<svg xmlns="http://www.w3.org/2000/svg" version="1.1" width="400px" height="400px" style="shape-rendering:geometricPrecision; text-rendering:geometricPrecision; image-rendering:optimizeQuality; fill-rule:evenodd; clip-rule:evenodd" xmlns:xlink="http://www.w3.org/1999/xlink">
<g><path style="opacity:1" fill="#f9ecd4" d="M 399.5,180.5 C 399.5,193.5 399.5,206.5 399.5,219.5C 387.196,304.644 340.529,361.811 259.5,391C 246.233,394.818 232.9,397.652 219.5,399.5C 206.5,399.5 193.5,399.5 180.5,399.5C 99.4123,387.915 43.2457,344.248 12,268.5C -11.7511,194.936 0.582203,128.269 49,68.5C 97.4536,16.2121 157.287,-5.95457 228.5,2C 301.255,14.7715 353.089,54.6048 384,121.5C 391.855,140.591 397.021,160.258 399.5,180.5 Z"/></g>
<g><path style="opacity:1" fill="#180402" d="M 290.5,104.5 C 290.832,144.67 290.499,184.67 289.5,224.5C 286.296,223.099 282.963,222.099 279.5,221.5C 278.839,183.069 278.172,144.736 277.5,106.5C 277.439,103.27 275.772,101.437 272.5,101C 224.121,100.019 175.788,100.353 127.5,102C 103.876,110.739 94.3759,127.572 99,152.5C 99.7162,154.879 100.883,156.879 102.5,158.5C 105.006,164.508 108.84,169.508 114,173.5C 116.345,181.823 113.179,184.99 104.5,183C 97.066,176.406 91.3993,168.573 87.5,159.5C 79.4001,129.607 88.7334,107.107 115.5,92C 118.595,91.2862 121.595,90.2862 124.5,89C 174.463,87.3566 224.463,87.0233 274.5,88C 283.429,90.0941 288.762,95.5941 290.5,104.5 Z"/></g>
<g><path style="opacity:1" fill="#f5e6d4" d="M 298.5,242.5 C 291.879,235.686 283.879,231.186 274.5,229C 235.833,228.333 197.167,228.333 158.5,229C 154.333,230.5 151.5,233.333 150,237.5C 149.333,244.833 149.333,252.167 150,259.5C 151.105,264.206 153.938,267.373 158.5,269C 162.486,269.499 166.486,269.666 170.5,269.5C 170.5,265.167 170.5,260.833 170.5,256.5C 167.833,256.5 165.167,256.5 162.5,256.5C 162.5,251.5 162.5,246.5 162.5,241.5C 179.6,241.432 188.933,249.932 190.5,267C 187.161,286.846 175.494,295.18 155.5,292C 147.73,289.229 142.23,284.063 139,276.5C 137.681,229.559 137.015,182.559 137,135.5C 135.5,132.667 133.333,130.5 130.5,129C 125.845,128.501 121.179,128.334 116.5,128.5C 115.515,132.634 115.182,136.968 115.5,141.5C 118.167,141.5 120.833,141.5 123.5,141.5C 123.333,185.835 123.5,230.168 124,274.5C 126.472,287.785 133.639,297.452 145.5,303.5C 142.308,305.095 139.141,304.429 136,301.5C 135.026,303.878 134.359,303.544 134,300.5C 131.266,301.362 131.099,302.195 133.5,303C 131.527,303.495 129.527,303.662 127.5,303.5C 127.528,298.138 127.194,292.805 126.5,287.5C 123.5,287.5 120.5,287.5 117.5,287.5C 119.223,281.373 120.389,275.706 121,270.5C 121.081,228.152 121.247,185.818 121.5,143.5C 120.178,143.33 119.011,143.663 118,144.5C 117.828,149.202 117.328,153.868 116.5,158.5C 115.833,153.5 115.167,148.5 114.5,143.5C 113.522,143.023 112.689,142.357 112,141.5C 111.01,137.556 111.51,133.889 113.5,130.5C 113.023,129.522 112.357,128.689 111.5,128C 113.095,128.617 114.428,128.284 115.5,127C 121.167,126.333 126.833,126.333 132.5,127C 133.667,127.5 134.5,128.333 135,129.5C 135.333,129.167 135.667,128.833 136,128.5C 137.204,129.471 137.704,130.471 137.5,131.5C 139.001,130.248 140.668,129.248 142.5,128.5C 144.288,133.189 143.621,137.356 140.5,141C 140.381,142.281 140.881,143.448 142,144.5C 142.333,184.167 142.667,223.833 143,263.5C 143.925,262.953 144.758,262.287 145.5,261.5C 144.359,260.575 144.359,259.741 145.5,259C 143.008,257.751 143.175,256.584 146,255.5C 146.667,250.167 146.667,244.833 146,239.5C 145.5,238.333 144.667,237.5 143.5,237C 144.424,236.15 144.424,235.15 143.5,234C 144.237,231.201 145.07,231.034 146,233.5C 147.174,230.326 149.341,228.159 152.5,227C 151.167,226 151.167,225 152.5,224C 155.275,223.222 157.775,223.722 160,225.5C 161.333,224.167 162.667,224.167 164,225.5C 164.95,224.978 165.784,224.311 166.5,223.5C 167.696,223.846 167.696,224.346 166.5,225C 200.363,225.177 234.196,225.677 268,226.5C 269.676,223.84 271.343,223.84 273,226.5C 273.667,223.833 274.333,223.833 275,226.5C 275.308,225.692 275.808,225.025 276.5,224.5C 278.098,225.485 279.765,225.651 281.5,225C 279.238,224.358 277.071,223.525 275,222.5C 274.378,220.269 273.211,218.435 271.5,217C 272.167,216.667 272.833,216.333 273.5,216C 271.893,214.951 271.227,213.451 271.5,211.5C 272.5,211.5 273.5,211.5 274.5,211.5C 274.171,177.594 274.504,143.76 275.5,110C 272.36,109 271.027,106.833 271.5,103.5C 222.136,103.599 174.636,103.599 129,103.5C 127.812,104.563 127.312,105.897 127.5,107.5C 124.925,106.721 122.592,106.887 120.5,108C 120.833,108.333 121.167,108.667 121.5,109C 120.333,109.5 119.5,110.333 119,111.5C 117.044,111.216 114.877,111.216 112.5,111.5C 112.167,113.5 111.833,115.5 111.5,117.5C 110.127,117.343 108.793,117.51 107.5,118C 108.167,118.333 108.833,118.667 109.5,119C 108.341,120.827 107.008,122.493 105.5,124C 106,124.5 106.5,125 107,125.5C 107.335,130.519 107.835,135.519 108.5,140.5C 108.167,141.5 107.833,142.5 107.5,143.5C 106.914,143.291 106.414,142.957 106,142.5C 105.829,137.467 105.329,132.467 104.5,127.5C 101.908,129.161 101.241,131.328 102.5,134C 99.6389,136.656 98.9722,139.823 100.5,143.5C 102.167,143.833 103.167,144.833 103.5,146.5C 102.647,150.752 102.314,154.752 102.5,158.5C 100.883,156.879 99.7162,154.879 99,152.5C 94.3759,127.572 103.876,110.739 127.5,102C 175.788,100.353 224.121,100.019 272.5,101C 275.772,101.437 277.439,103.27 277.5,106.5C 276.839,145.181 277.506,183.515 279.5,221.5C 282.963,222.099 286.296,223.099 289.5,224.5C 289.56,225.043 289.893,225.376 290.5,225.5C 291.831,185.002 291.831,144.669 290.5,104.5C 288.762,95.5941 283.429,90.0941 274.5,88C 224.463,87.0233 174.463,87.3566 124.5,89C 121.595,90.2862 118.595,91.2862 115.5,92C 88.7334,107.107 79.4001,129.607 87.5,159.5C 86.4168,159.461 85.4168,159.127 84.5,158.5C 78.9839,151.749 77.9839,144.582 81.5,137C 81.1081,135.989 80.4415,135.489 79.5,135.5C 80.991,133.193 81.991,130.693 82.5,128C 81.376,127.751 80.376,127.251 79.5,126.5C 80.5294,126.704 81.5294,126.204 82.5,125C 80.666,120.325 82.3327,118.492 87.5,119.5C 88.6238,114.186 88.6238,108.852 87.5,103.5C 90.0878,103.543 92.2544,104.543 94,106.5C 94.6172,105.551 94.4506,104.718 93.5,104C 94.9661,102.448 95.9661,100.614 96.5,98.5C 103.16,97.5039 105.493,93.8372 103.5,87.5C 104.552,87.3505 105.552,87.5172 106.5,88C 105.541,90.6905 106.208,91.0238 108.5,89C 108.167,88.6667 107.833,88.3333 107.5,88C 113.5,87.6667 119.5,87.3333 125.5,87C 173.833,86.6667 222.167,86.3333 270.5,86C 271.399,84.7638 272.566,83.9304 274,83.5C 277.201,84.7905 280.201,86.4572 283,88.5C 284.117,88.3349 285.284,88.0016 286.5,87.5C 286.751,91.4459 288.918,94.4459 293,96.5C 293.333,96.1667 293.667,95.8333 294,95.5C 295.022,97.7017 295.522,100.035 295.5,102.5C 294.276,123.821 293.609,145.488 293.5,167.5C 293.667,186.167 293.833,204.833 294,223.5C 294.374,224.416 294.874,225.25 295.5,226C 294.511,227.82 293.511,229.653 292.5,231.5C 294.079,233.927 295.913,236.26 298,238.5C 298.49,239.793 298.657,241.127 298.5,242.5 Z"/></g>
<g><path style="opacity:1" fill="#7b695d" d="M 116.5,128.5 C 116.5,132.5 116.5,136.5 116.5,140.5C 119.059,140.198 121.393,140.532 123.5,141.5C 120.833,141.5 118.167,141.5 115.5,141.5C 115.182,136.968 115.515,132.634 116.5,128.5 Z"/></g>
<g><path style="opacity:1" fill="#190201" d="M 160.5,130.5 C 187.502,130.333 214.502,130.5 241.5,131C 245.292,133.053 246.458,136.219 245,140.5C 244.167,141.333 243.333,142.167 242.5,143C 214.835,143.5 187.169,143.667 159.5,143.5C 159.182,138.968 159.515,134.634 160.5,130.5 Z"/></g>
<g><path style="opacity:1" fill="#a79588" d="M 290.5,104.5 C 291.831,144.669 291.831,185.002 290.5,225.5C 289.893,225.376 289.56,225.043 289.5,224.5C 290.499,184.67 290.832,144.67 290.5,104.5 Z"/></g>
<g><path style="opacity:1" fill="#4b3e32" d="M 277.5,106.5 C 278.172,144.736 278.839,183.069 279.5,221.5C 277.506,183.515 276.839,145.181 277.5,106.5 Z"/></g>
<g><path style="opacity:1" fill="#f8e7d4" d="M 159.5,143.5 C 187.169,143.667 214.835,143.5 242.5,143C 243.333,142.167 244.167,141.333 245,140.5C 246.458,136.219 245.292,133.053 241.5,131C 214.502,130.5 187.502,130.333 160.5,130.5C 160.389,129.883 160.056,129.383 159.5,129C 161.235,128.349 162.902,128.515 164.5,129.5C 165.167,128.833 165.833,128.167 166.5,127.5C 192.383,128.8 218.05,128.8 243.5,127.5C 243.489,128.441 243.989,129.108 245,129.5C 245.772,129.355 246.439,129.022 247,128.5C 247.393,130.929 247.893,133.595 248.5,136.5C 248.085,141.085 247.418,145.585 246.5,150C 247.647,151.281 247.313,151.614 245.5,151C 244.126,147.59 243.459,147.757 243.5,151.5C 217.951,150.198 192.451,150.198 167,151.5C 166.667,150.833 166.333,150.167 166,149.5C 165.612,150.428 164.945,151.095 164,151.5C 162.765,150.385 161.598,150.385 160.5,151.5C 160.01,150.116 159.676,148.616 159.5,147C 161.931,145.908 161.931,144.741 159.5,143.5 Z"/></g>
<g><path style="opacity:1" fill="#f4e4d4" d="M 158.5,159.5 C 190.895,159.597 223.395,159.597 256,159.5C 258.786,159.621 261.286,160.455 263.5,162C 262.228,164.044 262.561,165.878 264.5,167.5C 262.89,170.142 262.39,172.809 263,175.5C 262.333,174.833 261.667,174.167 261,173.5C 259.902,174.967 258.402,175.801 256.5,176C 224.167,176.667 191.833,176.667 159.5,176C 158.527,170.593 158.193,165.093 158.5,159.5 Z"/></g>
<g><path style="opacity:1" fill="#170401" d="M 159.5,161.5 C 191.502,161.333 223.502,161.5 255.5,162C 259.292,164.053 260.458,167.219 259,171.5C 258.167,172.333 257.333,173.167 256.5,174C 224.168,174.5 191.835,174.667 159.5,174.5C 159.5,170.167 159.5,165.833 159.5,161.5 Z"/></g>
<g><path style="opacity:1" fill="#f3e3d4" d="M 159.5,190.5 C 188.865,190.191 218.198,190.524 247.5,191.5C 248.627,193.998 249.294,196.664 249.5,199.5C 249.294,202.336 248.627,205.002 247.5,207.5C 218.03,206.198 188.363,206.198 158.5,207.5C 158.214,201.741 158.548,196.075 159.5,190.5 Z"/></g>
<g><path style="opacity:1" fill="#180401" d="M 159.5,192.5 C 186.835,192.333 214.169,192.5 241.5,193C 245.292,195.053 246.458,198.219 245,202.5C 244.097,203.701 242.931,204.535 241.5,205C 214.169,205.5 186.835,205.667 159.5,205.5C 159.5,201.167 159.5,196.833 159.5,192.5 Z"/></g>
<g><path style="opacity:1" fill="#1c0906" d="M 116.5,128.5 C 121.179,128.334 125.845,128.501 130.5,129C 133.333,130.5 135.5,132.667 137,135.5C 137.015,182.559 137.681,229.559 139,276.5C 142.23,284.063 147.73,289.229 155.5,292C 175.494,295.18 187.161,286.846 190.5,267C 188.933,249.932 179.6,241.432 162.5,241.5C 162.5,246.5 162.5,251.5 162.5,256.5C 165.167,256.5 167.833,256.5 170.5,256.5C 170.5,260.833 170.5,265.167 170.5,269.5C 166.486,269.666 162.486,269.499 158.5,269C 153.938,267.373 151.105,264.206 150,259.5C 149.333,252.167 149.333,244.833 150,237.5C 151.5,233.333 154.333,230.5 158.5,229C 197.167,228.333 235.833,228.333 274.5,229C 283.879,231.186 291.879,235.686 298.5,242.5C 298.5,242.833 298.5,243.167 298.5,243.5C 307.859,257.022 309.026,271.356 302,286.5C 295.523,297.294 286.023,303.794 273.5,306C 234.5,306.667 195.5,306.667 156.5,306C 153.198,304.974 149.865,304.14 146.5,303.5C 146.167,303.5 145.833,303.5 145.5,303.5C 133.639,297.452 126.472,287.785 124,274.5C 123.5,230.168 123.333,185.835 123.5,141.5C 121.393,140.532 119.059,140.198 116.5,140.5C 116.5,136.5 116.5,132.5 116.5,128.5 Z"/></g>
<g><path style="opacity:1" fill="#ae936d" d="M 271.5,242.5 C 245.995,242.169 220.661,242.502 195.5,243.5C 194.957,243.44 194.624,243.107 194.5,242.5C 220.33,241.171 245.997,241.171 271.5,242.5 Z"/></g>
<g><path style="opacity:1" fill="#e4bd8c" d="M 271.5,242.5 C 284.733,245.068 292.067,253.068 293.5,266.5C 292.963,281.029 285.63,289.696 271.5,292.5C 245.661,292.831 219.995,292.498 194.5,291.5C 205.951,275.817 206.285,259.817 195.5,243.5C 220.661,242.502 245.995,242.169 271.5,242.5 Z"/></g>
<g><path style="opacity:1" fill="#e7c088" d="M 265.5,244.5 C 266.274,243.853 267.274,243.52 268.5,243.5C 272.201,244.175 275.868,245.009 279.5,246C 282.606,250.845 286.44,255.679 291,260.5C 291.442,266.101 291.108,271.434 290,276.5C 287.276,280.468 284.11,283.968 280.5,287C 266.014,287.527 253.18,287.36 242,286.5C 240,287.167 238,287.833 236,288.5C 226.917,287.515 217.751,287.182 208.5,287.5C 208.665,284.482 208.498,281.482 208,278.5C 206.086,277.586 204.919,276.086 204.5,274C 205.273,267.871 205.773,261.704 206,255.5C 206.093,252.993 206.926,250.826 208.5,249C 229.509,248.561 250.509,248.561 271.5,249C 272.5,248.667 273.5,248.333 274.5,248C 273.338,247.173 272.171,246.34 271,245.5C 269.107,246.345 267.274,246.012 265.5,244.5 Z"/></g>
<g><path style="opacity:1" fill="#73563a" d="M 194.5,291.5 C 219.995,292.498 245.661,292.831 271.5,292.5C 245.664,293.829 219.664,293.829 193.5,292.5C 193.624,291.893 193.957,291.56 194.5,291.5 Z"/></g>
<g><path style="opacity:1" fill="#f8e8d6" d="M 146.5,303.5 C 149.865,304.14 153.198,304.974 156.5,306C 195.5,306.667 234.5,306.667 273.5,306C 286.023,303.794 295.523,297.294 302,286.5C 309.026,271.356 307.859,257.022 298.5,243.5C 300.144,243.714 301.644,243.38 303,242.5C 302.689,243.935 302.855,245.268 303.5,246.5C 306.224,247.919 308.89,248.586 311.5,248.5C 310.834,249.831 310.834,251.331 311.5,253C 311.215,254.89 310.215,256.223 308.5,257C 309.167,259 309.833,261 310.5,263C 309.692,263.308 309.025,263.808 308.5,264.5C 309.552,266.11 309.552,267.777 308.5,269.5C 309.725,271.892 310.725,274.392 311.5,277C 310.276,280.272 310.276,283.772 311.5,287.5C 309.208,287.756 307.041,287.423 305,286.5C 303.573,288.705 303.073,290.872 303.5,293C 298.859,294.974 295.526,298.308 293.5,303C 289.277,302.972 285.611,304.305 282.5,307C 284.112,307.72 285.612,307.554 287,306.5C 287.834,309.814 286.501,311.481 283,311.5C 280.739,311.561 278.739,310.894 277,309.5C 275.755,309.461 274.422,309.795 273,310.5C 271.278,310.389 271.112,309.889 272.5,309C 269.574,308.782 266.74,308.282 264,307.5C 235.935,309.738 207.602,309.738 179,307.5C 172.132,307.548 165.298,308.048 158.5,309C 159.167,309.333 159.833,309.667 160.5,310C 159.128,310.402 157.795,310.902 156.5,311.5C 155.808,310.975 155.308,310.308 155,309.5C 153.007,311.378 150.841,311.712 148.5,310.5C 149.025,309.808 149.692,309.308 150.5,309C 148.926,308.301 147.593,308.635 146.5,310C 146.833,310.333 147.167,310.667 147.5,311C 146.207,311.49 144.873,311.657 143.5,311.5C 143.5,310.167 143.5,308.833 143.5,307.5C 144.873,307.657 146.207,307.49 147.5,307C 146.663,305.989 146.33,304.822 146.5,303.5 Z"/></g>
</svg>
