<?xml version="1.0" encoding="UTF-8"?>
<!DOCTYPE svg PUBLIC "-//W3C//DTD SVG 1.1//EN" "http://www.w3.org/Graphics/SVG/1.1/DTD/svg11.dtd">
<svg xmlns="http://www.w3.org/2000/svg" version="1.1" width="320px" height="320px" style="shape-rendering:geometricPrecision; text-rendering:geometricPrecision; image-rendering:optimizeQuality; fill-rule:evenodd; clip-rule:evenodd" xmlns:xlink="http://www.w3.org/1999/xlink">
<g><path style="opacity:1" fill="#434a50" d="M 141.5,-0.5 C 153.5,-0.5 165.5,-0.5 177.5,-0.5C 246.405,10.5679 291.905,49.2345 314,115.5C 316.172,124.235 318.005,132.902 319.5,141.5C 319.5,153.5 319.5,165.5 319.5,177.5C 308.432,246.405 269.765,291.905 203.5,314C 194.765,316.172 186.098,318.005 177.5,319.5C 165.5,319.5 153.5,319.5 141.5,319.5C 72.5952,308.432 27.0952,269.765 5,203.5C 2.82789,194.765 0.994558,186.098 -0.5,177.5C -0.5,165.5 -0.5,153.5 -0.5,141.5C 10.5679,72.5952 49.2345,27.0952 115.5,5C 124.235,2.82789 132.902,0.994558 141.5,-0.5 Z"/></g>
<g><path style="opacity:1" fill="#060c0c" d="M 144.5,9.5 C 217.028,6.95846 268.528,38.2918 299,103.5C 320.462,166.806 307.962,222.306 261.5,270C 223.693,302.597 180.026,314.93 130.5,307C 64.5098,290.675 24.6765,249.175 11,182.5C 4.01309,113.974 29.8464,62.1408 88.5,27C 106.318,18.0026 124.984,12.1693 144.5,9.5 Z"/></g>
<g><path style="opacity:1" fill="#f7f7f7" d="M 144.5,49.5 C 168.932,47.2896 191.599,52.4563 212.5,65C 228.897,76.6263 237.897,92.4596 239.5,112.5C 227.5,112.5 215.5,112.5 203.5,112.5C 199.79,96.2888 189.79,86.1221 173.5,82C 155.882,76.7778 139.549,79.2778 124.5,89.5C 123.167,77.8333 123.167,66.1667 124.5,54.5C 131.14,52.1733 137.807,50.5066 144.5,49.5 Z"/></g>
<g><path style="opacity:1" fill="#f7f7f7" d="M 240.5,225.5 C 227.656,225.829 214.989,225.495 202.5,224.5C 204.497,221.84 205.997,218.84 207,215.5C 209.923,204.444 207.09,195.278 198.5,188C 193.002,184.252 187.002,181.585 180.5,180C 166.872,177.208 153.205,174.541 139.5,172C 124.745,169.198 111.078,163.864 98.5,156C 81.716,141.219 75.5493,122.719 80,100.5C 80.662,98.1873 81.162,95.854 81.5,93.5C 94.5043,93.3334 107.504,93.5001 120.5,94C 118.348,96.4689 116.848,99.3022 116,102.5C 113.197,115.458 117.364,125.291 128.5,132C 133.678,134.393 139.012,136.393 144.5,138C 164.381,141.411 184.047,145.744 203.5,151C 239.598,163.953 251.931,188.786 240.5,225.5 Z"/></g>
<g><path style="opacity:1" fill="#f6f7f7" d="M 74.5,200.5 C 86.5,200.5 98.5,200.5 110.5,200.5C 113.807,218.982 124.474,231.149 142.5,237C 162.309,242.185 180.976,239.685 198.5,229.5C 199.833,240.833 199.833,252.167 198.5,263.5C 172.016,271.834 145.683,271.334 119.5,262C 92.7814,250.11 77.7814,229.61 74.5,200.5 Z"/></g>
<g><path style="opacity:1" fill="#434343" d="M 202.5,224.5 C 214.989,225.495 227.656,225.829 240.5,225.5C 227.661,226.825 214.661,226.825 201.5,225.5C 201.624,224.893 201.957,224.56 202.5,224.5 Z"/></g>
</svg>
