<?xml version="1.0" encoding="UTF-8"?>
<!DOCTYPE svg PUBLIC "-//W3C//DTD SVG 1.1//EN" "http://www.w3.org/Graphics/SVG/1.1/DTD/svg11.dtd">
<svg xmlns="http://www.w3.org/2000/svg" version="1.1" width="200px" height="200px" style="shape-rendering:geometricPrecision; text-rendering:geometricPrecision; image-rendering:optimizeQuality; fill-rule:evenodd; clip-rule:evenodd" xmlns:xlink="http://www.w3.org/1999/xlink">
<g><path style="opacity:1" fill="#f9f9f9" d="M 88.5,-0.5 C 95.8333,-0.5 103.167,-0.5 110.5,-0.5C 160.5,8.83333 190.167,38.5 199.5,88.5C 199.5,95.8333 199.5,103.167 199.5,110.5C 190.167,160.5 160.5,190.167 110.5,199.5C 103.167,199.5 95.8333,199.5 88.5,199.5C 38.5,190.167 8.83333,160.5 -0.5,110.5C -0.5,103.167 -0.5,95.8333 -0.5,88.5C 8.83333,38.5 38.5,8.83333 88.5,-0.5 Z"/></g>
<g><path style="opacity:1" fill="#a4e3e2" d="M 121.5,30.5 C 110.716,27.2279 99.716,26.2279 88.5,27.5C 87.8333,24.8333 87.1667,22.1667 86.5,19.5C 99.1502,17.1176 111.817,17.7843 124.5,21.5C 124.072,24.7846 123.072,27.7846 121.5,30.5 Z"/></g>
<g><path style="opacity:1" fill="#a1d6e7" d="M 121.5,30.5 C 121.233,32.9653 120.566,35.2986 119.5,37.5C 109.639,34.5449 99.6395,33.8783 89.5,35.5C 88.7347,32.9039 88.4013,30.2372 88.5,27.5C 99.716,26.2279 110.716,27.2279 121.5,30.5 Z"/></g>
<g><path style="opacity:1" fill="#2acff9" d="M 86.5,19.5 C 87.1667,22.1667 87.8333,24.8333 88.5,27.5C 88.4013,30.2372 88.7347,32.9039 89.5,35.5C 89.5,36.8333 89.5,38.1667 89.5,39.5C 85.0549,40.1949 80.7215,41.3616 76.5,43C 69.114,46.686 62.114,50.8526 55.5,55.5C 50.8333,51.1667 46.1667,46.8333 41.5,42.5C 53.8273,29.8353 68.8273,22.1686 86.5,19.5 Z"/></g>
<g><path style="opacity:1" fill="#e764d2" d="M 167.5,77.5 C 165.065,69.9643 161.565,62.9643 157,56.5C 152.25,50.9255 147.417,45.5922 142.5,40.5C 143.842,37.8342 145.675,35.5008 148,33.5C 161.534,43.7272 171.034,56.8938 176.5,73C 176.355,73.772 176.022,74.4387 175.5,75C 172.708,75.5423 170.042,76.3756 167.5,77.5 Z"/></g>
<g><path style="opacity:1" fill="#a2c9ed" d="M 119.5,37.5 C 118.833,39.8333 118.167,42.1667 117.5,44.5C 108.59,42.838 99.5904,42.1714 90.5,42.5C 90.7373,41.209 90.404,40.209 89.5,39.5C 89.5,38.1667 89.5,36.8333 89.5,35.5C 99.6395,33.8783 109.639,34.5449 119.5,37.5 Z"/></g>
<g><path style="opacity:1" fill="#9fbff3" d="M 90.5,42.5 C 99.5904,42.1714 108.59,42.838 117.5,44.5C 116.677,46.9872 115.677,49.3206 114.5,51.5C 106.875,49.5579 99.2085,49.2246 91.5,50.5C 91.4249,47.7938 91.0916,45.1272 90.5,42.5 Z"/></g>
<g><path style="opacity:1" fill="#52c7f9" d="M 89.5,39.5 C 90.404,40.209 90.7373,41.209 90.5,42.5C 91.0916,45.1272 91.4249,47.7938 91.5,50.5C 87.6811,50.605 84.0145,51.4383 80.5,53C 74.4011,55.9592 68.7345,59.4592 63.5,63.5C 60.5,61.1667 57.8333,58.5 55.5,55.5C 62.114,50.8526 69.114,46.686 76.5,43C 80.7215,41.3616 85.0549,40.1949 89.5,39.5 Z"/></g>
<g><path style="opacity:1" fill="#ed72c2" d="M 142.5,40.5 C 147.417,45.5922 152.25,50.9255 157,56.5C 161.565,62.9643 165.065,69.9643 167.5,77.5C 163.89,78.7033 160.223,79.7033 156.5,80.5C 152.614,68.2873 145.614,58.2873 135.5,50.5C 137.846,47.1292 140.179,43.7959 142.5,40.5 Z"/></g>
<g><path style="opacity:1" fill="#5381f4" d="M 41.5,42.5 C 46.1667,46.8333 50.8333,51.1667 55.5,55.5C 57.8333,58.5 60.5,61.1667 63.5,63.5C 64.8333,65.1667 66.1667,66.8333 67.5,68.5C 65.8333,69.8333 64.1667,71.1667 62.5,72.5C 52.5065,65.8301 42.8398,58.6635 33.5,51C 36.0671,47.997 38.7337,45.1637 41.5,42.5 Z"/></g>
<g><path style="opacity:1" fill="#70c0f9" d="M 91.5,50.5 C 92.2653,53.0961 92.5987,55.7628 92.5,58.5C 85.049,60.382 78.3823,63.882 72.5,69C 71.552,69.4828 70.552,69.6495 69.5,69.5C 68.8333,69.1667 68.1667,68.8333 67.5,68.5C 66.1667,66.8333 64.8333,65.1667 63.5,63.5C 68.7345,59.4592 74.4011,55.9592 80.5,53C 84.0145,51.4383 87.6811,50.605 91.5,50.5 Z"/></g>
<g><path style="opacity:1" fill="#ed82b3" d="M 135.5,50.5 C 145.614,58.2873 152.614,68.2873 156.5,80.5C 153.061,82.2043 149.395,83.5376 145.5,84.5C 142.299,74.7701 136.633,66.7701 128.5,60.5C 130.344,56.8084 132.677,53.4751 135.5,50.5 Z"/></g>
<g><path style="opacity:1" fill="#9ca8f9" d="M 114.5,51.5 C 113.607,57.1724 111.941,62.5057 109.5,67.5C 104.562,66.6076 99.5624,66.2743 94.5,66.5C 94.0372,63.6697 93.3705,61.003 92.5,58.5C 92.5987,55.7628 92.2653,53.0961 91.5,50.5C 99.2085,49.2246 106.875,49.5579 114.5,51.5 Z"/></g>
<g><path style="opacity:1" fill="#f28da6" d="M 128.5,60.5 C 136.633,66.7701 142.299,74.7701 145.5,84.5C 143.579,85.3627 141.579,86.0293 139.5,86.5C 136.218,78.2674 131.218,71.2674 124.5,65.5C 125.124,63.246 126.457,61.5794 128.5,60.5 Z"/></g>
<g><path style="opacity:1" fill="#89baf9" d="M 92.5,58.5 C 93.3705,61.003 94.0372,63.6697 94.5,66.5C 94.5,67.1667 94.5,67.8333 94.5,68.5C 87.978,70.0964 81.978,72.7631 76.5,76.5C 73.8333,74.5 71.5,72.1667 69.5,69.5C 70.552,69.6495 71.552,69.4828 72.5,69C 78.3823,63.882 85.049,60.382 92.5,58.5 Z"/></g>
<g><path style="opacity:1" fill="#9c90fa" d="M 94.5,66.5 C 99.5624,66.2743 104.562,66.6076 109.5,67.5C 106.5,77.5 103.5,87.5 100.5,97.5C 99.8826,97.3893 99.3826,97.056 99,96.5C 98.1645,91.4869 97.3312,86.4869 96.5,81.5C 95.9412,77.1474 95.2745,72.814 94.5,68.5C 94.5,67.8333 94.5,67.1667 94.5,66.5 Z"/></g>
<g><path style="opacity:1" fill="#f39999" d="M 124.5,65.5 C 131.218,71.2674 136.218,78.2674 139.5,86.5C 136.183,87.4967 132.85,88.4967 129.5,89.5C 127.384,83.0594 123.718,77.726 118.5,73.5C 120.147,70.5265 122.147,67.8599 124.5,65.5 Z"/></g>
<g><path style="opacity:1" fill="#a9b3f8" d="M 94.5,68.5 C 95.2745,72.814 95.9412,77.1474 96.5,81.5C 92.6882,82.9069 89.0215,84.5736 85.5,86.5C 82.5,83.1667 79.5,79.8333 76.5,76.5C 81.978,72.7631 87.978,70.0964 94.5,68.5 Z"/></g>
<g><path style="opacity:1" fill="#b295eb" d="M 67.5,68.5 C 68.1667,68.8333 68.8333,69.1667 69.5,69.5C 71.5,72.1667 73.8333,74.5 76.5,76.5C 79.5,79.8333 82.5,83.1667 85.5,86.5C 84.8333,86.8333 84.1667,87.1667 83.5,87.5C 76.1982,82.8558 69.1982,77.8558 62.5,72.5C 64.1667,71.1667 65.8333,69.8333 67.5,68.5 Z"/></g>
<g><path style="opacity:1" fill="#f3a68c" d="M 118.5,73.5 C 123.718,77.726 127.384,83.0594 129.5,89.5C 126.833,90.5 124.167,91.5 121.5,92.5C 120.132,87.3947 117.132,83.728 112.5,81.5C 114.512,78.795 116.512,76.1283 118.5,73.5 Z"/></g>
<g><path style="opacity:1" fill="#fac55b" d="M 42.5,81.5 C 41.0113,87.4048 40.0113,93.4048 39.5,99.5C 38.8333,99.5 38.1667,99.5 37.5,99.5C 31.1667,99.5 24.8333,99.5 18.5,99.5C 18.1285,90.9888 19.1285,82.6555 21.5,74.5C 28.7839,76.2613 35.7839,78.5946 42.5,81.5 Z"/></g>
<g><path style="opacity:1" fill="#fab47f" d="M 112.5,81.5 C 117.132,83.728 120.132,87.3947 121.5,92.5C 114.608,94.4625 107.941,96.7958 101.5,99.5C 100.833,99.5 100.167,99.5 99.5,99.5C 99.8333,98.8333 100.167,98.1667 100.5,97.5C 104.853,92.4734 108.853,87.14 112.5,81.5 Z"/></g>
<g><path style="opacity:1" fill="#d1adef" d="M 96.5,81.5 C 97.3312,86.4869 98.1645,91.4869 99,96.5C 99.3826,97.056 99.8826,97.3893 100.5,97.5C 100.167,98.1667 99.8333,98.8333 99.5,99.5C 99.1667,99.5 98.8333,99.5 98.5,99.5C 98.5,98.8333 98.1667,98.5 97.5,98.5C 92.8333,94.8333 88.1667,91.1667 83.5,87.5C 84.1667,87.1667 84.8333,86.8333 85.5,86.5C 89.0215,84.5736 92.6882,82.9069 96.5,81.5 Z"/></g>
<g><path style="opacity:1" fill="#fad27c" d="M 42.5,81.5 C 50.4993,83.8331 58.4993,86.1664 66.5,88.5C 65.5778,92.1119 64.9111,95.7785 64.5,99.5C 62.8333,99.5 61.1667,99.5 59.5,99.5C 52.8333,99.5 46.1667,99.5 39.5,99.5C 40.0113,93.4048 41.0113,87.4048 42.5,81.5 Z"/></g>
<g><path style="opacity:1" fill="#fae1a3" d="M 66.5,88.5 C 76.6946,92.2314 87.0279,95.5648 97.5,98.5C 98.1667,98.5 98.5,98.8333 98.5,99.5C 89.1667,99.5 79.8333,99.5 70.5,99.5C 68.5,99.5 66.5,99.5 64.5,99.5C 64.9111,95.7785 65.5778,92.1119 66.5,88.5 Z"/></g>
<g><path style="opacity:1" fill="#c276fa" d="M 18.5,99.5 C 24.8333,99.5 31.1667,99.5 37.5,99.5C 37.7443,105.965 38.7443,112.299 40.5,118.5C 34.3042,120.898 27.9708,122.898 21.5,124.5C 19.1285,116.345 18.1285,108.011 18.5,99.5 Z"/></g>
<g><path style="opacity:1" fill="#ac62fa" d="M 37.5,99.5 C 38.1667,99.5 38.8333,99.5 39.5,99.5C 46.1667,99.5 52.8333,99.5 59.5,99.5C 59.0834,103.817 59.7501,107.817 61.5,111.5C 54.6589,114.003 47.6589,116.336 40.5,118.5C 38.7443,112.299 37.7443,105.965 37.5,99.5 Z"/></g>
<g><path style="opacity:1" fill="#964dfa" d="M 59.5,99.5 C 61.1667,99.5 62.8333,99.5 64.5,99.5C 66.5,99.5 68.5,99.5 70.5,99.5C 70.3677,102.57 70.701,105.57 71.5,108.5C 68.3012,109.899 64.9679,110.899 61.5,111.5C 59.7501,107.817 59.0834,103.817 59.5,99.5 Z"/></g>
<g><path style="opacity:1" fill="#7e38fa" d="M 70.5,99.5 C 79.8333,99.5 89.1667,99.5 98.5,99.5C 89.6589,102.669 80.6589,105.669 71.5,108.5C 70.701,105.57 70.3677,102.57 70.5,99.5 Z"/></g>
<g><path style="opacity:1" fill="#9b94fa" d="M 101.5,99.5 C 112.167,99.5 122.833,99.5 133.5,99.5C 133.044,102.906 132.378,106.239 131.5,109.5C 130.833,109.5 130.167,109.5 129.5,109.5C 120.021,106.342 110.688,103.009 101.5,99.5 Z"/></g>
<g><path style="opacity:1" fill="#9caef9" d="M 133.5,99.5 C 138.833,99.5 144.167,99.5 149.5,99.5C 149.57,104.609 148.903,109.609 147.5,114.5C 144.5,113.833 141.5,113.167 138.5,112.5C 136.321,111.323 133.987,110.323 131.5,109.5C 132.378,106.239 133.044,102.906 133.5,99.5 Z"/></g>
<g><path style="opacity:1" fill="#a1c7ef" d="M 149.5,99.5 C 154.5,99.5 159.5,99.5 164.5,99.5C 164.933,106.426 163.933,113.093 161.5,119.5C 157.167,118.167 152.833,116.833 148.5,115.5C 147.833,115.5 147.5,115.167 147.5,114.5C 148.903,109.609 149.57,104.609 149.5,99.5 Z"/></g>
<g><path style="opacity:1" fill="#a3dfe3" d="M 164.5,99.5 C 170.167,99.5 175.833,99.5 181.5,99.5C 181.207,108.23 179.54,116.563 176.5,124.5C 171.939,122.859 167.272,121.526 162.5,120.5C 162.5,119.833 162.167,119.5 161.5,119.5C 163.933,113.093 164.933,106.426 164.5,99.5 Z"/></g>
<g><path style="opacity:1" fill="#038ffa" d="M 99.5,100.5 C 99.5,100.167 99.5,99.8333 99.5,99.5C 100.167,99.5 100.833,99.5 101.5,99.5C 110.688,103.009 120.021,106.342 129.5,109.5C 127.629,116.262 123.629,121.262 117.5,124.5C 112.065,116.617 106.399,108.95 100.5,101.5C 100.5,100.833 100.167,100.5 99.5,100.5 Z"/></g>
<g><path style="opacity:1" fill="#d7a9da" d="M 85.5,118.5 C 84.1667,116.5 82.5,114.833 80.5,113.5C 100.833,96.5 102.5,98.1667 85.5,118.5 Z"/></g>
<g><path style="opacity:1" fill="#04a0fa" d="M 129.5,109.5 C 130.167,109.5 130.833,109.5 131.5,109.5C 133.987,110.323 136.321,111.323 138.5,112.5C 135.738,120.918 130.738,127.585 123.5,132.5C 121.5,129.833 119.5,127.167 117.5,124.5C 123.629,121.262 127.629,116.262 129.5,109.5 Z"/></g>
<g><path style="opacity:1" fill="#01acfa" d="M 138.5,112.5 C 141.5,113.167 144.5,113.833 147.5,114.5C 147.5,115.167 147.833,115.5 148.5,115.5C 144.962,125.922 138.962,134.588 130.5,141.5C 127.815,138.81 125.482,135.81 123.5,132.5C 130.738,127.585 135.738,120.918 138.5,112.5 Z"/></g>
<g><path style="opacity:1" fill="#f9b280" d="M 99.5,100.5 C 100.167,100.5 100.5,100.833 100.5,101.5C 102.297,108.226 104.297,114.892 106.5,121.5C 103.031,122.7 99.6977,122.7 96.5,121.5C 97.0579,115.82 97.7245,110.153 98.5,104.5C 98.8333,103.167 99.1667,101.833 99.5,100.5 Z"/></g>
<g><path style="opacity:1" fill="#00bdfa" d="M 148.5,115.5 C 152.833,116.833 157.167,118.167 161.5,119.5C 162.167,119.5 162.5,119.833 162.5,120.5C 157.905,133.678 149.905,144.344 138.5,152.5C 135.112,149.403 132.445,145.736 130.5,141.5C 138.962,134.588 144.962,125.922 148.5,115.5 Z"/></g>
<g><path style="opacity:1" fill="#02cef9" d="M 162.5,120.5 C 167.272,121.526 171.939,122.859 176.5,124.5C 171.459,141.244 161.959,154.911 148,165.5C 144.229,161.569 141.062,157.236 138.5,152.5C 149.905,144.344 157.905,133.678 162.5,120.5 Z"/></g>
<g><path style="opacity:1" fill="#f2a48f" d="M 96.5,121.5 C 99.6977,122.7 103.031,122.7 106.5,121.5C 107.696,124.421 108.696,127.421 109.5,130.5C 104.537,131.254 99.5365,131.587 94.5,131.5C 94.8994,127.989 95.5661,124.656 96.5,121.5 Z"/></g>
<g><path style="opacity:1" fill="#978eec" d="M 80.5,113.5 C 82.5,114.833 84.1667,116.5 85.5,118.5C 80.975,125.563 75.975,132.229 70.5,138.5C 66.8333,135.5 63.5,132.167 60.5,128.5C 66.7705,123.025 73.4372,118.025 80.5,113.5 Z"/></g>
<g><path style="opacity:1" fill="#6084f3" d="M 60.5,128.5 C 63.5,132.167 66.8333,135.5 70.5,138.5C 67.6547,143.527 64.3214,148.194 60.5,152.5C 58.1663,149.334 55.3329,146.667 52,144.5C 50.2502,142.266 48.7502,139.932 47.5,137.5C 51.5526,134.117 55.8859,131.117 60.5,128.5 Z"/></g>
<g><path style="opacity:1" fill="#f3989b" d="M 109.5,130.5 C 110.696,133.421 111.696,136.421 112.5,139.5C 106.186,141.368 99.8522,141.701 93.5,140.5C 93.5079,137.455 93.8413,134.455 94.5,131.5C 99.5365,131.587 104.537,131.254 109.5,130.5 Z"/></g>
<g><path style="opacity:1" fill="#317cf8" d="M 47.5,137.5 C 48.7502,139.932 50.2502,142.266 52,144.5C 55.3329,146.667 58.1663,149.334 60.5,152.5C 57.9379,157.236 54.7712,161.569 51,165.5C 44.5,160.333 38.6667,154.5 33.5,148C 37.761,143.898 42.4276,140.398 47.5,137.5 Z"/></g>
<g><path style="opacity:1" fill="#ee86ad" d="M 112.5,139.5 C 113.828,143.818 115.161,148.151 116.5,152.5C 107.944,154.249 99.2776,154.916 90.5,154.5C 91.5069,149.739 92.5069,145.073 93.5,140.5C 99.8522,141.701 106.186,141.368 112.5,139.5 Z"/></g>
<g><path style="opacity:1" fill="#ec78bd" d="M 116.5,152.5 C 117.696,155.421 118.696,158.421 119.5,161.5C 109.623,164.456 99.6226,165.122 89.5,163.5C 89.9629,160.518 90.2962,157.518 90.5,154.5C 99.2776,154.916 107.944,154.249 116.5,152.5 Z"/></g>
<g><path style="opacity:1" fill="#ec6bca" d="M 119.5,161.5 C 120.696,164.421 121.696,167.421 122.5,170.5C 111.254,173.429 99.921,174.095 88.5,172.5C 88.5079,169.455 88.8413,166.455 89.5,163.5C 99.6226,165.122 109.623,164.456 119.5,161.5 Z"/></g>
<g><path style="opacity:1" fill="#3cdff9" d="M 98.5,104.5 C 97.7245,110.153 97.0579,115.82 96.5,121.5C 95.5661,124.656 94.8994,127.989 94.5,131.5C 93.8413,134.455 93.5079,137.455 93.5,140.5C 92.5069,145.073 91.5069,149.739 90.5,154.5C 90.2962,157.518 89.9629,160.518 89.5,163.5C 88.8413,166.455 88.5079,169.455 88.5,172.5C 87.7321,174.715 87.0654,177.048 86.5,179.5C 82.4432,179.152 78.4432,178.486 74.5,177.5C 81.7264,152.822 89.7264,128.488 98.5,104.5 Z"/></g>
<g><path style="opacity:1" fill="#e762d3" d="M 122.5,170.5 C 123.566,172.701 124.233,175.035 124.5,177.5C 111.826,180.524 99.1589,181.191 86.5,179.5C 87.0654,177.048 87.7321,174.715 88.5,172.5C 99.921,174.095 111.254,173.429 122.5,170.5 Z"/></g>
</svg>
