<?xml version="1.0" encoding="UTF-8"?>
<svg version="1.1" xmlns="http://www.w3.org/2000/svg" width="200" height="200">
<path d="M0 0 C1.25296875 0.4125 2.5059375 0.825 3.796875 1.25 C28.74462541 10.06760046 48.21993996 28.50355897 60.08447266 52.01074219 C70.70512729 75.08730057 73.09510894 102.81586203 65 127 C64.5875 128.25296875 64.175 129.5059375 63.75 130.796875 C54.93239954 155.74462541 36.49644103 175.21993996 12.98925781 187.08447266 C-10.08730057 197.70512729 -37.81586203 200.09510894 -62 192 C-63.87945312 191.38125 -63.87945312 191.38125 -65.796875 190.75 C-90.74462541 181.93239954 -110.21993996 163.49644103 -122.08447266 139.98925781 C-132.70512729 116.91269943 -135.09510894 89.18413797 -127 65 C-126.5875 63.74703125 -126.175 62.4940625 -125.75 61.203125 C-116.93239954 36.25537459 -98.49644103 16.78006004 -74.98925781 4.91552734 C-51.91269943 -5.70512729 -24.18413797 -8.09510894 0 0 Z " fill="#FFD601" transform="translate(131,4)"/>
<path d="M0 0 C1.27423828 -0.00580078 1.27423828 -0.00580078 2.57421875 -0.01171875 C3.39019531 -0.01042969 4.20617187 -0.00914063 5.046875 -0.0078125 C5.78260742 -0.00668457 6.51833984 -0.00555664 7.27636719 -0.00439453 C9.25 0.125 9.25 0.125 12.25 1.125 C12.25 1.785 12.25 2.445 12.25 3.125 C11.60933594 3.40472656 10.96867187 3.68445312 10.30859375 3.97265625 C1.67621234 7.97365568 -4.30356539 12.59207515 -8.0078125 21.53125 C-8.88759924 24.60587314 -9.13828521 27.56810615 -9.4375 30.75 C-10.17314996 36.52150829 -10.17314996 36.52150829 -12.6953125 39.16015625 C-14.27547939 40.26314403 -15.87222867 41.34274168 -17.484375 42.3984375 C-22.09740237 45.91388249 -24.2611486 51.03052316 -25.15234375 56.671875 C-25.48342219 65.20045551 -22.78286499 72.35666433 -17.75 79.125 C-23.3551069 84.89025281 -28.84718386 90.44247339 -37.1171875 91.59375 C-46.87321097 91.68066335 -51.55225655 90.13193693 -58.5 83.5 C-65.81018687 73.6126625 -65.75296878 61.88610004 -64.75 50.125 C-64.19007224 46.5016658 -63.27484016 43.45192397 -61.75 40.125 C-61.3478125 39.238125 -60.945625 38.35125 -60.53125 37.4375 C-52.17630502 20.72761004 -36.90031158 8.14870841 -19.48828125 1.88671875 C-13.02379555 0.08846667 -6.6537172 -0.03085186 0 0 Z " fill="#FFFEFC" transform="translate(100.75,39.875)"/>
<path d="M0 0 C7.19327268 4.19484485 11.63171444 10.54910173 13.75 18.5 C14.13845706 21.47382111 14.18113783 24.37916479 14.125 27.375 C14.11412354 28.16801514 14.10324707 28.96103027 14.09204102 29.77807617 C13.92887681 35.78559747 13.23859719 40.97674652 10.75 46.5 C10.30914062 47.51191406 9.86828125 48.52382812 9.4140625 49.56640625 C1.59594127 65.71750059 -11.80716968 75.68165824 -28.1328125 82.45703125 C-35.67876061 84.98180336 -42.74564325 85.84154849 -50.6875 85.8125 C-51.56470703 85.82861328 -52.44191406 85.84472656 -53.34570312 85.86132812 C-59.75908403 85.86605427 -65.21737513 84.64332942 -71.25 82.5 C-68.03802521 79.28802521 -63.74239664 78.40951307 -59.51171875 76.9140625 C-51.71924916 73.53577029 -48.60904351 68.00318891 -45.25 60.5 C-44.80107061 58.73706943 -44.38209253 56.96611382 -44 55.1875 C-43.1692813 52.0147551 -42.65466487 50.810953 -40.0234375 48.7890625 C-38.26239206 47.80724071 -36.48599565 46.85244673 -34.6953125 45.92578125 C-30.12729424 43.26232012 -28.15473063 39.39562609 -25.9375 34.75 C-24.1482119 26.29154717 -24.77093018 20.09751948 -29.15625 12.59375 C-30.25 10.5 -30.25 10.5 -30.25 7.5 C-22.26702016 -0.46224483 -10.7782721 -4.70895383 0 0 Z " fill="#FFFEFC" transform="translate(149.25,73.5)"/>
<path d="M0 0 C1.13953125 -0.02578125 2.2790625 -0.0515625 3.453125 -0.078125 C7.07302037 0.28214895 8.89737589 1.02670707 11.75 3.25 C13.0625 6.4375 13.0625 6.4375 13.75 9.25 C10.4375 9.4375 10.4375 9.4375 6.75 9.25 C5.72980427 8.2706121 4.72850195 7.27104551 3.75 6.25 C0.62450983 5.99951364 0.62450983 5.99951364 -2.25 6.25 C-2.58 7.9 -2.91 9.55 -3.25 11.25 C-2.44175781 11.42015625 -1.63351563 11.5903125 -0.80078125 11.765625 C10.8407946 14.40569286 10.8407946 14.40569286 13.75 18.25 C14.2679685 21.51320156 14.52340121 23.18075427 13.75 26.25 C11.21546343 29.46954645 9.63702695 30.95432435 5.75 32.25 C-0.23318742 32.78550042 -5.13699662 32.74180719 -10.25 29.25 C-13.25 25.95 -13.25 25.95 -13.25 23.25 C-7.81849315 22.98287671 -7.81849315 22.98287671 -5.25 23.25 C-4.25 24.25 -3.25 25.25 -2.25 26.25 C1.39541845 26.01522801 1.39541845 26.01522801 4.75 25.25 C5.08 23.93 5.41 22.61 5.75 21.25 C4.78578125 21.01925781 3.8215625 20.78851563 2.828125 20.55078125 C1.56484375 20.22464844 0.3015625 19.89851563 -1 19.5625 C-2.25296875 19.24925781 -3.5059375 18.93601562 -4.796875 18.61328125 C-8.67221271 17.08331195 -10.07175486 15.75132737 -12.25 12.25 C-12.8125 9.25 -12.8125 9.25 -12.25 6.25 C-9.8125 3.4375 -9.8125 3.4375 -7.25 1.25 C-5.39709648 -0.60290352 -2.48375369 0.03341373 0 0 Z " fill="#FFFDF4" transform="translate(99.25,85.75)"/>
</svg>
