<?xml version="1.0" encoding="UTF-8"?>
<!DOCTYPE svg PUBLIC "-//W3C//DTD SVG 1.1//EN" "http://www.w3.org/Graphics/SVG/1.1/DTD/svg11.dtd">
<svg xmlns="http://www.w3.org/2000/svg" version="1.1" width="400px" height="400px" style="shape-rendering:geometricPrecision; text-rendering:geometricPrecision; image-rendering:optimizeQuality; fill-rule:evenodd; clip-rule:evenodd" xmlns:xlink="http://www.w3.org/1999/xlink">
<g><path style="opacity:1" fill="#6483a2" d="M 373.5,100.5 C 257.833,100.5 142.167,100.5 26.5,100.5C 73.2179,26.3112 140.551,-6.5221 228.5,2C 292.248,12.5125 340.581,45.3459 373.5,100.5 Z"/></g>
<g><path style="opacity:1" fill="#6a89a1" d="M 26.5,100.5 C 142.167,100.5 257.833,100.5 373.5,100.5C 381.133,113.769 387.133,127.769 391.5,142.5C 390.518,143.141 389.518,143.807 388.5,144.5C 387.513,147.768 387.18,151.102 387.5,154.5C 386.167,154.5 384.833,154.5 383.5,154.5C 383.5,150.833 383.5,147.167 383.5,143.5C 340.1,142.866 296.767,143.533 253.5,145.5C 249.973,145.24 246.306,145.074 242.5,145C 241.5,143 240.5,143 239.5,145C 235.822,145.418 232.155,145.918 228.5,146.5C 225.344,145.271 222.177,145.271 219,146.5C 214.298,146.189 209.798,145.189 205.5,143.5C 204.834,140.972 204.168,138.306 203.5,135.5C 200.35,133.811 197.683,134.144 195.5,136.5C 195.675,138.621 195.341,140.621 194.5,142.5C 193.849,141.909 193.182,141.243 192.5,140.5C 191.893,140.624 191.56,140.957 191.5,141.5C 190.566,142.568 190.232,143.901 190.5,145.5C 187.028,146.121 183.695,146.454 180.5,146.5C 179.614,145.675 179.281,144.675 179.5,143.5C 168.461,144.821 157.461,145.821 146.5,146.5C 144.681,146.658 143.348,145.991 142.5,144.5C 97.8383,143.5 53.1716,143.167 8.5,143.5C 12.5826,128.338 18.5826,114.005 26.5,100.5 Z"/></g>
<g><path style="opacity:1" fill="#f9f9c5" d="M 204.5,193.5 C 204.5,194.167 204.833,194.5 205.5,194.5C 206.677,196.103 206.511,197.436 205,198.5C 202.279,197.046 200.446,195.379 199.5,193.5C 198.416,194.665 197.583,195.998 197,197.5C 195.933,196.809 194.766,196.309 193.5,196C 194.667,195.5 195.5,194.667 196,193.5C 196.825,182.992 196.659,172.658 195.5,162.5C 196.072,154.51 196.738,146.51 197.5,138.5C 198.833,138.833 200.167,139.167 201.5,139.5C 202.333,156.824 202.833,174.157 203,191.5C 203.278,192.416 203.778,193.082 204.5,193.5 Z"/></g>
<g><path style="opacity:1" fill="#7089a2" d="M 391.5,142.5 C 393.464,148.355 394.797,154.355 395.5,160.5C 395.665,163.518 395.498,166.518 395,169.5C 394.667,166.167 394.333,162.833 394,159.5C 393.826,164.351 393.326,169.018 392.5,173.5C 391.607,170.663 389.94,168.329 387.5,166.5C 392.013,166.105 393.513,163.771 392,159.5C 391.781,160.938 391.281,162.271 390.5,163.5C 378.94,162.036 367.274,160.703 355.5,159.5C 347.5,160.833 339.5,162.167 331.5,163.5C 327.59,162.019 323.59,161.519 319.5,162C 320.747,163.458 320.747,164.958 319.5,166.5C 318.046,168.437 316.379,170.103 314.5,171.5C 308.213,169.909 301.88,168.576 295.5,167.5C 294.508,167.672 293.842,167.338 293.5,166.5C 289.841,164.658 285.841,163.658 281.5,163.5C 280.192,162.768 278.858,161.934 277.5,161C 255.69,156.762 233.69,155.095 211.5,156C 210.944,156.383 210.611,156.883 210.5,157.5C 210.167,157.5 209.833,157.5 209.5,157.5C 207.242,157.775 206.908,158.775 208.5,160.5C 207.675,161.386 206.675,161.719 205.5,161.5C 205.5,155.5 205.5,149.5 205.5,143.5C 209.798,145.189 214.298,146.189 219,146.5C 222.177,145.271 225.344,145.271 228.5,146.5C 232.155,145.918 235.822,145.418 239.5,145C 240.5,143 241.5,143 242.5,145C 246.306,145.074 249.973,145.24 253.5,145.5C 296.767,143.533 340.1,142.866 383.5,143.5C 383.5,147.167 383.5,150.833 383.5,154.5C 384.833,154.5 386.167,154.5 387.5,154.5C 387.18,151.102 387.513,147.768 388.5,144.5C 389.518,143.807 390.518,143.141 391.5,142.5 Z"/></g>
<g><path style="opacity:1" fill="#7089a2" d="M 191.5,141.5 C 191.783,142.289 192.283,142.956 193,143.5C 193.499,147.821 193.666,152.154 193.5,156.5C 191.933,157.681 191.099,159.347 191,161.5C 190.768,160.263 190.268,159.263 189.5,158.5C 189.337,155.817 188.004,154.15 185.5,153.5C 176.999,154.747 168.333,155.747 159.5,156.5C 159.5,156.833 159.5,157.167 159.5,157.5C 149.805,158.254 140.138,159.254 130.5,160.5C 128.512,160.173 126.512,159.84 124.5,159.5C 120.399,161.181 116.065,161.848 111.5,161.5C 111.5,162.5 111.5,163.5 111.5,164.5C 102.67,166.25 94.0032,168.583 85.5,171.5C 85.631,170.761 85.4643,170.094 85,169.5C 83.9505,170.517 82.7839,170.684 81.5,170C 81.8333,169.667 82.1667,169.333 82.5,169C 79.7854,168.125 78.4521,166.292 78.5,163.5C 61.5044,160.934 44.5044,160.934 27.5,163.5C 19.5949,161.776 11.5949,161.11 3.5,161.5C 4.85432,155.416 6.52099,149.416 8.5,143.5C 53.1716,143.167 97.8383,143.5 142.5,144.5C 143.348,145.991 144.681,146.658 146.5,146.5C 157.461,145.821 168.461,144.821 179.5,143.5C 179.281,144.675 179.614,145.675 180.5,146.5C 183.695,146.454 187.028,146.121 190.5,145.5C 190.232,143.901 190.566,142.568 191.5,141.5 Z"/></g>
<g><path style="opacity:1" fill="#e6eccf" d="M 204.5,193.5 C 203.778,193.082 203.278,192.416 203,191.5C 202.833,174.157 202.333,156.824 201.5,139.5C 200.167,139.167 198.833,138.833 197.5,138.5C 196.738,146.51 196.072,154.51 195.5,162.5C 195.827,172.348 195.494,182.014 194.5,191.5C 194.5,175.167 194.5,158.833 194.5,142.5C 195.341,140.621 195.675,138.621 195.5,136.5C 198.745,134.712 201.245,135.378 203,138.5C 204.351,156.804 204.851,175.137 204.5,193.5 Z"/></g>
<g><path style="opacity:1" fill="#849593" d="M 189.5,158.5 C 188.711,158.217 188.044,157.717 187.5,157C 178.173,156.5 168.839,156.334 159.5,156.5C 168.333,155.747 176.999,154.747 185.5,153.5C 188.004,154.15 189.337,155.817 189.5,158.5 Z"/></g>
<g><path style="opacity:1" fill="#e2ebd5" d="M 159.5,157.5 C 159.5,157.167 159.5,156.833 159.5,156.5C 168.839,156.334 178.173,156.5 187.5,157C 188.044,157.717 188.711,158.217 189.5,158.5C 189.371,160.216 189.038,161.883 188.5,163.5C 188.167,163.5 187.833,163.5 187.5,163.5C 187.784,161.585 187.451,159.919 186.5,158.5C 177.584,157.529 168.584,157.196 159.5,157.5 Z"/></g>
<g><path style="opacity:1" fill="#f8f9c7" d="M 159.5,157.5 C 168.584,157.196 177.584,157.529 186.5,158.5C 186.714,160.144 186.38,161.644 185.5,163C 181.41,163.954 177.577,163.454 174,161.5C 171.266,163.779 168.099,164.779 164.5,164.5C 161.139,163.816 157.805,163.15 154.5,162.5C 154.5,163.5 154.5,164.5 154.5,165.5C 146.446,165.205 138.446,164.372 130.5,163C 133.695,162.819 136.695,162.319 139.5,161.5C 146.233,160.553 152.9,159.22 159.5,157.5 Z"/></g>
<g><path style="opacity:1" fill="#849598" d="M 281.5,163.5 C 278.167,163.167 274.833,162.833 271.5,162.5C 251.526,157.646 231.193,155.979 210.5,157.5C 210.611,156.883 210.944,156.383 211.5,156C 233.69,155.095 255.69,156.762 277.5,161C 278.858,161.934 280.192,162.768 281.5,163.5 Z"/></g>
<g><path style="opacity:1" fill="#708ea2" d="M 392.5,173.5 C 391.402,174.601 391.235,175.934 392,177.5C 392.333,177.167 392.667,176.833 393,176.5C 393.667,178.167 393.667,179.833 393,181.5C 373.573,180.673 354.073,180.173 334.5,180C 332.69,177.934 330.69,176.1 328.5,174.5C 327,174.453 326,175.119 325.5,176.5C 328.68,178.015 331.346,180.181 333.5,183C 332.293,184.3 331.626,185.8 331.5,187.5C 329.92,184.737 328.087,182.07 326,179.5C 324.586,180.413 323.086,180.413 321.5,179.5C 320.618,177.916 319.785,176.249 319,174.5C 317.348,173.601 315.848,172.601 314.5,171.5C 316.379,170.103 318.046,168.437 319.5,166.5C 320.747,164.958 320.747,163.458 319.5,162C 323.59,161.519 327.59,162.019 331.5,163.5C 339.5,162.167 347.5,160.833 355.5,159.5C 367.274,160.703 378.94,162.036 390.5,163.5C 391.281,162.271 391.781,160.938 392,159.5C 393.513,163.771 392.013,166.105 387.5,166.5C 389.94,168.329 391.607,170.663 392.5,173.5 Z"/></g>
<g><path style="opacity:1" fill="#e2eed2" d="M 159.5,157.5 C 152.9,159.22 146.233,160.553 139.5,161.5C 136.5,161.5 133.5,161.5 130.5,161.5C 130.5,161.167 130.5,160.833 130.5,160.5C 140.138,159.254 149.805,158.254 159.5,157.5 Z"/></g>
<g><path style="opacity:1" fill="#f4f7cc" d="M 271.5,162.5 C 267.278,162.737 263.111,162.404 259,161.5C 256.38,162.481 253.88,163.647 251.5,165C 254.789,165.882 258.123,166.548 261.5,167C 263.32,167.2 264.653,168.034 265.5,169.5C 256.562,167.988 247.562,166.988 238.5,166.5C 230.039,165.085 221.372,164.419 212.5,164.5C 210.166,162.824 209.166,160.491 209.5,157.5C 209.833,157.5 210.167,157.5 210.5,157.5C 231.193,155.979 251.526,157.646 271.5,162.5 Z"/></g>
<g><path style="opacity:1" fill="#f9f9c1" d="M 213.5,158.5 C 223.605,158.051 233.605,158.551 243.5,160C 238.256,161.145 232.923,161.645 227.5,161.5C 224.556,161.276 221.723,160.61 219,159.5C 216.696,159.318 216.196,159.984 217.5,161.5C 214.308,164.118 212.975,163.118 213.5,158.5 Z"/></g>
<g><path style="opacity:1" fill="#708ea2" d="M 3.5,161.5 C 11.5949,161.11 19.5949,161.776 27.5,163.5C 44.5044,160.934 61.5044,160.934 78.5,163.5C 78.4521,166.292 79.7854,168.125 82.5,169C 82.1667,169.333 81.8333,169.667 81.5,170C 82.7839,170.684 83.9505,170.517 85,169.5C 85.4643,170.094 85.631,170.761 85.5,171.5C 81.725,171.616 80.0583,173.616 80.5,177.5C 80.1667,177.5 79.8333,177.5 79.5,177.5C 76.0848,175.729 72.4181,174.729 68.5,174.5C 68.5,175.5 68.5,176.5 68.5,177.5C 67.5,177.5 66.5,177.5 65.5,177.5C 65.5,178.5 65.5,179.5 65.5,180.5C 44.1667,180.5 22.8333,180.5 1.5,180.5C 1.62184,174.104 2.28851,167.771 3.5,161.5 Z"/></g>
<g><path style="opacity:1" fill="#788e97" d="M 209.5,157.5 C 209.166,160.491 210.166,162.824 212.5,164.5C 220.933,166.246 229.6,166.912 238.5,166.5C 247.562,166.988 256.562,167.988 265.5,169.5C 265.833,169.5 266.167,169.5 266.5,169.5C 268.167,170.167 269.833,170.833 271.5,171.5C 269.5,171.5 267.5,171.5 265.5,171.5C 261.969,170.77 258.303,170.104 254.5,169.5C 253.033,169.723 251.533,170.056 250,170.5C 248.581,169.54 247.081,168.707 245.5,168C 237.587,167.186 229.754,167.353 222,168.5C 217,167.167 212,165.833 207,164.5C 206.228,168.89 206.394,173.223 207.5,177.5C 206.883,182.299 206.216,186.966 205.5,191.5C 205.5,181.5 205.5,171.5 205.5,161.5C 206.675,161.719 207.675,161.386 208.5,160.5C 206.908,158.775 207.242,157.775 209.5,157.5 Z"/></g>
<g><path style="opacity:1" fill="#7a8e95" d="M 130.5,160.5 C 130.5,160.833 130.5,161.167 130.5,161.5C 114.528,163.382 99.5277,168.048 85.5,175.5C 83.7162,175.893 82.0495,176.559 80.5,177.5C 80.0583,173.616 81.725,171.616 85.5,171.5C 94.0032,168.583 102.67,166.25 111.5,164.5C 111.5,163.5 111.5,162.5 111.5,161.5C 116.065,161.848 120.399,161.181 124.5,159.5C 126.512,159.84 128.512,160.173 130.5,160.5 Z"/></g>
<g><path style="opacity:1" fill="#809191" d="M 205.5,143.5 C 205.5,149.5 205.5,155.5 205.5,161.5C 205.5,171.5 205.5,181.5 205.5,191.5C 219.799,193.32 234.466,194.154 249.5,194C 251.708,194.191 253.708,194.691 255.5,195.5C 238.842,194.814 222.176,194.481 205.5,194.5C 204.833,194.5 204.5,194.167 204.5,193.5C 204.851,175.137 204.351,156.804 203,138.5C 201.245,135.378 198.745,134.712 195.5,136.5C 197.683,134.144 200.35,133.811 203.5,135.5C 204.168,138.306 204.834,140.972 205.5,143.5 Z"/></g>
<g><path style="opacity:1" fill="#f9f9c3" d="M 271.5,162.5 C 271.5,163.5 271.5,164.5 271.5,165.5C 275.375,165.085 279.042,165.585 282.5,167C 277.344,168.962 272.011,169.795 266.5,169.5C 266.167,169.5 265.833,169.5 265.5,169.5C 264.653,168.034 263.32,167.2 261.5,167C 258.123,166.548 254.789,165.882 251.5,165C 253.88,163.647 256.38,162.481 259,161.5C 263.111,162.404 267.278,162.737 271.5,162.5 Z"/></g>
<g><path style="opacity:1" fill="#f2f5cc" d="M 186.5,158.5 C 187.451,159.919 187.784,161.585 187.5,163.5C 178.047,164.253 168.714,165.253 159.5,166.5C 159.167,166.5 158.833,166.5 158.5,166.5C 145.942,167.207 133.609,168.874 121.5,171.5C 121.611,170.883 121.944,170.383 122.5,170C 133.91,168.062 133.576,167.062 121.5,167C 124.23,165.768 124.063,164.935 121,164.5C 117.948,165.632 114.948,166.965 112,168.5C 108.213,166.925 105.047,167.758 102.5,171C 96.8443,172.383 91.1776,173.883 85.5,175.5C 99.5277,168.048 114.528,163.382 130.5,161.5C 133.5,161.5 136.5,161.5 139.5,161.5C 136.695,162.319 133.695,162.819 130.5,163C 138.446,164.372 146.446,165.205 154.5,165.5C 154.5,164.5 154.5,163.5 154.5,162.5C 157.805,163.15 161.139,163.816 164.5,164.5C 168.099,164.779 171.266,163.779 174,161.5C 177.577,163.454 181.41,163.954 185.5,163C 186.38,161.644 186.714,160.144 186.5,158.5 Z"/></g>
<g><path style="opacity:1" fill="#849591" d="M 281.5,163.5 C 285.841,163.658 289.841,164.658 293.5,166.5C 289.2,166.245 285.2,165.245 281.5,163.5 Z"/></g>
<g><path style="opacity:1" fill="#8c9e93" d="M 187.5,163.5 C 187.833,163.5 188.167,163.5 188.5,163.5C 188.389,164.117 188.056,164.617 187.5,165C 178.208,166.231 168.874,166.731 159.5,166.5C 168.714,165.253 178.047,164.253 187.5,163.5 Z"/></g>
<g><path style="opacity:1" fill="#909f97" d="M 212.5,164.5 C 221.372,164.419 230.039,165.085 238.5,166.5C 229.6,166.912 220.933,166.246 212.5,164.5 Z"/></g>
<g><path style="opacity:1" fill="#f8f9c5" d="M 121.5,171.5 C 119.095,172.768 116.428,173.435 113.5,173.5C 112.417,173.461 111.417,173.127 110.5,172.5C 104.944,174.649 99.4442,176.982 94,179.5C 93.5,179.333 93,179.167 92.5,179C 93.7112,178.107 93.7112,177.274 92.5,176.5C 89.6548,178.191 87.3215,177.857 85.5,175.5C 91.1776,173.883 96.8443,172.383 102.5,171C 105.047,167.758 108.213,166.925 112,168.5C 114.948,166.965 117.948,165.632 121,164.5C 124.063,164.935 124.23,165.768 121.5,167C 133.576,167.062 133.91,168.062 122.5,170C 121.944,170.383 121.611,170.883 121.5,171.5 Z"/></g>
<g><path style="opacity:1" fill="#7d9096" d="M 295.5,167.5 C 301.88,168.576 308.213,169.909 314.5,171.5C 315.848,172.601 317.348,173.601 319,174.5C 319.785,176.249 320.618,177.916 321.5,179.5C 319.167,178.167 316.833,176.833 314.5,175.5C 314.167,175.5 313.833,175.5 313.5,175.5C 307.905,171.86 301.905,169.193 295.5,167.5 Z"/></g>
<g><path style="opacity:1" fill="#768fa2" d="M 395.5,160.5 C 396.903,163.909 397.57,167.575 397.5,171.5C 397.5,187.833 397.5,204.167 397.5,220.5C 396.624,220.631 395.957,220.298 395.5,219.5C 396.506,218.604 396.506,217.938 395.5,217.5C 394.679,220.447 394.179,223.447 394,226.5C 393.667,225.5 393.333,224.5 393,223.5C 392.749,225.433 392.249,227.266 391.5,229C 391.833,229.333 392.167,229.667 392.5,230C 390.866,230.494 389.199,230.66 387.5,230.5C 388.64,229.199 389.973,228.032 391.5,227C 390.207,226.51 388.873,226.343 387.5,226.5C 387.214,224.723 386.547,223.056 385.5,221.5C 385.818,220.353 386.484,219.519 387.5,219C 386.207,218.51 384.873,218.343 383.5,218.5C 368.005,217.669 352.339,217.169 336.5,217C 335.07,215.56 333.403,215.226 331.5,216C 332.833,217.333 332.833,218.667 331.5,220C 329.702,219.994 328.035,219.661 326.5,219C 328.167,222.333 327.167,223.667 323.5,223C 322.944,222.617 322.611,222.117 322.5,221.5C 325.302,218.524 327.969,215.358 330.5,212C 331.449,211.383 332.282,211.549 333,212.5C 333.498,209.518 333.665,206.518 333.5,203.5C 333.5,203.167 333.5,202.833 333.5,202.5C 334.643,199.024 334.81,195.358 334,191.5C 333.52,189.867 332.687,188.534 331.5,187.5C 331.626,185.8 332.293,184.3 333.5,183C 331.346,180.181 328.68,178.015 325.5,176.5C 326,175.119 327,174.453 328.5,174.5C 330.69,176.1 332.69,177.934 334.5,180C 354.073,180.173 373.573,180.673 393,181.5C 393.667,179.833 393.667,178.167 393,176.5C 392.667,176.833 392.333,177.167 392,177.5C 391.235,175.934 391.402,174.601 392.5,173.5C 393.326,169.018 393.826,164.351 394,159.5C 394.333,162.833 394.667,166.167 395,169.5C 395.498,166.518 395.665,163.518 395.5,160.5 Z"/></g>
<g><path style="opacity:1" fill="#f0f3ce" d="M 271.5,162.5 C 274.833,162.833 278.167,163.167 281.5,163.5C 285.2,165.245 289.2,166.245 293.5,166.5C 293.842,167.338 294.508,167.672 295.5,167.5C 301.905,169.193 307.905,171.86 313.5,175.5C 312.022,175.238 310.689,175.571 309.5,176.5C 312.379,177.803 313.045,179.803 311.5,182.5C 315.94,185.473 320.107,188.806 324,192.5C 324.667,196.833 324.667,201.167 324,205.5C 323.29,206.973 322.124,207.64 320.5,207.5C 323.324,203.64 324.158,199.307 323,194.5C 322.34,192.676 321.173,191.343 319.5,190.5C 317.906,189.017 316.24,187.517 314.5,186C 300.974,178.866 286.64,174.033 271.5,171.5C 269.833,170.833 268.167,170.167 266.5,169.5C 272.011,169.795 277.344,168.962 282.5,167C 279.042,165.585 275.375,165.085 271.5,165.5C 271.5,164.5 271.5,163.5 271.5,162.5 Z"/></g>
<g><path style="opacity:1" fill="#f8f9c5" d="M 286.5,168.5 C 293.648,168.555 300.314,170.222 306.5,173.5C 306.421,174.93 306.754,176.264 307.5,177.5C 306.758,178.287 305.925,178.953 305,179.5C 297.318,176.272 289.484,173.439 281.5,171C 283.315,170.243 284.981,169.41 286.5,168.5 Z"/></g>
<g><path style="opacity:1" fill="#f1f5d0" d="M 113.5,173.5 C 110.167,174.833 106.833,176.167 103.5,177.5C 99.4069,178.382 95.7403,180.049 92.5,182.5C 89.3516,183.576 86.3516,184.909 83.5,186.5C 83.2196,183.612 84.5529,182.112 87.5,182C 84.9533,180.559 82.4533,180.059 80,180.5C 75.74,182.923 71.9066,185.923 68.5,189.5C 68.5,188.833 68.5,188.167 68.5,187.5C 72.1925,184.138 75.8592,180.805 79.5,177.5C 79.8333,177.5 80.1667,177.5 80.5,177.5C 82.0495,176.559 83.7162,175.893 85.5,175.5C 87.3215,177.857 89.6548,178.191 92.5,176.5C 93.7112,177.274 93.7112,178.107 92.5,179C 93,179.167 93.5,179.333 94,179.5C 99.4442,176.982 104.944,174.649 110.5,172.5C 111.417,173.127 112.417,173.461 113.5,173.5 Z"/></g>
<g><path style="opacity:1" fill="#829396" d="M 158.5,166.5 C 156.833,167.167 155.167,167.833 153.5,168.5C 152.833,168.5 152.167,168.5 151.5,168.5C 141.476,168.426 131.976,170.426 123,174.5C 122.586,174.043 122.086,173.709 121.5,173.5C 118.36,175.022 115.027,175.855 111.5,176C 109.871,176.585 108.371,177.419 107,178.5C 105.862,178.011 104.695,177.678 103.5,177.5C 106.833,176.167 110.167,174.833 113.5,173.5C 116.428,173.435 119.095,172.768 121.5,171.5C 133.609,168.874 145.942,167.207 158.5,166.5 Z"/></g>
<g><path style="opacity:1" fill="#768ea2" d="M 79.5,177.5 C 75.8592,180.805 72.1925,184.138 68.5,187.5C 67.6236,187.369 66.9569,187.702 66.5,188.5C 65.4227,190.912 64.256,193.246 63,195.5C 62.3333,198.167 62.3333,200.833 63,203.5C 64.2131,205.13 65.0464,206.964 65.5,209C 64.2927,210.3 63.6261,211.8 63.5,213.5C 65.9935,213.131 66.6602,213.797 65.5,215.5C 64.5,215.5 63.5,215.5 62.5,215.5C 62.5,216.5 62.5,217.5 62.5,218.5C 52.1667,218.5 41.8333,218.5 31.5,218.5C 31.5,217.5 31.5,216.5 31.5,215.5C 28.3019,214.964 25.6353,215.631 23.5,217.5C 15.8333,217.5 8.16667,217.5 0.5,217.5C 0.171449,204.989 0.504782,192.655 1.5,180.5C 22.8333,180.5 44.1667,180.5 65.5,180.5C 65.5,179.5 65.5,178.5 65.5,177.5C 66.5,177.5 67.5,177.5 68.5,177.5C 68.5,176.5 68.5,175.5 68.5,174.5C 72.4181,174.729 76.0848,175.729 79.5,177.5 Z"/></g>
<g><path style="opacity:1" fill="#758ea1" d="M 193.5,156.5 C 193.5,168.833 193.5,181.167 193.5,193.5C 176.658,193.17 159.992,193.503 143.5,194.5C 142.791,195.404 141.791,195.737 140.5,195.5C 136.352,195.453 134.852,197.453 136,201.5C 138.378,202.967 140.878,203.967 143.5,204.5C 160.016,206.107 176.683,206.441 193.5,205.5C 193.5,216.833 193.5,228.167 193.5,239.5C 192.642,232.329 191.976,224.995 191.5,217.5C 179.419,217.995 167.419,217.328 155.5,215.5C 141.242,217.359 126.909,218.026 112.5,217.5C 112.702,215.011 112.202,212.677 111,210.5C 107.931,209.921 105.097,208.754 102.5,207C 99.1667,206.333 95.8333,206.333 92.5,207C 92.0338,208.299 92.0338,209.799 92.5,211.5C 95.8499,211.335 99.1832,211.502 102.5,212C 100.781,213.057 98.9472,213.89 97,214.5C 95.8932,213.288 95.3932,213.621 95.5,215.5C 92.8562,214.804 89.8562,214.137 86.5,213.5C 84.7162,213.107 83.0495,212.441 81.5,211.5C 79.8729,209.37 78.0396,207.37 76,205.5C 73.7075,200.254 74.5408,195.587 78.5,191.5C 82.1561,189.035 86.1561,187.201 90.5,186C 91.8228,185.184 92.4894,184.017 92.5,182.5C 95.7403,180.049 99.4069,178.382 103.5,177.5C 104.695,177.678 105.862,178.011 107,178.5C 108.371,177.419 109.871,176.585 111.5,176C 115.027,175.855 118.36,175.022 121.5,173.5C 122.086,173.709 122.586,174.043 123,174.5C 131.976,170.426 141.476,168.426 151.5,168.5C 147.71,169.822 143.71,170.822 139.5,171.5C 138.41,173.003 137.243,173.336 136,172.5C 135.167,173.333 134.333,174.167 133.5,175C 142.036,176.956 150.703,177.789 159.5,177.5C 164.833,177.333 170.167,177.167 175.5,177C 171.579,176.797 167.745,176.297 164,175.5C 162.927,176.28 161.76,176.113 160.5,175C 162.167,174.667 163.833,174.333 165.5,174C 170.902,173.819 176.235,174.152 181.5,175C 174.573,171.961 167.24,170.294 159.5,170C 164.864,169.829 170.198,169.329 175.5,168.5C 168.177,167.476 160.843,167.476 153.5,168.5C 155.167,167.833 156.833,167.167 158.5,166.5C 158.833,166.5 159.167,166.5 159.5,166.5C 168.874,166.731 178.208,166.231 187.5,165C 188.056,164.617 188.389,164.117 188.5,163.5C 189.038,161.883 189.371,160.216 189.5,158.5C 190.268,159.263 190.768,160.263 191,161.5C 191.099,159.347 191.933,157.681 193.5,156.5 Z"/></g>
<g><path style="opacity:1" fill="#728da5" d="M 151.5,168.5 C 152.167,168.5 152.833,168.5 153.5,168.5C 160.843,167.476 168.177,167.476 175.5,168.5C 170.198,169.329 164.864,169.829 159.5,170C 167.24,170.294 174.573,171.961 181.5,175C 176.235,174.152 170.902,173.819 165.5,174C 163.833,174.333 162.167,174.667 160.5,175C 161.76,176.113 162.927,176.28 164,175.5C 167.745,176.297 171.579,176.797 175.5,177C 170.167,177.167 164.833,177.333 159.5,177.5C 150.703,177.789 142.036,176.956 133.5,175C 134.333,174.167 135.167,173.333 136,172.5C 137.243,173.336 138.41,173.003 139.5,171.5C 143.71,170.822 147.71,169.822 151.5,168.5 Z"/></g>
<g><path style="opacity:1" fill="#758ea2" d="M 265.5,171.5 C 267.5,171.5 269.5,171.5 271.5,171.5C 286.64,174.033 300.974,178.866 314.5,186C 316.24,187.517 317.906,189.017 319.5,190.5C 319.653,193.801 320.653,196.801 322.5,199.5C 322.441,201.767 321.608,202.433 320,201.5C 319.56,203.866 319.06,206.199 318.5,208.5C 317.421,210.543 315.754,211.876 313.5,212.5C 311.167,213.167 308.833,213.833 306.5,214.5C 306.65,211.541 305.65,209.041 303.5,207C 300.154,208.26 296.487,209.093 292.5,209.5C 292.33,210.822 292.663,211.989 293.5,213C 292.454,214.539 291.121,214.705 289.5,213.5C 286.337,214.865 283.003,215.865 279.5,216.5C 255.84,217.333 232.174,217.833 208.5,218C 207.901,219.622 207.234,221.122 206.5,222.5C 206.802,219.941 206.468,217.607 205.5,215.5C 205.5,212.167 205.5,208.833 205.5,205.5C 218.336,206.807 231.003,206.473 243.5,204.5C 243.833,204.5 244.167,204.5 244.5,204.5C 248.717,205.014 252.884,206.014 257,207.5C 258.811,206.576 258.645,205.743 256.5,205C 258.764,204.764 260.931,204.264 263,203.5C 263.497,200.854 263.664,198.187 263.5,195.5C 262.167,195.5 260.833,195.5 259.5,195.5C 258.167,195.5 256.833,195.5 255.5,195.5C 253.708,194.691 251.708,194.191 249.5,194C 234.466,194.154 219.799,193.32 205.5,191.5C 206.216,186.966 206.883,182.299 207.5,177.5C 206.394,173.223 206.228,168.89 207,164.5C 212,165.833 217,167.167 222,168.5C 229.754,167.353 237.587,167.186 245.5,168C 247.081,168.707 248.581,169.54 250,170.5C 251.533,170.056 253.033,169.723 254.5,169.5C 258.303,170.104 261.969,170.77 265.5,171.5 Z"/></g>
<g><path style="opacity:1" fill="#728ca7" d="M 265.5,171.5 C 266.263,172.268 267.263,172.768 268.5,173C 266.337,173.245 264.67,174.245 263.5,176C 250.201,177.499 236.867,177.832 223.5,177C 227.037,176.855 230.371,176.022 233.5,174.5C 229.004,172.869 225.004,173.535 221.5,176.5C 220.5,176.167 219.833,175.5 219.5,174.5C 223.46,172.137 227.794,171.137 232.5,171.5C 235.883,171.362 238.717,172.362 241,174.5C 245.269,174.503 249.935,173.837 255,172.5C 257.093,173.246 259.093,173.579 261,173.5C 262.049,171.893 263.549,171.227 265.5,171.5 Z"/></g>
<g><path style="opacity:1" fill="#eef4d5" d="M 314.5,175.5 C 316.833,176.833 319.167,178.167 321.5,179.5C 325.927,182.593 329.26,186.593 331.5,191.5C 328.743,188.878 326.076,186.045 323.5,183C 321.172,181.676 318.839,180.343 316.5,179C 315.177,178.184 314.511,177.017 314.5,175.5 Z"/></g>
<g><path style="opacity:1" fill="#f7f8c4" d="M 83.5,186.5 C 81.6397,187.939 79.973,189.605 78.5,191.5C 74.5408,195.587 73.7075,200.254 76,205.5C 78.0396,207.37 79.8729,209.37 81.5,211.5C 81.6495,212.552 81.4828,213.552 81,214.5C 80.3457,213.304 79.8457,213.304 79.5,214.5C 81.7662,215.314 84.0995,215.814 86.5,216C 86.9574,216.414 87.2907,216.914 87.5,217.5C 84.5623,218.489 81.5623,219.156 78.5,219.5C 75.7204,215.047 72.0537,211.714 67.5,209.5C 67.5,209.167 67.5,208.833 67.5,208.5C 66.116,202.082 66.4493,195.749 68.5,189.5C 71.9066,185.923 75.74,182.923 80,180.5C 82.4533,180.059 84.9533,180.559 87.5,182C 84.5529,182.112 83.2196,183.612 83.5,186.5 Z"/></g>
<g><path style="opacity:1" fill="#88999d" d="M 321.5,179.5 C 323.086,180.413 324.586,180.413 326,179.5C 328.087,182.07 329.92,184.737 331.5,187.5C 332.687,188.534 333.52,189.867 334,191.5C 334.81,195.358 334.643,199.024 333.5,202.5C 333.665,199.482 333.498,196.482 333,193.5C 332.722,192.584 332.222,191.918 331.5,191.5C 329.26,186.593 325.927,182.593 321.5,179.5 Z"/></g>
<g><path style="opacity:1" fill="#869794" d="M 92.5,182.5 C 92.4894,184.017 91.8228,185.184 90.5,186C 86.1561,187.201 82.1561,189.035 78.5,191.5C 79.973,189.605 81.6397,187.939 83.5,186.5C 86.3516,184.909 89.3516,183.576 92.5,182.5 Z"/></g>
<g><path style="opacity:1" fill="#80908e" d="M 194.5,142.5 C 194.5,158.833 194.5,175.167 194.5,191.5C 194.5,192.5 194.5,193.5 194.5,194.5C 177.5,194.5 160.5,194.5 143.5,194.5C 159.992,193.503 176.658,193.17 193.5,193.5C 193.5,181.167 193.5,168.833 193.5,156.5C 193.666,152.154 193.499,147.821 193,143.5C 192.283,142.956 191.783,142.289 191.5,141.5C 191.56,140.957 191.893,140.624 192.5,140.5C 193.182,141.243 193.849,141.909 194.5,142.5 Z"/></g>
<g><path style="opacity:1" fill="#f7f8c5" d="M 313.5,175.5 C 313.833,175.5 314.167,175.5 314.5,175.5C 314.511,177.017 315.177,178.184 316.5,179C 318.839,180.343 321.172,181.676 323.5,183C 326.076,186.045 328.743,188.878 331.5,191.5C 332.222,191.918 332.722,192.584 333,193.5C 333.498,196.482 333.665,199.482 333.5,202.5C 333.5,202.833 333.5,203.167 333.5,203.5C 332.896,206.218 331.563,208.551 329.5,210.5C 327.303,211.845 324.97,213.011 322.5,214C 321.833,215.333 321.167,216.667 320.5,218C 317.859,218.323 315.525,219.323 313.5,221C 314.056,221.383 314.389,221.883 314.5,222.5C 310.233,223.619 306.067,224.953 302,226.5C 300.093,226.579 298.093,226.246 296,225.5C 294.569,227.364 293.403,229.364 292.5,231.5C 290.473,231.662 288.473,231.495 286.5,231C 287.833,230.333 287.833,229.667 286.5,229C 288.5,228.333 289.833,227 290.5,225C 293.429,224.223 296.263,224.39 299,225.5C 299.483,224.552 299.649,223.552 299.5,222.5C 300.5,222.5 301.5,222.5 302.5,222.5C 302.433,221.041 302.766,219.708 303.5,218.5C 307.095,216.898 310.429,214.898 313.5,212.5C 315.754,211.876 317.421,210.543 318.5,208.5C 319.167,208.167 319.833,207.833 320.5,207.5C 322.124,207.64 323.29,206.973 324,205.5C 324.667,201.167 324.667,196.833 324,192.5C 320.107,188.806 315.94,185.473 311.5,182.5C 313.045,179.803 312.379,177.803 309.5,176.5C 310.689,175.571 312.022,175.238 313.5,175.5 Z"/></g>
<g><path style="opacity:1" fill="#ecf5ce" d="M 68.5,189.5 C 66.4493,195.749 66.116,202.082 67.5,208.5C 63.2108,201.879 63.5441,195.546 68.5,189.5 Z"/></g>
<g><path style="opacity:1" fill="#e4ecce" d="M 140.5,195.5 C 138.852,197.456 138.185,199.789 138.5,202.5C 156.021,202.368 173.354,203.035 190.5,204.5C 174.833,204.5 159.167,204.5 143.5,204.5C 140.878,203.967 138.378,202.967 136,201.5C 134.852,197.453 136.352,195.453 140.5,195.5 Z"/></g>
<g><path style="opacity:1" fill="#839495" d="M 319.5,190.5 C 321.173,191.343 322.34,192.676 323,194.5C 324.158,199.307 323.324,203.64 320.5,207.5C 319.833,207.833 319.167,208.167 318.5,208.5C 319.06,206.199 319.56,203.866 320,201.5C 321.608,202.433 322.441,201.767 322.5,199.5C 320.653,196.801 319.653,193.801 319.5,190.5 Z"/></g>
<g><path style="opacity:1" fill="#849999" d="M 259.5,195.5 C 260.833,195.5 262.167,195.5 263.5,195.5C 263.664,198.187 263.497,200.854 263,203.5C 260.931,204.264 258.764,204.764 256.5,205C 258.645,205.743 258.811,206.576 257,207.5C 252.884,206.014 248.717,205.014 244.5,204.5C 250.5,203.833 256.5,203.167 262.5,202.5C 262.5,200.5 262.5,198.5 262.5,196.5C 261.209,196.737 260.209,196.404 259.5,195.5 Z"/></g>
<g><path style="opacity:1" fill="#f9f9c0" d="M 194.5,205.5 C 194.5,204.833 194.167,204.5 193.5,204.5C 193.586,203.504 193.252,202.671 192.5,202C 193.935,202.311 195.268,202.145 196.5,201.5C 197.308,203.423 197.808,205.423 198,207.5C 198.667,208.833 199.333,208.833 200,207.5C 201.296,217.868 201.296,228.201 200,238.5C 199.586,238.957 199.086,239.291 198.5,239.5C 197.204,232.807 197.204,226.141 198.5,219.5C 197.96,218.252 197.293,217.085 196.5,216C 197.602,213.599 197.769,211.099 197,208.5C 196.764,206.881 195.931,205.881 194.5,205.5 Z"/></g>
<g><path style="opacity:1" fill="#8c9b95" d="M 243.5,204.5 C 231.003,206.473 218.336,206.807 205.5,205.5C 205.5,208.833 205.5,212.167 205.5,215.5C 205.5,224.833 205.5,234.167 205.5,243.5C 205.65,250.721 204.983,257.721 203.5,264.5C 200.833,264.5 198.167,264.5 195.5,264.5C 195.5,263.167 195.5,261.833 195.5,260.5C 196.404,261.209 196.737,262.209 196.5,263.5C 200.162,264.363 202.328,263.03 203,259.5C 203.5,241.17 203.667,222.836 203.5,204.5C 216.833,204.5 230.167,204.5 243.5,204.5 Z"/></g>
<g><path style="opacity:1" fill="#a8c6d6" d="M 397.5,171.5 C 398.167,174.5 398.833,177.5 399.5,180.5C 399.5,193.5 399.5,206.5 399.5,219.5C 398.833,222.5 398.167,225.5 397.5,228.5C 397.5,225.833 397.5,223.167 397.5,220.5C 397.5,204.167 397.5,187.833 397.5,171.5 Z"/></g>
<g><path style="opacity:1" fill="#81939a" d="M 68.5,187.5 C 68.5,188.167 68.5,188.833 68.5,189.5C 63.5441,195.546 63.2108,201.879 67.5,208.5C 67.5,208.833 67.5,209.167 67.5,209.5C 69.4819,213.146 72.1485,216.146 75.5,218.5C 74.2092,219.778 72.2092,220.445 69.5,220.5C 68.4676,218.622 67.1343,216.955 65.5,215.5C 66.6602,213.797 65.9935,213.131 63.5,213.5C 63.6261,211.8 64.2927,210.3 65.5,209C 65.0464,206.964 64.2131,205.13 63,203.5C 62.3333,200.833 62.3333,198.167 63,195.5C 64.256,193.246 65.4227,190.912 66.5,188.5C 66.9569,187.702 67.6236,187.369 68.5,187.5 Z"/></g>
<g><path style="opacity:1" fill="#88968e" d="M 143.5,204.5 C 159.167,204.5 174.833,204.5 190.5,204.5C 191.5,204.5 192.5,204.5 193.5,204.5C 194.167,204.5 194.5,204.833 194.5,205.5C 194.5,220.167 194.5,234.833 194.5,249.5C 194.167,249.5 193.833,249.5 193.5,249.5C 193.5,247.167 193.5,244.833 193.5,242.5C 193.5,241.5 193.5,240.5 193.5,239.5C 193.5,228.167 193.5,216.833 193.5,205.5C 176.683,206.441 160.016,206.107 143.5,204.5 Z"/></g>
<g><path style="opacity:1" fill="#eef2d5" d="M 67.5,209.5 C 72.0537,211.714 75.7204,215.047 78.5,219.5C 77.391,219.443 76.391,219.11 75.5,218.5C 72.1485,216.146 69.4819,213.146 67.5,209.5 Z"/></g>
<g><path style="opacity:1" fill="#7c8fa7" d="M 65.5,215.5 C 67.1343,216.955 68.4676,218.622 69.5,220.5C 70.8062,221.467 71.4729,222.801 71.5,224.5C 69.0219,223.805 67.0219,222.305 65.5,220C 64.552,219.517 63.552,219.351 62.5,219.5C 62.5,220.833 62.5,222.167 62.5,223.5C 46.8333,223.5 31.1667,223.5 15.5,223.5C 15.5,221.833 15.5,220.167 15.5,218.5C 18.3854,218.806 21.0521,218.473 23.5,217.5C 25.6353,215.631 28.3019,214.964 31.5,215.5C 31.5,216.5 31.5,217.5 31.5,218.5C 41.8333,218.5 52.1667,218.5 62.5,218.5C 62.5,217.5 62.5,216.5 62.5,215.5C 63.5,215.5 64.5,215.5 65.5,215.5 Z"/></g>
<g><path style="opacity:1" fill="#7c8fa6" d="M 193.5,239.5 C 193.5,240.5 193.5,241.5 193.5,242.5C 192.833,242.167 192.167,241.833 191.5,241.5C 190.645,240.469 189.978,239.303 189.5,238C 190.979,234.953 189.979,233.119 186.5,232.5C 184.166,231.876 181.833,231.043 179.5,230C 183.486,229.501 187.486,229.334 191.5,229.5C 191.824,226.306 190.658,225.306 188,226.5C 183.92,225.7 179.753,225.2 175.5,225C 174.91,223.701 173.91,222.868 172.5,222.5C 168.539,223.231 165.039,224.897 162,227.5C 161.667,227.167 161.333,226.833 161,226.5C 160.59,227.901 160.09,229.234 159.5,230.5C 146.518,230.429 133.852,228.596 121.5,225C 120.833,224.333 120.167,223.667 119.5,223C 116.774,222.818 114.107,222.318 111.5,221.5C 110.478,220.646 109.645,219.646 109,218.5C 108.667,218.833 108.333,219.167 108,219.5C 103.636,218.487 99.4697,217.154 95.5,215.5C 95.3932,213.621 95.8932,213.288 97,214.5C 98.9472,213.89 100.781,213.057 102.5,212C 99.1832,211.502 95.8499,211.335 92.5,211.5C 92.0338,209.799 92.0338,208.299 92.5,207C 95.8333,206.333 99.1667,206.333 102.5,207C 105.097,208.754 107.931,209.921 111,210.5C 112.202,212.677 112.702,215.011 112.5,217.5C 126.909,218.026 141.242,217.359 155.5,215.5C 167.419,217.328 179.419,217.995 191.5,217.5C 191.976,224.995 192.642,232.329 193.5,239.5 Z"/></g>
<g><path style="opacity:1" fill="#7c8fa4" d="M 306.5,214.5 C 304.61,214.297 303.11,214.963 302,216.5C 300,215.833 298,215.167 296,214.5C 296,215.833 296,217.167 296,218.5C 290.923,220.993 285.59,222.993 280,224.5C 274.133,223.581 267.966,223.414 261.5,224C 262.706,225.018 262.373,225.518 260.5,225.5C 257.108,225.441 253.774,225.441 250.5,225.5C 250.5,226.833 250.5,228.167 250.5,229.5C 246.762,230.079 243.096,230.079 239.5,229.5C 239.709,228.914 240.043,228.414 240.5,228C 243.5,227.667 246.5,227.333 249.5,227C 249,226.5 248.5,226 248,225.5C 242.709,226.104 237.209,226.77 231.5,227.5C 226.081,227.478 220.748,226.811 215.5,225.5C 212.678,226.157 210.011,226.491 207.5,226.5C 206.571,225.311 206.238,223.978 206.5,222.5C 207.234,221.122 207.901,219.622 208.5,218C 232.174,217.833 255.84,217.333 279.5,216.5C 283.003,215.865 286.337,214.865 289.5,213.5C 291.121,214.705 292.454,214.539 293.5,213C 292.663,211.989 292.33,210.822 292.5,209.5C 296.487,209.093 300.154,208.26 303.5,207C 305.65,209.041 306.65,211.541 306.5,214.5 Z"/></g>
<g><path style="opacity:1" fill="#7c8fa3" d="M 383.5,218.5 C 383.5,221.167 383.5,223.833 383.5,226.5C 362.497,226.667 341.497,226.5 320.5,226C 318.944,223.499 319.611,221.999 322.5,221.5C 322.611,222.117 322.944,222.617 323.5,223C 327.167,223.667 328.167,222.333 326.5,219C 328.035,219.661 329.702,219.994 331.5,220C 332.833,218.667 332.833,217.333 331.5,216C 333.403,215.226 335.07,215.56 336.5,217C 352.339,217.169 368.005,217.669 383.5,218.5 Z"/></g>
<g><path style="opacity:1" fill="#f4f6cd" d="M 81.5,211.5 C 83.0495,212.441 84.7162,213.107 86.5,213.5C 91.7548,217.294 97.4215,220.294 103.5,222.5C 99.8293,221.663 96.1626,221.163 92.5,221C 92.8333,221.333 93.1667,221.667 93.5,222C 92.0267,222.71 91.3601,223.876 91.5,225.5C 92.8333,225.5 94.1667,225.5 95.5,225.5C 95.5,226.5 95.5,227.5 95.5,228.5C 89.0647,226.784 83.398,223.784 78.5,219.5C 81.5623,219.156 84.5623,218.489 87.5,217.5C 87.2907,216.914 86.9574,216.414 86.5,216C 84.0995,215.814 81.7662,215.314 79.5,214.5C 79.8457,213.304 80.3457,213.304 81,214.5C 81.4828,213.552 81.6495,212.552 81.5,211.5 Z"/></g>
<g><path style="opacity:1" fill="#eef3d1" d="M 329.5,210.5 C 325.866,216.157 320.866,220.157 314.5,222.5C 314.389,221.883 314.056,221.383 313.5,221C 315.525,219.323 317.859,218.323 320.5,218C 321.167,216.667 321.833,215.333 322.5,214C 324.97,213.011 327.303,211.845 329.5,210.5 Z"/></g>
<g><path style="opacity:1" fill="#7b93a2" d="M 186.5,232.5 C 180.667,231.25 174.834,231.25 169,232.5C 165.599,232.669 162.432,232.002 159.5,230.5C 160.09,229.234 160.59,227.901 161,226.5C 161.333,226.833 161.667,227.167 162,227.5C 165.039,224.897 168.539,223.231 172.5,222.5C 173.91,222.868 174.91,223.701 175.5,225C 179.753,225.2 183.92,225.7 188,226.5C 190.658,225.306 191.824,226.306 191.5,229.5C 187.486,229.334 183.486,229.501 179.5,230C 181.833,231.043 184.166,231.876 186.5,232.5 Z"/></g>
<g><path style="opacity:1" fill="#80949d" d="M 313.5,212.5 C 310.429,214.898 307.095,216.898 303.5,218.5C 284.579,226.154 264.912,230.488 244.5,231.5C 233.499,231.9 222.499,232.4 211.5,233C 209.859,234.129 208.859,235.629 208.5,237.5C 207.183,235.713 207.516,234.046 209.5,232.5C 212.833,231.833 216.167,231.167 219.5,230.5C 218.372,229.738 217.205,229.071 216,228.5C 213.26,229.282 210.426,229.782 207.5,230C 206.858,234.601 206.191,239.101 205.5,243.5C 205.5,234.167 205.5,224.833 205.5,215.5C 206.468,217.607 206.802,219.941 206.5,222.5C 206.238,223.978 206.571,225.311 207.5,226.5C 210.011,226.491 212.678,226.157 215.5,225.5C 220.748,226.811 226.081,227.478 231.5,227.5C 237.209,226.77 242.709,226.104 248,225.5C 248.5,226 249,226.5 249.5,227C 246.5,227.333 243.5,227.667 240.5,228C 240.043,228.414 239.709,228.914 239.5,229.5C 243.096,230.079 246.762,230.079 250.5,229.5C 250.5,228.167 250.5,226.833 250.5,225.5C 253.774,225.441 257.108,225.441 260.5,225.5C 262.373,225.518 262.706,225.018 261.5,224C 267.966,223.414 274.133,223.581 280,224.5C 285.59,222.993 290.923,220.993 296,218.5C 296,217.167 296,215.833 296,214.5C 298,215.167 300,215.833 302,216.5C 303.11,214.963 304.61,214.297 306.5,214.5C 308.833,213.833 311.167,213.167 313.5,212.5 Z"/></g>
<g><path style="opacity:1" fill="#7c96a1" d="M 1.5,226.5 C 27.5,226.5 53.5,226.5 79.5,226.5C 79.5,227.833 79.5,229.167 79.5,230.5C 53.8333,230.5 28.1667,230.5 2.5,230.5C 2.16667,229.167 1.83333,227.833 1.5,226.5 Z"/></g>
<g><path style="opacity:1" fill="#f8f8c6" d="M 103.5,222.5 C 107.214,222.59 110.548,223.59 113.5,225.5C 119.286,228.813 125.62,230.646 132.5,231C 125.101,231.858 117.767,232.358 110.5,232.5C 105.705,230.345 100.705,229.012 95.5,228.5C 95.5,227.5 95.5,226.5 95.5,225.5C 94.1667,225.5 92.8333,225.5 91.5,225.5C 91.3601,223.876 92.0267,222.71 93.5,222C 93.1667,221.667 92.8333,221.333 92.5,221C 96.1626,221.163 99.8293,221.663 103.5,222.5 Z"/></g>
<g><path style="opacity:1" fill="#f1f4cd" d="M 314.5,222.5 C 309.716,225.542 304.716,228.208 299.5,230.5C 297.139,230.674 294.806,231.007 292.5,231.5C 293.403,229.364 294.569,227.364 296,225.5C 298.093,226.246 300.093,226.579 302,226.5C 306.067,224.953 310.233,223.619 314.5,222.5 Z"/></g>
<g><path style="opacity:1" fill="#7d95a0" d="M 333.5,203.5 C 333.665,206.518 333.498,209.518 333,212.5C 332.282,211.549 331.449,211.383 330.5,212C 327.969,215.358 325.302,218.524 322.5,221.5C 319.611,221.999 318.944,223.499 320.5,226C 341.497,226.5 362.497,226.667 383.5,226.5C 383.5,223.833 383.5,221.167 383.5,218.5C 384.873,218.343 386.207,218.51 387.5,219C 386.484,219.519 385.818,220.353 385.5,221.5C 386.547,223.056 387.214,224.723 387.5,226.5C 388.873,226.343 390.207,226.51 391.5,227C 389.973,228.032 388.64,229.199 387.5,230.5C 364.833,230.5 342.167,230.5 319.5,230.5C 318.883,230.611 318.383,230.944 318,231.5C 317.313,229.445 316.146,227.779 314.5,226.5C 309.575,228.255 304.575,229.588 299.5,230.5C 304.716,228.208 309.716,225.542 314.5,222.5C 320.866,220.157 325.866,216.157 329.5,210.5C 331.563,208.551 332.896,206.218 333.5,203.5 Z"/></g>
<g><path style="opacity:1" fill="#f5f7ca" d="M 195.5,162.5 C 196.659,172.658 196.825,182.992 196,193.5C 195.5,194.667 194.667,195.5 193.5,196C 194.766,196.309 195.933,196.809 197,197.5C 197.583,195.998 198.416,194.665 199.5,193.5C 200.446,195.379 202.279,197.046 205,198.5C 206.511,197.436 206.677,196.103 205.5,194.5C 222.176,194.481 238.842,194.814 255.5,195.5C 256.833,195.5 258.167,195.5 259.5,195.5C 260.209,196.404 261.209,196.737 262.5,196.5C 262.5,198.5 262.5,200.5 262.5,202.5C 256.5,203.167 250.5,203.833 244.5,204.5C 244.167,204.5 243.833,204.5 243.5,204.5C 230.167,204.5 216.833,204.5 203.5,204.5C 203.667,222.836 203.5,241.17 203,259.5C 202.328,263.03 200.162,264.363 196.5,263.5C 196.737,262.209 196.404,261.209 195.5,260.5C 194.886,256.865 194.552,253.198 194.5,249.5C 194.5,234.833 194.5,220.167 194.5,205.5C 195.931,205.881 196.764,206.881 197,208.5C 197.769,211.099 197.602,213.599 196.5,216C 197.293,217.085 197.96,218.252 198.5,219.5C 197.204,226.141 197.204,232.807 198.5,239.5C 199.086,239.291 199.586,238.957 200,238.5C 201.296,228.201 201.296,217.868 200,207.5C 199.333,208.833 198.667,208.833 198,207.5C 197.808,205.423 197.308,203.423 196.5,201.5C 195.268,202.145 193.935,202.311 192.5,202C 193.252,202.671 193.586,203.504 193.5,204.5C 192.5,204.5 191.5,204.5 190.5,204.5C 173.354,203.035 156.021,202.368 138.5,202.5C 138.185,199.789 138.852,197.456 140.5,195.5C 141.791,195.737 142.791,195.404 143.5,194.5C 160.5,194.5 177.5,194.5 194.5,194.5C 194.5,193.5 194.5,192.5 194.5,191.5C 195.494,182.014 195.827,172.348 195.5,162.5 Z"/></g>
<g><path style="opacity:1" fill="#859598" d="M 86.5,213.5 C 89.8562,214.137 92.8562,214.804 95.5,215.5C 99.4697,217.154 103.636,218.487 108,219.5C 108.333,219.167 108.667,218.833 109,218.5C 109.645,219.646 110.478,220.646 111.5,221.5C 114.107,222.318 116.774,222.818 119.5,223C 120.167,223.667 120.833,224.333 121.5,225C 133.852,228.596 146.518,230.429 159.5,230.5C 162.432,232.002 165.599,232.669 169,232.5C 174.834,231.25 180.667,231.25 186.5,232.5C 189.979,233.119 190.979,234.953 189.5,238C 189.978,239.303 190.645,240.469 191.5,241.5C 190.25,241.577 189.417,242.244 189,243.5C 188.617,242.944 188.117,242.611 187.5,242.5C 189.425,238.617 188.425,235.784 184.5,234C 160.474,233.995 136.807,231.161 113.5,225.5C 110.548,223.59 107.214,222.59 103.5,222.5C 97.4215,220.294 91.7548,217.294 86.5,213.5 Z"/></g>
<g><path style="opacity:1" fill="#eff3ca" d="M 113.5,225.5 C 136.807,231.161 160.474,233.995 184.5,234C 188.425,235.784 189.425,238.617 187.5,242.5C 186.833,242.5 186.167,242.5 185.5,242.5C 176.467,242.716 167.467,242.383 158.5,241.5C 153.25,241.698 148.25,241.031 143.5,239.5C 156.011,240.031 168.511,240.698 181,241.5C 184.58,241.176 186.08,239.176 185.5,235.5C 182.167,235.5 178.833,235.5 175.5,235.5C 175.719,236.675 175.386,237.675 174.5,238.5C 169.553,237.717 164.553,237.217 159.5,237C 149.469,231.618 138.803,231.284 127.5,236C 131.607,236.13 134.94,236.63 137.5,237.5C 134.833,237.5 132.167,237.5 129.5,237.5C 121.13,236.044 112.796,234.377 104.5,232.5C 101.567,231.017 98.5672,229.683 95.5,228.5C 100.705,229.012 105.705,230.345 110.5,232.5C 117.767,232.358 125.101,231.858 132.5,231C 125.62,230.646 119.286,228.813 113.5,225.5 Z"/></g>
<g><path style="opacity:1" fill="#7c8fa2" d="M 0.5,217.5 C 8.16667,217.5 15.8333,217.5 23.5,217.5C 21.0521,218.473 18.3854,218.806 15.5,218.5C 15.5,220.167 15.5,221.833 15.5,223.5C 31.1667,223.5 46.8333,223.5 62.5,223.5C 62.5,222.167 62.5,220.833 62.5,219.5C 63.552,219.351 64.552,219.517 65.5,220C 67.0219,222.305 69.0219,223.805 71.5,224.5C 71.4729,222.801 70.8062,221.467 69.5,220.5C 72.2092,220.445 74.2092,219.778 75.5,218.5C 75.4386,220.592 74.4386,222.092 72.5,223C 74.7489,223.863 76.5822,223.363 78,221.5C 79.848,223.018 81.348,224.851 82.5,227C 85.4245,227.988 88.4245,228.654 91.5,229C 91.9574,229.414 92.2907,229.914 92.5,230.5C 91.3112,231.429 89.9778,231.762 88.5,231.5C 88.4056,234.541 89.9056,236.207 93,236.5C 94.7209,236.469 96.5542,235.802 98.5,234.5C 97.9747,233.808 97.3081,233.308 96.5,233C 99.2713,233.347 101.938,233.18 104.5,232.5C 104.414,233.496 104.748,234.329 105.5,235C 103.443,235.305 101.443,235.305 99.5,235C 100.09,236.299 101.09,237.132 102.5,237.5C 104.623,236.688 106.79,236.022 109,235.5C 109.833,235.833 110.667,236.167 111.5,236.5C 110.311,237.429 108.978,237.762 107.5,237.5C 107.5,238.5 107.5,239.5 107.5,240.5C 99.4931,240.666 91.4931,240.5 83.5,240C 84.3081,239.692 84.9747,239.192 85.5,238.5C 83.5485,236.467 81.3818,236.134 79,237.5C 78.3828,238.449 78.5494,239.282 79.5,240C 68.8385,240.5 58.1719,240.667 47.5,240.5C 42.1667,240.5 36.8333,240.5 31.5,240.5C 22.4781,239.759 13.4781,239.425 4.5,239.5C 3.34281,236.727 2.67615,233.727 2.5,230.5C 28.1667,230.5 53.8333,230.5 79.5,230.5C 79.5,229.167 79.5,227.833 79.5,226.5C 53.5,226.5 27.5,226.5 1.5,226.5C 1.63228,223.43 1.29895,220.43 0.5,217.5 Z"/></g>
<g><path style="opacity:1" fill="#f0f4cd" d="M 303.5,218.5 C 302.766,219.708 302.433,221.041 302.5,222.5C 301.5,222.5 300.5,222.5 299.5,222.5C 299.649,223.552 299.483,224.552 299,225.5C 296.263,224.39 293.429,224.223 290.5,225C 289.833,227 288.5,228.333 286.5,229C 287.833,229.667 287.833,230.333 286.5,231C 288.473,231.495 290.473,231.662 292.5,231.5C 286.771,233.768 280.771,235.435 274.5,236.5C 274.47,235.503 274.97,234.836 276,234.5C 279.661,234.228 282.827,232.894 285.5,230.5C 283.055,229.052 280.388,228.385 277.5,228.5C 273.069,229.367 268.736,230.533 264.5,232C 265.672,232.419 266.672,233.085 267.5,234C 259.952,232.799 252.285,232.299 244.5,232.5C 244.5,232.167 244.5,231.833 244.5,231.5C 264.912,230.488 284.579,226.154 303.5,218.5 Z"/></g>
<g><path style="opacity:1" fill="#7c8fa2" d="M 319.5,230.5 C 340.329,231.332 361.329,231.832 382.5,232C 383.444,234.719 383.777,237.552 383.5,240.5C 362.164,240.667 340.831,240.5 319.5,240C 319.957,239.586 320.291,239.086 320.5,238.5C 317.758,236.013 315.091,236.013 312.5,238.5C 313.025,239.192 313.692,239.692 314.5,240C 310.848,240.499 307.182,240.665 303.5,240.5C 299.167,240.5 294.833,240.5 290.5,240.5C 291.263,239.732 292.263,239.232 293.5,239C 291.192,238.009 288.859,237.176 286.5,236.5C 291.032,235.201 295.366,233.201 299.5,230.5C 304.575,229.588 309.575,228.255 314.5,226.5C 316.146,227.779 317.313,229.445 318,231.5C 318.383,230.944 318.883,230.611 319.5,230.5 Z"/></g>
<g><path style="opacity:1" fill="#7f949d" d="M 75.5,218.5 C 76.391,219.11 77.391,219.443 78.5,219.5C 83.398,223.784 89.0647,226.784 95.5,228.5C 98.5672,229.683 101.567,231.017 104.5,232.5C 101.938,233.18 99.2713,233.347 96.5,233C 97.3081,233.308 97.9747,233.808 98.5,234.5C 96.5542,235.802 94.7209,236.469 93,236.5C 89.9056,236.207 88.4056,234.541 88.5,231.5C 89.9778,231.762 91.3112,231.429 92.5,230.5C 92.2907,229.914 91.9574,229.414 91.5,229C 88.4245,228.654 85.4245,227.988 82.5,227C 81.348,224.851 79.848,223.018 78,221.5C 76.5822,223.363 74.7489,223.863 72.5,223C 74.4386,222.092 75.4386,220.592 75.5,218.5 Z"/></g>
<g><path style="opacity:1" fill="#8d9c95" d="M 244.5,231.5 C 244.5,231.833 244.5,232.167 244.5,232.5C 244.167,232.5 243.833,232.5 243.5,232.5C 232.811,233.002 222.145,233.835 211.5,235C 209.36,237.173 209.026,239.673 210.5,242.5C 222.183,242.602 233.85,242.269 245.5,241.5C 243.698,242.458 241.698,243.125 239.5,243.5C 230.16,243.912 220.827,244.079 211.5,244C 209.944,243.28 208.944,242.113 208.5,240.5C 208.5,239.5 208.5,238.5 208.5,237.5C 208.859,235.629 209.859,234.129 211.5,233C 222.499,232.4 233.499,231.9 244.5,231.5 Z"/></g>
<g><path style="opacity:1" fill="#f8f9c5" d="M 143.5,239.5 C 141.5,238.833 139.5,238.167 137.5,237.5C 134.94,236.63 131.607,236.13 127.5,236C 138.803,231.284 149.469,231.618 159.5,237C 164.553,237.217 169.553,237.717 174.5,238.5C 175.386,237.675 175.719,236.675 175.5,235.5C 178.833,235.5 182.167,235.5 185.5,235.5C 186.08,239.176 184.58,241.176 181,241.5C 168.511,240.698 156.011,240.031 143.5,239.5 Z"/></g>
<g><path style="opacity:1" fill="#f8f9c5" d="M 274.5,236.5 C 273.5,236.5 272.5,236.5 271.5,236.5C 252.995,239.475 234.328,241.141 215.5,241.5C 212.483,240.62 211.816,238.786 213.5,236C 223.713,235.328 233.713,234.162 243.5,232.5C 243.833,232.5 244.167,232.5 244.5,232.5C 252.285,232.299 259.952,232.799 267.5,234C 266.672,233.085 265.672,232.419 264.5,232C 268.736,230.533 273.069,229.367 277.5,228.5C 280.388,228.385 283.055,229.052 285.5,230.5C 282.827,232.894 279.661,234.228 276,234.5C 274.97,234.836 274.47,235.503 274.5,236.5 Z"/></g>
<g><path style="opacity:1" fill="#7d95a1" d="M 104.5,232.5 C 112.796,234.377 121.13,236.044 129.5,237.5C 133.919,238.972 138.586,239.638 143.5,239.5C 148.25,241.031 153.25,241.698 158.5,241.5C 158.611,242.117 158.944,242.617 159.5,243C 168.343,243.824 177.01,243.657 185.5,242.5C 186.167,242.5 186.833,242.5 187.5,242.5C 188.117,242.611 188.617,242.944 189,243.5C 189.417,242.244 190.25,241.577 191.5,241.5C 192.167,241.833 192.833,242.167 193.5,242.5C 193.5,244.833 193.5,247.167 193.5,249.5C 192.596,250.209 192.263,251.209 192.5,252.5C 190.473,252.338 188.473,252.505 186.5,253C 185.541,254.464 184.208,255.297 182.5,255.5C 179.8,253.639 176.967,251.973 174,250.5C 171.706,250.952 169.206,250.952 166.5,250.5C 164.5,250.667 162.5,250.833 160.5,251C 159.663,252.011 159.33,253.178 159.5,254.5C 154.473,254.503 149.473,254.836 144.5,255.5C 144.5,254.5 144.5,253.5 144.5,252.5C 149.437,252.099 154.104,250.766 158.5,248.5C 153.471,247.914 148.137,247.914 142.5,248.5C 142.5,249.5 142.5,250.5 142.5,251.5C 134.833,251.5 127.167,251.5 119.5,251.5C 119.5,252.833 119.5,254.167 119.5,255.5C 116.833,255.5 114.167,255.5 111.5,255.5C 111.5,254.167 111.5,252.833 111.5,251.5C 106.167,251.5 100.833,251.5 95.5,251.5C 95.5,252.833 95.5,254.167 95.5,255.5C 92.8333,255.5 90.1667,255.5 87.5,255.5C 87.5,254.167 87.5,252.833 87.5,251.5C 84.8333,251.5 82.1667,251.5 79.5,251.5C 79.5,252.833 79.5,254.167 79.5,255.5C 76.8333,255.5 74.1667,255.5 71.5,255.5C 71.5,254.167 71.5,252.833 71.5,251.5C 63.5,251.5 55.5,251.5 47.5,251.5C 47.5,247.833 47.5,244.167 47.5,240.5C 58.1719,240.667 68.8385,240.5 79.5,240C 78.5494,239.282 78.3828,238.449 79,237.5C 81.3818,236.134 83.5485,236.467 85.5,238.5C 84.9747,239.192 84.3081,239.692 83.5,240C 91.4931,240.5 99.4931,240.666 107.5,240.5C 107.5,239.5 107.5,238.5 107.5,237.5C 108.978,237.762 110.311,237.429 111.5,236.5C 110.667,236.167 109.833,235.833 109,235.5C 106.79,236.022 104.623,236.688 102.5,237.5C 101.09,237.132 100.09,236.299 99.5,235C 101.443,235.305 103.443,235.305 105.5,235C 104.748,234.329 104.414,233.496 104.5,232.5 Z"/></g>
<g><path style="opacity:1" fill="#7d96a2" d="M 383.5,240.5 C 383.5,244.167 383.5,247.833 383.5,251.5C 380.833,251.5 378.167,251.5 375.5,251.5C 375.5,252.833 375.5,254.167 375.5,255.5C 372.833,255.5 370.167,255.5 367.5,255.5C 367.5,254.167 367.5,252.833 367.5,251.5C 362.167,251.5 356.833,251.5 351.5,251.5C 351.5,252.833 351.5,254.167 351.5,255.5C 348.833,255.5 346.167,255.5 343.5,255.5C 343.5,254.167 343.5,252.833 343.5,251.5C 340.833,251.5 338.167,251.5 335.5,251.5C 335.5,252.833 335.5,254.167 335.5,255.5C 332.833,255.5 330.167,255.5 327.5,255.5C 327.5,254.167 327.5,252.833 327.5,251.5C 319.5,251.5 311.5,251.5 303.5,251.5C 303.5,247.833 303.5,244.167 303.5,240.5C 307.182,240.665 310.848,240.499 314.5,240C 313.692,239.692 313.025,239.192 312.5,238.5C 315.091,236.013 317.758,236.013 320.5,238.5C 320.291,239.086 319.957,239.586 319.5,240C 340.831,240.5 362.164,240.667 383.5,240.5 Z"/></g>
<g><path style="opacity:1" fill="#e1e8d1" d="M 129.5,237.5 C 132.167,237.5 134.833,237.5 137.5,237.5C 139.5,238.167 141.5,238.833 143.5,239.5C 138.586,239.638 133.919,238.972 129.5,237.5 Z"/></g>
<g><path style="opacity:1" fill="#7d95a1" d="M 286.5,236.5 C 288.859,237.176 291.192,238.009 293.5,239C 292.263,239.232 291.263,239.732 290.5,240.5C 289.5,240.5 288.5,240.5 287.5,240.5C 287.5,245.5 287.5,250.5 287.5,255.5C 284.833,255.5 282.167,255.5 279.5,255.5C 279.5,254.167 279.5,252.833 279.5,251.5C 271.833,251.5 264.167,251.5 256.5,251.5C 256.5,250.5 256.5,249.5 256.5,248.5C 237.008,247.486 237.008,245.986 256.5,244C 256.167,243.667 255.833,243.333 255.5,243C 256.5,242.667 257.5,242.333 258.5,242C 256.866,241.506 255.199,241.34 253.5,241.5C 259.013,240.422 264.679,239.422 270.5,238.5C 271.554,238.68 272.554,239.013 273.5,239.5C 277.604,237.464 281.938,236.464 286.5,236.5 Z"/></g>
<g><path style="opacity:1" fill="#8a989a" d="M 299.5,230.5 C 295.366,233.201 291.032,235.201 286.5,236.5C 281.938,236.464 277.604,237.464 273.5,239.5C 272.554,239.013 271.554,238.68 270.5,238.5C 264.679,239.422 259.013,240.422 253.5,241.5C 251.5,241.5 249.5,241.5 247.5,241.5C 255.52,239.978 263.52,238.312 271.5,236.5C 272.5,236.5 273.5,236.5 274.5,236.5C 280.771,235.435 286.771,233.768 292.5,231.5C 294.806,231.007 297.139,230.674 299.5,230.5 Z"/></g>
<g><path style="opacity:1" fill="#7c96a1" d="M 4.5,239.5 C 13.4781,239.425 22.4781,239.759 31.5,240.5C 31.5,245.5 31.5,250.5 31.5,255.5C 28.8333,255.5 26.1667,255.5 23.5,255.5C 23.5,254.167 23.5,252.833 23.5,251.5C 17.8333,251.5 12.1667,251.5 6.5,251.5C 5.51448,247.557 4.84782,243.557 4.5,239.5 Z"/></g>
<g><path style="opacity:1" fill="#7d94a5" d="M 397.5,220.5 C 397.5,223.167 397.5,225.833 397.5,228.5C 396.757,237.894 394.757,246.894 391.5,255.5C 386.319,255.931 380.986,255.931 375.5,255.5C 375.5,254.167 375.5,252.833 375.5,251.5C 378.167,251.5 380.833,251.5 383.5,251.5C 383.5,247.833 383.5,244.167 383.5,240.5C 383.777,237.552 383.444,234.719 382.5,232C 361.329,231.832 340.329,231.332 319.5,230.5C 342.167,230.5 364.833,230.5 387.5,230.5C 389.199,230.66 390.866,230.494 392.5,230C 392.167,229.667 391.833,229.333 391.5,229C 392.249,227.266 392.749,225.433 393,223.5C 393.333,224.5 393.667,225.5 394,226.5C 394.179,223.447 394.679,220.447 395.5,217.5C 396.506,217.938 396.506,218.604 395.5,219.5C 395.957,220.298 396.624,220.631 397.5,220.5 Z"/></g>
<g><path style="opacity:1" fill="#eef3d0" d="M 243.5,232.5 C 233.713,234.162 223.713,235.328 213.5,236C 211.816,238.786 212.483,240.62 215.5,241.5C 234.328,241.141 252.995,239.475 271.5,236.5C 263.52,238.312 255.52,239.978 247.5,241.5C 246.833,241.5 246.167,241.5 245.5,241.5C 233.85,242.269 222.183,242.602 210.5,242.5C 209.026,239.673 209.36,237.173 211.5,235C 222.145,233.835 232.811,233.002 243.5,232.5 Z"/></g>
<g><path style="opacity:1" fill="#98a299" d="M 158.5,241.5 C 167.467,242.383 176.467,242.716 185.5,242.5C 177.01,243.657 168.343,243.824 159.5,243C 158.944,242.617 158.611,242.117 158.5,241.5 Z"/></g>
<g><path style="opacity:1" fill="#8095a7" d="M 208.5,237.5 C 208.5,238.5 208.5,239.5 208.5,240.5C 207.957,240.56 207.624,240.893 207.5,241.5C 208.074,243.059 208.74,244.559 209.5,246C 208.5,246.333 207.5,246.667 206.5,247C 207.249,248.734 207.749,250.567 208,252.5C 210.046,252.451 212.213,252.785 214.5,253.5C 215.145,254.646 215.978,255.646 217,256.5C 218.011,255.663 219.178,255.33 220.5,255.5C 220.297,253.61 220.963,252.11 222.5,251C 228.157,250.501 233.824,250.334 239.5,250.5C 239.5,251.5 239.5,252.5 239.5,253.5C 244.958,253.865 250.292,254.865 255.5,256.5C 255.5,255.167 255.5,253.833 255.5,252.5C 253.549,252.773 252.049,252.107 251,250.5C 247.854,251.549 244.688,251.383 241.5,250C 239.893,248.951 239.227,247.451 239.5,245.5C 236.719,246.823 234.053,246.656 231.5,245C 234.365,244.817 237.031,244.317 239.5,243.5C 241.698,243.125 243.698,242.458 245.5,241.5C 246.167,241.5 246.833,241.5 247.5,241.5C 249.5,241.5 251.5,241.5 253.5,241.5C 255.199,241.34 256.866,241.506 258.5,242C 257.5,242.333 256.5,242.667 255.5,243C 255.833,243.333 256.167,243.667 256.5,244C 237.008,245.986 237.008,247.486 256.5,248.5C 256.5,249.5 256.5,250.5 256.5,251.5C 264.167,251.5 271.833,251.5 279.5,251.5C 279.5,252.833 279.5,254.167 279.5,255.5C 282.167,255.5 284.833,255.5 287.5,255.5C 287.5,250.5 287.5,245.5 287.5,240.5C 288.5,240.5 289.5,240.5 290.5,240.5C 294.833,240.5 299.167,240.5 303.5,240.5C 303.5,244.167 303.5,247.833 303.5,251.5C 311.5,251.5 319.5,251.5 327.5,251.5C 327.5,252.833 327.5,254.167 327.5,255.5C 330.167,255.5 332.833,255.5 335.5,255.5C 335.5,254.167 335.5,252.833 335.5,251.5C 338.167,251.5 340.833,251.5 343.5,251.5C 343.5,252.833 343.5,254.167 343.5,255.5C 346.167,255.5 348.833,255.5 351.5,255.5C 351.5,254.167 351.5,252.833 351.5,251.5C 356.833,251.5 362.167,251.5 367.5,251.5C 367.5,252.833 367.5,254.167 367.5,255.5C 367.5,257.5 367.5,259.5 367.5,261.5C 314.496,261.167 261.496,261.5 208.5,262.5C 206.273,264.607 204.273,266.94 202.5,269.5C 200.5,268.167 198.5,268.167 196.5,269.5C 195.585,268.672 194.919,267.672 194.5,266.5C 196.708,265.687 199.208,265.687 202,266.5C 203.03,266.164 203.53,265.497 203.5,264.5C 204.983,257.721 205.65,250.721 205.5,243.5C 206.191,239.101 206.858,234.601 207.5,230C 210.426,229.782 213.26,229.282 216,228.5C 217.205,229.071 218.372,229.738 219.5,230.5C 216.167,231.167 212.833,231.833 209.5,232.5C 207.516,234.046 207.183,235.713 208.5,237.5 Z"/></g>
<g><path style="opacity:1" fill="#8095a2" d="M 208.5,240.5 C 208.944,242.113 209.944,243.28 211.5,244C 220.827,244.079 230.16,243.912 239.5,243.5C 237.031,244.317 234.365,244.817 231.5,245C 234.053,246.656 236.719,246.823 239.5,245.5C 239.227,247.451 239.893,248.951 241.5,250C 244.688,251.383 247.854,251.549 251,250.5C 252.049,252.107 253.549,252.773 255.5,252.5C 255.5,253.833 255.5,255.167 255.5,256.5C 250.292,254.865 244.958,253.865 239.5,253.5C 239.5,252.5 239.5,251.5 239.5,250.5C 233.824,250.334 228.157,250.501 222.5,251C 220.963,252.11 220.297,253.61 220.5,255.5C 219.178,255.33 218.011,255.663 217,256.5C 215.978,255.646 215.145,254.646 214.5,253.5C 212.213,252.785 210.046,252.451 208,252.5C 207.749,250.567 207.249,248.734 206.5,247C 207.5,246.667 208.5,246.333 209.5,246C 208.74,244.559 208.074,243.059 207.5,241.5C 207.624,240.893 207.957,240.56 208.5,240.5 Z"/></g>
<g><path style="opacity:1" fill="#8095a7" d="M 31.5,240.5 C 36.8333,240.5 42.1667,240.5 47.5,240.5C 47.5,244.167 47.5,247.833 47.5,251.5C 55.5,251.5 63.5,251.5 71.5,251.5C 71.5,252.833 71.5,254.167 71.5,255.5C 74.1667,255.5 76.8333,255.5 79.5,255.5C 79.5,254.167 79.5,252.833 79.5,251.5C 82.1667,251.5 84.8333,251.5 87.5,251.5C 87.5,252.833 87.5,254.167 87.5,255.5C 90.1667,255.5 92.8333,255.5 95.5,255.5C 95.5,254.167 95.5,252.833 95.5,251.5C 100.833,251.5 106.167,251.5 111.5,251.5C 111.5,252.833 111.5,254.167 111.5,255.5C 114.167,255.5 116.833,255.5 119.5,255.5C 119.5,254.167 119.5,252.833 119.5,251.5C 127.167,251.5 134.833,251.5 142.5,251.5C 142.5,250.5 142.5,249.5 142.5,248.5C 148.137,247.914 153.471,247.914 158.5,248.5C 154.104,250.766 149.437,252.099 144.5,252.5C 144.5,253.5 144.5,254.5 144.5,255.5C 149.473,254.836 154.473,254.503 159.5,254.5C 159.33,253.178 159.663,252.011 160.5,251C 162.5,250.833 164.5,250.667 166.5,250.5C 169.206,250.952 171.706,250.952 174,250.5C 176.967,251.973 179.8,253.639 182.5,255.5C 184.208,255.297 185.541,254.464 186.5,253C 188.473,252.505 190.473,252.338 192.5,252.5C 193.043,252.56 193.376,252.893 193.5,253.5C 191.667,254.968 191.334,256.635 192.5,258.5C 193.086,258.291 193.586,257.957 194,257.5C 194.495,259.473 194.662,261.473 194.5,263.5C 192.897,263.688 191.563,263.188 190.5,262C 130.168,261.5 69.8343,261.333 9.5,261.5C 8.80704,258.059 7.80704,254.725 6.5,251.5C 12.1667,251.5 17.8333,251.5 23.5,251.5C 23.5,252.833 23.5,254.167 23.5,255.5C 26.1667,255.5 28.8333,255.5 31.5,255.5C 31.5,250.5 31.5,245.5 31.5,240.5 Z"/></g>
<g><path style="opacity:1" fill="#8296a1" d="M 193.5,249.5 C 193.833,249.5 194.167,249.5 194.5,249.5C 194.552,253.198 194.886,256.865 195.5,260.5C 195.5,261.833 195.5,263.167 195.5,264.5C 198.167,264.5 200.833,264.5 203.5,264.5C 203.53,265.497 203.03,266.164 202,266.5C 199.208,265.687 196.708,265.687 194.5,266.5C 194.919,267.672 195.585,268.672 196.5,269.5C 198.5,268.167 200.5,268.167 202.5,269.5C 204.273,266.94 206.273,264.607 208.5,262.5C 261.496,261.5 314.496,261.167 367.5,261.5C 367.5,259.5 367.5,257.5 367.5,255.5C 370.167,255.5 372.833,255.5 375.5,255.5C 380.986,255.931 386.319,255.931 391.5,255.5C 390.163,262.845 387.829,269.845 384.5,276.5C 378.833,276.5 373.167,276.5 367.5,276.5C 367.5,277.5 367.5,278.5 367.5,279.5C 364.833,279.5 362.167,279.5 359.5,279.5C 359.5,278.5 359.5,277.5 359.5,276.5C 335.5,276.5 311.5,276.5 287.5,276.5C 287.5,277.5 287.5,278.5 287.5,279.5C 284.833,279.5 282.167,279.5 279.5,279.5C 279.5,278.5 279.5,277.5 279.5,276.5C 266.167,276.5 252.833,276.5 239.5,276.5C 239.5,277.5 239.5,278.5 239.5,279.5C 236.833,279.5 234.167,279.5 231.5,279.5C 231.5,278.5 231.5,277.5 231.5,276.5C 207.5,276.5 183.5,276.5 159.5,276.5C 159.5,277.5 159.5,278.5 159.5,279.5C 156.833,279.5 154.167,279.5 151.5,279.5C 151.5,278.5 151.5,277.5 151.5,276.5C 138.167,276.5 124.833,276.5 111.5,276.5C 111.5,277.5 111.5,278.5 111.5,279.5C 108.833,279.5 106.167,279.5 103.5,279.5C 103.5,278.5 103.5,277.5 103.5,276.5C 79.5,276.5 55.5,276.5 31.5,276.5C 31.5,277.5 31.5,278.5 31.5,279.5C 28.8333,279.5 26.1667,279.5 23.5,279.5C 23.5,278.5 23.5,277.5 23.5,276.5C 20.8333,276.5 18.1667,276.5 15.5,276.5C 13.2232,271.613 11.2232,266.613 9.5,261.5C 69.8343,261.333 130.168,261.5 190.5,262C 191.563,263.188 192.897,263.688 194.5,263.5C 194.662,261.473 194.495,259.473 194,257.5C 193.586,257.957 193.086,258.291 192.5,258.5C 191.334,256.635 191.667,254.968 193.5,253.5C 193.376,252.893 193.043,252.56 192.5,252.5C 192.263,251.209 192.596,250.209 193.5,249.5 Z"/></g>
<g><path style="opacity:1" fill="#8395a7" d="M 15.5,276.5 C 18.1667,276.5 20.8333,276.5 23.5,276.5C 23.5,277.5 23.5,278.5 23.5,279.5C 26.1667,279.5 28.8333,279.5 31.5,279.5C 31.5,278.5 31.5,277.5 31.5,276.5C 55.5,276.5 79.5,276.5 103.5,276.5C 103.5,277.5 103.5,278.5 103.5,279.5C 106.167,279.5 108.833,279.5 111.5,279.5C 111.5,278.5 111.5,277.5 111.5,276.5C 124.833,276.5 138.167,276.5 151.5,276.5C 151.5,277.5 151.5,278.5 151.5,279.5C 154.167,279.5 156.833,279.5 159.5,279.5C 159.5,278.5 159.5,277.5 159.5,276.5C 183.5,276.5 207.5,276.5 231.5,276.5C 231.5,277.5 231.5,278.5 231.5,279.5C 234.167,279.5 236.833,279.5 239.5,279.5C 239.5,278.5 239.5,277.5 239.5,276.5C 252.833,276.5 266.167,276.5 279.5,276.5C 279.5,277.5 279.5,278.5 279.5,279.5C 282.167,279.5 284.833,279.5 287.5,279.5C 287.5,278.5 287.5,277.5 287.5,276.5C 311.5,276.5 335.5,276.5 359.5,276.5C 359.5,277.5 359.5,278.5 359.5,279.5C 362.167,279.5 364.833,279.5 367.5,279.5C 367.5,278.5 367.5,277.5 367.5,276.5C 373.167,276.5 378.833,276.5 384.5,276.5C 382.554,282.004 380.221,287.337 377.5,292.5C 366.167,292.5 354.833,292.5 343.5,292.5C 343.5,293.5 343.5,294.5 343.5,295.5C 340.833,295.5 338.167,295.5 335.5,295.5C 335.5,294.5 335.5,293.5 335.5,292.5C 332.833,292.5 330.167,292.5 327.5,292.5C 327.5,293.5 327.5,294.5 327.5,295.5C 324.833,295.5 322.167,295.5 319.5,295.5C 319.5,294.5 319.5,293.5 319.5,292.5C 314.167,292.5 308.833,292.5 303.5,292.5C 303.5,293.5 303.5,294.5 303.5,295.5C 295.5,295.5 287.5,295.5 279.5,295.5C 279.5,294.5 279.5,293.5 279.5,292.5C 258.167,292.5 236.833,292.5 215.5,292.5C 215.5,293.5 215.5,294.5 215.5,295.5C 212.833,295.5 210.167,295.5 207.5,295.5C 207.5,294.5 207.5,293.5 207.5,292.5C 196.833,292.5 186.167,292.5 175.5,292.5C 175.5,293.5 175.5,294.5 175.5,295.5C 167.5,295.5 159.5,295.5 151.5,295.5C 151.5,294.5 151.5,293.5 151.5,292.5C 130.167,292.5 108.833,292.5 87.5,292.5C 87.5,293.5 87.5,294.5 87.5,295.5C 84.8333,295.5 82.1667,295.5 79.5,295.5C 79.5,294.5 79.5,293.5 79.5,292.5C 76.8333,292.5 74.1667,292.5 71.5,292.5C 71.5,293.5 71.5,294.5 71.5,295.5C 68.8333,295.5 66.1667,295.5 63.5,295.5C 63.5,294.5 63.5,293.5 63.5,292.5C 58.1667,292.5 52.8333,292.5 47.5,292.5C 47.5,293.5 47.5,294.5 47.5,295.5C 39.8333,295.5 32.1667,295.5 24.5,295.5C 20.6997,289.565 17.6997,283.232 15.5,276.5 Z"/></g>
<g><path style="opacity:1" fill="#8896a7" d="M 377.5,292.5 C 375.403,296.372 373.069,300.039 370.5,303.5C 353.5,303.5 336.5,303.5 319.5,303.5C 319.5,302.167 319.5,300.833 319.5,299.5C 314.167,299.5 308.833,299.5 303.5,299.5C 303.5,300.833 303.5,302.167 303.5,303.5C 266.167,303.5 228.833,303.5 191.5,303.5C 191.5,302.167 191.5,300.833 191.5,299.5C 186.167,299.5 180.833,299.5 175.5,299.5C 175.5,300.833 175.5,302.167 175.5,303.5C 138.167,303.5 100.833,303.5 63.5,303.5C 63.5,302.167 63.5,300.833 63.5,299.5C 58.1667,299.5 52.8333,299.5 47.5,299.5C 47.5,300.833 47.5,302.167 47.5,303.5C 41.5,303.5 35.5,303.5 29.5,303.5C 27.347,301.206 25.6803,298.54 24.5,295.5C 32.1667,295.5 39.8333,295.5 47.5,295.5C 47.5,294.5 47.5,293.5 47.5,292.5C 52.8333,292.5 58.1667,292.5 63.5,292.5C 63.5,293.5 63.5,294.5 63.5,295.5C 66.1667,295.5 68.8333,295.5 71.5,295.5C 71.5,294.5 71.5,293.5 71.5,292.5C 74.1667,292.5 76.8333,292.5 79.5,292.5C 79.5,293.5 79.5,294.5 79.5,295.5C 82.1667,295.5 84.8333,295.5 87.5,295.5C 87.5,294.5 87.5,293.5 87.5,292.5C 108.833,292.5 130.167,292.5 151.5,292.5C 151.5,293.5 151.5,294.5 151.5,295.5C 159.5,295.5 167.5,295.5 175.5,295.5C 175.5,294.5 175.5,293.5 175.5,292.5C 186.167,292.5 196.833,292.5 207.5,292.5C 207.5,293.5 207.5,294.5 207.5,295.5C 210.167,295.5 212.833,295.5 215.5,295.5C 215.5,294.5 215.5,293.5 215.5,292.5C 236.833,292.5 258.167,292.5 279.5,292.5C 279.5,293.5 279.5,294.5 279.5,295.5C 287.5,295.5 295.5,295.5 303.5,295.5C 303.5,294.5 303.5,293.5 303.5,292.5C 308.833,292.5 314.167,292.5 319.5,292.5C 319.5,293.5 319.5,294.5 319.5,295.5C 322.167,295.5 324.833,295.5 327.5,295.5C 327.5,294.5 327.5,293.5 327.5,292.5C 330.167,292.5 332.833,292.5 335.5,292.5C 335.5,293.5 335.5,294.5 335.5,295.5C 338.167,295.5 340.833,295.5 343.5,295.5C 343.5,294.5 343.5,293.5 343.5,292.5C 354.833,292.5 366.167,292.5 377.5,292.5 Z"/></g>
<g><path style="opacity:1" fill="#8996a2" d="M 370.5,303.5 C 370.672,304.492 370.338,305.158 369.5,305.5C 367.667,306.463 365.667,307.13 363.5,307.5C 352.833,304.833 342.167,304.833 331.5,307.5C 318.167,304.833 304.833,304.833 291.5,307.5C 282.198,305.159 272.864,305.159 263.5,307.5C 254.136,305.159 244.802,305.159 235.5,307.5C 224.833,304.833 214.167,304.833 203.5,307.5C 190.167,304.833 176.833,304.833 163.5,307.5C 152.833,304.833 142.167,304.833 131.5,307.5C 123.5,304.833 115.5,304.833 107.5,307.5C 96.8333,304.833 86.1667,304.833 75.5,307.5C 68.8966,306.337 62.2299,305.67 55.5,305.5C 47.4504,305.836 39.4504,306.503 31.5,307.5C 30.3995,306.395 29.7329,305.062 29.5,303.5C 35.5,303.5 41.5,303.5 47.5,303.5C 47.5,302.167 47.5,300.833 47.5,299.5C 52.8333,299.5 58.1667,299.5 63.5,299.5C 63.5,300.833 63.5,302.167 63.5,303.5C 100.833,303.5 138.167,303.5 175.5,303.5C 175.5,302.167 175.5,300.833 175.5,299.5C 180.833,299.5 186.167,299.5 191.5,299.5C 191.5,300.833 191.5,302.167 191.5,303.5C 228.833,303.5 266.167,303.5 303.5,303.5C 303.5,302.167 303.5,300.833 303.5,299.5C 308.833,299.5 314.167,299.5 319.5,299.5C 319.5,300.833 319.5,302.167 319.5,303.5C 336.5,303.5 353.5,303.5 370.5,303.5 Z"/></g>
<g><path style="opacity:1" fill="#8896a7" d="M 369.5,305.5 C 368.649,307.882 367.316,309.882 365.5,311.5C 354.178,308.946 342.844,308.946 331.5,311.5C 318.167,308.833 304.833,308.833 291.5,311.5C 282.198,309.159 272.864,309.159 263.5,311.5C 254.136,309.159 244.802,309.159 235.5,311.5C 224.833,308.833 214.167,308.833 203.5,311.5C 190.167,308.833 176.833,308.833 163.5,311.5C 152.833,308.833 142.167,308.833 131.5,311.5C 123.5,308.833 115.5,308.833 107.5,311.5C 96.8333,308.833 86.1667,308.833 75.5,311.5C 61.8107,308.878 48.144,308.878 34.5,311.5C 33.0256,310.564 32.0256,309.23 31.5,307.5C 39.4504,306.503 47.4504,305.836 55.5,305.5C 62.2299,305.67 68.8966,306.337 75.5,307.5C 86.1667,304.833 96.8333,304.833 107.5,307.5C 115.5,304.833 123.5,304.833 131.5,307.5C 142.167,304.833 152.833,304.833 163.5,307.5C 176.833,304.833 190.167,304.833 203.5,307.5C 214.167,304.833 224.833,304.833 235.5,307.5C 244.802,305.159 254.136,305.159 263.5,307.5C 272.864,305.159 282.198,305.159 291.5,307.5C 304.833,304.833 318.167,304.833 331.5,307.5C 342.167,304.833 352.833,304.833 363.5,307.5C 365.667,307.13 367.667,306.463 369.5,305.5 Z"/></g>
<g><path style="opacity:1" fill="#899ba8" d="M 365.5,311.5 C 362.547,316.45 359.214,321.117 355.5,325.5C 252.833,325.5 150.167,325.5 47.5,325.5C 47.5,323.5 47.5,321.5 47.5,319.5C 45.1667,319.5 42.8333,319.5 40.5,319.5C 38.016,317.2 36.016,314.533 34.5,311.5C 48.144,308.878 61.8107,308.878 75.5,311.5C 86.1667,308.833 96.8333,308.833 107.5,311.5C 115.5,308.833 123.5,308.833 131.5,311.5C 142.167,308.833 152.833,308.833 163.5,311.5C 176.833,308.833 190.167,308.833 203.5,311.5C 214.167,308.833 224.833,308.833 235.5,311.5C 244.802,309.159 254.136,309.159 263.5,311.5C 272.864,309.159 282.198,309.159 291.5,311.5C 304.833,308.833 318.167,308.833 331.5,311.5C 342.844,308.946 354.178,308.946 365.5,311.5 Z"/></g>
<g><path style="opacity:1" fill="#8e9ca7" d="M 40.5,319.5 C 42.8333,319.5 45.1667,319.5 47.5,319.5C 47.5,321.5 47.5,323.5 47.5,325.5C 150.167,325.5 252.833,325.5 355.5,325.5C 342.272,342.403 326.606,356.403 308.5,367.5C 236.167,367.5 163.833,367.5 91.5,367.5C 71.2977,354.966 54.2977,338.966 40.5,319.5 Z"/></g>
<g><path style="opacity:1" fill="#969ca8" d="M 91.5,367.5 C 163.833,367.5 236.167,367.5 308.5,367.5C 299.238,374.066 289.238,379.399 278.5,383.5C 273.5,383.5 268.5,383.5 263.5,383.5C 263.5,380.833 263.5,378.167 263.5,375.5C 258.167,375.5 252.833,375.5 247.5,375.5C 247.5,378.167 247.5,380.833 247.5,383.5C 244.833,383.5 242.167,383.5 239.5,383.5C 239.5,380.833 239.5,378.167 239.5,375.5C 234.167,375.167 228.833,374.833 223.5,374.5C 223.5,377.5 223.5,380.5 223.5,383.5C 212.833,383.5 202.167,383.5 191.5,383.5C 191.5,380.833 191.5,378.167 191.5,375.5C 186.167,375.167 180.833,374.833 175.5,374.5C 175.5,377.5 175.5,380.5 175.5,383.5C 172.833,383.5 170.167,383.5 167.5,383.5C 167.5,380.5 167.5,377.5 167.5,374.5C 164.833,374.5 162.167,374.5 159.5,374.5C 159.5,377.5 159.5,380.5 159.5,383.5C 151.5,383.5 143.5,383.5 135.5,383.5C 135.5,380.833 135.5,378.167 135.5,375.5C 130.167,375.5 124.833,375.5 119.5,375.5C 119.5,377.833 119.5,380.167 119.5,382.5C 114.957,381.231 110.624,379.397 106.5,377C 101.097,374.308 96.0974,371.142 91.5,367.5 Z"/></g>
<g><path style="opacity:1" fill="#96a1a8" d="M 278.5,383.5 C 259.624,391.802 239.957,397.135 219.5,399.5C 206.5,399.5 193.5,399.5 180.5,399.5C 159.266,397.108 138.932,391.441 119.5,382.5C 119.5,380.167 119.5,377.833 119.5,375.5C 124.833,375.5 130.167,375.5 135.5,375.5C 135.5,378.167 135.5,380.833 135.5,383.5C 143.5,383.5 151.5,383.5 159.5,383.5C 159.5,380.5 159.5,377.5 159.5,374.5C 162.167,374.5 164.833,374.5 167.5,374.5C 167.5,377.5 167.5,380.5 167.5,383.5C 170.167,383.5 172.833,383.5 175.5,383.5C 175.5,380.5 175.5,377.5 175.5,374.5C 180.833,374.833 186.167,375.167 191.5,375.5C 191.5,378.167 191.5,380.833 191.5,383.5C 202.167,383.5 212.833,383.5 223.5,383.5C 223.5,380.5 223.5,377.5 223.5,374.5C 228.833,374.833 234.167,375.167 239.5,375.5C 239.5,378.167 239.5,380.833 239.5,383.5C 242.167,383.5 244.833,383.5 247.5,383.5C 247.5,380.833 247.5,378.167 247.5,375.5C 252.833,375.5 258.167,375.5 263.5,375.5C 263.5,378.167 263.5,380.833 263.5,383.5C 268.5,383.5 273.5,383.5 278.5,383.5 Z"/></g>
</svg>
