<svg xmlns="http://www.w3.org/2000/svg" width="256" height="256" viewBox="0 0 24 24" fill="#000000"><path fill="#000000" fill-rule="evenodd" d="M12 18.857a6.857 6.857 0 1 0 0-13.714a6.857 6.857 0 0 0 0 13.714m0 .429a7.285 7.285 0 1 0 0-14.57a7.285 7.285 0 0 0 0 14.57" clip-rule="evenodd"/><path fill="#000000" d="m11.087 12.146l.515 2.828a3.4 3.4 0 0 1-1.93-.887c-.342-.313-.848-.441-1.242-.201c-.42.248-.548.801-.223 1.157a5.13 5.13 0 0 0 3.707 1.671l.103.579a.858.858 0 0 0 1.689-.3l-.095-.536a5.14 5.14 0 0 0 3.48-5.635c-.11-.78-.908-1.196-1.688-1.072c-2.242.36-4.483.686-6.733 1.029a3.43 3.43 0 0 1 5.109-2.143c.33.201.741.257 1.075.073c.515-.279.635-.965.159-1.307a5.142 5.142 0 0 0-8.156 4.17c0 .685.664 1.13 1.346 1.028c.956-.15 1.894-.304 2.884-.454m1.697-.257l2.645-.395v.078a3.43 3.43 0 0 1-2.13 3.17l-.515-2.85z"/></svg>