<?xml version="1.0" encoding="UTF-8"?>
<!DOCTYPE svg PUBLIC "-//W3C//DTD SVG 1.1//EN" "http://www.w3.org/Graphics/SVG/1.1/DTD/svg11.dtd">
<svg xmlns="http://www.w3.org/2000/svg" version="1.1" width="200px" height="200px" style="shape-rendering:geometricPrecision; text-rendering:geometricPrecision; image-rendering:optimizeQuality; fill-rule:evenodd; clip-rule:evenodd" xmlns:xlink="http://www.w3.org/1999/xlink">
<g><path style="opacity:1" fill="#dcf2ed" d="M 88.5,-0.5 C 95.8333,-0.5 103.167,-0.5 110.5,-0.5C 124.49,1.66385 137.824,6.16385 150.5,13C 153.42,14.9461 156.087,17.1128 158.5,19.5C 156.609,18.4639 154.776,18.4639 153,19.5C 151.988,17.1358 150.655,15.8024 149,15.5C 147.667,18.1667 146.333,18.1667 145,15.5C 144,18.1667 143,18.1667 142,15.5C 141.692,16.3081 141.192,16.9747 140.5,17.5C 139.719,16.2634 138.719,15.2634 137.5,14.5C 134.812,15.1312 132.312,15.1312 130,14.5C 128.686,13.6872 127.519,12.6872 126.5,11.5C 126.167,12.1667 125.833,12.8333 125.5,13.5C 124.808,12.9747 124.308,12.3081 124,11.5C 121.667,11.5 119.333,11.5 117,11.5C 116.692,10.6919 116.192,10.0253 115.5,9.5C 112.916,9.63215 110.416,9.96549 108,10.5C 106.615,9.44946 105.615,8.11613 105,6.5C 102.565,9.22768 100.565,8.89435 99,5.5C 97.6667,8.16667 96.3333,8.16667 95,5.5C 94.6667,6.16667 94.3333,6.83333 94,7.5C 93.0192,4.31133 91.6859,3.97799 90,6.5C 87.6667,5.16667 85.3333,3.83333 83,2.5C 81.7318,2.61581 80.3985,2.94915 79,3.5C 78.5357,2.90558 78.369,2.23891 78.5,1.5C 82.0109,1.10057 85.3443,0.433899 88.5,-0.5 Z"/></g>
<g><path style="opacity:1" fill="#d5eae5" d="M 78.5,1.5 C 78.369,2.23891 78.5357,2.90558 79,3.5C 80.3985,2.94915 81.7318,2.61581 83,2.5C 85.3333,3.83333 87.6667,5.16667 90,6.5C 91.6859,3.97799 93.0192,4.31133 94,7.5C 94.3333,6.83333 94.6667,6.16667 95,5.5C 96.3333,8.16667 97.6667,8.16667 99,5.5C 100.565,8.89435 102.565,9.22768 105,6.5C 105.615,8.11613 106.615,9.44946 108,10.5C 110.416,9.96549 112.916,9.63215 115.5,9.5C 116.192,10.0253 116.692,10.6919 117,11.5C 119.333,11.5 121.667,11.5 124,11.5C 124.308,12.3081 124.808,12.9747 125.5,13.5C 125.833,12.8333 126.167,12.1667 126.5,11.5C 127.519,12.6872 128.686,13.6872 130,14.5C 132.312,15.1312 134.812,15.1312 137.5,14.5C 138.719,15.2634 139.719,16.2634 140.5,17.5C 141.192,16.9747 141.692,16.3081 142,15.5C 143,18.1667 144,18.1667 145,15.5C 146.333,18.1667 147.667,18.1667 149,15.5C 150.655,15.8024 151.988,17.1358 153,19.5C 154.776,18.4639 156.609,18.4639 158.5,19.5C 173.129,29.8 184.129,43.1334 191.5,59.5C 189.976,58.8262 188.642,57.8262 187.5,56.5C 186.808,57.0253 186.308,57.6919 186,58.5C 185.311,57.6433 184.478,56.9767 183.5,56.5C 180.653,57.731 177.82,57.731 175,56.5C 173.494,53.526 171.828,53.1927 170,55.5C 168.155,53.6499 166.155,53.3166 164,54.5C 163.213,53.2893 162.546,52.2893 162,51.5C 160.236,54.1376 158.902,53.8042 158,50.5C 157.667,51.1667 157.333,51.8333 157,52.5C 152.041,50.8259 147.208,49.1592 142.5,47.5C 141.558,47.6082 140.725,47.9415 140,48.5C 138.631,46.3035 136.798,45.9702 134.5,47.5C 133.353,47.1822 132.519,46.5156 132,45.5C 131.667,46.1667 131.333,46.8333 131,47.5C 129.956,46.3774 129.29,45.0441 129,43.5C 127.061,47.3066 125.227,47.3066 123.5,43.5C 122.808,44.0253 122.308,44.6919 122,45.5C 121.581,44.3279 120.915,43.3279 120,42.5C 118.867,44.2112 117.367,44.7112 115.5,44C 116.28,42.927 116.113,41.7604 115,40.5C 114.333,41.8333 113.667,41.8333 113,40.5C 112.333,43.1667 111.667,43.1667 111,40.5C 108,40.8333 105,41.1667 102,41.5C 99.9045,40.2845 100.071,39.4512 102.5,39C 100.633,38.2888 99.1332,38.7888 98,40.5C 97.2828,39.9558 96.7828,39.2891 96.5,38.5C 106.503,37.1482 116.503,37.4816 126.5,39.5C 126.666,35.1539 126.499,30.8206 126,26.5C 92.5963,15.9131 63.763,23.2465 39.5,48.5C 39.5386,47.2438 39.0386,46.2438 38,45.5C 35.916,48.033 33.916,48.033 32,45.5C 30.2835,46.5523 29.2835,45.8856 29,43.5C 28.6667,44.1667 28.3333,44.8333 28,45.5C 26.6107,41.7279 25.6107,41.7279 25,45.5C 23.1797,43.1322 21.013,41.7989 18.5,41.5C 33.3747,20.6499 53.3747,7.31653 78.5,1.5 Z"/></g>
<g><path style="opacity:1" fill="#001919" d="M 96.5,38.5 C 76.6876,40.7126 63.3542,51.0459 56.5,69.5C 53.3889,80.6619 56.0556,90.1619 64.5,98C 71.6625,102.145 78.9958,102.479 86.5,99C 96.5544,93.9788 106.221,88.4788 115.5,82.5C 131.403,73.6315 147.237,64.6315 163,55.5C 167.57,60.2875 170.904,65.9542 173,72.5C 175.795,80.6064 177.295,88.9397 177.5,97.5C 177.767,112.099 174.433,125.766 167.5,138.5C 159.253,152.244 147.919,162.744 133.5,170C 127.981,172.34 122.314,174.173 116.5,175.5C 101.56,178.819 86.8932,177.819 72.5,172.5C 71.5713,171.311 71.238,169.978 71.5,168.5C 71.335,165.15 71.5017,161.817 72,158.5C 83.426,161.948 94.926,162.281 106.5,159.5C 122.389,156.579 133.722,147.913 140.5,133.5C 144.31,125.375 144.477,117.042 141,108.5C 133.581,97.585 123.747,94.7516 111.5,100C 99.9441,106.273 88.6108,112.773 77.5,119.5C 64.1667,127.167 50.8333,134.833 37.5,142.5C 36.1667,143.833 34.8333,143.833 33.5,142.5C 27.8954,132.014 23.8954,121.014 21.5,109.5C 19.6143,86.6855 25.6143,66.3522 39.5,48.5C 63.763,23.2465 92.5963,15.9131 126,26.5C 126.499,30.8206 126.666,35.1539 126.5,39.5C 116.503,37.4816 106.503,37.1482 96.5,38.5 Z"/></g>
<g><path style="opacity:1" fill="#cbe3de" d="M 96.5,38.5 C 96.7828,39.2891 97.2828,39.9558 98,40.5C 99.1332,38.7888 100.633,38.2888 102.5,39C 100.071,39.4512 99.9045,40.2845 102,41.5C 105,41.1667 108,40.8333 111,40.5C 111.667,43.1667 112.333,43.1667 113,40.5C 113.667,41.8333 114.333,41.8333 115,40.5C 116.113,41.7604 116.28,42.927 115.5,44C 117.367,44.7112 118.867,44.2112 120,42.5C 120.915,43.3279 121.581,44.3279 122,45.5C 122.308,44.6919 122.808,44.0253 123.5,43.5C 125.227,47.3066 127.061,47.3066 129,43.5C 129.29,45.0441 129.956,46.3774 131,47.5C 131.333,46.8333 131.667,46.1667 132,45.5C 132.519,46.5156 133.353,47.1822 134.5,47.5C 136.798,45.9702 138.631,46.3035 140,48.5C 140.725,47.9415 141.558,47.6082 142.5,47.5C 147.208,49.1592 152.041,50.8259 157,52.5C 157.333,51.8333 157.667,51.1667 158,50.5C 158.902,53.8042 160.236,54.1376 162,51.5C 162.546,52.2893 163.213,53.2893 164,54.5C 166.155,53.3166 168.155,53.6499 170,55.5C 171.828,53.1927 173.494,53.526 175,56.5C 177.82,57.731 180.653,57.731 183.5,56.5C 184.478,56.9767 185.311,57.6433 186,58.5C 186.308,57.6919 186.808,57.0253 187.5,56.5C 188.642,57.8262 189.976,58.8262 191.5,59.5C 194.969,69.055 197.636,78.7217 199.5,88.5C 199.5,92.5 199.5,96.5 199.5,100.5C 198.476,99.862 197.476,99.1953 196.5,98.5C 195.558,98.6082 194.725,98.9415 194,99.5C 193.692,98.6919 193.192,98.0253 192.5,97.5C 187.313,98.1082 182.313,98.1082 177.5,97.5C 177.295,88.9397 175.795,80.6064 173,72.5C 170.904,65.9542 167.57,60.2875 163,55.5C 147.237,64.6315 131.403,73.6315 115.5,82.5C 114.778,82.0825 114.278,81.4158 114,80.5C 112.463,80.9126 110.796,80.9126 109,80.5C 108.619,81.4818 107.786,82.1485 106.5,82.5C 103.532,81.44 101.032,79.7733 99,77.5C 94.8434,76.7974 90.5101,76.7974 86,77.5C 85.3333,76.1667 84.6667,74.8333 84,73.5C 82.2118,74.3578 80.3785,75.3578 78.5,76.5C 77.2092,74.9029 75.7092,73.5696 74,72.5C 72.7387,72.7591 71.7387,73.4258 71,74.5C 70.0853,73.6721 69.4186,72.6721 69,71.5C 68.586,71.9574 68.086,72.2907 67.5,72.5C 65.4363,70.0221 63.4363,70.0221 61.5,72.5C 60.5791,70.244 58.9124,69.244 56.5,69.5C 63.3542,51.0459 76.6876,40.7126 96.5,38.5 Z"/></g>
<g><path style="opacity:1" fill="#bfd9d3" d="M 18.5,41.5 C 21.013,41.7989 23.1797,43.1322 25,45.5C 25.6107,41.7279 26.6107,41.7279 28,45.5C 28.3333,44.8333 28.6667,44.1667 29,43.5C 29.2835,45.8856 30.2835,46.5523 32,45.5C 33.916,48.033 35.916,48.033 38,45.5C 39.0386,46.2438 39.5386,47.2438 39.5,48.5C 25.6143,66.3522 19.6143,86.6855 21.5,109.5C 19.9557,109.297 18.6223,108.63 17.5,107.5C 16.1575,108.902 15.3242,108.569 15,106.5C 14.5774,107.956 13.7441,108.456 12.5,108C 13.6341,106.984 13.3008,106.317 11.5,106C 13.5951,105.444 13.7618,104.944 12,104.5C 9.10404,107.084 6.43737,106.751 4,103.5C 3.69238,104.308 3.19238,104.975 2.5,105.5C 1.73485,104.388 0.734849,103.721 -0.5,103.5C -0.5,98.5 -0.5,93.5 -0.5,88.5C 1.66385,74.5098 6.16385,61.1764 13,48.5C 14.6971,45.98 16.5305,43.6467 18.5,41.5 Z"/></g>
<g><path style="opacity:1" fill="#bfd9d4" d="M 56.5,69.5 C 58.9124,69.244 60.5791,70.244 61.5,72.5C 63.4363,70.0221 65.4363,70.0221 67.5,72.5C 68.086,72.2907 68.586,71.9574 69,71.5C 69.4186,72.6721 70.0853,73.6721 71,74.5C 71.7387,73.4258 72.7387,72.7591 74,72.5C 75.7092,73.5696 77.2092,74.9029 78.5,76.5C 80.3785,75.3578 82.2118,74.3578 84,73.5C 84.6667,74.8333 85.3333,76.1667 86,77.5C 90.5101,76.7974 94.8434,76.7974 99,77.5C 101.032,79.7733 103.532,81.44 106.5,82.5C 107.786,82.1485 108.619,81.4818 109,80.5C 110.796,80.9126 112.463,80.9126 114,80.5C 114.278,81.4158 114.778,82.0825 115.5,82.5C 106.221,88.4788 96.5544,93.9788 86.5,99C 78.9958,102.479 71.6625,102.145 64.5,98C 56.0556,90.1619 53.3889,80.6619 56.5,69.5 Z"/></g>
<g><path style="opacity:1" fill="#b9d4ce" d="M 140.5,133.5 C 139.849,132.909 139.182,132.243 138.5,131.5C 135.971,132.599 133.471,133.599 131,134.5C 130.342,132.892 130.842,131.725 132.5,131C 130.888,130.28 129.388,130.446 128,131.5C 126.921,129.606 125.587,129.273 124,130.5C 123.667,129.833 123.333,129.167 123,128.5C 120.118,129.397 117.118,129.397 114,128.5C 111.388,125.424 108.221,124.757 104.5,126.5C 101.855,126.158 99.3552,124.825 97,122.5C 96.3333,123.833 95.6667,125.167 95,126.5C 93.3117,125.675 93.1451,124.675 94.5,123.5C 92.9019,121.027 91.4019,121.027 90,123.5C 89.2588,122.359 88.4255,122.359 87.5,123.5C 86.354,122.855 85.354,122.022 84.5,121C 83.2161,120.316 82.0495,120.483 81,121.5C 79.6976,120.915 78.531,120.249 77.5,119.5C 88.6108,112.773 99.9441,106.273 111.5,100C 123.747,94.7516 133.581,97.585 141,108.5C 144.477,117.042 144.31,125.375 140.5,133.5 Z"/></g>
<g><path style="opacity:1" fill="#afcbc6" d="M -0.5,103.5 C 0.734849,103.721 1.73485,104.388 2.5,105.5C 3.19238,104.975 3.69238,104.308 4,103.5C 6.43737,106.751 9.10404,107.084 12,104.5C 13.7618,104.944 13.5951,105.444 11.5,106C 13.3008,106.317 13.6341,106.984 12.5,108C 13.7441,108.456 14.5774,107.956 15,106.5C 15.3242,108.569 16.1575,108.902 17.5,107.5C 18.6223,108.63 19.9557,109.297 21.5,109.5C 23.8954,121.014 27.8954,132.014 33.5,142.5C 30.8865,142.553 28.2198,142.553 25.5,142.5C 24.1694,138.978 22.3361,138.645 20,141.5C 19.6411,138.456 18.9745,138.122 18,140.5C 16.6667,139.833 15.6667,138.833 15,137.5C 14.6667,138.167 14.3333,138.833 14,139.5C 12.0222,139.238 9.85555,138.572 7.5,137.5C 5.87143,135.142 4.70477,132.476 4,129.5C 2.30755,123.071 0.807552,116.737 -0.5,110.5C -0.5,108.167 -0.5,105.833 -0.5,103.5 Z"/></g>
<g><path style="opacity:1" fill="#bbd5d0" d="M 177.5,97.5 C 182.313,98.1082 187.313,98.1082 192.5,97.5C 193.192,98.0253 193.692,98.6919 194,99.5C 194.725,98.9415 195.558,98.6082 196.5,98.5C 197.476,99.1953 198.476,99.862 199.5,100.5C 199.5,103.833 199.5,107.167 199.5,110.5C 197.579,121.832 194.246,132.832 189.5,143.5C 188.279,142.972 187.113,142.305 186,141.5C 182.855,142.071 179.855,142.071 177,141.5C 176.333,138.833 175.667,138.833 175,141.5C 173.451,138.997 171.784,138.997 170,141.5C 169.764,139.881 168.931,138.881 167.5,138.5C 174.433,125.766 177.767,112.099 177.5,97.5 Z"/></g>
<g><path style="opacity:1" fill="#b0ccc6" d="M 77.5,119.5 C 78.531,120.249 79.6976,120.915 81,121.5C 82.0495,120.483 83.2161,120.316 84.5,121C 85.354,122.022 86.354,122.855 87.5,123.5C 88.4255,122.359 89.2588,122.359 90,123.5C 91.4019,121.027 92.9019,121.027 94.5,123.5C 93.1451,124.675 93.3117,125.675 95,126.5C 95.6667,125.167 96.3333,123.833 97,122.5C 99.3552,124.825 101.855,126.158 104.5,126.5C 108.221,124.757 111.388,125.424 114,128.5C 117.118,129.397 120.118,129.397 123,128.5C 123.333,129.167 123.667,129.833 124,130.5C 125.587,129.273 126.921,129.606 128,131.5C 129.388,130.446 130.888,130.28 132.5,131C 130.842,131.725 130.342,132.892 131,134.5C 133.471,133.599 135.971,132.599 138.5,131.5C 139.182,132.243 139.849,132.909 140.5,133.5C 133.722,147.913 122.389,156.579 106.5,159.5C 106.013,158.527 105.513,157.527 105,156.5C 102.957,158.967 100.79,158.967 98.5,156.5C 96.8437,158.022 95.677,157.689 95,155.5C 94.6667,156.167 94.3333,156.833 94,157.5C 92.6538,154.751 91.3204,154.417 90,156.5C 87.6667,155.167 85.3333,153.833 83,152.5C 81.7318,152.616 80.3985,152.949 79,153.5C 78.5112,151.396 77.3445,151.062 75.5,152.5C 74.3527,152.182 73.5194,151.516 73,150.5C 72.6667,151.5 72.3333,152.5 72,153.5C 69.0139,152.288 67.0139,150.621 66,148.5C 64.8869,149.711 63.7202,149.711 62.5,148.5C 60.9019,150.973 59.4019,150.973 58,148.5C 57.6667,148.833 57.3333,149.167 57,149.5C 54.3959,147.86 51.5626,146.527 48.5,145.5C 47.914,145.709 47.414,146.043 47,146.5C 44.6877,146.045 42.6877,145.045 41,143.5C 39.687,144.287 38.5203,143.954 37.5,142.5C 50.8333,134.833 64.1667,127.167 77.5,119.5 Z"/></g>
<g><path style="opacity:1" fill="#a7c7c0" d="M 7.5,137.5 C 9.85555,138.572 12.0222,139.238 14,139.5C 14.3333,138.833 14.6667,138.167 15,137.5C 15.6667,138.833 16.6667,139.833 18,140.5C 18.9745,138.122 19.6411,138.456 20,141.5C 22.3361,138.645 24.1694,138.978 25.5,142.5C 28.2198,142.553 30.8865,142.553 33.5,142.5C 34.8333,143.833 36.1667,143.833 37.5,142.5C 38.5203,143.954 39.687,144.287 41,143.5C 42.6877,145.045 44.6877,146.045 47,146.5C 47.414,146.043 47.914,145.709 48.5,145.5C 51.5626,146.527 54.3959,147.86 57,149.5C 57.3333,149.167 57.6667,148.833 58,148.5C 59.4019,150.973 60.9019,150.973 62.5,148.5C 63.7202,149.711 64.8869,149.711 66,148.5C 67.0139,150.621 69.0139,152.288 72,153.5C 72.3333,152.5 72.6667,151.5 73,150.5C 73.5194,151.516 74.3527,152.182 75.5,152.5C 77.3445,151.062 78.5112,151.396 79,153.5C 80.3985,152.949 81.7318,152.616 83,152.5C 85.3333,153.833 87.6667,155.167 90,156.5C 91.3204,154.417 92.6538,154.751 94,157.5C 94.3333,156.833 94.6667,156.167 95,155.5C 95.677,157.689 96.8437,158.022 98.5,156.5C 100.79,158.967 102.957,158.967 105,156.5C 105.513,157.527 106.013,158.527 106.5,159.5C 94.926,162.281 83.426,161.948 72,158.5C 71.5017,161.817 71.335,165.15 71.5,168.5C 69.0415,165.552 66.3748,165.219 63.5,167.5C 62.4937,167.062 62.4937,166.396 63.5,165.5C 62.5617,164.447 61.395,163.78 60,163.5C 57.742,164.253 55.742,164.253 54,163.5C 53.6667,164.167 53.3333,164.833 53,165.5C 51.5372,163.43 49.5372,162.097 47,161.5C 44.2199,161.424 41.3866,161.424 38.5,161.5C 37.8076,160.975 37.3076,160.308 37,159.5C 34.4028,159.544 31.9028,159.877 29.5,160.5C 28.5709,157.999 27.0709,157.333 25,158.5C 23.3468,158.18 22.3468,157.18 22,155.5C 21.6667,155.833 21.3333,156.167 21,156.5C 19.6703,155.418 18.1703,154.751 16.5,154.5C 12.2103,149.591 9.21032,143.924 7.5,137.5 Z"/></g>
<g><path style="opacity:1" fill="#adcac4" d="M 167.5,138.5 C 168.931,138.881 169.764,139.881 170,141.5C 171.784,138.997 173.451,138.997 175,141.5C 175.667,138.833 176.333,138.833 177,141.5C 179.855,142.071 182.855,142.071 186,141.5C 187.113,142.305 188.279,142.972 189.5,143.5C 180.276,162.057 166.61,176.391 148.5,186.5C 147.112,185.453 146.279,184.12 146,182.5C 144.354,184.141 143.354,183.807 143,181.5C 141.413,182.727 140.079,182.394 139,180.5C 138.333,181.167 137.667,181.833 137,182.5C 136,181.5 135,180.5 134,179.5C 132.68,181.583 131.346,181.249 130,178.5C 128.026,178.647 126.026,178.981 124,179.5C 121.912,178.692 119.912,177.692 118,176.5C 117.692,177.308 117.192,177.975 116.5,178.5C 115.913,177.767 115.913,176.767 116.5,175.5C 122.314,174.173 127.981,172.34 133.5,170C 147.919,162.744 159.253,152.244 167.5,138.5 Z"/></g>
<g><path style="opacity:1" fill="#a1c0b9" d="M 16.5,154.5 C 18.1703,154.751 19.6703,155.418 21,156.5C 21.3333,156.167 21.6667,155.833 22,155.5C 22.3468,157.18 23.3468,158.18 25,158.5C 27.0709,157.333 28.5709,157.999 29.5,160.5C 31.9028,159.877 34.4028,159.544 37,159.5C 37.3076,160.308 37.8076,160.975 38.5,161.5C 41.3866,161.424 44.2199,161.424 47,161.5C 49.5372,162.097 51.5372,163.43 53,165.5C 53.3333,164.833 53.6667,164.167 54,163.5C 55.742,164.253 57.742,164.253 60,163.5C 61.395,163.78 62.5617,164.447 63.5,165.5C 62.4937,166.396 62.4937,167.062 63.5,167.5C 66.3748,165.219 69.0415,165.552 71.5,168.5C 71.238,169.978 71.5713,171.311 72.5,172.5C 86.8932,177.819 101.56,178.819 116.5,175.5C 115.913,176.767 115.913,177.767 116.5,178.5C 117.192,177.975 117.692,177.308 118,176.5C 119.912,177.692 121.912,178.692 124,179.5C 126.026,178.981 128.026,178.647 130,178.5C 131.346,181.249 132.68,181.583 134,179.5C 135,180.5 136,181.5 137,182.5C 137.667,181.833 138.333,181.167 139,180.5C 140.079,182.394 141.413,182.727 143,181.5C 143.354,183.807 144.354,184.141 146,182.5C 146.279,184.12 147.112,185.453 148.5,186.5C 136.594,193.246 123.927,197.579 110.5,199.5C 103.167,199.5 95.8333,199.5 88.5,199.5C 62.3872,195.86 40.5538,184.193 23,164.5C 20.5633,161.28 18.3967,157.947 16.5,154.5 Z"/></g>
</svg>
