<svg width="80" height="80" viewBox="0 0 80 80" fill="none" xmlns="http://www.w3.org/2000/svg">
<g clip-path="url(#clip0_3378_1535)">
<mask id="mask0_3378_1535" style="mask-type:luminance" maskUnits="userSpaceOnUse" x="0" y="0" width="80" height="80">
<path d="M80 40C80 17.9086 62.0914 0 40 0C17.9086 0 0 17.9086 0 40C0 62.0914 17.9086 80 40 80C62.0914 80 80 62.0914 80 40Z" fill="white"/>
</mask>
<g mask="url(#mask0_3378_1535)">
<g opacity="0.7" filter="url(#filter0_f_3378_1535)">
<path opacity="0.6" d="M53.6446 35.8682L54.0336 36.4652C58.4236 43.2002 57.4436 52.0202 51.6766 57.6712C48.2836 60.9952 43.8366 62.6582 39.3906 62.6582L53.6446 35.8682Z" fill="#00A3FF"/>
<path opacity="0.2" d="M39.3906 44.0102L53.6446 35.8682L39.3906 62.6582V44.0102Z" fill="#00A3FF"/>
<path d="M25.1225 35.8682L24.7325 36.4652C20.3425 43.2002 21.3235 52.0202 27.0905 57.6712C30.4835 60.9952 34.9305 62.6582 39.3765 62.6582L25.1225 35.8682Z" fill="#00A3FF"/>
<path opacity="0.6" d="M39.3712 44.0102L25.1172 35.8682L39.3712 62.6582V44.0102Z" fill="#00A3FF"/>
<path opacity="0.2" d="M39.3945 25.8213V39.8643L51.6735 32.8473L39.3945 25.8213Z" fill="#00A3FF"/>
<path opacity="0.6" d="M39.3935 25.8213L27.1055 32.8473L39.3935 39.8643V25.8213Z" fill="#00A3FF"/>
<path d="M39.3935 14.0108L27.1055 32.8508L39.3935 25.8058V14.0108Z" fill="#00A3FF"/>
<path opacity="0.6" d="M39.3945 25.804L51.6825 32.85L39.3945 14V25.804Z" fill="#00A3FF"/>
</g>
<path opacity="0.6" d="M54.7678 35.4707L55.1708 36.0847C59.7168 43.0047 58.7008 52.0687 52.7308 57.8747C49.2158 61.2907 44.6118 62.9997 40.0078 62.9997L54.7678 35.4707Z" fill="#00A3FF"/>
<path opacity="0.2" d="M40.0078 43.8377L54.7678 35.4707L40.0078 62.9997V43.8377Z" fill="#00A3FF"/>
<path d="M25.2326 35.4707L24.8296 36.0847C20.2836 43.0047 21.2996 52.0687 27.2696 57.8747C30.7846 61.2907 35.3886 62.9997 39.9926 62.9997L25.2316 35.4697L25.2326 35.4707Z" fill="#00A3FF"/>
<path opacity="0.6" d="M39.9866 43.8377L25.2266 35.4707L39.9876 62.9997L39.9866 43.8377Z" fill="#00A3FF"/>
<path opacity="0.2" d="M40.0117 25.1475V39.5775L52.7247 32.3675L40.0117 25.1475Z" fill="#00A3FF"/>
<path opacity="0.6" d="M40.0082 25.1475L27.2852 32.3675L40.0082 39.5775V25.1475Z" fill="#00A3FF"/>
<path d="M40.0082 13.0107L27.2852 32.3707L40.0082 25.1307V13.0107Z" fill="#00A3FF"/>
<path opacity="0.6" d="M40.0117 25.13L52.7347 32.37L40.0117 13V25.13Z" fill="#00A3FF"/>
</g>
</g>
<defs>
<filter id="filter0_f_3378_1535" x="4" y="-4" width="70.7656" height="84.6582" filterUnits="userSpaceOnUse" color-interpolation-filters="sRGB">
<feFlood flood-opacity="0" result="BackgroundImageFix"/>
<feBlend mode="normal" in="SourceGraphic" in2="BackgroundImageFix" result="shape"/>
<feGaussianBlur stdDeviation="9" result="effect1_foregroundBlur_3378_1535"/>
</filter>
<clipPath id="clip0_3378_1535">
<rect width="80" height="80" fill="white"/>
</clipPath>
</defs>
</svg>
