<svg width="93" height="93" viewBox="0 0 93 93" fill="none" xmlns="http://www.w3.org/2000/svg">
<path d="M46.3646 0.847386H46.3663C71.5107 0.847386 91.8943 21.2309 91.8943 46.3753V46.3771C91.8943 71.5215 71.5107 91.905 46.3663 91.905H46.3646C21.2202 91.905 0.836644 71.5215 0.836644 46.3771V46.3753C0.836644 21.2309 21.2202 0.847386 46.3646 0.847386Z" fill="white" stroke="black" stroke-width="1.67719"/>
<path fill-rule="evenodd" clip-rule="evenodd" d="M38.9272 8.22266C21.0293 11.6701 7.50977 27.4165 7.50977 46.3206C7.50977 65.2246 21.0293 80.971 38.9272 84.4185V80.7821C23.0107 77.3893 11.073 63.249 11.073 46.3206C11.073 29.3921 23.0107 15.2518 38.9272 11.859V8.22266ZM53.7575 11.8732V8.23553C71.6223 11.7091 85.1083 27.4399 85.1083 46.3206C85.1083 65.2012 71.6223 80.932 53.7575 84.4056V80.7679C69.6406 77.3499 81.5451 63.2254 81.5451 46.3206C81.5451 29.4157 69.6406 15.2913 53.7575 11.8732Z" fill="black"/>
<path d="M51.8368 45.0239C54.7972 45.5881 57.0934 46.6762 58.7254 48.2882C60.3574 49.8599 61.1734 51.8748 61.1734 54.3331V58.2019C61.1734 61.1438 60.1107 63.5215 57.9853 65.335C55.8599 67.1082 53.0703 67.9948 49.6165 67.9948H48.421V74.1607H44.322V67.9948H43.0695C40.7923 67.9948 38.7808 67.491 37.0349 66.4835C35.2891 65.4357 33.9227 63.985 32.936 62.1312C31.9871 60.2371 31.5127 58.0609 31.5127 55.6026H35.6117C35.6117 58.1012 36.2948 60.1363 37.6612 61.708C39.0654 63.2394 40.9062 64.0051 43.1834 64.0051H49.5027C51.7419 64.0051 53.5447 63.4812 54.911 62.4334C56.2774 61.3453 56.9605 59.9348 56.9605 58.2019V54.3331C56.9605 52.9629 56.4482 51.7942 55.4234 50.8271C54.4366 49.8599 53.0703 49.2352 51.3244 48.9531L41.077 47.1396C38.1925 46.6157 35.9533 45.5276 34.3592 43.8753C32.7652 42.223 31.9681 40.1476 31.9681 37.649V34.3847C31.9681 31.4428 32.9929 29.1054 35.0424 27.3725C37.1298 25.5994 39.8814 24.7128 43.2973 24.7128H44.322V18.5469H48.421V24.7128H49.7304C52.9564 24.7128 55.5563 25.7606 57.5298 27.8561C59.5034 29.9114 60.4902 32.6317 60.4902 36.0169H56.3912C56.3912 33.8004 55.784 32.0272 54.5695 30.6973C53.355 29.3674 51.7419 28.7024 49.7304 28.7024H43.2973C41.1339 28.7024 39.407 29.2263 38.1166 30.2741C36.8262 31.2816 36.181 32.6518 36.181 34.3847V37.649C36.181 39.0595 36.6554 40.2483 37.6042 41.2155C38.591 42.1827 39.9384 42.8275 41.6463 43.1499L51.8368 45.0239Z" fill="black"/>
</svg>
