<svg width="24" height="24" viewBox="0 0 24 24" fill="none" xmlns="http://www.w3.org/2000/svg">
<g clip-path="url(#clip0_2017_2534)">
<mask id="mask0_2017_2534" style="mask-type:luminance" maskUnits="userSpaceOnUse" x="0" y="0" width="24" height="24">
<path d="M24 0H0V24H24V0Z" fill="white"/>
</mask>
<g mask="url(#mask0_2017_2534)">
<path d="M4.99999 2.29999L23.6 15L19 21.8L0.399994 8.99999L4.99999 2.29999Z" fill="url(#paint0_linear_2017_2534)"/>
<path d="M23.6 15C22 17.3 16.6 16.4 11.5 12.8C6.30002 9.29998 3.50002 4.59998 5.00002 2.29998C6.60002 -2.47955e-05 12 0.899975 17.1 4.49998C22.3 7.89998 25.1 12.7 23.6 15Z" fill="url(#paint1_linear_2017_2534)"/>
<path d="M19 21.7C17.4 24 12 23.1 6.90001 19.5C1.80001 15.9 -1.09999 11.3 0.500008 8.89995C2.10001 6.59995 7.50001 7.49995 12.6 11.1C17.7 14.7 20.5 19.4 19 21.7Z" fill="url(#paint2_linear_2017_2534)"/>
<path d="M23.6 15L19 21.8C17.4 24.1 12 23.1 6.90001 19.6C5.90001 18.9 5.00001 18.2 4.10001 17.4C4.80001 17.3 5.70001 16.9 6.60001 15.9C8.20001 14.2 9.00001 13.8 9.70001 13.9C10.4 13.9 11.2 14.6 12.5 16.3C13.8 18 15.6 18.5 16.7 17.6C16.8 17.5 16.9 17.5 17 17.4C17.9 16.7 18.2 16.4 19.9 13.2C20.3 12.4 21.7 11.1 23.6 11.7C24.1 13 24.1 14.1 23.6 15Z" fill="#0E0F23"/>
<path fill-rule="evenodd" clip-rule="evenodd" d="M22.9 14.6C21.5 16.6 16.6 15.6 11.9 12.3C7.1 8.99997 4.3 4.79997 5.7 2.79997C7.1 0.799968 12 1.79997 16.7 5.09997C21.4 8.39997 24.2 12.6 22.9 14.6ZM18.5 11.6C17.8 12.6 15.4 12.1 13 10.5C10.7 8.89997 9.3 6.79997 10 5.79997C10.7 4.79997 13.1 5.29997 15.5 6.89997C17.8 8.49997 19.2 10.6 18.5 11.6Z" fill="white"/>
<path d="M4.60001 4.59998C4.60001 4.49998 4.50001 4.39998 4.40001 4.49998C4.30001 4.59998 4.20001 4.59998 4.20001 4.69998C4.30001 4.99998 4.40001 5.19998 4.40001 5.39998C4.40001 5.49998 4.50001 5.59998 4.60001 5.49998C4.70001 5.49998 4.80001 5.39998 4.70001 5.29998C4.70001 5.09998 4.70001 4.89998 4.60001 4.59998Z" fill="white"/>
<path d="M5.10002 6.19995C5.10002 6.09995 5.00002 5.99995 4.90002 6.09995C4.80002 6.19995 4.80002 6.19995 4.80002 6.29995C5.90002 8.79995 8.20002 11.5 11.2 13.5C11.3 13.6 11.4 13.5 11.5 13.5C11.6 13.4 11.5 13.3 11.5 13.2C8.40002 11.2 6.20002 8.59995 5.10002 6.19995Z" fill="white"/>
<path d="M17.2 16C17.1 16 17 16 17 16.1C17 16.2 17 16.3 17.1 16.3C17.4 16.4 17.8 16.5 18.1 16.6C18.2 16.6 18.3 16.6 18.3 16.5C18.3 16.4 18.3 16.3 18.2 16.3C17.9 16.2 17.5 16.1 17.2 16Z" fill="white"/>
<path d="M19 16.4C18.9 16.4 18.8 16.5 18.8 16.6C18.8 16.7 18.9 16.8 19 16.8C19.8 16.9 20.7 17 21.4 16.9C21.5 16.9 21.6 16.8 21.6 16.7C21.6 16.6 21.5 16.5 21.4 16.5C20.6 16.6 19.8 16.5 19 16.4Z" fill="white"/>
</g>
</g>
<defs>
<linearGradient id="paint0_linear_2017_2534" x1="8.64419" y1="0.494288" x2="12.3328" y2="13.1605" gradientUnits="userSpaceOnUse">
<stop stop-color="#03B8FF"/>
<stop offset="1" stop-color="#FA52A0"/>
</linearGradient>
<linearGradient id="paint1_linear_2017_2534" x1="11.6818" y1="-0.390425" x2="15.3705" y2="12.2759" gradientUnits="userSpaceOnUse">
<stop stop-color="#03B8FF"/>
<stop offset="1" stop-color="#FA52A0"/>
</linearGradient>
<linearGradient id="paint2_linear_2017_2534" x1="5.61601" y1="1.37605" x2="9.30471" y2="14.0424" gradientUnits="userSpaceOnUse">
<stop stop-color="#03B8FF"/>
<stop offset="1" stop-color="#FA52A0"/>
</linearGradient>
<clipPath id="clip0_2017_2534">
<rect width="24" height="24" fill="white"/>
</clipPath>
</defs>
</svg>
