<svg width="518" height="518" viewBox="0 0 518 518" fill="none" xmlns="http://www.w3.org/2000/svg">
<g clip-path="url(#clip0_6683_13974)">
<path d="M259 518C402.53 518 518 402.53 518 259C518 115.47 402.53 0 259 0C115.47 0 0 115.47 0 259C0 402.53 115.47 518 259 518Z" fill="url(#paint0_linear_6683_13974)"/>
<path d="M259 518C402.53 518 518 402.53 518 259C518 115.47 402.53 0 259 0C115.47 0 0 115.47 0 259C0 402.53 115.47 518 259 518Z" fill="url(#paint1_linear_6683_13974)"/>
<path d="M330.225 300.007C330.225 262.237 307.562 249.287 262.237 243.893C229.862 239.575 223.387 230.943 223.387 215.832C223.387 200.722 234.18 191.013 255.762 191.013C275.187 191.013 285.98 197.488 291.375 213.675C292.455 216.913 295.693 219.07 298.93 219.07H316.195C320.512 219.07 323.75 215.832 323.75 211.518V210.438C319.432 186.695 300.007 168.35 275.188 166.193V140.293C275.188 135.975 271.95 132.737 266.555 131.657H250.368C246.05 131.657 242.812 134.895 241.732 140.293V165.113C209.357 169.43 188.855 191.012 188.855 217.993C188.855 253.605 210.437 267.632 255.762 273.03C285.98 278.425 295.693 284.9 295.693 302.168C295.693 319.435 280.582 331.305 260.08 331.305C232.02 331.305 222.307 319.432 219.07 303.245C217.993 298.93 214.755 296.77 211.518 296.77H193.17C188.855 296.77 185.618 300.007 185.618 304.325V305.405C189.932 332.382 207.2 351.807 242.812 357.205V383.105C242.812 387.42 246.05 390.657 251.445 391.738H267.632C271.95 391.738 275.187 388.5 276.268 383.105V357.205C308.643 351.807 330.225 329.145 330.225 300.007Z" fill="white"/>
<path d="M203.962 413.32C119.787 383.105 76.62 289.218 107.918 206.12C124.105 160.795 159.718 126.263 203.962 110.075C208.28 107.918 210.437 104.68 210.437 99.2825V84.175C210.437 79.8575 208.28 76.62 203.962 75.5425C202.882 75.5425 200.725 75.5425 199.645 76.62C97.125 108.995 41.0075 217.993 73.3825 320.513C92.8075 380.945 139.212 427.35 199.645 446.775C203.962 448.932 208.28 446.775 209.357 442.457C210.437 441.38 210.437 440.3 210.437 438.143V423.032C210.437 419.795 207.2 415.48 203.962 413.32ZM318.355 76.62C314.037 74.4625 309.72 76.62 308.643 80.9375C307.562 82.0175 307.563 83.095 307.563 85.255V100.363C307.563 104.68 310.8 108.995 314.038 111.155C398.213 141.37 441.38 235.257 410.082 318.355C393.895 363.68 358.282 398.213 314.038 414.4C309.72 416.557 307.563 419.795 307.563 425.193V440.3C307.563 444.618 309.72 447.855 314.038 448.932C315.118 448.932 317.275 448.932 318.355 447.855C420.875 415.48 476.993 306.482 444.618 203.963C425.193 142.45 377.707 96.045 318.355 76.62Z" fill="white"/>
</g>
<defs>
<linearGradient id="paint0_linear_6683_13974" x1="518" y1="10.0722" x2="-93.564" y2="236.901" gradientUnits="userSpaceOnUse">
<stop stop-color="#F87A31"/>
<stop offset="1" stop-color="#FE9D66"/>
</linearGradient>
<linearGradient id="paint1_linear_6683_13974" x1="317.052" y1="259" x2="-149.053" y2="42.9088" gradientUnits="userSpaceOnUse">
<stop stop-color="#FF8C73" stop-opacity="0"/>
<stop offset="1" stop-color="#FF8C73"/>
</linearGradient>
<clipPath id="clip0_6683_13974">
<rect width="518" height="518" fill="white"/>
</clipPath>
</defs>
</svg>
