<?xml version="1.0" encoding="UTF-8"?>
<!DOCTYPE svg PUBLIC "-//W3C//DTD SVG 1.1//EN" "http://www.w3.org/Graphics/SVG/1.1/DTD/svg11.dtd">
<svg xmlns="http://www.w3.org/2000/svg" version="1.1" width="200px" height="200px" style="shape-rendering:geometricPrecision; text-rendering:geometricPrecision; image-rendering:optimizeQuality; fill-rule:evenodd; clip-rule:evenodd" xmlns:xlink="http://www.w3.org/1999/xlink">
<g><path style="opacity:1" fill="#f87543" d="M 79.5,-0.5 C 79.8333,-0.5 80.1667,-0.5 80.5,-0.5C 81.8333,0.833333 83.1667,0.833333 84.5,-0.5C 94.1667,-0.5 103.833,-0.5 113.5,-0.5C 114.833,0.833333 116.167,0.833333 117.5,-0.5C 118.167,-0.5 118.833,-0.5 119.5,-0.5C 120.183,1.17649 121.517,1.84316 123.5,1.5C 124.953,1.92932 126.619,2.09599 128.5,2C 127.304,2.65431 127.304,3.15431 128.5,3.5C 129.167,3.16667 129.833,2.83333 130.5,2.5C 130.833,3.16667 131.167,3.83333 131.5,4.5C 132.167,4.16667 132.833,3.83333 133.5,3.5C 134.696,3.84569 134.696,4.34569 133.5,5C 134.094,5.46434 134.761,5.63101 135.5,5.5C 135.821,7.04814 136.821,7.71481 138.5,7.5C 139.167,7.5 139.5,7.16667 139.5,6.5C 142.075,6.69953 144.409,8.03287 146.5,10.5C 147.848,11.6006 149.348,12.6006 151,13.5C 151.333,13.1667 151.667,12.8333 152,12.5C 153.31,14.7389 155.143,16.4056 157.5,17.5C 157.842,18.3382 158.508,18.6716 159.5,18.5C 159.833,19.5 160.5,20.1667 161.5,20.5C 161.842,21.3382 162.508,21.6716 163.5,21.5C 168.658,27.5029 173.992,32.6696 179.5,37C 178.346,37.9138 178.513,38.7471 180,39.5C 181.308,38.8487 182.141,39.5154 182.5,41.5C 181.167,41.8333 181.167,42.1667 182.5,42.5C 183.167,43.1667 183.833,43.8333 184.5,44.5C 183.167,44.8333 183.167,45.1667 184.5,45.5C 185.284,47.0294 186.284,48.6961 187.5,50.5C 187.328,51.4916 187.662,52.1583 188.5,52.5C 189.662,53.6779 190.662,54.8446 191.5,56C 190.944,56.3826 190.611,56.8826 190.5,57.5C 190.328,58.4916 190.662,59.1583 191.5,59.5C 191.833,60.8333 192.167,60.8333 192.5,59.5C 193.774,60.1894 193.774,61.0228 192.5,62C 194.569,62.3242 194.902,63.1575 193.5,64.5C 195.385,65.1973 195.718,66.1973 194.5,67.5C 196.385,68.1973 196.718,69.1973 195.5,70.5C 196.025,71.1924 196.692,71.6924 197.5,72C 196.748,72.6708 196.414,73.5041 196.5,74.5C 196.328,75.4916 196.662,76.1583 197.5,76.5C 197.5,77.5 197.5,78.5 197.5,79.5C 197.328,80.4916 197.662,81.1583 198.5,81.5C 198.232,83.099 198.566,84.4324 199.5,85.5C 199.5,93.5 199.5,101.5 199.5,109.5C 198.275,110.152 197.608,111.319 197.5,113C 196.558,119.931 195.224,126.764 193.5,133.5C 193.414,134.496 193.748,135.329 194.5,136C 191.87,139.946 189.87,143.446 188.5,146.5C 187.662,146.842 187.328,147.508 187.5,148.5C 186.11,149.899 185.11,151.566 184.5,153.5C 183.512,154.795 182.512,156.128 181.5,157.5C 180.662,157.842 180.328,158.508 180.5,159.5C 179.833,159.5 179.5,159.833 179.5,160.5C 178.833,160.5 178.5,160.833 178.5,161.5C 177.662,161.842 177.328,162.508 177.5,163.5C 176.833,163.5 176.5,163.833 176.5,164.5C 175.833,164.5 175.5,164.833 175.5,165.5C 174.833,165.5 174.5,165.833 174.5,166.5C 173.833,166.5 173.5,166.833 173.5,167.5C 172.833,167.5 172.5,167.833 172.5,168.5C 171.833,168.5 171.5,168.833 171.5,169.5C 170.833,169.5 170.5,169.833 170.5,170.5C 169.833,170.5 169.5,170.833 169.5,171.5C 168.833,171.5 168.5,171.833 168.5,172.5C 167.833,172.5 167.5,172.833 167.5,173.5C 166.833,173.5 166.5,173.833 166.5,174.5C 165.833,174.5 165.5,174.833 165.5,175.5C 164.833,175.5 164.5,175.833 164.5,176.5C 163.167,176.833 163.167,177.167 164.5,177.5C 163.71,178.401 162.71,179.068 161.5,179.5C 161.167,178.167 160.833,178.167 160.5,179.5C 159.833,179.5 159.5,179.833 159.5,180.5C 158.833,180.833 158.167,181.167 157.5,181.5C 156.833,181.5 156.5,181.833 156.5,182.5C 155.167,182.833 155.167,183.167 156.5,183.5C 156.158,184.338 155.492,184.672 154.5,184.5C 154.167,183.167 153.833,183.167 153.5,184.5C 152.833,184.833 152.167,185.167 151.5,185.5C 150.167,185.833 150.167,186.167 151.5,186.5C 151.158,187.338 150.492,187.672 149.5,187.5C 149.167,186.167 148.833,186.167 148.5,187.5C 147.508,187.328 146.842,187.662 146.5,188.5C 145.833,189.167 145.167,189.833 144.5,190.5C 144.5,189.833 144.167,189.5 143.5,189.5C 142.609,190.11 141.609,190.443 140.5,190.5C 133.832,192.775 126.998,194.775 120,196.5C 118.624,196.684 117.791,197.351 117.5,198.5C 115.901,198.232 114.568,198.566 113.5,199.5C 104.167,199.5 94.8333,199.5 85.5,199.5C 84.1667,198.167 82.8333,198.167 81.5,199.5C 80.8333,199.5 80.1667,199.5 79.5,199.5C 78.8166,197.824 77.4832,197.157 75.5,197.5C 74.0473,197.071 72.3806,196.904 70.5,197C 71.6956,196.346 71.6956,195.846 70.5,195.5C 69.8333,195.833 69.1667,196.167 68.5,196.5C 68.1667,195.833 67.8333,195.167 67.5,194.5C 66.8333,194.833 66.1667,195.167 65.5,195.5C 64.3044,195.154 64.3044,194.654 65.5,194C 64.5509,193.383 63.7175,193.549 63,194.5C 62.6758,192.431 61.8425,192.098 60.5,193.5C 59.3044,193.154 59.3044,192.654 60.5,192C 59.0069,190.632 57.5069,190.465 56,191.5C 54.8446,190.662 53.6779,189.662 52.5,188.5C 52.1583,187.662 51.4916,187.328 50.5,187.5C 49.1007,186.11 47.4341,185.11 45.5,184.5C 44.205,183.512 42.8717,182.512 41.5,181.5C 41.1583,180.662 40.4916,180.328 39.5,180.5C 39.1667,179.5 38.5,178.833 37.5,178.5C 37.1583,177.662 36.4916,177.328 35.5,177.5C 31.1667,172.5 26.5,167.833 21.5,163.5C 21.6716,162.508 21.3382,161.842 20.5,161.5C 20.1667,160.5 19.5,159.833 18.5,159.5C 18.6716,158.508 18.3382,157.842 17.5,157.5C 16.9423,156.21 15.9423,155.377 14.5,155C 15.3452,153.442 14.6785,152.442 12.5,152C 13.2871,150.687 12.9538,149.52 11.5,148.5C 11.6716,147.508 11.3382,146.842 10.5,146.5C 9.33811,145.322 8.33811,144.155 7.5,143C 8.05596,142.617 8.38929,142.117 8.5,141.5C 8.16667,140.833 7.83333,140.167 7.5,139.5C 7.05575,137.887 6.05575,136.72 4.5,136C 5.81457,134.605 5.48123,133.605 3.5,133C 3.63977,131.403 3.63977,129.903 3.5,128.5C 2.97473,127.808 2.30806,127.308 1.5,127C 2.25244,126.329 2.58577,125.496 2.5,124.5C 2.67158,123.508 2.33825,122.842 1.5,122.5C 1.5,121.5 1.5,120.5 1.5,119.5C 1.67158,118.508 1.33825,117.842 0.5,117.5C 0.767809,115.901 0.434475,114.568 -0.5,113.5C -0.5,104.167 -0.5,94.8333 -0.5,85.5C 0.833333,83.8333 0.833333,82.1667 -0.5,80.5C -0.5,80.1667 -0.5,79.8333 -0.5,79.5C 1.81386,78.8213 2.14719,77.488 0.5,75.5C 1.44145,75.5105 2.10812,75.0105 2.5,74C 2.3552,73.228 2.02186,72.5613 1.5,72C 3.68905,71.323 4.02238,70.1563 2.5,68.5C 3.16667,68.1667 3.83333,67.8333 4.5,67.5C 4.30477,65.7353 4.30477,64.2353 4.5,63C 7.12954,59.0537 9.12954,55.5537 10.5,52.5C 11.6006,51.1516 12.6006,49.6516 13.5,48C 13.1667,47.6667 12.8333,47.3333 12.5,47C 14.7389,45.6902 16.4056,43.8569 17.5,41.5C 18.3382,41.1583 18.6716,40.4916 18.5,39.5C 19.5,39.1667 20.1667,38.5 20.5,37.5C 21.3382,37.1583 21.6716,36.4916 21.5,35.5C 26.5,31.1667 31.1667,26.5 35.5,21.5C 36.4916,21.6716 37.1583,21.3382 37.5,20.5C 38.5,20.1667 39.1667,19.5 39.5,18.5C 40.1667,18.1667 40.8333,17.8333 41.5,17.5C 42.8717,16.4884 44.205,15.4884 45.5,14.5C 46.1667,14.1667 46.8333,13.8333 47.5,13.5C 48.7095,13.0679 49.7095,12.4013 50.5,11.5C 51.4916,11.6716 52.1583,11.3382 52.5,10.5C 53.1667,9.83333 53.8333,9.16667 54.5,8.5C 54.5,9.16667 54.8333,9.5 55.5,9.5C 56.9952,9.01131 58.3285,8.34464 59.5,7.5C 62.3531,6.04724 65.3531,4.88057 68.5,4C 67.3044,3.34569 67.3044,2.84569 68.5,2.5C 69.9182,2.01127 71.9182,2.01127 74.5,2.5C 75.4916,2.67158 76.1583,2.33825 76.5,1.5C 78.1788,1.71481 79.1788,1.04814 79.5,-0.5 Z"/></g>
<g><path style="opacity:1" fill="#000000" d="M 123.5,0.5 C 124.833,1.16667 124.833,1.16667 123.5,0.5 Z"/></g>
<g><path style="opacity:1" fill="#55382d" d="M 76.5,1.5 C 76.1583,2.33825 75.4916,2.67158 74.5,2.5C 74.7107,0.575908 75.3774,0.242575 76.5,1.5 Z"/></g>
<g><path style="opacity:1" fill="#7d422c" d="M 139.5,6.5 C 138.833,6.5 138.5,6.83333 138.5,7.5C 136.821,7.71481 135.821,7.04814 135.5,5.5C 135.435,5.06178 135.601,4.72845 136,4.5C 136.333,5.16667 136.667,5.83333 137,6.5C 137.977,5.22641 138.811,5.22641 139.5,6.5 Z"/></g>
<g><path style="opacity:1" fill="#4f2820" d="M 59.5,7.5 C 58.3285,8.34464 56.9952,9.01131 55.5,9.5C 54.8333,9.5 54.5,9.16667 54.5,8.5C 55.6412,7.66097 56.9745,6.99431 58.5,6.5C 59.1067,6.62358 59.44,6.95691 59.5,7.5 Z"/></g>
<g><path style="opacity:1" fill="#000000" d="M 146.5,9.5 C 147.833,10.1667 147.833,10.1667 146.5,9.5 Z"/></g>
<g><path style="opacity:1" fill="#2e1a19" d="M 52.5,10.5 C 52.1583,11.3382 51.4916,11.6716 50.5,11.5C 50.0618,11.5654 49.7284,11.3988 49.5,11C 50.4162,10.6258 51.2496,10.1258 52,9.5C 52.3988,9.72845 52.5654,10.0618 52.5,10.5 Z"/></g>
<g><path style="opacity:1" fill="#000000" d="M 47.5,13.5 C 46.8333,13.8333 46.1667,14.1667 45.5,14.5C 44.2617,14.19 44.2617,13.69 45.5,13C 46.4368,12.3083 47.1034,12.475 47.5,13.5 Z"/></g>
<g><path style="opacity:1" fill="#000000" d="M 41.5,17.5 C 40.8333,17.8333 40.1667,18.1667 39.5,18.5C 38.2617,18.19 38.2617,17.69 39.5,17C 40.4368,16.3083 41.1034,16.475 41.5,17.5 Z"/></g>
<g><path style="opacity:1" fill="#19100a" d="M 159.5,18.5 C 158.508,18.6716 157.842,18.3382 157.5,17.5C 157.435,17.0618 157.601,16.7284 158,16.5C 158.75,17.1258 159.584,17.6258 160.5,18C 160.272,18.3988 159.938,18.5654 159.5,18.5 Z"/></g>
<g><path style="opacity:1" fill="#381f1e" d="M 37.5,20.5 C 37.1583,21.3382 36.4916,21.6716 35.5,21.5C 35.0618,21.5654 34.7284,21.3988 34.5,21C 35.4162,20.6258 36.2496,20.1258 37,19.5C 37.3988,19.7284 37.5654,20.0618 37.5,20.5 Z"/></g>
<g><path style="opacity:1" fill="#180c0b" d="M 163.5,21.5 C 162.508,21.6716 161.842,21.3382 161.5,20.5C 161.435,20.0618 161.601,19.7284 162,19.5C 162.75,20.1258 163.584,20.6258 164.5,21C 164.272,21.3988 163.938,21.5654 163.5,21.5 Z"/></g>
<g><path style="opacity:1" fill="#140908" d="M 21.5,35.5 C 21.6716,36.4916 21.3382,37.1583 20.5,37.5C 19.2875,36.5029 19.4542,35.5029 21,34.5C 21.3988,34.7284 21.5654,35.0618 21.5,35.5 Z"/></g>
<g><path style="opacity:1" fill="#faf6f5" d="M 104.5,34.5 C 120.264,35.4589 133.764,41.7922 145,53.5C 149.999,62.1999 149.332,70.5332 143,78.5C 134.236,86.1305 124.07,90.9638 112.5,93C 92.0399,97.0794 71.3732,99.246 50.5,99.5C 50.5,95.5 50.5,91.5 50.5,87.5C 73.5794,87.8432 96.2461,85.0099 118.5,79C 125.177,76.7539 130.677,72.9205 135,67.5C 137.274,62.1407 136.608,57.1407 133,52.5C 125.307,43.5737 115.807,37.5737 104.5,34.5 Z"/></g>
<g><path style="opacity:1" fill="#291a12" d="M 18.5,39.5 C 18.6716,40.4916 18.3382,41.1583 17.5,41.5C 17.0618,41.5654 16.7284,41.3988 16.5,41C 17.1258,40.2496 17.6258,39.4162 18,38.5C 18.3988,38.7284 18.5654,39.0618 18.5,39.5 Z"/></g>
<g><path style="opacity:1" fill="#000000" d="M 182.5,41.5 C 183.833,42.1667 183.833,42.1667 182.5,41.5 Z"/></g>
<g><path style="opacity:1" fill="#000000" d="M 184.5,44.5 C 185.833,45.1667 185.833,45.1667 184.5,44.5 Z"/></g>
<g><path style="opacity:1" fill="#190f0e" d="M 188.5,52.5 C 187.662,52.1583 187.328,51.4916 187.5,50.5C 187.435,50.0618 187.601,49.7284 188,49.5C 188.374,50.4162 188.874,51.2496 189.5,52C 189.272,52.3988 188.938,52.5654 188.5,52.5 Z"/></g>
<g><path style="opacity:1" fill="#000000" d="M 10.5,52.5 C 9.83333,51.1667 9.83333,51.1667 10.5,52.5 Z"/></g>
<g><path style="opacity:1" fill="#6f3528" d="M 190.5,57.5 C 191.833,57.5 192.5,58.1667 192.5,59.5C 192.167,59.5 191.833,59.5 191.5,59.5C 190.662,59.1583 190.328,58.4916 190.5,57.5 Z"/></g>
<g><path style="opacity:1" fill="#512011" d="M 196.5,74.5 C 198.424,74.7107 198.757,75.3774 197.5,76.5C 196.662,76.1583 196.328,75.4916 196.5,74.5 Z"/></g>
<g><path style="opacity:1" fill="#51261b" d="M 197.5,79.5 C 198.167,79.5 198.833,79.5 199.5,79.5C 199.5,80.1667 199.5,80.8333 199.5,81.5C 199.167,81.5 198.833,81.5 198.5,81.5C 197.662,81.1583 197.328,80.4916 197.5,79.5 Z"/></g>
<g><path style="opacity:1" fill="#faf6f5" d="M 146.5,87.5 C 146.771,95.8393 143.104,102.339 135.5,107C 123.32,113.615 110.32,117.615 96.5,119C 81.2279,120.938 65.8946,121.771 50.5,121.5C 50.5,117.833 50.5,114.167 50.5,110.5C 77.2011,111.9 103.201,108.4 128.5,100C 135.439,97.0432 141.439,92.8765 146.5,87.5 Z"/></g>
<g><path style="opacity:1" fill="#faf7f6" d="M 147.5,110.5 C 148.36,117.634 145.694,123.468 139.5,128C 124.744,136.694 108.744,141.694 91.5,143C 77.8707,144.337 64.204,144.837 50.5,144.5C 50.5,140.833 50.5,137.167 50.5,133.5C 77.1197,134.452 103.12,130.952 128.5,123C 135.927,120.3 142.261,116.134 147.5,110.5 Z"/></g>
<g><path style="opacity:1" fill="#a75736" d="M 199.5,109.5 C 199.5,110.833 199.5,112.167 199.5,113.5C 198.167,115.167 198.167,116.833 199.5,118.5C 199.5,118.833 199.5,119.167 199.5,119.5C 197.186,120.179 196.853,121.512 198.5,123.5C 198.154,124.696 197.654,124.696 197,123.5C 196.316,124.784 196.483,125.951 197.5,127C 195.311,127.677 194.978,128.844 196.5,130.5C 195.833,130.833 195.167,131.167 194.5,131.5C 195.988,133.886 195.655,134.552 193.5,133.5C 195.224,126.764 196.558,119.931 197.5,113C 197.608,111.319 198.275,110.152 199.5,109.5 Z"/></g>
<g><path style="opacity:1" fill="#482013" d="M -0.5,117.5 C -0.166667,117.5 0.166667,117.5 0.5,117.5C 1.33825,117.842 1.67158,118.508 1.5,119.5C 0.833333,119.5 0.166667,119.5 -0.5,119.5C -0.5,118.833 -0.5,118.167 -0.5,117.5 Z"/></g>
<g><path style="opacity:1" fill="#54170a" d="M 1.5,122.5 C 2.33825,122.842 2.67158,123.508 2.5,124.5C 0.575908,124.289 0.242575,123.623 1.5,122.5 Z"/></g>
<g><path style="opacity:1" fill="#221514" d="M 7.5,139.5 C 7.83333,140.167 8.16667,140.833 8.5,141.5C 6.57591,141.289 6.24258,140.623 7.5,139.5 Z"/></g>
<g><path style="opacity:1" fill="#000000" d="M 188.5,146.5 C 189.833,147.167 189.833,147.167 188.5,146.5 Z"/></g>
<g><path style="opacity:1" fill="#1b100f" d="M 10.5,146.5 C 11.3382,146.842 11.6716,147.508 11.5,148.5C 11.5654,148.938 11.3988,149.272 11,149.5C 10.6258,148.584 10.1258,147.75 9.5,147C 9.72845,146.601 10.0618,146.435 10.5,146.5 Z"/></g>
<g><path style="opacity:1" fill="#000000" d="M 187.5,148.5 C 188.833,149.167 188.833,149.167 187.5,148.5 Z"/></g>
<g><path style="opacity:1" fill="#000000" d="M 184.5,153.5 C 185.833,154.167 185.833,154.167 184.5,153.5 Z"/></g>
<g><path style="opacity:1" fill="#21110a" d="M 17.5,157.5 C 18.3382,157.842 18.6716,158.508 18.5,159.5C 18.5654,159.938 18.3988,160.272 18,160.5C 17.6258,159.584 17.1258,158.75 16.5,158C 16.7284,157.601 17.0618,157.435 17.5,157.5 Z"/></g>
<g><path style="opacity:1" fill="#0f0805" d="M 181.5,157.5 C 181.938,157.435 182.272,157.601 182.5,158C 181.934,158.995 181.267,159.828 180.5,160.5C 180.5,160.167 180.5,159.833 180.5,159.5C 180.328,158.508 180.662,157.842 181.5,157.5 Z"/></g>
<g><path style="opacity:1" fill="#000000" d="M 179.5,160.5 C 179.833,160.5 180.167,160.5 180.5,160.5C 180.315,161.17 179.981,161.17 179.5,160.5 Z"/></g>
<g><path style="opacity:1" fill="#140908" d="M 178.5,161.5 C 178.833,161.5 179.167,161.5 179.5,161.5C 179.573,163.027 178.906,164.027 177.5,164.5C 177.5,164.167 177.5,163.833 177.5,163.5C 177.328,162.508 177.662,161.842 178.5,161.5 Z"/></g>
<g><path style="opacity:1" fill="#20130a" d="M 20.5,161.5 C 21.3382,161.842 21.6716,162.508 21.5,163.5C 21.5654,163.938 21.3988,164.272 21,164.5C 20.6258,163.584 20.1258,162.75 19.5,162C 19.7284,161.601 20.0618,161.435 20.5,161.5 Z"/></g>
<g><path style="opacity:1" fill="#000000" d="M 176.5,164.5 C 176.833,164.5 177.167,164.5 177.5,164.5C 177.315,165.17 176.981,165.17 176.5,164.5 Z"/></g>
<g><path style="opacity:1" fill="#000000" d="M 175.5,165.5 C 175.833,165.5 176.167,165.5 176.5,165.5C 176.315,166.17 175.981,166.17 175.5,165.5 Z"/></g>
<g><path style="opacity:1" fill="#000000" d="M 174.5,166.5 C 174.833,166.5 175.167,166.5 175.5,166.5C 175.315,167.17 174.981,167.17 174.5,166.5 Z"/></g>
<g><path style="opacity:1" fill="#000000" d="M 173.5,167.5 C 173.833,167.5 174.167,167.5 174.5,167.5C 174.315,168.17 173.981,168.17 173.5,167.5 Z"/></g>
<g><path style="opacity:1" fill="#000000" d="M 172.5,168.5 C 172.833,168.5 173.167,168.5 173.5,168.5C 173.315,169.17 172.981,169.17 172.5,168.5 Z"/></g>
<g><path style="opacity:1" fill="#000000" d="M 171.5,169.5 C 171.833,169.5 172.167,169.5 172.5,169.5C 172.315,170.17 171.981,170.17 171.5,169.5 Z"/></g>
<g><path style="opacity:1" fill="#000000" d="M 170.5,170.5 C 170.833,170.5 171.167,170.5 171.5,170.5C 171.315,171.17 170.981,171.17 170.5,170.5 Z"/></g>
<g><path style="opacity:1" fill="#000000" d="M 169.5,171.5 C 169.833,171.5 170.167,171.5 170.5,171.5C 170.315,172.17 169.981,172.17 169.5,171.5 Z"/></g>
<g><path style="opacity:1" fill="#000000" d="M 168.5,172.5 C 168.833,172.5 169.167,172.5 169.5,172.5C 169.315,173.17 168.981,173.17 168.5,172.5 Z"/></g>
<g><path style="opacity:1" fill="#000000" d="M 167.5,173.5 C 167.833,173.5 168.167,173.5 168.5,173.5C 168.315,174.17 167.981,174.17 167.5,173.5 Z"/></g>
<g><path style="opacity:1" fill="#000000" d="M 166.5,174.5 C 166.833,174.5 167.167,174.5 167.5,174.5C 167.315,175.17 166.981,175.17 166.5,174.5 Z"/></g>
<g><path style="opacity:1" fill="#000000" d="M 165.5,175.5 C 165.833,175.5 166.167,175.5 166.5,175.5C 166.315,176.17 165.981,176.17 165.5,175.5 Z"/></g>
<g><path style="opacity:1" fill="#000000" d="M 164.5,176.5 C 164.833,176.5 165.167,176.5 165.5,176.5C 165.315,177.17 164.981,177.17 164.5,176.5 Z"/></g>
<g><path style="opacity:1" fill="#160b0a" d="M 35.5,177.5 C 36.4916,177.328 37.1583,177.662 37.5,178.5C 37.5654,178.938 37.3988,179.272 37,179.5C 36.2496,178.874 35.4162,178.374 34.5,178C 34.7284,177.601 35.0618,177.435 35.5,177.5 Z"/></g>
<g><path style="opacity:1" fill="#000000" d="M 160.5,179.5 C 160.833,179.5 161.167,179.5 161.5,179.5C 161.315,180.17 160.981,180.17 160.5,179.5 Z"/></g>
<g><path style="opacity:1" fill="#1b0f09" d="M 39.5,180.5 C 40.4916,180.328 41.1583,180.662 41.5,181.5C 41.5654,181.938 41.3988,182.272 41,182.5C 40.2496,181.874 39.4162,181.374 38.5,181C 38.7284,180.601 39.0618,180.435 39.5,180.5 Z"/></g>
<g><path style="opacity:1" fill="#000000" d="M 159.5,180.5 C 159.833,180.5 160.167,180.5 160.5,180.5C 160.027,181.906 159.027,182.573 157.5,182.5C 157.5,182.167 157.5,181.833 157.5,181.5C 158.167,181.167 158.833,180.833 159.5,180.5 Z"/></g>
<g><path style="opacity:1" fill="#000000" d="M 156.5,182.5 C 156.833,182.5 157.167,182.5 157.5,182.5C 157.315,183.17 156.981,183.17 156.5,182.5 Z"/></g>
<g><path style="opacity:1" fill="#000000" d="M 45.5,184.5 C 44.8333,185.167 44.8333,185.167 45.5,184.5 Z"/></g>
<g><path style="opacity:1" fill="#000000" d="M 153.5,184.5 C 153.833,184.5 154.167,184.5 154.5,184.5C 154.027,185.906 153.027,186.573 151.5,186.5C 151.5,186.167 151.5,185.833 151.5,185.5C 152.167,185.167 152.833,184.833 153.5,184.5 Z"/></g>
<g><path style="opacity:1" fill="#000000" d="M 50.5,187.5 C 49.8333,188.167 49.8333,188.167 50.5,187.5 Z"/></g>
<g><path style="opacity:1" fill="#190f0e" d="M 148.5,187.5 C 148.833,187.5 149.167,187.5 149.5,187.5C 148.828,188.267 147.995,188.934 147,189.5C 146.601,189.272 146.435,188.938 146.5,188.5C 146.842,187.662 147.508,187.328 148.5,187.5 Z"/></g>
<g><path style="opacity:1" fill="#000000" d="M 52.5,188.5 C 51.8333,189.167 51.8333,189.167 52.5,188.5 Z"/></g>
<g><path style="opacity:1" fill="#211413" d="M 143.5,189.5 C 144.167,189.5 144.5,189.833 144.5,190.5C 143.07,191.537 141.403,192.204 139.5,192.5C 139.5,192.167 139.5,191.833 139.5,191.5C 140.167,191.5 140.5,191.167 140.5,190.5C 141.609,190.443 142.609,190.11 143.5,189.5 Z"/></g>
<g><path style="opacity:1" fill="#9b5133" d="M 140.5,190.5 C 140.5,191.167 140.167,191.5 139.5,191.5C 138.167,191.833 138.167,192.167 139.5,192.5C 138.811,193.774 137.977,193.774 137,192.5C 135.742,195.055 133.909,195.722 131.5,194.5C 131.167,195.167 130.833,195.833 130.5,196.5C 129.833,196.167 129.167,195.833 128.5,195.5C 128.511,196.441 128.011,197.108 127,197.5C 126.098,197.257 125.265,196.923 124.5,196.5C 123.833,196.833 123.167,197.167 122.5,197.5C 120.821,197.285 119.821,197.952 119.5,199.5C 119.167,199.5 118.833,199.5 118.5,199.5C 118.5,198.833 118.167,198.5 117.5,198.5C 117.791,197.351 118.624,196.684 120,196.5C 126.998,194.775 133.832,192.775 140.5,190.5 Z"/></g>
<g><path style="opacity:1" fill="#000000" d="M 75.5,197.5 C 74.8333,198.167 74.8333,198.167 75.5,197.5 Z"/></g>
<g><path style="opacity:1" fill="#212121" d="M 124.5,196.5 C 124.289,198.424 123.623,198.757 122.5,197.5C 123.167,197.167 123.833,196.833 124.5,196.5 Z"/></g>
</svg>
