<svg width="543" height="520" viewBox="0 0 543 520" fill="none" xmlns="http://www.w3.org/2000/svg">
<rect width="543" height="520" rx="260" fill="white"/>
<path d="M307.571 359.689V211.698C307.571 173.913 277.714 144 240 144V381.73C240 416.366 266.714 444.705 301.286 444.705C302.857 444.705 302.857 444.705 304.429 444.705C320.143 446.279 337.429 441.556 350 430.535C310.714 427.387 307.571 403.771 307.571 359.689Z" fill="#292929"/>
<path d="M163.31 81C130.297 81 102 109.35 102 144H378.683C413.268 144 439.993 115.65 439.993 81C441.565 81 163.31 81 163.31 81Z" fill="#292929"/>
</svg>
