<svg width="144" height="144" viewBox="0 0 144 144" fill="none" xmlns="http://www.w3.org/2000/svg">
<g clip-path="url(#clip0_3557_1517)">
<path d="M71.85 143.7C111.532 143.7 143.7 111.532 143.7 71.85C143.7 32.1683 111.532 0 71.85 0C32.1683 0 0 32.1683 0 71.85C0 111.532 32.1683 143.7 71.85 143.7Z" fill="#1D2229"/>
<path d="M59.5619 65.1123H47.5308V77.1434H59.5619V65.1123Z" fill="white"/>
<path d="M47.5307 53.0811H35.4995V65.1122L47.5308 65.1123L47.5307 53.0811Z" fill="white"/>
<path d="M35.4979 65.1123H23.4668V77.1434H35.4979V65.1123Z" fill="white"/>
<path d="M47.5308 77.1432L35.4995 77.1426V89.1737H47.5307L47.5308 77.1432Z" fill="white"/>
<path d="M115.922 55.6725C115.074 46.8242 107.437 43.854 97.7911 43.0058V37.3379H90.3226V42.6824C88.3602 42.6824 86.3536 42.72 84.358 42.7577V37.3335H76.8939V42.9991C75.277 43.0301 65.3434 43.0213 65.3434 43.0213L65.3212 49.606L71.5539 49.6415V92.7979H65.3234L65.2681 99.2897C67.0776 99.2897 75.1309 99.3251 76.8762 99.3362V104.931H84.3402V99.4691C86.3868 99.5134 88.3713 99.5311 90.3071 99.5289V104.933H97.7778V99.3628C110.338 98.6474 119.133 95.4868 120.225 83.6949C121.111 74.1976 116.646 69.9628 109.516 68.2396C113.849 66.0248 116.558 62.1465 115.926 55.6703L115.922 55.6725ZM105.457 82.2131C105.457 91.4912 89.574 90.4303 84.5064 90.4325V73.9849C89.5717 73.9849 105.448 72.5386 105.45 82.2131H105.457ZM101.99 59.0059C101.99 67.4467 88.7367 66.4567 84.5174 66.4567V51.5374C88.7434 51.5396 101.995 50.2018 101.99 59.0059Z" fill="white"/>
</g>
<defs>
<clipPath id="clip0_3557_1517">
<rect width="144" height="144" fill="white"/>
</clipPath>
</defs>
</svg>
