<?xml version="1.0" encoding="UTF-8"?>
<!DOCTYPE svg PUBLIC "-//W3C//DTD SVG 1.1//EN" "http://www.w3.org/Graphics/SVG/1.1/DTD/svg11.dtd">
<svg xmlns="http://www.w3.org/2000/svg" version="1.1" width="200px" height="200px" style="shape-rendering:geometricPrecision; text-rendering:geometricPrecision; image-rendering:optimizeQuality; fill-rule:evenodd; clip-rule:evenodd" xmlns:xlink="http://www.w3.org/1999/xlink">
<g><path style="opacity:1" fill="#000000" d="M -0.5,-0.5 C 66.1667,-0.5 132.833,-0.5 199.5,-0.5C 199.5,66.1667 199.5,132.833 199.5,199.5C 132.833,199.5 66.1667,199.5 -0.5,199.5C -0.5,132.833 -0.5,66.1667 -0.5,-0.5 Z"/></g>
<g><path style="opacity:1" fill="#f9faf9" d="M 88.5,39.5 C 89.6646,79.3312 89.8312,119.331 89,159.5C 83.6667,154.167 78.3333,148.833 73,143.5C 72.6667,123.5 72.3333,103.5 72,83.5C 66.8333,88.6667 61.6667,93.8333 56.5,99C 47.5,99.6667 38.5,99.6667 29.5,99C 49.3683,79.2986 69.035,59.4653 88.5,39.5 Z"/></g>
<g><path style="opacity:1" fill="#f7f7f7" d="M 109.5,39.5 C 129.632,59.1317 149.632,78.965 169.5,99C 160.5,99.6667 151.5,99.6667 142.5,99C 137.667,94.1667 132.833,89.3333 128,84.5C 127.667,103.833 127.333,123.167 127,142.5C 121.333,148.167 115.667,153.833 110,159.5C 109.5,119.501 109.333,79.5014 109.5,39.5 Z"/></g>
</svg>
