<?xml version="1.0" encoding="UTF-8"?>
<!DOCTYPE svg PUBLIC "-//W3C//DTD SVG 1.1//EN" "http://www.w3.org/Graphics/SVG/1.1/DTD/svg11.dtd">
<svg xmlns="http://www.w3.org/2000/svg" version="1.1" width="200px" height="200px" style="shape-rendering:geometricPrecision; text-rendering:geometricPrecision; image-rendering:optimizeQuality; fill-rule:evenodd; clip-rule:evenodd" xmlns:xlink="http://www.w3.org/1999/xlink">
<g><path style="opacity:1" fill="#faf9f9" d="M -0.5,-0.5 C 29.5,-0.5 59.5,-0.5 89.5,-0.5C 36.6768,8.98973 6.67679,40.3231 -0.5,93.5C -0.5,62.1667 -0.5,30.8333 -0.5,-0.5 Z"/></g>
<g><path style="opacity:1" fill="#edaf07" d="M 89.5,-0.5 C 95.5,-0.5 101.5,-0.5 107.5,-0.5C 159.212,7.87812 189.879,37.8781 199.5,89.5C 199.5,94.8333 199.5,100.167 199.5,105.5C 192.637,157.362 163.637,188.695 112.5,199.5C 104.833,199.5 97.1667,199.5 89.5,199.5C 49.7114,193.89 21.8781,172.557 6,135.5C 2.59036,124.95 0.423696,114.283 -0.5,103.5C -0.5,100.167 -0.5,96.8333 -0.5,93.5C 6.67679,40.3231 36.6768,8.98973 89.5,-0.5 Z"/></g>
<g><path style="opacity:1" fill="#faf9f9" d="M 107.5,-0.5 C 138.167,-0.5 168.833,-0.5 199.5,-0.5C 199.5,29.5 199.5,59.5 199.5,89.5C 189.879,37.8781 159.212,7.87812 107.5,-0.5 Z"/></g>
<g><path style="opacity:1" fill="#faf9f9" d="M 145.5,41.5 C 146.552,41.3505 147.552,41.5172 148.5,42C 155.333,48.8333 162.167,55.6667 169,62.5C 169.667,63.5 169.667,64.5 169,65.5C 138.5,96 108,126.5 77.5,157C 75.8333,157.667 74.1667,157.667 72.5,157C 56.9189,140.752 41.0855,124.919 25,109.5C 24.0181,108.241 23.6848,106.908 24,105.5C 31.0424,98.1226 38.3758,91.1226 46,84.5C 55.4582,92.9569 64.6249,101.79 73.5,111C 74.5,111.667 75.5,111.667 76.5,111C 99.7016,87.9653 122.702,64.7986 145.5,41.5 Z"/></g>
<g><path style="opacity:1" fill="#faf9f9" d="M 199.5,105.5 C 199.5,136.833 199.5,168.167 199.5,199.5C 170.5,199.5 141.5,199.5 112.5,199.5C 163.637,188.695 192.637,157.362 199.5,105.5 Z"/></g>
<g><path style="opacity:1" fill="#faf9f9" d="M -0.5,103.5 C 0.423696,114.283 2.59036,124.95 6,135.5C 21.8781,172.557 49.7114,193.89 89.5,199.5C 59.5,199.5 29.5,199.5 -0.5,199.5C -0.5,167.5 -0.5,135.5 -0.5,103.5 Z"/></g>
</svg>
