<svg xmlns="http://www.w3.org/2000/svg" fill="none" viewBox="0 0 33.666 33.3728813559322" class="header-logo-image" style="max-height: 500px" width="33.666" height="33.3728813559322"> <g clip-path="url(#clip0_207_2790)"> <path fill="currentColor" d="M29.6804 22.5752C24.9339 30.7964 16.5541 34.8445 10.9637 31.6169C5.37325 28.3892 4.68911 19.1081 9.43562 10.8869C14.1821 2.66569 22.5619 -1.38238 28.1523 1.84526C33.7428 5.07291 34.4269 14.354 29.6804 22.5752ZM7.65945 8.66931C6.11688 11.3411 3.39353 12.6567 1.57669 11.6078C-0.240159 10.5588 -0.4625 7.54253 1.08007 4.87071C2.62265 2.19889 5.346 0.883302 7.16284 1.93226C8.97969 2.98121 9.20203 5.9975 7.65945 8.66931ZM43.1639 7.65627V11.5372H49.6132V28.6836H54.1574V11.5372H60.5926V7.65627H43.1639ZM61.7645 28.0626C62.9123 28.7024 64.2435 29.0223 65.7582 29.0223C67.2824 29.0223 68.6136 28.7024 69.752 28.0626C70.8998 27.4135 71.7936 26.5056 72.4333 25.339C73.0825 24.1724 73.4071 22.8082 73.4071 21.2464C73.4071 19.6846 73.0825 18.3205 72.4333 17.1538C71.7936 15.9778 70.8998 15.0652 69.752 14.4161C68.6136 13.7669 67.2824 13.4423 65.7582 13.4423C64.2435 13.4423 62.9123 13.7669 61.7645 14.4161C60.6167 15.0652 59.7182 15.9778 59.069 17.1538C58.4292 18.3205 58.1094 19.6846 58.1094 21.2464C58.1094 22.8082 58.4292 24.1724 59.069 25.339C59.7182 26.5056 60.6167 27.4135 61.7645 28.0626ZM67.4517 25.0144C66.9719 25.3437 66.4074 25.5083 65.7582 25.5083C65.1185 25.5083 64.554 25.3437 64.0648 25.0144C63.5755 24.6757 63.1945 24.1865 62.9217 23.5467C62.6488 22.907 62.5124 22.1402 62.5124 21.2464C62.5124 20.3338 62.6488 19.5623 62.9217 18.932C63.1945 18.2922 63.5755 17.803 64.0648 17.4643C64.554 17.1256 65.1185 16.9563 65.7582 16.9563C66.4074 16.9563 66.9719 17.1256 67.4517 17.4643C67.9409 17.803 68.322 18.2922 68.5948 18.932C68.8676 19.5623 69.0041 20.3338 69.0041 21.2464C69.0041 22.1402 68.8676 22.907 68.5948 23.5467C68.322 24.1865 67.9409 24.6757 67.4517 25.0144ZM79.4054 20.2444V28.6836H75.0588V13.781H79.363V16.5047L79.4054 16.4341C79.7535 15.5497 80.318 14.8347 81.0988 14.289C81.8797 13.7434 82.8441 13.4705 83.9919 13.4705C85.0644 13.4705 86.0193 13.7104 86.8567 14.1903C87.694 14.6607 88.3573 15.3381 88.8465 16.2224C89.3357 17.0974 89.5803 18.137 89.5803 19.3412V28.6836H85.2337V20.1033C85.2337 19.1343 84.975 18.3863 84.4576 17.8595C83.9495 17.3326 83.258 17.0692 82.3831 17.0692C81.8186 17.0692 81.3105 17.1868 80.8589 17.422C80.4073 17.6572 80.0498 18.01 79.7864 18.4804C79.5324 18.9508 79.4054 19.5388 79.4054 20.2444ZM100.518 18.5368H104.54C104.512 17.4925 104.22 16.5941 103.665 15.8414C103.119 15.0887 102.357 14.5054 101.379 14.0915C100.4 13.6775 99.2525 13.4705 97.9354 13.4705C96.6182 13.4705 95.4798 13.6681 94.5202 14.0633C93.5606 14.449 92.822 14.9994 92.3046 15.7144C91.7871 16.42 91.5284 17.2479 91.5284 18.1982C91.5284 19.3554 91.9047 20.3009 92.6574 21.0347C93.4194 21.7686 94.5249 22.2766 95.9738 22.5588L98.6128 23.0528C99.2149 23.1657 99.6806 23.3397 100.01 23.5749C100.339 23.8101 100.504 24.1112 100.504 24.4781C100.504 24.9203 100.292 25.2825 99.8688 25.5648C99.4454 25.8376 98.8621 25.974 98.1188 25.974C97.338 25.974 96.717 25.7953 96.256 25.4378C95.8044 25.0802 95.5457 24.5957 95.4798 23.9842H91.1897C91.2744 25.0379 91.6225 25.9458 92.234 26.7079C92.8549 27.4605 93.6735 28.0391 94.6895 28.4437C95.715 28.8482 96.8817 29.0505 98.1894 29.0505C99.5159 29.0505 100.683 28.8435 101.689 28.4296C102.705 28.0156 103.496 27.437 104.06 26.6938C104.625 25.9411 104.907 25.0661 104.907 24.0689C104.907 22.9681 104.549 22.0884 103.834 21.4299C103.119 20.7619 102.004 20.2821 100.49 19.9904L97.6108 19.44C97.0651 19.3271 96.637 19.1531 96.3266 18.9179C96.0161 18.6827 95.8609 18.3816 95.8609 18.0147C95.8609 17.6007 96.0537 17.2526 96.4395 16.9704C96.8346 16.6787 97.3803 16.5329 98.0765 16.5329C98.7915 16.5329 99.3748 16.7258 99.8264 17.1115C100.278 17.4878 100.509 17.9629 100.518 18.5368ZM115.082 13.781V17.1821H112.034V23.6737C112.034 24.257 112.156 24.671 112.401 24.9156C112.646 25.1602 113.06 25.2825 113.643 25.2825H114.419H115.082V28.6836H114.024H112.627C110.98 28.6836 109.743 28.3308 108.915 27.6252C108.097 26.9101 107.688 25.8423 107.688 24.4217V17.1821H105.444V13.781H107.688V9.71666H112.034V13.781H115.082ZM118.734 28.4437C119.505 28.773 120.39 28.9376 121.387 28.9376C122.13 28.9376 122.775 28.8482 123.32 28.6695C123.866 28.4813 124.336 28.2132 124.732 27.8651C125.127 27.5076 125.461 27.0795 125.734 26.5809H125.79V28.6836H130.038V18.4381C130.038 17.7324 129.883 17.0786 129.572 16.4765C129.271 15.8743 128.838 15.3475 128.274 14.8959C127.709 14.4443 127.018 14.0962 126.199 13.8516C125.39 13.5975 124.478 13.4705 123.462 13.4705C122.06 13.4705 120.87 13.701 119.891 14.162C118.913 14.6136 118.16 15.2252 117.633 15.9966C117.106 16.7587 116.815 17.6007 116.758 18.5227H120.823C120.86 18.1558 120.987 17.8312 121.204 17.549C121.42 17.2667 121.716 17.0504 122.093 16.8998C122.469 16.7399 122.902 16.6599 123.391 16.6599C123.88 16.6599 124.299 16.7352 124.647 16.8857C124.995 17.0362 125.263 17.2432 125.451 17.5066C125.64 17.7701 125.734 18.0758 125.734 18.4239V18.5227C125.734 18.8332 125.616 19.0684 125.381 19.2283C125.146 19.3883 124.76 19.5153 124.224 19.6094C123.687 19.6941 122.968 19.7787 122.064 19.8634C121.284 19.9293 120.54 20.0563 119.835 20.2444C119.138 20.4232 118.522 20.6866 117.986 21.0347C117.45 21.3734 117.026 21.825 116.716 22.3895C116.405 22.9446 116.25 23.6455 116.25 24.4922C116.25 25.4801 116.471 26.3033 116.913 26.9619C117.356 27.6205 117.962 28.1144 118.734 28.4437ZM124.28 25.6212C123.81 25.8564 123.255 25.974 122.615 25.974C121.947 25.974 121.411 25.8282 121.006 25.5365C120.601 25.2449 120.399 24.8497 120.399 24.3511C120.399 23.9748 120.507 23.6596 120.724 23.4056C120.95 23.1516 121.246 22.9493 121.613 22.7988C121.989 22.6482 122.408 22.5353 122.869 22.4601C123.198 22.413 123.509 22.366 123.8 22.3189C124.101 22.2625 124.374 22.206 124.619 22.1496C124.873 22.0931 125.094 22.0367 125.282 21.9802C125.48 21.9238 125.64 21.8626 125.762 21.7968V23.2645C125.762 23.7819 125.63 24.2476 125.367 24.6616C125.113 25.0661 124.75 25.386 124.28 25.6212ZM136.674 28.6836V24.0324L137.82 22.7498L142.051 28.6836H147.118L141.079 20.2623L146.821 13.781H141.755L136.717 19.3695H136.674V7.65627H132.328V28.6836H136.674ZM149.829 28.0344C150.957 28.693 152.275 29.0223 153.78 29.0223C154.994 29.0223 156.104 28.8106 157.11 28.3872C158.127 27.9545 158.964 27.3617 159.622 26.6091C160.29 25.847 160.718 24.9721 160.907 23.9842H156.941C156.819 24.3417 156.617 24.6616 156.334 24.9438C156.061 25.2167 155.718 25.4283 155.304 25.5789C154.9 25.7294 154.439 25.8047 153.921 25.8047C153.197 25.8047 152.576 25.6541 152.058 25.3531C151.55 25.0426 151.16 24.6145 150.887 24.0689C150.647 23.5635 150.516 22.9802 150.495 22.3189H161.034V21.1476C161.034 20.0186 160.855 18.9837 160.497 18.0429C160.149 17.1021 159.646 16.2883 158.987 15.6015C158.338 14.9053 157.562 14.3737 156.659 14.0068C155.756 13.6305 154.749 13.4423 153.639 13.4423C152.199 13.4423 150.925 13.7763 149.814 14.4443C148.704 15.1123 147.834 16.0343 147.204 17.2103C146.573 18.3769 146.258 19.7223 146.258 21.2464C146.258 22.7517 146.569 24.0924 147.19 25.2684C147.82 26.4444 148.7 27.3664 149.829 28.0344ZM150.525 19.6094C150.58 19.1387 150.7 18.7201 150.887 18.3534C151.15 17.8265 151.522 17.422 152.002 17.1397C152.491 16.8575 153.07 16.7164 153.738 16.7164C154.415 16.7164 154.994 16.8575 155.473 17.1397C155.953 17.422 156.325 17.8265 156.588 18.3534C156.775 18.7201 156.896 19.1387 156.95 19.6094H150.525ZM162.643 28.6836V13.781H166.848V16.3494H166.877C167.15 15.4368 167.578 14.7689 168.161 14.3455C168.744 13.9127 169.53 13.6963 170.518 13.6963C170.772 13.6963 170.998 13.701 171.195 13.7104C171.402 13.7104 171.595 13.7151 171.774 13.7246V17.3938C171.614 17.3843 171.355 17.3702 170.998 17.3514C170.649 17.3326 170.301 17.3232 169.953 17.3232C169.379 17.3232 168.867 17.4549 168.415 17.7183C167.973 17.9724 167.625 18.3534 167.371 18.8614C167.117 19.3695 166.99 19.9904 166.99 20.7243V28.6836H162.643ZM181.4 18.5368H185.422C185.393 17.4925 185.102 16.5941 184.547 15.8414C184.001 15.0887 183.239 14.5054 182.261 14.0915C181.282 13.6775 180.134 13.4705 178.817 13.4705C177.5 13.4705 176.362 13.6681 175.402 14.0633C174.442 14.449 173.704 14.9994 173.186 15.7144C172.669 16.42 172.41 17.2479 172.41 18.1982C172.41 19.3554 172.786 20.3009 173.539 21.0347C174.301 21.7686 175.407 22.2766 176.856 22.5588L179.495 23.0528C180.097 23.1657 180.562 23.3397 180.892 23.5749C181.221 23.8101 181.386 24.1112 181.386 24.4781C181.386 24.9203 181.174 25.2825 180.751 25.5648C180.327 25.8376 179.744 25.974 179.001 25.974C178.22 25.974 177.599 25.7953 177.138 25.4378C176.686 25.0802 176.427 24.5957 176.362 23.9842H172.071C172.156 25.0379 172.504 25.9458 173.116 26.7079C173.737 27.4605 174.555 28.0391 175.571 28.4437C176.597 28.8482 177.763 29.0505 179.071 29.0505C180.398 29.0505 181.564 28.8435 182.571 28.4296C183.587 28.0156 184.377 27.437 184.942 26.6938C185.506 25.9411 185.789 25.0661 185.789 24.0689C185.789 22.9681 185.431 22.0884 184.716 21.4299C184.001 20.7619 182.886 20.2821 181.371 19.9904L178.493 19.44C177.947 19.3271 177.519 19.1531 177.208 18.9179C176.898 18.6827 176.743 18.3816 176.743 18.0147C176.743 17.6007 176.935 17.2526 177.321 16.9704C177.716 16.6787 178.262 16.5329 178.958 16.5329C179.673 16.5329 180.257 16.7258 180.708 17.1115C181.16 17.4878 181.39 17.9629 181.4 18.5368Z" clip-rule="evenodd" fill-rule="evenodd"/> </g> <defs> <clipPath id="clip0_207_2790"> <rect transform="translate(0 0.688477)" fill="white" height="32.0492" width="186"/> </clipPath> </defs> </svg>