<?xml version="1.0" encoding="UTF-8"?>
<svg version="1.1" xmlns="http://www.w3.org/2000/svg" width="300" height="300">
<path d="M0 0 C99 0 198 0 300 0 C300 99 300 198 300 300 C201 300 102 300 0 300 C0 201 0 102 0 0 Z " fill="#28272B" transform="translate(0,0)"/>
<path d="M0 0 C4.96622349 -0.02465098 9.93241166 -0.04283649 14.89868164 -0.05493164 C16.58944316 -0.0599719 18.28020029 -0.06680405 19.97094727 -0.07543945 C22.39600707 -0.08751857 24.82100944 -0.09323123 27.24609375 -0.09765625 C28.38672523 -0.10539818 28.38672523 -0.10539818 29.55039978 -0.11329651 C31.3673257 -0.11349238 33.18413127 -0.06197277 35 0 C36.92203989 1.92203989 36.15387753 5.51103347 36.15771484 8.13085938 C36.16279556 8.87732727 36.16787628 9.62379517 36.17311096 10.3928833 C36.18384044 12.02055168 36.19245043 13.64823506 36.19923019 15.27592468 C36.21100126 17.85773445 36.23045358 20.43937557 36.25234985 23.02111816 C36.31399606 30.36428138 36.36785291 37.70743169 36.40136719 45.05078125 C36.42240426 49.53896062 36.45779013 54.02683981 36.50212479 58.5148468 C36.51622569 60.22109929 36.52499379 61.92740498 36.52817917 63.63371277 C36.45745183 78.13060913 36.45745183 78.13060913 42.1875 91.25 C47.61350473 96.55542685 51.58504744 99.2950726 59.375 99.625 C66.73949571 99.30072325 72.54585576 97.36797016 77.87890625 92.16796875 C83.24468583 85.61266695 84.2958992 78.32664931 84.30297852 70.03930664 C84.31563751 68.91342636 84.31563751 68.91342636 84.32855225 67.76480103 C84.35409827 65.31324554 84.36641099 62.86180972 84.37890625 60.41015625 C84.39509697 58.69761725 84.4122786 56.98508736 84.43040466 55.27256775 C84.47588858 50.7866536 84.51081083 46.3007271 84.54260254 41.81469727 C84.59468893 34.61015938 84.65947292 27.40575403 84.73081779 20.20138359 C84.75369335 17.68358955 84.76992855 15.16581273 84.78553772 12.64796448 C84.79893556 11.11695152 84.81254958 9.58594043 84.82641602 8.05493164 C84.82902939 7.35108841 84.83164276 6.64724518 84.83433533 5.92207336 C84.88635155 1.11364845 84.88635155 1.11364845 86 0 C88.59359322 -0.08851529 91.16039691 -0.11525945 93.75390625 -0.09765625 C94.52935287 -0.0962413 95.3047995 -0.09482635 96.10374451 -0.09336853 C98.59003494 -0.08775345 101.0762366 -0.07519846 103.5625 -0.0625 C105.24413933 -0.05748694 106.92578006 -0.0529237 108.60742188 -0.04882812 C112.73831566 -0.03777913 116.86914276 -0.02050445 121 0 C121.06982578 10.72767829 121.1229756 21.45530159 121.15543652 32.18316174 C121.17102417 37.1657285 121.19213486 42.1481386 121.22631836 47.13061523 C121.25915984 51.94819469 121.27690476 56.76562442 121.28463173 61.58330727 C121.29013109 63.41191269 121.30086863 65.24051089 121.31719017 67.06905174 C121.49483499 87.81546147 117.76105063 104.47462313 103 120 C96.71797178 125.9567452 90.08504137 129.95330665 82 133 C81.36884277 133.25894043 80.73768555 133.51788086 80.08740234 133.78466797 C73.64531954 136.23082591 67.59801282 136.54038904 60.75 136.5 C59.64261475 136.49500488 58.53522949 136.49000977 57.39428711 136.48486328 C48.91530907 136.30404825 42.48442366 135.18018921 35 131 C34.14019531 130.56558594 33.28039062 130.13117188 32.39453125 129.68359375 C18.18945674 121.95339041 8.57549794 110.00383166 3 95 C2.74894501 94.32961197 2.49789001 93.65922394 2.23922729 92.96852112 C-0.79419631 83.61054157 -0.37920385 74.26939349 -0.29296875 64.55078125 C-0.28736343 62.6832056 -0.28309776 60.81562549 -0.28010559 58.94804382 C-0.26873049 54.06706248 -0.23932762 49.18635513 -0.20599365 44.30548096 C-0.17513342 39.31111353 -0.16156637 34.31670121 -0.14648438 29.32226562 C-0.11444993 19.54805766 -0.06334382 9.77405174 0 0 Z " fill="#C4AE53" transform="translate(89,82)"/>
<path d="M0 0 C1.47583955 0.0001591 2.95168467 0.00585225 4.42749023 0.01586914 C5.20293686 0.01728409 5.97838348 0.01869904 6.77732849 0.02015686 C9.26361893 0.02577194 11.74982059 0.03832693 14.23608398 0.05102539 C15.91772331 0.05603845 17.59936405 0.06060169 19.28100586 0.06469727 C23.41189965 0.07574626 27.54272674 0.09302094 31.67358398 0.11352539 C31.74340977 10.84120368 31.79655959 21.56882698 31.8290205 32.29668713 C31.84460815 37.27925389 31.86571884 42.26166399 31.89990234 47.24414062 C31.93274383 52.06172008 31.95048875 56.87914981 31.95821571 61.69683266 C31.96371508 63.52543809 31.97445261 65.35403628 31.99077415 67.18257713 C32.17628743 88.84791248 32.17628743 88.84791248 28.67358398 97.11352539 C25.44221998 100.11352539 25.44221998 100.11352539 22.67358398 100.11352539 C22.17858398 102.09352539 22.17858398 102.09352539 21.67358398 104.11352539 C21.01358398 104.11352539 20.35358398 104.11352539 19.67358398 104.11352539 C18.68358398 106.09352539 18.68358398 106.09352539 17.67358398 108.11352539 C17.01358398 108.11352539 16.35358398 108.11352539 15.67358398 108.11352539 C15.17858398 109.59852539 15.17858398 109.59852539 14.67358398 111.11352539 C4.15942762 118.27209993 -7.89047014 119.63925708 -20.32641602 118.11352539 C-24.90722894 117.10457863 -29.29942788 115.53244382 -33.32641602 113.11352539 C-33.65641602 112.12352539 -33.98641602 111.13352539 -34.32641602 110.11352539 C-35.04829102 109.82477539 -35.77016602 109.53602539 -36.51391602 109.23852539 C-40.79884769 107.52455272 -44.18289524 104.88078477 -46.70141602 100.98852539 C-47.32641602 99.11352539 -47.32641602 99.11352539 -47.32641602 96.11352539 C-47.98641602 96.11352539 -48.64641602 96.11352539 -49.32641602 96.11352539 C-50.68081269 93.40473204 -50.39143052 91.10419271 -50.32641602 88.11352539 C-49.36735352 89.16540039 -49.36735352 89.16540039 -48.38891602 90.23852539 C-42.76184471 95.70885377 -37.99808688 99.4762765 -29.88891602 99.80102539 C-22.57459412 99.4165108 -16.74487 97.4466957 -11.44750977 92.28149414 C-6.08173019 85.72619234 -5.03051682 78.4401747 -5.0234375 70.15283203 C-5.0107785 69.02695175 -5.0107785 69.02695175 -4.99786377 67.87832642 C-4.97231775 65.42677093 -4.96000502 62.97533511 -4.94750977 60.52368164 C-4.93131904 58.81114264 -4.91413741 57.09861275 -4.89601135 55.38609314 C-4.85052744 50.90017899 -4.81560518 46.41425249 -4.78381348 41.92822266 C-4.73172709 34.72368477 -4.66694309 27.51927942 -4.59559822 20.31490898 C-4.57272267 17.79711494 -4.55648746 15.27933812 -4.5408783 12.76148987 C-4.52748046 11.23047691 -4.51386643 9.69946582 -4.5 8.16845703 C-4.49738663 7.4646138 -4.49477325 6.76077057 -4.49208069 6.03559875 C-4.42842418 0.15113521 -4.42842418 0.15113521 0 0 Z " fill="#B8B8BB" transform="translate(178.326416015625,81.886474609375)"/>
<path d="M0 0 C40.92 0 81.84 0 124 0 C124 41.58 124 83.16 124 126 C122.170854 122.34170801 121.47926816 119.82987733 120.75 115.875 C114.95799006 88.20524955 100.03547145 58.33673805 77.6875 40.3125 C76.3571875 39.1678125 76.3571875 39.1678125 75 38 C75 37.34 75 36.68 75 36 C74.45214844 35.75507812 73.90429688 35.51015625 73.33984375 35.2578125 C70.49639769 33.72928223 68.10978567 31.85891041 65.5625 29.875 C46.90536003 15.68364957 23.58321238 3.62035693 0 1 C0 0.67 0 0.34 0 0 Z " fill="#FDFDFD" transform="translate(176,0)"/>
<path d="M0 0 C0.33 0 0.66 0 1 0 C1 41.58 1 83.16 1 126 C-39.92 126 -80.84 126 -123 126 C-123 125.67 -123 125.34 -123 125 C-121.83984375 124.75765625 -120.6796875 124.5153125 -119.484375 124.265625 C-93.80766421 118.80718745 -71.03979401 108.18226783 -51 91 C-50.34515625 90.45472656 -49.6903125 89.90945313 -49.015625 89.34765625 C-28.75863265 72.33697678 -14.26618004 48.95450577 -6 24 C-5.61070312 22.845 -5.22140625 21.69 -4.8203125 20.5 C-2.63587703 13.7394114 -1.06957516 7.0226053 0 0 Z " fill="#F8F8F8" transform="translate(299,174)"/>
<path d="M0 0 C40.92 0 81.84 0 124 0 C124 0.33 124 0.66 124 1 C123.05253906 1.14695313 123.05253906 1.14695313 122.0859375 1.296875 C84.52254464 7.57548245 49.33331515 29.50761982 27.03198242 60.4609375 C24.91186277 63.57778673 22.93985328 66.76894825 21 70 C20.28476207 71.13208453 19.56863647 72.2636088 18.8515625 73.39453125 C10.02849197 87.91372202 2.88597059 105.02626468 1 122 C0.67 122 0.34 122 0 122 C0 81.74 0 41.48 0 0 Z " fill="#FDFDFD" transform="translate(0,0)"/>
<path d="M0 0 C0.33 0 0.66 0 1 0 C1.08636719 0.62003906 1.17273438 1.24007812 1.26171875 1.87890625 C3.30634971 14.76570872 7.88350566 26.15499576 13.4375 37.875 C13.89181396 38.83760742 14.34612793 39.80021484 14.81420898 40.79199219 C17.76652437 46.88295202 21.10779175 52.46717059 25 58 C25.94746094 59.39992188 25.94746094 59.39992188 26.9140625 60.828125 C48.32682238 91.13842437 81.8434486 113.55380166 118.5 120.3125 C119.99827836 120.55266521 121.49765549 120.78674347 123 121 C123 121.33 123 121.66 123 122 C82.41 122 41.82 122 0 122 C0 81.74 0 41.48 0 0 Z " fill="#FDFDFD" transform="translate(0,178)"/>
<path d="M0 0 C2.83991872 2.83991872 3.64091929 6.26611477 4.875 10 C5.24044922 11.04800781 5.24044922 11.04800781 5.61328125 12.1171875 C6.48479648 14.72721756 7.25333347 17.35131885 8 20 C8.35360596 21.25006836 8.70721191 22.50013672 9.0715332 23.78808594 C12.15852822 35.55927792 12.58835067 46.96975937 12.46655273 59.09667969 C12.43740515 62.26029453 12.44603444 65.42224332 12.45898438 68.5859375 C12.44736716 79.47297659 11.94992663 89.46543495 9 100 C8.69924561 101.18609863 8.39849121 102.37219727 8.08862305 103.59423828 C5.7221659 112.85201153 1.99579779 121.35740366 -2 130 C-3.32 129.34 -4.64 128.68 -6 128 C-6 127.01 -6 126.02 -6 125 C-4.515 124.505 -4.515 124.505 -3 124 C1.21300581 118.58327824 1.24930811 114.52023745 1.015625 107.78515625 C0.99701877 104.4685956 1.79599832 102.07689318 3 99 C4.44965695 93.05536359 5.28129182 87.12701166 5.75390625 81.03125 C6 79 6 79 7 77 C7.15469367 74.82325217 7.25002106 72.6421652 7.31640625 70.4609375 C7.35830078 69.15898437 7.40019531 67.85703125 7.44335938 66.515625 C7.48317299 65.13541955 7.52288522 63.75521117 7.5625 62.375 C7.60569407 60.98696585 7.64930865 59.59894472 7.69335938 58.2109375 C7.79972 54.80739744 7.90174714 51.40378222 8 48 C7.34 47.67 6.68 47.34 6 47 C5.65625 44.19140625 5.65625 44.19140625 5.5 40.5625 C5.16110138 34.54242823 4.39102291 28.86120331 3 23 C2.34 23.33 1.68 23.66 1 24 C1.020625 22.989375 1.04125 21.97875 1.0625 20.9375 C1.08392843 16.99700491 1.08392843 16.99700491 0.4375 13.125 C0.293125 12.09375 0.14875 11.0625 0 10 C0.33 9.67 0.66 9.34 1 9 C0.91062197 7.47480724 0.75462854 5.95318071 0.5625 4.4375 C0.40974609 3.19806641 0.40974609 3.19806641 0.25390625 1.93359375 C0.17011719 1.29550781 0.08632813 0.65742187 0 0 Z " fill="#716F7C" transform="translate(288,88)"/>
<path d="M0 0 C1.9375 0.5 1.9375 0.5 4 2 C4.68790422 4.69658452 4.81946464 7.2017019 5 10 C5.66 10 6.32 10 7 10 C7.33 11.03125 7.66 12.0625 8 13.125 C9.73735571 17.25121981 12.41811303 19.1834247 16.0625 21.640625 C18 23 18 23 19.40234375 24.50390625 C26.21164938 30.88034649 36.47547718 31.68049158 45.32202148 31.52050781 C56.46775315 31.00359057 65.25195032 28.22514633 73 20 C73.54398437 19.49597656 74.08796875 18.99195313 74.6484375 18.47265625 C76.25102216 16.92774686 76.25102216 16.92774686 77 14 C78.62332967 12.61423077 80.28724465 11.27358732 82 10 C80.65747612 21.47857915 71.31695835 31.93839903 62.54296875 38.96875 C49.1656237 48.11428125 34.19978232 52.56399432 18 50 C15.73730469 48.97460938 15.73730469 48.97460938 14 48 C14.66 48 15.32 48 16 48 C16.33 47.01 16.66 46.02 17 45 C17.99 45.66 18.98 46.32 20 47 C21.93137682 47.27356843 21.93137682 47.27356843 24.01171875 47.1953125 C25.14770508 47.18564453 25.14770508 47.18564453 26.30664062 47.17578125 C27.09232422 47.15902344 27.87800781 47.14226562 28.6875 47.125 C29.48478516 47.11597656 30.28207031 47.10695312 31.10351562 47.09765625 C33.069139 47.07411585 35.03460775 47.03824547 37 47 C37 46.34 37 45.68 37 45 C39.31 44.67 41.62 44.34 44 44 C44.33 42.68 44.66 41.36 45 40 C46.32 40 47.64 40 49 40 C49 40.66 49 41.32 49 42 C49.86625 41.21625 50.7325 40.4325 51.625 39.625 C54.55056447 37.16613272 57.27536762 35.97549896 61 35 C61 34.01 61 33.02 61 32 C59.948125 32.433125 59.948125 32.433125 58.875 32.875 C57.92625 33.24625 56.9775 33.6175 56 34 C55.15695313 34.36738281 54.31390625 34.73476562 53.4453125 35.11328125 C48.7804831 36.31386659 44.74652295 35.84648383 40 35.3125 C38.68515625 35.19358398 38.68515625 35.19358398 37.34375 35.07226562 C32.2805865 34.54231101 28.45340334 33.63527078 24 31 C23.05125 30.505 22.1025 30.01 21.125 29.5 C20.073125 28.7575 20.073125 28.7575 19 28 C19 27.01 19 26.02 19 25 C15.7 24.67 12.4 24.34 9 24 C8.87625 23.278125 8.7525 22.55625 8.625 21.8125 C8.0095069 19.04278106 7.11555626 16.6029646 6 14 C5.34 14 4.68 14 4 14 C3.67 11.69 3.34 9.38 3 7 C2.34 7 1.68 7 1 7 C0.67 4.69 0.34 2.38 0 0 Z " fill="#DBC974" transform="translate(124,168)"/>
<path d="M0 0 C1.32 0.33 2.64 0.66 4 1 C4 2.65 4 4.3 4 6 C4.66 6.33 5.32 6.66 6 7 C6 7.66 6 8.32 6 9 C6.66 9.33 7.32 9.66 8 10 C7.979375 10.804375 7.95875 11.60875 7.9375 12.4375 C7.70366379 14.93354885 7.70366379 14.93354885 9 16 C9.29386153 19.72224599 9.14809171 20.77786243 7 24 C7.99 24.33 8.98 24.66 10 25 C10.33 25.99 10.66 26.98 11 28 C11.66 27.34 12.32 26.68 13 26 C13.99 26.66 14.98 27.32 16 28 C16.26031454 29.9848984 16.514714 31.9714689 16.69921875 33.96484375 C17.1280058 36.86611714 18.18863569 38.71902272 20 41 C22.06700655 42.32793606 22.06700655 42.32793606 24 43 C23.34 44.98 22.68 46.96 22 49 C22.66 49 23.32 49 24 49 C27 52.46153846 27 52.46153846 27 55 C28.65 55.66 30.3 56.32 32 57 C31.67 58.65 31.34 60.3 31 62 C31.99 62 32.98 62 34 62 C35.01866229 63.65532623 36.01810813 65.32260138 37 67 C37.99 67.33 38.98 67.66 40 68 C40.6875 70.0625 40.6875 70.0625 41 72 C43.49064888 72.68707555 45.37886292 73 48 73 C47.67 74.65 47.34 76.3 47 78 C46.01 78 45.02 78 44 78 C44.99 79.98 45.98 81.96 47 84 C44 84 44 84 42.48535156 82.78173828 C41.9590918 82.21696777 41.43283203 81.65219727 40.890625 81.0703125 C40.30434326 80.44519775 39.71806152 79.82008301 39.11401367 79.17602539 C38.49888916 78.49918701 37.88376465 77.82234863 37.25 77.125 C36.61747314 76.43462646 35.98494629 75.74425293 35.33325195 75.03295898 C17.83979455 55.69285709 1.44753991 26.53823163 0 0 Z " fill="#403F44" transform="translate(0,176)"/>
<path d="M0 0 C0.495 0.99 0.495 0.99 1 2 C0 4 0 4 -2.4375 5.375 C-5.17765768 7.11266097 -5.74967178 8.11462718 -7 11 C-7.66 11.33 -8.32 11.66 -9 12 C-9.28875 12.639375 -9.5775 13.27875 -9.875 13.9375 C-11 16 -11 16 -12.9375 16.8125 C-15.37441648 17.94013345 -15.37441648 17.94013345 -16.4375 21.375 C-18 25 -18 25 -20.4375 26.9375 C-23.40292386 29.32430457 -24.39898089 31.37215489 -25.953125 34.7734375 C-27.45544227 37.96866453 -29.25911752 40.97711265 -31.046875 44.01953125 C-32.21682765 46.08422505 -32.21682765 46.08422505 -32 49 C-32.66 49 -33.32 49 -34 49 C-34.061875 49.845625 -34.12375 50.69125 -34.1875 51.5625 C-35.08896139 55.37637513 -36.52006026 57.28234751 -38.8515625 60.328125 C-40.34836271 62.50714027 -40.84984237 64.37224142 -41 67 C-40.67 67.66 -40.34 68.32 -40 69 C-40.165 69.639375 -40.33 70.27875 -40.5 70.9375 C-41.23602403 73.17665424 -41.23602403 73.17665424 -40 76 C-40 79.11257569 -40.17361624 81.10765685 -41 84 C-43.375 83.8125 -43.375 83.8125 -46 83 C-47.74206383 80.65200092 -48.07153741 78.91210203 -47.84375 76.0078125 C-43.44862386 50.90488051 -31.18662605 27.46819717 -15 8 C-14.67 8 -14.34 8 -14 8 C-14 9.65 -14 11.3 -14 13 C-13.34 13 -12.68 13 -12 13 C-11.66355469 12.15695313 -11.66355469 12.15695313 -11.3203125 11.296875 C-9.61328077 8.32724583 -7.45193456 6.49655833 -4.875 4.25 C-3.96492188 3.45078125 -3.05484375 2.6515625 -2.1171875 1.828125 C-1.41851562 1.22484375 -0.71984375 0.6215625 0 0 Z " fill="#55555A" transform="translate(48,44)"/>
<path d="M0 0 C5.754375 -0.020625 11.50875 -0.04125 17.4375 -0.0625 C19.25564209 -0.071604 21.07378418 -0.08070801 22.94702148 -0.09008789 C24.38004482 -0.09300711 25.81306898 -0.09555566 27.24609375 -0.09765625 C27.99669067 -0.10277222 28.7472876 -0.10788818 29.52062988 -0.11315918 C31.34747601 -0.11346992 33.17421683 -0.06231113 35 0 C36 1 36 1 36.1328125 3.31518555 C36.10906234 12.84271245 35.59987589 22.30809059 35 31.8125 C34.90328529 33.391254 34.80692895 34.97002999 34.7109375 36.54882812 C34.47807629 40.36615082 34.24041163 44.18314569 34 48 C33.67 48 33.34 48 33 48 C32.97494385 47.42556152 32.9498877 46.85112305 32.92407227 46.25927734 C32.80730125 43.63100279 32.68494581 41.00301605 32.5625 38.375 C32.52318359 37.47136719 32.48386719 36.56773438 32.44335938 35.63671875 C32.26379886 31.85213553 32.03683306 28.21714656 31.40234375 24.4765625 C31 22 31 22 32 20 C31.91089842 17.44192238 31.76705754 14.9237399 31.5625 12.375 C31.48418945 11.31539062 31.48418945 11.31539062 31.40429688 10.234375 C31.27458793 8.48920013 31.13795046 6.74454275 31 5 C25.54538831 3.61470179 20.63281599 2.7603057 15 3 C15 3.66 15 4.32 15 5 C13.906875 5.0825 12.81375 5.165 11.6875 5.25 C8.05417849 5.66424251 8.05417849 5.66424251 6.125 7.6875 C4.1483832 11.75054564 4 15.52728564 4 20 C4.66 20.99 5.32 21.98 6 23 C5.9765625 25.91796875 5.9765625 25.91796875 5.625 29.1875 C5.51414062 30.27417969 5.40328125 31.36085938 5.2890625 32.48046875 C5.19367188 33.31191406 5.09828125 34.14335938 5 35 C4.01 35 3.02 35 2 35 C1.34 35.99 0.68 36.98 0 38 C0 25.46 0 12.92 0 0 Z " fill="#9D8A30" transform="translate(89,82)"/>
<path d="M0 0 C19.17950623 0.39957305 38.10859576 8.99963674 54.6875 18.125 C55.8010083 18.73637817 55.8010083 18.73637817 56.93701172 19.36010742 C61.36991082 21.87026059 65.18445108 24.62308899 69 28 C68.01 29.485 68.01 29.485 67 31 C63.65015632 30.37095696 61.41521269 29.12106844 58.625 27.1875 C57.83480469 26.64867188 57.04460937 26.10984375 56.23046875 25.5546875 C54.45783922 24.31912436 52.69577293 23.06840924 50.9375 21.8125 C47.97173634 19.98256072 45.16624843 18.80177903 41.890625 17.6640625 C40.29370058 17.1031593 38.73418645 16.4374162 37.1875 15.75 C34.86708107 14.70718662 34.86708107 14.70718662 32 16 C31.360625 15.443125 30.72125 14.88625 30.0625 14.3125 C22.25144934 8.41435971 12.5314427 7.33799442 3 7 C3 6.34 3 5.68 3 5 C2.34 5 1.68 5 1 5 C0.67 5.66 0.34 6.32 0 7 C0 6.01 0 5.02 0 4 C0.66 4 1.32 4 2 4 C2 3.34 2 2.68 2 2 C1.34 2 0.68 2 0 2 C0 1.34 0 0.68 0 0 Z " fill="#121214" transform="translate(171,0)"/>
<path d="M0 0 C0.680625 0.721875 1.36125 1.44375 2.0625 2.1875 C4.64665933 4.8012772 7.46867014 6.79492109 10.546875 8.7890625 C12 10 12 10 13 13 C12.34 13 11.68 13 11 13 C11 13.99 11 14.98 11 16 C11.99 15.67 12.98 15.34 14 15 C14.2475 15.969375 14.495 16.93875 14.75 17.9375 C15.6228584 21.09612445 15.6228584 21.09612445 17.875 21.8125 C18.926875 21.9053125 18.926875 21.9053125 20 22 C21.051875 22.309375 21.051875 22.309375 22.125 22.625 C24.08039699 23.2156101 24.08039699 23.2156101 26 22 C26 22.99 26 23.98 26 25 C27.4540625 24.9690625 27.4540625 24.9690625 28.9375 24.9375 C32 25 32 25 33 26 C35.57708556 26.15456568 38.10892521 26.23172843 40.6875 26.25 C41.39583984 26.270625 42.10417969 26.29125 42.83398438 26.3125 C47.66982953 26.34822185 50.73119892 25.47502962 55 23 C58 22 58 22 61.0625 21.75 C62.031875 21.5025 63.00125 21.255 64 21 C65.13545562 18.70465742 65.13545562 18.70465742 66 16 C67.66666667 14.33333333 69.33333333 12.66666667 71 11 C71.70514846 8.85266073 71.70514846 8.85266073 72 7 C72.66 6.67 73.32 6.34 74 6 C74 4.35 74 2.7 74 1 C75.98 1.99 77.96 2.98 80 4 C79.65930765 7.15140423 79.41923159 8.60781561 77.0625 10.8125 C75 12 75 12 73 12 C72.67 13.32 72.34 14.64 72 16 C71.34 16 70.68 16 70 16 C69.34 17.32 68.68 18.64 68 20 C67.34 20 66.68 20 66 20 C65.505 21.485 65.505 21.485 65 23 C54.48584364 30.15857454 42.43594587 31.52573169 30 30 C25.41918708 28.99105324 21.02698814 27.41891842 17 25 C16.67 24.01 16.34 23.02 16 22 C15.278125 21.71125 14.55625 21.4225 13.8125 21.125 C9.52756833 19.41102733 6.14352078 16.76725938 3.625 12.875 C3 11 3 11 3 8 C2.34 8 1.68 8 1 8 C-0.35439668 5.29120665 -0.06501451 2.99066732 0 0 Z " fill="#A8A292" transform="translate(128,170)"/>
<path d="M0 0 C2.57146057 2.57146057 2.80117997 4.6050417 3.625 8.125 C3.88539062 9.22070312 4.14578125 10.31640625 4.4140625 11.4453125 C4.70410156 12.70988281 4.70410156 12.70988281 5 14 C5.66 14 6.32 14 7 14 C8.625 16.5 8.625 16.5 10 19 C10.66 18.67 11.32 18.34 12 18 C13.4949015 19.4949015 14.19851251 21.05353038 15 23 C14.67 23.99 14.34 24.98 14 26 C17.01031744 26.93423645 17.86650268 27.04449911 21 26 C21.70074844 29.153368 22 31.72724974 22 35 C23.485 34.505 23.485 34.505 25 34 C28.24578638 35.86878609 29.36939277 37.73878554 31 41 C34.08801227 42.17072259 34.08801227 42.17072259 37.875 42.25 C42.26197986 42.72754947 44.1969871 44.58382802 47 48 C46.505 48.99 46.505 48.99 46 50 C33.85932806 49.76194761 23.90334661 41.96527061 15.59375 33.7578125 C7.39232824 25.03762612 0 12.24728629 0 0 Z " fill="#D6C57E" transform="translate(90,166)"/>
<path d="M0 0 C-1 3 -1 3 -3 6 C-5.94140625 6.7734375 -5.94140625 6.7734375 -9.5625 7.375 C-15.09319923 8.44947122 -19.29702959 9.86726875 -24.06640625 12.81640625 C-26 14 -26 14 -29.375 15.4375 C-35.9341139 18.26470427 -42.27348686 21.56463824 -47.9375 25.9375 C-51 28 -51 28 -53.19140625 27.62890625 C-54.08666016 27.31759766 -54.08666016 27.31759766 -55 27 C-55 26.01 -55 25.02 -55 24 C-53.00498982 22.44149436 -51.08702911 21.12692143 -48.9375 19.8125 C-47.99173096 19.22311646 -47.99173096 19.22311646 -47.02685547 18.62182617 C-16.15773519 -0.36722125 -16.15773519 -0.36722125 0 0 Z " fill="#181819" transform="translate(113,4)"/>
<path d="M0 0 C0.72822464 0.00141495 1.45644928 0.0028299 2.20674133 0.00428772 C4.52979664 0.00987966 6.85275513 0.02243063 9.17578125 0.03515625 C10.75195173 0.04017229 12.32812373 0.04473502 13.90429688 0.04882812 C17.76566223 0.05984645 21.62695533 0.07710551 25.48828125 0.09765625 C25.48828125 1.08765625 25.48828125 2.07765625 25.48828125 3.09765625 C13.93828125 3.09765625 2.38828125 3.09765625 -9.51171875 3.09765625 C-9.51171875 28.83765625 -9.51171875 54.57765625 -9.51171875 81.09765625 C-9.84171875 81.09765625 -10.17171875 81.09765625 -10.51171875 81.09765625 C-10.84171875 83.07765625 -11.17171875 85.05765625 -11.51171875 87.09765625 C-11.84171875 87.09765625 -12.17171875 87.09765625 -12.51171875 87.09765625 C-12.85881575 70.48568856 -13.17702385 53.87335896 -13.45776367 37.26013184 C-13.50584492 34.44193973 -13.55636912 31.62380345 -13.60742188 28.80566406 C-13.67927968 24.7155357 -13.72459857 20.62574563 -13.76171875 16.53515625 C-13.78298828 15.39280518 -13.80425781 14.2504541 -13.82617188 13.07348633 C-13.83068359 12.04892334 -13.83519531 11.02436035 -13.83984375 9.96875 C-13.84918945 9.1120874 -13.85853516 8.2554248 -13.86816406 7.37280273 C-13.42204882 4.52530411 -12.48270262 3.17631103 -10.51171875 1.09765625 C-6.9424449 -0.0921017 -3.71224903 -0.0271253 0 0 Z " fill="#494532" transform="translate(98.51171875,78.90234375)"/>
<path d="M0 0 C2.51046391 2.1830121 3.55335823 3.68708981 4 7 C3.31005859 8.85253906 3.31005859 8.85253906 2.1484375 10.765625 C1.71547363 11.48339111 1.28250977 12.20115723 0.83642578 12.94067383 C0.35415527 13.70275146 -0.12811523 14.4648291 -0.625 15.25 C-1.11629395 16.03979248 -1.60758789 16.82958496 -2.11376953 17.64331055 C-10.07603849 30.1456448 -19.48809007 41.62984075 -31 51 C-31.495 49.515 -31.495 49.515 -32 48 C-31.01 47.505 -31.01 47.505 -30 47 C-30.12375 46.278125 -30.2475 45.55625 -30.375 44.8125 C-30 42 -30 42 -27.125 39.25 C-24 37 -24 37 -22 36 C-21.29605388 34.68596724 -20.63654342 33.3479743 -20 32 C-18.26988517 28.44871167 -16.66510141 26.67710824 -13.375 24.625 C-10.17545196 22.51666624 -10.0558867 22.22727258 -9.0625 18.1875 C-9.041875 17.135625 -9.02125 16.08375 -9 15 C-8.34 15 -7.68 15 -7 15 C-6.67 14.01 -6.34 13.02 -6 12 C-3.9375 11.3125 -3.9375 11.3125 -2 11 C-1.90912109 9.93458984 -1.90912109 9.93458984 -1.81640625 8.84765625 C-1.73261719 7.92855469 -1.64882813 7.00945312 -1.5625 6.0625 C-1.48128906 5.14597656 -1.40007812 4.22945312 -1.31640625 3.28515625 C-1 1 -1 1 0 0 Z " fill="#353438" transform="translate(281,213)"/>
<path d="M0 0 C1.32 0.33 2.64 0.66 4 1 C4 2.65 4 4.3 4 6 C4.66 6.33 5.32 6.66 6 7 C6 7.66 6 8.32 6 9 C6.66 9.33 7.32 9.66 8 10 C7.979375 10.804375 7.95875 11.60875 7.9375 12.4375 C7.70366379 14.93354885 7.70366379 14.93354885 9 16 C9.29386153 19.72224599 9.14809171 20.77786243 7 24 C7.99 24.33 8.98 24.66 10 25 C10.33 25.99 10.66 26.98 11 28 C11.66 27.34 12.32 26.68 13 26 C13.99 26.66 14.98 27.32 16 28 C16.26031454 29.9848984 16.514714 31.9714689 16.69921875 33.96484375 C17.1280058 36.86611714 18.18863569 38.71902272 20 41 C22.06700655 42.32793606 22.06700655 42.32793606 24 43 C23.67 44.32 23.34 45.64 23 47 C22.01 47 21.02 47 20 47 C19.34 48.32 18.68 49.64 18 51 C0.93807692 17.19807692 0.93807692 17.19807692 0 0 Z " fill="#524F58" transform="translate(0,176)"/>
<path d="M0 0 C0 0.99 0 1.98 0 3 C-0.66 3 -1.32 3 -2 3 C-2.33 4.32 -2.66 5.64 -3 7 C-3.66 7 -4.32 7 -5 7 C-5.33 7.66 -5.66 8.32 -6 9 C-7.11375 8.8453125 -7.11375 8.8453125 -8.25 8.6875 C-11.22452871 8.72669547 -11.22452871 8.72669547 -13.25 11.375 C-14.97157537 13.83978847 -14.97157537 13.83978847 -16 16 C-19.95618573 17.29336841 -23.91982848 18.20663332 -28 19 C-31.69418201 20.231394 -33.35109746 22.20791354 -36 25 C-36.66 24.67 -37.32 24.34 -38 24 C-39.35339258 23.95421928 -40.70887217 23.96180239 -42.0625 24 C-45.372641 24.02678108 -48.63746354 23.95983311 -51.9375 23.6875 C-52.66839844 23.62949219 -53.39929688 23.57148438 -54.15234375 23.51171875 C-56 23 -56 23 -58 20 C-56.56720703 19.94392578 -56.56720703 19.94392578 -55.10546875 19.88671875 C-47.02795622 19.47599777 -39.69277319 18.68404787 -32 16 C-31.02417969 15.66097656 -30.04835937 15.32195312 -29.04296875 14.97265625 C-21.08747171 11.93955917 -13.19240415 7.68624624 -7.44140625 1.2578125 C-5.18052457 -0.7150978 -2.84875248 0 0 0 Z " fill="#1C150E" transform="translate(200,199)"/>
<path d="M0 0 C1.9375 0.5 1.9375 0.5 4 2 C4.68790422 4.69658452 4.81946464 7.2017019 5 10 C5.66 10 6.32 10 7 10 C7.33 11.03125 7.66 12.0625 8 13.125 C9.73735571 17.25121981 12.41811303 19.1834247 16.0625 21.640625 C18 23 18 23 19.40234375 24.50390625 C26.9839457 31.60354818 38.23121633 31.63239018 47.93359375 31.37109375 C51.54268964 31.15820235 54.59572025 30.23653211 58 29 C60.375 29.375 60.375 29.375 62 30 C59.13104274 33.29398797 57.32353282 34.44570092 53 35 C52.01 35.33 51.02 35.66 50 36 C46.71461988 35.96454487 43.45542418 35.57702601 40.1875 35.25 C39.29740234 35.17523438 38.40730469 35.10046875 37.49023438 35.0234375 C32.36001376 34.52144408 28.50676953 33.68606233 24 31 C23.05125 30.505 22.1025 30.01 21.125 29.5 C20.073125 28.7575 20.073125 28.7575 19 28 C19 27.01 19 26.02 19 25 C15.7 24.67 12.4 24.34 9 24 C8.87625 23.278125 8.7525 22.55625 8.625 21.8125 C8.0095069 19.04278106 7.11555626 16.6029646 6 14 C5.34 14 4.68 14 4 14 C3.67 11.69 3.34 9.38 3 7 C2.34 7 1.68 7 1 7 C0.67 4.69 0.34 2.38 0 0 Z " fill="#D7C680" transform="translate(124,168)"/>
<path d="M0 0 C2.52699157 0.91740781 5.00998981 1.86843909 7.5 2.875 C14.07566009 5.4543686 20.44632535 7.16307067 27.40234375 8.45703125 C30 9 30 9 31 10 C33.32817964 10.36760731 35.6618385 10.70241581 38 11 C36.6875 13.0625 36.6875 13.0625 34 15 C26.47432304 15.27778001 19.4031175 13.2004564 12.375 10.75 C11.4984375 10.46253906 10.621875 10.17507813 9.71875 9.87890625 C-5.67579172 4.64841655 -5.67579172 4.64841655 -8 0 C-5.04702046 -1.47648977 -3.20145772 -0.71060393 0 0 Z " fill="#151516" transform="translate(89,284)"/>
<path d="M0 0 C-1.45774468 4.66900832 -5.33101896 6.22488796 -9.375 8.375 C-10.45104492 8.95882446 -10.45104492 8.95882446 -11.54882812 9.55444336 C-13.00581012 10.3408309 -14.46577085 11.12172548 -15.92871094 11.89697266 C-17.77921445 12.88242467 -19.61348941 13.89821236 -21.4453125 14.91796875 C-27.22390317 18.02894915 -31.40422034 19.97715254 -38 19 C-38.66 18.34 -39.32 17.68 -40 17 C-24.45684126 8.93078568 -24.45684126 8.93078568 -16 7 C-16 6.34 -16 5.68 -16 5 C-13.03 4.01 -10.06 3.02 -7 2 C-7 1.34 -7 0.68 -7 0 C-4.3333581 -1.33332095 -2.83319697 -0.67102033 0 0 Z " fill="#19191A" transform="translate(236,273)"/>
<path d="M0 0 C0.33 0.66 0.66 1.32 1 2 C0 4 0 4 -2.4375 5.375 C-5.17765768 7.11266097 -5.74967178 8.11462718 -7 11 C-7.99 11.495 -7.99 11.495 -9 12 C-9.28875 12.639375 -9.5775 13.27875 -9.875 13.9375 C-11 16 -11 16 -12.9375 16.8125 C-15.37441648 17.94013345 -15.37441648 17.94013345 -16.4375 21.375 C-18.15425265 25.35786615 -19.61792898 26.44282435 -23 29 C-23.70125 30.0725 -24.4025 31.145 -25.125 32.25 C-26.053125 33.61125 -26.053125 33.61125 -27 35 C-27.99 35 -28.98 35 -30 35 C-29 32 -29 32 -27 30 C-27.17442627 29.38278076 -27.34885254 28.76556152 -27.52856445 28.12963867 C-28 26 -28 26 -27.04370117 24.0012207 C-26.54845947 23.31632568 -26.05321777 22.63143066 -25.54296875 21.92578125 C-25.00736328 21.17619141 -24.47175781 20.42660156 -23.91992188 19.65429688 C-23.34822266 18.88150391 -22.77652344 18.10871094 -22.1875 17.3125 C-21.34735352 16.1359082 -21.34735352 16.1359082 -20.49023438 14.93554688 C-16.30758082 9.15379041 -16.30758082 9.15379041 -14 8 C-14 9.65 -14 11.3 -14 13 C-13.34 13 -12.68 13 -12 13 C-11.66355469 12.15695313 -11.66355469 12.15695313 -11.3203125 11.296875 C-9.61328077 8.32724583 -7.45193456 6.49655833 -4.875 4.25 C-3.96492188 3.45078125 -3.05484375 2.6515625 -2.1171875 1.828125 C-1.41851562 1.22484375 -0.71984375 0.6215625 0 0 Z " fill="#45444A" transform="translate(48,44)"/>
<path d="M0 0 C1.39816389 4.19449167 0.76483839 7.33535173 -1.0625 11.3125 C-2.21958144 14.15507939 -2.21958144 14.15507939 -2 18 C-2 22 -2 22 -3 24.4375 C-4.83099416 29.12942255 -4.57818646 34.26544062 -3 39 C-3.02587891 40.92260742 -3.02587891 40.92260742 -3.2265625 43.10546875 C-4.32529172 57.02132344 -2.9325929 68.58796918 1 82 C0.01 82.99 0.01 82.99 -1 84 C-2.98 77.565 -2.98 77.565 -5 71 C-5.99 71.99 -5.99 71.99 -7 73 C-7.12641363 67.43780015 -7.12641363 67.43780015 -6.46875 65.16015625 C-5.86419628 62.37417118 -6.14864567 60.02255176 -6.4375 57.1875 C-8.05374697 38.09026607 -6.5895248 19.3655815 -1 1 C-0.67 0.67 -0.34 0.34 0 0 Z " fill="#4C4B54" transform="translate(23,106)"/>
<path d="M0 0 C2.88894417 2.88894417 3.69335771 6.44667963 4.9375 10.25 C5.20256348 11.05469727 5.46762695 11.85939453 5.74072266 12.68847656 C8.60748485 21.5935879 11.25413985 30.56858777 11 40 C10.34 39.67 9.68 39.34 9 39 C7.515 39.495 7.515 39.495 6 40 C5.01 34.39 4.02 28.78 3 23 C2.34 23.33 1.68 23.66 1 24 C1.020625 22.989375 1.04125 21.97875 1.0625 20.9375 C1.08392843 16.99700491 1.08392843 16.99700491 0.4375 13.125 C0.293125 12.09375 0.14875 11.0625 0 10 C0.33 9.67 0.66 9.34 1 9 C0.91062197 7.47480724 0.75462854 5.95318071 0.5625 4.4375 C0.46066406 3.61121094 0.35882813 2.78492187 0.25390625 1.93359375 C0.17011719 1.29550781 0.08632813 0.65742187 0 0 Z " fill="#636369" transform="translate(288,88)"/>
<path d="M0 0 C5.754375 -0.020625 11.50875 -0.04125 17.4375 -0.0625 C19.25564209 -0.071604 21.07378418 -0.08070801 22.94702148 -0.09008789 C24.38004482 -0.09300711 25.81306898 -0.09555566 27.24609375 -0.09765625 C27.99669067 -0.10277222 28.7472876 -0.10788818 29.52062988 -0.11315918 C31.34747601 -0.11346992 33.17421683 -0.06231113 35 0 C36 1 36 1 36.09765625 3.94140625 C36.08605469 5.13636719 36.07445312 6.33132812 36.0625 7.5625 C36.05347656 8.76003906 36.04445312 9.95757812 36.03515625 11.19140625 C36.02355469 12.11824219 36.01195312 13.04507813 36 14 C35.67 14 35.34 14 35 14 C34.93941406 13.28972656 34.87882812 12.57945313 34.81640625 11.84765625 C34.73261719 10.92855469 34.64882812 10.00945312 34.5625 9.0625 C34.48128906 8.14597656 34.40007812 7.22945313 34.31640625 6.28515625 C34.23955024 4.03840268 34.23955024 4.03840268 33 3 C26.52329709 1.97855737 20.0450827 1.6994751 13.5 1.4375 C11.98019531 1.37272461 11.98019531 1.37272461 10.4296875 1.30664062 C7.95324717 1.20150872 5.47663885 1.10034657 3 1 C2.67 6.61 2.34 12.22 2 18 C2.66 18.33 3.32 18.66 4 19 C6.3734275 22.45519378 6.0672349 25.18143895 5.625 29.25 C5.51414062 30.32765625 5.40328125 31.4053125 5.2890625 32.515625 C5.19367188 33.33546875 5.09828125 34.1553125 5 35 C4.01 35 3.02 35 2 35 C1.34 35.99 0.68 36.98 0 38 C0 25.46 0 12.92 0 0 Z " fill="#9B8C53" transform="translate(89,82)"/>
<path d="M0 0 C0.33 0 0.66 0 1 0 C1.33 1.98 1.66 3.96 2 6 C2.66 5.67 3.32 5.34 4 5 C4.22839423 10.32227776 3.48636417 14.88047918 1.9375 19.9375 C1.7206958 20.66316162 1.5038916 21.38882324 1.28051758 22.13647461 C-1.17196969 30.03438721 -4.50524286 37.51698976 -8 45 C-9.32 44.34 -10.64 43.68 -12 43 C-12 42.01 -12 41.02 -12 40 C-10.515 39.505 -10.515 39.505 -9 39 C-4.78699419 33.58327824 -4.75069189 29.52023745 -4.984375 22.78515625 C-5.00298123 19.4685956 -4.20400168 17.07689318 -3 14 C-2.43511533 11.46411488 -1.94600931 8.92014859 -1.46484375 6.3671875 C-1.04361651 4.22211433 -0.5506849 2.11501986 0 0 Z " fill="#64626D" transform="translate(294,173)"/>
<path d="M0 0 C0.33 0 0.66 0 1 0 C2.125 5.625 2.125 5.625 1 9 C1.66 9 2.32 9 3 9 C3.56790051 13.82715432 1.86432858 16.20897687 -1 20 C-1.66 20.66 -2.32 21.32 -3 22 C-4.55757504 26.49966123 -5.11014331 30.26383747 -5 35 C-5.33 35.66 -5.66 36.32 -6 37 C-8.5625 37.625 -8.5625 37.625 -11 38 C-10.53504654 32.65303526 -9.07465547 28.34828795 -6.9375 23.4296875 C-5.985087 20.96135048 -5.44470947 18.60340338 -5 16 C-4.34 16 -3.68 16 -3 16 C-2.95101562 15.18015625 -2.90203125 14.3603125 -2.8515625 13.515625 C-2.77679688 12.43796875 -2.70203125 11.3603125 -2.625 10.25 C-2.52058594 8.64898437 -2.52058594 8.64898437 -2.4140625 7.015625 C-2.0271777 4.19793568 -1.44313834 2.4169634 0 0 Z " fill="#1F1A0E" transform="translate(213,155)"/>
<path d="M0 0 C0.33 0 0.66 0 1 0 C1.00364563 0.91438339 1.00729126 1.82876678 1.01104736 2.77085876 C1.04919317 11.46301441 1.10634166 20.15480493 1.18390274 28.84670162 C1.22311583 33.31342296 1.25543065 37.77995487 1.27099609 42.24682617 C1.28633765 46.57188779 1.32108392 50.89642765 1.36830902 55.22125435 C1.38294508 56.85668925 1.39103057 58.49219873 1.39188385 60.1276989 C1.40389457 71.62453337 2.95860908 81.91638896 6 93 C6.33721412 94.33235713 6.67298604 95.66510272 7 97 C6.34 97 5.68 97 5 97 C4.505 97.99 4.505 97.99 4 99 C3.72285156 98.09636719 3.44570312 97.19273437 3.16015625 96.26171875 C2.61681641 94.49248047 2.61681641 94.49248047 2.0625 92.6875 C1.70285156 91.51574219 1.34320313 90.34398437 0.97265625 89.13671875 C0.33627721 87.08446023 -0.32053379 85.03839863 -1 83 C-1.06241437 80.33645848 -1.06675846 77.70230425 -1.02172852 75.0402832 C-1.01212097 74.23029877 -1.00251343 73.42031433 -0.99261475 72.58578491 C-0.95962249 69.907362 -0.91929098 67.22910207 -0.87890625 64.55078125 C-0.85460536 62.69419429 -0.83076178 60.83760129 -0.80735779 58.98100281 C-0.74451382 54.09338506 -0.675448 49.20587415 -0.60510254 44.31835938 C-0.53442197 39.33142972 -0.46960334 34.34442429 -0.40429688 29.35742188 C-0.27528048 19.57153131 -0.13969346 9.78574357 0 0 Z " fill="#34311C" transform="translate(87,84)"/>
<path d="M0 0 C1.32 0 2.64 0 4 0 C4 0.66 4 1.32 4 2 C4.61875 1.79375 5.2375 1.5875 5.875 1.375 C6.57625 1.25125 7.2775 1.1275 8 1 C8.66 1.66 9.32 2.32 10 3 C0.8372108 7.83128885 -6.86958336 10.50806024 -17.3125 10.3125 C-18.19228516 10.31572266 -19.07207031 10.31894531 -19.97851562 10.32226562 C-24.27524683 10.28637797 -27.2008152 10.16488356 -31 8 C-30.34 8 -29.68 8 -29 8 C-28.67 7.01 -28.34 6.02 -28 5 C-27.01 5.66 -26.02 6.32 -25 7 C-23.06862318 7.27356843 -23.06862318 7.27356843 -20.98828125 7.1953125 C-20.23095703 7.18886719 -19.47363281 7.18242187 -18.69335938 7.17578125 C-17.90767578 7.15902344 -17.12199219 7.14226562 -16.3125 7.125 C-15.11657227 7.11146484 -15.11657227 7.11146484 -13.89648438 7.09765625 C-11.930861 7.07411585 -9.96539225 7.03824547 -8 7 C-8 6.34 -8 5.68 -8 5 C-4.535 4.505 -4.535 4.505 -1 4 C-0.67 2.68 -0.34 1.36 0 0 Z " fill="#DCCA7C" transform="translate(169,208)"/>
<path d="M0 0 C0.33 0 0.66 0 1 0 C1.03738281 1.00417969 1.07476562 2.00835937 1.11328125 3.04296875 C1.4744653 11.00859429 2.27862933 18.39495016 4.37890625 26.1328125 C5.05028074 29.23211361 5.31767921 31.84110535 5 35 C4.01 35.66 3.02 36.32 2 37 C2 35.35 2 33.7 2 32 C1.34 32 0.68 32 0 32 C0 41.9 0 51.8 0 62 C-0.33 62 -0.66 62 -1 62 C-1.0250233 55.74186482 -1.0430104 49.48375981 -1.05493164 43.22558594 C-1.05991001 41.10383597 -1.06669512 38.98208935 -1.07543945 36.86035156 C-1.12493024 24.5284113 -1.0024843 12.29653794 0 0 Z " fill="#AE9F5E" transform="translate(90,104)"/>
<path d="M0 0 C2.57146057 2.57146057 2.80117997 4.6050417 3.625 8.125 C3.88539062 9.22070312 4.14578125 10.31640625 4.4140625 11.4453125 C4.70410156 12.70988281 4.70410156 12.70988281 5 14 C5.66 14 6.32 14 7 14 C8.625 16.5 8.625 16.5 10 19 C10.66 18.67 11.32 18.34 12 18 C13.4949015 19.4949015 14.19851251 21.05353038 15 23 C14.67 23.99 14.34 24.98 14 26 C17.01031744 26.93423645 17.86650268 27.04449911 21 26 C21.33 27.65 21.66 29.3 22 31 C21.34 31.33 20.68 31.66 20 32 C19.67 32.33 19.34 32.66 19 33 C14.05505366 31.44587401 10.68087359 28.7875854 7.97436523 24.29907227 C7.02710428 22.4298407 6.15764719 20.54246379 5.3125 18.625 C5.01794922 17.99078125 4.72339844 17.3565625 4.41992188 16.703125 C1.94265456 11.24757001 0 6.06479125 0 0 Z " fill="#D3C06E" transform="translate(90,166)"/>
<path d="M0 0 C8.02616194 0.40621064 15.32721195 1.59847776 23 4 C22.67 5.65 22.34 7.3 22 9 C20.57107422 8.7834375 20.57107422 8.7834375 19.11328125 8.5625 C17.85902344 8.376875 16.60476562 8.19125 15.3125 8 C14.07113281 7.814375 12.82976562 7.62875 11.55078125 7.4375 C8.64113629 7.07899589 5.92299978 6.91057744 3 7 C3 6.34 3 5.68 3 5 C2.34 5 1.68 5 1 5 C0.67 5.66 0.34 6.32 0 7 C0 6.01 0 5.02 0 4 C0.66 4 1.32 4 2 4 C2 3.34 2 2.68 2 2 C1.34 2 0.68 2 0 2 C0 1.34 0 0.68 0 0 Z " fill="#0F0F11" transform="translate(171,0)"/>
<path d="M0 0 C2.49604304 3.74406455 3 6.54151685 3 11 C2.814375 11.825 2.62875 12.65 2.4375 13.5 C1.77538363 16.11786478 1.77538363 16.11786478 3 19 C3 22.11257569 2.82638376 24.10765685 2 27 C-0.375 26.8125 -0.375 26.8125 -3 26 C-4.80070636 23.57296099 -5.08576244 21.82065785 -4.7734375 18.83203125 C-3.57941883 12.46730461 -1.7747597 6.2234907 0 0 Z " fill="#6D6B75" transform="translate(5,101)"/>
<path d="M0 0 C3.09146784 2.99485947 5.91291833 6.08264649 8.6875 9.375 C18.0971309 19.98286106 30.51975268 25.40331796 44 29 C44 29.66 44 30.32 44 31 C38.160967 30.47865777 33.39089117 29.25790833 28 27 C27.36707031 26.76152344 26.73414062 26.52304688 26.08203125 26.27734375 C22.19467383 24.76052838 19.82516535 23.02000434 17 20 C16.360625 19.690625 15.72125 19.38125 15.0625 19.0625 C12.15413032 17.56424895 10.28003496 15.33432151 8 13 C6.94431077 12.15805526 5.88172738 11.32468389 4.8125 10.5 C1.98637692 7.98789059 0.94728148 6.59966964 0 3 C0 2.01 0 1.02 0 0 Z " fill="#2C2410" transform="translate(97,189)"/>
<path d="M0 0 C1.32 0.33 2.64 0.66 4 1 C4 2.65 4 4.3 4 6 C4.66 6.33 5.32 6.66 6 7 C6 7.66 6 8.32 6 9 C6.66 9.33 7.32 9.66 8 10 C7.979375 10.804375 7.95875 11.60875 7.9375 12.4375 C7.70366379 14.93354885 7.70366379 14.93354885 9 16 C9.29386153 19.72224599 9.14809171 20.77786243 7 24 C7.99 24.33 8.98 24.66 10 25 C10.6875 27.0625 10.6875 27.0625 11 29 C10.01 29.33 9.02 29.66 8 30 C4.16884047 20.23054321 0.71377942 10.52824639 0 0 Z " fill="#616067" transform="translate(0,176)"/>
<path d="M0 0 C3.875 1.875 3.875 1.875 5 3 C5.72574219 3.28101563 6.45148438 3.56203125 7.19921875 3.8515625 C10.27375591 5.11225138 12.9802095 6.63846847 15.8125 8.375 C17.27623047 9.25285156 17.27623047 9.25285156 18.76953125 10.1484375 C19.50558594 10.75945312 20.24164063 11.37046875 21 12 C21 13.32 21 14.64 21 16 C16.99142274 16 14.41721299 14.16432262 11.0625 12.1875 C10.44181641 11.83107422 9.82113281 11.47464844 9.18164062 11.10742188 C2.48758604 7.22216123 2.48758604 7.22216123 0 5 C-0.25 2.3125 -0.25 2.3125 0 0 Z " fill="#1B1A1E" transform="translate(61,269)"/>
<path d="M0 0 C-1 3 -1 3 -3 6 C-6.046875 6.94921875 -6.046875 6.94921875 -9.75 7.6875 C-10.96171875 7.93886719 -12.1734375 8.19023437 -13.421875 8.44921875 C-16.68964658 8.95222726 -19.70214575 9.10621923 -23 9 C-21.97064581 6.11175323 -21.33090762 5.16545381 -18.5390625 3.76953125 C-17.57742187 3.45371094 -16.61578125 3.13789062 -15.625 2.8125 C-14.19027344 2.32716797 -14.19027344 2.32716797 -12.7265625 1.83203125 C-8.26963819 0.47196696 -4.69571467 -0.10672079 0 0 Z " fill="#121214" transform="translate(113,4)"/>
<path d="M0 0 C2.50874842 2.18152037 3.58006727 3.68128636 4 7 C3.19555664 9.01464844 3.19555664 9.01464844 1.91015625 11.109375 C1.45576172 11.86347656 1.00136719 12.61757812 0.53320312 13.39453125 C0.04787109 14.17183594 -0.43746094 14.94914063 -0.9375 15.75 C-1.65969727 16.93916016 -1.65969727 16.93916016 -2.39648438 18.15234375 C-3.58674387 20.10861183 -4.78806991 22.05710972 -6 24 C-8.60774762 20.79678245 -9.34789916 19.1747899 -9 15 C-8.34 15 -7.68 15 -7 15 C-6.67 14.01 -6.34 13.02 -6 12 C-3.9375 11.3125 -3.9375 11.3125 -2 11 C-1.93941406 10.28972656 -1.87882812 9.57945312 -1.81640625 8.84765625 C-1.73261719 7.92855469 -1.64882813 7.00945312 -1.5625 6.0625 C-1.48128906 5.14597656 -1.40007812 4.22945312 -1.31640625 3.28515625 C-1 1 -1 1 0 0 Z " fill="#47464C" transform="translate(281,213)"/>
<path d="M0 0 C10.89 0 21.78 0 33 0 C33 0.99 33 1.98 33 3 C22.11 3 11.22 3 0 3 C0 2.01 0 1.02 0 0 Z " fill="#443826" transform="translate(91,79)"/>
<path d="M0 0 C1.43352212 0.00015908 2.86704998 0.00585132 4.30053711 0.01586914 C5.43041298 0.01799156 5.43041298 0.01799156 6.58311462 0.02015686 C8.99807646 0.02577163 11.41294687 0.03832656 13.82788086 0.05102539 C15.46134307 0.05603849 17.09480672 0.06060173 18.72827148 0.06469727 C22.74067671 0.07574585 26.75301326 0.09302033 30.76538086 0.11352539 C30.43538086 0.77352539 30.10538086 1.43352539 29.76538086 2.11352539 C19.53538086 1.78352539 9.30538086 1.45352539 -1.23461914 1.11352539 C-2.0927846 7.84509881 -2.0927846 7.84509881 -2.33227539 14.48852539 C-2.32905273 15.41020508 -2.32583008 16.33188477 -2.32250977 17.28149414 C-2.31413086 18.21606445 -2.30575195 19.15063477 -2.29711914 20.11352539 C-2.29260742 21.0790332 -2.2880957 22.04454102 -2.28344727 23.03930664 C-2.27177331 25.39744628 -2.25539935 27.75545141 -2.23461914 30.11352539 C-2.89461914 30.11352539 -3.55461914 30.11352539 -4.23461914 30.11352539 C-4.2592766 26.00179979 -4.27745873 21.89010261 -4.28955078 17.77832031 C-4.29458994 16.37857311 -4.30142131 14.97883119 -4.31005859 13.57910156 C-4.32214234 11.57106762 -4.32731721 9.56299582 -4.33227539 7.55493164 C-4.33751221 6.34522705 -4.34274902 5.13552246 -4.34814453 3.88916016 C-4.18496445 -0.10050519 -4.06088536 0.14252485 0 0 Z " fill="#D3D2D5" transform="translate(178.234619140625,81.886474609375)"/>
<path d="M0 0 C-0.61120941 2.75044235 -1.3452012 4.50968415 -3.6328125 6.22265625 C-8.57125746 8.92427614 -12.4113069 9.57814067 -18 9 C-18.66 8.34 -19.32 7.68 -20 7 C-18.43880578 6.20576139 -16.87598036 5.41472877 -15.3125 4.625 C-14.00732422 3.96371094 -14.00732422 3.96371094 -12.67578125 3.2890625 C-8.26024592 1.1618703 -4.95643331 -0.28322476 0 0 Z " fill="#141315" transform="translate(216,283)"/>
<path d="M0 0 C2.8202877 0.49769783 5.4072977 1.13848122 8.125 2.0625 C10.97136615 3.1550103 10.97136615 3.1550103 14 3 C13.67 4.65 13.34 6.3 13 8 C12.01 8 11.02 8 10 8 C10.99 9.98 11.98 11.96 13 14 C10 14 10 14 7.30078125 11.375 C6.29632542 10.25745974 5.30052871 9.13208967 4.3125 8 C3.80138672 7.42765625 3.29027344 6.8553125 2.76367188 6.265625 C1.5016986 4.85032787 0.24986967 3.42599731 -1 2 C-0.67 1.34 -0.34 0.68 0 0 Z " fill="#38373B" transform="translate(34,246)"/>
<path d="M0 0 C0 1.65 0 3.3 0 5 C-5.71735105 7.45029331 -9.79029227 8.33266291 -16 8 C-16.33 6.68 -16.66 5.36 -17 4 C-14.73050898 3.32844651 -12.4596039 2.6626037 -10.1875 2 C-8.92292969 1.62875 -7.65835938 1.2575 -6.35546875 0.875 C-3 0 -3 0 0 0 Z " fill="#0E0E0F" transform="translate(195,290)"/>
<path d="M0 0 C0.33 0 0.66 0 1 0 C1.01981934 0.95253662 1.03963867 1.90507324 1.06005859 2.88647461 C1.13679437 6.45947332 1.22539978 10.03210034 1.31738281 13.60473633 C1.35539443 15.14372355 1.39029293 16.68279124 1.421875 18.22192383 C1.59055048 26.34206682 1.79530481 34.12224767 4 42 C3.01 41.67 2.02 41.34 1 41 C1 41.66 1 42.32 1 43 C0.34 43 -0.32 43 -1 43 C-1.495 41.515 -1.495 41.515 -2 40 C-2.66 39.34 -3.32 38.68 -4 38 C-3.34 38 -2.68 38 -2 38 C-2 36.68 -2 35.36 -2 34 C-2.66 33.67 -3.32 33.34 -4 33 C-3.01 32.505 -3.01 32.505 -2 32 C-0.78362531 25.23341234 -0.68772123 18.35852286 -0.4375 11.5 C-0.39431641 10.39140625 -0.35113281 9.2828125 -0.30664062 8.140625 C-0.20137786 5.42718494 -0.09924154 2.71366583 0 0 Z " fill="#BEAF69" transform="translate(124,128)"/>
<path d="M0 0 C3 3 3 3 3.34057617 6.00268555 C3.32486572 7.2019165 3.30915527 8.40114746 3.29296875 9.63671875 C3.28330078 10.93544922 3.27363281 12.23417969 3.26367188 13.57226562 C3.23860585 14.94401639 3.21321101 16.31576118 3.1875 17.6875 C3.1724502 19.07094924 3.1587623 20.45441401 3.14648438 21.83789062 C3.11107223 25.22565207 3.06168054 28.61263139 3 32 C2.71125 31.360625 2.4225 30.72125 2.125 30.0625 C1.17176549 27.84793921 1.17176549 27.84793921 -1 27 C-0.67 18.09 -0.34 9.18 0 0 Z " fill="#787684" transform="translate(297,142)"/>
<path d="M0 0 C1 3 1 3 0 6 C-1.94982535 7.40568804 -3.95950578 8.7295036 -6 10 C-7.03125 10.763125 -8.0625 11.52625 -9.125 12.3125 C-12 14 -12 14 -14.375 13.75 C-14.91125 13.5025 -15.4475 13.255 -16 13 C-16 12.01 -16 11.02 -16 10 C-13.73440093 8.31411035 -11.52962917 6.83377699 -9.125 5.375 C-8.47402344 4.96765625 -7.82304688 4.5603125 -7.15234375 4.140625 C-4.80522804 2.67912202 -2.47444004 1.23722002 0 0 Z " fill="#1E1E20" transform="translate(74,18)"/>
<path d="M0 0 C0.33 0.66 0.66 1.32 1 2 C2.65 1.67 4.3 1.34 6 1 C6 2.32 6 3.64 6 5 C5.34 5 4.68 5 4 5 C3.938125 5.845625 3.87625 6.69125 3.8125 7.5625 C2.7594782 12.01759223 0.80339085 14.40590917 -2 18 C-4 16 -4 16 -4.375 13.5 C-3.85062282 8.60581303 -1.98066788 4.47418726 0 0 Z " fill="#5D5C64" transform="translate(10,88)"/>
<path d="M0 0 C0.99 0.33 1.98 0.66 3 1 C4.67887587 5.98782307 3.10879294 9.41125437 1.25 14.0625 C0.98445313 14.76955078 0.71890625 15.47660156 0.4453125 16.20507812 C-0.97460236 19.87548911 -2.39876593 22.98350868 -5 26 C-5.99 25.34 -6.98 24.68 -8 24 C-8 23.01 -8 22.02 -8 21 C-7.01 20.67 -6.02 20.34 -5 20 C-0.75921207 14.54755838 -0.6446949 10.28042994 -0.95703125 3.4765625 C-0.97121094 2.65929687 -0.98539062 1.84203125 -1 1 C-0.67 0.67 -0.34 0.34 0 0 Z " fill="#5C5B60" transform="translate(290,192)"/>
<path d="M0 0 C1.9375 0.5 1.9375 0.5 4 2 C4.68790422 4.69658452 4.81946464 7.2017019 5 10 C5.66 10 6.32 10 7 10 C7.61875 11.6396875 7.61875 11.6396875 8.25 13.3125 C9.63334519 16.5930043 11.07286403 17.95100482 14 20 C14.75 22.1875 14.75 22.1875 15 24 C13.02 24 11.04 24 9 24 C8.87625 23.278125 8.7525 22.55625 8.625 21.8125 C8.0095069 19.04278106 7.11555626 16.6029646 6 14 C5.34 14 4.68 14 4 14 C3.67 11.69 3.34 9.38 3 7 C2.34 7 1.68 7 1 7 C0.67 4.69 0.34 2.38 0 0 Z " fill="#D0BF74" transform="translate(124,168)"/>
<path d="M0 0 C1 3 1 3 0.28515625 5.12890625 C-3.03438041 11.73616292 -7.01294634 17.52356257 -12 23 C-12.33 23 -12.66 23 -13 23 C-13 21.35 -13 19.7 -13 18 C-12.360625 17.71125 -11.72125 17.4225 -11.0625 17.125 C-8.84793921 16.17176549 -8.84793921 16.17176549 -8 14 C-8.99 14 -9.98 14 -11 14 C-11 13.34 -11 12.68 -11 12 C-9.5459375 10.7934375 -9.5459375 10.7934375 -8.0625 9.5625 C-4.80624673 7.29315623 -4.80624673 7.29315623 -4 4 C-2.70644173 2.62804426 -1.37701298 1.28817344 0 0 Z " fill="#D2C68C" transform="translate(205,178)"/>
<path d="M0 0 C0.33 0 0.66 0 1 0 C1.1162069 14.04136926 0.99058919 27.9902386 0 42 C-0.33 42 -0.66 42 -1 42 C-1.02505615 41.42556152 -1.0501123 40.85112305 -1.07592773 40.25927734 C-1.19269875 37.63100279 -1.31505419 35.00301605 -1.4375 32.375 C-1.47681641 31.47136719 -1.51613281 30.56773438 -1.55664062 29.63671875 C-1.73620114 25.85213553 -1.96316694 22.21714656 -2.59765625 18.4765625 C-3 16 -3 16 -2 14 C-1.960008 12.00039988 -1.95653201 9.99952758 -2 8 C-1.34 8 -0.68 8 0 8 C0 5.36 0 2.72 0 0 Z " fill="#AA943B" transform="translate(123,88)"/>
<path d="M0 0 C0.99 0.33 1.98 0.66 3 1 C1.44533803 5.08332902 -1.25087844 7.08208993 -4.625 9.75 C-5.62789062 10.54921875 -6.63078125 11.3484375 -7.6640625 12.171875 C-8.43492187 12.77515625 -9.20578125 13.3784375 -10 14 C-10.33 13.34 -10.66 12.68 -11 12 C-11.99 11.67 -12.98 11.34 -14 11 C-12.33857487 9.66014102 -10.66998649 8.32917292 -9 7 C-8.26394531 6.38640625 -7.52789062 5.7728125 -6.76953125 5.140625 C-5.97933594 4.49609375 -5.18914062 3.8515625 -4.375 3.1875 C-3.61960938 2.56230469 -2.86421875 1.93710937 -2.0859375 1.29296875 C-1.39757812 0.86628906 -0.70921875 0.43960937 0 0 Z " fill="#202023" transform="translate(247,261)"/>
<path d="M0 0 C0.33 0 0.66 0 1 0 C1.02900455 3.6041498 1.04680018 7.20826962 1.0625 10.8125 C1.07087891 11.83666016 1.07925781 12.86082031 1.08789062 13.91601562 C1.09111328 14.89892578 1.09433594 15.88183594 1.09765625 16.89453125 C1.10289307 17.80050049 1.10812988 18.70646973 1.11352539 19.63989258 C1 22 1 22 0 25 C0.99 24.67 1.98 24.34 3 24 C3 28.29 3 32.58 3 37 C1.68 36.34 0.36 35.68 -1 35 C-1.64453125 31.99609375 -1.64453125 31.99609375 -1.8125 28.4375 C-1.88082031 27.26058594 -1.94914062 26.08367187 -2.01953125 24.87109375 C-2 22 -2 22 -1 21 C-0.84313751 19.44051458 -0.74923361 17.87457332 -0.68359375 16.30859375 C-0.62075195 14.89223633 -0.62075195 14.89223633 -0.55664062 13.44726562 C-0.51732422 12.45404297 -0.47800781 11.46082031 -0.4375 10.4375 C-0.37272461 8.94186523 -0.37272461 8.94186523 -0.30664062 7.41601562 C-0.20019702 4.9441585 -0.09818072 2.4721969 0 0 Z " fill="#6B6975" transform="translate(296,144)"/>
<path d="M0 0 C6.15234375 -0.09765625 6.15234375 -0.09765625 8 0 C8.33 0.33 8.66 0.66 9 1 C11.32817964 1.36760731 13.6618385 1.70241581 16 2 C14.6875 4.0625 14.6875 4.0625 12 6 C8.24265997 6.21089944 4.64149933 5.96528633 1 5 C0.34 4.01 -0.32 3.02 -1 2 C-0.67 1.34 -0.34 0.68 0 0 Z " fill="#0B0B0B" transform="translate(111,293)"/>
<path d="M0 0 C0.33 0.66 0.66 1.32 1 2 C0 4 0 4 -2.4375 5.375 C-5.17765768 7.11266097 -5.74967178 8.11462718 -7 11 C-7.99 11.495 -7.99 11.495 -9 12 C-9.28875 12.639375 -9.5775 13.27875 -9.875 13.9375 C-11 16 -11 16 -12.9375 16.8125 C-16.12816725 18.64955084 -16.61707247 21.69299938 -18 25 C-18.99 25.33 -19.98 25.66 -21 26 C-18.5981966 19.19489036 -14.34224578 14.01758436 -9.5 8.8125 C-9.02691406 8.29236328 -8.55382813 7.77222656 -8.06640625 7.23632812 C-5.55639313 4.51425019 -3.05597575 2.09737958 0 0 Z " fill="#504F54" transform="translate(48,44)"/>
<path d="M0 0 C4.55015893 1.51671964 6.50057264 5.16891053 9 9 C7.35 9.66 5.7 10.32 4 11 C4 10.34 4 9.68 4 9 C3.34 9 2.68 9 2 9 C2 8.34 2 7.68 2 7 C0.35 7.33 -1.3 7.66 -3 8 C-4 6 -4 6 -3.75 4 C-3 2 -3 2 0 0 Z " fill="#3B393D" transform="translate(260,47)"/>
<path d="M0 0 C3.32445643 6.06224407 4.36108506 13.13938387 4 20 C2.68 19.67 1.36 19.34 0 19 C-0.33951619 17.43883181 -0.67132544 15.87598662 -1 14.3125 C-1.185625 13.44238281 -1.37125 12.57226562 -1.5625 11.67578125 C-2.30466814 7.13662788 -2.37596856 4.00944694 0 0 Z " fill="#696772" transform="translate(295,108)"/>
<path d="M0 0 C0.33 0 0.66 0 1 0 C1.07037402 2.53346458 1.07102638 4.7237863 0.4375 7.1875 C-0.22642103 9.08432232 -0.22642103 9.08432232 1 11 C1.07194869 13.88370333 1.09291708 16.74239664 1.0625 19.625 C1.05798828 20.42679688 1.05347656 21.22859375 1.04882812 22.0546875 C1.03703168 24.03649006 1.01909605 26.01825433 1 28 C0.01 27.67 -0.98 27.34 -2 27 C-2.05797565 23.06256167 -2.09358789 19.12523281 -2.125 15.1875 C-2.14175781 14.06794922 -2.15851563 12.94839844 -2.17578125 11.79492188 C-2.18222656 10.72177734 -2.18867188 9.64863281 -2.1953125 8.54296875 C-2.20578613 7.55321045 -2.21625977 6.56345215 -2.22705078 5.54370117 C-2 3 -2 3 0 0 Z " fill="#4F4E55" transform="translate(283,134)"/>
<path d="M0 0 C1.485 0.99 1.485 0.99 3 2 C3 2.66 3 3.32 3 4 C3.66 4.66 4.32 5.32 5 6 C5.68453445 7.99395512 6.34849807 9.99500881 7 12 C7.94073419 14.05965758 8.92072541 16.10179967 9.9375 18.125 C10.44152344 19.13820312 10.94554687 20.15140625 11.46484375 21.1953125 C12.81523064 23.66243154 14.24490775 25.810064 16 28 C15.67 28.66 15.34 29.32 15 30 C10 24.25 10 24.25 10 22 C9.01 21.67 8.02 21.34 7 21 C6.9175 20.34 6.835 19.68 6.75 19 C5.75240209 15.00960837 3.92833317 11.61450357 2 8 C1.34 8 0.68 8 0 8 C0 5.36 0 2.72 0 0 Z " fill="#4A4950" transform="translate(24,194)"/>
<path d="M0 0 C2.57146057 2.57146057 2.80117997 4.6050417 3.625 8.125 C3.88539062 9.22070312 4.14578125 10.31640625 4.4140625 11.4453125 C4.70410156 12.70988281 4.70410156 12.70988281 5 14 C5.66 14 6.32 14 7 14 C7.67119549 15.4562545 8.33681807 16.91507867 9 18.375 C9.37125 19.18710938 9.7425 19.99921875 10.125 20.8359375 C11 23 11 23 11 25 C11.66 25 12.32 25 13 25 C12.67 25.99 12.34 26.98 12 28 C5.40711099 22.13489744 1.81638132 12.5369922 0 4 C0 2.68 0 1.36 0 0 Z " fill="#C4B777" transform="translate(90,166)"/>
<path d="M0 0 C4.88887148 2.39831431 8.33494586 5.00175912 12 9 C11.34 9.66 10.68 10.32 10 11 C6.88653095 10.63333112 4.76359489 9.37250316 2.25 7.5625 C1.63640625 7.13066406 1.0228125 6.69882812 0.390625 6.25390625 C-0.29773438 5.63322266 -0.29773438 5.63322266 -1 5 C-1 4.34 -1 3.68 -1 3 C-1.33 2.34 -1.66 1.68 -2 1 C-1.34 0.67 -0.68 0.34 0 0 Z " fill="#212123" transform="translate(228,20)"/>
<path d="M0 0 C0.66 0 1.32 0 2 0 C2 0.66 2 1.32 2 2 C2.66 2 3.32 2 4 2 C7 5.46153846 7 5.46153846 7 8 C7.99 8.33 8.98 8.66 10 9 C9.01 9.495 9.01 9.495 8 10 C7.67 10.66 7.34 11.32 7 12 C6.34 11.34 5.68 10.68 5 10 C4.34 10.66 3.68 11.32 3 12 C-1.06153846 5.72307692 -1.06153846 5.72307692 -0.75 2.0625 C-0.5025 1.381875 -0.255 0.70125 0 0 Z " fill="#49484E" transform="translate(20,223)"/>
<path d="M0 0 C0 0.99 0 1.98 0 3 C-0.66 3 -1.32 3 -2 3 C-2.33 4.32 -2.66 5.64 -3 7 C-3.66 7 -4.32 7 -5 7 C-5.33 7.66 -5.66 8.32 -6 9 C-7.65 8.67 -9.3 8.34 -11 8 C-11 5 -11 5 -8.75 2.3125 C-5.48743398 -0.43102142 -4.09102964 0 0 0 Z " fill="#15100E" transform="translate(200,199)"/>
<path d="M0 0 C0.33 0 0.66 0 1 0 C2.125 5.625 2.125 5.625 1 9 C1.66 9 2.32 9 3 9 C3.3125 11.25 3.3125 11.25 3 14 C-1.10810811 18 -1.10810811 18 -4 18 C-3.71710528 15.74888027 -3.42335307 13.49912314 -3.125 11.25 C-2.96257812 9.99703125 -2.80015625 8.7440625 -2.6328125 7.453125 C-2.0941645 4.51383592 -1.51991159 2.52892853 0 0 Z " fill="#0E0E0D" transform="translate(213,155)"/>
<path d="M0 0 C7.541939 0.49455338 7.541939 0.49455338 9.8125 3 C10.204375 3.66 10.59625 4.32 11 5 C11.99 5.33 12.98 5.66 14 6 C14 6.33 14 6.66 14 7 C10.37 7 6.74 7 3 7 C3 6.34 3 5.68 3 5 C2.34 5 1.68 5 1 5 C0.67 5.66 0.34 6.32 0 7 C0 6.01 0 5.02 0 4 C0.66 4 1.32 4 2 4 C2 3.34 2 2.68 2 2 C1.34 2 0.68 2 0 2 C0 1.34 0 0.68 0 0 Z " fill="#0A0A0C" transform="translate(171,0)"/>
<path d="M0 0 C3.13706718 3.03903383 6.02979821 6.18428818 8.875 9.5 C12.27581134 13.37278705 15.67919103 16.20947754 20 19 C17 20 17 20 15.125 19.375 C12.35821207 17.58472546 10.30154271 15.35634135 8 13 C6.94431077 12.15805526 5.88172738 11.32468389 4.8125 10.5 C1.98637692 7.98789059 0.94728148 6.59966964 0 3 C0 2.01 0 1.02 0 0 Z " fill="#342C14" transform="translate(97,189)"/>
<path d="M0 0 C0.33 0.66 0.66 1.32 1 2 C1.66 2.33 2.32 2.66 3 3 C2.44570313 3.47050781 1.89140625 3.94101562 1.3203125 4.42578125 C0.59585938 5.04839844 -0.12859375 5.67101563 -0.875 6.3125 C-1.59429687 6.92738281 -2.31359375 7.54226562 -3.0546875 8.17578125 C-5.19179331 10.0412324 -5.19179331 10.0412324 -7 13 C-7.66 13 -8.32 13 -9 13 C-9.375 10.3125 -9.375 10.3125 -9 7 C-7.18573316 4.83295905 -5.38051466 3.61874997 -3 2 C-2.34 2 -1.68 2 -1 2 C-0.67 1.34 -0.34 0.68 0 0 Z " fill="#2F2E33" transform="translate(43,44)"/>
<path d="M0 0 C0.99 0.33 1.98 0.66 3 1 C2.34 2.32 1.68 3.64 1 5 C0.34 5 -0.32 5 -1 5 C-1.33 7.31 -1.66 9.62 -2 12 C-3.65 12 -5.3 12 -7 12 C-7.66 10.68 -8.32 9.36 -9 8 C-8.51789063 7.67386719 -8.03578125 7.34773437 -7.5390625 7.01171875 C-6.90742188 6.57472656 -6.27578125 6.13773438 -5.625 5.6875 C-4.99851563 5.25824219 -4.37203125 4.82898438 -3.7265625 4.38671875 C-1.73621155 2.93079661 -1.73621155 2.93079661 0 0 Z " fill="#A1A0A5" transform="translate(169,171)"/>
<path d="M0 0 C3.48735264 5.23102896 4.78069388 12.75444896 4 19 C3.01 19.66 2.02 20.32 1 21 C-0.11165232 16.5621439 -0.11527763 12.23043614 -0.0625 7.6875 C-0.05798828 6.94693359 -0.05347656 6.20636719 -0.04882812 5.44335938 C-0.03712175 3.62887101 -0.01918898 1.81442466 0 0 Z " fill="#B6A147" transform="translate(91,120)"/>
<path d="M0 0 C3.67031204 3.67031204 4.26077422 7.77404338 4.625 12.8125 C4.69976562 13.78832031 4.77453125 14.76414063 4.8515625 15.76953125 C4.92503906 16.87361328 4.92503906 16.87361328 5 18 C4.01 18 3.02 18 2 18 C-0.61281488 12.12116651 -0.18328202 6.29268272 0 0 Z " fill="#C6B463" transform="translate(90,154)"/>
<path d="M0 0 C0.66 0 1.32 0 2 0 C4.74375671 2.95481492 5 3.77471908 5 8 C4.34 8 3.68 8 3 8 C3.061875 9.093125 3.12375 10.18625 3.1875 11.3125 C3 15 3 15 0 18 C0 12.06 0 6.12 0 0 Z " fill="#BBA754" transform="translate(90,136)"/>
<path d="M0 0 C2.49604304 3.74406455 3 6.54151685 3 11 C2.42331683 13.69290446 1.69902432 16.3349698 1 19 C-1.3666343 16.53475593 -1.98063818 15.20136289 -2.3125 11.75 C-1.96691623 7.60299473 -1.12305808 4.0008944 0 0 Z " fill="#66656C" transform="translate(5,101)"/>
<path d="M0 0 C7 8.20689655 7 8.20689655 7 13 C5 13 3 13 1 13 C0.63631108 11.39796533 0.28438048 9.79325797 -0.0625 8.1875 C-0.25972656 7.29417969 -0.45695312 6.40085937 -0.66015625 5.48046875 C-1 3 -1 3 0 0 Z " fill="#57565C" transform="translate(281,75)"/>
<path d="M0 0 C0.74362793 0.01047363 1.48725586 0.02094727 2.25341797 0.03173828 C3.46191406 0.04140625 3.46191406 0.04140625 4.69482422 0.05126953 C5.95746094 0.07640625 5.95746094 0.07640625 7.24560547 0.10205078 C8.51984375 0.11558594 8.51984375 0.11558594 9.81982422 0.12939453 C11.9202043 0.15299431 14.02043991 0.18886595 16.12060547 0.22705078 C16.12060547 0.55705078 16.12060547 0.88705078 16.12060547 1.22705078 C15.43095703 1.34822266 14.74130859 1.46939453 14.03076172 1.59423828 C8.02261534 2.66564984 2.0688539 3.86187901 -3.87939453 5.22705078 C-3.87939453 1.8916102 -3.53282324 0.4268025 0 0 Z " fill="#E9E9EA" transform="translate(107.87939453125,-0.22705078125)"/>
<path d="M0 0 C2.70837321 4.06255982 2.35694202 7.03681892 1.5 11.75 C1.335 12.4925 1.17 13.235 1 14 C1 14.66 1 15.32 1 16 C-0.95927063 17.7143618 -2.95880212 19.38405168 -5 21 C-4.70996094 19.98292969 -4.70996094 19.98292969 -4.4140625 18.9453125 C-2.65857742 12.67075691 -1.18137708 6.40723336 0 0 Z " fill="#49494C" transform="translate(278,176)"/>
<path d="M0 0 C2.62168902 1.31084451 2.99794118 2.26042633 4 5 C3.9765625 8.015625 3.9765625 8.015625 3.625 11.25 C3.51414062 12.32765625 3.40328125 13.4053125 3.2890625 14.515625 C3.19367188 15.33546875 3.09828125 16.1553125 3 17 C2.01 17 1.02 17 0 17 C0 11.39 0 5.78 0 0 Z " fill="#A9943A" transform="translate(91,100)"/>
<path d="M0 0 C0.33 0 0.66 0 1 0 C1.8125 2.6875 1.8125 2.6875 2 6 C-0.375 8.8125 -0.375 8.8125 -3 11 C-3.33 11.33 -3.66 11.66 -4 12 C-4.99 12.33 -5.98 12.66 -7 13 C-7.33 12.34 -7.66 11.68 -8 11 C-6.69144447 9.16384919 -5.37805538 7.33114211 -4.0625 5.5 C-3.33160156 4.4790625 -2.60070312 3.458125 -1.84765625 2.40625 C-1.23792969 1.6121875 -0.62820312 0.818125 0 0 Z " fill="#3C3C3E" transform="translate(33,52)"/>
<path d="M0 0 C2.46278801 1.231394 3.42497687 2.78064923 5 5 C2.59454362 6.20272819 1.05003047 6.10071472 -1.625 6.0625 C-2.85089844 6.04896484 -2.85089844 6.04896484 -4.1015625 6.03515625 C-5.04128906 6.01775391 -5.04128906 6.01775391 -6 6 C-6.33 5.01 -6.66 4.02 -7 3 C-4.69631264 1.93347808 -2.35981813 0.93578995 0 0 Z " fill="#070709" transform="translate(124,0)"/>
<path d="M0 0 C0.86625 1.11375 0.86625 1.11375 1.75 2.25 C3.85730511 4.94860311 3.85730511 4.94860311 6 6.875 C8.6678699 9.70961177 10.25644614 12.51289228 12 16 C11.67 16.66 11.34 17.32 11 18 C4.23529412 12.70588235 4.23529412 12.70588235 3 9 C3 8.01 3 7.02 3 6 C2.34 6 1.68 6 1 6 C0.67 4.02 0.34 2.04 0 0 Z " fill="#B7AC8B" transform="translate(128,172)"/>
<path d="M0 0 C1.98 0.99 3.96 1.98 6 3 C5.66275164 6.11954738 5.3790035 7.6209965 3.125 9.875 C2.42375 10.24625 1.7225 10.6175 1 11 C0.01 10.67 -0.98 10.34 -2 10 C-2 8.68 -2 7.36 -2 6 C-1.34 5.67 -0.68 5.34 0 5 C0 3.35 0 1.7 0 0 Z " fill="#A7A69E" transform="translate(202,171)"/>
<path d="M0 0 C2 2 2 2 2.125 4.625 C2.08375 5.40875 2.0425 6.1925 2 7 C1.01 7 0.02 7 -1 7 C-1 6.34 -1 5.68 -1 5 C-1.66 5 -2.32 5 -3 5 C-3 5.66 -3 6.32 -3 7 C-3.66 6.67 -4.32 6.34 -5 6 C-4.67 5.34 -4.34 4.68 -4 4 C-3.34 4 -2.68 4 -2 4 C-1.34 2.68 -0.68 1.36 0 0 Z M-6 7 C-5.67 7.99 -5.34 8.98 -5 10 C-5.99 10 -6.98 10 -8 10 C-7.34 9.01 -6.68 8.02 -6 7 Z M-9 11 C-9 11.99 -9 12.98 -9 14 C-10.98 14.99 -10.98 14.99 -13 16 C-12 13 -12 13 -9 11 Z M-14 16 C-13.67 16.66 -13.34 17.32 -13 18 C-13.66 17.67 -14.32 17.34 -15 17 C-14.67 16.67 -14.34 16.34 -14 16 Z " fill="#3C3A40" transform="translate(254,230)"/>
<path d="M0 0 C3.34373475 0.55728913 6.03312999 1.35173889 9 3 C9 3.99 9 4.98 9 6 C7.741875 6.04125 6.48375 6.0825 5.1875 6.125 C4.47980469 6.14820313 3.77210938 6.17140625 3.04296875 6.1953125 C1 6 1 6 -2 4 C-1.34 2.68 -0.68 1.36 0 0 Z " fill="#171719" transform="translate(194,5)"/>
<path d="M0 0 C1.98 0.495 1.98 0.495 4 1 C4 2.98 4 4.96 4 7 C4.99 7 5.98 7 7 7 C7 8.32 7 9.64 7 11 C6.01 11.33 5.02 11.66 4 12 C1 7.25 1 7.25 1 5 C0.34 4.67 -0.32 4.34 -1 4 C-0.67 2.68 -0.34 1.36 0 0 Z " fill="#333335" transform="translate(49,256)"/>
<path d="M0 0 C4.06112318 4.06112318 5.58969154 11.392451 6 17 C5.34 17.66 4.68 18.32 4 19 C2.68 14.71 1.36 10.42 0 6 C-0.66 6.66 -1.32 7.32 -2 8 C-2.125 5.125 -2.125 5.125 -2 2 C-1.34 1.34 -0.68 0.68 0 0 Z " fill="#514F5B" transform="translate(18,171)"/>
<path d="M0 0 C1.73169596 3.1622274 2.7128976 6.26742722 3.625 9.75 C3.88539062 10.73484375 4.14578125 11.7196875 4.4140625 12.734375 C4.60742188 13.48203125 4.80078125 14.2296875 5 15 C4.34 15 3.68 15 3 15 C2.67 15.66 2.34 16.32 2 17 C1.72285156 16.09636719 1.44570312 15.19273437 1.16015625 14.26171875 C0.79792969 13.08222656 0.43570313 11.90273437 0.0625 10.6875 C-0.29714844 9.51574219 -0.65679687 8.34398437 -1.02734375 7.13671875 C-1.66372279 5.08446023 -2.32053379 3.03839863 -3 1 C-2.01 0.67 -1.02 0.34 0 0 Z " fill="#3F3924" transform="translate(89,166)"/>
<path d="M0 0 C-0.99 0.33 -1.98 0.66 -3 1 C-2.34 2.32 -1.68 3.64 -1 5 C-5.455 5.495 -5.455 5.495 -10 6 C-8 3 -8 3 -7 2 C-7.99 1.67 -8.98 1.34 -10 1 C-3.71428571 -1.42857143 -3.71428571 -1.42857143 0 0 Z " fill="#1E1E20" transform="translate(120,2)"/>
<path d="M0 0 C0.99 0.33 1.98 0.66 3 1 C1.47005208 2.23697917 -0.05989583 3.47395833 -1.58984375 4.7109375 C-3.13266437 5.9666391 -3.13266437 5.9666391 -4 8 C-5.72425617 9.02178143 -7.45082593 10.04130093 -9.2109375 11 C-10.85521605 11.91907273 -12.43266224 12.95510816 -14 14 C-13.75 12.125 -13.75 12.125 -13 10 C-11.125 8.9375 -11.125 8.9375 -9 8 C-7.97702078 7.02351983 -6.98095748 6.01868662 -6 5 C-4.06462234 3.16620293 -2.14781288 1.61085966 0 0 Z " fill="#3B3A3E" transform="translate(60,32)"/>
<path d="M0 0 C1.32 0.66 2.64 1.32 4 2 C3.8125 4.375 3.8125 4.375 3 7 C0.4375 8.3125 0.4375 8.3125 -2 9 C-2.33 7.02 -2.66 5.04 -3 3 C-2.34 3 -1.68 3 -1 3 C-0.67 2.01 -0.34 1.02 0 0 Z " fill="#5A5861" transform="translate(12,202)"/>
<path d="M0 0 C0.66 0 1.32 0 2 0 C2.20086443 3.71599191 2.1519437 4.77208445 0 8 C0.99 8.33 1.98 8.66 3 9 C3.6875 11.0625 3.6875 11.0625 4 13 C3.01 13.33 2.02 13.66 1 14 C0.49166409 12.75336669 -0.00631145 11.50250613 -0.5 10.25 C-0.7784375 9.55390625 -1.056875 8.8578125 -1.34375 8.140625 C-2 6 -2 6 -2 2 C-1.34 2 -0.68 2 0 2 C0 1.34 0 0.68 0 0 Z " fill="#616067" transform="translate(7,192)"/>
<path d="M0 0 C2.97 0.33 5.94 0.66 9 1 C9 1.66 9 2.32 9 3 C10.65 3 12.3 3 14 3 C13.67 3.99 13.34 4.98 13 6 C7.25 4.125 7.25 4.125 5 3 C5 3.66 5 4.32 5 5 C3.68 4.67 2.36 4.34 1 4 C0.67 2.68 0.34 1.36 0 0 Z " fill="#1D1C1F" transform="translate(129,218)"/>
<path d="M0 0 C0.5625 1.9375 0.5625 1.9375 1 4 C0.67 4.33 0.34 4.66 0 5 C0.090916 7.70108504 0.23740766 10.36930311 0.4375 13.0625 C0.48970703 13.82111328 0.54191406 14.57972656 0.59570312 15.36132812 C0.72575835 17.24121722 0.86228038 19.12065685 1 21 C0.67 21 0.34 21 0 21 C-0.99 15.39 -1.98 9.78 -3 4 C-3.99 4.495 -3.99 4.495 -5 5 C-4.67 3.68 -4.34 2.36 -4 1 C-2.68 0.67 -1.36 0.34 0 0 Z " fill="#5C5A63" transform="translate(294,107)"/>
<path d="M0 0 C5.61 0 11.22 0 17 0 C16.67 1.32 16.34 2.64 16 4 C15.43152344 3.86722656 14.86304688 3.73445312 14.27734375 3.59765625 C9.52848903 2.5115242 4.83219676 1.61687618 0 1 C0 0.67 0 0.34 0 0 Z " fill="#EDEDEF" transform="translate(176,0)"/>
<path d="M0 0 C7.26153846 0.36923077 7.26153846 0.36923077 11 3.5625 C11.99 4.7690625 11.99 4.7690625 13 6 C12.67 6.66 12.34 7.32 12 8 C9 7 9 7 7.125 5 C4.71248065 2.72939356 3.23922825 2.35991425 0 2 C0 1.34 0 0.68 0 0 Z " fill="#E5D075" transform="translate(124,208)"/>
<path d="M0 0 C0.99 0.33 1.98 0.66 3 1 C2.0022242 3.99332739 1.2477975 4.94766315 -1 7 C-0.01 7 0.98 7 2 7 C2.33 6.01 2.66 5.02 3 4 C3.33 4.66 3.66 5.32 4 6 C2.6875 8 2.6875 8 1 10 C0.01 10 -0.98 10 -2 10 C-3.06351675 6.61608307 -3.21442982 5.4195366 -1.5625 2.1875 C-1.046875 1.465625 -0.53125 0.74375 0 0 Z " fill="#4F4E56" transform="translate(19,72)"/>
<path d="M0 0 C-0.33 0.99 -0.66 1.98 -1 3 C-6.28 3 -11.56 3 -17 3 C-17 2.67 -17 2.34 -17 2 C-14.73139163 1.4695592 -12.46001511 0.95094566 -10.1875 0.4375 C-8.29064453 0.00244141 -8.29064453 0.00244141 -6.35546875 -0.44140625 C-3 -1 -3 -1 0 0 Z " fill="#E7E7E6" transform="translate(193,297)"/>
<path d="M0 0 C0.93045933 2.55144824 1.08564091 3.74006478 0.22265625 6.359375 C-0.16019531 7.14828125 -0.54304688 7.9371875 -0.9375 8.75 C-1.31777344 9.54921875 -1.69804687 10.3484375 -2.08984375 11.171875 C-2.39019531 11.77515625 -2.69054687 12.3784375 -3 13 C-4.32 12.34 -5.64 11.68 -7 11 C-7 10.01 -7 9.02 -7 8 C-6.01 7.67 -5.02 7.34 -4 7 C-2.77554716 5.37051936 -2.77554716 5.37051936 -1.8125 3.4375 C-1.214375 2.303125 -0.61625 1.16875 0 0 Z " fill="#54535A" transform="translate(289,205)"/>
<path d="M0 0 C0.95648438 0.07863281 1.91296875 0.15726562 2.8984375 0.23828125 C5.625 0.6875 5.625 0.6875 9.625 2.6875 C4.345 2.6875 -0.935 2.6875 -6.375 2.6875 C-6.705 2.0275 -7.035 1.3675 -7.375 0.6875 C-4.71277962 -0.64361019 -2.95280926 -0.26519869 0 0 Z " fill="#E4E4E3" transform="translate(113.375,297.3125)"/>
<path d="M0 0 C1.32 0.33 2.64 0.66 4 1 C4.25 8.5 4.25 8.5 2 13 C1.34 8.71 0.68 4.42 0 0 Z " fill="#717076" transform="translate(0,176)"/>
<path d="M0 0 C-1.05041579 2.86477034 -1.70124563 3.83913226 -4.4375 5.3125 C-7 6 -7 6 -10 5 C-9.34 4.67 -8.68 4.34 -8 4 C-7.67 3.01 -7.34 2.02 -7 1 C-2.55696203 -1.27848101 -2.55696203 -1.27848101 0 0 Z " fill="#E6E6E6" transform="translate(214,289)"/>
<path d="M0 0 C1.5625 1.8125 1.5625 1.8125 3 4 C2.67 4.99 2.34 5.98 2 7 C0.35 7.33 -1.3 7.66 -3 8 C-2.74438677 5.6568787 -2.40729228 3.32156597 -2 1 C-1.34 0.67 -0.68 0.34 0 0 Z " fill="#151008" transform="translate(205,185)"/>
<path d="M0 0 C0.33 0 0.66 0 1 0 C1.042721 1.66611905 1.04063832 3.33382885 1 5 C0.67 5.33 0.34 5.66 0 6 C-0.15582303 7.34015221 -0.25044142 8.68758903 -0.31640625 10.03515625 C-0.37924805 11.24848633 -0.37924805 11.24848633 -0.44335938 12.48632812 C-0.48267578 13.33646484 -0.52199219 14.18660156 -0.5625 15.0625 C-0.60568359 15.91650391 -0.64886719 16.77050781 -0.69335938 17.65039062 C-0.79976702 19.76672037 -0.90041731 21.88333813 -1 24 C-1.33 24 -1.66 24 -2 24 C-2.05802698 20.56257082 -2.09360486 17.12526747 -2.125 13.6875 C-2.14175781 12.71103516 -2.15851563 11.73457031 -2.17578125 10.72851562 C-2.18222656 9.79072266 -2.18867188 8.85292969 -2.1953125 7.88671875 C-2.20578613 7.02264404 -2.21625977 6.15856934 -2.22705078 5.26831055 C-2 3 -2 3 0 0 Z " fill="#414045" transform="translate(283,134)"/>
<path d="M0 0 C0.66 0.66 1.32 1.32 2 2 C0.02 2.66 -1.96 3.32 -4 4 C-5.32 2.68 -6.64 1.36 -8 0 C-5.09288879 -1.4535556 -3.10402897 -0.71133997 0 0 Z " fill="#100F13" transform="translate(89,284)"/>
<path d="M0 0 C1.9375 0.5 1.9375 0.5 4 2 C4.68790422 4.69658452 4.81946464 7.2017019 5 10 C5.66 10 6.32 10 7 10 C6.67 10.99 6.34 11.98 6 13 C4.5 11.6875 4.5 11.6875 3 10 C3 9.01 3 8.02 3 7 C2.34 7 1.68 7 1 7 C0.67 4.69 0.34 2.38 0 0 Z " fill="#CCBA78" transform="translate(124,168)"/>
<path d="M0 0 C0.33 0 0.66 0 1 0 C1.33 6.27 1.66 12.54 2 19 C1.01 19.33 0.02 19.66 -1 20 C-0.67 13.4 -0.34 6.8 0 0 Z " fill="#A7A6AB" transform="translate(174,144)"/>
<path d="M0 0 C1.32 0.66 2.64 1.32 4 2 C4 2.66 4 3.32 4 4 C7.96 4 11.92 4 16 4 C16 4.33 16 4.66 16 5 C13.75026553 5.054138 11.50015617 5.09285491 9.25 5.125 C7.99703125 5.14820313 6.7440625 5.17140625 5.453125 5.1953125 C2.27179508 5.01537302 0.63478104 4.68998582 -2 3 C-1.34 3 -0.68 3 0 3 C0 2.01 0 1.02 0 0 Z " fill="#E7D695" transform="translate(140,213)"/>
<path d="M0 0 C1.39195915 4.17587745 -0.17676781 6.13474776 -2 10 C-3.65 10 -5.3 10 -7 10 C-7 9.34 -7 8.68 -7 8 C-6.34 7.67 -5.68 7.34 -5 7 C-4.67 6.01 -4.34 5.02 -4 4 C-2.70644173 2.62804426 -1.37701298 1.28817344 0 0 Z " fill="#BEB891" transform="translate(205,178)"/>
<path d="M0 0 C0.99 0.495 0.99 0.495 2 1 C3.28317892 4.84953676 3.06643637 7.94738135 3 12 C2.01 11.67 1.02 11.34 0 11 C0 7.37 0 3.74 0 0 Z " fill="#7A7885" transform="translate(0,144)"/>
<path d="M0 0 C0 3.38023517 -0.87455622 5.83468937 -2 9 C-3.98 9.33 -5.96 9.66 -8 10 C-6.34908222 5.70761377 -3.26245434 3.1206085 0 0 Z " fill="#212121" transform="translate(48,37)"/>
<path d="M0 0 C1.98 0 3.96 0 6 0 C1.48631832 3.81926912 -3.09749318 5.34720628 -9 5 C-9 4.34 -9 3.68 -9 3 C-4.545 2.505 -4.545 2.505 0 2 C0 1.34 0 0.68 0 0 Z " fill="#DCCC90" transform="translate(172,211)"/>
<path d="M0 0 C3 0 3 0 6 1 C6.75 2.9375 6.75 2.9375 7 5 C6.67 5.66 6.34 6.32 6 7 C4.125 6.875 4.125 6.875 2 6 C0.75 2.9375 0.75 2.9375 0 0 Z " fill="#141416" transform="translate(209,80)"/>
<path d="M0 0 C0 0.33 0 0.66 0 1 C-1.65 1 -3.3 1 -5 1 C-5 1.66 -5 2.32 -5 3 C-6.98 2.34 -8.96 1.68 -11 1 C-7.14260851 -2.85739149 -4.71895155 -1.78271503 0 0 Z " fill="#1A191C" transform="translate(222,16)"/>
<path d="M0 0 C1.32 1.32 2.64 2.64 4 4 C2 7 2 7 -0.125 7.6875 C-0.74375 7.790625 -1.3625 7.89375 -2 8 C-2.33 6.68 -2.66 5.36 -3 4 C-2.01 4 -1.02 4 0 4 C0 2.68 0 1.36 0 0 Z " fill="#39373B" transform="translate(254,40)"/>
<path d="M0 0 C1.41681634 0.31182069 2.83344651 0.62448737 4.25 0.9375 C5.43335938 1.19853516 5.43335938 1.19853516 6.640625 1.46484375 C8.76878703 1.947556 10.88532842 2.46163178 13 3 C13 3.66 13 4.32 13 5 C8.28596212 4.52060632 4.33420699 4.03165952 0 2 C0 1.34 0 0.68 0 0 Z " fill="#251B07" transform="translate(128,215)"/>
<path d="M0 0 C2.31 0 4.62 0 7 0 C6.38722388 2.96175123 5.74627478 4.38058783 4 7 C3.34 7 2.68 7 2 7 C2 5.68 2 4.36 2 3 C1.34 3 0.68 3 0 3 C0 2.01 0 1.02 0 0 Z " fill="#1C1B20" transform="translate(163,168)"/>
<path d="M0 0 C1.65 0.33 3.3 0.66 5 1 C5.33 1.99 5.66 2.98 6 4 C4.02 4.99 4.02 4.99 2 6 C2.33 5.01 2.66 4.02 3 3 C2.34 3 1.68 3 1 3 C0.67 3.99 0.34 4.98 0 6 C-1.125 2.25 -1.125 2.25 0 0 Z " fill="#434146" transform="translate(267,58)"/>
<path d="M0 0 C2.475 0.99 2.475 0.99 5 2 C5 2.99 5 3.98 5 5 C3.35 5.33 1.7 5.66 0 6 C-1 3 -1 3 0 0 Z " fill="#19181C" transform="translate(234,25)"/>
<path d="M0 0 C-5.64387394 3.76258262 -10.56607328 2.91112252 -17 2 C-17 1.67 -17 1.34 -17 1 C-11.27959989 0.1679418 -5.77759884 -0.12036664 0 0 Z " fill="#1C1C1D" transform="translate(161,220)"/>
<path d="M0 0 C1.67542976 0.28604898 3.34385343 0.61781233 5 1 C4.67 1.66 4.34 2.32 4 3 C4.99 4.485 4.99 4.485 6 6 C4.35 6 2.7 6 1 6 C0.34 4.35 -0.32 2.7 -1 1 C-0.67 0.67 -0.34 0.34 0 0 Z " fill="#242222" transform="translate(130,168)"/>
<path d="M0 0 C3 1 3 1 4.6875 4.0625 C5.120625 5.031875 5.55375 6.00125 6 7 C3 7 3 7 0 6 C0 4.02 0 2.04 0 0 Z " fill="#444447" transform="translate(273,64)"/>
<path d="M0 0 C1.32 0.66 2.64 1.32 4 2 C3.2884375 2.6496875 3.2884375 2.6496875 2.5625 3.3125 C0.76313043 5.02309613 0.76313043 5.02309613 0 8 C-1.65 6.35 -3.3 4.7 -5 3 C-4.01 2.67 -3.02 2.34 -2 2 C-1.34 2.33 -0.68 2.66 0 3 C0 2.01 0 1.02 0 0 Z " fill="#1B1A1F" transform="translate(203,8)"/>
<path d="M0 0 C-0.33 0.99 -0.66 1.98 -1 3 C-2.98 3.33 -4.96 3.66 -7 4 C-7.33 3.01 -7.66 2.02 -8 1 C-5.29120665 -0.35439668 -2.99066732 -0.06501451 0 0 Z " fill="#060607" transform="translate(113,4)"/>
<path d="M0 0 C2.31 0 4.62 0 7 0 C7 1.98 7 3.96 7 6 C6.01 5.67 5.02 5.34 4 5 C4 4.34 4 3.68 4 3 C2.68 2.67 1.36 2.34 0 2 C0 1.34 0 0.68 0 0 Z " fill="#3B3A41" transform="translate(57,264)"/>
<path d="M0 0 C0.66 0.99 1.32 1.98 2 3 C1.67 3.99 1.34 4.98 1 6 C-2.465 4.02 -2.465 4.02 -6 2 C-5.38125 1.855625 -4.7625 1.71125 -4.125 1.5625 C-1.96741678 1.06847775 -1.96741678 1.06847775 0 0 Z " fill="#302F35" transform="translate(60,267)"/>
<path d="M0 0 C0.33 0.99 0.66 1.98 1 3 C-0.09445838 3.86657116 -1.20097781 4.71792724 -2.3125 5.5625 C-2.92738281 6.03816406 -3.54226562 6.51382813 -4.17578125 7.00390625 C-4.77777344 7.33261719 -5.37976563 7.66132813 -6 8 C-6.99 7.67 -7.98 7.34 -9 7 C-7.68 6.67 -6.36 6.34 -5 6 C-5 5.34 -5 4.68 -5 4 C-3.37373596 2.61767557 -1.7074998 1.28062485 0 0 Z " fill="#D4C48A" transform="translate(189,201)"/>
<path d="M0 0 C0.66 0.99 1.32 1.98 2 3 C2.33 2.34 2.66 1.68 3 1 C3.625 3.375 3.625 3.375 4 6 C3.34 6.66 2.68 7.32 2 8 C0.4375 6.8125 0.4375 6.8125 -1 5 C-0.6875 2.3125 -0.6875 2.3125 0 0 Z " fill="#D6C361" transform="translate(101,184)"/>
<path d="M0 0 C3 4 3 4 2.8125 7.1875 C2.544375 8.115625 2.27625 9.04375 2 10 C1.01 10.495 1.01 10.495 0 11 C0 7.37 0 3.74 0 0 Z " fill="#A08B39" transform="translate(91,88)"/>
<path d="M0 0 C1.11375 0.556875 1.11375 0.556875 2.25 1.125 C1.92 1.785 1.59 2.445 1.25 3.125 C-1.625 3.25 -1.625 3.25 -4.75 3.125 C-5.41 2.465 -6.07 1.805 -6.75 1.125 C-4.02098495 -0.69434337 -3.21400584 -1.02263822 0 0 Z " fill="#08080B" transform="translate(202.75,288.875)"/>
<path d="M0 0 C1.32 0.33 2.64 0.66 4 1 C2.35 2.98 0.7 4.96 -1 7 C-1.66 6.01 -2.32 5.02 -3 4 C-2.34 3.67 -1.68 3.34 -1 3 C-0.67 2.01 -0.34 1.02 0 0 Z " fill="#3A3A3C" transform="translate(252,257)"/>
<path d="M0 0 C-0.33 1.65 -0.66 3.3 -1 5 C-3 4 -5 3 -7 2 C-7 1.34 -7 0.68 -7 0 C-2.25 -1.125 -2.25 -1.125 0 0 Z " fill="#4D4C53" transform="translate(48,249)"/>
<path d="M0 0 C1.65 0.33 3.3 0.66 5 1 C5 2.98 5 4.96 5 7 C3.02 5.35 1.04 3.7 -1 2 C-0.67 1.34 -0.34 0.68 0 0 Z " fill="#2B2A2F" transform="translate(34,246)"/>
<path d="M0 0 C1.65 0.33 3.3 0.66 5 1 C5.33 1.99 5.66 2.98 6 4 C4.02 4 2.04 4 0 4 C0 2.68 0 1.36 0 0 Z " fill="#D5C361" transform="translate(133,188)"/>
<path d="M0 0 C1.5625 1.75 1.5625 1.75 3 4 C2.6875 6.25 2.6875 6.25 2 8 C1.34 8 0.68 8 0 8 C-0.38063221 5.6739143 -0.71269945 3.33944736 -1 1 C-0.67 0.67 -0.34 0.34 0 0 Z " fill="#48474C" transform="translate(281,75)"/>
<path d="M0 0 C0.33 1.32 0.66 2.64 1 4 C-1.31 4.33 -3.62 4.66 -6 5 C-4.87312259 1.61936778 -3.78825335 0 0 0 Z " fill="#3D3C42" transform="translate(70,27)"/>
<path d="M0 0 C0.66 0.99 1.32 1.98 2 3 C-0.57784846 5.64752004 -2.91648098 7.94432065 -6 10 C-4.34832443 6.4213696 -2.21713508 3.25179812 0 0 Z " fill="#3F3D43" transform="translate(261,220)"/>
<path d="M0 0 C-0.33 1.32 -0.66 2.64 -1 4 C-3.31 4 -5.62 4 -8 4 C-3.375 0 -3.375 0 0 0 Z " fill="#CBC186" transform="translate(202,187)"/>
<path d="M0 0 C0.99 0.33 1.98 0.66 3 1 C3.73046875 3.06640625 3.73046875 3.06640625 4.1875 5.5625 C4.34605469 6.38878906 4.50460938 7.21507812 4.66796875 8.06640625 C4.77753906 8.70449219 4.88710937 9.34257812 5 10 C4.34 10 3.68 10 3 10 C2.49596232 8.70990357 1.99690074 7.41786211 1.5 6.125 C1.2215625 5.40570313 0.943125 4.68640625 0.65625 3.9453125 C0 2 0 2 0 0 Z " fill="#333035" transform="translate(88,177)"/>
<path d="M0 0 C2.64 0 5.28 0 8 0 C8 0.66 8 1.32 8 2 C9.65 2 11.3 2 13 2 C13 2.33 13 2.66 13 3 C8.07872966 3.16682272 4.49656104 3.24828052 0 1 C0 0.67 0 0.34 0 0 Z " fill="#18181E" transform="translate(139,178)"/>
<path d="M0 0 C2.66666667 2.66666667 5.33333333 5.33333333 8 8 C7.01 8.33 6.02 8.66 5 9 C1.7457985 6.16569547 0.4793247 4.31392226 0 0 Z " fill="#A5A294" transform="translate(128,170)"/>
<path d="M0 0 C1.65 0.33 3.3 0.66 5 1 C5 1.99 5 2.98 5 4 C2.69 3.67 0.38 3.34 -2 3 C-1.34 2.01 -0.68 1.02 0 0 Z " fill="#08070A" transform="translate(198,7)"/>
<path d="M0 0 C2.31 0.33 4.62 0.66 7 1 C7.33 2.32 7.66 3.64 8 5 C4.62496331 3.8141763 2.35277269 2.72426311 0 0 Z " fill="#242327" transform="translate(64,275)"/>
<path d="M0 0 C0.66 0.33 1.32 0.66 2 1 C1.34 2.32 0.68 3.64 0 5 C-3 5 -3 5 -5 4 C-3.35 2.68 -1.7 1.36 0 0 Z " fill="#251E0E" transform="translate(187,205)"/>
<path d="M0 0 C0.33 0.66 0.66 1.32 1 2 C1.66 2 2.32 2 3 2 C2.67 3.98 2.34 5.96 2 8 C1.34 7.67 0.68 7.34 0 7 C-1.26229508 2.52459016 -1.26229508 2.52459016 0 0 Z " fill="#0D0C12" transform="translate(265,88)"/>
<path d="M0 0 C0.99 0.33 1.98 0.66 3 1 C2.34 2.32 1.68 3.64 1 5 C0.01 5 -0.98 5 -2 5 C-2 4.01 -2 3.02 -2 2 C-1.34 2 -0.68 2 0 2 C0 1.34 0 0.68 0 0 Z " fill="#F6F5F5" transform="translate(268,48)"/>
<path d="M0 0 C3.68754757 0.49831724 5.60490662 1.10067643 8 4 C6.68 4.33 5.36 4.66 4 5 C2.68 3.35 1.36 1.7 0 0 Z " fill="#2E2C30" transform="translate(243,33)"/>
<path d="M0 0 C0.99 0.33 1.98 0.66 3 1 C1.35 2.65 -0.3 4.3 -2 6 C-2.66 5.34 -3.32 4.68 -4 4 C-2.68 2.68 -1.36 1.36 0 0 Z " fill="#E6E6E8" transform="translate(48,33)"/>
<path d="M0 0 C2.31 0.33 4.62 0.66 7 1 C6.67 1.99 6.34 2.98 6 4 C3.9375 4.6875 3.9375 4.6875 2 5 C1.34 3.35 0.68 1.7 0 0 Z " fill="#272729" transform="translate(179,1)"/>
<path d="M0 0 C2.31 0.66 4.62 1.32 7 2 C4.64046906 4.35953094 3.22104383 4.49141413 0 5 C0 3.35 0 1.7 0 0 Z " fill="#1C1C1E" transform="translate(195,290)"/>
<path d="M0 0 C1.32 0.33 2.64 0.66 4 1 C3.67 1.66 3.34 2.32 3 3 C3.66 3.33 4.32 3.66 5 4 C3.02 4 1.04 4 -1 4 C-1.33 3.34 -1.66 2.68 -2 2 C-1.34 2 -0.68 2 0 2 C0 1.34 0 0.68 0 0 Z " fill="#090909" transform="translate(101,290)"/>
<path d="M0 0 C0.99 0.33 1.98 0.66 3 1 C1.35 2.32 -0.3 3.64 -2 5 C-2.99 4.34 -3.98 3.68 -5 3 C-2.6875 1.4375 -2.6875 1.4375 0 0 Z " fill="#29282B" transform="translate(245,265)"/>
<path d="M0 0 C0.928125 0.2784375 0.928125 0.2784375 1.875 0.5625 C4.04160178 1.23686176 4.04160178 1.23686176 6 0 C4.63016497 3.16115776 4.0109362 3.9927092 1 6 C0.67 4.02 0.34 2.04 0 0 Z " fill="#1E1E1B" transform="translate(208,171)"/>
<path d="M0 0 C2 1 2 1 2 1 Z M-1 1 C-0.67 2.32 -0.34 3.64 0 5 C-1.65 5.33 -3.3 5.66 -5 6 C-5 5.01 -5 4.02 -5 3 C-3.68 2.34 -2.36 1.68 -1 1 Z " fill="#101010" transform="translate(222,279)"/>
<path d="M0 0 C1.32 0 2.64 0 4 0 C4 0.66 4 1.32 4 2 C4.66 2.66 5.32 3.32 6 4 C3.36 3.67 0.72 3.34 -2 3 C-1.34 2.67 -0.68 2.34 0 2 C0 1.34 0 0.68 0 0 Z " fill="#BAA871" transform="translate(136,214)"/>
<path d="M0 0 C0.99 0 1.98 0 3 0 C3 1.65 3 3.3 3 5 C2.01 5.33 1.02 5.66 0 6 C-0.38218767 4.34385343 -0.71395102 2.67542976 -1 1 C-0.67 0.67 -0.34 0.34 0 0 Z " fill="#4D4C51" transform="translate(12,209)"/>
<path d="M0 0 C1.9375 0.8125 1.9375 0.8125 4 2 C4.33 2.99 4.66 3.98 5 5 C5.66 5.33 6.32 5.66 7 6 C4 6 4 6 1.8125 4.125 C0 2 0 2 0 0 Z " fill="#CDBE86" transform="translate(104,196)"/>
</svg>
