<svg width="32" height="32" viewBox="0 0 32 32" fill="none" xmlns="http://www.w3.org/2000/svg">
<g clip-path="url(#clip0_2032_2854)">
<path d="M32 16C32 7.16344 24.8366 0 16 0C7.16344 0 0 7.16344 0 16C0 24.8366 7.16344 32 16 32C24.8366 32 32 24.8366 32 16Z" fill="black"/>
<path d="M14.295 22.219V15.684H15.715C18.335 15.684 20.198 16.61 20.198 19.714C20.198 22.334 19.083 23.576 16.589 23.576C15.369 23.576 14.295 23.534 14.295 22.219ZM14.295 15.053V9.61299C14.295 8.78199 14.432 8.73999 15.505 8.73999C18.525 8.73999 19.872 9.39199 19.872 11.665C19.872 13.717 18.725 15.011 16.389 15.053H14.295ZM10.707 10.539V21.451C10.707 23.387 10.507 23.565 8.70801 23.597V24.207H16.558C19.735 24.207 23.292 23.639 23.292 19.851C23.292 17.105 20.766 15.926 18.557 15.474V15.432C20.493 15.074 22.387 13.896 22.387 11.622C22.377 8.28699 18.294 7.79199 15.642 7.79199H8.70801V8.40299C10.508 8.42399 10.708 8.60299 10.708 10.539H10.707Z" fill="white"/>
</g>
<defs>
<clipPath id="clip0_2032_2854">
<rect width="32" height="32" fill="white"/>
</clipPath>
</defs>
</svg>
