<?xml version="1.0" encoding="UTF-8"?>
<svg version="1.1" xmlns="http://www.w3.org/2000/svg" width="200" height="200">
<path d="M0 0 C1.7464396 1.50096639 3.47649166 3.02126613 5.1875 4.5625 C5.96738281 5.25988281 6.74726563 5.95726563 7.55078125 6.67578125 C21.19412879 19.56509231 30.75923532 37.40661482 35.1875 55.5625 C35.52394531 56.89861328 35.52394531 56.89861328 35.8671875 58.26171875 C41.15729421 83.66147767 35.7418869 110.35881939 22.3203125 132.3125 C18.97569322 137.40906271 15.26448627 142.03641369 11.1875 146.5625 C10.49011719 147.34238281 9.79273438 148.12226563 9.07421875 148.92578125 C-3.81509231 162.56912879 -21.65661482 172.13423532 -39.8125 176.5625 C-41.14861328 176.89894531 -41.14861328 176.89894531 -42.51171875 177.2421875 C-67.91147767 182.53229421 -94.60881939 177.1168869 -116.5625 163.6953125 C-121.65906271 160.35069322 -126.28641369 156.63948627 -130.8125 152.5625 C-131.98232422 151.51642578 -131.98232422 151.51642578 -133.17578125 150.44921875 C-146.81912879 137.55990769 -156.38423532 119.71838518 -160.8125 101.5625 C-161.03679687 100.67175781 -161.26109375 99.78101562 -161.4921875 98.86328125 C-166.78229421 73.46352233 -161.3668869 46.76618061 -147.9453125 24.8125 C-144.60069322 19.71593729 -140.88948627 15.08858631 -136.8125 10.5625 C-136.11511719 9.78261719 -135.41773438 9.00273437 -134.69921875 8.19921875 C-121.80990769 -5.44412879 -103.96838518 -15.00923532 -85.8125 -19.4375 C-84.92175781 -19.66179688 -84.03101562 -19.88609375 -83.11328125 -20.1171875 C-54.05028816 -26.17025025 -23.07592188 -18.39663772 0 0 Z " fill="#C88204" transform="translate(162.8125,21.4375)"/>
<path d="M0 0 C1.7464396 1.50096639 3.47649166 3.02126613 5.1875 4.5625 C5.96738281 5.25988281 6.74726563 5.95726563 7.55078125 6.67578125 C21.19412879 19.56509231 30.75923532 37.40661482 35.1875 55.5625 C35.52394531 56.89861328 35.52394531 56.89861328 35.8671875 58.26171875 C41.15729421 83.66147767 35.7418869 110.35881939 22.3203125 132.3125 C18.97569322 137.40906271 15.26448627 142.03641369 11.1875 146.5625 C10.49011719 147.34238281 9.79273438 148.12226563 9.07421875 148.92578125 C-3.81509231 162.56912879 -21.65661482 172.13423532 -39.8125 176.5625 C-41.14861328 176.89894531 -41.14861328 176.89894531 -42.51171875 177.2421875 C-67.91147767 182.53229421 -94.60881939 177.1168869 -116.5625 163.6953125 C-121.65906271 160.35069322 -126.28641369 156.63948627 -130.8125 152.5625 C-131.98232422 151.51642578 -131.98232422 151.51642578 -133.17578125 150.44921875 C-146.81912879 137.55990769 -156.38423532 119.71838518 -160.8125 101.5625 C-161.03679687 100.67175781 -161.26109375 99.78101562 -161.4921875 98.86328125 C-166.78229421 73.46352233 -161.3668869 46.76618061 -147.9453125 24.8125 C-144.60069322 19.71593729 -140.88948627 15.08858631 -136.8125 10.5625 C-136.11511719 9.78261719 -135.41773438 9.00273437 -134.69921875 8.19921875 C-121.80990769 -5.44412879 -103.96838518 -15.00923532 -85.8125 -19.4375 C-84.92175781 -19.66179688 -84.03101562 -19.88609375 -83.11328125 -20.1171875 C-54.05028816 -26.17025025 -23.07592188 -18.39663772 0 0 Z M-125.625 22.375 C-140.76852222 40.13043248 -148.13306803 62.37010218 -146.59765625 85.609375 C-144.99723185 103.31071334 -138.22562523 118.94984314 -126.8125 132.5625 C-126.24144531 133.29082031 -125.67039062 134.01914063 -125.08203125 134.76953125 C-111.49610319 151.31018141 -90.75667787 160.18005466 -69.81762695 162.26977539 C-46.51885229 164.10430355 -26.06982001 156.42707385 -7.84375 142.25390625 C8.69541405 128.10734599 19.19789042 107.46883868 21.0625 85.75390625 C22.35423095 63.10824803 15.85493849 40.56601362 0.88378906 23.27636719 C-13.84408988 7.15672751 -33.71097604 -3.66988851 -55.7265625 -5.34765625 C-56.75910156 -5.39212891 -56.75910156 -5.39212891 -57.8125 -5.4375 C-58.93785156 -5.49744141 -58.93785156 -5.49744141 -60.0859375 -5.55859375 C-85.12455902 -6.24735842 -108.53517196 4.28507875 -125.625 22.375 Z " fill="#E1A918" transform="translate(162.8125,21.4375)"/>
<path d="M0 0 C1.32 0.99 2.64 1.98 4 3 C4.35669893 5.64705128 4.46776797 7.87235676 4.390625 10.51171875 C4.38496521 11.23994339 4.37930542 11.96816803 4.37347412 12.71846008 C4.35110029 15.04214498 4.30090669 17.36428207 4.25 19.6875 C4.22993609 21.26364959 4.21168512 22.83982337 4.1953125 24.41601562 C4.15123283 28.27793924 4.08220225 32.1387073 4 36 C4.72517822 36.09474609 5.45035645 36.18949219 6.19750977 36.28710938 C9.43214601 37.10992825 11.19310891 38.38919553 13.83984375 40.40625 C25.35720807 48.36913402 33.59881464 52.18858389 47.61967468 49.95404053 C54.98063569 48.6043686 62.25228702 46.83295484 69.47021484 44.86474609 C73 44 73 44 77 44 C80.09516662 67.98754128 74.8440576 90.21204401 60.25 109.625 C46.55161697 127.18327611 27.13666988 138.07084726 5.19555664 141.29443359 C-16.74277067 144.00112468 -38.74669812 138.53306029 -56.4375 125.125 C-59.81570513 122.36858974 -59.81570513 122.36858974 -61 120 C-60.23816406 119.72027344 -59.47632813 119.44054687 -58.69140625 119.15234375 C-48.90567628 115.35289054 -41.98714136 110.21473367 -34.73046875 102.7421875 C-28.35114224 96.31966014 -21.14518863 90.53783513 -14 85 C-13.67 85 -13.34 85 -13 85 C-13 93.91 -13 102.82 -13 112 C-8.71 112 -4.42 112 0 112 C0 75.04 0 38.08 0 0 Z " fill="#AB6606" transform="translate(106,42)"/>
<path d="M0 0 C0 36.96 0 73.92 0 112 C-4.29 112 -8.58 112 -13 112 C-13 81.31 -13 50.62 -13 19 C-17.29 21.64 -21.58 24.28 -26 27 C-33 29 -33 29 -38 29 C-38 25.04 -38 21.08 -38 17 C-36.700625 16.46375 -35.40125 15.9275 -34.0625 15.375 C-27.19266899 12.30618834 -21.4453989 8.5023966 -16.1875 3.125 C-12 0 -12 0 0 0 Z " fill="#FDEA8D" transform="translate(106,42)"/>
<path d="M0 0 C9.69339788 4.75349319 19.28599063 9.6697198 28.8125 14.75 C29.86824219 15.30453857 30.92398438 15.85907715 32.01171875 16.43041992 C33.00429687 16.9638501 33.996875 17.49728027 35.01953125 18.046875 C36.35141479 18.75602051 36.35141479 18.75602051 37.71020508 19.47949219 C40.16999765 21.11288468 41.52950173 22.44497528 43 25 C43 26.32 43 27.64 43 29 C43.598125 29.268125 44.19625 29.53625 44.8125 29.8125 C48.31088537 31.71162349 49.73345454 33.20036361 51 37 C51.06740865 38.56118428 51.08514456 40.1250252 51.0625 41.6875 C51.05347656 42.49574219 51.04445312 43.30398437 51.03515625 44.13671875 C51.02355469 44.75160156 51.01195312 45.36648437 51 46 C50.45730469 45.57847656 49.91460937 45.15695313 49.35546875 44.72265625 C48.28232422 43.90087891 48.28232422 43.90087891 47.1875 43.0625 C46.47980469 42.51722656 45.77210938 41.97195312 45.04296875 41.41015625 C41.43212288 38.91777507 38.20669462 38.83871415 33.9375 38.625 C29.75184228 38.34411428 26.18439625 37.87988623 22.25 36.4375 C15.174462 34.2517483 15.174462 34.2517483 0 35 C0 23.45 0 11.9 0 0 Z " fill="#C98304" transform="translate(110,83)"/>
<path d="M0 0 C12.21 2.31 24.42 4.62 37 7 C37 7.66 37 8.32 37 9 C36.21874756 9.43344727 35.43749512 9.86689453 34.63256836 10.31347656 C31.70447634 11.93828866 28.77660492 13.56349692 25.84887695 15.18896484 C24.58724495 15.88931645 23.32552793 16.58951493 22.0637207 17.28955078 C20.23886521 18.30199534 18.4143499 19.31505105 16.58984375 20.328125 C15.4385498 20.96685547 14.28725586 21.60558594 13.10107422 22.26367188 C10.63483889 23.6445462 8.19014777 25.05181193 5.75390625 26.484375 C3 28 3 28 1 28 C0.62743292 25.77383473 0.27816902 23.5437693 -0.0625 21.3125 C-0.25972656 20.07113281 -0.45695312 18.82976562 -0.66015625 17.55078125 C-1.09613759 11.71264027 -0.44901179 5.83715327 0 0 Z " fill="#B57005" transform="translate(17,90)"/>
<path d="M0 0 C0.99 0.66 1.98 1.32 3 2 C3.36914349 4.01085854 3.36914349 4.01085854 3.36076355 6.53042603 C3.36488754 7.48397476 3.36901154 8.4375235 3.3732605 9.41996765 C3.36247467 10.46941055 3.35168884 11.51885345 3.34057617 12.60009766 C3.34123329 14.25376595 3.34123329 14.25376595 3.34190369 15.94084167 C3.33980727 19.59875974 3.31643555 23.25622413 3.29296875 26.9140625 C3.28737584 29.44468943 3.28310431 31.9753196 3.28010559 34.50595093 C3.26980657 40.49481588 3.24614272 46.48348495 3.21605712 52.47227132 C3.18255111 59.28957719 3.1660367 66.10689079 3.15097082 72.92425847 C3.11959406 86.94959645 3.06680989 100.97478927 3 115 C0.70890403 115.08075665 -1.58299267 115.13907731 -3.875 115.1875 C-5.78925781 115.23970703 -5.78925781 115.23970703 -7.7421875 115.29296875 C-8.81726563 115.19628906 -9.89234375 115.09960938 -11 115 C-11.66 114.01 -12.32 113.02 -13 112 C-8.71 112 -4.42 112 0 112 C0 75.04 0 38.08 0 0 Z " fill="#85490E" transform="translate(106,42)"/>
<path d="M0 0 C1.32 0 2.64 0 4 0 C4.33 0.99 4.66 1.98 5 3 C-0.16350471 8.42981727 -5.6173303 13.26176521 -11.484375 17.921875 C-13.80316588 19.8373979 -15.91416167 21.8361864 -18 24 C-19.32 23.34 -20.64 22.68 -22 22 C-22 19 -22 19 -20.19921875 17.0546875 C-19.37035156 16.33539063 -18.54148437 15.61609375 -17.6875 14.875 C-16.78515625 14.08867187 -15.8828125 13.30234375 -14.953125 12.4921875 C-11.05377872 9.20146934 -7.12148609 5.95648806 -3.15234375 2.75 C-1.14403815 1.17822462 -1.14403815 1.17822462 0 0 Z " fill="#AB6706" transform="translate(56,130)"/>
<path d="M0 0 C0.2890625 2.30078125 0.2890625 2.30078125 0 5 C-5.27725373 9.62020435 -12.30581754 12.64479015 -19.25 13.3125 C-20.1575 13.209375 -21.065 13.10625 -22 13 C-22.66 12.01 -23.32 11.02 -24 10 C-22.74896484 9.67128906 -22.74896484 9.67128906 -21.47265625 9.3359375 C-14.7557128 7.44319055 -9.30795175 5.36996755 -3.70703125 1.171875 C-2 0 -2 0 0 0 Z " fill="#864A0E" transform="translate(93,61)"/>
<path d="M0 0 C0.66 1.65 1.32 3.3 2 5 C-4.435 5.495 -4.435 5.495 -11 6 C-11.33 5.01 -11.66 4.02 -12 3 C-10 0 -10 0 -7.6875 -0.75 C-4.74218714 -1.02398259 -2.77712049 -1.05080235 0 0 Z " fill="#BD7805" transform="translate(176,64)"/>
<path d="M0 0 C0.556875 0.226875 1.11375 0.45375 1.6875 0.6875 C1.5625 2.4375 1.5625 2.4375 0.6875 4.6875 C-2.375 6.9375 -2.375 6.9375 -5.3125 8.6875 C-7.3125 5.6875 -7.3125 5.6875 -7.3125 2.6875 C-3.28618421 -0.44407895 -3.28618421 -0.44407895 0 0 Z " fill="#AE6906" transform="translate(30.3125,128.3125)"/>
<path d="M0 0 C0 2.31 0 4.62 0 7 C-4.875 5.25 -4.875 5.25 -6 3 C-1.125 0 -1.125 0 0 0 Z " fill="#BD7705" transform="translate(93,66)"/>
</svg>
