<svg width="93" height="93" viewBox="0 0 93 93" fill="none" xmlns="http://www.w3.org/2000/svg">
<path d="M46.4115 0.847386H46.4132C71.5576 0.847386 91.9411 21.2309 91.9411 46.3753V46.3771C91.9411 71.5215 71.5576 91.905 46.4132 91.905H46.4115C21.2671 91.905 0.883519 71.5215 0.883519 46.3771V46.3753C0.883519 21.2309 21.2671 0.847386 46.4115 0.847386Z" fill="black" stroke="black" stroke-width="1.67719"/>
<path fill-rule="evenodd" clip-rule="evenodd" d="M38.974 8.22217C21.0762 11.6696 7.55664 27.416 7.55664 46.3201C7.55664 65.2241 21.0762 80.9705 38.974 84.418V80.7817C23.0576 77.3888 11.1198 63.2485 11.1198 46.3201C11.1198 29.3916 23.0576 15.2514 38.974 11.8585V8.22217ZM53.8044 11.8727V8.23505C71.6691 11.7087 85.1552 27.4394 85.1552 46.3201C85.1552 65.2007 71.6691 80.9315 53.8044 84.4051V80.7674C69.6875 77.3494 81.592 63.2249 81.592 46.3201C81.592 29.4152 69.6875 15.2908 53.8044 11.8727Z" fill="white"/>
<path d="M51.8837 45.0239C54.8441 45.5881 57.1403 46.6762 58.7723 48.2882C60.4043 49.8599 61.2203 51.8748 61.2203 54.3331V58.2019C61.2203 61.1438 60.1576 63.5215 58.0322 65.335C55.9068 67.1082 53.1172 67.9948 49.6634 67.9948H48.4679V74.1607H44.3689V67.9948H43.1164C40.8392 67.9948 38.8277 67.491 37.0818 66.4835C35.3359 65.4357 33.9696 63.985 32.9828 62.1312C32.034 60.2371 31.5596 58.0609 31.5596 55.6026H35.6586C35.6586 58.1012 36.3417 60.1363 37.708 61.708C39.1123 63.2394 40.9531 64.0051 43.2303 64.0051H49.5495C51.7888 64.0051 53.5916 63.4812 54.9579 62.4334C56.3243 61.3453 57.0074 59.9348 57.0074 58.2019V54.3331C57.0074 52.9629 56.495 51.7942 55.4703 50.8271C54.4835 49.8599 53.1172 49.2352 51.3713 48.9531L41.1239 47.1396C38.2394 46.6157 36.0001 45.5276 34.4061 43.8753C32.812 42.223 32.015 40.1476 32.015 37.649V34.3847C32.015 31.4428 33.0398 29.1054 35.0892 27.3725C37.1767 25.5994 39.9283 24.7128 43.3441 24.7128H44.3689V18.5469H48.4679V24.7128H49.7773C53.0033 24.7128 55.6031 25.7606 57.5767 27.8561C59.5503 29.9114 60.5371 32.6317 60.5371 36.0169H56.4381C56.4381 33.8004 55.8309 32.0272 54.6163 30.6973C53.4018 29.3674 51.7888 28.7024 49.7773 28.7024H43.3441C41.1808 28.7024 39.4539 29.2263 38.1635 30.2741C36.8731 31.2816 36.2279 32.6518 36.2279 34.3847V37.649C36.2279 39.0595 36.7023 40.2483 37.6511 41.2155C38.6379 42.1827 39.9853 42.8275 41.6932 43.1499L51.8837 45.0239Z" fill="white"/>
</svg>
