<svg width="256" height="256" viewBox="0 0 256 256" fill="none" xmlns="http://www.w3.org/2000/svg">
<g clip-path="url(#clip0_391_14)">
<rect width="256" height="256" rx="128" fill="white"/>
<path d="M128 256C198.692 256 256 198.692 256 128C256 57.3076 198.692 0 128 0C57.3076 0 0 57.3076 0 128C0 198.692 57.3076 256 128 256Z" fill="#314012"/>
<path fill-rule="evenodd" clip-rule="evenodd" d="M223 134.726C219.321 184.094 178.254 223 128.134 223C75.5929 223 33 180.243 33 127.5C33 74.7566 75.5929 32 128.134 32C178.17 32 219.185 70.7787 222.98 120.031H177.498C187.426 98 188.027 77.9836 177.169 68.8377C161.134 55.3312 126.182 70.646 99.1003 103.044C72.0188 135.443 63.0638 172.655 79.0987 186.162C95.1333 199.669 130.086 184.354 157.167 151.956C161.888 146.308 166.057 140.514 169.641 134.726H223Z" fill="#C7E36C"/>
<path d="M135 135H174L158.939 155L135 145.255V135Z" fill="#C7E36C"/>
</g>
<defs>
<clipPath id="clip0_391_14">
<rect width="256" height="256" rx="128" fill="white"/>
</clipPath>
</defs>
</svg>
