<svg width="179" height="179" viewBox="0 0 179 179" fill="none" xmlns="http://www.w3.org/2000/svg">
<g clip-path="url(#clip0_2010_30)">
<path d="M179 89.5C179 138.93 138.93 179 89.5 179C40.0705 179 0 138.93 0 89.5C0 40.0705 40.0705 0 89.5 0C138.93 0 179 40.0705 179 89.5Z" fill="#8759E3"/>
<path fill-rule="evenodd" clip-rule="evenodd" d="M89.5 164.805C131.09 164.805 164.805 131.09 164.805 89.5C164.805 47.9102 131.09 14.1954 89.5 14.1954C47.9102 14.1954 14.1954 47.9102 14.1954 89.5C14.1954 131.09 47.9102 164.805 89.5 164.805ZM89.5 179C138.93 179 179 138.93 179 89.5C179 40.0705 138.93 0 89.5 0C40.0705 0 0 40.0705 0 89.5C0 138.93 40.0705 179 89.5 179Z" fill="url(#paint0_linear_2010_30)"/>
<path d="M101.098 37.3926H77.555V77.555H49.1642C42.663 77.555 37.3926 82.8256 37.3926 89.3269C37.3926 95.8282 42.663 101.098 49.1642 101.098H77.555V117.718C77.555 130.72 88.0959 141.261 101.098 141.261V101.098H117.718C130.72 101.098 141.261 90.558 141.261 77.555H101.098V37.3926Z" fill="white"/>
</g>
<defs>
<linearGradient id="paint0_linear_2010_30" x1="89.5" y1="0" x2="89.5" y2="179" gradientUnits="userSpaceOnUse">
<stop stop-color="#DDC1FF"/>
<stop offset="1" stop-color="#8759E3"/>
</linearGradient>
<clipPath id="clip0_2010_30">
<rect width="179" height="179" fill="white"/>
</clipPath>
</defs>
</svg>
