<svg width="161" height="161" viewBox="0 0 161 161" fill="none" xmlns="http://www.w3.org/2000/svg">
<g clip-path="url(#clip0_3557_1513)">
<path d="M80.5 161C124.959 161 161 124.959 161 80.5C161 36.0411 124.959 0 80.5 0C36.0411 0 0 36.0411 0 80.5C0 124.959 36.0411 161 80.5 161Z" fill="url(#paint0_radial_3557_1513)"/>
<path d="M49.7126 101.663H38.2568C39.1918 119.548 54.1546 135.096 80.6897 135.096C107.108 135.096 123.941 120.6 123.941 101.897C123.941 66.3609 70.2862 68.3482 70.2862 47.7745C70.2862 42.0467 74.6113 35.2665 84.6642 35.2665C95.8864 35.2665 109.095 44.0339 110.031 55.2558H121.37C120.201 37.1368 102.549 24.5122 80.1052 24.5122C56.8432 24.5122 39.3088 38.0722 39.3088 57.243C39.3088 93.8314 92.9638 89.0385 92.9638 111.599C92.9638 118.613 88.6387 124.458 77.7674 124.458C64.2075 124.458 50.5306 114.989 49.7126 101.663ZM59.298 50.4632C59.298 78.2842 112.486 72.7902 112.486 102.482C112.486 111.366 106.641 119.198 99.627 121.185C102.082 118.847 103.952 113.704 103.952 108.794C103.952 81.3237 50.6476 85.0643 50.6476 56.8925C50.6476 47.4237 56.7263 39.8255 64.3244 37.4877C61.4019 40.9944 59.298 45.5534 59.298 50.4632Z" fill="white"/>
</g>
<defs>
<radialGradient id="paint0_radial_3557_1513" cx="0" cy="0" r="1" gradientUnits="userSpaceOnUse" gradientTransform="translate(80.5001 186.61) rotate(-90) scale(257.963)">
<stop stop-color="#FFD232"/>
<stop offset="1" stop-color="#FF6D6D"/>
</radialGradient>
<clipPath id="clip0_3557_1513">
<rect width="161" height="161" fill="white"/>
</clipPath>
</defs>
</svg>
