<svg width="36" height="36" viewBox="0 0 36 36" fill="none" xmlns="http://www.w3.org/2000/svg">
<g clip-path="url(#clip0_2009_19)">
<path fill-rule="evenodd" clip-rule="evenodd" d="M31.2002 18C31.2002 10.7098 25.2903 4.80002 18.0002 4.80002V0C19.2428 0 20.4561 0.12592 21.6278 0.365696C29.8301 2.04413 36.0002 9.3015 36.0002 18C36.0002 27.9411 27.9413 36 18.0002 36C10.1629 36 3.49543 30.9911 1.02441 24H6.23948C8.42432 28.274 12.8705 31.2 18.0002 31.2C25.2903 31.2 31.2002 25.2902 31.2002 18ZM2.07631 9.59998C5.09428 15.3094 11.0929 19.2 18.0002 19.2V14.4C12.0844 14.4 7.07756 10.5084 5.40001 5.14561C4.07546 6.44413 2.95077 7.94574 2.07631 9.59998ZM7.43041 3.42861C8.4574 8.32401 12.7995 12 18.0002 12C21.3139 12 24.0002 14.6863 24.0002 18C24.0002 21.3137 21.3139 24 18.0002 24H9.01886C10.9563 26.8944 14.2557 28.8 18.0002 28.8C23.9649 28.8 28.8002 23.9647 28.8002 18C28.8002 12.0353 23.9649 7.2 18.0002 7.2C14.6865 7.2 12.0002 4.51372 12.0002 1.2V1.02424C10.3538 1.60614 8.8174 2.42078 7.43041 3.42861Z" fill="#0E1E38"/>
</g>
<defs>
<clipPath id="clip0_2009_19">
<rect width="36" height="36" fill="white"/>
</clipPath>
</defs>
</svg>
