<svg width="32" height="32" viewBox="0 0 32 32" fill="none" xmlns="http://www.w3.org/2000/svg">
<g clip-path="url(#clip0_2032_2850)">
<path d="M32 16C32 7.16344 24.8366 0 16 0C7.16344 0 0 7.16344 0 16C0 24.8366 7.16344 32 16 32C24.8366 32 32 24.8366 32 16Z" fill="#000DCC"/>
<path d="M25.0939 17.66L23.8547 17.2452L21.3764 15.5913L18.8955 13.1052V11.4487L17.2441 9.79474V8.96777H16.4172L14.3433 9.38255L13.1041 11.4565L12.2771 13.1156L10.6258 14.7721V15.5913L9.38662 16.8305L8.97443 16.4183L5.67951 18.0748L4.85254 18.4844V20.1565L5.75469 20.6102L7.33086 19.8143L9.40477 20.1435V21.7975L10.6465 22.2123L12.2953 20.5583H13.5344V21.3827L13.1223 22.2097L13.6926 23.0314L15.5954 22.2045L15.1806 20.9627L15.5928 18.8888H16.4198V19.7158L17.6615 20.1306L18.0737 21.3853L18.8981 22.2148L19.7225 21.3879L22.2008 20.5557L21.3738 19.7288L20.5494 18.0748H19.7225L20.1476 19.3166L20.5598 19.7288L19.7328 20.5583H18.8981L18.0737 18.9018V18.0748L16.4198 16.4157L17.2467 15.5887L15.598 13.9348L16.4198 13.1078V11.4513L17.2441 10.6243L18.4859 11.8661L18.0737 13.1052L18.8981 13.9322L20.552 16.4183L22.2034 17.2452L24.2773 19.3192L25.5164 19.7339V20.5635H26.3434L27.147 19.7288L25.4957 18.8992L25.0939 17.66Z" fill="white"/>
</g>
<defs>
<clipPath id="clip0_2032_2850">
<rect width="32" height="32" fill="white"/>
</clipPath>
</defs>
</svg>
