<svg width="32" height="32" viewBox="0 0 32 32" fill="none" xmlns="http://www.w3.org/2000/svg">
<g clip-path="url(#clip0_6239_1498)">
<path d="M32 16C32 7.16344 24.8366 0 16 0C7.16344 0 0 7.16344 0 16C0 24.8366 7.16344 32 16 32C24.8366 32 32 24.8366 32 16Z" fill="#1F6F4F"/>
<mask id="mask0_6239_1498" style="mask-type:luminance" maskUnits="userSpaceOnUse" x="6" y="9" width="20" height="14">
<path d="M25.6004 9.59961H6.40039V22.3996H25.6004V9.59961Z" fill="white"/>
</mask>
<g mask="url(#mask0_6239_1498)">
<path d="M11.0542 17.4056V13.8622C11.0542 13.6247 11.2122 13.4663 11.4491 13.4663H14.6399V9.83984H11.3543C9.09556 9.83984 7.12109 11.5977 7.12109 13.9256V17.4689C7.12109 19.781 8.82704 21.3599 11.1016 21.3599C12.539 21.3599 13.8501 20.6995 15.2243 19.3693L20.816 13.9058C21.0529 13.6683 21.2266 13.4663 21.432 13.4663C21.6215 13.4663 21.7479 13.6208 21.7479 13.8108V17.3375C21.7479 17.575 21.5899 17.7334 21.353 17.7334H18.1623V21.3599H21.4636C23.7067 21.3599 25.6811 19.602 25.6811 17.2583V13.7474C25.6811 11.4354 23.9752 9.83984 21.7005 9.83984C20.279 9.83984 18.9521 10.5169 17.5779 11.8471L11.9862 17.3106C11.7492 17.5481 11.5755 17.7334 11.3701 17.7334C11.1806 17.7334 11.0542 17.5956 11.0542 17.4056Z" fill="white"/>
</g>
</g>
<defs>
<clipPath id="clip0_6239_1498">
<rect width="32" height="32" fill="white"/>
</clipPath>
</defs>
</svg>
