<svg width="435" height="435" viewBox="0 0 435 435" fill="none" xmlns="http://www.w3.org/2000/svg">
<path d="M122.489 123.34C129.569 140.257 142.03 154.368 157.941 163.487C180.579 177.443 273.633 124.554 317.351 96.4241C308.288 85.8209 276.986 64.6328 224.097 64.6328C171.1 64.6328 139.001 90.5153 129.521 103.565L122.38 123.322L122.489 123.34ZM276.479 359.472C271.077 361.919 257.629 367.937 251.303 367.628C243.763 367.429 219.711 354.778 205.954 330.835C192.089 306.892 191.889 291.087 203.091 276.822C213.807 264.921 225.882 254.318 239.069 245.23L357.298 265.313C358.512 272.019 354.543 291.793 329.059 318.292C303.594 344.501 284.943 355.992 278.726 358.457L276.479 359.472Z" fill="#183EA4"/>
<path d="M171.082 99.5795C150.691 130.555 82.6137 152.359 71.3943 149.006L71.3037 148.807C75.4604 140.228 80.3541 132.108 85.985 124.447C98.968 106.625 115.393 91.5867 134.288 80.222C141.145 76.3682 148.845 74.2641 156.709 74.0957C187.068 74.712 171.281 99.2713 171.082 99.5795Z" fill="url(#paint0_linear_2083_310)"/>
<path d="M154.371 318.492C155.803 328.279 154.371 366.704 152.323 369.967C150.601 370.057 147.139 370.257 136.844 364.457C109.365 348.742 87.053 325.371 72.6269 297.195C56.3797 265.707 50.7649 229.806 56.6225 194.861C58.2701 184.58 60.8981 174.481 64.4707 164.701C76.3063 180.488 89.9544 194.771 101.464 210.557C111.773 225.276 121.531 240.372 130.718 255.816C149.876 288.622 152.939 308.813 154.371 318.492Z" fill="url(#paint1_linear_2083_310)"/>
<path d="M380.625 221.578C380.635 242.254 376.8 262.752 369.315 282.025C350.048 302.815 220.509 251.539 219.294 251.031C201.568 243.183 147.646 219.44 142.861 181.939C135.829 128.108 244.053 90.6252 291.667 89.1934C297.359 89.3021 314.795 89.5015 324.872 97.7484C342.441 113.234 356.502 132.29 366.117 153.645C375.731 174.999 380.677 198.159 380.625 221.578Z" fill="url(#paint2_linear_2083_310)"/>
<path d="M292.972 367.429C278.817 374.045 263.32 369.242 267.289 355.394C275.137 328.787 342.707 301.382 357.697 299.95C359.636 299.859 360.343 301.074 359.527 302.488C344.027 330.063 320.924 352.618 292.972 367.429Z" fill="url(#paint3_linear_2083_310)"/>
<defs>
<linearGradient id="paint0_linear_2083_310" x1="102.932" y1="329.622" x2="393.784" y2="252.065" gradientUnits="userSpaceOnUse">
<stop stop-color="#58C07B"/>
<stop offset="1" stop-color="#5599E0"/>
</linearGradient>
<linearGradient id="paint1_linear_2083_310" x1="7.79379" y1="159.626" x2="317.115" y2="95.5362" gradientUnits="userSpaceOnUse">
<stop offset="0.32" stop-color="#57BC87"/>
<stop offset="0.99" stop-color="#5493F1"/>
</linearGradient>
<linearGradient id="paint2_linear_2083_310" x1="61.1174" y1="217.446" x2="397.844" y2="210.758" gradientUnits="userSpaceOnUse">
<stop stop-color="#58C56E"/>
<stop offset="1" stop-color="#5492F3"/>
</linearGradient>
<linearGradient id="paint3_linear_2083_310" x1="271.168" y1="345.824" x2="362.989" y2="312.076" gradientUnits="userSpaceOnUse">
<stop stop-color="#58C178"/>
<stop offset="1" stop-color="#5493F0"/>
</linearGradient>
</defs>
</svg>
