<svg width="1868" height="1868" viewBox="0 0 1868 1868" fill="none" xmlns="http://www.w3.org/2000/svg">
<g clip-path="url(#clip0_2010_25)">
<path d="M933.92 1867.84C1449.71 1867.84 1867.84 1449.71 1867.84 933.92C1867.84 418.13 1449.71 0 933.92 0C418.13 0 0 418.13 0 933.92C0 1449.71 418.13 1867.84 933.92 1867.84Z" fill="#16468E"/>
<path d="M525.99 1004.61L582.84 796.82H659.68L563.63 1082.23H488.36L393.09 796.82H469.34L525.99 1004.61ZM680.46 1082.24V796.83H782.98C819.7 796.83 847.63 803.56 866.78 817.02C885.92 830.48 895.5 850.02 895.5 875.63C895.5 890.4 892.1 903.01 885.31 913.46C878.51 923.92 868.52 931.63 855.32 936.59C870.22 940.51 881.65 947.83 889.62 958.54C897.59 969.26 901.58 982.33 901.58 997.75C901.58 1025.72 892.73 1046.73 875.02 1060.77C857.31 1074.82 831.08 1081.97 796.31 1082.23H680.46V1082.24ZM749.26 915.81H785.13C800.16 915.68 810.87 912.93 817.28 907.55C823.68 902.18 826.89 894.25 826.89 883.76C826.89 871.7 823.43 863.02 816.5 857.71C809.57 852.4 798.4 849.75 782.98 849.75H749.26V915.81ZM749.26 960.9V1029.31H794.34C806.75 1029.31 816.3 1026.47 822.96 1020.78C829.62 1015.1 832.96 1007.09 832.96 996.77C832.96 972.99 821.13 961.03 797.48 960.9H749.26ZM1012.72 1082.24H944.11V796.83H1012.72V1082.24ZM1129.35 1029.31H1249.12V1082.24H1060.54V796.83H1129.34V1029.32L1129.35 1029.31ZM1346.94 1029.31H1466.71V1082.24H1278.13V796.83H1346.93V1029.32L1346.94 1029.31Z" fill="white"/>
</g>
<defs>
<clipPath id="clip0_2010_25">
<rect width="1867.83" height="1867.83" fill="white"/>
</clipPath>
</defs>
</svg>
