<svg width="607" height="607" viewBox="0 0 607 607" fill="none" xmlns="http://www.w3.org/2000/svg">
<g clip-path="url(#clip0_2083_378)">
<path d="M470.425 415.008C461.896 429.864 449.597 442.206 434.771 450.787C419.945 459.369 403.116 463.885 385.986 463.881H329.592V273.719L248.197 415.055C239.666 429.909 227.366 442.249 212.54 450.828C197.714 459.407 180.887 463.923 163.757 463.919H107.743V183.286H220.398V372.973L329.582 183.38V183.286H442.2V373.751L560.508 168.196C562.879 164.106 564.087 159.446 564.004 154.719C563.92 149.992 562.548 145.378 560.034 141.374C505.47 55.2086 408.729 -1.61234 298.805 0.0379449C131.188 2.64615 -0.853385 137.552 0.000208997 305.15C0.872771 472.009 136.452 607 303.5 607C470.558 607 607 471.136 607 303.538C607 276.545 603.434 250.369 596.786 225.415C594.784 217.847 584.693 216.462 580.776 223.196L470.378 414.97L470.425 415.008Z" fill="white"/>
</g>
<defs>
<clipPath id="clip0_2083_378">
<rect width="607" height="607" fill="white"/>
</clipPath>
</defs>
</svg>
