<?xml version="1.0" encoding="UTF-8"?>
<!DOCTYPE svg PUBLIC "-//W3C//DTD SVG 1.1//EN" "http://www.w3.org/Graphics/SVG/1.1/DTD/svg11.dtd">
<svg xmlns="http://www.w3.org/2000/svg" version="1.1" width="732px" height="732px" style="shape-rendering:geometricPrecision; text-rendering:geometricPrecision; image-rendering:optimizeQuality; fill-rule:evenodd; clip-rule:evenodd" xmlns:xlink="http://www.w3.org/1999/xlink">
<g><path style="opacity:1" fill="#f9f9f9" d="M -0.5,-0.5 C 113.833,-0.5 228.167,-0.5 342.5,-0.5C 213.597,11.6648 115.43,72.6648 48,182.5C 20.2481,231.316 4.08143,283.649 -0.5,339.5C -0.5,226.167 -0.5,112.833 -0.5,-0.5 Z"/></g>
<g><path style="opacity:1" fill="#0783ed" d="M 342.5,-0.5 C 355.833,-0.5 369.167,-0.5 382.5,-0.5C 509.53,9.40471 607.697,67.4047 677,173.5C 710.677,228.371 728.511,288.038 730.5,352.5C 731.646,480.699 681.646,583.533 580.5,661C 511.498,710.05 434.498,733.217 349.5,730.5C 229.988,722.676 135.154,670.676 65,574.5C 26.9581,518.208 5.12477,456.208 -0.5,388.5C -0.5,372.167 -0.5,355.833 -0.5,339.5C 4.08143,283.649 20.2481,231.316 48,182.5C 115.43,72.6648 213.597,11.6648 342.5,-0.5 Z"/></g>
<g><path style="opacity:1" fill="#f9f9f9" d="M 382.5,-0.5 C 498.833,-0.5 615.167,-0.5 731.5,-0.5C 731.5,117.167 731.5,234.833 731.5,352.5C 731.167,352.5 730.833,352.5 730.5,352.5C 728.511,288.038 710.677,228.371 677,173.5C 607.697,67.4047 509.53,9.40471 382.5,-0.5 Z"/></g>
<g><path style="opacity:1" fill="#f8f9f9" d="M 347.5,189.5 C 403.879,187.797 454.879,203.297 500.5,236C 515.475,246.996 529.475,259.163 542.5,272.5C 526.806,289.027 510.64,305.027 494,320.5C 480.676,307.927 466.51,296.427 451.5,286C 397.641,251.66 342.641,249.66 286.5,280C 267.867,291.162 250.867,304.495 235.5,320C 234.5,320.667 233.5,320.667 232.5,320C 217,304.5 201.5,289 186,273.5C 185.333,272.833 185.333,272.167 186,271.5C 218.75,238.364 257.25,214.198 301.5,199C 316.668,194.467 332.001,191.3 347.5,189.5 Z"/></g>
<g><path style="opacity:1" fill="#f9f9f9" d="M 135.5,321.5 C 174.083,358.582 212.25,396.249 250,434.5C 287.707,396.46 325.707,358.793 364,321.5C 402.307,358.64 440.14,396.307 477.5,434.5C 515.5,396.833 553.5,359.167 591.5,321.5C 607.833,337.167 623.833,353.167 639.5,369.5C 585.833,423.833 531.833,477.833 477.5,531.5C 439.514,494.014 401.68,456.347 364,418.5C 326.32,456.347 288.486,494.014 250.5,531.5C 196.514,478.014 142.68,424.347 89,370.5C 88.3333,369.833 88.3333,369.167 89,368.5C 104.702,352.965 120.202,337.299 135.5,321.5 Z"/></g>
<g><path style="opacity:1" fill="#f9f9f9" d="M 730.5,352.5 C 730.833,352.5 731.167,352.5 731.5,352.5C 731.5,478.833 731.5,605.167 731.5,731.5C 604.167,731.5 476.833,731.5 349.5,731.5C 349.5,731.167 349.5,730.833 349.5,730.5C 434.498,733.217 511.498,710.05 580.5,661C 681.646,583.533 731.646,480.699 730.5,352.5 Z"/></g>
<g><path style="opacity:1" fill="#f9f9f9" d="M -0.5,388.5 C 5.12477,456.208 26.9581,518.208 65,574.5C 135.154,670.676 229.988,722.676 349.5,730.5C 349.5,730.833 349.5,731.167 349.5,731.5C 232.833,731.5 116.167,731.5 -0.5,731.5C -0.5,617.167 -0.5,502.833 -0.5,388.5 Z"/></g>
</svg>
