<svg width="512" height="512" viewBox="0 0 512 512" fill="none" xmlns="http://www.w3.org/2000/svg">
<g clip-path="url(#clip0_2517_325)">
<mask id="mask0_2517_325" style="mask-type:luminance" maskUnits="userSpaceOnUse" x="0" y="0" width="514" height="513">
<path d="M0.456604 256.5C0.456604 398.161 115.296 513 256.957 513C398.618 513 513.457 398.161 513.457 256.5C513.457 114.839 398.618 0 256.957 0C115.296 0 0.456604 114.839 0.456604 256.5Z" fill="white"/>
</mask>
<g mask="url(#mask0_2517_325)">
<path d="M483.038 0H30.8752C14.0755 0 0.456604 13.6189 0.456604 30.4186V482.56C0.456604 499.36 14.0755 512.979 30.8752 512.979H483.038C499.838 512.979 513.457 499.36 513.457 482.56V30.4186C513.457 13.6189 499.838 0 483.038 0Z" fill="white"/>
<path d="M392.287 272.324C392.287 292.898 387.566 311.785 378.121 328.986C368.678 345.849 354.176 359.509 334.613 369.964C315.051 380.42 290.768 385.648 261.762 385.648H208.136V513.136H121.626V157.989H261.762C290.094 157.989 314.04 162.879 333.601 172.66C353.164 182.441 367.835 195.932 377.616 213.132C387.396 230.334 392.287 250.064 392.287 272.324ZM255.186 316.844C271.712 316.844 284.023 312.965 292.118 305.208C300.211 297.451 304.259 286.489 304.259 272.324C304.259 258.158 300.211 247.197 292.118 239.44C284.023 231.683 271.712 227.804 255.186 227.804H208.136V316.844H255.186Z" fill="black"/>
<path d="M392.288 68.0162H121.626V125.172H392.288V68.0162Z" fill="#E50913"/>
</g>
</g>
<defs>
<clipPath id="clip0_2517_325">
<rect width="512" height="512" rx="256" fill="white"/>
</clipPath>
</defs>
</svg>
