<svg width="400" height="400" viewBox="0 0 400 400" fill="none" xmlns="http://www.w3.org/2000/svg">
<path fill-rule="evenodd" clip-rule="evenodd" d="M267.589 182.09C270.31 188.136 271.021 193.473 268.3 197.149C265.696 200.821 260.372 201.892 253.861 201.298C242.139 200.348 226.752 193.946 211.837 183.275C196.922 172.6 185.914 160.032 181.297 149.24C178.693 143.194 177.983 137.857 180.586 134.181C183.193 130.506 188.518 129.438 195.146 129.915C206.744 130.982 222.255 137.266 237.049 147.941C251.964 158.612 262.972 171.298 267.589 182.09Z" fill="url(#paint0_linear_304_2)"/>
<path fill-rule="evenodd" clip-rule="evenodd" d="M321.78 199.072C321.134 197.196 320.39 195.289 319.552 193.359C309.848 170.828 287.001 144.148 255.868 121.738C224.621 99.4414 192.187 86.2794 167.685 84.2619C149.929 82.8386 136.2 87.226 129.096 97.1857L80.2096 165.491C73.109 175.45 73.3436 189.915 80.4442 206.279C86.9382 221.167 99.0619 237.864 115.558 253.913C124.505 262.584 134.096 270.566 144.246 277.783C175.376 300.194 207.93 313.238 232.432 315.373C250.068 316.796 263.917 312.409 271.021 302.449L319.79 234.144C326.053 225.36 326.609 213.074 321.784 199.069L321.78 199.072ZM313.041 229.166L312.686 229.757C306.889 237.229 295.878 239.717 281.908 238.653C258.592 236.756 227.697 224.064 197.988 202.721C168.275 181.378 146.377 156.122 137.024 134.541C131.462 121.734 130.276 110.469 135.604 102.523L135.845 102.05C141.525 94.1075 152.77 91.4959 166.975 92.6809C190.294 94.5775 221.186 107.266 250.899 128.609C280.725 149.952 302.627 175.212 311.979 196.676C317.542 209.72 318.724 221.338 313.041 229.166Z" fill="url(#paint1_linear_304_2)"/>
<defs>
<linearGradient id="paint0_linear_304_2" x1="281.25" y1="326.62" x2="133.476" y2="85.5087" gradientUnits="userSpaceOnUse">
<stop stop-color="#FFCE66"/>
<stop offset="1" stop-color="#FF6650"/>
</linearGradient>
<linearGradient id="paint1_linear_304_2" x1="281.25" y1="326.62" x2="133.476" y2="85.5087" gradientUnits="userSpaceOnUse">
<stop stop-color="#FFCE66"/>
<stop offset="1" stop-color="#FF6650"/>
</linearGradient>
</defs>
</svg>
