<svg width="1170" height="1593" viewBox="0 0 1170 1593" fill="none" xmlns="http://www.w3.org/2000/svg">
<g clip-path="url(#clip0_2017_2549)">
<path d="M755.68 1593C642.007 1593 559.037 1565.62 506.77 1510.86C458.352 1464.51 430.255 1400.87 428.62 1333.86C428.032 1313.5 432.749 1293.34 442.31 1275.36C451.228 1259.82 464.109 1246.93 479.64 1238C497.692 1229 517.588 1224.31 537.76 1224.31C557.932 1224.31 577.828 1229 595.88 1238C611.383 1246.9 624.205 1259.8 633 1275.36C642.837 1293.26 647.731 1313.45 647.18 1333.86C648.195 1358.24 641.203 1382.28 627.27 1402.31C615.656 1418.66 599.057 1430.81 579.96 1436.93C598.636 1460.71 625.059 1477.18 654.63 1483.48C687.714 1493.09 721.979 1498.03 756.43 1498.16C802.041 1498.56 846.714 1485.2 884.62 1459.83C923.943 1432.05 953.269 1392.34 968.25 1346.58C987.241 1292.12 996.509 1234.75 995.63 1177.08C997.162 1116.96 987.018 1057.11 965.76 1000.85C949.771 955.853 919.42 917.367 879.39 891.33C842.182 867.785 798.991 855.431 754.96 855.74C716.592 858.991 679.597 871.55 647.18 892.33L567.26 932.4V892.33L926.43 410.5H428.62V910.5C427.213 946.582 436.758 982.245 456 1012.8C465.31 1026.11 477.9 1036.8 492.552 1043.82C507.203 1050.84 523.42 1053.96 539.63 1052.87C569.581 1052.26 598.547 1042.06 622.26 1023.75C649.14 1004.05 672.531 979.988 691.46 952.56C693.164 947.751 696.306 943.582 700.46 940.62C703.794 937.738 708.053 936.148 712.46 936.14C721.108 936.93 729.291 940.41 735.86 946.09C744.179 955.387 748.707 967.466 748.55 979.94C747.589 988.324 746.093 996.637 744.07 1004.83C726.386 1047.63 696.744 1084.43 658.69 1110.83C623.347 1134.75 581.604 1147.43 538.93 1147.21C431.15 1147.21 356.483 1125.97 314.93 1083.49C293.572 1060.01 277.111 1032.51 266.511 1002.59C255.912 972.671 251.386 940.939 253.2 909.25V410.5H0V317.6H254.38V105.78L196.14 47.5V0H365.14L428.62 32.86V317.6L1086.22 315.6L1151.69 381.31L748.46 786.5C772.82 776.703 798.475 770.498 824.62 768.08C876.367 770.346 926.854 784.758 972 810.15C1024.28 834.999 1068.34 874.316 1098.95 923.44C1126.38 965.025 1145.8 1011.37 1156.2 1060.09C1164.75 1098.52 1169.34 1137.72 1169.89 1177.09C1170.16 1252.22 1153.12 1326.4 1120.11 1393.88C1088.8 1459.23 1036.11 1511.92 970.76 1543.23C903.867 1576.19 830.253 1593.23 755.68 1593Z" fill="#2C7DF7"/>
</g>
<defs>
<clipPath id="clip0_2017_2549">
<rect width="1169.87" height="1593" fill="white"/>
</clipPath>
</defs>
</svg>
