<?xml version="1.0" encoding="UTF-8"?>
<svg version="1.1" xmlns="http://www.w3.org/2000/svg" width="256" height="256">
<path d="M0 0 C84.48 0 168.96 0 256 0 C256 84.48 256 168.96 256 256 C171.52 256 87.04 256 0 256 C0 171.52 0 87.04 0 0 Z " fill="#000000" transform="translate(0,0)"/>
<path d="M0 0 C0 3.3 0 6.6 0 10 C-1.16015625 10.37511719 -2.3203125 10.75023438 -3.515625 11.13671875 C-14.68385378 14.78118903 -25.57858598 18.6497597 -36.0390625 24.05078125 C-38.15679736 25.07589992 -40.30108371 25.91353517 -42.5 26.75 C-49.13740202 29.35646837 -55.44727557 32.60801617 -61.78320312 35.86279297 C-63.26672973 36.62383558 -64.75243497 37.3806455 -66.24023438 38.13330078 C-95.83428365 53.11449439 -123.35300436 71.78663628 -148 94 C-148.81984375 94.72832031 -149.6396875 95.45664063 -150.484375 96.20703125 C-155.08749795 100.13890451 -155.08749795 100.13890451 -159.23535156 104.51734924 C-161.28247562 106.9278406 -162.91781683 108.72034605 -166.04049683 109.52729797 C-168.42111539 109.69222931 -170.73257377 109.67576254 -173.1171875 109.5859375 C-174.4029216 109.57320297 -174.4029216 109.57320297 -175.71463013 109.56021118 C-178.43606523 109.52678564 -181.15447008 109.45153295 -183.875 109.375 C-185.72651952 109.34488609 -187.57808577 109.31751278 -189.4296875 109.29296875 C-193.95428174 109.22703066 -198.47662825 109.12358939 -203 109 C-201.69436227 106.09758144 -200.33416115 104.10625004 -198.015625 101.93359375 C-197.41733887 101.37124023 -196.81905273 100.80888672 -196.20263672 100.22949219 C-195.5582666 99.63813477 -194.91389648 99.04677734 -194.25 98.4375 C-193.5811377 97.81907227 -192.91227539 97.20064453 -192.22314453 96.56347656 C-186.28408128 91.13738959 -180.0809154 86.13656418 -173.67333984 81.27929688 C-172.04355509 80.03329861 -170.43551939 78.76397151 -168.83203125 77.484375 C-155.74100821 67.09587025 -141.43835286 58.37807753 -127 50 C-126.32952637 49.60989746 -125.65905273 49.21979492 -124.96826172 48.81787109 C-90.65215888 28.97924866 -53.77341437 15.26864743 -15.92871094 3.88476562 C-13.98670893 3.29808546 -12.04719154 2.70311274 -10.11035156 2.09960938 C-8.77568848 1.68678711 -8.77568848 1.68678711 -7.4140625 1.265625 C-6.63240723 1.02102539 -5.85075195 0.77642578 -5.04541016 0.52441406 C-3 0 -3 0 0 0 Z " fill="#F7F7F7" transform="translate(256,70)"/>
<path d="M0 0 C3.09674722 1.60976287 5.61900768 3.5159605 8.34765625 5.6953125 C13.62777382 9.85512553 19.00801461 13.8437973 24.47265625 17.7578125 C31.28852695 22.64459451 38.03002167 27.61816705 44.71020508 32.68896484 C48.04394618 35.25564061 48.04394618 35.25564061 51.66015625 37.3828125 C51.66015625 38.0428125 51.66015625 38.7028125 51.66015625 39.3828125 C12.44534875 41.7030393 12.44534875 41.7030393 1.79272461 32.37207031 C0.63104877 31.27385208 -0.51200248 30.1555348 -1.63378906 29.01660156 C-4.53616112 26.23716914 -7.88549228 24.11405908 -11.21484375 21.8828125 C-14.82539223 19.41111464 -17.92011755 17.1054682 -20.33984375 13.3828125 C-16.69396537 10.35666751 -13.02217111 7.36445409 -9.33984375 4.3828125 C-8.64246094 3.795 -7.94507813 3.2071875 -7.2265625 2.6015625 C-2.98198813 -0.78656782 -2.98198813 -0.78656782 0 0 Z " fill="#F7F6F7" transform="translate(150.33984375,139.6171875)"/>
<path d="M0 0 C39.86403726 -2.28229221 39.86403726 -2.28229221 48.75 5.5 C50.42666697 7.09150894 52.00411243 8.71335077 53.53710938 10.44335938 C55.9141221 12.97270403 58.64778023 14.77756941 61.5 16.75 C62.3765625 17.38421875 63.253125 18.0184375 64.15625 18.671875 C64.7646875 19.11015625 65.373125 19.5484375 66 20 C62.47814789 23.90705468 58.40300578 26.57526263 54 29.375 C53.2884375 29.85066406 52.576875 30.32632813 51.84375 30.81640625 C51.1528125 31.25597656 50.461875 31.69554687 49.75 32.1484375 C49.12609375 32.55239746 48.5021875 32.95635742 47.859375 33.37255859 C46 34 46 34 43.98071289 33.26123047 C42.14701132 32.09361031 40.33378603 30.92672204 38.55859375 29.671875 C37.57306519 28.97674805 37.57306519 28.97674805 36.56762695 28.26757812 C35.86468506 27.76677734 35.16174316 27.26597656 34.4375 26.75 C33.70168701 26.22857422 32.96587402 25.70714844 32.20776367 25.16992188 C25.55288919 20.43470928 18.97505157 15.59609166 12.42163086 10.72167969 C9.14786814 8.29136629 5.8933799 5.90270478 2.44921875 3.71875 C1.64097656 3.1515625 0.83273438 2.584375 0 2 C0 1.34 0 0.68 0 0 Z " fill="#F5F4F5" transform="translate(55,97)"/>
<path d="M0 0 C0.33 0.99 0.66 1.98 1 3 C-3.95 5.97 -8.9 8.94 -14 12 C-15.65 10.35 -17.3 8.7 -19 7 C-16.97044407 5.62387677 -14.92963266 4.27524452 -12.875 2.9375 C-12.30523437 2.54755859 -11.73546875 2.15761719 -11.1484375 1.75585938 C-7.04731799 -0.87724576 -4.67873368 -1.35811266 0 0 Z " fill="#111111" transform="translate(120,123)"/>
<path d="M0 0 C0.66 0.33 1.32 0.66 2 1 C-0.37815584 7.38347094 -3.21840996 11.14560664 -9 15 C-9.33 14.01 -9.66 13.02 -10 12 C-12.97 14.475 -12.97 14.475 -16 17 C-15.20431964 12.46686328 -14.46129985 9.96159275 -10.7421875 7.12890625 C-9.46616438 6.2541069 -8.17655209 5.39884387 -6.875 4.5625 C-6.21628906 4.11712891 -5.55757812 3.67175781 -4.87890625 3.21289062 C-3.26410893 2.12465765 -1.63354414 1.05988438 0 0 Z " fill="#0E0E0E" transform="translate(143,135)"/>
<path d="M0 0 C0.66 0 1.32 0 2 0 C2 2 2 2 0.25 3.9375 C-1.7572186 5.77745038 -3.79716682 7.40484494 -6 9 C-6.33 9.33 -6.66 9.66 -7 10 C-7 10.99 -7 11.98 -7 13 C-8.98 13 -10.96 13 -13 13 C-9.57338216 8.28840047 -5.40481284 4.74963472 -1 1 C-0.67 0.67 -0.34 0.34 0 0 Z " fill="#E4E3E4" transform="translate(70,161)"/>
<path d="M0 0 C0.66 0.33 1.32 0.66 2 1 C0.35 2.32 -1.3 3.64 -3 5 C-1.68 5.66 -0.36 6.32 1 7 C0.01 7.99 -0.98 8.98 -2 10 C-2.33 9.01 -2.66 8.02 -3 7 C-5.97 9.475 -5.97 9.475 -9 12 C-8.15768093 7.22685859 -7.41153884 4.90030913 -3.375 2.0625 C-2.26125 1.381875 -1.1475 0.70125 0 0 Z " fill="#1B1B1B" transform="translate(136,140)"/>
<path d="M0 0 C0.66 0.33 1.32 0.66 2 1 C0.93106782 2.03590338 -0.15578488 3.05333942 -1.25 4.0625 C-2.15492188 4.91521484 -2.15492188 4.91521484 -3.078125 5.78515625 C-5 7 -5 7 -7.234375 6.68359375 C-7.81703125 6.45800781 -8.3996875 6.23242188 -9 6 C-6.12050853 3.76039553 -3.23257974 1.70135776 0 0 Z " fill="#1B1B1B" transform="translate(193,105)"/>
<path d="M0 0 C0.86625 0.4640625 0.86625 0.4640625 1.75 0.9375 C3.84294184 1.92583364 5.74535275 2.5168613 8 3 C4.78548731 4.60725635 1.56387464 4.05748185 -2 4 C-1.34 2.68 -0.68 1.36 0 0 Z " fill="#F2F2F2" transform="translate(56,174)"/>
<path d="M0 0 C0.33 0.99 0.66 1.98 1 3 C-0.98 4.32 -2.96 5.64 -5 7 C-4.625 4.0625 -4.625 4.0625 -4 1 C-2 0 -2 0 0 0 Z " fill="#F0F0F0" transform="translate(132,140)"/>
<path d="M0 0 C1.04449911 3.13349732 0.93423645 3.98968256 0 7 C-0.99 6.34 -1.98 5.68 -3 5 C-3 4.01 -3 3.02 -3 2 C-2.01 1.34 -1.02 0.68 0 0 Z " fill="#EFEFEF" transform="translate(143,157)"/>
</svg>
