<svg width="1038" height="1038" viewBox="0 0 1038 1038" fill="none" xmlns="http://www.w3.org/2000/svg">
<g clip-path="url(#clip0_3483_200)">
<path d="M0 0H1038V1038H0V0Z" fill="#F0F3FA"/>
<path d="M943.097 521.409C952.921 539.203 963.857 559.407 963.857 581.65C963.857 614.088 947.916 633.365 929.937 643.003C924.081 645.837 917.833 647.774 911.401 648.75H909.733C907.174 648.743 904.69 647.883 902.676 646.304C900.661 644.726 899.231 642.521 898.612 640.038C898.217 638.588 898.153 637.067 898.426 635.589C898.865 633.232 900.03 631.071 901.759 629.409C903.487 627.747 905.692 626.668 908.065 626.321C915.85 625.024 940.873 618.722 940.873 582.392C939.971 569.252 936.038 556.5 929.381 545.135L924.005 535.126L922.893 532.716L915.108 518.073L914.182 516.034L913.069 513.81L908.435 526.043L899.353 548.286L894.534 560.52C890.987 569.918 884.559 577.955 876.17 583.482C867.781 589.008 857.859 591.74 847.824 591.289H846.526C846.336 591.242 846.15 591.18 845.97 591.103H844.673L843.931 590.918H842.448C842.268 590.842 842.082 590.78 841.892 590.733L841.336 590.547L840.224 590.362H839.853C839.673 590.286 839.487 590.224 839.297 590.177H838.741L838 589.806H837.258L836.702 589.435H836.146L835.034 588.879C827.554 586.394 821.062 581.589 816.498 575.163L815.015 572.753L812.606 574.792C799.867 585.037 784.093 590.773 767.749 591.103C760.39 591.317 753.061 590.068 746.188 587.427C739.315 584.786 733.035 580.806 727.712 575.719C719.271 584.156 708.238 589.509 696.387 590.918H695.275L691.011 591.289H688.417C679.149 590.733 670.808 587.396 664.32 582.021C658.29 576.772 654.181 569.663 652.643 561.817C651.16 554.217 652.272 545.691 655.794 537.165L667.842 505.098L664.876 503.986C664.695 503.857 664.509 503.733 664.32 503.615L663.579 503.43C654.867 499.722 645.784 493.606 639.112 485.45L638.37 487.304L637.073 490.64L623.727 524.375L615.386 545.506L614.644 547.359L609.64 560.334C607.19 566.724 603.393 572.512 598.506 577.303C593.619 582.093 587.757 585.775 581.32 588.097C574.882 590.418 568.02 591.326 561.2 590.757C554.38 590.188 547.763 588.157 541.799 584.801C537.838 582.231 534.434 578.89 531.79 574.977C524.375 564.412 523.634 550.881 529.195 536.979L532.346 529.194L538.277 513.81C538.542 513.199 538.79 512.581 539.019 511.956C528.355 517.376 516.802 520.829 504.913 522.151C504.913 524.931 504.542 527.526 504.172 530.121C500.926 546.909 492.047 562.087 479.003 573.142C465.959 584.198 449.531 590.469 432.438 590.918C415.2 590.918 400.001 584.245 389.25 572.197L388.138 570.714C387.759 570.226 387.388 569.732 387.026 569.231L385.543 567.007L384.987 566.08L384.431 565.339C380.411 573.135 374.285 579.648 366.749 584.137C359.213 588.625 350.569 590.911 341.799 590.733C335.126 590.733 328.824 589.435 323.263 586.84C318.444 584.431 314.18 581.094 310.844 577.016C302.132 585.913 290.455 590.733 277.109 590.733H271.919L271.548 590.547C262.28 589.435 254.495 585.728 248.564 579.797L245.969 577.016C243.93 579.426 241.335 581.28 238.925 582.948L237.072 584.245C229.561 588.726 220.98 591.096 212.234 591.103H210.566C209.89 591.005 209.209 590.943 208.527 590.918C208.342 590.904 208.156 590.904 207.971 590.918L207.229 590.733H206.488L205.746 590.547H204.82L204.264 590.362H204.078L202.225 589.806H201.854C195.789 588.425 190.137 585.63 185.357 581.65C185.091 581.423 184.843 581.175 184.616 580.909C184.382 580.706 184.134 580.52 183.874 580.353L183.504 579.982C183.17 579.576 182.797 579.204 182.391 578.87L182.206 578.685L181.835 578.129C181.629 577.844 181.379 577.594 181.094 577.387L180.723 576.831L180.353 576.275L180.167 576.09L179.611 575.348L179.24 574.792L177.758 572.568C164.783 583.689 148.1 590.733 130.677 590.733C122.59 590.782 114.58 589.16 107.149 585.971C99.7174 582.782 93.0243 578.092 87.4886 572.197C82.1077 566.025 78.1816 558.724 76 550.832C73.8185 542.94 73.4372 534.658 74.8843 526.599C78.1608 509.826 87.0489 494.668 100.086 483.618C113.124 472.568 129.534 466.285 146.618 465.802C157.368 465.802 167.563 468.212 176.275 473.216C182.491 476.858 187.912 481.711 192.215 487.489L194.44 491.011L198.332 481.187L200.742 474.885C201.192 473.656 201.96 472.569 202.966 471.734C204.82 470.065 207.229 469.138 209.454 469.138H221.316C225.024 469.138 226.692 471.734 225.394 474.885L200.927 536.794V537.165C200.186 538.462 196.479 547.73 195.923 551.252C195.366 554.032 195.552 556.812 196.293 559.037L197.776 562.188C198.703 563.671 200.186 564.783 201.669 565.895C204.449 567.192 207.785 568.119 211.493 568.119C221.502 568.119 227.619 563.671 231.511 558.295C232.994 556.071 234.106 553.847 235.033 551.808C250.832 511.616 266.711 471.455 282.67 431.326L286.748 420.946L292.494 406.117L292.864 405.561L293.05 405.19C294.04 403.488 295.528 402.129 297.313 401.298C298.513 400.645 299.842 400.265 301.205 400.186H313.254C314.551 400.186 315.663 400.556 316.405 401.298C317.146 401.854 317.517 402.966 317.702 403.893C317.702 404.634 317.702 405.376 317.331 406.117L295.645 460.797L277.48 506.766L275.997 510.658L266.729 534.57L265.802 536.979C264.319 541.057 261.539 548.657 260.983 551.252C260.241 555.7 260.983 559.407 262.836 562.373L264.875 564.227C267.656 566.822 271.734 568.305 276.738 568.305C281.928 568.305 286.191 566.822 289.713 564.783C293.791 562.373 296.571 558.851 298.61 555.144L300.279 551.808C323.186 493.366 346.232 434.978 369.417 376.645C370.174 374.944 371.39 373.488 372.929 372.44C374.468 371.392 376.269 370.794 378.129 370.714H389.992C393.699 370.714 395.367 373.309 394.069 376.645L383.504 403.522C370.14 437.398 356.732 471.256 343.281 505.098L330.863 536.609L328.082 544.023C326.97 546.618 326.229 549.213 325.858 550.881C325.217 553.931 325.54 557.106 326.785 559.963L327.897 561.817C329.936 565.153 333.643 567.007 338.091 567.748L341.613 567.934C355.33 567.934 362.003 559.037 364.968 551.622L367.193 546.062L371.27 535.682C388.238 492.374 405.353 449.123 422.614 405.932C422.614 405.561 422.8 405.561 422.985 405.376C423.82 403.796 425.112 402.504 426.692 401.669C428.048 400.881 429.574 400.435 431.141 400.371H443.004C445.043 400.371 446.525 401.112 447.082 402.41C447.638 403.522 447.823 404.82 447.082 406.302L440.594 422.985C434.156 439.143 427.792 455.331 421.502 471.548C430.029 468.026 438.926 465.987 448.194 465.987C457.445 465.814 466.597 467.922 474.84 472.125C483.084 476.327 490.165 482.495 495.46 490.084V490.455H495.645C497.869 493.606 499.352 496.757 500.65 500.093C509.732 499.166 519.185 496.386 527.712 492.123C536.424 487.86 544.394 481.928 550.511 474.514C552.364 472.66 555.145 470.807 557.925 469.88H558.11L560.705 469.509H573.866C577.388 469.509 579.241 472.104 577.944 475.441L569.973 495.274C566.164 504.921 562.333 514.56 558.481 524.19L550.14 545.506C548.843 548.471 548.287 551.437 548.287 554.032C548.101 557.368 548.843 560.334 550.325 562.559C552.92 566.266 557.74 568.675 563.857 568.675C577.944 568.675 584.431 559.778 587.582 552.364L587.953 551.252L596.109 530.677L616.498 478.962L624.468 459.129L625.395 456.72C626.152 455.018 627.368 453.562 628.907 452.514C630.446 451.467 632.247 450.869 634.107 450.788H645.784C646.481 450.783 647.173 450.909 647.823 451.159H648.379L648.565 451.53H649.121C650.233 452.456 650.974 453.754 651.16 456.164V458.017C651.16 473.031 668.583 481.001 672.105 482.484H672.29C675.22 483.846 678.258 484.962 681.373 485.821C683.968 486.747 686.563 488.045 688.787 490.084C689.714 491.381 690.641 492.493 691.382 494.162C692.28 496.109 692.745 498.227 692.745 500.371C692.745 502.515 692.28 504.634 691.382 506.581L691.011 507.322C686.319 519.974 681.499 532.579 676.554 545.135C673.959 551.993 673.959 558.11 676.924 562.188C678.407 564.412 680.631 565.895 683.412 567.007C685.636 567.749 688.046 568.305 690.641 568.305H692.494C696.874 567.899 701.109 566.525 704.892 564.28C708.675 562.036 711.911 558.979 714.367 555.33C710.1 543.509 709.839 530.612 713.625 518.629L714.181 516.775L715.108 514.366V513.995C719.369 502.993 726.164 493.15 734.941 485.265L735.497 484.708C735.694 484.535 735.879 484.349 736.053 484.152C749.097 472.421 765.962 465.833 783.505 465.617C791.614 465.535 799.649 467.159 807.09 470.384C814.53 473.61 821.209 478.364 826.693 484.338C828.546 486.747 830.4 488.972 831.883 491.567L841.707 467.1L848.009 451.53L852.828 439.111L865.989 405.932C866.915 404.078 868.769 402.039 870.993 401.112C872.125 400.456 873.395 400.075 874.7 400H886.749C890.456 400 892.124 402.595 890.827 405.932C872.09 453.068 853.369 500.211 834.663 547.359L833.922 550.325V550.881C833.225 553.837 833.419 556.932 834.478 559.778L835.775 562.002C838.556 565.71 843.19 567.934 849.307 567.934C863.208 567.934 869.696 559.037 872.847 551.622L898.797 485.45C911.772 454.125 926.6 450.232 938.463 450.232C942.53 450.324 946.523 451.338 950.141 453.198C950.697 453.754 951.253 454.125 951.438 454.681C951.809 455.422 951.624 456.164 951.438 457.276L947.175 467.841V468.026C947.103 468.264 946.984 468.486 946.825 468.677C946.666 468.868 946.469 469.025 946.248 469.138C945.901 469.368 945.528 469.554 945.136 469.695H944.395C936.054 470.251 930.678 474.514 929.195 481.928C927.342 492.308 934.756 506.025 943.097 521.409ZM791.846 561.817C799.073 557.555 805.126 551.563 809.462 544.38C813.798 537.197 816.28 529.048 816.684 520.668C816.776 512.858 814.155 505.259 809.269 499.166C806.246 495.657 802.485 492.858 798.256 490.968C794.027 489.077 789.434 488.143 784.802 488.23C775.534 488.23 766.823 491.381 759.223 496.571C748.018 504.467 740.362 516.449 737.907 529.936C737.351 533.643 737.351 537.535 737.907 541.242C738.834 547.359 741.058 552.735 744.765 557.183C748.472 561.632 753.477 564.597 759.223 566.451C762.374 567.563 765.896 567.934 769.418 567.934C777.017 567.934 784.617 565.895 791.104 562.188L791.29 562.002L791.846 561.817ZM406.303 556.998C410.381 562.002 415.571 565.339 422.058 566.822C424.839 567.563 427.619 567.934 430.955 567.934C442.351 567.449 453.232 563.057 461.771 555.496C470.311 547.935 475.989 537.666 477.851 526.414C479.334 515.848 476.924 506.025 470.807 498.981C467.882 495.535 464.204 492.808 460.056 491.011C455.716 489.176 451.052 488.23 446.34 488.23C435.219 488.23 424.653 492.679 416.127 499.908C412.234 503.615 408.713 507.693 405.932 512.327L405.747 512.697L405.561 512.883L405.005 513.81C404.787 514.318 404.54 514.813 404.264 515.292L403.893 515.849C402.913 518.175 401.986 520.523 401.113 522.892C400.557 524.746 399.815 526.97 399.445 529.75C397.962 540.316 400.372 549.954 406.303 556.998ZM107.136 557.183C113.068 564.041 121.965 567.934 131.974 567.934C143.381 567.422 154.27 563.025 162.834 555.473C171.397 547.921 177.121 537.667 179.055 526.414C180.909 515.848 178.314 506.025 172.197 498.981C169.127 495.491 165.328 492.719 161.067 490.861C156.807 489.003 152.19 488.105 147.544 488.23C136.095 488.667 125.145 493.033 116.536 500.595C107.928 508.157 102.187 518.452 100.278 529.75C98.7954 539.203 100.649 548.101 105.468 554.959L107.322 557.183H107.136ZM579.797 446.34L577.944 446.525C575.879 446.572 573.829 446.165 571.939 445.332C570.049 444.5 568.366 443.261 567.008 441.706C565.743 440.137 564.825 438.319 564.314 436.37C563.803 434.421 563.71 432.386 564.042 430.399C565.339 421.872 572.939 415.014 581.28 414.273L583.134 414.087H584.617C592.958 415.014 598.333 422.058 597.035 430.399C595.738 438.74 588.138 445.598 579.612 446.34H579.797Z" fill="black"/>
</g>
<defs>
<clipPath id="clip0_3483_200">
<rect width="1038" height="1038" fill="white"/>
</clipPath>
</defs>
</svg>
