<?xml version="1.0" encoding="UTF-8"?>
<svg version="1.1" xmlns="http://www.w3.org/2000/svg" width="1094" height="1285">
<path d="M0 0 C361.02 0 722.04 0 1094 0 C1094 424.05 1094 848.1 1094 1285 C732.98 1285 371.96 1285 0 1285 C0 860.95 0 436.9 0 0 Z " fill="#7C888E" transform="translate(0,0)"/>
<path d="M0 0 C42.87859531 -1.21929655 89.80834936 7.61852675 129 25 C130.56004299 25.65510089 132.12136627 26.30715696 133.68359375 26.95703125 C168.60234321 41.55145382 200.03588026 60.63727233 229 85 C230.07419963 85.88674192 231.1484194 86.77345942 232.22265625 87.66015625 C239.01056599 93.31723138 245.43505686 99.25465304 251.6875 105.5 C252.37094482 106.18263916 253.05438965 106.86527832 253.75854492 107.56860352 C261.89018316 115.79230962 261.89018316 115.79230962 262.18188477 119.00024414 C262.08190186 119.73364014 261.98191895 120.46703613 261.87890625 121.22265625 C261.75918457 122.10711426 261.63946289 122.99157227 261.51611328 123.90283203 C260.55709054 129.65787577 259.50270207 135.38939401 258.38894653 141.11611938 C257.76681332 144.315187 257.154286 147.51607172 256.54130554 150.71690369 C256.21389213 152.42651484 255.88601311 154.13603689 255.55769348 155.84547424 C253.51526517 166.4929166 251.54043066 177.15292595 249.5625 187.8125 C249.2050383 189.73690551 248.84753604 191.66130348 248.48999023 193.58569336 C247.65936923 198.05701323 246.82945802 202.52846425 246 207 C239.99458294 207.9448161 233.98870257 208.88661743 227.98242188 209.82592773 C225.95007344 210.1441608 223.91784176 210.46314063 221.88574219 210.78295898 C210.12689935 212.63302469 198.36468581 214.40906478 186.56393433 215.97261047 C177.68345602 217.15250531 168.84157741 218.56043601 160 220 C162.2498622 223.96092244 164.85192222 227.43883482 167.6875 231 C188.90649976 258.25899478 201.91773216 291.30677721 207.75 325.1875 C207.87455566 325.90139893 207.99911133 326.61529785 208.12744141 327.35083008 C208.75793333 331.31169269 209.0518528 335.12435573 209.05859375 339.13671875 C208.97901289 347.91923328 208.97901289 347.91923328 212.31347656 355.78808594 C215.94437318 359.30164658 220.21201925 361.82970325 224.52001953 364.42626953 C229.15675469 367.36861988 233.41915922 370.81850829 237.75 374.1875 C239.55315573 375.56580831 241.35779942 376.94217262 243.1640625 378.31640625 C244.00485352 378.95723145 244.84564453 379.59805664 245.71191406 380.25830078 C249.40096902 383.06642264 253.09647061 385.86439433 256.82421875 388.62109375 C259.49916576 390.62483634 262.13606766 392.66518275 264.76953125 394.72265625 C266.49188755 396.0446617 268.21454481 397.36627516 269.9375 398.6875 C270.75557129 399.33734863 271.57364258 399.98719727 272.41650391 400.65673828 C273.19558105 401.24825684 273.9746582 401.83977539 274.77734375 402.44921875 C275.47077881 402.98893311 276.16421387 403.52864746 276.87866211 404.0847168 C278.98026738 405.23909178 278.98026738 405.23909178 281.26611328 404.4831543 C284.98160413 402.46747231 288.46458947 400.18674805 291.96484375 397.8203125 C292.74306488 397.29955139 293.52128601 396.77879028 294.3230896 396.24224854 C295.99546983 395.12227694 297.66642553 394.00017581 299.33609009 392.87615967 C301.95124554 391.11574708 304.57017767 389.36109128 307.19018555 387.60791016 C314.04512759 383.01887215 320.8919688 378.41780397 327.73730469 373.81445312 C331.27620348 371.43466428 334.81760037 369.05863701 338.36062622 366.68499756 C340.28781274 365.39156882 342.21122738 364.09266393 344.13452148 362.79345703 C345.29393362 362.01569041 346.45350993 361.23816842 347.61328125 360.4609375 C348.61141846 359.78853027 349.60955566 359.11612305 350.63793945 358.42333984 C353 357 353 357 355 357 C357.2009066 371.81943775 357.2009066 371.81943775 353.78564453 376.75488281 C350.35308187 380.05554756 346.27399653 382.39600936 342.15527344 384.7421875 C338.67332881 386.77424218 335.42077711 389.12036189 332.125 391.4375 C330.78505569 392.35462252 329.44389579 393.26997139 328.1015625 394.18359375 C323.8695523 397.0782725 319.68262457 400.03458174 315.5 403 C309.22171231 407.44859059 302.91672426 411.85488379 296.55151367 416.1784668 C293.63086553 418.16582926 290.76850292 420.17570035 287.953125 422.3125 C287.08171875 422.9725 286.2103125 423.6325 285.3125 424.3125 C284.58675781 424.88613281 283.86101563 425.45976563 283.11328125 426.05078125 C281 427 281 427 278.51953125 426.40234375 C275.8310837 424.90598302 273.70086984 423.26524879 271.375 421.25 C266.43010366 417.10501337 261.33670044 413.24064719 256.125 409.4375 C249.07982833 404.29168235 242.11126345 399.05803055 235.1875 393.75 C229.12013225 389.10490659 223.03245737 384.5019132 216.8125 380.0625 C216.24233154 379.65547852 215.67216309 379.24845703 215.0847168 378.82910156 C213.09856418 377.42507042 211.17887915 376.08943957 209 375 C209.04511719 376.216875 209.09023438 377.43375 209.13671875 378.6875 C209.13062909 384.92331429 207.98107895 390.89202684 206.8125 397 C206.58691406 398.19246338 206.36132812 399.38492676 206.12890625 400.61352539 C203.45952488 414.31542288 199.82525707 427.27834287 194 440 C193.67435059 440.73138184 193.34870117 441.46276367 193.01318359 442.21630859 C184.50130643 461.27031449 174.30707225 478.81154539 160.77734375 494.75 C160.30409668 495.31847656 159.83084961 495.88695312 159.34326172 496.47265625 C158 498 158 498 155.56640625 500.1875 C152.88291609 505.00573669 154.20320958 509.69748382 155 515 C155.10675049 515.71754456 155.21350098 516.43508911 155.32348633 517.17437744 C156.09433034 522.29672992 156.92802884 527.40756313 157.78244019 532.51657104 C158.25718693 535.3554766 158.72614306 538.19528655 159.19360352 541.03540039 C159.82436926 544.86477615 160.45722813 548.69379449 161.09228516 552.52246094 C162.27590308 559.66044798 163.45088112 566.79980553 164.61193848 573.9414978 C164.93095897 575.89739727 165.25401175 577.85263769 165.57714844 579.80786133 C165.76696289 580.97341553 165.95677734 582.13896973 166.15234375 583.33984375 C166.31726318 584.34394287 166.48218262 585.34804199 166.65209961 586.38256836 C167 589 167 589 167 593 C172.28050514 594.0600488 177.56249045 595.11185628 182.84765625 596.1484375 C192.75507358 598.09951457 202.63554856 600.077074 212.44506836 602.47558594 C220.03457712 604.30287714 227.69774655 605.77000839 235.36132812 607.25 C240.66100824 608.28375648 245.83950327 609.40653217 251 611 C246.91575695 616.61583419 241.76078839 621.15947441 236 625 C233.84921265 624.87001038 233.84921265 624.87001038 231.31787109 624.32836914 C229.88473824 624.03135101 229.88473824 624.03135101 228.4226532 623.72833252 C227.38341202 623.49958435 226.34417084 623.27083618 225.2734375 623.03515625 C224.18911942 622.80681091 223.10480133 622.57846558 221.98762512 622.34320068 C218.44746151 621.59475838 214.91134356 620.82876979 211.375 620.0625 C208.96028542 619.54857973 206.54532675 619.03580502 204.13012695 618.52416992 C199.32403836 617.50403107 194.51950012 616.47705209 189.71630859 615.44335938 C183.86178028 614.18350974 178.00429904 612.9383516 172.14453125 611.703125 C164.76080176 610.14570516 157.37930469 608.57828038 150 607 C147.58608265 595.48181567 145.46081633 583.97972798 143.78125 572.33203125 C142.92079719 566.37720485 141.96078714 560.43932919 141 554.5 C139.25446086 543.6779911 137.59941181 532.84449674 136 522 C132.06549703 522 131.29470596 523.23176919 128.375 525.8125 C106.5076862 544.08284051 80.2012101 556.13715021 53 564 C52.113125 564.26554687 51.22625 564.53109375 50.3125 564.8046875 C33.68075788 569.60611305 17.234677 571.20932806 0 571 C-0.24621094 571.72058594 -0.49242187 572.44117188 -0.74609375 573.18359375 C-2.14272948 576.32058553 -3.83293056 578.45543733 -6.0625 581.0625 C-10.04736857 585.82026835 -13.81028302 590.68797146 -17.51171875 595.66796875 C-20.32715657 599.45117766 -23.1944049 603.19414214 -26.0625 606.9375 C-26.59818604 607.63786377 -27.13387207 608.33822754 -27.68579102 609.05981445 C-30.89131907 613.25022669 -34.10375494 617.43523551 -37.3203125 621.6171875 C-38.77613214 623.51555562 -40.23186258 625.41399215 -41.6875 627.3125 C-42.38302979 628.21411865 -43.07855957 629.1157373 -43.79516602 630.04467773 C-44.44412842 630.89231689 -45.09309082 631.73995605 -45.76171875 632.61328125 C-46.33881592 633.36391846 -46.91591309 634.11455566 -47.51049805 634.88793945 C-49.59837789 637.77036864 -49.59837789 637.77036864 -51 641 C-50.15670213 643.32048865 -50.15670213 643.32048865 -48.51953125 645.60546875 C-47.93792236 646.49790283 -47.35631348 647.39033691 -46.75708008 648.30981445 C-45.79451294 649.7342688 -45.79451294 649.7342688 -44.8125 651.1875 C-43.84316528 652.66319458 -43.84316528 652.66319458 -42.85424805 654.16870117 C-41.5354765 656.17491918 -40.21035621 658.17697835 -38.87890625 660.17480469 C-36.76764695 663.34937494 -34.6972656 666.54830189 -32.63549805 669.75512695 C-31.31054532 671.81553969 -29.97869405 673.87132222 -28.64453125 675.92578125 C-26.84811237 678.69262574 -25.05372925 681.46076682 -23.26171875 684.23046875 C-22.80539062 684.93574707 -22.3490625 685.64102539 -21.87890625 686.36767578 C-20.96826029 687.77588787 -20.05809456 689.18441063 -19.1484375 690.59326172 C-16.73399433 694.33060405 -14.30716614 698.05917435 -11.86328125 701.77734375 C-11.3528125 702.55722656 -10.84234375 703.33710937 -10.31640625 704.140625 C-9.33182174 705.64435407 -8.34367198 707.14575623 -7.3515625 708.64453125 C-4 713.7750756 -4 713.7750756 -4 716 C-7.45355798 716.47122806 -10.89897333 716.75011875 -14.375 717 C-15.34050781 717.1340625 -16.30601562 717.268125 -17.30078125 717.40625 C-20.7572571 717.5918326 -22.81638882 717.40857126 -26 716 C-29.79501455 712.0616503 -32.21191767 706.98848283 -34.77734375 702.20935059 C-36.66275897 698.80238872 -38.80873969 695.58605247 -40.97265625 692.3515625 C-41.81118467 691.0790055 -42.64898738 689.80597002 -43.48608398 688.5324707 C-43.90703339 687.89443512 -44.32798279 687.25639954 -44.76168823 686.59902954 C-46.10394313 684.56210853 -47.44127513 682.52202476 -48.77758789 680.48120117 C-52.7931292 674.35409762 -56.82111136 668.23826212 -60.94551086 662.18371582 C-62.57100122 659.7951186 -64.1836621 657.39800765 -65.7951355 654.99993896 C-66.91615088 653.34403577 -68.05666928 651.70138951 -69.19750977 650.05908203 C-69.86322998 649.06634277 -70.5289502 648.07360352 -71.21484375 647.05078125 C-72.09837524 645.76167847 -72.09837524 645.76167847 -72.99975586 644.4465332 C-74 642 -74 642 -73.3059082 639.36669922 C-71.59028988 636.25748179 -69.48652867 633.55424346 -67.25 630.8125 C-66.2558825 629.57081496 -65.26242569 628.32860076 -64.26953125 627.0859375 C-63.47603271 626.0973877 -63.47603271 626.0973877 -62.66650391 625.08886719 C-59.72241201 621.39861664 -56.83195976 617.66671817 -53.9375 613.9375 C-53.34195312 613.17131348 -52.74640625 612.40512695 -52.1328125 611.61572266 C-47.86307198 606.12019125 -43.60938827 600.61265608 -39.375 595.08984375 C-37.71517751 592.93043653 -36.04950769 590.77683174 -34.375 588.62890625 C-29.66470154 582.57355396 -25.14741634 576.46036258 -21 570 C-21.87942261 570.03915527 -21.87942261 570.03915527 -22.77661133 570.07910156 C-29.68589954 570.24961773 -35.95912066 569.24825933 -42.6875 567.75 C-43.74549805 567.51966064 -44.80349609 567.28932129 -45.89355469 567.05200195 C-48.93248058 566.38233336 -51.96668394 565.69457627 -55 565 C-55.74008301 564.83483887 -56.48016602 564.66967773 -57.24267578 564.49951172 C-92.33421551 556.55973212 -125.69675111 536.30324889 -151 511 C-159.5907144 509.84823418 -168.93565826 511.56237691 -177.55078125 512.3125 C-179.13873237 512.44744744 -180.7267204 512.58196131 -182.31474304 512.71606445 C-186.46735964 513.06762107 -190.61956471 513.42380346 -194.77166748 513.78137207 C-201.43334369 514.35458123 -208.09550437 514.92206391 -214.75789452 515.48690796 C-217.07626508 515.68434759 -219.39437783 515.88462633 -221.71247864 516.08520508 C-223.13554072 516.20663902 -224.55861058 516.32798181 -225.98168945 516.44921875 C-227.21949661 516.55580811 -228.45730377 516.66239746 -229.73262024 516.7722168 C-232.50483474 516.96547988 -235.22303144 517.04637428 -238 517 C-238.21914063 518.06992187 -238.43828125 519.13984375 -238.6640625 520.2421875 C-241.0395831 531.73498695 -243.62673217 543.17124795 -246.28515625 554.6015625 C-247.55686811 560.07240819 -248.81203521 565.5468221 -250.05859375 571.0234375 C-250.23494354 571.79770081 -250.41129333 572.57196411 -250.59298706 573.36968994 C-251.29528103 576.45362946 -251.99748099 579.53758799 -252.6973877 582.62207031 C-254.69878163 591.44054401 -256.7578278 600.23886148 -259 609 C-261.38620428 607.05389092 -263.71137676 605.06067271 -266 603 C-266.60585938 602.45859375 -267.21171875 601.9171875 -267.8359375 601.359375 C-271.92456351 597.25155356 -271.92456351 597.25155356 -272.11575317 594.07955933 C-271.21034781 587.76612972 -269.89971178 581.58809919 -268.4296875 575.3828125 C-268.16751434 574.26222443 -267.90534119 573.14163635 -267.63522339 571.98709106 C-264.4690351 558.57116974 -261.05727891 545.21676725 -257.63458252 531.86456299 C-256.76718546 528.4779847 -255.90330372 525.09050974 -255.0390625 521.703125 C-253.36267483 515.13457097 -251.68262378 508.56695928 -250 502 C-249.10987717 501.92705215 -248.21975433 501.85410431 -247.30265808 501.77894592 C-238.87369211 501.08808341 -230.44476483 500.39675096 -222.01587963 499.7049036 C-217.68354024 499.34931923 -213.35118661 498.99391031 -209.01879883 498.63891602 C-204.83014297 498.29569233 -200.64152664 497.95198995 -196.45293617 497.60796928 C-194.86274905 497.47744481 -193.27254826 497.34708669 -191.68233299 497.21690559 C-183.11801097 496.51568328 -174.55570899 495.80096214 -166 495 C-166.66644531 494.19820312 -167.33289063 493.39640625 -168.01953125 492.5703125 C-175.6375953 483.23856781 -181.97273453 473.41676435 -188 463 C-188.36722168 462.3807666 -188.73444336 461.7615332 -189.11279297 461.12353516 C-197.73791963 446.51875282 -203.3001961 430.23839136 -208 414 C-208.25958496 413.13834229 -208.51916992 412.27668457 -208.78662109 411.38891602 C-210.40878269 405.95672874 -211.57426326 400.45399501 -212.5625 394.875 C-212.76830688 393.75411987 -212.76830688 393.75411987 -212.97827148 392.6105957 C-213.75735135 387.93659595 -214.05186752 383.47911688 -214 378.73828125 C-213.66035944 367.7637647 -213.66035944 367.7637647 -217.54199219 357.84472656 C-221.65403103 353.90846953 -226.48766374 351.20384108 -231.44921875 348.47460938 C-235.70021264 346.01710525 -239.53311889 343.02890265 -243.4375 340.0625 C-245.02306956 338.88836642 -246.61031876 337.71649773 -248.19921875 336.546875 C-248.9886084 335.96357422 -249.77799805 335.38027344 -250.59130859 334.77929688 C-254.6418496 331.78716806 -258.69589633 328.79979899 -262.75 325.8125 C-263.92030762 324.94999634 -263.92030762 324.94999634 -265.11425781 324.07006836 C-272.40079206 318.70148569 -279.69834771 313.34799645 -287 308 C-294.08263192 311.69882233 -300.69287549 316.02728383 -307.30383301 320.49853516 C-310.29696593 322.52207335 -313.29828023 324.53336543 -316.30078125 326.54296875 C-316.88721405 326.93551849 -317.47364685 327.32806824 -318.07785034 327.73251343 C-323.18891976 331.14438301 -328.37250876 334.42123614 -333.60522461 337.6418457 C-341.1030957 342.26767493 -348.45974043 347.1432624 -355.69042969 352.17675781 C-359.78772498 355 -359.78772498 355 -362 355 C-363.49903908 339.26008969 -363.49903908 339.26008969 -360.4765625 334.703125 C-357.76232594 332.85553941 -354.94054761 331.46357552 -352 330 C-349.08107369 328.19180899 -346.23534006 326.27410696 -343.375 324.375 C-341.64449085 323.2519597 -339.91262916 322.13100184 -338.1796875 321.01171875 C-331.30894521 316.55897136 -324.46237601 312.06956092 -317.61749268 307.57720947 C-316.22534125 306.66354113 -314.83305195 305.75008281 -313.44061279 304.83685303 C-312.10269182 303.95935625 -310.76501121 303.08149287 -309.42758179 302.20324707 C-308.13332607 301.35402723 -306.83811489 300.50626158 -305.54190063 299.66003418 C-302.49636529 297.66676457 -299.47810983 295.64781742 -296.50390625 293.54931641 C-295.44042969 292.8072998 -294.37695312 292.0652832 -293.28125 291.30078125 C-291.8900293 290.30751831 -291.8900293 290.30751831 -290.47070312 289.29418945 C-288 288 -288 288 -285.89868164 288.140625 C-283.84465568 289.07031143 -282.15706417 290.11266855 -280.33984375 291.44921875 C-279.28796875 292.21588867 -279.28796875 292.21588867 -278.21484375 292.99804688 C-277.46332031 293.55556641 -276.71179688 294.11308594 -275.9375 294.6875 C-275.14601563 295.26693359 -274.35453125 295.84636719 -273.5390625 296.44335938 C-271.02122013 298.28911626 -268.51012289 300.14376242 -266 302 C-264.40775569 303.17345341 -262.81531139 304.3466355 -261.22265625 305.51953125 C-258.85432949 307.26444666 -256.48647733 309.00998663 -254.12011719 310.75756836 C-241.17965793 320.3090492 -228.10042613 329.66963219 -215 339 C-214.90501221 338.37770508 -214.81002441 337.75541016 -214.7121582 337.11425781 C-208.97292338 299.98805033 -198.59586921 265.63923912 -176 235 C-175.5373877 234.37061523 -175.07477539 233.74123047 -174.59814453 233.09277344 C-170.5566478 227.65533196 -166.46860555 222.36850329 -161.609375 217.6328125 C-155.74481256 212.27599898 -155.74481256 212.27599898 -152.3984375 205.33984375 C-152.65146853 202.44743727 -153.28902632 199.81472657 -154 197 C-154.21596583 195.18346497 -154.42958616 193.36641816 -154.60888672 191.54589844 C-155.56086861 181.98042089 -157.09564491 172.48335946 -158.53173828 162.98193359 C-159.71657947 155.08707927 -160.74767281 147.19442912 -161.60546875 139.2578125 C-161.94520562 136.0839778 -161.94520562 136.0839778 -162.546875 133.32421875 C-163.22459301 129.84799278 -163.05993167 126.53596865 -163 123 C-164.29172119 122.87326904 -165.58344238 122.74653809 -166.91430664 122.6159668 C-171.8034836 122.07052569 -176.56222687 121.16754652 -181.37109375 120.14453125 C-182.24305893 119.96231522 -183.11502411 119.78009918 -184.01341248 119.59236145 C-186.82243686 119.00369603 -189.63001467 118.40845869 -192.4375 117.8125 C-194.37840604 117.40342646 -196.31932407 116.99440985 -198.26025391 116.58544922 C-211.60407374 113.76429953 -224.91244914 110.8161492 -238.18261719 107.66503906 C-243.45003453 106.42167296 -248.72548347 105.21283428 -254 104 C-252.47593744 100.84112413 -250.86241039 98.36414264 -248.5 95.75 C-247.8915625 95.04359375 -247.283125 94.3371875 -246.65625 93.609375 C-238.97863409 88.95764301 -228.04372169 93.01993064 -219.9375 94.875 C-218.72255859 95.14441406 -217.50761719 95.41382813 -216.25585938 95.69140625 C-212.83505558 96.45158487 -209.41729701 97.22423505 -206 98 C-201.02700753 99.11492679 -196.05081643 100.20546663 -191.0625 101.25 C-186.21663585 102.28080882 -181.38767044 103.36826904 -176.5625 104.4921875 C-175.41257568 104.75999023 -174.26265137 105.02779297 -173.07788086 105.30371094 C-170.7681652 105.84332365 -168.459061 106.38556163 -166.15063477 106.93066406 C-160.77782649 108.18636405 -155.4816283 109.35324673 -150 110 C-148.51240353 114.84766294 -147.53629457 119.49613201 -146.87084961 124.54003906 C-146.77462814 125.25800659 -146.67840668 125.97597412 -146.57926941 126.71569824 C-146.26552188 129.06506735 -145.95900311 131.4153212 -145.65234375 133.765625 C-145.43393482 135.40760358 -145.21497783 137.04950935 -144.99549866 138.69134521 C-144.42104909 142.99678088 -143.85232654 147.30295095 -143.28533936 151.609375 C-142.37557761 158.51583795 -141.45941702 165.421443 -140.53882027 172.32646942 C-140.21873061 174.73636162 -139.90252469 177.14674153 -139.58665466 179.55718994 C-139.39116456 181.03065861 -139.19553902 182.50410931 -138.99975586 183.97753906 C-138.83035995 185.26436584 -138.66096405 186.55119263 -138.48643494 187.87701416 C-138.08546604 191.02102554 -138.08546604 191.02102554 -137 194 C-136.19820312 193.33355469 -135.39640625 192.66710937 -134.5703125 191.98046875 C-105.05584265 167.88242942 -65.5650936 149.59316101 -27.13671875 147.61328125 C-13.92909475 147.56981769 -13.92909475 147.56981769 -2.36328125 142.41015625 C-0.14314397 139.78763197 1.4526436 136.88703391 2.99707031 133.82910156 C4.75839272 130.61687482 7.12302385 127.88785588 9.4375 125.0625 C10.36568907 123.88861861 11.2914693 122.71282857 12.21484375 121.53515625 C12.90489502 120.65947998 12.90489502 120.65947998 13.60888672 119.76611328 C15.9087423 116.84628962 18.20421369 113.92302356 20.5 111 C23.72303396 106.89639326 26.94867298 102.79487386 30.17871094 98.69677734 C31.54610887 96.95833882 32.90799074 95.21568407 34.26953125 93.47265625 C36.13769039 91.08425027 38.03434098 88.72217676 39.94921875 86.37109375 C40.88293503 85.20582734 41.81653324 84.04046631 42.75 82.875 C43.19287354 82.34253662 43.63574707 81.81007324 44.09204102 81.26147461 C45.4606621 79.59517695 45.4606621 79.59517695 47 77 C46.60262934 73.73249698 45.1691893 71.40873592 43.40234375 68.67578125 C42.85618408 67.82459717 42.31002441 66.97341309 41.74731445 66.09643555 C41.15007568 65.17773682 40.55283691 64.25903809 39.9375 63.3125 C39.00780396 61.86774292 39.00780396 61.86774292 38.05932617 60.39379883 C36.73072871 58.32924552 35.40000864 56.26605694 34.06738281 54.20410156 C31.31473419 49.93795129 28.58319088 45.65846738 25.85107422 41.37915039 C22.57402431 36.24850686 19.28763296 31.12386652 16 26 C15.44054687 25.12778809 14.88109375 24.25557617 14.3046875 23.35693359 C12.80955573 21.02815538 11.31170627 18.70115666 9.8125 16.375 C9.39137939 15.71910889 8.97025879 15.06321777 8.53637695 14.38745117 C6.50557182 11.24429343 4.41462356 8.18061861 2.19921875 5.1640625 C0 2 0 2 0 0 Z " fill="#FEFEFE" transform="translate(549,489)"/>
<path d="M0 0 C0.84868652 0.18900879 1.69737305 0.37801758 2.57177734 0.57275391 C3.51456543 0.75016113 4.45735352 0.92756836 5.42871094 1.11035156 C8.75655366 1.74509995 12.06961296 2.43499847 15.38427734 3.13525391 C17.24802002 3.52463135 17.24802002 3.52463135 19.14941406 3.921875 C31.06418322 6.42239561 42.94553119 9.07499057 54.82592773 11.7331543 C65.39093683 14.09639406 75.96686549 16.39444769 86.57177734 18.57275391 C88.23924749 28.79990415 89.8032668 39.01487312 91.04443359 49.30322266 C91.64895812 54.27493604 92.32889226 59.23594243 93.00927734 64.19775391 C93.13471924 65.11661377 93.26016113 66.03547363 93.3894043 66.98217773 C94.0590671 71.87593268 94.73941401 76.76800745 95.43115234 81.65869141 C95.56980713 82.6491748 95.70846191 83.6396582 95.85131836 84.66015625 C96.11661063 86.55419385 96.38515209 88.44778017 96.6574707 90.34082031 C98.35424861 102.50884884 98.35424861 102.50884884 96.13818359 105.52197266 C95.47689453 106.09560547 94.81560547 106.66923828 94.13427734 107.26025391 C70.19909492 129.5157744 52.27985341 162.36213485 43.57177734 193.57275391 C43.38566895 194.23839355 43.19956055 194.9040332 43.0078125 195.58984375 C39.44966779 208.69626496 37.58311085 222.16116913 35.57177734 235.57275391 C30.45892427 232.78332829 25.87031004 229.68332715 21.25927734 226.13525391 C15.45668286 221.72781503 9.61112831 217.39165275 3.69677734 213.13525391 C2.95177979 212.59876221 2.20678223 212.06227051 1.43920898 211.50952148 C-0.84921452 209.86292792 -3.13866413 208.21776877 -5.42822266 206.57275391 C-7.7831834 204.87927156 -10.1375661 203.18500224 -12.49072266 201.48901367 C-14.0156205 200.39025652 -15.54163844 199.29305198 -17.06884766 198.19750977 C-20.4541686 195.76093402 -23.80737019 193.30200003 -27.08447266 190.72119141 C-27.63441895 190.29161133 -28.18436523 189.86203125 -28.75097656 189.41943359 C-30.19103696 188.28604853 -31.6187808 187.13706173 -33.04541016 185.98681641 C-35.24062563 184.3523856 -35.24062563 184.3523856 -37.2980957 184.81762695 C-39.75030821 185.68693278 -41.70232955 186.83507078 -43.89306641 188.24072266 C-44.76463379 188.79703369 -45.63620117 189.35334473 -46.53417969 189.92651367 C-47.46858887 190.53164795 -48.40299805 191.13678223 -49.36572266 191.76025391 C-50.34138184 192.38665771 -51.31704102 193.01306152 -52.32226562 193.65844727 C-59.81310468 198.4848447 -67.23931209 203.40598472 -74.6394043 208.37011719 C-81.63586458 213.06172902 -88.68720282 217.664028 -95.77050781 222.22338867 C-99.37279151 224.54978517 -102.91716798 226.90460318 -106.37353516 229.44384766 C-109.42822266 231.57275391 -109.42822266 231.57275391 -111.42822266 231.57275391 C-112.5212866 187.09112413 -97.21040232 140.3641637 -78.42822266 100.57275391 C-77.99541992 99.65349121 -77.56261719 98.73422852 -77.11669922 97.78710938 C-62.58065322 67.21256996 -43.71418281 39.59619135 -21.10302734 14.43945312 C-19.97068677 13.17737207 -18.84651513 11.90792141 -17.72998047 10.63183594 C-16.07363853 8.75144545 -14.38287816 6.90933229 -12.67822266 5.07275391 C-12.18402832 4.50226318 -11.68983398 3.93177246 -11.18066406 3.34399414 C-7.44176849 -0.56005133 -5.01202856 -0.9241222 0 0 Z " fill="#259A47" transform="translate(299.42822265625,593.42724609375)"/>
<path d="M0 0 C0.56589844 0.71800781 1.13179688 1.43601562 1.71484375 2.17578125 C32.64336136 36.80700871 83.12245276 53.15031324 127.65234375 58.48828125 C126.05219196 63.70928933 122.75561603 67.4787561 119.40234375 71.67578125 C118.13136095 73.28764257 116.86053201 74.89962522 115.58984375 76.51171875 C114.93757812 77.33510742 114.2853125 78.15849609 113.61328125 79.00683594 C110.52043303 82.92064437 107.46177541 86.86083436 104.40234375 90.80078125 C103.81839844 91.55149902 103.23445312 92.3022168 102.6328125 93.07568359 C98.41688865 98.49666694 94.21738999 103.92980197 90.04296875 109.3828125 C88.33652068 111.599522 86.61938596 113.80404312 84.88671875 116 C84.42942383 116.58354248 83.97212891 117.16708496 83.50097656 117.76831055 C82.2323166 119.38628836 80.95813773 120.99993444 79.68359375 122.61328125 C77.75412694 125.34421889 76.49140565 127.26767261 75.65234375 130.48828125 C76.66874115 133.15788425 76.66874115 133.15788425 78.578125 135.75 C79.26430908 136.77351563 79.95049316 137.79703125 80.6574707 138.8515625 C81.42641362 139.95976133 82.19554297 141.06783081 82.96484375 142.17578125 C83.74695786 143.330732 84.52712191 144.48700548 85.30541992 145.64453125 C86.92923998 148.05642095 88.56139697 150.46234518 90.19921875 152.86474609 C94.0402575 158.51634937 97.74346982 164.2574674 101.46484375 169.98828125 C105.39836073 176.02522517 109.34152752 182.05275355 113.38671875 188.015625 C113.95285889 188.85222656 114.51899902 189.68882812 115.10229492 190.55078125 C116.14572484 192.08756948 117.19499769 193.62041361 118.2512207 195.1484375 C121.65234375 200.15794662 121.65234375 200.15794662 121.65234375 203.48828125 C112.55345352 203.71719007 103.84129969 203.11011741 94.83984375 201.80078125 C93.57720703 201.61926514 92.31457031 201.43774902 91.01367188 201.25073242 C18.26825758 190.47346451 -50.00965587 157.13636998 -102.83935547 105.89208984 C-104.34337567 104.44727715 -104.34337567 104.44727715 -106.09423828 103.15087891 C-108.56188679 101.122587 -110.18558402 99.67461064 -110.62939453 96.42602539 C-110.42500176 93.69899548 -109.94300153 91.15876731 -109.34765625 88.48828125 C-109.09709473 87.35165039 -108.8465332 86.21501953 -108.58837891 85.04394531 C-107.82407844 81.76302502 -107.02368674 78.49606739 -106.19619751 75.23080444 C-105.27196081 71.57979323 -104.37149579 67.92295916 -103.47265625 64.265625 C-103.29080276 63.52647354 -103.10894928 62.78732208 -102.92158508 62.02577209 C-101.19031969 54.93846371 -99.65380399 47.81706713 -98.16015625 40.67578125 C-96.41753216 32.36915528 -94.59503873 24.09754677 -92.53515625 15.86328125 C-92.32802002 15.0333667 -92.12088379 14.20345215 -91.9074707 13.34838867 C-90.48414929 7.76126734 -90.48414929 7.76126734 -89.34765625 5.48828125 C-86.60131836 4.94775391 -86.60131836 4.94775391 -82.6875 4.52734375 C-81.95055405 4.44747223 -81.21360809 4.36760071 -80.45433044 4.28530884 C-68.98025751 3.08220383 -57.47682033 2.15241195 -45.97973633 1.20117188 C-42.57181894 0.91911684 -39.16448167 0.63060739 -35.75724888 0.34041405 C-32.45567384 0.06031466 -29.15359604 -0.21364008 -25.8515625 -0.48828125 C-24.04033653 -0.64292343 -24.04033653 -0.64292343 -22.19252014 -0.8006897 C-3.6033 -2.3202614 -3.6033 -2.3202614 0 0 Z " fill="#259A47" transform="translate(400.34765625,1000.51171875)"/>
<path d="M0 0 C6.12446264 4.00435207 12.07065362 8.19092946 17.9375 12.5625 C24.26229742 17.25011539 30.60901912 21.90301585 37 26.5 C43.4022687 31.10918006 49.77479363 35.75683145 56.125 40.4375 C56.89457031 41.0046875 57.66414062 41.571875 58.45703125 42.15625 C59.92992751 43.24357133 61.39576609 44.34052967 62.85375977 45.44775391 C64.9754545 47.03617717 64.9754545 47.03617717 67.28491211 48.32958984 C70.5756792 50.35450779 72.61655956 51.73471999 73.76464844 55.52319336 C74.13663454 58.61604423 74.26310715 61.63544148 74.3125 64.75 C74.42138107 67.00679275 74.53599857 69.26331579 74.65625 71.51953125 C74.7078125 72.62506348 74.759375 73.7305957 74.8125 74.86962891 C77.04787486 112.18991069 94.20522507 151.24368963 117.02734375 180.421875 C119.15376756 183.20096354 121.07072989 186.08162445 123 189 C115.14074676 189.63493991 107.28147163 190.2696082 99.42216969 190.90394497 C95.77142622 191.19861055 92.12068991 191.49336408 88.4699707 191.78833008 C84.9362275 192.07384136 81.4024645 192.35910663 77.86868858 192.64421272 C75.88769087 192.8041014 73.90671288 192.96423436 71.92573547 193.12437439 C68.28396757 193.41807608 64.64199285 193.7091032 61 194 C59.8090976 194.09709259 58.61819519 194.19418518 57.39120483 194.29421997 C56.25107941 194.38541107 55.11095398 194.47660217 53.9362793 194.57055664 C52.93098679 194.65189346 51.92569427 194.73323029 50.88993835 194.81703186 C46.59110365 195.08920022 42.30503023 195.08746111 38 195 C37.91081299 196.01320313 37.82162598 197.02640625 37.72973633 198.0703125 C36.88237738 204.79693139 35.01365707 211.32175427 33.32421875 217.875 C32.95365065 219.32728149 32.58352658 220.77967633 32.21382141 222.23217773 C31.24145959 226.0476706 30.26335906 229.86166864 29.28393555 233.675354 C28.30126084 237.50539203 27.32357092 241.33670114 26.34570312 245.16796875 C25.23868138 249.5048388 24.13130297 253.84161047 23.01945496 258.17724609 C20.64436935 267.44283193 18.31049736 276.71811874 16 286 C13 286 13 286 10.50390625 283.53515625 C9.51188273 282.38749118 8.53228419 281.22901808 7.5625 280.0625 C7.03462891 279.43496826 6.50675781 278.80743652 5.96289062 278.16088867 C-8.30910971 260.91978743 -20.26583449 241.58230572 -30.93652344 221.94628906 C-31.98619342 220.02526769 -33.05805836 218.11801265 -34.1328125 216.2109375 C-57.38213572 174.35586643 -72.21023561 125.72107819 -74.81835938 77.87939453 C-74.9485652 75.81535219 -75.11857511 73.75367247 -75.31445312 71.69482422 C-77.11532988 52.480979 -77.11532988 52.480979 -73.84130859 47.09326172 C-70.56674434 43.77995796 -66.52796767 41.98425237 -62.31835938 40.11230469 C-58.12073991 38.09836679 -54.35657645 35.40486366 -50.5 32.8125 C-48.79757264 31.70395414 -47.0930938 30.59855328 -45.38671875 29.49609375 C-39.68803921 25.80019199 -34.00013218 22.0878712 -28.3125 18.375 C-18.89038027 12.22611057 -9.45212669 6.10264824 0 0 Z " fill="#259A47" transform="translate(261,796)"/>
<path d="M0 0 C2.85855707 2.85855707 2.75137043 6.01685369 3.25 9.875 C4.54156805 19.15463564 6.04012394 28.3901301 7.59963989 37.62759399 C11.22957473 59.1374274 11.22957473 59.1374274 12.8125 69.6875 C12.92400391 70.42677734 13.03550781 71.16605469 13.15039062 71.92773438 C13.88784045 76.93957489 14.46316779 81.96310028 15 87 C16.7488147 87.15190796 16.7488147 87.15190796 18.53295898 87.30688477 C25.59596058 88.09618858 32.52222211 89.64202252 39.47265625 91.08984375 C40.96514094 91.3978167 42.4576908 91.70547402 43.95030212 92.01283264 C47.06480644 92.65504806 50.17873675 93.2999529 53.29223633 93.94702148 C57.26433017 94.77246699 61.23744697 95.59285244 65.21096134 96.41142941 C68.28862113 97.0457355 71.36590011 97.68187234 74.44305229 98.31863594 C75.90726775 98.62157486 77.37155703 98.92415725 78.83592415 99.22636223 C85.92415906 100.69079107 92.99754695 102.16127286 100 104 C89.10721452 129.94356971 40.31020952 150.36751567 16.06933594 162.00244141 C14.68830081 162.66819288 13.31130561 163.34238975 11.93847656 164.02490234 C-30.47133923 185.03428319 -79.4253924 195.58317383 -126.5625 196.4375 C-127.64015625 196.47198242 -128.7178125 196.50646484 -129.828125 196.54199219 C-131.33826172 196.55020996 -131.33826172 196.55020996 -132.87890625 196.55859375 C-134.21804077 196.57877563 -134.21804077 196.57877563 -135.58422852 196.59936523 C-140.53243215 195.37169066 -142.8445391 189.83049035 -145.43359375 185.74609375 C-146.07554687 184.73740234 -146.7175 183.72871094 -147.37890625 182.68945312 C-148.05824219 181.61630859 -148.73757813 180.54316406 -149.4375 179.4375 C-150.88273503 177.16448551 -152.33007834 174.89281583 -153.77734375 172.62109375 C-154.13835175 172.0538559 -154.49935974 171.48661804 -154.87130737 170.90219116 C-158.04847447 165.91348537 -161.26707716 160.95268233 -164.5 156 C-172.0764373 144.38239463 -179.53681976 132.69053567 -187 121 C-185.06387942 117.67236138 -183.00686604 114.5693892 -180.6640625 111.515625 C-180.01888672 110.67193359 -179.37371094 109.82824219 -178.70898438 108.95898438 C-177.67741211 107.61803711 -177.67741211 107.61803711 -176.625 106.25 C-175.90892578 105.31478516 -175.19285156 104.37957031 -174.45507812 103.41601562 C-172.99359066 101.50763777 -171.53103005 99.60008128 -170.06738281 97.69335938 C-167.2064453 93.96616728 -164.35323027 90.23309296 -161.5 86.5 C-160.45968528 85.13928479 -159.41931967 83.7786085 -158.37890625 82.41796875 C-157.84410645 81.71849121 -157.30930664 81.01901367 -156.75830078 80.29833984 C-155.48909444 78.6393134 -154.21914515 76.98085524 -152.94873047 75.32275391 C-150.77660212 72.48731314 -148.60690784 69.65002257 -146.4375 66.8125 C-145.41849609 65.48412109 -145.41849609 65.48412109 -144.37890625 64.12890625 C-143.41597656 62.86820313 -143.41597656 62.86820313 -142.43359375 61.58203125 C-141.8197583 60.79119141 -141.20592285 60.00035156 -140.57348633 59.18554688 C-138.81204655 56.87200987 -138.81204655 56.87200987 -137.2890625 53.45703125 C-133.99276267 49.91885277 -131.06735617 50.18683606 -126.3684082 49.96533203 C-125.2362085 49.93552246 -124.10400879 49.90571289 -122.9375 49.875 C-111.5812621 49.29544785 -101.00567265 47.79593949 -90 45 C-89.3080957 44.82678223 -88.61619141 44.65356445 -87.90332031 44.47509766 C-83.58248785 43.3840926 -79.28864228 42.21222905 -75 41 C-74.10023438 40.75507812 -73.20046875 40.51015625 -72.2734375 40.2578125 C-48.78835845 33.62234572 -27.3732688 20.50714163 -8 6 C-7.18917969 5.39542969 -6.37835937 4.79085937 -5.54296875 4.16796875 C-3.69158608 2.78348468 -1.84371315 1.39467127 0 0 Z " fill="#259A47" transform="translate(684,1009)"/>
<path d="M0 0 C2.98776632 -0.28502306 5.29669677 -0.33687852 8.21801758 0.37182617 C11.4510231 3.1815038 13.32439661 6.60099496 15.40551758 10.30932617 C16.69150948 12.43591039 17.97798413 14.56220273 19.26489258 16.68823242 C19.91522461 17.79440918 20.56555664 18.90058594 21.2355957 20.0402832 C24.40400475 25.36492727 27.79014234 30.54541697 31.15551758 35.74682617 C32.47977544 37.82018891 33.80268076 39.89441611 35.12426758 41.96948242 C37.60510477 45.85753236 40.09785758 49.73732994 42.60740662 53.60687256 C43.7346013 55.34530069 44.85956217 57.08515398 45.98388672 58.82543945 C47.4031701 61.02066157 48.82666211 63.21316991 50.25488281 65.40258789 C50.89111572 66.38888184 51.52734863 67.37517578 52.18286133 68.39135742 C52.74610107 69.25865479 53.30934082 70.12595215 53.88964844 71.01953125 C55.13968771 73.23311853 55.96179687 74.84744372 56.21801758 77.37182617 C54.71868176 79.68177852 53.23448653 81.65770389 51.46801758 83.74682617 C50.44164259 85.0043667 49.41561024 86.26218694 48.38989258 87.52026367 C47.86073242 88.16060547 47.33157227 88.80094727 46.78637695 89.46069336 C44.38053285 92.39234772 42.05119932 95.38227868 39.71801758 98.37182617 C38.80176858 99.53882089 37.8851004 100.70548661 36.96801758 101.87182617 C36.28739258 102.73807617 36.28739258 102.73807617 35.59301758 103.62182617 C31.46801758 108.87182617 31.46801758 108.87182617 30.09277344 110.62207031 C29.1768343 111.7878554 28.26098132 112.95370818 27.34521484 114.11962891 C25.04312155 117.05034714 22.7395068 119.97984528 20.43286133 122.90698242 C19.96750977 123.49801758 19.5021582 124.08905273 19.02270508 124.69799805 C15.27722018 129.45476386 15.27722018 129.45476386 13.83276367 131.22216797 C12.07212388 133.4959853 12.07212388 133.4959853 10.23217773 136.609375 C6.97939646 141.70694395 4.34060254 145.5941097 -1.48339844 147.72802734 C-4.98015904 148.40206832 -8.48226153 148.67070542 -12.03634644 148.83163452 C-14.33280888 148.93665044 -16.61324197 149.11491874 -18.90332031 149.31445312 C-21.89193879 149.57409237 -24.88084167 149.81460437 -27.87231445 150.03881836 C-49.38124486 151.87085165 -72.20300556 159.86307888 -90.95043945 170.34936523 C-92.8902512 171.43226734 -94.8479395 172.4770028 -96.80932617 173.52026367 C-105.99579428 178.47304424 -114.40595553 184.16431667 -122.78198242 190.37182617 C-124.01317463 191.25682174 -125.24618026 192.13929976 -126.48095703 193.01928711 C-127.10191757 193.46205994 -127.72287811 193.90483276 -128.36265564 194.36102295 C-128.83103348 194.69458801 -129.29941132 195.02815308 -129.78198242 195.37182617 C-132.38685631 178.37867965 -134.77575517 161.35570489 -137.16003418 144.33056641 C-137.68240784 140.60203426 -138.20588079 136.87365645 -138.72924805 133.14526367 C-139.74787302 125.88759772 -140.76532434 118.62976793 -141.78198242 111.37182617 C-142.38671387 111.25850952 -142.99144531 111.14519287 -143.61450195 111.02844238 C-146.37901293 110.50933571 -149.14299808 109.9874793 -151.90698242 109.46557617 C-152.85831055 109.28736328 -153.80963867 109.10915039 -154.78979492 108.92553711 C-159.49362472 108.03540265 -164.15347174 107.10606545 -168.78198242 105.87182617 C-174.15391435 104.4521013 -179.57130721 103.44152706 -185.03198242 102.43432617 C-192.69952747 101.01423477 -200.23016169 99.34696731 -207.77416992 97.37963867 C-213.12024246 96.00200727 -218.52609051 94.87722551 -223.93310547 93.76635742 C-227.40884943 93.02552942 -229.79002154 92.36646676 -232.78198242 90.37182617 C-202.04290996 60.68546167 -163.36729086 38.9525179 -123.78198242 23.37182617 C-123.14711914 23.11626953 -122.51225586 22.86071289 -121.8581543 22.59741211 C-85.36803987 8.06714916 -44.32690273 1.2852071 -5.21435547 0.47216797 C-2.71675731 0.40629643 -2.71675731 0.40629643 0 0 Z " fill="#259A47" transform="translate(540.781982421875,488.628173828125)"/>
<path d="M0 0 C28.54616864 11.53713513 52.6010044 67.74776771 64 94 C67.18577475 101.59704306 70.13485602 109.27722371 73 117 C73.37632568 117.9909668 73.37632568 117.9909668 73.76025391 119.00195312 C86.01629406 151.48090914 91.43408352 188.42938244 93 223 C93.18369141 224.86591797 93.18369141 224.86591797 93.37109375 226.76953125 C93.45488281 228.00058594 93.53867187 229.23164062 93.625 230.5 C93.76808594 232.12421875 93.76808594 232.12421875 93.9140625 233.78125 C92.43100195 239.00365125 88.37477794 241.07874496 84 244 C83.26749023 244.49741699 82.53498047 244.99483398 81.78027344 245.50732422 C79.39211342 247.09644613 76.98091006 248.64481517 74.5625 250.1875 C67.35697543 254.80596435 60.2235146 259.50906941 53.15885925 264.34056091 C49.36097893 266.93740584 45.55405918 269.52086305 41.74728394 272.10464478 C39.83266797 273.40971801 37.92242803 274.72123439 36.01663208 276.03915405 C33.31118736 277.90878802 30.59115221 279.75515032 27.8671875 281.59765625 C26.63721794 282.46050735 26.63721794 282.46050735 25.38240051 283.34078979 C19.71738152 287.1283287 19.71738152 287.1283287 16.16259766 286.49243164 C15.09211182 285.75367798 15.09211182 285.75367798 14 285 C13.40767578 284.61505371 12.81535156 284.23010742 12.20507812 283.83349609 C11.65271484 283.40117676 11.10035156 282.96885742 10.53125 282.5234375 C9.88824951 282.02553711 9.24524902 281.52763672 8.58276367 281.01464844 C7.89545166 280.47356445 7.20813965 279.93248047 6.5 279.375 C4.98598544 278.20012336 3.47164722 277.02566372 1.95703125 275.8515625 C1.15604004 275.22797852 0.35504883 274.60439453 -0.47021484 273.96191406 C-4.89599705 270.52960507 -9.35538089 267.1414512 -13.8125 263.75 C-15.16251099 262.72156982 -15.16251099 262.72156982 -16.53979492 261.67236328 C-21.12042981 258.18440727 -25.70655123 254.70446158 -30.3125 251.25 C-31.20453125 250.55390625 -32.0965625 249.8578125 -33.015625 249.140625 C-35.38077887 247.44415338 -37.63644352 246.06829863 -40.171875 244.671875 C-50.80200432 238.43163035 -50.80200432 238.43163035 -52.95117188 232.27539062 C-54.26939787 225.88137856 -54.58541134 219.42742068 -54.84765625 212.91699219 C-55.18296993 206.49659495 -56.57181711 200.25639882 -58 194 C-58.19432617 193.14760742 -58.38865234 192.29521484 -58.58886719 191.41699219 C-65.44552669 162.03277276 -77.65288022 135.03847122 -96 111 C-96.76183594 109.99582031 -97.52367187 108.99164062 -98.30859375 107.95703125 C-99.85226815 105.95367111 -101.40925626 103.96602483 -103 102 C-102.505 101.01 -102.505 101.01 -102 100 C-99.38989258 99.36157227 -99.38989258 99.36157227 -95.89453125 98.81640625 C-94.61215576 98.61265381 -93.32978027 98.40890137 -92.00854492 98.19897461 C-90.60991407 97.98648187 -89.21123116 97.77433147 -87.8125 97.5625 C-86.38443726 97.33981356 -84.95645907 97.11658423 -83.52856445 96.89282227 C-74.73747122 95.52511107 -65.93404623 94.2547387 -57.11230469 93.10058594 C-48.62953436 91.98418084 -40.18263798 90.64936968 -31.73901367 89.26928711 C-26.42297097 88.42356243 -21.38385858 87.77790626 -16 88 C-15.95588989 87.14281372 -15.95588989 87.14281372 -15.91088867 86.26831055 C-15.23381089 76.62705274 -13.21522991 67.26861937 -11.3125 57.8125 C-10.58607066 54.15934276 -9.86349382 50.5054257 -9.140625 46.8515625 C-8.86908348 45.48329567 -8.86908348 45.48329567 -8.59205627 44.08738708 C-6.58548302 33.95656221 -4.69390943 23.80491712 -2.81567383 13.6496582 C-2.58904053 12.42851318 -2.36240723 11.20736816 -2.12890625 9.94921875 C-1.93369385 8.89049561 -1.73848145 7.83177246 -1.53735352 6.7409668 C-1.09194406 4.46899407 -0.59025588 2.23787178 0 0 Z " fill="#259A47" transform="translate(811,608)"/>
<path d="M0 0 C9.25062129 -0.36598302 18.1879986 0.73123476 27.3125 2.0625 C28.07267426 2.17192932 28.83284851 2.28135864 29.61605835 2.394104 C57.09659265 6.39300469 84.54042635 12.70869455 110 24 C111.56004299 24.65510089 113.12136627 25.30715696 114.68359375 25.95703125 C149.58287532 40.54331714 181.07527734 59.61248874 210 84 C210.56493164 84.47469727 211.12986328 84.94939453 211.71191406 85.43847656 C215.32985151 88.48404122 218.91168078 91.5660264 222.46728516 94.68408203 C223.77326079 95.80533222 225.12293152 96.87535607 226.48046875 97.93359375 C229.11740154 100.12840607 230.77500282 101.68146813 231.36328125 105.12890625 C231.03984563 112.25564294 228.79020435 119.41466721 227.08325195 126.32373047 C225.33113156 133.4303457 223.83875049 140.56654664 222.4375 147.75 C220.7698641 156.2731119 218.95424673 164.73186114 216.91015625 173.171875 C215.712625 178.2087017 214.65549592 183.26850867 213.61328125 188.33984375 C213 191 213 191 212 193 C209.14720154 193.77204895 209.14720154 193.77204895 205.37280273 194.48364258 C204.69903563 194.61145772 204.02526854 194.73927286 203.33108425 194.87096119 C196.26079416 196.18692349 189.15455294 197.24934359 182.03515625 198.26171875 C180.66325553 198.45901329 179.2913842 198.65651233 177.91954041 198.85420227 C175.07720411 199.26277277 172.2344485 199.66824981 169.39135742 200.0715332 C165.76737745 200.5859376 162.14475509 201.10930629 158.52240849 201.63507366 C155.70297453 202.04310963 152.88280835 202.44589132 150.06240654 202.84717751 C148.08346481 203.1298191 146.10520597 203.41722904 144.12696838 203.70475769 C127.80661559 206.00015366 127.80661559 206.00015366 123.99609375 203.890625 C123.22458984 203.07851563 123.22458984 203.07851563 122.4375 202.25 C101.67552344 182.21509655 76.12619886 167.53065364 49 158 C47.99501465 157.64591064 47.99501465 157.64591064 46.96972656 157.28466797 C44.65559778 156.49142004 42.33211362 155.73879766 40 155 C38.47101074 154.51430542 38.47101074 154.51430542 36.91113281 154.01879883 C27.72663301 151.23996952 18.59304243 149.62595613 9.125 148.25 C7.64700853 148.02818761 6.16914286 147.80553524 4.69140625 147.58203125 C1.12899455 147.04504576 -2.43495809 146.51927422 -6 146 C-4.73674614 143.34034633 -3.3685394 140.99006361 -1.6015625 138.63671875 C-1.12831543 138.00483643 -0.65506836 137.3729541 -0.16748047 136.72192383 C0.34153809 136.05056396 0.85055664 135.3792041 1.375 134.6875 C1.90593262 133.98326904 2.43686523 133.27903809 2.98388672 132.5534668 C7.11276231 127.10488429 11.35274049 121.75195711 15.64257812 116.4296875 C19.59657357 111.52199041 23.45112195 106.54824973 27.28125 101.54296875 C30.62373913 97.17817577 33.99972234 92.83945547 37.375 88.5 C37.97038574 87.73389404 38.56577148 86.96778809 39.17919922 86.1784668 C42.09434139 82.43166876 45.02179381 78.69708355 48 75 C46.7467594 71.63524555 45.32846884 68.74906426 43.32421875 65.7734375 C42.75711182 64.92676514 42.19000488 64.08009277 41.60571289 63.20776367 C40.97270264 62.27295166 40.33969238 61.33813965 39.6875 60.375 C39.01904053 59.37895752 38.35058105 58.38291504 37.66186523 57.35668945 C33.29220765 50.84892614 28.8916227 44.36199771 24.4964447 37.87145996 C21.84930171 33.96123118 19.20443868 30.04946201 16.55947876 26.13775635 C14.57290339 23.20286955 12.5818814 20.27103443 10.59057617 17.33935547 C9.35318967 15.5115037 8.11595949 13.68354608 6.87890625 11.85546875 C6.30042938 11.00644485 5.72195251 10.15742096 5.12594604 9.28266907 C4.59655426 8.49869247 4.06716248 7.71471588 3.52172852 6.90698242 C3.05702652 6.22214279 2.59232452 5.53730316 2.11354065 4.83171082 C1 3 1 3 0 0 Z " fill="#FEC60B" transform="translate(568,490)"/>
<path d="M0 0 C3.61642461 1.30048376 6.38670534 2.84488901 9.4140625 5.203125 C10.24744141 5.84636719 11.08082031 6.48960937 11.93945312 7.15234375 C12.82568359 7.84457031 13.71191406 8.53679688 14.625 9.25 C16.52244277 10.71483108 18.42090037 12.17834845 20.3203125 13.640625 C21.27454102 14.37603516 22.22876953 15.11144531 23.21191406 15.86914062 C27.26741597 18.96865206 31.3789757 21.98846543 35.5 25 C45.0717332 32.00883787 54.50357027 39.19680748 63.91967773 46.4128418 C64.60618408 46.936604 65.29269043 47.46036621 66 48 C66.70213623 48.57298828 67.40427246 49.14597656 68.12768555 49.73632812 C68.74554932 50.15333984 69.36341309 50.57035156 70 51 C74.7814154 49.98949468 78.73267677 46.51578027 82.625 43.6875 C84.1488 42.59504241 85.67357556 41.50394455 87.19921875 40.4140625 C87.9886084 39.84977539 88.77799805 39.28548828 89.59130859 38.70410156 C93.50341517 35.93636348 97.47173801 33.25250234 101.4375 30.5625 C107.82167636 26.22050347 114.12765588 21.78663521 120.375 17.25 C131.90003566 8.89209229 131.90003566 8.89209229 136.4375 5.6875 C137.44683594 4.96949219 138.45617187 4.25148438 139.49609375 3.51171875 C142 2 142 2 145 2 C149.22068749 77.34708776 110.71346582 156.85688241 63 213 C62.02209466 214.16402826 61.04423293 215.32809316 60.06640625 216.4921875 C57.53292728 219.49616971 54.96785699 222.47018069 52.37646484 225.42431641 C51.15065226 226.82754351 49.94313203 228.24670263 48.73828125 229.66796875 C48.08214844 230.39628906 47.42601562 231.12460938 46.75 231.875 C46.20859375 232.49117187 45.6671875 233.10734375 45.109375 233.7421875 C38.65883101 237.58862299 29.01650731 233.90886705 22.25 232.375 C19.74745221 231.82266116 17.24484633 231.27058547 14.7421875 230.71875 C12.8235791 230.29142578 12.8235791 230.29142578 10.86621094 229.85546875 C4.71000681 228.49329779 -1.45800169 227.18724405 -7.625 225.875 C-15.60857816 224.1659348 -23.5900856 222.44798564 -31.5625 220.6875 C-32.28840332 220.52813965 -33.01430664 220.3687793 -33.76220703 220.20458984 C-36.56620354 219.58109761 -39.27219239 218.9092692 -42 218 C-42.67333984 216.30273438 -42.67333984 216.30273438 -43.0859375 214.09375 C-43.32135254 212.86205078 -43.32135254 212.86205078 -43.56152344 211.60546875 C-44.29572867 207.2427526 -44.98310851 202.87732323 -45.625 198.5 C-47.01664794 189.18928006 -48.50058232 179.89694646 -50.0390625 170.609375 C-50.21962189 169.51665283 -50.40018127 168.42393066 -50.58621216 167.2980957 C-51.32382629 162.83595228 -52.06174653 158.37388778 -52.80889893 153.91333008 C-53.3403259 150.7397746 -53.86592406 147.56529841 -54.390625 144.390625 C-54.5529361 143.43218689 -54.71524719 142.47374878 -54.88247681 141.48626709 C-56.88975323 129.26320865 -56.88975323 129.26320865 -53.98046875 125.1328125 C-53.06090171 124.1197216 -52.12904897 123.11769445 -51.1875 122.125 C-36.23555133 105.39126326 -24.96227399 85.48731393 -16 65 C-15.72172363 64.36884277 -15.44344727 63.73768555 -15.15673828 63.08740234 C-6.42319032 43.04293469 -2.21893121 21.67895789 0 0 Z " fill="#259A47" transform="translate(758,864)"/>
<path d="M0 0 C23.1 0 46.2 0 70 0 C71.22287244 3.66861731 72.34353835 7.12986122 73.26171875 10.8515625 C73.48996338 11.7708252 73.71820801 12.69008789 73.95336914 13.63720703 C74.31676392 15.11616455 74.31676392 15.11616455 74.6875 16.625 C75.22116593 18.78129659 75.75502818 20.93754461 76.2890625 23.09375 C76.70720215 24.78564453 76.70720215 24.78564453 77.13378906 26.51171875 C78.00507752 30.02044747 78.88747127 33.52620067 79.7734375 37.03125 C82.39472861 47.41465847 84.9965054 57.79377008 87.3125 68.25 C89.66912857 78.88498934 92.33995067 89.43789342 95 100 C100.6293582 122.36948885 100.6293582 122.36948885 103.125 133.3125 C103.32480469 134.18197266 103.52460937 135.05144531 103.73046875 135.94726562 C104.42021389 139.02557262 105 141.83486843 105 145 C105.66 145 106.32 145 107 145 C107.16109253 144.0416626 107.16109253 144.0416626 107.32543945 143.06396484 C108.64300957 135.50231696 110.35416799 128.0764761 112.1875 120.625 C112.65616069 118.70211274 113.12481639 116.77922425 113.59317017 114.85626221 C114.07597186 112.87562054 114.56010832 110.89530866 115.04443359 108.91503906 C116.54355878 102.78006416 118.02044906 96.63971843 119.5 90.5 C120.0845399 88.07810195 120.6691755 85.65622699 121.25390625 83.234375 C122.40799737 78.45323232 123.56160963 73.67197446 124.71484375 68.890625 C125.28904094 66.51041146 125.86325973 64.13020314 126.4375 61.75 C126.72077148 60.57566406 127.00404297 59.40132812 127.29589844 58.19140625 C128.89671559 51.55868122 130.50237994 44.92715647 132.11328125 38.296875 C132.47273847 36.81673197 132.83219485 35.33658875 133.19165039 33.85644531 C133.87619149 31.03788008 134.56170819 28.21955463 135.24780273 25.40136719 C137.02676468 18.08085359 138.75337137 10.75305965 140.37792969 3.39648438 C141 1 141 1 142 0 C165.1 0 188.2 0 212 0 C212 66.99 212 133.98 212 203 C198.47 203 184.94 203 171 203 C171 151.19 171 99.38 171 46 C169.35 46 167.7 46 166 46 C165.67128906 47.423125 165.67128906 47.423125 165.3359375 48.875 C161.32627392 66.13342253 157.14168952 83.33486146 152.18017578 100.34667969 C150.24555043 107.0198086 148.54167963 113.73251439 146.89428711 120.48144531 C145.18336913 127.4232344 143.22781428 134.280557 141.23046875 141.14453125 C139.28637784 147.8740767 137.56363142 154.64102606 135.90332031 161.4453125 C133.71010381 170.34532148 131.16159256 179.14012766 128.58496094 187.93554688 C128.01536041 189.94578981 127.50674982 191.97300073 127 194 C113.14 194 99.28 194 85 194 C83.6696875 188.864375 83.6696875 188.864375 82.3125 183.625 C80.43395825 176.39952552 78.52212841 169.18665268 76.5 162 C74.30632494 154.2020391 72.26051773 146.36930959 70.23046875 138.52734375 C68.70917206 132.6684011 67.13917619 126.82700698 65.5 121 C63.30637707 113.20202428 61.26051799 105.36931062 59.23046875 97.52734375 C57.70917007 91.66839344 56.13887104 85.82709703 54.5 80 C52.4927637 72.85143605 50.57186741 65.68192861 48.6875 58.5 C48.42066406 57.489375 48.15382813 56.47875 47.87890625 55.4375 C47.63398437 54.4990625 47.3890625 53.560625 47.13671875 52.59375 C46.91717529 51.75521484 46.69763184 50.91667969 46.47143555 50.05273438 C46 48 46 48 46 46 C44.35 46 42.7 46 41 46 C41 97.81 41 149.62 41 203 C27.47 203 13.94 203 0 203 C0 136.01 0 69.02 0 0 Z " fill="#FDFDFE" transform="translate(736,150)"/>
<path d="M0 0 C21.69419924 0.07378979 43.41295608 6.6601789 64 13 C64.94166016 13.28520508 65.88332031 13.57041016 66.85351562 13.86425781 C69.78077507 14.75292483 72.70357477 15.65485109 75.625 16.5625 C76.93960205 16.96553345 76.93960205 16.96553345 78.28076172 17.37670898 C84.77115532 19.43354122 90.85280426 22.08508455 97 25 C98.38493652 25.64424927 98.38493652 25.64424927 99.79785156 26.30151367 C128.27903789 39.57149409 156.51931415 54.29556607 172 83 C172.31904297 83.58716797 172.63808594 84.17433594 172.96679688 84.77929688 C192.35659099 121.29872506 188.7331874 167.18509857 179 206 C165.72998332 208.64455848 152.67692125 209.30979057 139.1875 209.3125 C138.01835556 209.31733398 138.01835556 209.31733398 136.82559204 209.32226562 C122.67402424 209.3579395 108.59702925 208.65851991 95 204.375 C94.16605713 204.11775146 93.33211426 203.86050293 92.47290039 203.59545898 C84.18633781 200.92484441 76.56311029 197.28181777 69 193 C67.50919922 192.16855469 67.50919922 192.16855469 65.98828125 191.3203125 C58.43629338 186.81713 52.28741797 181.07607619 46 175 C45.24460937 174.29617188 44.48921875 173.59234375 43.7109375 172.8671875 C10.40888601 141.1080882 6.67966651 86.90753049 2 44 C1.86432617 42.76217773 1.72865234 41.52435547 1.58886719 40.24902344 C0.1575646 26.80284283 -0.25110378 13.5177535 0 0 Z " fill="#259A47" transform="translate(449,739)"/>
<path d="M0 0 C105.94455446 0 105.94455446 0 120.625 7.9375 C121.26566406 8.25912109 121.90632813 8.58074219 122.56640625 8.91210938 C135.11939241 15.41963901 142.56813543 26.77091529 147.0078125 40.00390625 C147.7527958 42.66197773 148.42949408 45.29933169 149 48 C149.27457031 49.28970703 149.27457031 49.28970703 149.5546875 50.60546875 C151.42988174 64.8997126 150.89524507 79.40588739 146 93 C145.72285156 93.89332031 145.44570313 94.78664063 145.16015625 95.70703125 C141.13046402 107.49898778 132.23808971 117.17460686 122 124 C122.65377055 129.4444253 124.41227166 134.20228793 126.3515625 139.2890625 C126.68868256 140.18756927 127.02580261 141.08607605 127.37313843 142.0118103 C128.45195572 144.88483777 129.53801619 147.75505343 130.625 150.625 C132.03694145 154.36603039 133.44561574 158.10827517 134.8515625 161.8515625 C135.37269623 163.23882538 135.37269623 163.23882538 135.90435791 164.65411377 C140.52778695 177.01500712 144.82676633 189.48029898 149 202 C134.15 202 119.3 202 104 202 C90.90740129 164.81144836 90.90740129 164.81144836 85.8414917 150.19735718 C85.19532647 148.33505654 84.54616763 146.47379547 83.89697266 144.61254883 C83.51202637 143.49904053 83.12708008 142.38553223 82.73046875 141.23828125 C82.39426514 140.26930908 82.05806152 139.30033691 81.71166992 138.30200195 C81 136 81 136 81 134 C67.8 134 54.6 134 41 134 C41 156.44 41 178.88 41 202 C27.47 202 13.94 202 0 202 C0 135.34 0 68.68 0 0 Z " fill="#FEFEFE" transform="translate(346,151)"/>
<path d="M0 0 C23.1 0 46.2 0 70 0 C77.8993965 25.95515993 77.8993965 25.95515993 80.5 35.5 C83.02805405 44.65645331 85.71874093 53.75051882 88.515625 62.828125 C90.48512151 69.24229607 92.32401404 75.6803813 94.08642578 82.15405273 C95.77506827 88.30573204 97.62516367 94.40277587 99.5 100.5 C101.5940171 107.31002999 103.62837891 114.1254218 105.5 121 C107.9330853 129.93152722 110.63333714 138.7767078 113.3515625 147.625 C113.62387695 148.51574219 113.89619141 149.40648437 114.17675781 150.32421875 C114.73595061 152.14176119 115.30330433 153.95680877 115.87792969 155.76953125 C116.15282227 156.64996094 116.42771484 157.53039062 116.7109375 158.4375 C116.9589209 159.21996094 117.2069043 160.00242187 117.46240234 160.80859375 C118 163 118 163 118 167 C118.99 167 119.98 167 121 167 C121 111.89 121 56.78 121 0 C134.53 0 148.06 0 162 0 C162 66.99 162 133.98 162 203 C139.89 203 117.78 203 95 203 C91.3188782 191.9566346 87.69972604 180.95102478 84.375 169.8046875 C83.95040981 168.38929974 83.52552944 166.973999 83.10038757 165.55877686 C82.19854691 162.55532415 81.29816597 159.55143988 80.39901733 156.54718018 C77.98806404 148.49283074 75.5661888 140.44176118 73.14453125 132.390625 C72.89530222 131.56176914 72.64607319 130.73291328 72.38929176 129.87894058 C66.78497317 111.24426622 61.11198851 92.63071456 55.42071533 74.02243805 C54.68775591 71.62583676 53.95505769 69.22915574 53.22241211 66.8324585 C51.86129987 62.38025263 50.49921541 57.92834486 49.13671875 53.4765625 C48.93001745 52.80090996 48.72331615 52.12525742 48.51035118 51.42913055 C47.93528533 49.54979738 47.35962652 47.67064568 46.78393555 45.79150391 C46.46168503 44.73927643 46.13943451 43.68704895 45.80741882 42.60293579 C45.22601597 40.7286244 44.6205701 38.8617103 44 37 C43.01 36.67 42.02 36.34 41 36 C41 91.11 41 146.22 41 203 C27.47 203 13.94 203 0 203 C0 136.01 0 69.02 0 0 Z " fill="#FDFDFE" transform="translate(530,150)"/>
<path d="M0 0 C13.53 0 27.06 0 41 0 C41.029729 6.33626587 41.029729 6.33626587 41.06005859 12.80053711 C41.12698682 26.76242553 41.20452756 40.72424014 41.28752708 54.68604183 C41.33758724 63.15045819 41.38403078 71.61486518 41.421875 80.0793457 C41.45488039 87.45946811 41.49475848 94.8395164 41.54279006 102.21955687 C41.56797031 106.12496923 41.58977631 110.03033297 41.60334396 113.93580437 C41.61624163 117.61709878 41.63837778 121.29822571 41.66738319 124.97942734 C41.68067493 126.96364349 41.68436551 128.94791681 41.68769836 130.93217468 C41.78508188 141.3895034 42.5673039 151.72473298 49.6875 159.94921875 C57.50292792 167.46526535 66.86646419 168.56927934 77.375 168.5 C78.88791626 168.49141968 78.88791626 168.49141968 80.43139648 168.48266602 C89.79116619 168.25835781 97.76174334 166.81775577 104.5 159.75 C110.0882068 152.1836669 112.10007932 144.24442827 112.15821838 134.92556763 C112.1680072 133.73092392 112.17779602 132.53628021 112.18788147 131.30543518 C112.19363693 130.0085527 112.1993924 128.71167023 112.20532227 127.37548828 C112.21491036 125.98545547 112.22492098 124.59542553 112.23532104 123.20539856 C112.2622753 119.4434955 112.28333596 115.68158001 112.30332303 111.91963434 C112.3252413 107.98382479 112.35260133 104.04805312 112.37937927 100.11227417 C112.42922737 92.66451683 112.47419534 85.21673837 112.51740164 77.76893985 C112.56684152 69.28767952 112.62173455 60.80645722 112.67708123 52.3252337 C112.79078022 34.88352291 112.89692561 17.44177704 113 0 C126.53 0 140.06 0 154 0 C154.0679051 18.77697818 154.12309082 37.55385585 154.15543652 56.33092594 C154.17085907 65.05082174 154.19185961 73.77063544 154.22631836 82.49047852 C154.25636278 90.09693999 154.27560845 97.70334195 154.28226548 105.30986112 C154.28615245 109.33179724 154.29518931 113.35356321 154.31719017 117.37544441 C154.337794 121.17328331 154.34378646 124.97088455 154.33932304 128.76877403 C154.34052149 130.8019962 154.35653694 132.83519343 154.3732605 134.86834717 C154.31274788 153.19657851 150.16635892 171.79093761 137.5625 185.6875 C136.716875 186.450625 135.87125 187.21375 135 188 C134.53464844 188.46921875 134.06929687 188.9384375 133.58984375 189.421875 C124.18065041 198.39181852 111.32976731 201.34037099 99 204 C98.26160889 204.1757959 97.52321777 204.3515918 96.76245117 204.53271484 C93.26256517 205.12474152 89.80908537 205.20018481 86.26953125 205.23828125 C85.52576736 205.24812042 84.78200348 205.25795959 84.01570129 205.26809692 C58.68876034 205.53427446 35.42875997 204.638681 16 186 C5.08105294 174.06870023 -0.13390218 156.66555336 -0.12025452 140.69778442 C-0.12162918 139.45265579 -0.12300385 138.20752716 -0.12442017 136.92466736 C-0.12088175 135.55801367 -0.11724695 134.19136023 -0.11352539 132.82470703 C-0.11324311 131.3755646 -0.11340206 129.92642202 -0.1139679 128.47727966 C-0.11425426 124.55419376 -0.10838351 120.63113857 -0.10139394 116.70805979 C-0.09513364 112.60411136 -0.09455448 108.50016219 -0.09336853 104.39620972 C-0.09026311 96.62968113 -0.08206035 88.86316666 -0.07201904 81.09664428 C-0.06083341 72.25266084 -0.05534128 63.40867672 -0.05032361 54.56468797 C-0.03987708 36.37644902 -0.0215414 18.18822942 0 0 Z " fill="#FEFEFE" transform="translate(150,151)"/>
<path d="M0 0 C7.074375 -0.061875 14.14875 -0.12375 21.4375 -0.1875 C24.76026001 -0.22846802 24.76026001 -0.22846802 28.15014648 -0.27026367 C29.93212338 -0.27903643 31.71410636 -0.28667849 33.49609375 -0.29296875 C34.40008911 -0.30831665 35.30408447 -0.32366455 36.23547363 -0.33947754 C45.26739544 -0.34314756 52.5404182 1.65372981 59.20703125 7.89453125 C66.69000348 16.68172522 67.78616278 26.72096558 67.22216797 37.79492188 C66.44019279 45.55624035 63.13485819 53.42923114 57.08834839 58.51177979 C50.01930419 63.54939446 42.64987931 64.57893386 34.1796875 64.390625 C33.30513916 64.38659668 32.43059082 64.38256836 31.52954102 64.37841797 C28.31114246 64.35773525 25.09304664 64.30189287 21.875 64.25 C14.65625 64.1675 7.4375 64.085 0 64 C0 42.88 0 21.76 0 0 Z " fill="#7D898F" transform="translate(387,186)"/>
</svg>
