<?xml version="1.0" encoding="UTF-8"?>
<svg version="1.1" xmlns="http://www.w3.org/2000/svg" width="192" height="192">
<path d="M0 0 C21.17025368 16.38894469 36.07420937 38.39598446 39.87109375 65.22265625 C41.86698729 93.60087359 37.01626151 119.14327706 18.3046875 141.3125 C2.12082269 159.87540169 -20.24013244 173.68317751 -45.27734375 175.4440918 C-74.51062385 176.4416477 -99.09547407 170.93747007 -121.31640625 150.91015625 C-139.22929826 134.14977459 -151.61588833 111.59730701 -152.46484375 86.71875 C-152.84662879 57.0855552 -146.00461057 32.82134496 -124.96484375 11.03515625 C-91.74981745 -21.9053657 -38.50962312 -27.11871696 0 0 Z " fill="#C26A45" transform="translate(152.12890625,16.77734375)"/>
<path d="M0 0 C1.40892517 -0.00361794 1.40892517 -0.00361794 2.84631348 -0.00730896 C4.83003974 -0.00633049 6.8137933 0.0070632 8.79736328 0.03198242 C11.83330059 0.06628817 14.86632687 0.05264269 17.90234375 0.03320312 C19.83074155 0.0401017 21.75913185 0.04977419 23.6875 0.0625 C24.59487915 0.05754013 25.5022583 0.05258026 26.43713379 0.04747009 C30.1614027 0.11704683 32.64897541 0.23170381 35.91625977 2.09960938 C38.06597064 5.90857203 37.89708965 9.35866299 37.83984375 13.6640625 C37.84129898 14.53912949 37.84275421 15.41419647 37.84425354 16.31578064 C37.84259598 18.16245866 37.83105062 20.00915069 37.81030273 21.85571289 C37.78131561 24.68500263 37.78970258 27.51242214 37.80273438 30.34179688 C37.79649777 32.13672787 37.78810744 33.93165294 37.77734375 35.7265625 C37.78027939 36.5734816 37.78321503 37.4204007 37.78623962 38.29298401 C37.69189547 44.15179717 37.69189547 44.15179717 36.08825684 46.34947205 C33.91510959 47.94327429 32.70689285 48.01926104 30.02758789 48.04882812 C28.7259243 48.07269592 28.7259243 48.07269592 27.39796448 48.0970459 C26.46355026 48.09724731 25.52913605 48.09744873 24.56640625 48.09765625 C23.60351181 48.10526978 22.64061737 48.1128833 21.64854431 48.12072754 C19.61183262 48.1315344 17.57506548 48.13437927 15.53833008 48.12988281 C12.4210978 48.12891088 9.30632958 48.17051747 6.18945312 48.21484375 C4.21094264 48.22005096 2.23242359 48.22273894 0.25390625 48.22265625 C-1.14467873 48.24724915 -1.14467873 48.24724915 -2.57151794 48.27233887 C-8.91622787 48.20454888 -8.91622787 48.20454888 -12.24243164 45.6171875 C-14.05736978 41.78108963 -14.23137757 38.38360359 -14.1875 34.22265625 C-14.1913269 33.42033569 -14.19515381 32.61801514 -14.19909668 31.79138184 C-14.20181052 30.10032898 -14.19448624 28.40923377 -14.17773438 26.71826172 C-14.15631499 24.13673909 -14.17755161 21.55799905 -14.203125 18.9765625 C-14.20048163 17.32942097 -14.19535645 15.68228116 -14.1875 14.03515625 C-14.19559692 13.26731812 -14.20369385 12.49947998 -14.21203613 11.70837402 C-14.15219144 8.27084143 -13.71516797 5.75196391 -12.2265625 2.64282227 C-8.33396829 -0.40714065 -4.817116 -0.0703855 0 0 Z " fill="#FEFCFC" transform="translate(116.65625,92.37109375)"/>
<path d="M0 0 C0.91471573 -0.00619858 1.82943146 -0.01239716 2.77186584 -0.01878357 C4.70426368 -0.02587983 6.63672268 -0.02271109 8.5690918 -0.01000977 C11.52181907 0.00384368 14.47136913 -0.03020119 17.42382812 -0.06835938 C19.30338619 -0.06931073 21.18294821 -0.06745089 23.0625 -0.0625 C23.94284409 -0.07575821 24.82318817 -0.08901642 25.73020935 -0.10267639 C29.93446832 -0.03900612 32.07214509 0.22016491 35.65429688 2.58032227 C38.14061418 6.40069248 38.30283165 9.55559177 38.2265625 13.97265625 C38.22897446 14.77497681 38.23138641 15.57729736 38.23387146 16.40393066 C38.23289487 18.09502114 38.21954583 19.78614432 38.19458008 21.47705078 C38.16025834 24.05872698 38.17393093 26.63697965 38.19335938 29.21875 C38.18646054 30.86589992 38.1767878 32.51304104 38.1640625 34.16015625 C38.16902237 34.92799438 38.17398224 35.69583252 38.17909241 36.48693848 C38.10400006 39.92117761 37.65387195 42.44908654 36.16577148 45.5546875 C32.27203008 48.60482812 28.7575524 48.24717829 23.94140625 48.16015625 C23.0021228 48.16019653 22.06283936 48.16023682 21.09509277 48.16027832 C19.11134136 48.1549224 17.12759054 48.13733656 15.14404297 48.10839844 C12.10838956 48.0665542 9.07495558 48.06732906 6.0390625 48.07421875 C4.11066167 48.06372569 2.18227228 48.05078696 0.25390625 48.03515625 C-0.6534729 48.03495483 -1.56085205 48.03475342 -2.49572754 48.0345459 C-5.93118385 47.97005865 -8.74607574 47.81481317 -11.97265625 46.59350586 C-14.3282453 43.25360561 -13.97123015 39.60074124 -13.93359375 35.6640625 C-13.93742065 34.78995224 -13.94124756 33.91584198 -13.94519043 33.01524353 C-13.94791201 31.16680754 -13.94053358 29.3183332 -13.92382812 27.4699707 C-13.90244667 24.64251587 -13.92360713 21.81760937 -13.94921875 18.99023438 C-13.94657501 17.19400481 -13.94144908 15.39777683 -13.93359375 13.6015625 C-13.94169067 12.75666763 -13.9497876 11.91177277 -13.95812988 11.04127502 C-13.90118404 7.4694928 -13.74883974 5.17267183 -11.95678711 2.03710938 C-8.05518516 -0.20921101 -4.43059454 -0.02490476 0 0 Z " fill="#FDFCFB" transform="translate(51.40234375,92.43359375)"/>
<path d="M0 0 C0.87100342 -0.00945648 1.74200684 -0.01891296 2.6394043 -0.02865601 C3.57695557 -0.02258331 4.51450684 -0.01651062 5.48046875 -0.01025391 C6.44573486 -0.01312408 7.41100098 -0.01599426 8.40551758 -0.01895142 C10.44645779 -0.02099302 12.48741752 -0.01545648 14.52832031 -0.00292969 C17.65604315 0.01312239 20.78247371 -0.00277536 23.91015625 -0.02197266 C25.89192994 -0.01999024 27.87370283 -0.0161466 29.85546875 -0.01025391 C30.79302002 -0.0163266 31.73057129 -0.02239929 32.6965332 -0.02865601 C33.56753662 -0.01919952 34.43854004 -0.00974304 35.3359375 0 C36.10188232 0.00238678 36.86782715 0.00477356 37.65698242 0.00723267 C40.24852777 0.49816172 41.12462645 1.2690281 42.66796875 3.38818359 C42.97868622 6.42495402 43.11209399 9.25223778 43.1015625 12.29052734 C43.10680435 13.1646376 43.1120462 14.03874786 43.1174469 14.93934631 C43.12386933 16.78775979 43.12252723 18.63621412 43.11401367 20.48461914 C43.10551009 23.31193943 43.13425023 26.1372352 43.16601562 28.96435547 C43.1676279 30.76057882 43.1670496 32.55680575 43.1640625 34.35302734 C43.17529648 35.19792221 43.18653046 36.04281708 43.19810486 36.91331482 C43.15571011 40.48733103 43.01479257 42.7789652 41.22680664 45.91967773 C37.31089921 48.16699986 33.67263479 47.96005207 29.23046875 47.91943359 C27.85483765 47.92517395 27.85483765 47.92517395 26.45141602 47.93103027 C24.51480002 47.93374908 22.57814728 47.92639005 20.64160156 47.90966797 C17.67820322 47.88825754 14.71722924 47.90947029 11.75390625 47.93505859 C9.8710884 47.93241531 7.98827206 47.92729032 6.10546875 47.91943359 C5.21996338 47.92753052 4.33445801 47.93562744 3.42211914 47.94396973 C-0.25600199 47.88793683 -2.66588185 47.77048382 -5.89086914 45.91967773 C-8.05896564 42.11127647 -7.88546989 38.66587185 -7.828125 34.35302734 C-7.82958023 33.47796036 -7.83103546 32.60289337 -7.83253479 31.7013092 C-7.83087723 29.85463119 -7.81933187 28.00793916 -7.79858398 26.16137695 C-7.76959686 23.33208722 -7.77798383 20.5046677 -7.79101562 17.67529297 C-7.78477902 15.88036197 -7.77638869 14.0854369 -7.765625 12.29052734 C-7.76856064 11.44360825 -7.77149628 10.59668915 -7.77452087 9.72410583 C-7.680192 3.86624135 -7.680192 3.86624135 -6.07752991 1.66563416 C-3.89429982 0.067828 -2.68959353 0.00838111 0 0 Z " fill="#FEFCFC" transform="translate(78.33203125,34.61181640625)"/>
<path d="M0 0 C0.66 0 1.32 0 2 0 C2 10.56 2 21.12 2 32 C-9.88 32 -21.76 32 -34 32 C-29.53191489 26.41489362 -29.53191489 26.41489362 -26.5 23.875 C-22.92950168 20.82408912 -19.45114889 17.68455278 -16 14.5 C-11.89412292 10.71725274 -7.75038985 6.98715073 -3.5234375 3.33984375 C-2.30827165 2.27112096 -1.1442894 1.1442894 0 0 Z " fill="#C36E49" transform="translate(112,43)"/>
<path d="M0 0 C0 10.56 0 21.12 0 32 C-11.88 32 -23.76 32 -36 32 C-34.35 30.35 -32.7 28.7 -31 27 C-30.42636719 26.41476563 -29.85273437 25.82953125 -29.26171875 25.2265625 C-25.75002003 21.65386654 -22.11622218 18.30261575 -18.3203125 15.03515625 C-14.8605542 12.0005871 -11.4916488 8.86795345 -8.12426758 5.73144531 C-1.928083 0 -1.928083 0 0 0 Z " fill="#C26B45" transform="translate(147,101)"/>
<path d="M0 0 C0 10.56 0 21.12 0 32 C-11.55 32 -23.1 32 -35 32 C-31.05976198 27.40305564 -27.54568642 23.48682595 -23.125 19.5 C-22.60325195 19.02788086 -22.08150391 18.55576172 -21.54394531 18.06933594 C-18.02194906 14.89063111 -14.47343129 11.74219523 -10.88671875 8.63671875 C-9.50678033 7.43962932 -8.13556959 6.23245846 -6.76953125 5.01953125 C-6.04121094 4.37371094 -5.31289062 3.72789063 -4.5625 3.0625 C-3.90378906 2.47597656 -3.24507812 1.88945313 -2.56640625 1.28515625 C-1 0 -1 0 0 0 Z " fill="#C26B45" transform="translate(81,101)"/>
</svg>
