<svg version="1.1" id="Layer_1" xmlns="http://www.w3.org/2000/svg" xmlns:xlink="http://www.w3.org/1999/xlink" x="0px" y="0px"
	 width="100%" viewBox="0 0 160 160" enable-background="new 0 0 160 160" xml:space="preserve">
<path fill="#0E1116" opacity="1.000000" stroke="none" 
	d="
M111.000000,161.000000 
	C74.000008,161.000000 37.500008,161.000000 1.000010,161.000000 
	C1.000007,107.666679 1.000007,54.333355 1.000003,1.000024 
	C54.333317,1.000016 107.666634,1.000016 160.999969,1.000008 
	C160.999969,54.333309 160.999969,107.666618 160.999985,160.999969 
	C144.500000,161.000000 128.000000,161.000000 111.000000,161.000000 
M64.981155,110.732826 
	C66.516640,108.987572 67.964249,107.154785 69.601608,105.511009 
	C81.950348,93.113960 94.328590,80.746254 106.713661,68.385460 
	C114.190292,60.923485 118.389160,52.101208 118.429016,41.181171 
	C112.115784,41.181171 106.172409,41.181171 100.072693,41.181171 
	C99.788597,47.542202 96.737892,52.269104 92.417183,56.525967 
	C79.715408,69.040016 67.190506,81.733345 54.545219,94.305046 
	C47.261585,101.546280 43.776085,110.303596 43.372940,120.755905 
	C49.628864,120.755905 55.563824,120.755905 61.230263,120.755905 
	C62.393566,117.531288 63.501717,114.459557 64.981155,110.732826 
M67.781097,67.292656 
	C70.453606,64.895279 73.126106,62.497906 75.939087,59.974510 
	C67.906662,55.252106 62.211121,50.034752 61.723293,41.278595 
	C55.371025,41.278595 49.464317,41.278595 43.159569,41.278595 
	C44.580009,54.998936 49.237431,66.292847 62.140175,73.444008 
	C63.946312,71.459656 65.613098,69.628403 67.781097,67.292656 
M116.038437,107.534912 
	C112.591850,99.813591 108.431450,92.702911 100.975540,89.308624 
	C96.282570,94.081879 91.836723,98.603783 87.544609,102.969322 
	C94.345978,106.628998 99.631363,112.049393 100.195084,120.713333 
	C106.457794,120.713333 112.382141,120.713333 118.722908,120.713333 
	C118.441177,118.428795 118.319405,116.453629 117.928070,114.533394 
	C117.498100,112.423553 116.819939,110.364304 116.038437,107.534912 
M82.470406,121.021072 
	C84.939392,121.021072 87.408379,121.021072 89.906837,121.021072 
	C89.353348,114.953247 85.974899,111.662193 80.739273,111.759697 
	C75.027855,111.866066 72.539948,114.439445 72.084213,121.021111 
	C75.236336,121.021111 78.376152,121.021111 82.470406,121.021072 
M87.838509,47.167496 
	C88.742416,45.334492 89.646324,43.501488 90.711166,41.342133 
	C83.867561,41.342133 77.874809,41.342133 71.825684,41.342133 
	C73.527634,50.063622 80.041618,52.606167 87.838509,47.167496 
z"/>
<path fill="#F9F9F9" opacity="1.000000" stroke="none" 
	d="
M64.795509,111.060326 
	C63.501717,114.459557 62.393566,117.531288 61.230263,120.755905 
	C55.563824,120.755905 49.628864,120.755905 43.372940,120.755905 
	C43.776085,110.303596 47.261585,101.546280 54.545219,94.305046 
	C67.190506,81.733345 79.715408,69.040016 92.417183,56.525967 
	C96.737892,52.269104 99.788597,47.542202 100.072693,41.181171 
	C106.172409,41.181171 112.115784,41.181171 118.429016,41.181171 
	C118.389160,52.101208 114.190292,60.923485 106.713661,68.385460 
	C94.328590,80.746254 81.950348,93.113960 69.601608,105.511009 
	C67.964249,107.154785 66.516640,108.987572 64.795509,111.060326 
z"/>
<path fill="#F7F7F7" opacity="1.000000" stroke="none" 
	d="
M67.530487,67.544907 
	C65.613098,69.628403 63.946312,71.459656 62.140175,73.444008 
	C49.237431,66.292847 44.580009,54.998936 43.159569,41.278595 
	C49.464317,41.278595 55.371025,41.278595 61.723293,41.278595 
	C62.211121,50.034752 67.906662,55.252106 75.939087,59.974510 
	C73.126106,62.497906 70.453606,64.895279 67.530487,67.544907 
z"/>
<path fill="#F8F8F8" opacity="1.000000" stroke="none" 
	d="
M116.144180,107.908958 
	C116.819939,110.364304 117.498100,112.423553 117.928070,114.533394 
	C118.319405,116.453629 118.441177,118.428795 118.722908,120.713333 
	C112.382141,120.713333 106.457794,120.713333 100.195084,120.713333 
	C99.631363,112.049393 94.345978,106.628998 87.544609,102.969322 
	C91.836723,98.603783 96.282570,94.081879 100.975540,89.308624 
	C108.431450,92.702911 112.591850,99.813591 116.144180,107.908958 
z"/>
<path fill="#F5F5F5" opacity="1.000000" stroke="none" 
	d="
M81.993179,121.021088 
	C78.376152,121.021111 75.236336,121.021111 72.084213,121.021111 
	C72.539948,114.439445 75.027855,111.866066 80.739273,111.759697 
	C85.974899,111.662193 89.353348,114.953247 89.906837,121.021072 
	C87.408379,121.021072 84.939392,121.021072 81.993179,121.021088 
z"/>
<path fill="#F7F7F7" opacity="1.000000" stroke="none" 
	d="
M87.577179,47.443455 
	C80.041618,52.606167 73.527634,50.063622 71.825684,41.342133 
	C77.874809,41.342133 83.867561,41.342133 90.711166,41.342133 
	C89.646324,43.501488 88.742416,45.334492 87.577179,47.443455 
z"/>
</svg>