<svg width="494" height="488" viewBox="0 0 494 488" fill="none" xmlns="http://www.w3.org/2000/svg">
<rect width="494" height="488" fill="white"/>
<g clip-path="url(#clip0_3483_179)">
<path d="M283.412 193.62H306.731V202.91C309.662 199.146 313.424 196.112 317.722 194.046C322.02 191.98 326.738 190.937 331.506 191C336.751 190.916 341.922 192.237 346.485 194.826C351.048 197.414 354.837 201.176 357.458 205.722C365.785 193.812 378.408 191 387.206 191C399.344 191 410.054 196.712 415.777 206.723C417.675 210.065 421.015 217.441 421.015 231.972V293.908H397.681V238.641C397.681 227.452 396.49 222.918 395.533 220.783C394.062 216.97 390.531 211.95 382.204 211.95C379.485 211.999 376.815 212.692 374.414 213.971C372.013 215.251 369.949 217.08 368.39 219.311C364.344 225.023 363.873 233.606 363.873 242.174V293.908H340.54V238.641C340.54 227.452 339.348 222.918 338.392 220.783C336.92 216.97 333.389 211.95 325.062 211.95C322.345 212 319.678 212.694 317.28 213.973C314.881 215.252 312.819 217.081 311.262 219.311C307.217 225.023 306.731 233.606 306.731 242.174V293.908H283.412V193.62ZM202.643 193.62H225.976V202.675C228.763 199.395 232.056 196.582 235.731 194.342C240.092 191.927 245.037 190.77 250.016 191C256.451 190.853 262.799 192.505 268.347 195.77L258.77 216.97C255.25 214.61 251.104 213.364 246.868 213.392C241.865 213.392 236.863 214.099 232.347 218.869C225.917 225.774 225.917 235.299 225.917 241.968V293.908H202.658L202.643 193.62ZM96.7894 244.118C96.7894 261.505 107.735 276.035 124.639 276.035C139.352 276.035 152.96 265.318 152.96 244.353C152.96 222.432 139.396 211.964 124.639 211.964C107.735 211.964 96.7894 226.26 96.7894 244.118ZM151.533 193.62H174.911V293.908H151.548V283.426C147.864 287.766 143.264 291.234 138.079 293.582C132.895 295.929 127.254 297.096 121.565 297C90.6692 297 73.0146 271.28 73.0146 243.647C73.0146 211.007 95.3917 191 121.815 191C127.549 190.877 133.231 192.108 138.402 194.591C143.572 197.075 148.086 200.742 151.577 205.295L151.533 193.62Z" fill="#008FBE"/>
</g>
<defs>
<clipPath id="clip0_3483_179">
<rect width="348" height="106" fill="white" transform="translate(73 191)"/>
</clipPath>
</defs>
</svg>
