<svg width="1300" height="1285" viewBox="0 0 1300 1285" fill="none" xmlns="http://www.w3.org/2000/svg">
<path d="M0 0H1300V1285H0V0Z" fill="#7C888E"/>
<g clip-path="url(#clip0_3483_199)">
<path d="M128 0C489.02 0 850.04 0 1222 0C1222 424.05 1222 848.1 1222 1285C860.98 1285 499.96 1285 128 1285C128 860.95 128 436.9 128 0Z" fill="#7C888E"/>
<path d="M677 489C719.879 487.781 766.808 496.618 806 514C807.56 514.655 809.121 515.307 810.684 515.957C845.602 530.551 877.036 549.637 906 574C907.074 574.887 908.148 575.773 909.223 576.66C916.011 582.317 922.435 588.255 928.688 594.5C929.371 595.183 930.054 595.865 930.759 596.568C938.89 604.792 938.89 604.792 939.182 608C939.082 608.734 938.982 609.467 938.879 610.223C938.759 611.107 938.639 611.991 938.516 612.903C937.557 618.658 936.503 624.389 935.389 630.116C934.767 633.315 934.154 636.516 933.541 639.717C933.214 641.426 932.886 643.136 932.558 644.845C930.515 655.493 928.54 666.153 926.562 676.812C926.205 678.737 925.848 680.661 925.49 682.586C924.659 687.057 923.829 691.528 923 696C916.995 696.945 910.989 697.886 904.982 698.826C902.95 699.144 900.918 699.463 898.886 699.783C887.127 701.633 875.365 703.409 863.564 704.972C854.683 706.152 845.842 707.56 837 709C839.25 712.961 841.852 716.439 844.688 720C865.906 747.259 878.918 780.307 884.75 814.187C884.875 814.901 884.999 815.615 885.127 816.351C885.758 820.312 886.052 824.124 886.059 828.137C885.979 836.919 885.979 836.919 889.313 844.788C892.944 848.302 897.212 850.83 901.52 853.426C906.157 856.368 910.419 859.818 914.75 863.187C916.553 864.566 918.358 865.942 920.164 867.316C921.005 867.957 921.846 868.598 922.712 869.258C926.401 872.066 930.096 874.864 933.824 877.621C936.499 879.625 939.136 881.665 941.77 883.723C943.492 885.045 945.215 886.366 946.938 887.687C947.756 888.337 948.574 888.987 949.417 889.657C950.196 890.248 950.975 890.84 951.777 891.449C952.471 891.989 953.164 892.529 953.879 893.085C955.98 894.239 955.98 894.239 958.266 893.483C961.982 891.467 965.465 889.187 968.965 886.82C969.743 886.299 970.521 885.779 971.323 885.242C972.996 884.122 974.666 883 976.336 881.876C978.951 880.116 981.57 878.361 984.19 876.608C991.045 872.019 997.892 867.418 1004.74 862.814C1008.28 860.435 1011.82 858.059 1015.36 855.685C1017.29 854.391 1019.21 853.093 1021.13 851.793C1022.29 851.016 1023.45 850.238 1024.61 849.461C1025.61 848.788 1026.61 848.116 1027.64 847.423C1030 846 1030 846 1032 846C1034.2 860.819 1034.2 860.819 1030.79 865.755C1027.35 869.055 1023.27 871.396 1019.16 873.742C1015.67 875.774 1012.42 878.12 1009.12 880.437C1007.79 881.355 1006.44 882.27 1005.1 883.183C1000.87 886.078 996.683 889.034 992.5 892C986.222 896.448 979.917 900.855 973.552 905.178C970.631 907.166 967.769 909.176 964.953 911.312C964.082 911.972 963.21 912.632 962.312 913.312C961.587 913.886 960.861 914.46 960.113 915.051C958 916 958 916 955.52 915.402C952.831 913.906 950.701 912.265 948.375 910.25C943.43 906.105 938.337 902.241 933.125 898.437C926.08 893.292 919.111 888.058 912.188 882.75C906.12 878.105 900.032 873.502 893.812 869.062C893.242 868.655 892.672 868.248 892.085 867.829C890.099 866.425 888.179 865.089 886 864C886.045 865.217 886.09 866.434 886.137 867.687C886.131 873.923 884.981 879.892 883.812 886C883.587 887.192 883.361 888.385 883.129 889.613C880.46 903.315 876.825 916.278 871 929C870.674 929.731 870.349 930.463 870.013 931.216C861.501 950.27 851.307 967.811 837.777 983.75C837.304 984.318 836.831 984.887 836.343 985.473C835 987 835 987 832.566 989.187C829.883 994.006 831.203 998.697 832 1004C832.107 1004.72 832.214 1005.43 832.323 1006.17C833.094 1011.3 833.928 1016.41 834.782 1021.52C835.257 1024.36 835.726 1027.2 836.194 1030.04C836.824 1033.86 837.457 1037.69 838.092 1041.52C839.276 1048.66 840.451 1055.8 841.612 1062.94C841.931 1064.9 842.254 1066.85 842.577 1068.81C842.767 1069.97 842.957 1071.14 843.152 1072.34C843.317 1073.34 843.482 1074.35 843.652 1075.38C844 1078 844 1078 844 1082C849.281 1083.06 854.562 1084.11 859.848 1085.15C869.755 1087.1 879.636 1089.08 889.445 1091.48C897.035 1093.3 904.698 1094.77 912.361 1096.25C917.661 1097.28 922.84 1098.41 928 1100C923.916 1105.62 918.761 1110.16 913 1114C910.849 1113.87 910.849 1113.87 908.318 1113.33C906.885 1113.03 906.885 1113.03 905.423 1112.73C904.383 1112.5 903.344 1112.27 902.273 1112.04C901.189 1111.81 900.105 1111.58 898.988 1111.34C895.447 1110.59 891.911 1109.83 888.375 1109.06C885.96 1108.55 883.545 1108.04 881.13 1107.52C876.324 1106.5 871.52 1105.48 866.716 1104.44C860.862 1103.18 855.004 1101.94 849.145 1100.7C841.761 1099.15 834.379 1097.58 827 1096C824.586 1084.48 822.461 1072.98 820.781 1061.33C819.921 1055.38 818.961 1049.44 818 1043.5C816.254 1032.68 814.599 1021.84 813 1011C809.065 1011 808.295 1012.23 805.375 1014.81C783.508 1033.08 757.201 1045.14 730 1053C729.113 1053.27 728.226 1053.53 727.312 1053.8C710.681 1058.61 694.235 1060.21 677 1060C676.754 1060.72 676.508 1061.44 676.254 1062.18C674.857 1065.32 673.167 1067.46 670.938 1070.06C666.953 1074.82 663.19 1079.69 659.488 1084.67C656.673 1088.45 653.806 1092.19 650.938 1095.94C650.402 1096.64 649.866 1097.34 649.314 1098.06C646.109 1102.25 642.896 1106.44 639.68 1110.62C638.224 1112.52 636.768 1114.41 635.312 1116.31C634.617 1117.21 633.921 1118.12 633.205 1119.04C632.556 1119.89 631.907 1120.74 631.238 1121.61C630.661 1122.36 630.084 1123.11 629.49 1123.89C627.402 1126.77 627.402 1126.77 626 1130C626.843 1132.32 626.843 1132.32 628.48 1134.61C629.062 1135.5 629.644 1136.39 630.243 1137.31C631.205 1138.73 631.205 1138.73 632.188 1140.19C633.157 1141.66 633.157 1141.66 634.146 1143.17C635.465 1145.17 636.79 1147.18 638.121 1149.17C640.232 1152.35 642.303 1155.55 644.365 1158.76C645.689 1160.82 647.021 1162.87 648.355 1164.93C650.152 1167.69 651.946 1170.46 653.738 1173.23C654.195 1173.94 654.651 1174.64 655.121 1175.37C656.032 1176.78 656.942 1178.18 657.852 1179.59C660.266 1183.33 662.693 1187.06 665.137 1190.78C665.647 1191.56 666.158 1192.34 666.684 1193.14C667.668 1194.64 668.656 1196.15 669.648 1197.64C673 1202.77 673 1202.77 673 1205C669.546 1205.47 666.101 1205.75 662.625 1206C661.659 1206.13 660.694 1206.27 659.699 1206.41C656.243 1206.59 654.184 1206.41 651 1205C647.205 1201.06 644.788 1195.99 642.223 1191.21C640.337 1187.8 638.191 1184.59 636.027 1181.35C635.189 1180.08 634.351 1178.81 633.514 1177.53C633.093 1176.89 632.672 1176.26 632.238 1175.6C630.896 1173.56 629.559 1171.52 628.222 1169.48C624.207 1163.35 620.179 1157.24 616.055 1151.18C614.429 1148.79 612.816 1146.4 611.205 1144C610.084 1142.34 608.943 1140.7 607.802 1139.06C607.137 1138.07 606.471 1137.07 605.785 1136.05C604.902 1134.76 604.902 1134.76 604 1133.45C603 1131 603 1131 603.694 1128.37C605.41 1125.26 607.513 1122.55 609.75 1119.81C610.744 1118.57 611.738 1117.33 612.73 1116.09C613.524 1115.1 613.524 1115.1 614.333 1114.09C617.278 1110.4 620.168 1106.67 623.062 1102.94C623.658 1102.17 624.254 1101.41 624.867 1100.62C629.137 1095.12 633.391 1089.61 637.625 1084.09C639.285 1081.93 640.95 1079.78 642.625 1077.63C647.335 1071.57 651.853 1065.46 656 1059C655.121 1059.04 655.121 1059.04 654.223 1059.08C647.314 1059.25 641.041 1058.25 634.312 1056.75C633.255 1056.52 632.197 1056.29 631.106 1056.05C628.068 1055.38 625.033 1054.69 622 1054C621.26 1053.83 620.52 1053.67 619.757 1053.5C584.666 1045.56 551.303 1025.3 526 1000C517.409 998.848 508.064 1000.56 499.449 1001.31C497.861 1001.45 496.273 1001.58 494.685 1001.72C490.533 1002.07 486.38 1002.42 482.228 1002.78C475.567 1003.35 468.905 1003.92 462.242 1004.49C459.924 1004.68 457.606 1004.88 455.288 1005.09C453.864 1005.21 452.441 1005.33 451.018 1005.45C449.781 1005.56 448.543 1005.66 447.267 1005.77C444.495 1005.97 441.777 1006.05 439 1006C438.781 1007.07 438.562 1008.14 438.336 1009.24C435.96 1020.73 433.373 1032.17 430.715 1043.6C429.443 1049.07 428.188 1054.55 426.941 1060.02C426.765 1060.8 426.589 1061.57 426.407 1062.37C425.705 1065.45 425.003 1068.54 424.303 1071.62C422.301 1080.44 420.242 1089.24 418 1098C415.614 1096.05 413.289 1094.06 411 1092C410.394 1091.46 409.788 1090.92 409.164 1090.36C405.075 1086.25 405.075 1086.25 404.884 1083.08C405.79 1076.77 407.1 1070.59 408.57 1064.38C408.833 1063.26 409.095 1062.14 409.365 1060.99C412.531 1047.57 415.943 1034.22 419.365 1020.86C420.233 1017.48 421.097 1014.09 421.961 1010.7C423.637 1004.13 425.317 997.567 427 991C427.89 990.927 428.78 990.854 429.697 990.779C438.126 990.088 446.555 989.397 454.984 988.705C459.316 988.349 463.649 987.994 467.981 987.639C472.17 987.296 476.358 986.952 480.547 986.608C482.137 986.477 483.727 986.347 485.318 986.217C493.882 985.516 502.444 984.801 511 984C510.334 983.198 509.667 982.396 508.98 981.57C501.362 972.238 495.027 962.417 489 952C488.633 951.381 488.266 950.761 487.887 950.123C479.262 935.519 473.7 919.238 469 903C468.74 902.138 468.481 901.277 468.213 900.389C466.591 894.957 465.426 889.454 464.438 883.875C464.232 882.754 464.232 882.754 464.022 881.61C463.243 876.936 462.948 872.479 463 867.738C463.34 856.764 463.34 856.764 459.458 846.845C455.346 842.908 450.512 840.204 445.551 837.474C441.3 835.017 437.467 832.029 433.563 829.062C431.977 827.888 430.39 826.716 428.801 825.547C428.011 824.963 427.222 824.38 426.409 823.779C422.358 820.787 418.304 817.8 414.25 814.812C413.08 813.95 413.08 813.95 411.886 813.07C404.599 807.701 397.302 802.348 390 797C382.917 800.699 376.307 805.027 369.696 809.498C366.703 811.522 363.702 813.533 360.699 815.543C360.113 815.935 359.526 816.328 358.922 816.732C353.811 820.144 348.628 823.421 343.395 826.642C335.897 831.268 328.54 836.143 321.31 841.177C317.212 844 317.212 844 315 844C313.501 828.26 313.501 828.26 316.523 823.703C319.238 821.855 322.059 820.463 325 819C327.919 817.192 330.765 815.274 333.625 813.375C335.356 812.252 337.087 811.131 338.82 810.012C345.691 805.559 352.538 801.069 359.383 796.577C360.775 795.663 362.167 794.75 363.559 793.837C364.897 792.959 366.235 792.081 367.572 791.203C368.867 790.354 370.162 789.506 371.458 788.66C374.504 786.667 377.522 784.648 380.496 782.549C381.56 781.807 382.623 781.065 383.719 780.301C385.11 779.307 385.11 779.307 386.529 778.294C389 777 389 777 391.101 777.141C393.155 778.07 394.843 779.113 396.66 780.449C397.712 781.216 397.712 781.216 398.785 781.998C399.537 782.555 400.288 783.113 401.063 783.687C401.854 784.267 402.645 784.846 403.461 785.443C405.979 787.289 408.49 789.144 411 791C412.592 792.173 414.185 793.347 415.777 794.519C418.146 796.264 420.514 798.01 422.88 799.757C435.82 809.309 448.9 818.67 462 828C462.095 827.378 462.19 826.755 462.288 826.114C468.027 788.988 478.404 754.639 501 724C501.463 723.37 501.925 722.741 502.402 722.093C506.443 716.655 510.531 711.368 515.391 706.633C521.255 701.276 521.255 701.276 524.602 694.34C524.349 691.447 523.711 688.815 523 686C522.784 684.183 522.57 682.366 522.391 680.546C521.439 670.98 519.904 661.483 518.468 651.982C517.283 644.087 516.252 636.194 515.395 628.258C515.055 625.084 515.055 625.084 514.453 622.324C513.775 618.848 513.94 615.536 514 612C512.708 611.873 511.417 611.746 510.086 611.616C505.197 611.07 500.438 610.167 495.629 609.144C494.757 608.962 493.885 608.78 492.987 608.592C490.178 608.004 487.37 607.408 484.563 606.812C482.622 606.403 480.681 605.994 478.74 605.585C465.396 602.764 452.088 599.816 438.817 596.665C433.55 595.422 428.275 594.213 423 593C424.524 589.841 426.138 587.364 428.5 584.75C429.108 584.043 429.717 583.337 430.344 582.609C438.021 577.958 448.956 582.02 457.063 583.875C458.277 584.144 459.492 584.414 460.744 584.691C464.165 585.451 467.583 586.224 471 587C475.973 588.115 480.949 589.205 485.938 590.25C490.783 591.281 495.612 592.368 500.438 593.492C501.587 593.76 502.737 594.028 503.922 594.304C506.232 594.843 508.541 595.385 510.849 595.931C516.222 597.186 521.518 598.353 527 599C528.488 603.848 529.464 608.496 530.129 613.54C530.225 614.258 530.322 614.976 530.421 615.716C530.734 618.065 531.041 620.415 531.348 622.766C531.566 624.407 531.785 626.049 532.005 627.691C532.579 631.997 533.148 636.303 533.715 640.609C534.624 647.516 535.541 654.421 536.461 661.326C536.781 663.736 537.097 666.147 537.413 668.557C537.609 670.031 537.804 671.504 538 672.977C538.17 674.264 538.339 675.551 538.514 676.877C538.915 680.021 538.915 680.021 540 683C540.802 682.333 541.604 681.667 542.43 680.98C571.944 656.882 611.435 638.593 649.863 636.613C663.071 636.57 663.071 636.57 674.637 631.41C676.857 628.788 678.453 625.887 679.997 622.829C681.758 619.617 684.123 616.888 686.438 614.062C687.366 612.888 688.291 611.713 689.215 610.535C689.905 609.659 689.905 609.659 690.609 608.766C692.909 605.846 695.204 602.923 697.5 600C700.723 595.896 703.949 591.795 707.179 587.697C708.546 585.958 709.908 584.216 711.27 582.473C713.138 580.084 715.034 577.722 716.949 575.371C717.883 574.206 718.817 573.04 719.75 571.875C720.193 571.342 720.636 570.81 721.092 570.261C722.461 568.595 722.461 568.595 724 566C723.603 562.732 722.169 560.409 720.402 557.676C719.856 556.824 719.31 555.973 718.747 555.096C718.15 554.178 717.553 553.259 716.938 552.312C716.008 550.868 716.008 550.868 715.059 549.394C713.731 547.329 712.4 545.266 711.067 543.204C708.315 538.938 705.583 534.658 702.851 530.379C699.574 525.248 696.288 520.124 693 515C692.441 514.128 691.881 513.255 691.305 512.357C689.81 510.028 688.312 507.701 686.812 505.375C686.391 504.719 685.97 504.063 685.536 503.387C683.506 500.244 681.415 497.18 679.199 494.164C677 491 677 491 677 489Z" fill="#FEFEFE"/>
<path d="M427.428 593.427C428.277 593.616 429.126 593.805 430 594C430.943 594.177 431.886 594.355 432.857 594.537C436.185 595.172 439.498 595.862 442.812 596.562C444.676 596.952 444.676 596.952 446.578 597.349C458.492 599.849 470.374 602.502 482.254 605.16C492.819 607.523 503.395 609.821 514 612C515.667 622.227 517.231 632.442 518.473 642.73C519.077 647.702 519.757 652.663 520.438 657.625C520.563 658.544 520.688 659.463 520.818 660.409C521.487 665.303 522.168 670.195 522.859 675.086C522.998 676.076 523.137 677.067 523.28 678.087C523.545 679.981 523.813 681.875 524.086 683.768C525.782 695.936 525.782 695.936 523.566 698.949C522.905 699.523 522.244 700.096 521.562 700.687C497.627 722.943 479.708 755.789 471 787C470.814 787.665 470.628 788.331 470.436 789.017C466.878 802.123 465.011 815.588 463 829C457.887 826.21 453.299 823.11 448.688 819.562C442.885 815.155 437.039 810.819 431.125 806.562C430.38 806.026 429.635 805.489 428.867 804.937C426.579 803.29 424.29 801.645 422 800C419.645 798.306 417.291 796.612 414.938 794.916C413.413 793.817 411.887 792.72 410.359 791.625C406.974 789.188 403.621 786.729 400.344 784.148C399.794 783.719 399.244 783.289 398.677 782.846C397.237 781.713 395.809 780.564 394.383 779.414C392.188 777.779 392.188 777.779 390.13 778.245C387.678 779.114 385.726 780.262 383.535 781.668C382.664 782.224 381.792 782.78 380.894 783.354C379.96 783.959 379.025 784.564 378.062 785.187C377.087 785.814 376.111 786.44 375.106 787.085C367.615 791.912 360.189 796.833 352.789 801.797C345.792 806.489 338.741 811.091 331.658 815.65C328.055 817.977 324.511 820.332 321.055 822.871C318 825 318 825 316 825C314.907 780.518 330.218 733.791 349 694C349.433 693.081 349.866 692.161 350.312 691.214C364.848 660.64 383.714 633.023 406.325 607.866C407.458 606.604 408.582 605.335 409.698 604.059C411.355 602.178 413.045 600.336 414.75 598.5C415.244 597.929 415.738 597.359 416.248 596.771C419.986 592.867 422.416 592.503 427.428 593.427Z" fill="#259A47"/>
<path d="M528.348 1000.51C528.914 1001.23 529.479 1001.95 530.062 1002.69C560.991 1037.32 611.47 1053.66 656 1059C654.4 1064.22 651.103 1067.99 647.75 1072.19C646.479 1073.8 645.208 1075.41 643.938 1077.02C643.285 1077.85 642.633 1078.67 641.961 1079.52C638.868 1083.43 635.809 1087.37 632.75 1091.31C632.166 1092.06 631.582 1092.81 630.98 1093.59C626.765 1099.01 622.565 1104.44 618.391 1109.89C616.684 1112.11 614.967 1114.32 613.234 1116.51C612.777 1117.09 612.32 1117.68 611.849 1118.28C610.58 1119.9 609.306 1121.51 608.031 1123.12C606.102 1125.86 604.839 1127.78 604 1131C605.016 1133.67 605.016 1133.67 606.926 1136.26C607.612 1137.28 608.298 1138.31 609.005 1139.36C609.774 1140.47 610.543 1141.58 611.312 1142.69C612.095 1143.84 612.875 1145 613.653 1146.16C615.277 1148.57 616.909 1150.97 618.547 1153.38C622.388 1159.03 626.091 1164.77 629.812 1170.5C633.746 1176.54 637.689 1182.56 641.734 1188.53C642.301 1189.36 642.867 1190.2 643.45 1191.06C644.493 1192.6 645.543 1194.13 646.599 1195.66C650 1200.67 650 1200.67 650 1204C640.901 1204.23 632.189 1203.62 623.188 1202.31C621.925 1202.13 620.662 1201.95 619.361 1201.76C546.616 1190.98 478.338 1157.65 425.508 1106.4C424.004 1104.96 424.004 1104.96 422.253 1103.66C419.786 1101.63 418.162 1100.19 417.718 1096.94C417.923 1094.21 418.405 1091.67 419 1089C419.251 1087.86 419.501 1086.73 419.759 1085.56C420.524 1082.27 421.324 1079.01 422.151 1075.74C423.076 1072.09 423.976 1068.43 424.875 1064.78C425.057 1064.04 425.239 1063.3 425.426 1062.54C427.157 1055.45 428.694 1048.33 430.188 1041.19C431.93 1032.88 433.753 1024.61 435.812 1016.37C436.02 1015.54 436.227 1014.71 436.44 1013.86C437.864 1008.27 437.864 1008.27 439 1006C441.746 1005.46 441.746 1005.46 445.66 1005.04C446.397 1004.96 447.134 1004.88 447.893 1004.8C459.367 1003.59 470.871 1002.66 482.368 1001.71C485.776 1001.43 489.183 1001.14 492.59 1000.85C495.892 1000.57 499.194 1000.3 502.496 1000.02C504.307 999.868 504.307 999.868 506.155 999.711C524.744 998.191 524.744 998.191 528.348 1000.51Z" fill="#259A47"/>
<path d="M389 796C395.124 800.004 401.071 804.191 406.938 808.562C413.262 813.25 419.609 817.903 426 822.5C432.402 827.109 438.775 831.757 445.125 836.438C445.895 837.005 446.664 837.572 447.457 838.156C448.93 839.244 450.396 840.341 451.854 841.448C453.975 843.036 453.975 843.036 456.285 844.33C459.576 846.355 461.617 847.735 462.765 851.523C463.137 854.616 463.263 857.635 463.313 860.75C463.421 863.007 463.536 865.263 463.656 867.52C463.708 868.625 463.759 869.731 463.813 870.87C466.048 908.19 483.205 947.244 506.027 976.422C508.154 979.201 510.071 982.082 512 985C504.141 985.635 496.282 986.27 488.422 986.904C484.771 987.199 481.121 987.493 477.47 987.788C473.936 988.074 470.403 988.359 466.869 988.644C464.888 988.804 462.907 988.964 460.926 989.124C457.284 989.418 453.642 989.709 450 990C448.809 990.097 447.618 990.194 446.391 990.294C445.251 990.385 444.111 990.477 442.936 990.571C441.931 990.652 440.926 990.733 439.89 990.817C435.591 991.089 431.305 991.087 427 991C426.911 992.013 426.822 993.026 426.73 994.07C425.882 1000.8 424.014 1007.32 422.324 1013.88C421.954 1015.33 421.584 1016.78 421.214 1018.23C420.241 1022.05 419.263 1025.86 418.284 1029.68C417.301 1033.51 416.324 1037.34 415.346 1041.17C414.239 1045.5 413.131 1049.84 412.019 1054.18C409.644 1063.44 407.311 1072.72 405 1082C402 1082 402 1082 399.504 1079.54C398.512 1078.39 397.532 1077.23 396.563 1076.06C396.035 1075.43 395.507 1074.81 394.963 1074.16C380.691 1056.92 368.734 1037.58 358.064 1017.95C357.014 1016.03 355.942 1014.12 354.867 1012.21C331.618 970.356 316.79 921.721 314.182 873.879C314.051 871.815 313.881 869.754 313.686 867.695C311.885 848.481 311.885 848.481 315.159 843.093C318.433 839.78 322.472 837.984 326.682 836.112C330.879 834.098 334.643 831.405 338.5 828.812C340.202 827.704 341.907 826.599 343.613 825.496C349.312 821.8 355 818.088 360.688 814.375C370.11 808.226 379.548 802.103 389 796Z" fill="#259A47"/>
<path d="M812 1009C814.859 1011.86 814.751 1015.02 815.25 1018.88C816.542 1028.15 818.04 1037.39 819.6 1046.63C823.23 1068.14 823.23 1068.14 824.812 1078.69C824.924 1079.43 825.036 1080.17 825.15 1080.93C825.888 1085.94 826.463 1090.96 827 1096C828.749 1096.15 828.749 1096.15 830.533 1096.31C837.596 1097.1 844.522 1098.64 851.473 1100.09C852.965 1100.4 854.458 1100.71 855.95 1101.01C859.065 1101.66 862.179 1102.3 865.292 1102.95C869.264 1103.77 873.237 1104.59 877.211 1105.41C880.289 1106.05 883.366 1106.68 886.443 1107.32C887.907 1107.62 889.372 1107.92 890.836 1108.23C897.924 1109.69 904.998 1111.16 912 1113C901.107 1138.94 852.31 1159.37 828.069 1171C826.688 1171.67 825.311 1172.34 823.938 1173.02C781.529 1194.03 732.575 1204.58 685.438 1205.44C684.36 1205.47 683.282 1205.51 682.172 1205.54C680.662 1205.55 680.662 1205.55 679.121 1205.56C677.782 1205.58 677.782 1205.58 676.416 1205.6C671.468 1204.37 669.155 1198.83 666.566 1194.75C665.924 1193.74 665.283 1192.73 664.621 1191.69C663.942 1190.62 663.262 1189.54 662.562 1188.44C661.117 1186.16 659.67 1183.89 658.223 1181.62C657.862 1181.05 657.501 1180.49 657.129 1179.9C653.952 1174.91 650.733 1169.95 647.5 1165C639.924 1153.38 632.463 1141.69 625 1130C626.936 1126.67 628.993 1123.57 631.336 1120.52C631.981 1119.67 632.626 1118.83 633.291 1117.96C634.323 1116.62 634.323 1116.62 635.375 1115.25C636.091 1114.31 636.807 1113.38 637.545 1112.42C639.006 1110.51 640.469 1108.6 641.933 1106.69C644.794 1102.97 647.647 1099.23 650.5 1095.5C651.54 1094.14 652.581 1092.78 653.621 1091.42C654.156 1090.72 654.691 1090.02 655.242 1089.3C656.511 1087.64 657.781 1085.98 659.051 1084.32C661.223 1081.49 663.393 1078.65 665.562 1075.81C666.582 1074.48 666.582 1074.48 667.621 1073.13C668.584 1071.87 668.584 1071.87 669.566 1070.58C670.18 1069.79 670.794 1069 671.427 1068.19C673.188 1065.87 673.188 1065.87 674.711 1062.46C678.007 1058.92 680.933 1059.19 685.632 1058.97C686.764 1058.94 687.896 1058.91 689.062 1058.88C700.419 1058.3 710.994 1056.8 722 1054C722.692 1053.83 723.384 1053.65 724.097 1053.48C728.418 1052.38 732.711 1051.21 737 1050C737.9 1049.76 738.8 1049.51 739.727 1049.26C763.212 1042.62 784.627 1029.51 804 1015C804.811 1014.4 805.622 1013.79 806.457 1013.17C808.308 1011.78 810.156 1010.39 812 1009Z" fill="#259A47"/>
<path d="M668.782 488.628C671.77 488.343 674.079 488.291 677 489C680.233 491.81 682.106 495.229 684.188 498.938C685.473 501.064 686.76 503.191 688.047 505.317C688.697 506.423 689.348 507.529 690.018 508.669C693.186 513.993 696.572 519.174 699.938 524.375C701.262 526.449 702.585 528.523 703.906 530.598C706.387 534.486 708.88 538.366 711.389 542.235C712.517 543.974 713.642 545.713 714.766 547.454C716.185 549.649 717.609 551.841 719.037 554.031C719.673 555.017 720.309 556.004 720.965 557.02C721.528 557.887 722.091 558.754 722.672 559.648C723.922 561.861 724.744 563.476 725 566C723.501 568.31 722.016 570.286 720.25 572.375C719.224 573.633 718.198 574.891 717.172 576.149C716.643 576.789 716.114 577.429 715.568 578.089C713.163 581.021 710.833 584.011 708.5 587C707.584 588.167 706.667 589.334 705.75 590.5C705.069 591.366 705.069 591.366 704.375 592.25C700.25 597.5 700.25 597.5 698.875 599.25C697.959 600.416 697.043 601.582 696.127 602.748C693.825 605.679 691.521 608.608 689.215 611.535C688.749 612.126 688.284 612.717 687.805 613.326C684.059 618.083 684.059 618.083 682.615 619.85C680.854 622.124 680.854 622.124 679.014 625.238C675.761 630.335 673.123 634.222 667.299 636.356C663.802 637.03 660.3 637.299 656.746 637.46C654.449 637.565 652.169 637.743 649.879 637.943C646.89 638.202 643.901 638.443 640.91 638.667C619.401 640.499 596.579 648.491 577.832 658.978C575.892 660.061 573.934 661.105 571.973 662.149C562.786 667.101 554.376 672.793 546 679C544.769 679.885 543.536 680.768 542.301 681.648C541.68 682.09 541.059 682.533 540.419 682.989C539.951 683.323 539.483 683.656 539 684C536.395 667.007 534.006 649.984 531.622 632.959C531.1 629.23 530.576 625.502 530.053 621.774C529.034 614.516 528.017 607.258 527 600C526.395 599.887 525.791 599.774 525.167 599.657C522.403 599.138 519.639 598.616 516.875 598.094C515.924 597.916 514.972 597.737 513.992 597.554C509.288 596.664 504.629 595.734 500 594.5C494.628 593.08 489.211 592.07 483.75 591.063C476.082 589.643 468.552 587.975 461.008 586.008C455.662 584.63 450.256 583.506 444.849 582.395C441.373 581.654 438.992 580.995 436 579C466.739 549.314 505.415 527.581 545 512C545.635 511.745 546.27 511.489 546.924 511.226C583.414 496.695 624.455 489.914 663.568 489.1C666.065 489.035 666.065 489.035 668.782 488.628Z" fill="#259A47"/>
<path d="M939 608C967.546 619.537 991.601 675.748 1003 702C1006.19 709.597 1009.13 717.277 1012 725C1012.38 725.991 1012.38 725.991 1012.76 727.002C1025.02 759.481 1030.43 796.429 1032 831C1032.18 832.866 1032.18 832.866 1032.37 834.77C1032.45 836.001 1032.54 837.232 1032.62 838.5C1032.77 840.124 1032.77 840.124 1032.91 841.781C1031.43 847.004 1027.37 849.079 1023 852C1022.27 852.497 1021.53 852.995 1020.78 853.507C1018.39 855.096 1015.98 856.645 1013.56 858.188C1006.36 862.806 999.224 867.509 992.159 872.341C988.361 874.937 984.554 877.521 980.747 880.105C978.833 881.41 976.922 882.721 975.017 884.039C972.311 885.909 969.591 887.755 966.867 889.598C965.637 890.461 965.637 890.461 964.382 891.341C958.717 895.128 958.717 895.128 955.163 894.492C954.092 893.754 954.092 893.754 953 893C952.408 892.615 951.815 892.23 951.205 891.833C950.653 891.401 950.1 890.969 949.531 890.523C948.888 890.026 948.245 889.528 947.583 889.015C946.895 888.474 946.208 887.932 945.5 887.375C943.986 886.2 942.472 885.026 940.957 883.852C940.156 883.228 939.355 882.604 938.53 881.962C934.104 878.53 929.645 875.141 925.188 871.75C923.837 870.722 923.837 870.722 922.46 869.672C917.88 866.184 913.293 862.704 908.688 859.25C907.795 858.554 906.903 857.858 905.984 857.141C903.619 855.444 901.364 854.068 898.828 852.672C888.198 846.432 888.198 846.432 886.049 840.275C884.731 833.881 884.415 827.427 884.152 820.917C883.817 814.497 882.428 808.256 881 802C880.806 801.148 880.611 800.295 880.411 799.417C873.554 770.033 861.347 743.038 843 719C842.238 717.996 841.476 716.992 840.691 715.957C839.148 713.954 837.591 711.966 836 710C836.495 709.01 836.495 709.01 837 708C839.61 707.362 839.61 707.362 843.105 706.816C844.388 706.613 845.67 706.409 846.991 706.199C848.39 705.986 849.789 705.774 851.188 705.562C852.616 705.34 854.044 705.117 855.471 704.893C864.263 703.525 873.066 702.255 881.888 701.101C890.37 699.984 898.817 698.649 907.261 697.269C912.577 696.424 917.616 695.778 923 696C923.044 695.143 923.044 695.143 923.089 694.268C923.766 684.627 925.785 675.269 927.688 665.812C928.414 662.159 929.137 658.505 929.859 654.852C930.131 653.483 930.131 653.483 930.408 652.087C932.415 641.957 934.306 631.805 936.184 621.65C936.411 620.429 936.638 619.207 936.871 617.949C937.066 616.89 937.262 615.832 937.463 614.741C937.908 612.469 938.41 610.238 939 608Z" fill="#259A47"/>
<path d="M696 490C705.251 489.634 714.188 490.731 723.312 492.062C724.073 492.172 724.833 492.281 725.616 492.394C753.097 496.393 780.54 502.709 806 514C807.56 514.655 809.121 515.307 810.684 515.957C845.583 530.543 877.075 549.612 906 574C906.565 574.475 907.13 574.949 907.712 575.438C911.33 578.484 914.912 581.566 918.467 584.684C919.773 585.805 921.123 586.875 922.48 587.934C925.117 590.128 926.775 591.681 927.363 595.129C927.04 602.256 924.79 609.415 923.083 616.324C921.331 623.43 919.839 630.567 918.438 637.75C916.77 646.273 914.954 654.732 912.91 663.172C911.713 668.209 910.655 673.268 909.613 678.34C909 681 909 681 908 683C905.147 683.772 905.147 683.772 901.373 684.484C900.699 684.611 900.025 684.739 899.331 684.871C892.261 686.187 885.155 687.249 878.035 688.262C876.663 688.459 875.291 688.656 873.92 688.854C871.077 689.263 868.234 689.668 865.391 690.072C861.767 690.586 858.145 691.109 854.522 691.635C851.703 692.043 848.883 692.446 846.062 692.847C844.083 693.13 842.105 693.417 840.127 693.705C823.807 696 823.807 696 819.996 693.891C819.225 693.079 819.225 693.079 818.438 692.25C797.676 672.215 772.126 657.531 745 648C743.995 647.646 743.995 647.646 742.97 647.285C740.656 646.491 738.332 645.739 736 645C734.471 644.514 734.471 644.514 732.911 644.019C723.727 641.24 714.593 639.626 705.125 638.25C703.647 638.028 702.169 637.806 700.691 637.582C697.129 637.045 693.565 636.519 690 636C691.263 633.34 692.631 630.99 694.398 628.637C694.872 628.005 695.345 627.373 695.833 626.722C696.342 626.051 696.851 625.379 697.375 624.687C697.906 623.983 698.437 623.279 698.984 622.553C703.113 617.105 707.353 611.752 711.643 606.43C715.597 601.522 719.451 596.548 723.281 591.543C726.624 587.178 730 582.839 733.375 578.5C733.97 577.734 734.566 576.968 735.179 576.178C738.094 572.432 741.022 568.697 744 565C742.747 561.635 741.328 558.749 739.324 555.773C738.757 554.927 738.19 554.08 737.606 553.208C736.973 552.273 736.34 551.338 735.688 550.375C735.019 549.379 734.351 548.383 733.662 547.357C729.292 540.849 724.892 534.362 720.496 527.871C717.849 523.961 715.204 520.049 712.559 516.138C710.573 513.203 708.582 510.271 706.591 507.339C705.353 505.511 704.116 503.684 702.879 501.855C702.3 501.006 701.722 500.157 701.126 499.283C700.597 498.499 700.067 497.715 699.522 496.907C699.057 496.222 698.592 495.537 698.114 494.832C697 493 697 493 696 490Z" fill="#FEC60B"/>
<path d="M886 864C889.616 865.3 892.387 866.845 895.414 869.203C896.247 869.846 897.081 870.49 897.939 871.152C898.826 871.845 899.712 872.537 900.625 873.25C902.522 874.715 904.421 876.178 906.32 877.641C907.275 878.376 908.229 879.111 909.212 879.869C913.267 882.969 917.379 885.988 921.5 889C931.072 896.009 940.504 903.197 949.92 910.413C950.606 910.937 951.293 911.46 952 912C952.702 912.573 953.404 913.146 954.128 913.736C954.746 914.153 955.363 914.57 956 915C960.781 913.989 964.733 910.516 968.625 907.688C970.149 906.595 971.674 905.504 973.199 904.414C973.989 903.85 974.778 903.285 975.591 902.704C979.503 899.936 983.472 897.253 987.438 894.562C993.822 890.221 1000.13 885.787 1006.38 881.25C1017.9 872.892 1017.9 872.892 1022.44 869.688C1023.45 868.969 1024.46 868.251 1025.5 867.512C1028 866 1028 866 1031 866C1035.22 941.347 996.713 1020.86 949 1077C948.022 1078.16 947.044 1079.33 946.066 1080.49C943.533 1083.5 940.968 1086.47 938.376 1089.42C937.151 1090.83 935.943 1092.25 934.738 1093.67C934.082 1094.4 933.426 1095.12 932.75 1095.88C932.209 1096.49 931.667 1097.11 931.109 1097.74C924.659 1101.59 915.017 1097.91 908.25 1096.38C905.747 1095.82 903.245 1095.27 900.742 1094.72C898.824 1094.29 898.824 1094.29 896.866 1093.86C890.71 1092.49 884.542 1091.19 878.375 1089.88C870.391 1088.17 862.41 1086.45 854.438 1084.69C853.712 1084.53 852.986 1084.37 852.238 1084.2C849.434 1083.58 846.728 1082.91 844 1082C843.327 1080.3 843.327 1080.3 842.914 1078.09C842.679 1076.86 842.679 1076.86 842.438 1075.61C841.704 1071.24 841.017 1066.88 840.375 1062.5C838.983 1053.19 837.499 1043.9 835.961 1034.61C835.78 1033.52 835.6 1032.42 835.414 1031.3C834.676 1026.84 833.938 1022.37 833.191 1017.91C832.66 1014.74 832.134 1011.57 831.609 1008.39C831.447 1007.43 831.285 1006.47 831.118 1005.49C829.11 993.263 829.11 993.263 832.02 989.133C832.939 988.12 833.871 987.118 834.813 986.125C849.764 969.391 861.038 949.487 870 929C870.278 928.369 870.557 927.738 870.843 927.087C879.577 907.043 883.781 885.679 886 864Z" fill="#259A47"/>
<path d="M864 150C887.1 150 910.2 150 934 150C935.223 153.669 936.344 157.13 937.262 160.852C937.49 161.771 937.718 162.69 937.953 163.637C938.317 165.116 938.317 165.116 938.688 166.625C939.221 168.781 939.755 170.938 940.289 173.094C940.707 174.786 940.707 174.786 941.134 176.512C942.005 180.02 942.887 183.526 943.773 187.031C946.395 197.415 948.997 207.794 951.312 218.25C953.669 228.885 956.34 239.438 959 250C964.629 272.369 964.629 272.369 967.125 283.312C967.325 284.182 967.525 285.051 967.73 285.947C968.42 289.026 969 291.835 969 295C969.66 295 970.32 295 971 295C971.161 294.042 971.161 294.042 971.325 293.064C972.643 285.502 974.354 278.076 976.188 270.625C976.656 268.702 977.125 266.779 977.593 264.856C978.076 262.876 978.56 260.895 979.044 258.915C980.544 252.78 982.02 246.64 983.5 240.5C984.085 238.078 984.669 235.656 985.254 233.234C986.408 228.453 987.562 223.672 988.715 218.891C989.289 216.51 989.863 214.13 990.438 211.75C990.721 210.576 991.004 209.401 991.296 208.191C992.897 201.559 994.502 194.927 996.113 188.297C996.473 186.817 996.832 185.337 997.192 183.856C997.876 181.038 998.562 178.22 999.248 175.401C1001.03 168.081 1002.75 160.753 1004.38 153.396C1005 151 1005 151 1006 150C1029.1 150 1052.2 150 1076 150C1076 216.99 1076 283.98 1076 353C1062.47 353 1048.94 353 1035 353C1035 301.19 1035 249.38 1035 196C1033.35 196 1031.7 196 1030 196C1029.67 197.423 1029.67 197.423 1029.34 198.875C1025.33 216.133 1021.14 233.335 1016.18 250.347C1014.25 257.02 1012.54 263.733 1010.89 270.481C1009.18 277.423 1007.23 284.281 1005.23 291.145C1003.29 297.874 1001.56 304.641 999.903 311.445C997.71 320.345 995.162 329.14 992.585 337.936C992.015 339.946 991.507 341.973 991 344C977.14 344 963.28 344 949 344C947.67 338.864 947.67 338.864 946.312 333.625C944.434 326.4 942.522 319.187 940.5 312C938.306 304.202 936.261 296.369 934.23 288.527C932.709 282.668 931.139 276.827 929.5 271C927.306 263.202 925.261 255.369 923.23 247.527C921.709 241.668 920.139 235.827 918.5 230C916.493 222.851 914.572 215.682 912.688 208.5C912.421 207.489 912.154 206.479 911.879 205.438C911.634 204.499 911.389 203.561 911.137 202.594C910.917 201.755 910.698 200.917 910.471 200.053C910 198 910 198 910 196C908.35 196 906.7 196 905 196C905 247.81 905 299.62 905 353C891.47 353 877.94 353 864 353C864 286.01 864 219.02 864 150Z" fill="#FDFDFE"/>
<path d="M577 739C598.694 739.074 620.413 745.66 641 752C641.942 752.285 642.883 752.57 643.854 752.864C646.781 753.753 649.704 754.655 652.625 755.562C653.94 755.966 653.94 755.966 655.281 756.377C661.771 758.434 667.853 761.085 674 764C675.385 764.644 675.385 764.644 676.798 765.302C705.279 778.571 733.519 793.296 749 822C749.319 822.587 749.638 823.174 749.967 823.779C769.357 860.299 765.733 906.185 756 945C742.73 947.645 729.677 948.31 716.188 948.312C715.018 948.317 715.018 948.317 713.826 948.322C699.674 948.358 685.597 947.659 672 943.375C671.166 943.118 670.332 942.861 669.473 942.595C661.186 939.925 653.563 936.282 646 932C644.509 931.169 644.509 931.169 642.988 930.32C635.436 925.817 629.287 920.076 623 914C622.245 913.296 621.489 912.592 620.711 911.867C587.409 880.108 583.68 825.908 579 783C578.864 781.762 578.729 780.524 578.589 779.249C577.158 765.803 576.749 752.518 577 739Z" fill="#259A47"/>
<path d="M474 151C579.945 151 579.945 151 594.625 158.938C595.266 159.259 595.906 159.581 596.566 159.912C609.119 166.42 616.568 177.771 621.008 191.004C621.753 193.662 622.429 196.299 623 199C623.275 200.29 623.275 200.29 623.555 201.605C625.43 215.9 624.895 230.406 620 244C619.723 244.893 619.446 245.787 619.16 246.707C615.13 258.499 606.238 268.175 596 275C596.654 280.444 598.412 285.202 600.352 290.289C600.689 291.188 601.026 292.086 601.373 293.012C602.452 295.885 603.538 298.755 604.625 301.625C606.037 305.366 607.446 309.108 608.852 312.852C609.373 314.239 609.373 314.239 609.904 315.654C614.528 328.015 618.827 340.48 623 353C608.15 353 593.3 353 578 353C564.907 315.811 564.907 315.811 559.841 301.197C559.195 299.335 558.546 297.474 557.897 295.613C557.512 294.499 557.127 293.386 556.73 292.238C556.394 291.269 556.058 290.3 555.712 289.302C555 287 555 287 555 285C541.8 285 528.6 285 515 285C515 307.44 515 329.88 515 353C501.47 353 487.94 353 474 353C474 286.34 474 219.68 474 151Z" fill="#FEFEFE"/>
<path d="M658 150C681.1 150 704.2 150 728 150C735.899 175.955 735.899 175.955 738.5 185.5C741.028 194.656 743.719 203.751 746.516 212.828C748.485 219.242 750.324 225.68 752.086 232.154C753.775 238.306 755.625 244.403 757.5 250.5C759.594 257.31 761.628 264.125 763.5 271C765.933 279.932 768.633 288.777 771.352 297.625C771.624 298.516 771.896 299.406 772.177 300.324C772.736 302.142 773.303 303.957 773.878 305.77C774.153 306.65 774.428 307.53 774.711 308.438C774.959 309.22 775.207 310.002 775.462 310.809C776 313 776 313 776 317C776.99 317 777.98 317 779 317C779 261.89 779 206.78 779 150C792.53 150 806.06 150 820 150C820 216.99 820 283.98 820 353C797.89 353 775.78 353 753 353C749.319 341.957 745.7 330.951 742.375 319.805C741.95 318.389 741.526 316.974 741.1 315.559C740.199 312.555 739.298 309.551 738.399 306.547C735.988 298.493 733.566 290.442 731.145 282.391C730.895 281.562 730.646 280.733 730.389 279.879C724.785 261.244 719.112 242.631 713.421 224.022C712.688 221.626 711.955 219.229 711.222 216.832C709.861 212.38 708.499 207.928 707.137 203.477C706.93 202.801 706.723 202.125 706.51 201.429C705.935 199.55 705.36 197.671 704.784 195.792C704.462 194.739 704.139 193.687 703.807 192.603C703.226 190.729 702.621 188.862 702 187C701.01 186.67 700.02 186.34 699 186C699 241.11 699 296.22 699 353C685.47 353 671.94 353 658 353C658 286.01 658 219.02 658 150Z" fill="#FDFDFE"/>
<path d="M278 151C291.53 151 305.06 151 319 151C319.03 157.336 319.03 157.336 319.06 163.801C319.127 177.762 319.205 191.724 319.288 205.686C319.338 214.15 319.384 222.615 319.422 231.079C319.455 238.459 319.495 245.84 319.543 253.22C319.568 257.125 319.59 261.03 319.603 264.936C319.616 268.617 319.638 272.298 319.667 275.979C319.681 277.964 319.684 279.948 319.688 281.932C319.785 292.39 320.567 302.725 327.688 310.949C335.503 318.465 344.866 319.569 355.375 319.5C356.888 319.491 356.888 319.491 358.431 319.483C367.791 319.258 375.762 317.818 382.5 310.75C388.088 303.184 390.1 295.244 390.158 285.926C390.168 284.731 390.178 283.536 390.188 282.305C390.194 281.009 390.199 279.712 390.205 278.375C390.215 276.985 390.225 275.595 390.235 274.205C390.262 270.443 390.283 266.682 390.303 262.92C390.325 258.984 390.353 255.048 390.379 251.112C390.429 243.665 390.474 236.217 390.517 228.769C390.567 220.288 390.622 211.806 390.677 203.325C390.791 185.884 390.897 168.442 391 151C404.53 151 418.06 151 432 151C432.068 169.777 432.123 188.554 432.155 207.331C432.171 216.051 432.192 224.771 432.226 233.49C432.256 241.097 432.276 248.703 432.282 256.31C432.286 260.332 432.295 264.354 432.317 268.375C432.338 272.173 432.344 275.971 432.339 279.769C432.341 281.802 432.357 283.835 432.373 285.868C432.313 304.197 428.166 322.791 415.563 336.688C414.717 337.451 413.871 338.214 413 339C412.535 339.469 412.069 339.938 411.59 340.422C402.181 349.392 389.33 352.34 377 355C376.262 355.176 375.523 355.352 374.762 355.533C371.263 356.125 367.809 356.2 364.27 356.238C363.526 356.248 362.782 356.258 362.016 356.268C336.689 356.534 313.429 355.639 294 337C283.081 325.069 277.866 307.666 277.88 291.698C277.878 290.453 277.877 289.208 277.876 287.925C277.879 286.558 277.883 285.191 277.887 283.825C277.887 282.376 277.887 280.926 277.886 279.477C277.886 275.554 277.892 271.631 277.899 267.708C277.905 263.604 277.905 259.5 277.907 255.396C277.91 247.63 277.918 239.863 277.928 232.097C277.939 223.253 277.945 214.409 277.95 205.565C277.96 187.376 277.978 169.188 278 151Z" fill="#FEFEFE"/>
<path d="M515 186C522.074 185.938 529.149 185.876 536.438 185.812C539.76 185.771 539.76 185.771 543.15 185.729C544.932 185.721 546.714 185.713 548.496 185.707C549.4 185.691 550.304 185.676 551.235 185.66C560.267 185.656 567.54 187.653 574.207 193.894C581.69 202.681 582.786 212.721 582.222 223.795C581.44 231.556 578.135 239.429 572.088 244.511C565.019 249.549 557.65 250.579 549.18 250.39C548.305 250.386 547.431 250.382 546.53 250.378C543.311 250.357 540.093 250.302 536.875 250.25C529.656 250.167 522.438 250.085 515 250C515 228.88 515 207.76 515 186Z" fill="#7D898F"/>
</g>
<defs>
<clipPath id="clip0_3483_199">
<rect width="1094" height="1285" fill="white" transform="translate(128)"/>
</clipPath>
</defs>
</svg>
