<svg width="32" height="32" viewBox="0 0 32 32" fill="none" xmlns="http://www.w3.org/2000/svg">
<mask id="mask0_1664_14" style="mask-type:alpha" maskUnits="userSpaceOnUse" x="0" y="0" width="32" height="32">
<circle cx="16" cy="16" r="16" fill="#FBA7FF"/>
</mask>
<g mask="url(#mask0_1664_14)">
<circle cx="16" cy="16" r="16" fill="#4E6FFF"/>
<circle cx="16" cy="16" r="16" fill="#4E6FFF"/>
<path d="M16.4683 23.9183C14.1456 23.9183 12.1106 22.3577 11.0054 20.0359H18.315V16.8183H10.1559C10.1355 16.558 10.1246 16.2973 10.1246 16.0311C10.1246 15.7673 10.1355 15.5033 10.1559 15.2466H18.3152V12.0283H11.0055C12.1107 9.70675 14.1456 8.14666 16.4684 8.14666C18.6885 8.14666 20.779 9.63021 21.9237 12.0167L24.8322 10.6289C23.1462 7.11155 19.9415 4.92798 16.4683 4.92798C13.8573 4.92798 11.4203 6.11896 9.60612 8.28444C8.69367 9.3738 7.99651 10.6449 7.53817 12.0283H4.03223V15.2465H6.92384C6.9083 15.505 6.90029 15.769 6.90029 16.031C6.90029 16.2957 6.9083 16.5563 6.92384 16.8182H4.03223V20.0359H7.53817C7.99651 21.4191 8.69367 22.6888 9.60619 23.7772C11.4204 25.9428 13.8574 27.136 16.4684 27.136C19.9417 27.136 23.1462 24.9527 24.8322 21.4354L21.9237 20.0451C20.7789 22.4346 18.6884 23.9183 16.4683 23.9183Z" fill="black"/>
</g>
</svg>
