<?xml version="1.0" encoding="UTF-8"?>
<!DOCTYPE svg PUBLIC "-//W3C//DTD SVG 1.1//EN" "http://www.w3.org/Graphics/SVG/1.1/DTD/svg11.dtd">
<svg xmlns="http://www.w3.org/2000/svg" version="1.1" width="200px" height="200px" style="shape-rendering:geometricPrecision; text-rendering:geometricPrecision; image-rendering:optimizeQuality; fill-rule:evenodd; clip-rule:evenodd" xmlns:xlink="http://www.w3.org/1999/xlink">
<g><path style="opacity:1" fill="#f2f2f2" d="M -0.5,-0.5 C 28.8333,-0.5 58.1667,-0.5 87.5,-0.5C 75.0068,1.10878 63.3402,5.10878 52.5,11.5C 49.4111,12.7389 46.4111,14.2389 43.5,16C 39.2406,19.2818 35.2406,22.7818 31.5,26.5C 19.1036,36.944 10.437,49.944 5.5,65.5C 3.09464,71.7156 1.09464,78.0489 -0.5,84.5C -0.5,56.1667 -0.5,27.8333 -0.5,-0.5 Z"/></g>
<g><path style="opacity:1" fill="#bdbcbb" d="M 87.5,-0.5 C 96.1667,-0.5 104.833,-0.5 113.5,-0.5C 123.795,1.63186 133.795,4.96519 143.5,9.5C 142.77,10.7124 141.77,11.7124 140.5,12.5C 145.366,15.8642 150.366,19.0309 155.5,22C 158.474,23.5057 158.807,25.1724 156.5,27C 157.965,28.7742 159.298,30.6075 160.5,32.5C 158.119,33.8303 155.786,33.6636 153.5,32C 155.992,30.7508 155.825,29.5842 153,28.5C 152.802,26.6183 152.302,24.9516 151.5,23.5C 148.055,20.8132 144.388,18.3132 140.5,16C 129.709,11.424 118.709,7.75738 107.5,5C 95.7133,4.19741 84.7133,6.69741 74.5,12.5C 73.7065,12.0688 72.8732,11.7355 72,11.5C 68.9884,12.8398 65.9884,14.1731 63,15.5C 62.2797,13.8876 62.4464,12.3876 63.5,11C 62.5838,10.6258 61.7504,10.1258 61,9.5C 58.3339,9.75244 55.5006,10.4191 52.5,11.5C 63.3402,5.10878 75.0068,1.10878 87.5,-0.5 Z"/></g>
<g><path style="opacity:1" fill="#f2f2f2" d="M 113.5,-0.5 C 142.167,-0.5 170.833,-0.5 199.5,-0.5C 199.5,30.1667 199.5,60.8333 199.5,91.5C 195.248,54.3305 176.581,26.9972 143.5,9.5C 133.795,4.96519 123.795,1.63186 113.5,-0.5 Z"/></g>
<g><path style="opacity:1" fill="#b6b5b4" d="M 151.5,23.5 C 147.102,32.3968 149.769,37.5635 159.5,39C 154.203,40.1342 154.203,40.9675 159.5,41.5C 159.5,42.8333 159.5,44.1667 159.5,45.5C 160.978,45.238 162.311,45.5713 163.5,46.5C 164.347,49.5539 165.347,52.5539 166.5,55.5C 170.817,57.3119 172.483,60.6452 171.5,65.5C 168.421,65.2601 165.421,65.5934 162.5,66.5C 161.3,65.4688 159.966,64.6355 158.5,64C 159.5,63.6667 160.5,63.3333 161.5,63C 158.5,60 155.5,57 152.5,54C 150.866,53.5065 149.199,53.3398 147.5,53.5C 144.408,51.901 142.075,49.401 140.5,46C 139.034,45.3645 137.7,44.5312 136.5,43.5C 133.521,44.3563 132.188,43.0229 132.5,39.5C 133.552,39.6495 134.552,39.4828 135.5,39C 132.666,38.9546 130.166,38.1213 128,36.5C 127.667,36.8333 127.333,37.1667 127,37.5C 125.859,35.3911 124.359,33.5578 122.5,32C 122.833,31.6667 123.167,31.3333 123.5,31C 119.49,29.6572 115.99,27.4905 113,24.5C 112.617,25.056 112.117,25.3893 111.5,25.5C 111.082,24.7784 110.416,24.2784 109.5,24C 103.76,23.7924 98.0929,23.6257 92.5,23.5C 89.8338,25.8353 86.8338,27.6686 83.5,29C 81.8757,30.1171 80.8757,31.6171 80.5,33.5C 81.3958,35.8006 81.5625,38.1339 81,40.5C 78.7104,42.7681 77.0438,45.4348 76,48.5C 75.6667,48.1667 75.3333,47.8333 75,47.5C 73.3732,48.5323 72.2066,49.8656 71.5,51.5C 67.658,51.2391 63.9913,51.9058 60.5,53.5C 59.914,53.2907 59.414,52.9574 59,52.5C 56.6556,54.2847 54.1556,55.618 51.5,56.5C 50.8732,60.4603 48.5399,62.7936 44.5,63.5C 44.4211,65.6663 43.7545,67.6663 42.5,69.5C 43.0431,70.8638 43.2098,72.1971 43,73.5C 37.9387,77.473 33.4387,81.973 29.5,87C 26.8976,87.8834 24.7309,89.3834 23,91.5C 21.8436,95.4183 21.3436,99.4183 21.5,103.5C 20.5,103.5 19.5,103.5 18.5,103.5C 18.7771,106.448 18.4438,109.281 17.5,112C 18.6582,113.009 19.3248,114.342 19.5,116C 18.1131,121.156 16.7798,126.323 15.5,131.5C 17.728,136.281 19.0614,141.281 19.5,146.5C 19.5,147.167 19.5,147.833 19.5,148.5C 17.6214,148.607 17.2881,148.107 18.5,147C 17.536,145.275 16.8693,143.441 16.5,141.5C 13.7745,137.216 11.4412,132.716 9.5,128C 13.3538,126.172 14.0205,123.672 11.5,120.5C 12.6651,119.416 13.9984,118.583 15.5,118C 12.2029,116.503 8.86961,115.003 5.5,113.5C 4.83333,113.833 4.16667,114.167 3.5,114.5C 4.68081,116.803 4.68081,119.137 3.5,121.5C 4.22547,122.867 4.89213,124.2 5.5,125.5C 4.91823,127.669 4.91823,130.002 5.5,132.5C 2.58491,125.757 0.584911,118.757 -0.5,111.5C -0.5,102.5 -0.5,93.5 -0.5,84.5C 1.09464,78.0489 3.09464,71.7156 5.5,65.5C 5.43456,65.9382 5.60123,66.2716 6,66.5C 8.51344,65.152 10.3468,63.152 11.5,60.5C 18.1434,57.6234 24.8101,55.79 31.5,55C 29.1088,54.3086 29.1088,53.3086 31.5,52C 36.0586,52.0809 39.8919,50.5809 43,47.5C 43.5194,48.5156 44.3527,49.1822 45.5,49.5C 47.8838,48.9876 50.2172,48.3209 52.5,47.5C 56.1898,47.8564 59.8565,47.8564 63.5,47.5C 65.2012,47.0338 66.7012,47.0338 68,47.5C 69.8333,46 71.6667,44.5 73.5,43C 71.326,40.6481 68.6593,39.4814 65.5,39.5C 65.1667,36.8333 64.8333,34.1667 64.5,31.5C 66.5914,31.3184 68.5914,31.6518 70.5,32.5C 74.4629,29.6096 78.2962,26.6096 82,23.5C 84.868,24.3097 87.368,23.4764 89.5,21C 95.6953,20.9009 101.695,20.0676 107.5,18.5C 112.843,19.1679 118.177,19.8346 123.5,20.5C 123.5,21.5 123.5,22.5 123.5,23.5C 130.08,24.1236 136.747,24.1236 143.5,23.5C 143.5,22.5 143.5,21.5 143.5,20.5C 138.203,19.7255 132.87,19.3921 127.5,19.5C 127.5,18.1667 127.5,16.8333 127.5,15.5C 125.167,15.5 122.833,15.5 120.5,15.5C 120.859,13.2341 120.192,11.4007 118.5,10C 112.643,9.72071 106.809,9.22071 101,8.5C 93.0727,10.6485 85.0727,12.6485 77,14.5C 72.4955,14.8494 68.6622,17.0161 65.5,21C 63.1093,21.2868 60.7759,21.7868 58.5,22.5C 56.8437,20.9776 55.677,21.311 55,23.5C 54.5814,22.3279 53.9147,21.3279 53,20.5C 50.0567,19.228 47.2234,19.228 44.5,20.5C 43.0474,21.8249 43.3808,22.6582 45.5,23C 41.5114,22.8928 38.0114,24.0595 35,26.5C 33.8525,25.5419 32.8525,25.8753 32,27.5C 31.6012,27.2716 31.4346,26.9382 31.5,26.5C 35.2406,22.7818 39.2406,19.2818 43.5,16C 46.4111,14.2389 49.4111,12.7389 52.5,11.5C 55.5006,10.4191 58.3339,9.75244 61,9.5C 61.7504,10.1258 62.5838,10.6258 63.5,11C 62.4464,12.3876 62.2797,13.8876 63,15.5C 65.9884,14.1731 68.9884,12.8398 72,11.5C 72.8732,11.7355 73.7065,12.0688 74.5,12.5C 84.7133,6.69741 95.7133,4.19741 107.5,5C 118.709,7.75738 129.709,11.424 140.5,16C 144.388,18.3132 148.055,20.8132 151.5,23.5 Z"/></g>
<g><path style="opacity:1" fill="#b4b4af" d="M 63.5,47.5 C 64.347,46.0337 65.6803,45.2004 67.5,45C 66.9322,43.3483 65.5989,41.6816 63.5,40C 63.9574,39.586 64.2907,39.086 64.5,38.5C 61.7399,35.9378 58.7399,34.6045 55.5,34.5C 57.5202,32.4006 57.8535,30.0673 56.5,27.5C 53.8302,25.5783 50.8302,24.4116 47.5,24C 48.5,23.6667 49.5,23.3333 50.5,23C 48.6301,21.8652 46.6301,21.0319 44.5,20.5C 47.2234,19.228 50.0567,19.228 53,20.5C 53.9147,21.3279 54.5814,22.3279 55,23.5C 55.677,21.311 56.8437,20.9776 58.5,22.5C 60.7759,21.7868 63.1093,21.2868 65.5,21C 68.6622,17.0161 72.4955,14.8494 77,14.5C 85.0727,12.6485 93.0727,10.6485 101,8.5C 106.809,9.22071 112.643,9.72071 118.5,10C 120.192,11.4007 120.859,13.2341 120.5,15.5C 122.833,15.5 125.167,15.5 127.5,15.5C 127.5,16.8333 127.5,18.1667 127.5,19.5C 132.87,19.3921 138.203,19.7255 143.5,20.5C 143.5,21.5 143.5,22.5 143.5,23.5C 136.747,24.1236 130.08,24.1236 123.5,23.5C 123.5,22.5 123.5,21.5 123.5,20.5C 118.177,19.8346 112.843,19.1679 107.5,18.5C 101.695,20.0676 95.6953,20.9009 89.5,21C 87.368,23.4764 84.868,24.3097 82,23.5C 78.2962,26.6096 74.4629,29.6096 70.5,32.5C 68.5914,31.6518 66.5914,31.3184 64.5,31.5C 64.8333,34.1667 65.1667,36.8333 65.5,39.5C 68.6593,39.4814 71.326,40.6481 73.5,43C 71.6667,44.5 69.8333,46 68,47.5C 66.7012,47.0338 65.2012,47.0338 63.5,47.5 Z"/></g>
<g><path style="opacity:1" fill="#babbb4" d="M 111.5,25.5 C 101.783,24.1867 92.7825,25.8533 84.5,30.5C 84.1667,31 83.8333,31.5 83.5,32C 86.2767,38.0136 85.1101,43.1803 80,47.5C 79.6667,47.1667 79.3333,46.8333 79,46.5C 77.6744,50.4994 75.1744,52.1661 71.5,51.5C 72.2066,49.8656 73.3732,48.5323 75,47.5C 75.3333,47.8333 75.6667,48.1667 76,48.5C 77.0438,45.4348 78.7104,42.7681 81,40.5C 81.5625,38.1339 81.3958,35.8006 80.5,33.5C 80.8757,31.6171 81.8757,30.1171 83.5,29C 86.8338,27.6686 89.8338,25.8353 92.5,23.5C 98.0929,23.6257 103.76,23.7924 109.5,24C 110.416,24.2784 111.082,24.7784 111.5,25.5 Z"/></g>
<g><path style="opacity:1" fill="#babbb4" d="M 151.5,23.5 C 152.302,24.9516 152.802,26.6183 153,28.5C 155.825,29.5842 155.992,30.7508 153.5,32C 155.786,33.6636 158.119,33.8303 160.5,32.5C 161.167,32.5 161.5,32.8333 161.5,33.5C 161.953,34.4584 162.619,35.2917 163.5,36C 162.833,36.3333 162.167,36.6667 161.5,37C 165.51,40.8446 169.177,45.0113 172.5,49.5C 173.615,51.7325 173.615,53.8992 172.5,56C 174.5,57 176.5,58 178.5,59C 177.5,59.3333 176.5,59.6667 175.5,60C 178.458,60.2293 180.958,61.396 183,63.5C 182.617,69.2002 179.95,70.5335 175,67.5C 173.739,67.7591 172.739,68.4258 172,69.5C 171.517,68.552 171.351,67.552 171.5,66.5C 169.226,66.7151 167.059,67.3818 165,68.5C 159.088,66.6019 154.255,63.1019 150.5,58C 149.552,57.5172 148.552,57.3505 147.5,57.5C 147.5,56.1667 147.5,54.8333 147.5,53.5C 149.199,53.3398 150.866,53.5065 152.5,54C 155.5,57 158.5,60 161.5,63C 160.5,63.3333 159.5,63.6667 158.5,64C 159.966,64.6355 161.3,65.4688 162.5,66.5C 165.421,65.5934 168.421,65.2601 171.5,65.5C 172.483,60.6452 170.817,57.3119 166.5,55.5C 165.347,52.5539 164.347,49.5539 163.5,46.5C 162.311,45.5713 160.978,45.238 159.5,45.5C 159.5,44.1667 159.5,42.8333 159.5,41.5C 154.203,40.9675 154.203,40.1342 159.5,39C 149.769,37.5635 147.102,32.3968 151.5,23.5 Z"/></g>
<g><path style="opacity:1" fill="#afaeae" d="M 44.5,20.5 C 46.6301,21.0319 48.6301,21.8652 50.5,23C 49.5,23.3333 48.5,23.6667 47.5,24C 50.8302,24.4116 53.8302,25.5783 56.5,27.5C 57.8535,30.0673 57.5202,32.4006 55.5,34.5C 58.7399,34.6045 61.7399,35.9378 64.5,38.5C 64.2907,39.086 63.9574,39.586 63.5,40C 65.5989,41.6816 66.9322,43.3483 67.5,45C 65.6803,45.2004 64.347,46.0337 63.5,47.5C 59.8565,47.8564 56.1898,47.8564 52.5,47.5C 50.2172,48.3209 47.8838,48.9876 45.5,49.5C 44.3527,49.1822 43.5194,48.5156 43,47.5C 39.8919,50.5809 36.0586,52.0809 31.5,52C 29.1088,53.3086 29.1088,54.3086 31.5,55C 24.8101,55.79 18.1434,57.6234 11.5,60.5C 10.3468,63.152 8.51344,65.152 6,66.5C 5.60123,66.2716 5.43456,65.9382 5.5,65.5C 10.437,49.944 19.1036,36.944 31.5,26.5C 31.4346,26.9382 31.6012,27.2716 32,27.5C 32.8525,25.8753 33.8525,25.5419 35,26.5C 38.0114,24.0595 41.5114,22.8928 45.5,23C 43.3808,22.6582 43.0474,21.8249 44.5,20.5 Z"/></g>
<g><path style="opacity:1" fill="#babbb4" d="M 147.5,53.5 C 144.226,53.3647 141.226,52.3647 138.5,50.5C 133.349,45.5177 128.015,40.6844 122.5,36C 119.616,31.6142 115.949,28.1142 111.5,25.5C 112.117,25.3893 112.617,25.056 113,24.5C 115.99,27.4905 119.49,29.6572 123.5,31C 123.167,31.3333 122.833,31.6667 122.5,32C 124.359,33.5578 125.859,35.3911 127,37.5C 127.333,37.1667 127.667,36.8333 128,36.5C 130.166,38.1213 132.666,38.9546 135.5,39C 134.552,39.4828 133.552,39.6495 132.5,39.5C 132.188,43.0229 133.521,44.3563 136.5,43.5C 137.7,44.5312 139.034,45.3645 140.5,46C 142.075,49.401 144.408,51.901 147.5,53.5 Z"/></g>
<g><path style="opacity:1" fill="#c3c1c0" d="M 143.5,9.5 C 176.581,26.9972 195.248,54.3305 199.5,91.5C 199.5,97.1667 199.5,102.833 199.5,108.5C 198.833,110.833 198.167,113.167 197.5,115.5C 194.86,116.037 194.86,115.203 197.5,113C 193.852,110.261 190.186,110.095 186.5,112.5C 188.287,113.316 189.954,114.316 191.5,115.5C 189.468,118.183 186.801,119.849 183.5,120.5C 184.265,122.295 184.932,124.128 185.5,126C 184.031,129.213 183.031,132.547 182.5,136C 182.868,138.033 182.868,140.2 182.5,142.5C 183.32,144.111 184.654,144.778 186.5,144.5C 186.044,140.889 186.711,137.556 188.5,134.5C 187.448,132.89 187.448,131.223 188.5,129.5C 188.081,128.328 187.415,127.328 186.5,126.5C 187.914,125.376 189.414,124.376 191,123.5C 191.333,124.167 191.667,124.833 192,125.5C 194.056,124.417 195.389,122.75 196,120.5C 196.399,120.728 196.565,121.062 196.5,121.5C 194.29,132.816 189.957,143.149 183.5,152.5C 184.178,150.142 184.512,147.975 184.5,146C 182.934,145.7 181.601,146.2 180.5,147.5C 181.317,140.1 181.317,132.767 180.5,125.5C 181.328,122.521 181.995,119.521 182.5,116.5C 178.839,116.574 178.172,115.574 180.5,113.5C 177.403,111.483 175.403,108.65 174.5,105C 177.73,103.276 178.064,101.276 175.5,99C 176.5,98.6667 177.5,98.3333 178.5,98C 174.836,97.0829 171.67,95.2496 169,92.5C 168.505,90.5273 168.338,88.5273 168.5,86.5C 167.448,86.6495 166.448,86.4828 165.5,86C 167.5,85 169.5,84 171.5,83C 170.572,82.6121 169.905,81.9454 169.5,81C 170.444,79.5232 171.777,78.5232 173.5,78C 173.167,77.6667 172.833,77.3333 172.5,77C 166.977,74.8417 160.644,73.0084 153.5,71.5C 150.62,68.7791 148.286,65.6124 146.5,62C 139.895,57.5876 133.561,53.5876 127.5,50C 124.044,49.8198 120.711,49.1532 117.5,48C 118.308,47.6924 118.975,47.1924 119.5,46.5C 118.066,45.7702 116.9,44.7702 116,43.5C 114.333,43.5 112.667,43.5 111,43.5C 110.348,41.2769 108.848,40.1102 106.5,40C 109.167,39.3333 109.167,38.6667 106.5,38C 106.833,37.6667 107.167,37.3333 107.5,37C 105.374,36.1016 103.374,34.935 101.5,33.5C 99.7869,33.8793 98.7869,34.8793 98.5,36.5C 94.7946,42.7143 90.1279,48.2143 84.5,53C 74.9977,58.9189 65.331,64.5856 55.5,70C 45.4502,77.3748 37.6168,86.5414 32,97.5C 28.8334,104.151 26.0001,110.817 23.5,117.5C 23.9613,114.68 23.9613,112.013 23.5,109.5C 26.5996,103.529 28.7663,97.1957 30,90.5C 36.1746,84.7891 42.3412,79.1224 48.5,73.5C 52.0626,65.531 56.896,59.1977 63,54.5C 66.2855,55.1085 69.7855,55.2751 73.5,55C 79.6601,51.127 84.8267,46.2937 89,40.5C 89.3333,38.8333 89.6667,37.1667 90,35.5C 92.4031,34.5206 93.2364,33.0206 92.5,31C 98.6212,28.5516 104.955,27.5516 111.5,28C 115.635,30.0721 117.968,33.0721 118.5,37C 120.025,38.0086 121.692,38.5086 123.5,38.5C 123.351,39.552 123.517,40.552 124,41.5C 126.167,43 128,44.8333 129.5,47C 134.363,49.1902 138.696,52.1902 142.5,56C 144.025,57.0086 145.692,57.5086 147.5,57.5C 150.68,61.2831 154.013,65.1164 157.5,69C 159.351,69.8372 161.184,70.6705 163,71.5C 171.834,71.6662 180.667,71.6662 189.5,71.5C 190.275,67.8184 188.941,65.3184 185.5,64C 185.957,63.586 186.291,63.086 186.5,62.5C 184.895,59.6862 183.895,56.6862 183.5,53.5C 182.022,53.762 180.689,53.4287 179.5,52.5C 180.248,50.5841 180.248,48.5841 179.5,46.5C 178.178,46.33 177.011,46.6634 176,47.5C 174.513,46.7471 174.346,45.9138 175.5,45C 172.833,44.3333 172.833,43.6667 175.5,43C 172.694,41.2172 170.194,39.0506 168,36.5C 167.667,36.8333 167.333,37.1667 167,37.5C 165.549,35.5359 163.716,34.2026 161.5,33.5C 161.5,32.8333 161.167,32.5 160.5,32.5C 159.298,30.6075 157.965,28.7742 156.5,27C 158.807,25.1724 158.474,23.5057 155.5,22C 150.366,19.0309 145.366,15.8642 140.5,12.5C 141.77,11.7124 142.77,10.7124 143.5,9.5 Z"/></g>
<g><path style="opacity:1" fill="#bcbbbb" d="M 161.5,33.5 C 163.716,34.2026 165.549,35.5359 167,37.5C 167.333,37.1667 167.667,36.8333 168,36.5C 170.194,39.0506 172.694,41.2172 175.5,43C 172.833,43.6667 172.833,44.3333 175.5,45C 174.346,45.9138 174.513,46.7471 176,47.5C 177.011,46.6634 178.178,46.33 179.5,46.5C 180.248,48.5841 180.248,50.5841 179.5,52.5C 180.689,53.4287 182.022,53.762 183.5,53.5C 183.895,56.6862 184.895,59.6862 186.5,62.5C 186.291,63.086 185.957,63.586 185.5,64C 188.941,65.3184 190.275,67.8184 189.5,71.5C 180.667,71.6662 171.834,71.6662 163,71.5C 161.184,70.6705 159.351,69.8372 157.5,69C 154.013,65.1164 150.68,61.2831 147.5,57.5C 148.552,57.3505 149.552,57.5172 150.5,58C 154.255,63.1019 159.088,66.6019 165,68.5C 167.059,67.3818 169.226,66.7151 171.5,66.5C 171.351,67.552 171.517,68.552 172,69.5C 172.739,68.4258 173.739,67.7591 175,67.5C 179.95,70.5335 182.617,69.2002 183,63.5C 180.958,61.396 178.458,60.2293 175.5,60C 176.5,59.6667 177.5,59.3333 178.5,59C 176.5,58 174.5,57 172.5,56C 173.615,53.8992 173.615,51.7325 172.5,49.5C 169.177,45.0113 165.51,40.8446 161.5,37C 162.167,36.6667 162.833,36.3333 163.5,36C 162.619,35.2917 161.953,34.4584 161.5,33.5 Z"/></g>
<g><path style="opacity:1" fill="#ededec" d="M 98.5,36.5 C 99.8734,36.3433 101.207,36.51 102.5,37C 104.278,40.7186 106.445,44.2186 109,47.5C 112.167,50 115.333,52.5 118.5,55C 128.831,60.4969 138.831,66.4969 148.5,73C 170.433,94.1298 180.767,119.963 179.5,150.5C 177.225,149.889 175.559,148.555 174.5,146.5C 170.993,140.148 166.993,134.148 162.5,128.5C 153.151,113.316 140.484,101.816 124.5,94C 122,93.5 119.5,93 117,92.5C 115.289,92.4393 113.956,93.1059 113,94.5C 111.803,97.0891 110.803,99.7558 110,102.5C 108.11,115.393 105.276,128.06 101.5,140.5C 101.5,141.5 101.5,142.5 101.5,143.5C 100.209,143.737 99.209,143.404 98.5,142.5C 98.7373,141.209 98.404,140.209 97.5,139.5C 97.1489,136.097 96.4822,132.763 95.5,129.5C 93.1614,118.478 90.6614,107.478 88,96.5C 87.0016,94.0786 85.1683,92.7453 82.5,92.5C 65.8172,97.5119 52.4838,107.179 42.5,121.5C 38.7859,125.883 35.4525,130.55 32.5,135.5C 29.0843,139.323 26.4176,143.657 24.5,148.5C 23.4693,149.355 22.3026,150.022 21,150.5C 19.9701,150.164 19.4701,149.497 19.5,148.5C 19.5,147.833 19.5,147.167 19.5,146.5C 20.4416,136.905 21.7749,127.238 23.5,117.5C 26.0001,110.817 28.8334,104.151 32,97.5C 37.6168,86.5414 45.4502,77.3748 55.5,70C 65.331,64.5856 74.9977,58.9189 84.5,53C 90.1279,48.2143 94.7946,42.7143 98.5,36.5 Z"/></g>
<g><path style="opacity:1" fill="#f2f2f2" d="M 90.5,59.5 C 96.0931,60.5186 96.4265,61.6853 91.5,63C 93.1341,63.4935 94.8008,63.6602 96.5,63.5C 97.1667,58.1667 97.8333,58.1667 98.5,63.5C 101.5,63.5 104.5,63.5 107.5,63.5C 107.238,62.0222 107.571,60.6888 108.5,59.5C 109.48,62.0865 109.813,64.7531 109.5,67.5C 107.5,67.5 105.5,67.5 103.5,67.5C 103.5,70.1667 103.5,72.8333 103.5,75.5C 96.4096,74.4082 89.4096,73.0748 82.5,71.5C 81.8333,72.8333 81.1667,74.1667 80.5,75.5C 79.1585,73.9951 77.4918,73.3285 75.5,73.5C 75.5,71.5 75.5,69.5 75.5,67.5C 74.1667,67.5 72.8333,67.5 71.5,67.5C 71.2865,65.8561 71.6198,64.3561 72.5,63C 77.4836,63.6603 82.4836,63.4936 87.5,62.5C 88.7701,61.7124 89.7701,60.7124 90.5,59.5 Z"/></g>
<g><path style="opacity:1" fill="#cac9c6" d="M 180.5,147.5 C 180.737,148.791 180.404,149.791 179.5,150.5C 180.767,119.963 170.433,94.1298 148.5,73C 138.831,66.4969 128.831,60.4969 118.5,55C 115.333,52.5 112.167,50 109,47.5C 106.445,44.2186 104.278,40.7186 102.5,37C 101.207,36.51 99.8734,36.3433 98.5,36.5C 98.7869,34.8793 99.7869,33.8793 101.5,33.5C 103.374,34.935 105.374,36.1016 107.5,37C 107.167,37.3333 106.833,37.6667 106.5,38C 109.167,38.6667 109.167,39.3333 106.5,40C 108.848,40.1102 110.348,41.2769 111,43.5C 112.667,43.5 114.333,43.5 116,43.5C 116.9,44.7702 118.066,45.7702 119.5,46.5C 118.975,47.1924 118.308,47.6924 117.5,48C 120.711,49.1532 124.044,49.8198 127.5,50C 133.561,53.5876 139.895,57.5876 146.5,62C 148.286,65.6124 150.62,68.7791 153.5,71.5C 160.644,73.0084 166.977,74.8417 172.5,77C 172.833,77.3333 173.167,77.6667 173.5,78C 171.777,78.5232 170.444,79.5232 169.5,81C 169.905,81.9454 170.572,82.6121 171.5,83C 169.5,84 167.5,85 165.5,86C 166.448,86.4828 167.448,86.6495 168.5,86.5C 168.338,88.5273 168.505,90.5273 169,92.5C 171.67,95.2496 174.836,97.0829 178.5,98C 177.5,98.3333 176.5,98.6667 175.5,99C 178.064,101.276 177.73,103.276 174.5,105C 175.403,108.65 177.403,111.483 180.5,113.5C 178.172,115.574 178.839,116.574 182.5,116.5C 181.995,119.521 181.328,122.521 180.5,125.5C 181.317,132.767 181.317,140.1 180.5,147.5 Z"/></g>
<g><path style="opacity:1" fill="#c1c0bb" d="M 174.5,87.5 C 179.243,90.6317 184.577,92.1317 190.5,92C 191.815,93.3946 191.481,94.3946 189.5,95C 191.256,95.2022 192.922,95.7022 194.5,96.5C 193.115,97.5505 192.115,98.8839 191.5,100.5C 193.289,102.033 195.289,103.033 197.5,103.5C 197.657,104.873 197.49,106.207 197,107.5C 196.667,106.833 196.333,106.167 196,105.5C 191.776,106.969 187.443,108.302 183,109.5C 182.02,108.019 180.853,106.685 179.5,105.5C 180.729,104.719 182.062,104.219 183.5,104C 182.359,103.259 182.359,102.425 183.5,101.5C 185.135,100.319 186.802,100.319 188.5,101.5C 190.488,100.711 190.821,99.5445 189.5,98C 186.086,97.7031 182.753,97.0365 179.5,96C 182.167,95.6667 184.833,95.3333 187.5,95C 183.344,94.8155 179.344,93.9821 175.5,92.5C 174.691,90.9291 174.357,89.2624 174.5,87.5 Z"/></g>
<g><path style="opacity:1" fill="#bcbbba" d="M 111.5,25.5 C 115.949,28.1142 119.616,31.6142 122.5,36C 128.015,40.6844 133.349,45.5177 138.5,50.5C 141.226,52.3647 144.226,53.3647 147.5,53.5C 147.5,54.8333 147.5,56.1667 147.5,57.5C 145.692,57.5086 144.025,57.0086 142.5,56C 138.696,52.1902 134.363,49.1902 129.5,47C 128,44.8333 126.167,43 124,41.5C 123.517,40.552 123.351,39.552 123.5,38.5C 121.692,38.5086 120.025,38.0086 118.5,37C 117.968,33.0721 115.635,30.0721 111.5,28C 104.955,27.5516 98.6212,28.5516 92.5,31C 93.2364,33.0206 92.4031,34.5206 90,35.5C 89.6667,37.1667 89.3333,38.8333 89,40.5C 84.8267,46.2937 79.6601,51.127 73.5,55C 69.7855,55.2751 66.2855,55.1085 63,54.5C 56.896,59.1977 52.0626,65.531 48.5,73.5C 42.3412,79.1224 36.1746,84.7891 30,90.5C 28.7663,97.1957 26.5996,103.529 23.5,109.5C 23.9613,112.013 23.9613,114.68 23.5,117.5C 21.7749,127.238 20.4416,136.905 19.5,146.5C 19.0614,141.281 17.728,136.281 15.5,131.5C 16.7798,126.323 18.1131,121.156 19.5,116C 19.3248,114.342 18.6582,113.009 17.5,112C 18.4438,109.281 18.7771,106.448 18.5,103.5C 19.5,103.5 20.5,103.5 21.5,103.5C 21.3436,99.4183 21.8436,95.4183 23,91.5C 24.7309,89.3834 26.8976,87.8834 29.5,87C 33.4387,81.973 37.9387,77.473 43,73.5C 43.2098,72.1971 43.0431,70.8638 42.5,69.5C 43.7545,67.6663 44.4211,65.6663 44.5,63.5C 48.5399,62.7936 50.8732,60.4603 51.5,56.5C 54.1556,55.618 56.6556,54.2847 59,52.5C 59.414,52.9574 59.914,53.2907 60.5,53.5C 63.9913,51.9058 67.658,51.2391 71.5,51.5C 75.1744,52.1661 77.6744,50.4994 79,46.5C 79.3333,46.8333 79.6667,47.1667 80,47.5C 85.1101,43.1803 86.2767,38.0136 83.5,32C 83.8333,31.5 84.1667,31 84.5,30.5C 92.7825,25.8533 101.783,24.1867 111.5,25.5 Z"/></g>
<g><path style="opacity:1" fill="#cac9c7" d="M 162.5,128.5 C 160.192,129.037 157.859,128.537 155.5,127C 155.833,126.667 156.167,126.333 156.5,126C 153.57,123.349 150.736,120.516 148,117.5C 147.667,118.167 147.333,118.833 147,119.5C 143.499,117.015 143.665,114.848 147.5,113C 144.063,111.895 141.563,109.728 140,106.5C 138.612,107.554 137.112,107.72 135.5,107C 135.833,106.667 136.167,106.333 136.5,106C 133.888,105.361 131.554,104.194 129.5,102.5C 124.162,103.072 118.829,103.739 113.5,104.5C 112.99,107.23 111.656,109.397 109.5,111C 110.167,111.333 110.833,111.667 111.5,112C 111.716,118.518 109.716,124.518 105.5,130C 106.056,130.383 106.389,130.883 106.5,131.5C 105.884,132.798 105.884,133.798 106.5,134.5C 106.5,134.833 106.5,135.167 106.5,135.5C 104.124,136.206 102.79,137.873 102.5,140.5C 102.167,140.5 101.833,140.5 101.5,140.5C 105.276,128.06 108.11,115.393 110,102.5C 110.803,99.7558 111.803,97.0891 113,94.5C 113.956,93.1059 115.289,92.4393 117,92.5C 119.5,93 122,93.5 124.5,94C 140.484,101.816 153.151,113.316 162.5,128.5 Z"/></g>
<g><path style="opacity:1" fill="#cac9c7" d="M 95.5,129.5 C 94.2101,128.942 93.3768,127.942 93,126.5C 91.3335,127.34 91.1669,126.84 92.5,125C 90.5574,122.514 88.8907,120.014 87.5,117.5C 88.2423,113.529 86.909,110.696 83.5,109C 84.6023,106.599 84.769,104.099 84,101.5C 78.9815,98.8368 73.9815,98.8368 69,101.5C 68.228,101.355 67.5613,101.022 67,100.5C 63.5981,103.493 60.0981,106.326 56.5,109C 55.7476,109.671 55.4142,110.504 55.5,111.5C 52.4567,113.176 50.1233,115.509 48.5,118.5C 46.2475,118.916 44.7475,120.249 44,122.5C 43.6174,121.944 43.1174,121.611 42.5,121.5C 52.4838,107.179 65.8172,97.5119 82.5,92.5C 85.1683,92.7453 87.0016,94.0786 88,96.5C 90.6614,107.478 93.1614,118.478 95.5,129.5 Z"/></g>
<g><path style="opacity:1" fill="#c8c1c0" d="M 87.5,117.5 C 85.0206,116.026 82.3539,115.026 79.5,114.5C 80.3383,109.658 78.3383,106.991 73.5,106.5C 67.0055,106.716 61.0055,108.382 55.5,111.5C 55.4142,110.504 55.7476,109.671 56.5,109C 60.0981,106.326 63.5981,103.493 67,100.5C 67.5613,101.022 68.228,101.355 69,101.5C 73.9815,98.8368 78.9815,98.8368 84,101.5C 84.769,104.099 84.6023,106.599 83.5,109C 86.909,110.696 88.2423,113.529 87.5,117.5 Z"/></g>
<g><path style="opacity:1" fill="#c3c0c0" d="M 162.5,128.5 C 166.993,134.148 170.993,140.148 174.5,146.5C 173.175,145.047 172.342,145.381 172,147.5C 169.002,143.265 165.502,139.432 161.5,136C 162.624,135.751 163.624,135.251 164.5,134.5C 164.333,134.167 164.167,133.833 164,133.5C 161.443,134.646 160.11,133.646 160,130.5C 159.577,131.956 158.744,132.456 157.5,132C 152.959,127.014 148.292,122.181 143.5,117.5C 140.893,116.682 138.226,116.182 135.5,116C 136.308,115.692 136.975,115.192 137.5,114.5C 135.314,113.779 133.147,113.113 131,112.5C 128.135,114.515 124.968,115.848 121.5,116.5C 119.399,116.368 117.899,115.368 117,113.5C 116.411,115.863 114.911,116.863 112.5,116.5C 113.167,118.819 113.334,121.153 113,123.5C 110.515,126.093 108.348,128.76 106.5,131.5C 106.389,130.883 106.056,130.383 105.5,130C 109.716,124.518 111.716,118.518 111.5,112C 110.833,111.667 110.167,111.333 109.5,111C 111.656,109.397 112.99,107.23 113.5,104.5C 118.829,103.739 124.162,103.072 129.5,102.5C 131.554,104.194 133.888,105.361 136.5,106C 136.167,106.333 135.833,106.667 135.5,107C 137.112,107.72 138.612,107.554 140,106.5C 141.563,109.728 144.063,111.895 147.5,113C 143.665,114.848 143.499,117.015 147,119.5C 147.333,118.833 147.667,118.167 148,117.5C 150.736,120.516 153.57,123.349 156.5,126C 156.167,126.333 155.833,126.667 155.5,127C 157.859,128.537 160.192,129.037 162.5,128.5 Z"/></g>
<g><path style="opacity:1" fill="#c3c1bb" d="M 87.5,117.5 C 88.8907,120.014 90.5574,122.514 92.5,125C 91.1669,126.84 91.3335,127.34 93,126.5C 93.3768,127.942 94.2101,128.942 95.5,129.5C 96.4822,132.763 97.1489,136.097 97.5,139.5C 96.596,138.791 96.2627,137.791 96.5,136.5C 95.5,136.5 94.5,136.5 93.5,136.5C 92.9553,134.407 92.122,132.407 91,130.5C 89.9887,131.337 88.8221,131.67 87.5,131.5C 87.5,130.5 87.5,129.5 87.5,128.5C 85.5082,128.672 83.8415,128.005 82.5,126.5C 81.1965,123.957 80.1965,121.29 79.5,118.5C 76.8333,116.5 74.5,114.167 72.5,111.5C 68.244,111.936 63.9107,111.936 59.5,111.5C 59.6495,112.552 59.4828,113.552 59,114.5C 57.9505,113.483 56.7839,113.316 55.5,114C 53.1101,115.521 50.7768,117.021 48.5,118.5C 50.1233,115.509 52.4567,113.176 55.5,111.5C 61.0055,108.382 67.0055,106.716 73.5,106.5C 78.3383,106.991 80.3383,109.658 79.5,114.5C 82.3539,115.026 85.0206,116.026 87.5,117.5 Z"/></g>
<g><path style="opacity:1" fill="#bfbbba" d="M 93.5,136.5 C 89.3587,134.464 85.0254,132.797 80.5,131.5C 78.8678,128.186 77.2011,124.853 75.5,121.5C 75.7093,120.914 76.0426,120.414 76.5,120C 73.059,120.051 70.2256,118.885 68,116.5C 65.3266,117.334 62.9933,118.667 61,120.5C 59.2342,119.498 57.5675,119.832 56,121.5C 53.9361,120.409 51.7695,120.242 49.5,121C 48.244,121.417 47.5774,122.25 47.5,123.5C 44.0863,126.089 41.5863,129.423 40,133.5C 39.6667,132.833 39.3333,132.167 39,131.5C 38.6667,132.833 38.3333,134.167 38,135.5C 35.7104,136.238 33.877,136.238 32.5,135.5C 35.4525,130.55 38.7859,125.883 42.5,121.5C 43.1174,121.611 43.6174,121.944 44,122.5C 44.7475,120.249 46.2475,118.916 48.5,118.5C 50.7768,117.021 53.1101,115.521 55.5,114C 56.7839,113.316 57.9505,113.483 59,114.5C 59.4828,113.552 59.6495,112.552 59.5,111.5C 63.9107,111.936 68.244,111.936 72.5,111.5C 74.5,114.167 76.8333,116.5 79.5,118.5C 80.1965,121.29 81.1965,123.957 82.5,126.5C 83.8415,128.005 85.5082,128.672 87.5,128.5C 87.5,129.5 87.5,130.5 87.5,131.5C 88.8221,131.67 89.9887,131.337 91,130.5C 92.122,132.407 92.9553,134.407 93.5,136.5 Z"/></g>
<g><path style="opacity:1" fill="#c3c1bb" d="M 197.5,115.5 C 197.795,117.735 197.461,119.735 196.5,121.5C 196.565,121.062 196.399,120.728 196,120.5C 195.389,122.75 194.056,124.417 192,125.5C 191.667,124.833 191.333,124.167 191,123.5C 189.414,124.376 187.914,125.376 186.5,126.5C 187.415,127.328 188.081,128.328 188.5,129.5C 187.448,131.223 187.448,132.89 188.5,134.5C 186.711,137.556 186.044,140.889 186.5,144.5C 184.654,144.778 183.32,144.111 182.5,142.5C 182.868,140.2 182.868,138.033 182.5,136C 183.031,132.547 184.031,129.213 185.5,126C 184.932,124.128 184.265,122.295 183.5,120.5C 186.801,119.849 189.468,118.183 191.5,115.5C 189.954,114.316 188.287,113.316 186.5,112.5C 190.186,110.095 193.852,110.261 197.5,113C 194.86,115.203 194.86,116.037 197.5,115.5 Z"/></g>
<g><path style="opacity:1" fill="#b5b4af" d="M 16.5,141.5 C 15.5041,141.586 14.6708,141.252 14,140.5C 13,138.5 12,136.5 11,134.5C 10.6667,134.833 10.3333,135.167 10,135.5C 8.68844,133.045 7.52177,130.545 6.5,128C 7.566,126.841 7.23267,126.008 5.5,125.5C 4.89213,124.2 4.22547,122.867 3.5,121.5C 4.68081,119.137 4.68081,116.803 3.5,114.5C 4.16667,114.167 4.83333,113.833 5.5,113.5C 8.86961,115.003 12.2029,116.503 15.5,118C 13.9984,118.583 12.6651,119.416 11.5,120.5C 14.0205,123.672 13.3538,126.172 9.5,128C 11.4412,132.716 13.7745,137.216 16.5,141.5 Z"/></g>
<g><path style="opacity:1" fill="#c2c1bb" d="M 174.5,146.5 C 175.559,148.555 177.225,149.889 179.5,150.5C 180.404,149.791 180.737,148.791 180.5,147.5C 181.601,146.2 182.934,145.7 184.5,146C 184.512,147.975 184.178,150.142 183.5,152.5C 181.105,152.228 178.771,152.228 176.5,152.5C 175.808,151.975 175.308,151.308 175,150.5C 173.602,151.051 172.268,151.384 171,151.5C 170.71,149.956 170.044,148.623 169,147.5C 167.274,148.576 165.441,148.743 163.5,148C 164.5,147.667 165.5,147.333 166.5,147C 166.167,146.667 165.833,146.333 165.5,146C 162.289,144.847 158.956,144.18 155.5,144C 156.793,143.51 158.127,143.343 159.5,143.5C 159.5,142.5 159.5,141.5 159.5,140.5C 158.167,140.5 156.833,140.5 155.5,140.5C 155.52,138.857 154.853,137.524 153.5,136.5C 153.709,135.914 154.043,135.414 154.5,135C 152.5,133.667 150.833,132 149.5,130C 146.246,129.75 143.246,128.75 140.5,127C 141.566,125.841 141.233,125.008 139.5,124.5C 138.711,121.566 136.711,119.732 133.5,119C 131.331,118.571 129.331,119.071 127.5,120.5C 126.833,120.167 126.167,119.833 125.5,119.5C 122.216,124.392 117.883,128.059 112.5,130.5C 111.488,133.338 109.488,134.671 106.5,134.5C 105.884,133.798 105.884,132.798 106.5,131.5C 108.348,128.76 110.515,126.093 113,123.5C 113.334,121.153 113.167,118.819 112.5,116.5C 114.911,116.863 116.411,115.863 117,113.5C 117.899,115.368 119.399,116.368 121.5,116.5C 124.968,115.848 128.135,114.515 131,112.5C 133.147,113.113 135.314,113.779 137.5,114.5C 136.975,115.192 136.308,115.692 135.5,116C 138.226,116.182 140.893,116.682 143.5,117.5C 148.292,122.181 152.959,127.014 157.5,132C 158.744,132.456 159.577,131.956 160,130.5C 160.11,133.646 161.443,134.646 164,133.5C 164.167,133.833 164.333,134.167 164.5,134.5C 163.624,135.251 162.624,135.751 161.5,136C 165.502,139.432 169.002,143.265 172,147.5C 172.342,145.381 173.175,145.047 174.5,146.5 Z"/></g>
<g><path style="opacity:1" fill="#f2f2f2" d="M 199.5,108.5 C 199.5,138.833 199.5,169.167 199.5,199.5C 168.167,199.5 136.833,199.5 105.5,199.5C 105.5,198.833 105.833,198.5 106.5,198.5C 122.79,197.847 137.79,193.18 151.5,184.5C 156.413,181.882 160.746,178.548 164.5,174.5C 170.177,169.822 175.177,164.489 179.5,158.5C 181.326,156.853 182.66,154.853 183.5,152.5C 189.957,143.149 194.29,132.816 196.5,121.5C 197.461,119.735 197.795,117.735 197.5,115.5C 198.167,113.167 198.833,110.833 199.5,108.5 Z"/></g>
<g><path style="opacity:1" fill="#bbbbb5" d="M 93.5,136.5 C 94.5,136.5 95.5,136.5 96.5,136.5C 96.2627,137.791 96.596,138.791 97.5,139.5C 98.404,140.209 98.7373,141.209 98.5,142.5C 93.3906,141.742 88.724,139.909 84.5,137C 81.7037,136.958 79.037,136.791 76.5,136.5C 76.3635,131.173 74.6968,126.173 71.5,121.5C 63.4426,122.991 55.4426,123.658 47.5,123.5C 47.5774,122.25 48.244,121.417 49.5,121C 51.7695,120.242 53.9361,120.409 56,121.5C 57.5675,119.832 59.2342,119.498 61,120.5C 62.9933,118.667 65.3266,117.334 68,116.5C 70.2256,118.885 73.059,120.051 76.5,120C 76.0426,120.414 75.7093,120.914 75.5,121.5C 77.2011,124.853 78.8678,128.186 80.5,131.5C 85.0254,132.797 89.3587,134.464 93.5,136.5 Z"/></g>
<g><path style="opacity:1" fill="#bfbbba" d="M 139.5,124.5 C 135.311,124.494 131.144,124.16 127,123.5C 125.743,125.746 123.91,127.079 121.5,127.5C 121.034,129.201 121.034,130.701 121.5,132C 120.167,133 118.833,134 117.5,135C 118.167,135.333 118.833,135.667 119.5,136C 114.737,135.834 110.404,137.001 106.5,139.5C 105.833,139.167 105.167,138.833 104.5,138.5C 105.193,137.482 105.859,136.482 106.5,135.5C 106.5,135.167 106.5,134.833 106.5,134.5C 109.488,134.671 111.488,133.338 112.5,130.5C 117.883,128.059 122.216,124.392 125.5,119.5C 126.167,119.833 126.833,120.167 127.5,120.5C 129.331,119.071 131.331,118.571 133.5,119C 136.711,119.732 138.711,121.566 139.5,124.5 Z"/></g>
<g><path style="opacity:1" fill="#b6b5b3" d="M 76.5,136.5 C 77.2916,137.967 77.2916,139.3 76.5,140.5C 74.3737,139.63 72.3737,138.63 70.5,137.5C 71.6566,133.758 71.3233,130.091 69.5,126.5C 66.5506,125.652 63.884,125.652 61.5,126.5C 57.8459,129.285 54.5126,132.452 51.5,136C 47.7502,136.26 44.0836,136.927 40.5,138C 35.4212,141.96 30.0879,145.46 24.5,148.5C 26.4176,143.657 29.0843,139.323 32.5,135.5C 33.877,136.238 35.7104,136.238 38,135.5C 38.3333,134.167 38.6667,132.833 39,131.5C 39.3333,132.167 39.6667,132.833 40,133.5C 41.5863,129.423 44.0863,126.089 47.5,123.5C 55.4426,123.658 63.4426,122.991 71.5,121.5C 74.6968,126.173 76.3635,131.173 76.5,136.5 Z"/></g>
<g><path style="opacity:1" fill="#bcbab5" d="M 139.5,124.5 C 139.005,128.932 139.838,133.266 142,137.5C 147.028,139.748 150.861,143.748 153.5,149.5C 154.965,148.391 155.965,148.891 156.5,151C 156.043,151.414 155.709,151.914 155.5,152.5C 156.689,153.429 158.022,153.762 159.5,153.5C 159.5,154.833 159.5,156.167 159.5,157.5C 164.833,157.5 170.167,157.5 175.5,157.5C 175.238,156.022 175.571,154.689 176.5,153.5C 178.321,154.728 179.321,156.394 179.5,158.5C 175.177,164.489 170.177,169.822 164.5,174.5C 164.579,173.07 164.246,171.736 163.5,170.5C 161.167,169.833 158.833,169.167 156.5,168.5C 157.5,167.833 158.5,167.167 159.5,166.5C 157.242,165.201 154.908,164.201 152.5,163.5C 152.286,161.856 152.62,160.356 153.5,159C 151.206,154.912 149.039,150.745 147,146.5C 145.846,145.257 144.512,144.257 143,143.5C 140.983,138.423 138.816,133.423 136.5,128.5C 134.034,126.032 131.034,125.032 127.5,125.5C 127.66,127.199 127.494,128.866 127,130.5C 126.667,130.167 126.333,129.833 126,129.5C 126.086,133.047 124.92,136.047 122.5,138.5C 123.167,139.167 123.833,139.833 124.5,140.5C 121.294,142.546 118.96,145.38 117.5,149C 112.362,149.839 107.528,149.005 103,146.5C 101.951,147.517 100.784,147.684 99.5,147C 101.871,145.594 103.538,143.594 104.5,141C 103.906,140.536 103.239,140.369 102.5,140.5C 102.79,137.873 104.124,136.206 106.5,135.5C 105.859,136.482 105.193,137.482 104.5,138.5C 105.167,138.833 105.833,139.167 106.5,139.5C 110.404,137.001 114.737,135.834 119.5,136C 118.833,135.667 118.167,135.333 117.5,135C 118.833,134 120.167,133 121.5,132C 121.034,130.701 121.034,129.201 121.5,127.5C 123.91,127.079 125.743,125.746 127,123.5C 131.144,124.16 135.311,124.494 139.5,124.5 Z"/></g>
<g><path style="opacity:1" fill="#f2f2f2" d="M -0.5,111.5 C 0.584911,118.757 2.58491,125.757 5.5,132.5C 8.53155,141.565 12.8649,149.898 18.5,157.5C 19.4431,160.109 21.1097,162.109 23.5,163.5C 28.5449,170.879 34.8783,176.879 42.5,181.5C 49.0537,185.944 56.0537,189.611 63.5,192.5C 66.6988,193.899 70.0321,194.899 73.5,195.5C 79.4144,197.263 85.4144,198.596 91.5,199.5C 60.8333,199.5 30.1667,199.5 -0.5,199.5C -0.5,170.167 -0.5,140.833 -0.5,111.5 Z"/></g>
<g><path style="opacity:1" fill="#b0afaf" d="M 5.5,125.5 C 7.23267,126.008 7.566,126.841 6.5,128C 7.52177,130.545 8.68844,133.045 10,135.5C 10.3333,135.167 10.6667,134.833 11,134.5C 12,136.5 13,138.5 14,140.5C 14.6708,141.252 15.5041,141.586 16.5,141.5C 16.8693,143.441 17.536,145.275 18.5,147C 17.2881,148.107 17.6214,148.607 19.5,148.5C 19.4701,149.497 19.9701,150.164 21,150.5C 22.3026,150.022 23.4693,149.355 24.5,148.5C 30.0879,145.46 35.4212,141.96 40.5,138C 44.0836,136.927 47.7502,136.26 51.5,136C 54.5126,132.452 57.8459,129.285 61.5,126.5C 63.884,125.652 66.5506,125.652 69.5,126.5C 71.3233,130.091 71.6566,133.758 70.5,137.5C 71.1495,139.435 71.4828,141.435 71.5,143.5C 73.5,143.5 75.5,143.5 77.5,143.5C 78.5,143.833 79.1667,144.5 79.5,145.5C 81.7706,147.266 83.9373,149.266 86,151.5C 86.2565,154.557 86.7565,157.557 87.5,160.5C 88.6888,161.429 90.0222,161.762 91.5,161.5C 91.5,162.833 91.5,164.167 91.5,165.5C 94.1667,165.833 96.8333,166.167 99.5,166.5C 99.2962,169.518 98.9629,172.518 98.5,175.5C 96.8008,175.34 95.1341,175.506 93.5,176C 93.1119,177.525 93.1119,179.192 93.5,181C 91.8783,182.295 90.545,183.795 89.5,185.5C 90.7545,187.334 91.4211,189.334 91.5,191.5C 90.1667,191.5 88.8333,191.5 87.5,191.5C 87.3379,193.527 87.5045,195.527 88,197.5C 89,194.833 90,194.833 91,197.5C 91.3333,196.833 91.6667,196.167 92,195.5C 93,196.833 94,196.833 95,195.5C 99.2143,195.827 103.048,196.827 106.5,198.5C 105.833,198.5 105.5,198.833 105.5,199.5C 100.833,199.5 96.1667,199.5 91.5,199.5C 85.4144,198.596 79.4144,197.263 73.5,195.5C 79.8254,195.996 80.1587,194.829 74.5,192C 75.0219,191.439 75.3552,190.772 75.5,190C 72.7343,188.431 72.0676,186.264 73.5,183.5C 74.1667,184.833 74.8333,186.167 75.5,187.5C 76.1596,179.466 76.4929,171.466 76.5,163.5C 77.5,163.5 78.5,163.5 79.5,163.5C 79.6334,156.436 76.8,150.769 71,146.5C 69.9383,147.097 68.7716,147.43 67.5,147.5C 64.9328,146.336 62.2662,145.67 59.5,145.5C 59.5,146.5 59.5,147.5 59.5,148.5C 54.2388,147.707 49.2388,146.041 44.5,143.5C 39.6376,144.087 35.4709,146.087 32,149.5C 29.7763,148.359 28.2763,149.026 27.5,151.5C 25.114,153.176 22.4474,154.51 19.5,155.5C 19.1373,156.183 18.8039,156.85 18.5,157.5C 12.8649,149.898 8.53155,141.565 5.5,132.5C 4.91823,130.002 4.91823,127.669 5.5,125.5 Z"/></g>
<g><path style="opacity:1" fill="#c0bbbb" d="M 139.5,124.5 C 141.233,125.008 141.566,125.841 140.5,127C 143.246,128.75 146.246,129.75 149.5,130C 150.833,132 152.5,133.667 154.5,135C 154.043,135.414 153.709,135.914 153.5,136.5C 154.853,137.524 155.52,138.857 155.5,140.5C 156.833,140.5 158.167,140.5 159.5,140.5C 159.5,141.5 159.5,142.5 159.5,143.5C 158.127,143.343 156.793,143.51 155.5,144C 158.956,144.18 162.289,144.847 165.5,146C 165.833,146.333 166.167,146.667 166.5,147C 165.5,147.333 164.5,147.667 163.5,148C 165.441,148.743 167.274,148.576 169,147.5C 170.044,148.623 170.71,149.956 171,151.5C 172.268,151.384 173.602,151.051 175,150.5C 175.308,151.308 175.808,151.975 176.5,152.5C 178.771,152.228 181.105,152.228 183.5,152.5C 182.66,154.853 181.326,156.853 179.5,158.5C 179.321,156.394 178.321,154.728 176.5,153.5C 175.571,154.689 175.238,156.022 175.5,157.5C 170.167,157.5 164.833,157.5 159.5,157.5C 159.5,156.167 159.5,154.833 159.5,153.5C 158.022,153.762 156.689,153.429 155.5,152.5C 155.709,151.914 156.043,151.414 156.5,151C 155.965,148.891 154.965,148.391 153.5,149.5C 150.861,143.748 147.028,139.748 142,137.5C 139.838,133.266 139.005,128.932 139.5,124.5 Z"/></g>
<g><path style="opacity:1" fill="#b5b4af" d="M 151.5,184.5 C 137.79,193.18 122.79,197.847 106.5,198.5C 103.048,196.827 99.2143,195.827 95,195.5C 94,196.833 93,196.833 92,195.5C 91.6667,196.167 91.3333,196.833 91,197.5C 90,194.833 89,194.833 88,197.5C 87.5045,195.527 87.3379,193.527 87.5,191.5C 88.8333,191.5 90.1667,191.5 91.5,191.5C 91.4211,189.334 90.7545,187.334 89.5,185.5C 90.545,183.795 91.8783,182.295 93.5,181C 93.1119,179.192 93.1119,177.525 93.5,176C 95.1341,175.506 96.8008,175.34 98.5,175.5C 108.161,175.772 117.828,176.105 127.5,176.5C 127.5,175.167 127.5,173.833 127.5,172.5C 130.167,172.5 132.833,172.5 135.5,172.5C 135.351,171.448 135.517,170.448 136,169.5C 138.053,168.733 139.553,167.4 140.5,165.5C 139.957,164.136 139.79,162.803 140,161.5C 141.487,160.845 142.653,159.845 143.5,158.5C 140.914,157.52 138.247,157.187 135.5,157.5C 135.5,158.833 135.5,160.167 135.5,161.5C 133.25,161.181 131.25,161.681 129.5,163C 130.167,163.333 130.833,163.667 131.5,164C 130,164.833 128.833,166 128,167.5C 118.667,166.167 109.333,164.833 100,163.5C 98.9887,164.337 97.8221,164.67 96.5,164.5C 96.5076,158.792 96.0076,158.459 95,163.5C 93.6487,161.981 92.1487,160.648 90.5,159.5C 89.2528,157.994 89.2528,156.494 90.5,155C 88.578,153.58 87.2446,151.747 86.5,149.5C 85.1667,148.833 84.1667,147.833 83.5,146.5C 82.3112,145.571 80.9778,145.238 79.5,145.5C 79.1667,144.5 78.5,143.833 77.5,143.5C 79.9667,140.224 82.9667,139.724 86.5,142C 87.7464,145.582 90.0797,148.249 93.5,150C 95.0348,149.339 96.7015,149.006 98.5,149C 102.227,151.633 104.56,155.133 105.5,159.5C 110.833,159.5 116.167,159.5 121.5,159.5C 121.5,156.833 121.5,154.167 121.5,151.5C 122.833,151.5 124.167,151.5 125.5,151.5C 125.468,147.966 125.802,144.799 126.5,142C 127.966,141.365 129.3,140.531 130.5,139.5C 133.399,140.642 136.399,141.308 139.5,141.5C 139.201,143.604 139.534,145.604 140.5,147.5C 141.748,146.96 142.915,146.293 144,145.5C 148.845,151.999 149.345,158.999 145.5,166.5C 146.516,169.134 146.516,171.8 145.5,174.5C 148.607,174.351 151.607,174.851 154.5,176C 153.5,177 152.5,178 151.5,179C 152.167,179.333 152.833,179.667 153.5,180C 152.167,180.333 150.833,180.667 149.5,181C 150.823,181.816 151.489,182.983 151.5,184.5 Z"/></g>
<g><path style="opacity:1" fill="#b8b5b5" d="M 164.5,174.5 C 160.746,178.548 156.413,181.882 151.5,184.5C 151.489,182.983 150.823,181.816 149.5,181C 150.833,180.667 152.167,180.333 153.5,180C 152.833,179.667 152.167,179.333 151.5,179C 152.5,178 153.5,177 154.5,176C 151.607,174.851 148.607,174.351 145.5,174.5C 146.516,171.8 146.516,169.134 145.5,166.5C 149.345,158.999 148.845,151.999 144,145.5C 142.915,146.293 141.748,146.96 140.5,147.5C 139.534,145.604 139.201,143.604 139.5,141.5C 136.399,141.308 133.399,140.642 130.5,139.5C 129.3,140.531 127.966,141.365 126.5,142C 125.802,144.799 125.468,147.966 125.5,151.5C 124.167,151.5 122.833,151.5 121.5,151.5C 121.5,154.167 121.5,156.833 121.5,159.5C 116.167,159.5 110.833,159.5 105.5,159.5C 104.56,155.133 102.227,151.633 98.5,149C 96.7015,149.006 95.0348,149.339 93.5,150C 90.0797,148.249 87.7464,145.582 86.5,142C 82.9667,139.724 79.9667,140.224 77.5,143.5C 75.5,143.5 73.5,143.5 71.5,143.5C 71.4828,141.435 71.1495,139.435 70.5,137.5C 72.3737,138.63 74.3737,139.63 76.5,140.5C 77.2916,139.3 77.2916,137.967 76.5,136.5C 79.037,136.791 81.7037,136.958 84.5,137C 88.724,139.909 93.3906,141.742 98.5,142.5C 99.209,143.404 100.209,143.737 101.5,143.5C 101.5,142.5 101.5,141.5 101.5,140.5C 101.833,140.5 102.167,140.5 102.5,140.5C 103.239,140.369 103.906,140.536 104.5,141C 103.538,143.594 101.871,145.594 99.5,147C 100.784,147.684 101.951,147.517 103,146.5C 107.528,149.005 112.362,149.839 117.5,149C 118.96,145.38 121.294,142.546 124.5,140.5C 123.833,139.833 123.167,139.167 122.5,138.5C 124.92,136.047 126.086,133.047 126,129.5C 126.333,129.833 126.667,130.167 127,130.5C 127.494,128.866 127.66,127.199 127.5,125.5C 131.034,125.032 134.034,126.032 136.5,128.5C 138.816,133.423 140.983,138.423 143,143.5C 144.512,144.257 145.846,145.257 147,146.5C 149.039,150.745 151.206,154.912 153.5,159C 152.62,160.356 152.286,161.856 152.5,163.5C 154.908,164.201 157.242,165.201 159.5,166.5C 158.5,167.167 157.5,167.833 156.5,168.5C 158.833,169.167 161.167,169.833 163.5,170.5C 164.246,171.736 164.579,173.07 164.5,174.5 Z"/></g>
<g><path style="opacity:1" fill="#afaea8" d="M 73.5,195.5 C 70.0321,194.899 66.6988,193.899 63.5,192.5C 65.2814,188.393 66.6148,184.06 67.5,179.5C 66.1667,179.5 64.8333,179.5 63.5,179.5C 63.5,178.167 63.5,176.833 63.5,175.5C 65.5,175.5 67.5,175.5 69.5,175.5C 69.9976,172.99 70.6643,170.49 71.5,168C 71.3248,166.342 70.6582,165.009 69.5,164C 70.5156,163.481 71.1822,162.647 71.5,161.5C 70.1515,157.102 68.6515,152.769 67,148.5C 64.259,150.067 63.0923,152.401 63.5,155.5C 62.5,155.5 61.5,155.5 60.5,155.5C 60.4613,158.321 59.7946,160.988 58.5,163.5C 57.8333,162.833 57.1667,162.167 56.5,161.5C 55.2888,162.274 55.2888,163.107 56.5,164C 52.8333,164.667 49.1667,164.667 45.5,164C 46.6039,162.869 46.2705,162.035 44.5,161.5C 44.1879,157.504 42.6879,154.171 40,151.5C 39.5172,150.552 39.3505,149.552 39.5,148.5C 35.5,149.5 31.5,150.5 27.5,151.5C 28.2763,149.026 29.7763,148.359 32,149.5C 35.4709,146.087 39.6376,144.087 44.5,143.5C 49.2388,146.041 54.2388,147.707 59.5,148.5C 59.5,147.5 59.5,146.5 59.5,145.5C 62.2662,145.67 64.9328,146.336 67.5,147.5C 68.7716,147.43 69.9383,147.097 71,146.5C 76.8,150.769 79.6334,156.436 79.5,163.5C 78.5,163.5 77.5,163.5 76.5,163.5C 76.4929,171.466 76.1596,179.466 75.5,187.5C 74.8333,186.167 74.1667,184.833 73.5,183.5C 72.0676,186.264 72.7343,188.431 75.5,190C 75.3552,190.772 75.0219,191.439 74.5,192C 80.1587,194.829 79.8254,195.996 73.5,195.5 Z"/></g>
<g><path style="opacity:1" fill="#b4afaf" d="M 79.5,145.5 C 80.9778,145.238 82.3112,145.571 83.5,146.5C 84.1667,147.833 85.1667,148.833 86.5,149.5C 87.2446,151.747 88.578,153.58 90.5,155C 89.2528,156.494 89.2528,157.994 90.5,159.5C 92.1487,160.648 93.6487,161.981 95,163.5C 96.0076,158.459 96.5076,158.792 96.5,164.5C 97.8221,164.67 98.9887,164.337 100,163.5C 109.333,164.833 118.667,166.167 128,167.5C 128.833,166 130,164.833 131.5,164C 130.833,163.667 130.167,163.333 129.5,163C 131.25,161.681 133.25,161.181 135.5,161.5C 135.5,160.167 135.5,158.833 135.5,157.5C 138.247,157.187 140.914,157.52 143.5,158.5C 142.653,159.845 141.487,160.845 140,161.5C 139.79,162.803 139.957,164.136 140.5,165.5C 139.553,167.4 138.053,168.733 136,169.5C 135.517,170.448 135.351,171.448 135.5,172.5C 132.833,172.5 130.167,172.5 127.5,172.5C 127.5,173.833 127.5,175.167 127.5,176.5C 117.828,176.105 108.161,175.772 98.5,175.5C 98.9629,172.518 99.2962,169.518 99.5,166.5C 96.8333,166.167 94.1667,165.833 91.5,165.5C 91.5,164.167 91.5,162.833 91.5,161.5C 90.0222,161.762 88.6888,161.429 87.5,160.5C 86.7565,157.557 86.2565,154.557 86,151.5C 83.9373,149.266 81.7706,147.266 79.5,145.5 Z"/></g>
<g><path style="opacity:1" fill="#aaa8a8" d="M 63.5,192.5 C 56.0537,189.611 49.0537,185.944 42.5,181.5C 42.4924,175.792 42.9924,175.459 44,180.5C 44.3013,177.493 44.1346,174.493 43.5,171.5C 42.5,171.5 41.5,171.5 40.5,171.5C 40.2032,159.989 34.5366,155.489 23.5,158C 22.8333,158.333 22.1667,158.667 21.5,159C 23.1066,160.049 23.7733,161.549 23.5,163.5C 21.1097,162.109 19.4431,160.109 18.5,157.5C 18.8039,156.85 19.1373,156.183 19.5,155.5C 22.4474,154.51 25.114,153.176 27.5,151.5C 31.5,150.5 35.5,149.5 39.5,148.5C 39.3505,149.552 39.5172,150.552 40,151.5C 42.6879,154.171 44.1879,157.504 44.5,161.5C 46.2705,162.035 46.6039,162.869 45.5,164C 49.1667,164.667 52.8333,164.667 56.5,164C 55.2888,163.107 55.2888,162.274 56.5,161.5C 57.1667,162.167 57.8333,162.833 58.5,163.5C 59.7946,160.988 60.4613,158.321 60.5,155.5C 61.5,155.5 62.5,155.5 63.5,155.5C 63.0923,152.401 64.259,150.067 67,148.5C 68.6515,152.769 70.1515,157.102 71.5,161.5C 71.1822,162.647 70.5156,163.481 69.5,164C 70.6582,165.009 71.3248,166.342 71.5,168C 70.6643,170.49 69.9976,172.99 69.5,175.5C 67.5,175.5 65.5,175.5 63.5,175.5C 63.5,176.833 63.5,178.167 63.5,179.5C 64.8333,179.5 66.1667,179.5 67.5,179.5C 66.6148,184.06 65.2814,188.393 63.5,192.5 Z"/></g>
<g><path style="opacity:1" fill="#a8a8a3" d="M 42.5,181.5 C 34.8783,176.879 28.5449,170.879 23.5,163.5C 23.7733,161.549 23.1066,160.049 21.5,159C 22.1667,158.667 22.8333,158.333 23.5,158C 34.5366,155.489 40.2032,159.989 40.5,171.5C 41.5,171.5 42.5,171.5 43.5,171.5C 44.1346,174.493 44.3013,177.493 44,180.5C 42.9924,175.459 42.4924,175.792 42.5,181.5 Z"/></g>
<g><path style="opacity:1" fill="#bab5b4" d="M 99.5,182.5 C 106.18,182.612 112.847,182.946 119.5,183.5C 119.5,184.833 119.5,186.167 119.5,187.5C 115.5,187.5 111.5,187.5 107.5,187.5C 107.5,188.833 107.5,190.167 107.5,191.5C 104.5,191.5 101.5,191.5 98.5,191.5C 98.9629,188.518 99.2962,185.518 99.5,182.5 Z"/></g>
</svg>
