<svg width="832" height="832" viewBox="0 0 832 832" fill="none" xmlns="http://www.w3.org/2000/svg">
<path d="M669.864 234.139L618.835 313.179C634.928 345.067 643.286 380.297 643.232 416.016C643.178 451.735 634.714 486.94 618.524 518.779C602.334 550.619 578.874 578.198 550.043 599.285C521.213 620.372 487.821 634.373 452.573 640.155C405.395 647.758 357.02 640.26 314.357 618.731L235.075 669.691C279.917 701.802 332.481 721.432 387.395 726.575C442.308 731.717 497.603 722.188 547.628 698.962C597.653 675.735 640.614 639.643 672.122 594.375C703.629 549.106 722.553 496.284 726.96 441.307C733.002 367.631 712.776 294.193 669.864 234H670.072L669.864 234.139Z" fill="url(#paint0_radial_2083_289)"/>
<path d="M416.416 572.347C453.084 572.354 488.594 559.502 516.763 536.027C544.931 512.551 563.975 479.941 570.579 443.872C521.723 433.28 471.187 433.065 422.243 443.241C373.298 453.417 327.036 473.757 286.451 502.944C300.789 524.253 320.136 541.72 342.794 553.814C365.453 565.908 390.732 572.294 416.416 572.347Z" fill="url(#paint1_radial_2083_289)"/>
<path d="M493.653 407.333C520.462 407.356 546.959 410.245 573.144 416C573.154 384.081 563.425 352.919 545.256 326.676C527.088 300.434 501.344 280.359 471.464 269.135C441.585 257.91 408.991 256.069 378.038 263.859C347.085 271.648 319.245 288.697 298.237 312.728C283.492 329.578 272.548 349.406 266.147 370.862C259.747 392.319 258.04 414.902 261.144 437.077C239.477 453.024 219.786 471.397 202.418 491.92C191.257 460.024 187.344 426.041 190.964 392.443C194.585 358.846 205.647 326.477 223.347 297.691C241.047 268.905 264.939 244.425 293.287 226.032C321.635 207.639 353.726 195.794 387.226 191.36C432.015 185.505 477.531 193.184 517.92 213.408L596.821 162.205C551.735 129.93 498.851 110.274 443.63 105.269C388.409 100.264 332.853 110.089 282.698 133.732C232.544 157.375 189.61 193.977 158.33 239.758C127.05 285.54 108.557 338.842 104.762 394.16C99.5266 468.317 120.942 541.906 165.152 601.674C179.885 575.085 197.738 550.368 218.365 528.112C235.398 510.501 253.748 494.416 273.416 479.856C337.314 432.86 414.541 407.478 493.861 407.402L493.653 407.333Z" fill="white"/>
<defs>
<radialGradient id="paint0_radial_2083_289" cx="0" cy="0" r="1" gradientUnits="userSpaceOnUse" gradientTransform="translate(654.645 103.792) scale(664.307 663.621)">
<stop offset="0.1" stop-color="#26DB8D"/>
<stop offset="0.26" stop-color="#23D29A"/>
<stop offset="0.56" stop-color="#1ABBBB"/>
<stop offset="0.89" stop-color="#0E9DE5"/>
</radialGradient>
<radialGradient id="paint1_radial_2083_289" cx="0" cy="0" r="1" gradientUnits="userSpaceOnUse" gradientTransform="translate(946.435 -818.896) scale(1152.52 2400.91)">
<stop offset="0.26" stop-color="#23D29A"/>
<stop offset="0.56" stop-color="#1ABBBB"/>
<stop offset="0.89" stop-color="#0E9DE5"/>
</radialGradient>
</defs>
</svg>
