<?xml version="1.0" encoding="UTF-8"?>
<!DOCTYPE svg PUBLIC "-//W3C//DTD SVG 1.1//EN" "http://www.w3.org/Graphics/SVG/1.1/DTD/svg11.dtd">
<svg xmlns="http://www.w3.org/2000/svg" version="1.1" width="200px" height="200px" style="shape-rendering:geometricPrecision; text-rendering:geometricPrecision; image-rendering:optimizeQuality; fill-rule:evenodd; clip-rule:evenodd" xmlns:xlink="http://www.w3.org/1999/xlink">
<g><path style="opacity:1" fill="#191919" d="M -0.5,-0.5 C 66.1667,-0.5 132.833,-0.5 199.5,-0.5C 199.5,66.1667 199.5,132.833 199.5,199.5C 132.833,199.5 66.1667,199.5 -0.5,199.5C -0.5,132.833 -0.5,66.1667 -0.5,-0.5 Z"/></g>
<g><path style="opacity:1" fill="#554690" d="M 87.5,43.5 C 86.7375,44.2679 85.7375,44.7679 84.5,45C 85.5358,46.6169 86.7025,46.7836 88,45.5C 89.6877,47.0449 91.6877,48.0449 94,48.5C 94.414,48.0426 94.914,47.7093 95.5,47.5C 96.8498,48.9501 98.5165,49.6168 100.5,49.5C 99.5786,51.2687 98.4119,52.9354 97,54.5C 96.586,54.0426 96.086,53.7093 95.5,53.5C 94.2528,55.0064 94.2528,56.5064 95.5,58C 94.5296,60.5652 93.1963,62.7319 91.5,64.5C 90.448,64.3505 89.448,64.5172 88.5,65C 90.1333,69.1022 91.1333,73.4355 91.5,78C 89.2086,78.0154 87.0419,78.1821 85,78.5C 84.5065,76.8659 84.3398,75.1992 84.5,73.5C 84.464,67.1067 84.6307,60.7734 85,54.5C 84.2798,56.0557 83.1132,57.0557 81.5,57.5C 81.1667,57.5 80.8333,57.5 80.5,57.5C 79.5,57.5 78.5,57.5 77.5,57.5C 76.7611,57.631 76.0944,57.4643 75.5,57C 77.3771,54.079 79.3771,51.2456 81.5,48.5C 80.3088,48.5953 78.9755,48.262 77.5,47.5C 79.8011,44.0824 83.1345,42.7491 87.5,43.5 Z"/></g>
<g><path style="opacity:1" fill="#6b5faf" d="M 109.5,45.5 C 108.751,46.531 108.085,47.6976 107.5,49C 106.256,49.4561 105.423,48.9561 105,47.5C 104.283,48.0442 103.783,48.7109 103.5,49.5C 103.167,49.5 102.833,49.5 102.5,49.5C 102.631,48.7611 102.464,48.0944 102,47.5C 101.722,48.4158 101.222,49.0825 100.5,49.5C 98.5165,49.6168 96.8498,48.9501 95.5,47.5C 94.914,47.7093 94.414,48.0426 94,48.5C 91.6877,48.0449 89.6877,47.0449 88,45.5C 86.7025,46.7836 85.5358,46.6169 84.5,45C 85.7375,44.7679 86.7375,44.2679 87.5,43.5C 89.1484,42.0735 91.1484,41.2401 93.5,41C 97.1557,40.7552 100.656,40.5886 104,40.5C 106.991,40.9946 108.824,42.6612 109.5,45.5 Z"/></g>
<g><path style="opacity:1" fill="#ba6f7c" d="M 109.5,45.5 C 111.167,45.5 112.833,45.5 114.5,45.5C 114.5,47.1667 114.5,48.8333 114.5,50.5C 115.822,50.33 116.989,50.6634 118,51.5C 118.744,54.89 119.577,58.2233 120.5,61.5C 119.761,61.369 119.094,61.5357 118.5,62C 119.451,62.7175 119.617,63.5509 119,64.5C 117.037,60.5491 114.37,57.2157 111,54.5C 110.51,55.7932 110.343,57.1266 110.5,58.5C 111.5,58.5 112.5,58.5 113.5,58.5C 113.48,60.143 114.147,61.4763 115.5,62.5C 114.873,63.4168 114.539,64.4168 114.5,65.5C 112.187,62.5157 109.853,59.5157 107.5,56.5C 106.817,54.8235 105.483,54.1568 103.5,54.5C 103.5,52.8333 103.5,51.1667 103.5,49.5C 103.783,48.7109 104.283,48.0442 105,47.5C 105.423,48.9561 106.256,49.4561 107.5,49C 108.085,47.6976 108.751,46.531 109.5,45.5 Z"/></g>
<g><path style="opacity:1" fill="#3e72ae" d="M 102.5,49.5 C 102.5,51.1667 102.5,52.8333 102.5,54.5C 101.662,54.8417 101.328,55.5084 101.5,56.5C 98.873,58.4523 97.5397,61.1189 97.5,64.5C 96.2227,65.6936 95.5561,67.3603 95.5,69.5C 95.5561,71.6397 96.2227,73.3064 97.5,74.5C 97.7989,76.604 97.4656,78.604 96.5,80.5C 95.3813,74.9027 93.7147,69.5693 91.5,64.5C 93.1963,62.7319 94.5296,60.5652 95.5,58C 94.2528,56.5064 94.2528,55.0064 95.5,53.5C 96.086,53.7093 96.586,54.0426 97,54.5C 98.4119,52.9354 99.5786,51.2687 100.5,49.5C 101.222,49.0825 101.722,48.4158 102,47.5C 102.464,48.0944 102.631,48.7611 102.5,49.5 Z"/></g>
<g><path style="opacity:1" fill="#c0976f" d="M 101.5,56.5 C 101.425,59.2062 101.092,61.8728 100.5,64.5C 99.5,64.5 98.5,64.5 97.5,64.5C 97.5397,61.1189 98.873,58.4523 101.5,56.5 Z"/></g>
<g><path style="opacity:1" fill="#784d9a" d="M 75.5,53.5 C 73.2613,57.7048 71.928,62.2048 71.5,67C 71.5812,69.6254 72.2478,71.9587 73.5,74C 72.552,74.4828 71.552,74.6495 70.5,74.5C 70.6658,69.8215 70.4992,65.1548 70,60.5C 69.5006,66.1569 69.3339,71.8236 69.5,77.5C 68.8333,77.5 68.5,77.8333 68.5,78.5C 67.5874,72.1388 67.4208,65.4721 68,58.5C 69.5026,58.1654 70.836,58.1654 72,58.5C 72.2518,55.3331 72.4185,52.3331 72.5,49.5C 73.0568,51.3316 74.0568,52.6649 75.5,53.5 Z"/></g>
<g><path style="opacity:1" fill="#77a47b" d="M 97.5,64.5 C 98.5,64.5 99.5,64.5 100.5,64.5C 100.158,65.3382 99.4916,65.6716 98.5,65.5C 97.5233,68.2869 97.19,71.2869 97.5,74.5C 96.2227,73.3064 95.5561,71.6397 95.5,69.5C 95.5561,67.3603 96.2227,65.6936 97.5,64.5 Z"/></g>
<g><path style="opacity:1" fill="#677562" d="M 102.5,49.5 C 102.833,49.5 103.167,49.5 103.5,49.5C 103.5,51.1667 103.5,52.8333 103.5,54.5C 105.483,54.1568 106.817,54.8235 107.5,56.5C 106.351,56.7911 105.684,57.6244 105.5,59C 106.172,61.0089 107.172,62.8422 108.5,64.5C 108.975,68.7478 109.975,72.7478 111.5,76.5C 110.833,76.5 110.167,76.5 109.5,76.5C 108.849,75.9094 108.182,75.2427 107.5,74.5C 106.679,71.5535 106.179,68.5535 106,65.5C 105.667,67.5 105.333,69.5 105,71.5C 102.941,66.0316 102.108,60.3649 102.5,54.5C 102.5,52.8333 102.5,51.1667 102.5,49.5 Z"/></g>
<g><path style="opacity:1" fill="#984f80" d="M 120.5,61.5 C 121.124,61.9169 121.457,62.5836 121.5,63.5C 119.85,70.7537 118.85,78.087 118.5,85.5C 117.834,82.9723 117.168,80.3056 116.5,77.5C 115.534,79.396 115.201,81.396 115.5,83.5C 114.532,81.3926 114.198,79.0593 114.5,76.5C 114.5,72.8333 114.5,69.1667 114.5,65.5C 114.539,64.4168 114.873,63.4168 115.5,62.5C 114.147,61.4763 113.48,60.143 113.5,58.5C 112.5,58.5 111.5,58.5 110.5,58.5C 110.343,57.1266 110.51,55.7932 111,54.5C 114.37,57.2157 117.037,60.5491 119,64.5C 119.617,63.5509 119.451,62.7175 118.5,62C 119.094,61.5357 119.761,61.369 120.5,61.5 Z"/></g>
<g><path style="opacity:1" fill="#405a92" d="M 107.5,56.5 C 109.853,59.5157 112.187,62.5157 114.5,65.5C 114.5,69.1667 114.5,72.8333 114.5,76.5C 113.5,76.5 112.5,76.5 111.5,76.5C 109.975,72.7478 108.975,68.7478 108.5,64.5C 107.172,62.8422 106.172,61.0089 105.5,59C 105.684,57.6244 106.351,56.7911 107.5,56.5 Z"/></g>
<g><path style="opacity:1" fill="#585481" d="M 102.5,54.5 C 102.108,60.3649 102.941,66.0316 105,71.5C 105.333,69.5 105.667,67.5 106,65.5C 106.179,68.5535 106.679,71.5535 107.5,74.5C 108.182,75.2427 108.849,75.9094 109.5,76.5C 109.5,78.5 109.5,80.5 109.5,82.5C 108.532,84.6074 108.198,86.9407 108.5,89.5C 108.167,89.5 107.833,89.5 107.5,89.5C 105.692,90.9179 105.025,92.9179 105.5,95.5C 103.875,90.9996 102.375,86.3329 101,81.5C 100.617,80.944 100.117,80.6107 99.5,80.5C 98.5128,75.6946 98.1795,70.6946 98.5,65.5C 99.4916,65.6716 100.158,65.3382 100.5,64.5C 101.092,61.8728 101.425,59.2062 101.5,56.5C 101.328,55.5084 101.662,54.8417 102.5,54.5 Z"/></g>
<g><path style="opacity:1" fill="#665bae" d="M 84.5,73.5 C 83.8418,74.7933 83.5085,76.2933 83.5,78C 84.1951,81.4983 85.5285,84.6649 87.5,87.5C 86.2223,87.2178 85.2223,86.5511 84.5,85.5C 83.6236,85.6309 82.9569,85.2975 82.5,84.5C 81.8108,82.556 81.3108,80.556 81,78.5C 80.4117,83.5276 80.5784,88.5276 81.5,93.5C 80.8485,92.9094 80.1818,92.2427 79.5,91.5C 78.513,88.2317 78.1796,84.8984 78.5,81.5C 77.448,81.6495 76.448,81.4828 75.5,81C 78.1667,79 78.1667,77 75.5,75C 77.4255,69.4642 78.0922,63.6309 77.5,57.5C 78.5,57.5 79.5,57.5 80.5,57.5C 78.4667,62.5401 77.9667,67.8734 79,73.5C 81.6968,68.3604 82.5301,63.0271 81.5,57.5C 83.1132,57.0557 84.2798,56.0557 85,54.5C 84.6307,60.7734 84.464,67.1067 84.5,73.5 Z"/></g>
<g><path style="opacity:1" fill="#3a3052" d="M 80.5,57.5 C 80.8333,57.5 81.1667,57.5 81.5,57.5C 82.5301,63.0271 81.6968,68.3604 79,73.5C 77.9667,67.8734 78.4667,62.5401 80.5,57.5 Z"/></g>
<g><path style="opacity:1" fill="#342562" d="M 91.5,64.5 C 93.7147,69.5693 95.3813,74.9027 96.5,80.5C 97.4656,78.604 97.7989,76.604 97.5,74.5C 97.19,71.2869 97.5233,68.2869 98.5,65.5C 98.1795,70.6946 98.5128,75.6946 99.5,80.5C 98.969,83.237 98.1356,85.9036 97,88.5C 96.51,87.2068 96.3433,85.8734 96.5,84.5C 94.8008,84.3398 93.1341,84.5065 91.5,85C 92.5156,85.5194 93.1822,86.3527 93.5,87.5C 92.7465,89.9714 91.4132,91.9714 89.5,93.5C 87.6921,92.0821 87.0254,90.0821 87.5,87.5C 85.5285,84.6649 84.1951,81.4983 83.5,78C 83.5085,76.2933 83.8418,74.7933 84.5,73.5C 84.3398,75.1992 84.5065,76.8659 85,78.5C 87.0419,78.1821 89.2086,78.0154 91.5,78C 91.1333,73.4355 90.1333,69.1022 88.5,65C 89.448,64.5172 90.448,64.3505 91.5,64.5 Z"/></g>
<g><path style="opacity:1" fill="#89a970" d="M 109.5,76.5 C 110.167,76.5 110.833,76.5 111.5,76.5C 111.5,79.1667 111.5,81.8333 111.5,84.5C 110.167,84.5 109.5,83.8333 109.5,82.5C 109.5,80.5 109.5,78.5 109.5,76.5 Z"/></g>
<g><path style="opacity:1" fill="#3b2d51" d="M 77.5,47.5 C 78.9755,48.262 80.3088,48.5953 81.5,48.5C 79.3771,51.2456 77.3771,54.079 75.5,57C 76.0944,57.4643 76.7611,57.631 77.5,57.5C 78.0922,63.6309 77.4255,69.4642 75.5,75C 78.1667,77 78.1667,79 75.5,81C 76.448,81.4828 77.448,81.6495 78.5,81.5C 78.1796,84.8984 78.513,88.2317 79.5,91.5C 80.1818,92.2427 80.8485,92.9094 81.5,93.5C 80.7701,94.7124 79.7701,95.7124 78.5,96.5C 79.7161,97.0959 81.0494,97.2626 82.5,97C 81.6634,98.0113 81.33,99.1779 81.5,100.5C 79.0706,100.116 76.7373,99.449 74.5,98.5C 74.6567,99.8734 74.49,101.207 74,102.5C 73.3292,101.748 72.4959,101.414 71.5,101.5C 69.731,99.6125 68.3977,97.2792 67.5,94.5C 67.256,89.0542 67.5893,83.7208 68.5,78.5C 68.5,77.8333 68.8333,77.5 69.5,77.5C 69.3339,71.8236 69.5006,66.1569 70,60.5C 70.4992,65.1548 70.6658,69.8215 70.5,74.5C 71.552,74.6495 72.552,74.4828 73.5,74C 72.2478,71.9587 71.5812,69.6254 71.5,67C 71.928,62.2048 73.2613,57.7048 75.5,53.5C 75.0254,50.9179 75.6921,48.9179 77.5,47.5 Z"/></g>
<g><path style="opacity:1" fill="#30215b" d="M 84.5,85.5 C 84.5079,88.5448 84.8413,91.5448 85.5,94.5C 84.2921,93.7659 82.9587,93.4326 81.5,93.5C 80.5784,88.5276 80.4117,83.5276 81,78.5C 81.3108,80.556 81.8108,82.556 82.5,84.5C 82.9569,85.2975 83.6236,85.6309 84.5,85.5 Z"/></g>
<g><path style="opacity:1" fill="#6a4591" d="M 69.5,77.5 C 70.7382,76.5876 72.0715,76.4209 73.5,77C 72.267,78.6977 71.6004,80.6977 71.5,83C 71.8333,84.8333 72.1667,86.6667 72.5,88.5C 73.1924,87.9747 73.6924,87.3081 74,86.5C 74.3333,88.8333 74.6667,91.1667 75,93.5C 75.5354,91.7295 76.3687,91.3961 77.5,92.5C 76.943,94.2352 76.6097,95.9018 76.5,97.5C 75.2311,95.8199 73.5644,94.6532 71.5,94C 71.9574,93.586 72.2907,93.086 72.5,92.5C 70.9118,87.6359 69.9118,82.6359 69.5,77.5 Z"/></g>
<g><path style="opacity:1" fill="#676869" d="M 109.5,82.5 C 109.5,83.8333 110.167,84.5 111.5,84.5C 110.916,87.4726 110.249,90.4726 109.5,93.5C 108.571,92.3112 108.238,90.9778 108.5,89.5C 108.198,86.9407 108.532,84.6074 109.5,82.5 Z"/></g>
<g><path style="opacity:1" fill="#c77a7d" d="M 118.5,85.5 C 118.244,92.5345 117.244,99.2012 115.5,105.5C 115.665,101.818 115.499,98.1516 115,94.5C 114.406,98.5856 113.239,102.252 111.5,105.5C 111.5,102.833 111.5,100.167 111.5,97.5C 113.97,93.2079 115.303,88.5412 115.5,83.5C 115.201,81.396 115.534,79.396 116.5,77.5C 117.168,80.3056 117.834,82.9723 118.5,85.5 Z"/></g>
<g><path style="opacity:1" fill="#c47f7c" d="M 107.5,89.5 C 108.055,93.0122 107.388,96.0122 105.5,98.5C 105.5,97.5 105.5,96.5 105.5,95.5C 105.025,92.9179 105.692,90.9179 107.5,89.5 Z"/></g>
<g><path style="opacity:1" fill="#543f71" d="M 111.5,76.5 C 112.5,76.5 113.5,76.5 114.5,76.5C 114.198,79.0593 114.532,81.3926 115.5,83.5C 115.303,88.5412 113.97,93.2079 111.5,97.5C 109.631,99.6353 108.964,102.302 109.5,105.5C 109.5,106.167 109.5,106.833 109.5,107.5C 108.833,109.167 108.167,110.833 107.5,112.5C 107.5,112.167 107.5,111.833 107.5,111.5C 107.843,109.517 107.176,108.183 105.5,107.5C 104.532,105.393 104.198,103.059 104.5,100.5C 104.328,99.5084 104.662,98.8417 105.5,98.5C 107.388,96.0122 108.055,93.0122 107.5,89.5C 107.833,89.5 108.167,89.5 108.5,89.5C 108.238,90.9778 108.571,92.3112 109.5,93.5C 110.249,90.4726 110.916,87.4726 111.5,84.5C 111.5,81.8333 111.5,79.1667 111.5,76.5 Z"/></g>
<g><path style="opacity:1" fill="#463d80" d="M 99.5,80.5 C 100.117,80.6107 100.617,80.944 101,81.5C 102.375,86.3329 103.875,90.9996 105.5,95.5C 105.5,96.5 105.5,97.5 105.5,98.5C 104.662,98.8417 104.328,99.5084 104.5,100.5C 103.5,100.5 102.5,100.5 101.5,100.5C 101.446,101.615 102.446,105.282 104.5,111.5C 104.019,113.731 103.352,113.898 102.5,112C 101.815,109.205 101.315,106.372 101,103.5C 100.955,106.334 100.121,108.834 98.5,111C 100.715,112.645 101.548,114.812 101,117.5C 97.6889,113.265 96.8555,113.765 98.5,119C 98.1493,122.104 97.6493,121.937 97,118.5C 96.2571,120.441 96.4238,122.274 97.5,124C 95.623,127.494 94.9564,131.327 95.5,135.5C 94.6728,130.015 94.1728,124.348 94,118.5C 92.3741,115.002 91.2074,111.335 90.5,107.5C 88.3676,110.405 88.0343,113.405 89.5,116.5C 89.0825,117.222 88.4158,117.722 87.5,118C 88.3081,118.308 88.9747,118.808 89.5,119.5C 88.3112,120.429 86.9778,120.762 85.5,120.5C 85.0074,118.194 84.6741,115.861 84.5,113.5C 84.2905,110.735 82.9571,108.735 80.5,107.5C 80.7921,106.126 81.1254,104.793 81.5,103.5C 82.552,103.351 83.552,103.517 84.5,104C 84.0306,105.962 84.6973,107.795 86.5,109.5C 87.7051,108.423 88.3718,107.09 88.5,105.5C 90.5159,101.727 90.8493,97.7268 89.5,93.5C 91.4132,91.9714 92.7465,89.9714 93.5,87.5C 93.1822,86.3527 92.5156,85.5194 91.5,85C 93.1341,84.5065 94.8008,84.3398 96.5,84.5C 96.3433,85.8734 96.51,87.2068 97,88.5C 98.1356,85.9036 98.969,83.237 99.5,80.5 Z"/></g>
<g><path style="opacity:1" fill="#5d5fb1" d="M 81.5,93.5 C 82.9587,93.4326 84.2921,93.7659 85.5,94.5C 85.9274,98.329 85.9274,101.996 85.5,105.5C 86.5,105.5 87.5,105.5 88.5,105.5C 88.3718,107.09 87.7051,108.423 86.5,109.5C 84.6973,107.795 84.0306,105.962 84.5,104C 83.552,103.517 82.552,103.351 81.5,103.5C 81.1788,101.952 80.1788,101.285 78.5,101.5C 78.8064,104.385 78.4731,107.052 77.5,109.5C 77.5,110.833 77.5,112.167 77.5,113.5C 75.1703,111.458 74.0036,108.792 74,105.5C 73.4646,107.271 72.6313,107.604 71.5,106.5C 72.5353,104.872 72.5353,103.205 71.5,101.5C 72.4959,101.414 73.3292,101.748 74,102.5C 74.49,101.207 74.6567,99.8734 74.5,98.5C 76.7373,99.449 79.0706,100.116 81.5,100.5C 81.33,99.1779 81.6634,98.0113 82.5,97C 81.0494,97.2626 79.7161,97.0959 78.5,96.5C 79.7701,95.7124 80.7701,94.7124 81.5,93.5 Z"/></g>
<g><path style="opacity:1" fill="#4f3339" d="M 84.5,85.5 C 85.2223,86.5511 86.2223,87.2178 87.5,87.5C 87.0254,90.0821 87.6921,92.0821 89.5,93.5C 90.8493,97.7268 90.5159,101.727 88.5,105.5C 87.5,105.5 86.5,105.5 85.5,105.5C 85.9274,101.996 85.9274,98.329 85.5,94.5C 84.8413,91.5448 84.5079,88.5448 84.5,85.5 Z"/></g>
<g><path style="opacity:1" fill="#3975aa" d="M 111.5,97.5 C 111.5,100.167 111.5,102.833 111.5,105.5C 110.833,105.5 110.167,105.5 109.5,105.5C 108.964,102.302 109.631,99.6353 111.5,97.5 Z"/></g>
<g><path style="opacity:1" fill="#3e2e52" d="M 77.5,109.5 C 76.2521,108.666 75.5854,107.333 75.5,105.5C 75.8333,104.167 76.1667,102.833 76.5,101.5C 77.48,104.086 77.8134,106.753 77.5,109.5 Z"/></g>
<g><path style="opacity:1" fill="#b9847a" d="M 109.5,105.5 C 110.167,105.5 110.833,105.5 111.5,105.5C 111.5,106.833 111.5,108.167 111.5,109.5C 110.167,109.5 109.5,108.833 109.5,107.5C 109.5,106.833 109.5,106.167 109.5,105.5 Z"/></g>
<g><path style="opacity:1" fill="#704376" d="M 115.5,105.5 C 114.962,107.117 114.629,108.784 114.5,110.5C 113.5,110.5 112.5,110.5 111.5,110.5C 111.5,110.167 111.5,109.833 111.5,109.5C 111.5,108.167 111.5,106.833 111.5,105.5C 113.239,102.252 114.406,98.5856 115,94.5C 115.499,98.1516 115.665,101.818 115.5,105.5 Z"/></g>
<g><path style="opacity:1" fill="#785fbc" d="M 80.5,107.5 C 82.9571,108.735 84.2905,110.735 84.5,113.5C 83.2502,113.423 82.4169,112.756 82,111.5C 81.933,114.358 82.7664,117.025 84.5,119.5C 84.1667,119.833 83.8333,120.167 83.5,120.5C 82.6667,119.5 81.8333,118.5 81,117.5C 80.5017,114.183 80.335,110.85 80.5,107.5 Z"/></g>
<g><path style="opacity:1" fill="#3a79b3" d="M 104.5,100.5 C 104.198,103.059 104.532,105.393 105.5,107.5C 105.5,108.833 105.5,110.167 105.5,111.5C 105.179,114.88 106.179,115.713 108.5,114C 107.944,113.617 107.611,113.117 107.5,112.5C 108.167,110.833 108.833,109.167 109.5,107.5C 109.5,108.833 110.167,109.5 111.5,109.5C 111.5,109.833 111.5,110.167 111.5,110.5C 112.882,115.593 115.549,119.927 119.5,123.5C 122.767,124.677 125.767,126.344 128.5,128.5C 132.455,128.991 136.121,129.991 139.5,131.5C 130.808,131.169 122.141,131.502 113.5,132.5C 111.255,133.208 109.255,134.208 107.5,135.5C 106.609,136.11 105.609,136.443 104.5,136.5C 101.734,137.232 99.0675,137.232 96.5,136.5C 95.8333,136.5 95.5,136.167 95.5,135.5C 94.9564,131.327 95.623,127.494 97.5,124C 96.4238,122.274 96.2571,120.441 97,118.5C 97.6493,121.937 98.1493,122.104 98.5,119C 96.8555,113.765 97.6889,113.265 101,117.5C 101.548,114.812 100.715,112.645 98.5,111C 100.121,108.834 100.955,106.334 101,103.5C 101.315,106.372 101.815,109.205 102.5,112C 103.352,113.898 104.019,113.731 104.5,111.5C 102.446,105.282 101.446,101.615 101.5,100.5C 102.5,100.5 103.5,100.5 104.5,100.5 Z"/></g>
<g><path style="opacity:1" fill="#ba8174" d="M 105.5,107.5 C 107.176,108.183 107.843,109.517 107.5,111.5C 106.833,111.5 106.167,111.5 105.5,111.5C 105.5,110.167 105.5,108.833 105.5,107.5 Z"/></g>
<g><path style="opacity:1" fill="#8cae73" d="M 105.5,111.5 C 106.167,111.5 106.833,111.5 107.5,111.5C 107.5,111.833 107.5,112.167 107.5,112.5C 107.611,113.117 107.944,113.617 108.5,114C 106.179,115.713 105.179,114.88 105.5,111.5 Z"/></g>
<g><path style="opacity:1" fill="#311b58" d="M 81.5,103.5 C 81.1254,104.793 80.7921,106.126 80.5,107.5C 80.335,110.85 80.5017,114.183 81,117.5C 81.8333,118.5 82.6667,119.5 83.5,120.5C 83.8333,120.167 84.1667,119.833 84.5,119.5C 82.7664,117.025 81.933,114.358 82,111.5C 82.4169,112.756 83.2502,113.423 84.5,113.5C 84.6741,115.861 85.0074,118.194 85.5,120.5C 86.9778,120.762 88.3112,120.429 89.5,119.5C 88.9747,118.808 88.3081,118.308 87.5,118C 88.4158,117.722 89.0825,117.222 89.5,116.5C 90.2389,116.369 90.9056,116.536 91.5,117C 91.3905,121.622 91.3905,126.455 91.5,131.5C 79.1667,131.5 66.8333,131.5 54.5,131.5C 60.3633,129.994 66.03,127.827 71.5,125C 72.7144,123.021 74.3811,121.521 76.5,120.5C 77.3742,118.253 77.7076,115.92 77.5,113.5C 77.5,112.167 77.5,110.833 77.5,109.5C 78.4731,107.052 78.8064,104.385 78.5,101.5C 80.1788,101.285 81.1788,101.952 81.5,103.5 Z"/></g>
<g><path style="opacity:1" fill="#8b5a4d" d="M 95.5,135.5 C 95.5,136.167 95.8333,136.5 96.5,136.5C 95.0813,137.451 93.4147,137.784 91.5,137.5C 91.5,137.167 91.5,136.833 91.5,136.5C 92.3764,136.631 93.0431,136.298 93.5,135.5C 92.8075,134.482 92.1408,133.482 91.5,132.5C 91.5,132.167 91.5,131.833 91.5,131.5C 91.3905,126.455 91.3905,121.622 91.5,117C 90.9056,116.536 90.2389,116.369 89.5,116.5C 88.0343,113.405 88.3676,110.405 90.5,107.5C 91.2074,111.335 92.3741,115.002 94,118.5C 94.1728,124.348 94.6728,130.015 95.5,135.5 Z"/></g>
<g><path style="opacity:1" fill="#9a7c88" d="M 104.5,116.5 C 105.043,116.56 105.376,116.893 105.5,117.5C 104.499,120.172 103.499,122.839 102.5,125.5C 101.429,122.117 102.096,119.117 104.5,116.5 Z"/></g>
<g><path style="opacity:1" fill="#69773c" d="M 54.5,131.5 C 66.8333,131.5 79.1667,131.5 91.5,131.5C 91.5,131.833 91.5,132.167 91.5,132.5C 78.7536,132.187 66.087,132.52 53.5,133.5C 53.3284,132.508 53.6618,131.842 54.5,131.5 Z"/></g>
<g><path style="opacity:1" fill="#92ae48" d="M 91.5,132.5 C 92.1408,133.482 92.8075,134.482 93.5,135.5C 93.0431,136.298 92.3764,136.631 91.5,136.5C 77.4591,137.149 63.7924,136.482 50.5,134.5C 51.391,133.89 52.391,133.557 53.5,133.5C 66.087,132.52 78.7536,132.187 91.5,132.5 Z"/></g>
<g><path style="opacity:1" fill="#90ac4d" d="M 139.5,131.5 C 141.048,131.821 141.715,132.821 141.5,134.5C 143.179,134.285 144.179,134.952 144.5,136.5C 131.989,136.829 119.655,136.495 107.5,135.5C 109.255,134.208 111.255,133.208 113.5,132.5C 122.141,131.502 130.808,131.169 139.5,131.5 Z"/></g>
<g><path style="opacity:1" fill="#5d6b34" d="M 50.5,134.5 C 63.7924,136.482 77.4591,137.149 91.5,136.5C 91.5,136.833 91.5,137.167 91.5,137.5C 77.5,137.5 63.5,137.5 49.5,137.5C 49.2627,136.209 49.596,135.209 50.5,134.5 Z"/></g>
<g><path style="opacity:1" fill="#5f6b39" d="M 107.5,135.5 C 119.655,136.495 131.989,136.829 144.5,136.5C 145.167,136.5 145.5,136.833 145.5,137.5C 131.656,137.829 117.99,137.496 104.5,136.5C 105.609,136.443 106.609,136.11 107.5,135.5 Z"/></g>
<g><path style="opacity:1" fill="#9a4388" d="M 96.5,136.5 C 99.0675,137.232 101.734,137.232 104.5,136.5C 117.99,137.496 131.656,137.829 145.5,137.5C 146.853,138.526 147.853,139.859 148.5,141.5C 135.5,141.5 122.5,141.5 109.5,141.5C 109.5,142.5 109.5,143.5 109.5,144.5C 122.833,144.5 136.167,144.5 149.5,144.5C 156.059,152.385 154.393,157.385 144.5,159.5C 112.5,160.833 80.5,160.833 48.5,159.5C 47.0663,158.77 45.8996,157.77 45,156.5C 44.7619,152.627 43.9286,148.96 42.5,145.5C 43.4686,141.517 45.802,138.85 49.5,137.5C 63.5,137.5 77.5,137.5 91.5,137.5C 93.4147,137.784 95.0813,137.451 96.5,136.5 Z"/></g>
<g><path style="opacity:1" fill="#c77861" d="M 45.5,141.5 C 63.8454,141.167 82.1788,141.5 100.5,142.5C 99.9747,143.192 99.3081,143.692 98.5,144C 80.8365,144.5 63.1698,144.667 45.5,144.5C 45.5,143.5 45.5,142.5 45.5,141.5 Z"/></g>
<g><path style="opacity:1" fill="#c77860" d="M 148.5,141.5 C 149.404,142.209 149.737,143.209 149.5,144.5C 136.167,144.5 122.833,144.5 109.5,144.5C 109.5,143.5 109.5,142.5 109.5,141.5C 122.5,141.5 135.5,141.5 148.5,141.5 Z"/></g>
</svg>
