<svg width="100" height="100" viewBox="0 0 100 100" fill="none" xmlns="http://www.w3.org/2000/svg">
<rect width="100" height="100" rx="50" fill="#CBDA23"/>
<g clip-path="url(#clip0_2343_3988)">
<path d="M25.3029 56.7514C24.6759 57.0593 23.727 58.274 23.6084 58.9926C23.4728 59.848 23.6762 59.7795 24.5742 60.0361C24.9809 60.0704 25.1504 59.9335 25.2859 59.7453C25.6587 59.1979 26.9296 57.9319 26.8448 57.2133C26.7262 56.3579 25.879 56.4777 25.3198 56.7514H25.3029Z" fill="black"/>
<path d="M28.624 57.3673C28.3359 57.5897 26.5906 59.8309 26.6753 60.2928C26.794 60.8745 28.9798 60.8574 29.4034 60.8745C29.861 60.9942 30.2337 60.7205 30.5049 60.2073C30.9454 59.3519 31.3013 58.4793 30.5896 57.5555C30.0304 56.8541 29.3018 56.8541 28.624 57.3673V57.3673Z" fill="black"/>
<path d="M25.7943 62.072C24.8962 61.9693 23.9134 61.3534 23.9134 62.6023C23.9642 63.5262 24.1506 64.3987 24.4726 65.2541C25.0995 66.8793 25.5062 67.136 26.5737 65.6818C26.9465 65.1856 28.3699 63.3551 28.2004 62.6365C27.9971 61.7811 26.6415 62.1575 25.7943 62.0549V62.072Z" fill="black"/>
<path d="M21.9648 61.0628C20.965 60.7548 21.0497 61.4562 20.9989 62.2774C20.9989 62.8933 21.0836 63.5092 21.1853 64.1251C21.3039 64.741 22.0325 65.1174 22.5917 64.741C23.1678 64.3646 22.7273 63.4066 22.6764 62.7565C22.6087 61.9182 22.8289 61.3194 21.9478 61.0628H21.9648Z" fill="black"/>
<path d="M23.4728 55.8274C22.9814 55.8274 22.6595 55.9985 22.3714 56.2551C21.9817 56.6144 20.8803 57.8119 20.9142 58.3936C20.948 58.9753 21.4903 59.1977 21.9986 58.8897C22.4731 58.5989 22.9475 57.2303 23.2525 56.7512C23.4389 56.4604 24.1675 55.9129 23.4728 55.8274V55.8274Z" fill="black"/>
<path d="M37.6895 64.8093C36.6219 64.8435 35.8255 69.189 38.3503 68.6757C39.367 68.4704 39.9262 67.5295 40.0787 66.5715C40.3159 65.1515 39.8076 64.8435 38.4689 64.8093C38.1978 64.8093 37.9436 64.8093 37.6725 64.8093H37.6895Z" fill="black"/>
<path d="M19.4061 58.0175C19.9483 57.778 21.7953 55.1947 20.3042 55.092C20.1178 55.1091 19.9483 55.1605 19.8128 55.2802C19.2705 55.7421 17.5761 58.8045 19.4061 58.0346V58.0175Z" fill="black"/>
<path d="M19.1689 63.4578C19.9145 63.7828 19.6094 62.3971 19.6094 61.9865C19.6094 61.9865 19.6094 61.9865 19.6264 61.9865C19.6264 61.6272 19.8467 60.5152 19.44 60.2586C18.7622 59.8137 18.7792 61.285 18.7792 61.6272C18.7792 62.0036 18.6775 63.2525 19.1689 63.4578V63.4578Z" fill="black"/>
<path d="M17.0846 58.8731C16.8305 59.2152 17.2541 60.601 17.3727 60.9773C17.4744 60.3272 17.5422 59.8311 17.6269 59.335C17.7116 58.8217 17.3219 58.5651 17.0846 58.8902V58.8731Z" fill="black"/>
<path d="M32.4366 59.5743C31.0302 61.4562 29.7932 63.492 28.5054 65.4595C28.014 66.2122 27.5396 66.811 28.2004 67.5809C28.7765 68.2652 30.0643 68.402 30.8946 68.4534C33.4702 68.6244 32.7247 67.3756 32.623 65.3055C32.5044 63.1841 32.9449 61.1482 32.928 59.0439C32.6738 59.1808 32.5722 59.3861 32.4366 59.5401V59.5743Z" fill="black"/>
<path d="M43.6371 74.5438C43.6371 74.5438 43.6201 74.4754 43.6201 74.4412C43.6201 74.4925 43.6201 74.5267 43.6371 74.5438Z" fill="black"/>
<path d="M67.1224 48.3685C66.5971 48.4028 66.4616 48.8818 66.1905 49.3095C65.2077 50.8663 64.1571 52.4916 63.581 54.2537C63.259 55.246 63.259 56.2382 63.0896 57.2647C62.971 58.0175 62.5982 58.4281 62.344 59.0782C61.7679 60.5495 62.971 62.6709 62.7337 64.3817C62.5135 65.9385 61.7848 67.2387 60.1073 67.29C58.7178 67.3414 57.6842 66.6741 57.6334 65.2371C57.5825 63.9197 58.8703 60.9601 56.7353 60.8403C55.0239 60.7377 54.0072 62.0379 52.8211 62.9104C52.0924 63.4407 51.8383 63.5434 51.4655 64.4159C51.1774 65.0489 51.1435 65.5792 50.4658 65.9214C49.8727 66.2293 49.3982 65.8872 48.8391 65.9214C47.924 66.0069 48.3477 65.9727 47.619 66.6912C47.2293 67.0676 46.8057 67.3585 46.2465 67.3927C45.9585 67.4098 45.4501 67.1532 45.2298 67.2045C44.5859 67.3585 44.6876 67.7348 44.2809 68.1625C43.8234 68.6245 43.349 68.9495 42.6712 68.9324C41.8917 68.9153 41.5698 68.0941 40.9936 68.0257C40.6378 68.1112 40.1295 69.0864 39.7736 69.343C39.2314 69.7023 38.6044 69.8905 37.9605 69.8905C37.4861 69.8905 36.9608 69.7707 36.5372 69.5312C35.8594 69.1206 35.9272 68.4876 35.5036 68.0257C35.1647 67.6664 35.063 67.5467 34.5377 67.8717C33.9446 68.231 34.5208 68.231 34.0802 68.7442C33.216 69.7365 31.7418 69.7878 30.4879 69.6509C29.8779 69.5825 29.2509 69.4628 28.6748 69.2403C27.9801 68.9666 27.5904 68.3678 26.9973 68.0428C26.1162 67.5809 25.3198 68.4192 24.3878 67.598C23.422 66.7426 23.6083 66.2293 22.2189 66.2293C20.8294 66.2293 20.1686 65.2713 18.813 65.0831C19.6941 67.1532 20.5244 69.2403 21.8461 71.0709C22.4561 71.9092 23.1678 72.6277 23.8456 73.3805C24.7267 74.3728 24.9978 74.732 24.8114 76.0322C24.5911 77.5891 24.015 80.1724 25.7434 81.062C27.387 81.9174 28.6579 80.9594 28.4376 79.1459C28.2512 77.5377 26.4212 75.4848 27.709 73.9108C27.9462 73.6029 28.7426 72.9699 28.9798 73.5858C29.1154 73.928 28.4376 74.3043 28.6409 74.6807C28.8612 75.1084 30.5218 74.886 30.9793 75.0058C31.7418 75.1939 32.4535 75.5361 33.0974 75.9809C34.2835 76.8021 35.1816 77.9826 35.7238 79.317C36.3338 80.8054 36.3677 82.2254 36.1983 83.7993C36.0458 85.2877 35.6899 87.3235 37.0286 88.3671C38.1808 89.2739 40.2311 89.1883 41.0275 87.871C41.8578 86.4852 41.4512 84.706 41.0784 83.2689C40.1803 79.8987 39.5025 76.0151 42.9253 73.774C43.7048 73.2607 43.6031 73.2436 43.8573 73.774C43.8234 73.7055 43.6709 74.6465 43.6031 74.4925C43.6879 74.7834 43.959 75.0229 44.0606 75.2966C44.6198 76.8534 43.3998 78.8037 44.1115 80.2237C44.7723 81.541 46.5515 81.216 47.1785 80.0355C47.9749 78.53 47.0599 76.477 47.941 74.9544C48.856 73.3976 51.1605 72.4738 52.7533 71.875C53.0075 71.7894 54.3969 71.1393 54.668 71.3446C55.2103 71.7381 54.4647 71.8921 54.38 72.3198C54.8544 72.4909 55.3119 72.6448 55.7186 72.9015C57.5995 74.0648 56.2439 76.2889 56.4811 77.9826C56.7014 79.5907 58.5145 80.2921 59.7345 79.1288C61.3104 77.6233 59.8701 75.6045 60.1581 73.928C60.2768 73.2436 60.7512 73.1752 61.3273 72.8159C62.1915 72.2685 62.954 71.5841 63.6318 70.7972C66.2582 67.7691 67.7663 63.8855 67.4444 59.8651C67.2919 57.8635 67.1902 55.8619 67.546 53.8773C67.6647 53.1759 67.851 52.4745 68.1561 51.8073C68.3594 51.3624 69.4608 50.2162 69.4947 49.7885C69.5286 49.3437 67.6985 48.283 67.1224 48.3172V48.3685Z" fill="black"/>
<path d="M41.7902 65.4255C41.7902 65.8019 41.8241 66.2638 41.9427 66.7257C42.6543 69.5314 44.6877 65.4084 43.8574 64.2108C43.5694 63.8003 42.6543 63.7147 42.2307 64.0569C41.7563 64.4161 41.7902 64.8096 41.8071 65.4255H41.7902Z" fill="black"/>
<path d="M46.8904 60.327C46.8904 57.9319 44.8571 60.1902 45.5179 61.3364C46.1279 62.38 46.8904 61.0627 46.8904 60.327Z" fill="black"/>
<path d="M50.093 59.7967H50.11C50.11 58.582 49.195 58.6162 48.9239 59.7282C48.5341 61.4048 50.0761 61.4561 50.0761 59.7967H50.093Z" fill="black"/>
<path d="M50.3303 63.6119C50.3303 62.7907 49.6355 61.9182 48.9408 62.9618C48.0597 64.262 50.3811 65.8873 50.3303 63.6119Z" fill="black"/>
<path d="M78.7804 24.5027C76.9165 22.8262 75.5609 20.7219 73.7648 19.0111C71.9348 17.266 69.5964 16.4449 67.1225 16.1711C64.3944 15.8632 61.5476 16 58.8534 16.5304C57.5995 16.7699 56.3964 17.1463 55.2273 17.6766C54.6511 17.9333 52.8889 18.5149 52.7025 19.1821C52.7703 19.2164 52.8042 19.2677 52.838 19.2677C55.6 19.4388 58.1417 19.9007 60.1243 22.0221C61.8018 23.8184 62.5813 26.2307 62.971 28.6258C63.4624 31.6368 62.971 34.5794 62.971 37.6075C62.971 38.7708 62.8524 40.6698 63.8182 41.5595C64.6485 42.3122 66.4955 42.5004 67.5461 42.9281C68.7153 43.4071 69.8675 43.9204 70.9859 44.5191C71.8839 44.9982 73.3751 46.2471 71.4264 46.0418C70.0539 45.9049 68.3425 44.8442 66.9869 44.4165C65.8855 44.0572 64.6655 43.8177 63.6149 43.3045C60.9715 41.97 61.2765 38.2234 61.3104 35.7085C61.3443 32.8172 61.7001 29.8747 61.0562 27.0005C59.7854 21.372 54.3292 20.4823 49.3813 21.0298C46.6363 21.3378 44.2979 22.1418 41.6376 21.1153C39.367 20.2428 37.1133 18.6176 34.6225 19.6612C32.2163 20.6705 31.6571 22.9117 31.0302 25.2726C30.3863 27.7019 30.0304 30.1997 29.234 32.5777C28.3868 35.1439 26.6415 37.0771 25.5062 39.4723C25.0656 40.3961 24.7606 41.1831 25.0487 42.1753C25.3706 43.2703 26.1162 44.1599 26.1162 45.3574C26.1331 48.0776 22.9984 50.1135 21.3039 51.8414C20.9481 52.2007 19.8297 53.0561 20.0161 53.5522C20.033 53.6035 22.202 54.3392 22.4222 54.3905C23.0323 54.5102 23.6762 54.3221 24.2862 54.4931C24.7267 54.6129 25.0148 54.9379 25.4384 55.0577C25.6756 55.1261 25.9976 54.9893 26.2518 55.0577C26.794 55.1775 27.1329 55.5538 27.6073 55.6907C28.4207 55.9302 29.2001 55.3999 30.1152 55.6223C30.5727 55.742 30.9963 55.9644 31.3521 56.2724C31.5724 56.4777 31.9113 57.2475 32.1316 57.3502C32.6399 57.5726 33.216 57.1962 33.843 57.3331C34.1988 57.4186 34.3852 57.7608 34.8258 57.8292C35.3002 57.9147 35.8425 57.6752 36.3678 57.7779C37.537 58.0003 37.825 58.582 39.045 58.3424C40.1295 58.12 40.8581 58.4964 41.8579 58.4793C42.3662 58.4793 42.7898 58.1543 43.3151 58.1714C43.7896 58.1714 44.1962 58.5991 44.6537 58.582C44.891 58.582 45.3146 58.1714 45.5688 58.1029C46.2296 57.8976 46.9074 58.1714 47.5343 58.1029C49.6863 57.8976 51.4486 56.7514 51.4316 59.7966C51.4316 60.6691 51.33 62.7905 52.533 61.0284C53.1431 60.1388 52.7872 58.2911 52.7364 57.2989C52.6347 54.8695 52.55 53.1245 54.4817 51.4308C56.1762 49.9424 56.9895 47.7012 58.972 46.4181C61.0054 45.1008 63.4793 45.2035 65.6822 45.9733C67.7833 46.709 70.4097 47.6328 71.7145 49.566C73.2565 51.8414 71.0367 53.8259 71.7653 56.1355C72.46 58.3424 75.3745 57.4357 75.7812 55.5025C76.2218 53.4667 75.9168 50.6438 75.222 48.6764C74.629 46.9827 74.2562 46.709 75.849 45.5285C76.8826 44.7587 77.6112 44.0401 78.306 42.9281C79.526 40.9778 79.7632 39.1814 80.153 36.9916C80.6274 34.357 82.0847 32.0132 81.9999 29.2417C81.9322 26.9321 80.3563 25.9227 78.7804 24.5198V24.5027ZM30.6574 51.5334C28.624 51.8756 26.9126 50.3872 26.9295 48.1118C26.9804 46.709 27.8446 45.5285 28.1326 44.177C28.4207 42.8083 28.4037 41.3199 29.0476 40.0368C30.4202 37.2996 33.8769 38.4116 36.0797 39.4552C42.8915 42.6886 35.4189 50.7465 30.6574 51.5506V51.5334ZM41.8409 27.8388C41.4004 30.7814 41.2648 34.4254 37.8928 35.315C36.8083 35.6059 35.7069 35.8625 34.4869 35.8283C33.0805 35.9309 31.2335 35.1782 30.7929 33.7069C30.3354 32.1842 31.403 30.713 32.1316 29.4812C33.6227 26.9321 33.8261 22.7235 37.215 22.0221C41.2648 21.1667 42.3493 24.4856 41.8579 27.8388H41.8409ZM57.8029 36.0507C57.4978 37.3338 56.6167 38.1721 56.2439 39.3354C55.905 40.379 54.7189 41.7476 53.6175 40.4645C53.3294 40.1395 53.3633 38.8051 53.0075 38.7366C52.5839 38.6511 52.5161 39.6947 52.4822 39.8829C52.228 41.3028 52.4483 43.1163 51.4147 44.2625C50.6013 45.1693 49.0933 45.2719 48.1782 44.3823C47.1616 43.4071 47.6191 41.7476 47.958 40.5672C48.5171 38.6682 48.7883 38.7366 47.0091 38.0694C45.6704 37.5733 44.3487 36.7008 44.0437 35.2295C43.8234 34.2201 43.7387 25.8372 46.0771 27.8217C46.7041 28.352 46.2635 29.2417 46.111 29.8747C45.8907 30.8669 45.8229 31.825 45.8738 32.8344C45.8738 33.1765 46.1957 36.5981 47.1616 35.5203C47.2463 35.4177 46.9074 33.1936 46.9074 33.0054C46.9074 32.0303 47.026 31.0893 47.348 30.1655C47.941 28.4205 49.161 26.8808 50.1438 25.3581C50.1947 25.2897 50.2455 25.2042 50.1777 25.0331C49.3135 25.1871 47.7377 26.915 47.1954 25.341C46.721 23.9724 49.1272 23.0657 50.0761 22.8433C53.0244 22.1076 55.9898 23.8697 57.2945 26.5386C58.6501 29.293 58.5145 33.1081 57.8198 36.0507H57.8029Z" fill="black"/>
<path d="M40.3329 62.6539C40.5532 62.0209 41.4851 60.4298 41.0954 59.7626C40.8243 59.2836 39.8584 59.2323 39.4179 59.5744C38.6553 60.1561 38.3165 62.7565 39.5365 62.9789C39.9601 63.0131 40.2143 62.9789 40.3329 62.671V62.6539Z" fill="black"/>
<path d="M33.843 61.473C33.843 63.1325 34.2328 64.4327 34.5886 65.7329C34.8597 66.7252 36.0459 64.2445 36.1645 64.0221C36.7067 62.9956 37.5031 61.5415 37.3337 60.3268C36.9439 57.6579 33.8092 59.3174 33.843 61.4559V61.473Z" fill="black"/>
<path d="M42.9085 62.2088C43.0779 62.2088 43.2643 62.2088 43.4337 62.2088C44.4674 62.1746 44.4504 58.8043 42.9254 59.5912C42.0104 60.0532 41.4682 62.2259 42.9254 62.2088H42.9085Z" fill="black"/>
<path d="M45.501 65.7162C46.2635 67.3244 47.348 64.7924 47.2632 64.0396C47.1616 63.1329 47.1954 63.0645 46.2127 63.2527C45.3485 63.4067 45.2299 63.4922 45.2299 64.3818C45.2299 64.8437 45.3485 65.3912 45.501 65.7162Z" fill="black"/>
<path d="M32.6739 32.749C32.6739 33.2451 32.9619 33.5701 33.4872 33.707C34.0972 33.8781 33.877 32.1673 33.9786 31.6883C34.2159 30.6447 34.7581 29.7208 35.2664 28.8141C35.6392 28.1469 37.7573 24.9819 37.232 24.2805C36.5881 23.3909 35.2156 27.6165 35.08 27.9587C34.5548 29.4642 32.7417 31.1921 32.6739 32.749Z" fill="black"/>
<path d="M28.9291 48.2827C28.9291 48.6933 29.0138 49.0355 29.3019 49.275C29.7933 49.7027 29.7763 47.9234 29.8102 47.8037C29.9627 47.0338 30.3185 46.3495 30.5388 45.6139C30.8099 44.7242 30.8269 43.7833 31.0133 42.8766C31.1149 42.3976 31.8436 41.1144 31.7588 40.7381C31.6572 40.2248 31.3013 40.2419 30.8777 40.6525C30.3694 41.1316 30.3863 42.6713 30.2847 43.2872C30.0135 44.9467 28.9969 46.6232 28.9291 48.2656V48.2827Z" fill="black"/>
</g>
<defs>
<clipPath id="clip0_2343_3988">
<rect width="65" height="73" fill="white" transform="translate(17 16)"/>
</clipPath>
</defs>
</svg>
