<svg width="100" height="100" viewBox="0 0 100 100" fill="none" xmlns="http://www.w3.org/2000/svg">
<rect width="100" height="100" rx="50" fill="#1C1C1C"/>
<path d="M86.4123 34.4888C86.1834 35.8239 85.8973 36.4723 85.5922 37.2161C85.2298 38.0362 84.8484 38.9135 84.5623 40.7635C84.4098 41.5073 84.3334 42.0222 84.2762 42.4609C84.1999 43.2047 84.1237 43.7196 83.8376 44.5969C83.6087 45.3407 83.1701 46.5804 82.1402 47.9154C81.3201 49.0216 80.0042 50.7952 78.1542 51.005C78.0016 51.005 77.6393 51.005 77.563 50.9287C72.4708 48.354 68.0461 46.3515 66.5013 45.9128C64.7277 45.3979 64.9565 41.5645 65.1663 38.1697C65.2426 36.6249 65.3189 35.2136 65.2426 33.9739C65.0137 29.7018 64.2127 24.972 60.5128 22.6834C58.3005 21.2912 55.4206 20.9097 52.6171 20.9097C53.132 20.6809 53.7232 20.3185 54.3145 19.9561C55.9356 19.0025 57.9381 17.8201 59.9216 17.6675C60.5891 17.5912 61.2566 17.5149 61.8478 17.4387C65.9101 17 69.3812 16.5613 73.062 17.8773C74.7594 18.4685 78.1542 20.3948 79.0315 22.1494C79.6227 23.4081 80.7289 24.3617 82.7886 26.3452C83.8948 27.3751 84.6386 27.9663 85.1535 28.4049C85.8973 28.9962 86.0309 29.1487 86.2597 29.5874C87.0035 30.9224 86.6984 32.3909 86.4123 34.4507V34.4888Z" fill="white"/>
<path d="M67.6647 52.1303C67.9508 52.2066 68.0271 52.5689 67.8936 52.8741C67.3787 53.6942 66.7874 54.8003 66.0436 56.1163C65.6813 56.7838 65.3761 57.375 65.09 57.89C64.1364 59.5873 63.9839 61.0559 63.9839 62.162C63.9076 63.3445 63.8313 63.9357 63.1066 64.3744C62.5154 64.7367 61.9241 64.8893 57.7283 65.5568C56.9845 65.7094 56.6984 65.7857 56.3933 65.9192C56.317 65.9192 56.317 65.9955 56.2407 65.9955C55.9546 66.148 55.6495 65.8429 55.6495 65.5568C55.6495 64.9656 55.7258 64.2218 55.7258 63.3445V63.1919C55.7258 62.3718 55.7258 61.7234 55.6495 61.1322C55.5732 60.026 55.5732 59.5873 55.8784 59.1487C56.2407 58.5575 56.5459 58.4049 56.9845 58.1188C57.652 57.7564 58.4531 57.1652 59.7881 55.3915C60.4556 54.438 60.6082 53.9993 60.7417 53.5416C60.818 53.389 60.818 53.3127 61.3329 52.8741C61.9241 52.4354 63.5452 51.1767 65.7576 51.539C66.1962 51.6153 66.8637 51.8251 67.6838 52.1303H67.6647Z" fill="white"/>
<path d="M50.9959 71.6025C50.9196 71.755 50.767 71.755 50.6335 71.755C50.1949 71.755 49.8897 71.6788 49.6799 71.3927C49.2413 70.8777 49.3176 69.7716 49.3939 69.1803L51.1675 68.7417C51.3201 69.6953 51.3964 71.1066 51.015 71.6215L50.9959 71.6025Z" fill="white"/>
<path d="M51.1485 65.1945C51.1485 65.4806 51.0722 65.7094 51.0722 66.0718V67.4068C50.481 67.6357 50.0423 67.6357 49.4511 67.6357V66.0909C49.4511 65.7285 49.4511 65.2136 49.5274 64.9847C49.68 64.9847 49.8898 64.9084 50.0423 64.9084C50.4047 64.8321 50.9196 64.7559 51.2248 64.7559C51.1485 64.8321 51.1485 65.0419 51.1485 65.1945Z" fill="white"/>
<path d="M47.8299 71.0114C47.7537 71.8887 47.4676 73.0711 46.5712 73.2237C46.2088 73.3 45.98 73.2237 45.9037 73.0711C45.3125 72.5562 45.2362 70.9351 45.3125 69.7526C45.6748 69.7526 46.1898 69.6764 46.781 69.5238C47.1434 69.4475 47.5248 69.3712 47.8109 69.2949C47.8872 69.8099 47.8872 70.4011 47.8109 70.9923L47.8299 71.0114Z" fill="white"/>
<path d="M47.4487 67.7691L45.4652 68.4366C45.5415 67.6928 45.6941 66.6629 45.7513 65.9191C45.7513 65.4042 45.9039 65.2516 45.9801 65.2516H46.1327L47.3915 65.1753C47.4677 65.6902 47.4677 67.0253 47.4677 67.75L47.4487 67.7691Z" fill="white"/>
<path d="M44.2826 67.178C44.2063 67.4641 44.0538 68.2842 43.9965 68.8754L41.5554 68.7991C41.7079 68.0553 41.8414 67.2543 42.0703 66.6631C42.2992 66.0718 42.509 65.6332 42.7378 65.4806C42.9667 65.328 43.5579 65.328 43.844 65.5569C44.3589 65.9955 44.5115 66.5105 44.2826 67.178V67.178Z" fill="white"/>
<path d="M43.4053 74.5587C43.1765 74.7876 43.043 74.9211 42.7378 74.9974C42.4517 74.9974 42.2992 74.9974 42.0703 74.8448C41.3265 74.101 41.4028 71.8124 41.4028 70.7062C42.4327 70.4774 43.4625 70.2676 43.9775 70.2676C44.13 71.1449 44.1301 73.5861 43.3863 74.5397L43.4053 74.5587Z" fill="white"/>
<path d="M40.2204 68.7226C40.0678 69.0087 39.9916 69.3138 39.9343 69.5999C39.6483 69.6762 38.8282 69.5999 37.9509 69.4473L38.5421 65.6139C39.4957 65.3278 40.6781 65.2515 40.9833 65.5376C41.2694 65.9 40.5446 67.9025 40.2395 68.7035L40.2204 68.7226Z" fill="white"/>
<path d="M39.1141 75.1496C38.6755 75.7408 37.9317 76.0269 36.9781 75.9696C36.3106 75.9696 36.0245 75.6836 35.9482 75.531C35.4333 74.6537 35.9482 72.6512 36.4632 71.3352L39.7054 71.5641C39.7054 71.7929 39.7817 72.079 39.7817 72.3842C39.8579 73.2615 39.7054 74.4439 39.1141 75.1877V75.1496Z" fill="white"/>
<path d="M66.2725 47.4766C63.3164 46.6565 63.5452 42.3082 63.8313 38.1124C63.9076 36.6438 63.9839 35.2325 63.9076 34.1264C63.6787 30.2167 63.0303 25.9446 59.8453 24.0183C56.4505 21.9586 50.9197 22.3972 47.5249 22.8359C46.2661 23.1982 45.0837 23.4271 44.2064 23.4271C42.2229 23.3508 40.5828 22.4735 39.2668 21.7297C38.1606 21.1385 37.2833 20.6235 36.387 20.6235H36.2344C33.5834 20.7761 32.401 21.4436 31.2948 22.3972C31.0087 22.6261 30.7036 23.3508 29.5974 26.5358C29.0062 28.1569 28.9299 29.0533 28.8536 29.9306C28.7773 30.7507 28.6247 31.5517 28.2624 32.7341C27.9763 33.5542 27.7474 34.2789 27.5186 34.9465C27.0036 36.7964 26.565 38.1887 25.23 39.9623C25.0774 40.1912 24.8676 40.4773 24.6387 40.7824C24.3527 41.2211 23.9712 41.8123 23.5326 42.4798C23.1702 42.9185 22.4264 44.6921 22.4264 45.2834C22.5027 46.1607 22.7888 46.6756 23.0939 47.2668C23.38 47.8581 23.7614 48.6019 23.8377 49.5555V49.708C23.9903 51.2528 23.7614 51.9966 20.8816 54.5713C19.0316 56.1924 17.7157 57.8135 16.8193 58.996C16.743 59.0723 16.8193 59.2249 16.9719 59.2249H17.4868C18.1543 59.3011 18.879 59.5872 19.3368 60.1022C19.4131 60.1785 19.5656 60.2547 19.6229 60.1784C20.0615 59.9496 20.5764 60.0259 21.0914 60.0259C21.6826 60.1022 22.2738 60.2547 22.6362 60.6171C22.7888 60.7697 22.9986 60.846 23.2274 60.7697C23.6661 60.6934 24.181 60.6934 24.6197 60.846C24.9057 60.9985 25.2109 61.132 25.4398 61.3609C25.6686 61.5898 26.031 61.647 26.3171 61.4372C26.3933 61.3609 26.5459 61.2846 26.6794 61.2846C27.2706 61.0558 28.0144 61.2083 28.6057 61.4372C28.8917 61.5135 29.1969 61.6661 29.483 61.7996C29.9216 62.0856 30.2268 62.5434 30.4366 62.982C30.5891 63.3444 31.1041 63.4969 31.3901 63.2109C31.7525 62.9248 32.0577 62.9248 32.42 63.0583C32.5726 63.1346 32.6489 63.2109 32.7061 63.2872C32.935 63.5732 33.2973 63.8021 33.6597 63.7258C34.6133 63.4969 35.7194 63.6495 36.6158 64.0882C36.9019 64.2407 37.207 64.5268 37.4359 64.9083V64.7557C37.4359 64.7557 37.5122 64.6031 37.5885 64.6031L37.8173 64.5268C38.256 64.3742 40.7735 63.6495 41.6508 64.6794C41.7271 64.7557 41.8033 64.7557 41.8033 64.6794C41.9559 64.5268 42.0322 64.4505 42.0894 64.4505C42.6807 64.0882 43.7868 64.0882 44.4543 64.6794C44.6069 64.832 44.8167 64.7557 44.893 64.6031L45.1218 64.3742C45.3507 64.1454 45.7131 64.0882 45.9992 64.0882L47.3342 64.0119C47.6965 64.0119 48.7264 63.9356 49.0316 63.8593H49.1078C49.2604 63.8593 49.3939 63.783 49.5465 63.783C50.214 63.6304 50.9387 63.4969 51.53 63.783C52.1212 64.0691 52.0449 64.7366 51.9686 65.3278C51.9686 65.5567 51.8923 65.8428 51.8923 66.0716V66.434C51.8923 66.9489 51.8923 67.3876 51.816 67.769L51.8923 68.0551C51.9686 68.3412 52.2547 68.4938 52.4835 68.3412C52.9222 68.0551 53.3609 67.6737 53.5134 67.5211V67.4448C53.5134 67.4448 53.5897 67.2922 53.5897 67.0062C53.666 66.4912 53.7423 65.5376 53.7423 63.4588V63.2299C53.7423 62.4861 53.7423 61.8377 53.666 61.3037C53.5897 60.1975 53.5897 59.3202 54.1047 58.4238C54.6196 57.5465 55.1345 57.2414 55.6495 56.879C56.2407 56.5167 56.9082 56.0589 58.0144 54.5904C58.5293 53.8466 58.6056 53.5605 58.6819 53.2554C58.8345 52.6642 58.968 52.3781 59.8644 51.7106C60.5319 51.1956 62.6679 49.6508 65.4714 50.0895C66.3487 50.242 67.9126 50.757 69.3812 51.3482C69.3812 51.3482 69.4575 51.3482 69.5337 51.4245H69.61C70.8688 51.9394 72.1275 52.5307 72.9285 52.9693C73.1574 53.1219 73.4435 53.0456 73.6723 52.8167C73.9012 52.5307 74.1873 52.3018 74.4924 52.1492C74.645 52.0729 74.7213 51.9966 74.7785 51.9204C75.0646 51.6915 75.0646 51.1766 74.7022 51.0431C71.0786 48.907 67.3977 47.8009 66.2152 47.4194L66.2725 47.4766ZM38.0844 48.3539C37.207 52.3399 31.0087 56.7646 28.1289 56.7646H27.9C27.9 56.7646 27.8237 56.7646 27.7474 56.6883H27.6712C27.1562 56.5357 26.4124 56.0971 25.8975 55.5821C25.5351 55.2198 25.23 54.7621 25.1537 54.3234C25.1537 54.2471 25.1537 54.1708 25.0774 54.0945C24.9248 53.427 24.715 52.5497 25.3635 51.1384C25.4398 50.9096 25.516 50.7761 25.5923 50.6235C25.5923 50.5472 25.6686 50.5472 25.6686 50.4709C25.7449 50.3183 25.8212 50.1848 25.8212 50.0323C25.8975 49.8034 25.9738 49.6699 26.0501 49.5173C26.0501 49.441 26.1263 49.3647 26.1263 49.3647C26.2789 48.8498 26.3552 48.6972 26.3552 48.5447C26.3552 48.3921 26.4315 48.2586 26.4315 47.9534C26.5841 47.2096 26.7176 46.5612 26.7939 46.0272C26.9464 44.9973 27.0799 44.1009 27.6139 43.2999C27.6902 43.1473 27.8428 43.0138 27.9 42.9375C27.9 42.9375 27.9509 42.9121 28.0526 42.8613C28.0526 42.8613 28.1289 42.785 28.2052 42.785C28.3577 42.7087 28.4912 42.6324 28.6438 42.5561C28.7201 42.5561 28.7201 42.4798 28.7964 42.4798C28.8727 42.4035 29.0252 42.4035 29.1587 42.4035C29.6737 42.251 30.2649 42.251 30.9324 42.3272C31.6762 42.4035 32.401 42.5561 32.9922 42.6896C33.5071 42.8422 33.9458 42.9757 34.3272 43.1283C34.3272 43.1283 34.3781 43.1537 34.4798 43.2045C34.4798 43.2045 34.6323 43.2808 34.7086 43.2808C34.7849 43.3571 34.9375 43.3571 34.9947 43.4334C35.1473 43.5097 35.2236 43.5097 35.2808 43.586L35.3571 43.6623C35.7957 43.8911 36.1772 44.1009 36.4633 44.3298C36.6158 44.4824 36.7493 44.5586 36.9019 44.6921C36.9019 44.6921 36.9528 44.743 37.0545 44.8447C37.0545 44.8447 37.1308 44.921 37.2071 44.9973C38.3895 46.0272 38.3132 47.4385 38.0844 48.3158V48.3539ZM40.9642 33.23L40.8116 33.9738C40.5255 35.5949 39.9343 37.8835 37.5694 38.3985C35.2808 38.9897 34.7659 39.066 33.1447 39.1423H32.9922C31.8097 39.1423 29.5211 38.3985 29.1587 36.5676C28.9299 35.3851 29.4448 34.5078 30.2649 33.0965C30.4175 32.8676 30.551 32.5816 30.7036 32.3527C31.8097 30.4264 32.3247 29.0342 32.6298 27.928C32.9922 26.8219 33.2973 25.9446 34.0221 25.2008C34.1746 25.0482 34.3844 24.8384 34.6133 24.6858C34.7659 24.6095 34.8994 24.457 35.0519 24.3998C35.2808 24.3235 35.4906 24.1709 35.7195 24.1137C36.2344 23.9611 36.8256 23.8848 37.3406 23.8848C38.4467 23.8848 39.5529 24.1709 40.2967 24.8384C40.659 25.1245 41.174 25.6585 41.4028 27.3559C41.8415 28.176 41.5554 29.7971 40.9642 33.2491V33.23ZM57.7855 37.8835C56.9654 39.2758 56.5268 40.0196 55.8593 40.6108C54.467 41.7169 52.8269 42.003 51.5109 42.003C50.5573 42.003 49.7372 41.8504 49.2223 41.7742C47.83 41.5453 45.3126 41.0304 44.4353 39.0469C44.2827 38.6845 44.2827 38.3794 44.2827 38.0933C44.2827 37.8072 44.2827 37.216 44.1301 35.9573V35.881C44.0538 35.2897 43.9775 34.6222 44.1301 33.8212V33.7449C44.645 31.3037 44.7213 30.9414 44.8739 30.7125C45.1028 30.1976 45.694 30.045 46.2089 30.2739C46.6476 30.5027 46.8764 31.094 46.6476 31.5326C46.5713 31.6852 46.4187 32.2001 46.0564 34.1073V34.1836C45.9801 34.6985 45.9801 35.1372 46.0564 35.6521V35.7284C46.2089 37.1206 46.2089 37.7119 46.2089 38.0933V38.3222C46.3615 38.6845 46.6476 38.9134 47.029 39.1423C47.3151 39.2948 47.6965 38.9897 47.6202 38.6273C47.1816 36.4913 47.2579 34.0501 48.0589 32.5053C48.345 31.9903 48.8027 31.113 49.3176 30.3692C49.3176 30.3692 49.3939 30.2167 49.4702 30.1404C49.5465 30.0641 49.5465 29.9878 49.6228 29.9115C49.8516 29.5491 50.0614 29.244 50.214 29.0342L50.2903 28.9579C50.2903 28.9579 50.2903 28.8816 50.3666 28.8816C50.3666 28.8053 50.4429 28.8053 50.4429 28.7291V28.6528C50.4429 28.6528 50.4429 28.5765 50.5192 28.5765C50.5192 28.5002 50.5954 28.5002 50.5954 28.5002C50.748 28.3476 50.8243 28.1378 50.9578 27.9853C51.1867 27.6229 50.8815 27.1652 50.5192 27.3177C49.8516 27.6038 49.3367 27.9853 49.2604 28.0615C48.8218 28.4239 48.2305 28.3476 47.8682 27.909C47.5058 27.4703 47.5821 26.8791 48.0208 26.5167C48.5357 26.1544 51.1867 24.1518 54.448 25.1245C56.7366 25.792 57.9953 27.5657 58.434 28.2141C58.7963 28.7291 59.9025 30.4264 59.9025 32.7151C59.9025 34.3362 59.1587 35.5949 57.8427 37.8835H57.7855Z" fill="white"/>
<path d="M36.9019 25.8687C36.7493 26.231 36.5395 26.746 36.3107 27.2609C35.7957 28.5196 35.2808 29.9119 34.9757 30.4268C34.537 31.3041 34.1556 31.8191 33.8695 32.3531C33.5834 32.868 33.2783 33.2304 33.0494 33.8216C32.687 34.7752 32.6107 35.9576 32.8968 37.1401C32.3056 37.0638 31.2757 36.6251 31.1231 36.1102C31.0469 35.7478 31.2757 35.2901 32.0004 34.0505C32.153 33.8216 32.2865 33.5355 32.4391 33.2304C33.6978 31.0943 34.2128 29.5495 34.5751 28.4433C34.9375 27.1846 35.1664 26.6697 35.8339 26.231C36.12 26.0784 36.5014 25.9449 36.8638 25.8687H36.9019Z" fill="white"/>
<path d="M35.6622 70.1343C34.9946 71.5265 34.1174 72.7852 33.6024 73.4528C33.1638 72.2703 32.42 69.543 32.5725 67.3307V67.1018C32.6488 66.4343 32.8586 65.7668 33.1638 65.3282C33.3926 65.0421 33.9839 64.8132 34.6323 64.8132C35.1472 64.8132 35.6622 64.8895 36.1008 65.1756C36.3297 65.3282 36.692 65.538 36.692 66.3581C36.7683 67.3879 36.3297 68.7992 35.6622 70.1152V70.1343Z" fill="white"/>
<path d="M73.062 54.4949C73.062 54.4949 73.1383 54.5712 73.1383 54.6475C72.9094 55.0861 72.6996 55.315 72.3945 55.6774C72.0321 56.116 71.6507 56.5547 71.2883 57.2985C70.7734 58.3283 70.6208 59.2819 70.4682 61.7231C70.3919 64.603 70.4682 66.1478 70.5445 67.3302C70.6208 68.4364 70.6971 69.1802 70.4682 70.2101C70.0296 72.4224 69.1332 73.8909 67.8935 75.7409C66.425 78.1058 64.8611 80.4707 62.2864 81.2717C62.1338 81.3226 61.8414 81.348 61.4091 81.348C60.8179 81.348 59.8643 81.348 58.0143 81.4243C54.6196 81.5769 52.9222 81.5769 51.5299 81.8629C49.9851 82.149 49.2413 82.4542 48.4403 82.8165C47.7728 83.1026 47.1053 83.3315 45.8656 83.6366C45.1218 83.7892 44.0156 83.9227 40.1822 83.9227C36.3488 83.9227 33.8313 83.9227 30.6654 83.5603C26.317 83.0454 24.181 82.8165 22.6934 82.0918C19.2986 80.2418 17.8301 76.9996 15.4651 71.6214C15.4651 71.6214 15.5414 71.4688 15.6177 71.5451C15.7703 71.6214 15.8466 71.6977 15.9801 71.6977C16.0564 71.6977 16.2089 71.774 16.2662 71.774C16.495 71.8502 16.7048 71.8502 16.9337 71.774H17.0862C17.0862 71.774 17.1625 71.774 17.1625 71.8502C17.3151 72.2889 17.5249 72.6703 17.9826 72.8801C18.345 73.109 18.8599 73.109 19.3176 73.109C19.7754 73.109 20.2712 73.109 20.7099 73.0327C20.9388 73.0327 21.2248 73.109 21.3011 73.3188C21.7398 74.3487 22.2547 75.0925 22.9985 75.1687H23.1511C23.3037 75.1687 23.5134 75.0925 23.8186 74.9399C24.181 74.711 24.7722 74.8636 25.0773 75.1687C25.2299 75.3976 25.4397 75.5311 25.5923 75.6074C26.4124 76.4275 28.3958 76.8661 30.0169 76.8661C30.8942 76.8661 31.7143 76.7136 32.2293 76.5038C32.8968 76.2177 32.8968 75.6837 32.8968 75.4739C32.8205 75.1115 32.8205 74.7301 32.7442 74.3677C32.7442 74.2914 32.8205 74.2914 32.8205 74.3677C32.8968 74.5966 33.0494 74.8827 33.3354 74.8827H33.488C33.9266 74.8827 34.6705 75.0352 34.823 75.4739C34.8993 75.7028 34.9756 75.9125 35.1091 76.1414C35.3952 76.5801 35.9292 77.095 37.0353 77.095H37.1116C38.3704 77.095 39.4003 76.6563 40.0678 75.8363C40.0678 75.8363 40.1186 75.7854 40.2204 75.6837C40.4492 75.3213 41.1739 75.3213 41.4791 75.6074C41.8414 75.8935 42.2992 76.1223 42.7378 76.1223H42.9667C43.5579 76.046 43.9966 75.76 44.4352 75.245C44.6641 74.8827 44.8739 74.5012 44.9501 74.0626C45.0264 73.91 45.179 73.91 45.2362 73.9863C45.4651 74.2152 45.9037 74.4249 46.4187 74.4249C46.5713 74.4249 46.7048 74.4249 46.8573 74.3487C47.9635 74.1198 48.5547 73.1662 48.7836 72.1363C48.7836 72.1363 48.8599 72.06 48.8599 72.1363C49.146 72.4987 49.68 72.8801 50.5573 72.8801H50.7098C51.1485 72.8801 51.5871 72.6513 51.8923 72.2889C52.2546 71.8502 52.4072 71.1827 52.4072 70.5152C52.4072 70.2864 52.5598 70.0766 52.7696 69.924C53.7232 69.4853 54.8293 68.6653 55.1345 68.074C55.2108 67.9215 55.4206 67.788 55.5732 67.7117C56.2407 67.5591 56.603 67.4256 56.9082 67.3493C57.137 67.273 57.3468 67.1204 57.8618 67.0632C62.1338 66.3957 62.9539 66.2431 63.9075 65.671C65.2998 64.7174 65.376 63.4587 65.4523 62.2762C65.5286 61.2463 65.6049 60.0639 66.4059 58.6526C66.692 58.1376 67.0734 57.5464 67.3595 56.8789C67.9507 55.7727 68.828 54.1516 69.4193 53.2552C69.5718 53.0264 69.7816 52.9692 70.0868 53.1027C71.6316 53.6939 72.8141 54.2851 73.1192 54.4949H73.062Z" fill="white"/>
<path d="M31.5236 67.2542C31.371 68.7228 31.2375 70.7253 31.5236 73.3C31.5999 74.0438 31.6762 74.7685 31.8097 75.5123C31.5808 75.5886 30.9896 75.7984 29.8834 75.7412C28.3386 75.7412 26.851 75.3025 26.3361 74.8639L26.2598 74.7876C25.8974 74.5015 25.6686 74.2727 25.5923 73.7577C25.5923 73.6051 25.6686 73.3954 25.8212 73.1665C25.8974 73.0139 26.05 72.8804 26.1835 72.6516C26.4696 72.2892 26.7747 71.8315 27.0608 71.3165C28.0144 69.6954 28.3958 69.1805 28.8345 68.513C28.8345 68.4367 28.9108 68.4367 28.9871 68.3604C29.2731 67.998 29.5783 67.5403 30.0932 66.8156C30.4556 66.3006 30.7607 65.862 30.9705 65.4806C31.4092 64.8893 31.638 64.6033 31.8478 64.4507C31.8478 64.6795 31.7716 65.0419 31.6953 65.4043C31.619 65.8429 31.5427 66.5104 31.4664 67.2542H31.5236Z" fill="white"/>
<path d="M30.7798 44.2346C30.5509 44.5207 30.3411 44.9021 30.036 45.4934C29.2922 47.1145 29.2922 48.068 29.2922 48.8118C29.2922 49.1742 29.2922 49.5556 29.1396 49.8417C29.0633 50.0706 28.9107 50.3567 28.8535 50.6618C28.4149 51.6154 27.8236 52.9504 28.1097 54.7241C27.7474 54.5715 27.2324 54.1329 27.1561 53.9803C27.1561 53.904 27.0798 53.7514 27.0798 53.6942C26.9273 53.1793 26.851 52.8169 27.2324 51.9968C28.1097 49.8608 28.2623 49.4221 28.3386 48.8309C28.3386 48.6783 28.3386 48.6021 28.4149 48.4686C28.6437 47.6485 28.701 46.9237 28.7772 46.3325C28.9298 45.4552 29.0061 44.864 29.2922 44.4826C29.3685 44.33 29.7308 44.2537 30.1123 44.2537C30.2648 44.2537 30.4746 44.2537 30.7035 44.33L30.7798 44.2537V44.2346Z" fill="white"/>
<path d="M29.5974 65.1181C29.5211 64.6031 29.4448 64.0882 29.3113 63.6495L29.235 63.497L29.1587 63.3444L29.0824 63.2681L29.0061 63.1918L28.9298 63.1155C28.9298 63.1155 28.8536 63.0393 28.7773 63.0393H28.701C28.4149 62.963 28.1098 62.8104 27.8237 62.7532H27.5376C27.5376 62.7532 27.385 62.8295 27.3087 62.8295C27.3087 62.8295 27.2325 62.8295 27.2325 62.9057C27.2325 62.9057 27.1562 62.9057 27.1562 62.982L27.0799 63.0583L27.0036 63.1346C26.851 63.2872 26.7747 63.497 26.6412 63.6495C26.3552 64.0882 26.05 64.5269 25.7639 64.9846C25.4779 65.3469 25.249 65.8047 24.9438 66.167C24.7913 66.3959 24.6578 66.6057 24.5052 66.8345L24.4289 66.9108C24.5815 66.9108 24.7913 66.9871 24.9438 66.9871C25.3062 67.0634 25.7639 67.1397 26.1263 67.216C26.9464 67.3685 27.8237 67.3685 28.6438 67.3685H28.7963C29.0252 67.0825 29.235 66.701 29.5401 66.2624C29.6927 66.0335 29.8262 65.7474 29.9788 65.5186C29.6927 65.366 29.6164 65.2325 29.6164 65.1562L29.5974 65.1181Z" fill="white"/>
<path d="M26.6603 68.5128C26.584 69.1804 25.8402 70.8015 24.734 72.3463C23.7804 73.6813 23.2655 73.9674 23.1129 73.9674C22.6743 73.8911 22.2356 72.7849 21.8542 71.6788C21.7016 71.2401 21.5681 70.8015 21.4918 70.42C21.2629 69.5999 21.2057 68.4366 21.2629 67.769C22.2165 68.284 23.8376 68.4366 26.2025 68.4366C26.3551 68.5128 26.4886 68.5128 26.6412 68.5128H26.6603Z" fill="white"/>
<path d="M24.963 63.268C24.5243 63.9355 24.1429 64.5268 23.7042 65.0417C23.4754 65.3278 23.2656 65.6329 23.113 65.919C22.9604 66.0716 22.8269 66.2814 22.7506 66.4339C22.4646 66.3576 22.0831 66.2814 21.797 66.2051C21.511 66.1288 21.2821 66.0525 20.977 65.919C20.9007 65.919 20.9007 65.8427 20.8244 65.8427C20.7481 65.7664 20.7481 65.6901 20.6718 65.6138C20.7481 65.385 20.9007 65.2515 20.9579 65.0226C21.1105 64.6603 21.3203 64.2788 21.5491 63.9927C21.9115 63.4015 22.3692 62.734 22.9413 62.3716L23.0176 62.2954C23.2465 62.1428 23.4563 62.0665 23.7614 62.0093H24.2001C24.2001 62.0093 24.3527 62.0093 24.4289 62.0856H24.5052C24.5052 62.0856 24.6578 62.1618 24.6578 62.2381C24.5815 62.1618 24.8104 62.3907 24.8104 62.3907C24.8867 62.7531 24.963 62.9056 24.963 63.268V63.268Z" fill="white"/>
<path d="M21.8543 61.5708C21.1105 62.162 20.5955 62.9631 20.1569 63.8594C19.928 64.2981 19.7182 64.813 19.4131 65.2517C19.4131 65.328 19.3368 65.328 19.3368 65.4043C19.1079 65.328 18.8981 65.2517 18.6693 65.2517C18.4404 65.1754 18.2306 65.0991 18.0018 64.9656C17.9255 64.8893 17.7729 64.8893 17.7157 64.813C17.9446 64.3744 18.2306 63.9929 18.4595 63.6306C18.8219 63.1156 19.2033 62.5244 19.642 62.0095C19.7945 61.7806 19.928 61.6471 20.1569 61.4945C20.3857 61.342 20.6718 61.4182 20.9007 61.4182C21.1868 61.4182 21.4919 61.4182 21.7208 61.5708C21.7208 61.4945 21.7971 61.5708 21.8734 61.5708H21.8543Z" fill="white"/>
<path d="M20.6718 71.4497L20.5955 71.5259H20.5192C20.3667 71.5259 20.1569 71.5259 20.0043 71.6022C19.6419 71.6022 19.3368 71.6785 18.9744 71.6022C18.7455 71.6022 18.612 71.5259 18.5358 71.4497C18.3832 71.2208 18.3832 70.9347 18.3069 70.6296C18.078 69.3708 18.078 68.0549 18.2306 66.7961C18.8981 67.025 19.5656 67.2348 20.2904 67.3111C20.1378 68.4935 20.3667 70.1146 20.5192 70.6296C20.5192 70.9919 20.5955 71.2208 20.6718 71.4497V71.4497Z" fill="white"/>
<path d="M18.5357 61.2087C17.9445 61.9525 17.4296 62.6772 16.9146 63.4973C16.6858 63.7834 16.476 64.1648 16.3234 64.4509C16.0946 64.3746 15.8848 64.2983 15.6559 64.1648C15.5033 64.0886 15.2935 63.936 15.141 63.8025C15.0647 63.8025 14.9884 63.6499 14.9121 63.6499H14.8358C14.9121 63.4973 14.9884 63.3638 15.0647 63.2113C15.2173 62.9252 15.2935 62.6963 15.4271 62.3912C15.7131 61.9525 16.0183 61.4376 16.3044 60.9989C16.4569 60.8463 16.5332 60.6366 16.743 60.5603C16.8956 60.484 17.1817 60.5603 17.3342 60.5603C17.9255 60.7128 18.2115 60.8464 18.5167 61.2278L18.5357 61.2087Z" fill="white"/>
<path d="M14.0348 64.2983C14.0348 64.2983 14.1111 64.222 14.1111 64.2983C14.2637 64.5272 14.4735 64.6607 14.7023 64.8895C14.7786 64.9658 14.9312 65.0421 14.9884 65.1184V65.1947C14.7595 66.1483 14.626 67.1782 14.626 68.2271C14.626 68.3034 14.5497 68.3034 14.5497 68.2271C14.2637 66.9684 13.8822 65.0612 14.0348 64.3174V64.2983Z" fill="white"/>
<path d="M16.9147 66.4342C16.7621 67.3115 16.7621 68.2078 16.7621 69.0852C16.7621 69.6001 16.8384 70.0387 16.9147 70.4774H16.476C16.3234 70.4774 16.3234 70.4011 16.2471 70.4011C16.0946 70.3248 16.0183 70.1722 15.8848 70.0387C15.6559 69.6764 15.5987 69.1614 15.5987 68.7037C15.5987 67.8264 15.675 66.93 15.8276 66.0527C15.9801 66.129 16.1136 66.2053 16.2662 66.2816C16.4951 66.2816 16.7049 66.3579 16.9337 66.4342H16.9147Z" fill="white"/>
</svg>
