<svg width="96" height="96" viewBox="0 0 96 96" fill="none" xmlns="http://www.w3.org/2000/svg">
<g clip-path="url(#clip0_2017_2347)">
<path d="M48 96C74.5097 96 96 74.5097 96 48C96 21.4903 74.5097 0 48 0C21.4903 0 0 21.4903 0 48C0 74.5097 21.4903 96 48 96Z" fill="#6747ED"/>
<path fill-rule="evenodd" clip-rule="evenodd" d="M47.3 54.2C40.2 54.2 34.5 48.5 34.5 41.4C34.5 34.3 40.2 28.6 47.3 28.6C54.4 28.6 60.1 34.3 60.1 41.4C60.1 48.5 54.4 54.2 47.3 54.2ZM47.3 22.2C57.9 22.2 66.5 30.8 66.5 41.4C66.5 52 57.9 60.6 47.3 60.6C36.7 60.6 28.1 52 28.1 41.4C28.1 30.8 36.7 22.2 47.3 22.2ZM65.6 61.6C66.9 62.9 66.9 64.9 65.6 66.1L52.8 78.9C51.5 80.2 49.5 80.2 48.3 78.9C47 77.6 47 75.6 48.3 74.4L61.1 61.6C62.3 60.3 64.4 60.3 65.6 61.6ZM73 25.4C73 27.2 71.6 28.6 69.8 28.6C68 28.6 66.6 27.2 66.6 25.4C66.6 23.6 68 22.2 69.8 22.2C71.5 22.2 73 23.6 73 25.4Z" fill="white"/>
</g>
<defs>
<clipPath id="clip0_2017_2347">
<rect width="96" height="96" fill="white"/>
</clipPath>
</defs>
</svg>
