<svg width="180" height="180" viewBox="0 0 180 180" fill="none" xmlns="http://www.w3.org/2000/svg">
<path d="M141.17 1.17115e-05C130.889 -0.00796955 121.025 4.06369 113.743 11.3212C106.461 18.5788 102.356 28.4291 102.33 38.71V81.63C98.33 81.9 94.24 82.07 90 82.07C85.76 82.07 81.69 82.24 77.67 82.48V38.71C77.5064 28.5183 73.343 18.7993 66.0778 11.6497C58.8126 4.50019 49.0281 0.49321 38.835 0.49321C28.6419 0.49321 18.8574 4.50019 11.5922 11.6497C4.32701 18.7993 0.16355 28.5183 0 38.71V141.29C0.16355 151.482 4.32701 161.201 11.5922 168.35C18.8574 175.5 28.6419 179.507 38.835 179.507C49.0281 179.507 58.8126 175.5 66.0778 168.35C73.343 161.201 77.5064 151.482 77.67 141.29V98.37C81.67 98.1 85.76 97.93 90 97.93C94.24 97.93 98.31 97.76 102.33 97.52V141.29C102.494 151.482 106.657 161.201 113.922 168.35C121.187 175.5 130.972 179.507 141.165 179.507C151.358 179.507 161.143 175.5 168.408 168.35C175.673 161.201 179.836 151.482 180 141.29V38.71C179.974 28.4308 175.87 18.582 168.59 11.3248C161.311 4.06751 151.449 -0.00531961 141.17 1.17115e-05ZM38.83 15.86C44.8975 15.8573 50.7182 18.2617 55.0151 22.5454C59.312 26.8292 61.7341 32.6426 61.75 38.71V84.16C50.3878 85.8065 39.2922 88.9435 28.75 93.49C24.1823 95.4947 19.8825 98.0612 15.95 101.13V38.71C15.9659 32.6495 18.3825 26.8422 22.6707 22.5596C26.959 18.2769 32.7695 15.8679 38.83 15.86ZM61.75 141.29C61.75 147.369 59.3352 153.199 55.0369 157.497C50.7386 161.795 44.9088 164.21 38.83 164.21C32.7512 164.21 26.9214 161.795 22.6231 157.497C18.3248 153.199 15.91 147.369 15.91 141.29V131C15.91 121.91 23.11 113.3 35.18 107.94C43.6847 104.271 52.6084 101.661 61.75 100.17V141.29ZM141.17 164.14C135.103 164.143 129.282 161.738 124.985 157.455C120.688 153.171 118.266 147.357 118.25 141.29V95.84C129.612 94.1936 140.708 91.0565 151.25 86.51C155.818 84.5053 160.118 81.9389 164.05 78.87V141.29C164.034 147.351 161.618 153.158 157.329 157.44C153.041 161.723 147.231 164.132 141.17 164.14ZM144.82 72C136.315 75.6692 127.392 78.2788 118.25 79.77V38.71C118.25 32.6312 120.665 26.8015 124.963 22.5031C129.261 18.2048 135.091 15.79 141.17 15.79C147.249 15.79 153.079 18.2048 157.377 22.5031C161.675 26.8015 164.09 32.6312 164.09 38.71V49C164.09 58.05 156.89 66.66 144.82 72Z" fill="url(#paint0_linear_2017_2372)"/>
<defs>
<linearGradient id="paint0_linear_2017_2372" x1="11.4" y1="166.133" x2="167.573" y2="9.53359" gradientUnits="userSpaceOnUse">
<stop stop-color="#00AEE9"/>
<stop offset="1" stop-color="#69FABD"/>
</linearGradient>
</defs>
</svg>
